  0
SECTION
  2
HEADER
  9
$ACADVER
  1
AC1009
  9
$EXTMIN
 10
0.0
 20
0.0
 30
0.0
  9
$EXTMAX
 10
1000.0
 20
1000.0
 30
0.0
  9
$FILLMODE
 70
 0
  9
$SPLFRAME
 70
 1
  0
ENDSEC
  0
SECTION
  2
TABLES
  0
TABLE
  2
LAYER
 70
1
  0
LAYER
  2
0
 70
     0
 62
     7
  6
CONTINUOUS
  0
ENDTAB
  0
ENDSEC
  0
SECTION
  2
ENTITIES
  0
POLYLINE
  8
0
 62
     0
 66
     1
 10
0
 20
0
 30
0.0
 40
0.709
 41
0.709
  0
VERTEX
  8
0
 10
1.72976
 20
11.735
 30
0.0
 40
0.00984722
 41
0.00984722
  0
VERTEX
  8
0
 10
1.82835
 20
14.6701
 30
0.0
 40
0.00984722
 41
0.00984722
  0
SEQEND
 8
0
  0
POLYLINE
  8
0
 62
     0
 66
     1
 10
0
 20
0
 30
0.0
 40
0.709
 41
0.709
  0
VERTEX
  8
0
 10
2.41857
 20
14.6701
 30
0.0
 40
0.00984722
 41
0.00984722
  0
VERTEX
  8
0
 10
2.41824
 20
14.6779
 30
0.0
 40
0.00984722
 41
0.00984722
  0
VERTEX
  8
0
 10
2.41764
 20
14.6856
 30
0.0
 40
0.00984722
 41
0.00984722
  0
VERTEX
  8
0
 10
2.41689
 20
14.6933
 30
0.0
 40
0.00984722
 41
0.00984722
  0
VERTEX
  8
0
 10
2.4159
 20
14.701
 30
0.0
 40
0.00984722
 41
0.00984722
  0
VERTEX
  8
0
 10
2.41476
 20
14.7088
 30
0.0
 40
0.00984722
 41
0.00984722
  0
VERTEX
  8
0
 10
2.41336
 20
14.7162
 30
0.0
 40
0.00984722
 41
0.00984722
  0
VERTEX
  8
0
 10
2.41178
 20
14.724
 30
0.0
 40
0.00984722
 41
0.00984722
  0
VERTEX
  8
0
 10
2.41004
 20
14.7315
 30
0.0
 40
0.00984722
 41
0.00984722
  0
VERTEX
  8
0
 10
2.40804
 20
14.739
 30
0.0
 40
0.00984722
 41
0.00984722
  0
VERTEX
  8
0
 10
2.40588
 20
14.7464
 30
0.0
 40
0.00984722
 41
0.00984722
  0
VERTEX
  8
0
 10
2.40349
 20
14.7539
 30
0.0
 40
0.00984722
 41
0.00984722
  0
VERTEX
  8
0
 10
2.40093
 20
14.7611
 30
0.0
 40
0.00984722
 41
0.00984722
  0
VERTEX
  8
0
 10
2.39822
 20
14.7683
 30
0.0
 40
0.00984722
 41
0.00984722
  0
VERTEX
  8
0
 10
2.39529
 20
14.7756
 30
0.0
 40
0.00984722
 41
0.00984722
  0
VERTEX
  8
0
 10
2.39214
 20
14.7828
 30
0.0
 40
0.00984722
 41
0.00984722
  0
VERTEX
  8
0
 10
2.38883
 20
14.7897
 30
0.0
 40
0.00984722
 41
0.00984722
  0
VERTEX
  8
0
 10
2.38536
 20
14.7967
 30
0.0
 40
0.00984722
 41
0.00984722
  0
VERTEX
  8
0
 10
2.38167
 20
14.8035
 30
0.0
 40
0.00984722
 41
0.00984722
  0
VERTEX
  8
0
 10
2.37782
 20
14.8103
 30
0.0
 40
0.00984722
 41
0.00984722
  0
VERTEX
  8
0
 10
2.37381
 20
14.8168
 30
0.0
 40
0.00984722
 41
0.00984722
  0
VERTEX
  8
0
 10
2.36957
 20
14.8233
 30
0.0
 40
0.00984722
 41
0.00984722
  0
VERTEX
  8
0
 10
2.36524
 20
14.8297
 30
0.0
 40
0.00984722
 41
0.00984722
  0
VERTEX
  8
0
 10
2.36068
 20
14.8361
 30
0.0
 40
0.00984722
 41
0.00984722
  0
VERTEX
  8
0
 10
2.35596
 20
14.8422
 30
0.0
 40
0.00984722
 41
0.00984722
  0
VERTEX
  8
0
 10
2.35113
 20
14.8482
 30
0.0
 40
0.00984722
 41
0.00984722
  0
VERTEX
  8
0
 10
2.34608
 20
14.8542
 30
0.0
 40
0.00984722
 41
0.00984722
  0
VERTEX
  8
0
 10
2.34093
 20
14.86
 30
0.0
 40
0.00984722
 41
0.00984722
  0
VERTEX
  8
0
 10
2.33561
 20
14.8656
 30
0.0
 40
0.00984722
 41
0.00984722
  0
VERTEX
  8
0
 10
2.33014
 20
14.8711
 30
0.0
 40
0.00984722
 41
0.00984722
  0
VERTEX
  8
0
 10
2.32449
 20
14.8765
 30
0.0
 40
0.00984722
 41
0.00984722
  0
VERTEX
  8
0
 10
2.31874
 20
14.8817
 30
0.0
 40
0.00984722
 41
0.00984722
  0
VERTEX
  8
0
 10
2.31287
 20
14.8868
 30
0.0
 40
0.00984722
 41
0.00984722
  0
VERTEX
  8
0
 10
2.30686
 20
14.8917
 30
0.0
 40
0.00984722
 41
0.00984722
  0
VERTEX
  8
0
 10
2.30072
 20
14.8964
 30
0.0
 40
0.00984722
 41
0.00984722
  0
VERTEX
  8
0
 10
2.29443
 20
14.901
 30
0.0
 40
0.00984722
 41
0.00984722
  0
VERTEX
  8
0
 10
2.28803
 20
14.9054
 30
0.0
 40
0.00984722
 41
0.00984722
  0
VERTEX
  8
0
 10
2.28157
 20
14.9096
 30
0.0
 40
0.00984722
 41
0.00984722
  0
VERTEX
  8
0
 10
2.27496
 20
14.9138
 30
0.0
 40
0.00984722
 41
0.00984722
  0
VERTEX
  8
0
 10
2.26824
 20
14.9176
 30
0.0
 40
0.00984722
 41
0.00984722
  0
VERTEX
  8
0
 10
2.26144
 20
14.9212
 30
0.0
 40
0.00984722
 41
0.00984722
  0
VERTEX
  8
0
 10
2.2545
 20
14.9249
 30
0.0
 40
0.00984722
 41
0.00984722
  0
VERTEX
  8
0
 10
2.2475
 20
14.9282
 30
0.0
 40
0.00984722
 41
0.00984722
  0
VERTEX
  8
0
 10
2.24046
 20
14.9313
 30
0.0
 40
0.00984722
 41
0.00984722
  0
VERTEX
  8
0
 10
2.23329
 20
14.9343
 30
0.0
 40
0.00984722
 41
0.00984722
  0
VERTEX
  8
0
 10
2.22601
 20
14.9371
 30
0.0
 40
0.00984722
 41
0.00984722
  0
VERTEX
  8
0
 10
2.21875
 20
14.9397
 30
0.0
 40
0.00984722
 41
0.00984722
  0
VERTEX
  8
0
 10
2.21137
 20
14.9421
 30
0.0
 40
0.00984722
 41
0.00984722
  0
VERTEX
  8
0
 10
2.20389
 20
14.9443
 30
0.0
 40
0.00984722
 41
0.00984722
  0
VERTEX
  8
0
 10
2.1964
 20
14.9464
 30
0.0
 40
0.00984722
 41
0.00984722
  0
VERTEX
  8
0
 10
2.18886
 20
14.9482
 30
0.0
 40
0.00984722
 41
0.00984722
  0
VERTEX
  8
0
 10
2.18126
 20
14.9497
 30
0.0
 40
0.00984722
 41
0.00984722
  0
VERTEX
  8
0
 10
2.17367
 20
14.9511
 30
0.0
 40
0.00984722
 41
0.00984722
  0
VERTEX
  8
0
 10
2.16601
 20
14.9524
 30
0.0
 40
0.00984722
 41
0.00984722
  0
VERTEX
  8
0
 10
2.15831
 20
14.9535
 30
0.0
 40
0.00984722
 41
0.00984722
  0
VERTEX
  8
0
 10
2.15061
 20
14.9542
 30
0.0
 40
0.00984722
 41
0.00984722
  0
VERTEX
  8
0
 10
2.14285
 20
14.9549
 30
0.0
 40
0.00984722
 41
0.00984722
  0
VERTEX
  8
0
 10
2.1351
 20
14.9553
 30
0.0
 40
0.00984722
 41
0.00984722
  0
VERTEX
  8
0
 10
2.12733
 20
14.9554
 30
0.0
 40
0.00984722
 41
0.00984722
  0
VERTEX
  8
0
 10
2.11957
 20
14.9554
 30
0.0
 40
0.00984722
 41
0.00984722
  0
VERTEX
  8
0
 10
2.11182
 20
14.9553
 30
0.0
 40
0.00984722
 41
0.00984722
  0
VERTEX
  8
0
 10
2.10411
 20
14.9549
 30
0.0
 40
0.00984722
 41
0.00984722
  0
VERTEX
  8
0
 10
2.09636
 20
14.9542
 30
0.0
 40
0.00984722
 41
0.00984722
  0
VERTEX
  8
0
 10
2.08865
 20
14.9535
 30
0.0
 40
0.00984722
 41
0.00984722
  0
VERTEX
  8
0
 10
2.08094
 20
14.9524
 30
0.0
 40
0.00984722
 41
0.00984722
  0
VERTEX
  8
0
 10
2.07329
 20
14.9511
 30
0.0
 40
0.00984722
 41
0.00984722
  0
VERTEX
  8
0
 10
2.06565
 20
14.9497
 30
0.0
 40
0.00984722
 41
0.00984722
  0
VERTEX
  8
0
 10
2.05806
 20
14.9482
 30
0.0
 40
0.00984722
 41
0.00984722
  0
VERTEX
  8
0
 10
2.05051
 20
14.9464
 30
0.0
 40
0.00984722
 41
0.00984722
  0
VERTEX
  8
0
 10
2.04303
 20
14.9443
 30
0.0
 40
0.00984722
 41
0.00984722
  0
VERTEX
  8
0
 10
2.0356
 20
14.9421
 30
0.0
 40
0.00984722
 41
0.00984722
  0
VERTEX
  8
0
 10
2.02821
 20
14.9397
 30
0.0
 40
0.00984722
 41
0.00984722
  0
VERTEX
  8
0
 10
2.02089
 20
14.9371
 30
0.0
 40
0.00984722
 41
0.00984722
  0
VERTEX
  8
0
 10
2.01367
 20
14.9343
 30
0.0
 40
0.00984722
 41
0.00984722
  0
VERTEX
  8
0
 10
2.00651
 20
14.9313
 30
0.0
 40
0.00984722
 41
0.00984722
  0
VERTEX
  8
0
 10
1.9994
 20
14.9282
 30
0.0
 40
0.00984722
 41
0.00984722
  0
VERTEX
  8
0
 10
1.9924
 20
14.9249
 30
0.0
 40
0.00984722
 41
0.00984722
  0
VERTEX
  8
0
 10
1.98551
 20
14.9212
 30
0.0
 40
0.00984722
 41
0.00984722
  0
VERTEX
  8
0
 10
1.97868
 20
14.9176
 30
0.0
 40
0.00984722
 41
0.00984722
  0
VERTEX
  8
0
 10
1.972
 20
14.9138
 30
0.0
 40
0.00984722
 41
0.00984722
  0
VERTEX
  8
0
 10
1.96539
 20
14.9096
 30
0.0
 40
0.00984722
 41
0.00984722
  0
VERTEX
  8
0
 10
1.95888
 20
14.9054
 30
0.0
 40
0.00984722
 41
0.00984722
  0
VERTEX
  8
0
 10
1.95253
 20
14.901
 30
0.0
 40
0.00984722
 41
0.00984722
  0
VERTEX
  8
0
 10
1.94624
 20
14.8964
 30
0.0
 40
0.00984722
 41
0.00984722
  0
VERTEX
  8
0
 10
1.94011
 20
14.8917
 30
0.0
 40
0.00984722
 41
0.00984722
  0
VERTEX
  8
0
 10
1.93408
 20
14.8868
 30
0.0
 40
0.00984722
 41
0.00984722
  0
VERTEX
  8
0
 10
1.92817
 20
14.8817
 30
0.0
 40
0.00984722
 41
0.00984722
  0
VERTEX
  8
0
 10
1.92242
 20
14.8765
 30
0.0
 40
0.00984722
 41
0.00984722
  0
VERTEX
  8
0
 10
1.91683
 20
14.8711
 30
0.0
 40
0.00984722
 41
0.00984722
  0
VERTEX
  8
0
 10
1.91135
 20
14.8656
 30
0.0
 40
0.00984722
 41
0.00984722
  0
VERTEX
  8
0
 10
1.90603
 20
14.86
 30
0.0
 40
0.00984722
 41
0.00984722
  0
VERTEX
  8
0
 10
1.90088
 20
14.8542
 30
0.0
 40
0.00984722
 41
0.00984722
  0
VERTEX
  8
0
 10
1.89583
 20
14.8482
 30
0.0
 40
0.00984722
 41
0.00984722
  0
VERTEX
  8
0
 10
1.891
 20
14.8422
 30
0.0
 40
0.00984722
 41
0.00984722
  0
VERTEX
  8
0
 10
1.88629
 20
14.8361
 30
0.0
 40
0.00984722
 41
0.00984722
  0
VERTEX
  8
0
 10
1.88172
 20
14.8297
 30
0.0
 40
0.00984722
 41
0.00984722
  0
VERTEX
  8
0
 10
1.87739
 20
14.8233
 30
0.0
 40
0.00984722
 41
0.00984722
  0
VERTEX
  8
0
 10
1.87315
 20
14.8168
 30
0.0
 40
0.00984722
 41
0.00984722
  0
VERTEX
  8
0
 10
1.86914
 20
14.8103
 30
0.0
 40
0.00984722
 41
0.00984722
  0
VERTEX
  8
0
 10
1.86529
 20
14.8035
 30
0.0
 40
0.00984722
 41
0.00984722
  0
VERTEX
  8
0
 10
1.8616
 20
14.7967
 30
0.0
 40
0.00984722
 41
0.00984722
  0
VERTEX
  8
0
 10
1.85813
 20
14.7897
 30
0.0
 40
0.00984722
 41
0.00984722
  0
VERTEX
  8
0
 10
1.85482
 20
14.7828
 30
0.0
 40
0.00984722
 41
0.00984722
  0
VERTEX
  8
0
 10
1.85167
 20
14.7756
 30
0.0
 40
0.00984722
 41
0.00984722
  0
VERTEX
  8
0
 10
1.84874
 20
14.7683
 30
0.0
 40
0.00984722
 41
0.00984722
  0
VERTEX
  8
0
 10
1.84597
 20
14.7611
 30
0.0
 40
0.00984722
 41
0.00984722
  0
VERTEX
  8
0
 10
1.84343
 20
14.7539
 30
0.0
 40
0.00984722
 41
0.00984722
  0
VERTEX
  8
0
 10
1.84104
 20
14.7464
 30
0.0
 40
0.00984722
 41
0.00984722
  0
VERTEX
  8
0
 10
1.83892
 20
14.739
 30
0.0
 40
0.00984722
 41
0.00984722
  0
VERTEX
  8
0
 10
1.83692
 20
14.7315
 30
0.0
 40
0.00984722
 41
0.00984722
  0
VERTEX
  8
0
 10
1.83518
 20
14.724
 30
0.0
 40
0.00984722
 41
0.00984722
  0
VERTEX
  8
0
 10
1.83356
 20
14.7162
 30
0.0
 40
0.00984722
 41
0.00984722
  0
VERTEX
  8
0
 10
1.83219
 20
14.7088
 30
0.0
 40
0.00984722
 41
0.00984722
  0
VERTEX
  8
0
 10
1.83106
 20
14.701
 30
0.0
 40
0.00984722
 41
0.00984722
  0
VERTEX
  8
0
 10
1.83008
 20
14.6933
 30
0.0
 40
0.00984722
 41
0.00984722
  0
VERTEX
  8
0
 10
1.82926
 20
14.6856
 30
0.0
 40
0.00984722
 41
0.00984722
  0
VERTEX
  8
0
 10
1.82872
 20
14.6779
 30
0.0
 40
0.00984722
 41
0.00984722
  0
VERTEX
  8
0
 10
1.82835
 20
14.6701
 30
0.0
 40
0.00984722
 41
0.00984722
  0
SEQEND
 8
0
  0
POLYLINE
  8
0
 62
     0
 66
     1
 10
0
 20
0
 30
0.0
 40
0.709
 41
0.709
  0
VERTEX
  8
0
 10
2.51719
 20
11.735
 30
0.0
 40
0.00984722
 41
0.00984722
  0
VERTEX
  8
0
 10
2.41857
 20
14.6701
 30
0.0
 40
0.00984722
 41
0.00984722
  0
SEQEND
 8
0
  0
POLYLINE
  8
0
 62
     0
 66
     1
 10
0
 20
0
 30
0.0
 40
0.709
 41
0.709
  0
VERTEX
  8
0
 10
2.51719
 20
11.735
 30
0.0
 40
0.00984722
 41
0.00984722
  0
VERTEX
  8
0
 10
2.51719
 20
11.3413
 30
0.0
 40
0.00984722
 41
0.00984722
  0
SEQEND
 8
0
  0
POLYLINE
  8
0
 62
     0
 66
     1
 10
0
 20
0
 30
0.0
 40
0.709
 41
0.709
  0
VERTEX
  8
0
 10
2.51719
 20
11.3413
 30
0.0
 40
0.00984722
 41
0.00984722
  0
VERTEX
  8
0
 10
2.35969
 20
11.3413
 30
0.0
 40
0.00984722
 41
0.00984722
  0
SEQEND
 8
0
  0
POLYLINE
  8
0
 62
     0
 66
     1
 10
0
 20
0
 30
0.0
 40
0.709
 41
0.709
  0
VERTEX
  8
0
 10
2.2416
 20
11.4594
 30
0.0
 40
0.00984722
 41
0.00984722
  0
VERTEX
  8
0
 10
2.35969
 20
11.3413
 30
0.0
 40
0.00984722
 41
0.00984722
  0
SEQEND
 8
0
  0
POLYLINE
  8
0
 62
     0
 66
     1
 10
0
 20
0
 30
0.0
 40
0.709
 41
0.709
  0
VERTEX
  8
0
 10
2.2416
 20
11.5775
 30
0.0
 40
0.00984722
 41
0.00984722
  0
VERTEX
  8
0
 10
2.2416
 20
11.4594
 30
0.0
 40
0.00984722
 41
0.00984722
  0
SEQEND
 8
0
  0
POLYLINE
  8
0
 62
     0
 66
     1
 10
0
 20
0
 30
0.0
 40
0.709
 41
0.709
  0
VERTEX
  8
0
 10
2.2416
 20
11.5775
 30
0.0
 40
0.00984722
 41
0.00984722
  0
VERTEX
  8
0
 10
2.24631
 20
11.5812
 30
0.0
 40
0.00984722
 41
0.00984722
  0
VERTEX
  8
0
 10
2.25097
 20
11.585
 30
0.0
 40
0.00984722
 41
0.00984722
  0
VERTEX
  8
0
 10
2.25549
 20
11.589
 30
0.0
 40
0.00984722
 41
0.00984722
  0
VERTEX
  8
0
 10
2.25987
 20
11.593
 30
0.0
 40
0.00984722
 41
0.00984722
  0
VERTEX
  8
0
 10
2.26411
 20
11.5973
 30
0.0
 40
0.00984722
 41
0.00984722
  0
VERTEX
  8
0
 10
2.26824
 20
11.6016
 30
0.0
 40
0.00984722
 41
0.00984722
  0
VERTEX
  8
0
 10
2.27225
 20
11.6061
 30
0.0
 40
0.00984722
 41
0.00984722
  0
VERTEX
  8
0
 10
2.2761
 20
11.6107
 30
0.0
 40
0.00984722
 41
0.00984722
  0
VERTEX
  8
0
 10
2.27983
 20
11.6154
 30
0.0
 40
0.00984722
 41
0.00984722
  0
VERTEX
  8
0
 10
2.28336
 20
11.6202
 30
0.0
 40
0.00984722
 41
0.00984722
  0
VERTEX
  8
0
 10
2.28678
 20
11.6252
 30
0.0
 40
0.00984722
 41
0.00984722
  0
VERTEX
  8
0
 10
2.2901
 20
11.6302
 30
0.0
 40
0.00984722
 41
0.00984722
  0
VERTEX
  8
0
 10
2.29318
 20
11.6353
 30
0.0
 40
0.00984722
 41
0.00984722
  0
VERTEX
  8
0
 10
2.29617
 20
11.6405
 30
0.0
 40
0.00984722
 41
0.00984722
  0
VERTEX
  8
0
 10
2.29893
 20
11.6458
 30
0.0
 40
0.00984722
 41
0.00984722
  0
VERTEX
  8
0
 10
2.3016
 20
11.6512
 30
0.0
 40
0.00984722
 41
0.00984722
  0
VERTEX
  8
0
 10
2.30404
 20
11.6566
 30
0.0
 40
0.00984722
 41
0.00984722
  0
VERTEX
  8
0
 10
2.30638
 20
11.6622
 30
0.0
 40
0.00984722
 41
0.00984722
  0
VERTEX
  8
0
 10
2.30849
 20
11.6678
 30
0.0
 40
0.00984722
 41
0.00984722
  0
VERTEX
  8
0
 10
2.31044
 20
11.6734
 30
0.0
 40
0.00984722
 41
0.00984722
  0
VERTEX
  8
0
 10
2.31222
 20
11.6792
 30
0.0
 40
0.00984722
 41
0.00984722
  0
VERTEX
  8
0
 10
2.31386
 20
11.6849
 30
0.0
 40
0.00984722
 41
0.00984722
  0
VERTEX
  8
0
 10
2.31526
 20
11.6908
 30
0.0
 40
0.00984722
 41
0.00984722
  0
VERTEX
  8
0
 10
2.31657
 20
11.6967
 30
0.0
 40
0.00984722
 41
0.00984722
  0
VERTEX
  8
0
 10
2.31765
 20
11.7025
 30
0.0
 40
0.00984722
 41
0.00984722
  0
VERTEX
  8
0
 10
2.31853
 20
11.7085
 30
0.0
 40
0.00984722
 41
0.00984722
  0
VERTEX
  8
0
 10
2.31922
 20
11.7144
 30
0.0
 40
0.00984722
 41
0.00984722
  0
VERTEX
  8
0
 10
2.31976
 20
11.7204
 30
0.0
 40
0.00984722
 41
0.00984722
  0
VERTEX
  8
0
 10
2.32015
 20
11.7264
 30
0.0
 40
0.00984722
 41
0.00984722
  0
VERTEX
  8
0
 10
2.32032
 20
11.7324
 30
0.0
 40
0.00984722
 41
0.00984722
  0
VERTEX
  8
0
 10
2.32032
 20
11.7384
 30
0.0
 40
0.00984722
 41
0.00984722
  0
VERTEX
  8
0
 10
2.3201
 20
11.7444
 30
0.0
 40
0.00984722
 41
0.00984722
  0
VERTEX
  8
0
 10
2.31972
 20
11.7504
 30
0.0
 40
0.00984722
 41
0.00984722
  0
VERTEX
  8
0
 10
2.31917
 20
11.7563
 30
0.0
 40
0.00984722
 41
0.00984722
  0
VERTEX
  8
0
 10
2.31842
 20
11.7623
 30
0.0
 40
0.00984722
 41
0.00984722
  0
VERTEX
  8
0
 10
2.31749
 20
11.7682
 30
0.0
 40
0.00984722
 41
0.00984722
  0
VERTEX
  8
0
 10
2.3164
 20
11.7741
 30
0.0
 40
0.00984722
 41
0.00984722
  0
VERTEX
  8
0
 10
2.31511
 20
11.7799
 30
0.0
 40
0.00984722
 41
0.00984722
  0
VERTEX
  8
0
 10
2.31364
 20
11.7857
 30
0.0
 40
0.00984722
 41
0.00984722
  0
VERTEX
  8
0
 10
2.31201
 20
11.7916
 30
0.0
 40
0.00984722
 41
0.00984722
  0
VERTEX
  8
0
 10
2.31022
 20
11.7972
 30
0.0
 40
0.00984722
 41
0.00984722
  0
VERTEX
  8
0
 10
2.30826
 20
11.8029
 30
0.0
 40
0.00984722
 41
0.00984722
  0
VERTEX
  8
0
 10
2.3061
 20
11.8085
 30
0.0
 40
0.00984722
 41
0.00984722
  0
VERTEX
  8
0
 10
2.30376
 20
11.814
 30
0.0
 40
0.00984722
 41
0.00984722
  0
VERTEX
  8
0
 10
2.30126
 20
11.8195
 30
0.0
 40
0.00984722
 41
0.00984722
  0
VERTEX
  8
0
 10
2.29861
 20
11.8249
 30
0.0
 40
0.00984722
 41
0.00984722
  0
VERTEX
  8
0
 10
2.29579
 20
11.8302
 30
0.0
 40
0.00984722
 41
0.00984722
  0
VERTEX
  8
0
 10
2.29281
 20
11.8354
 30
0.0
 40
0.00984722
 41
0.00984722
  0
VERTEX
  8
0
 10
2.28965
 20
11.8405
 30
0.0
 40
0.00984722
 41
0.00984722
  0
VERTEX
  8
0
 10
2.2864
 20
11.8455
 30
0.0
 40
0.00984722
 41
0.00984722
  0
VERTEX
  8
0
 10
2.28293
 20
11.8504
 30
0.0
 40
0.00984722
 41
0.00984722
  0
VERTEX
  8
0
 10
2.27935
 20
11.8552
 30
0.0
 40
0.00984722
 41
0.00984722
  0
VERTEX
  8
0
 10
2.27561
 20
11.8599
 30
0.0
 40
0.00984722
 41
0.00984722
  0
VERTEX
  8
0
 10
2.27175
 20
11.8645
 30
0.0
 40
0.00984722
 41
0.00984722
  0
VERTEX
  8
0
 10
2.26774
 20
11.8689
 30
0.0
 40
0.00984722
 41
0.00984722
  0
VERTEX
  8
0
 10
2.26357
 20
11.8733
 30
0.0
 40
0.00984722
 41
0.00984722
  0
VERTEX
  8
0
 10
2.25933
 20
11.8775
 30
0.0
 40
0.00984722
 41
0.00984722
  0
VERTEX
  8
0
 10
2.25489
 20
11.8816
 30
0.0
 40
0.00984722
 41
0.00984722
  0
VERTEX
  8
0
 10
2.25037
 20
11.8855
 30
0.0
 40
0.00984722
 41
0.00984722
  0
VERTEX
  8
0
 10
2.24576
 20
11.8893
 30
0.0
 40
0.00984722
 41
0.00984722
  0
VERTEX
  8
0
 10
2.241
 20
11.893
 30
0.0
 40
0.00984722
 41
0.00984722
  0
VERTEX
  8
0
 10
2.23611
 20
11.8964
 30
0.0
 40
0.00984722
 41
0.00984722
  0
VERTEX
  8
0
 10
2.23118
 20
11.8998
 30
0.0
 40
0.00984722
 41
0.00984722
  0
VERTEX
  8
0
 10
2.22607
 20
11.903
 30
0.0
 40
0.00984722
 41
0.00984722
  0
VERTEX
  8
0
 10
2.22092
 20
11.906
 30
0.0
 40
0.00984722
 41
0.00984722
  0
VERTEX
  8
0
 10
2.21565
 20
11.909
 30
0.0
 40
0.00984722
 41
0.00984722
  0
VERTEX
  8
0
 10
2.21035
 20
11.9117
 30
0.0
 40
0.00984722
 41
0.00984722
  0
VERTEX
  8
0
 10
2.20492
 20
11.9142
 30
0.0
 40
0.00984722
 41
0.00984722
  0
VERTEX
  8
0
 10
2.19943
 20
11.9166
 30
0.0
 40
0.00984722
 41
0.00984722
  0
VERTEX
  8
0
 10
2.19385
 20
11.9188
 30
0.0
 40
0.00984722
 41
0.00984722
  0
VERTEX
  8
0
 10
2.18821
 20
11.9209
 30
0.0
 40
0.00984722
 41
0.00984722
  0
VERTEX
  8
0
 10
2.18251
 20
11.9228
 30
0.0
 40
0.00984722
 41
0.00984722
  0
VERTEX
  8
0
 10
2.17676
 20
11.9245
 30
0.0
 40
0.00984722
 41
0.00984722
  0
VERTEX
  8
0
 10
2.17096
 20
11.9261
 30
0.0
 40
0.00984722
 41
0.00984722
  0
VERTEX
  8
0
 10
2.16515
 20
11.9274
 30
0.0
 40
0.00984722
 41
0.00984722
  0
VERTEX
  8
0
 10
2.15924
 20
11.9286
 30
0.0
 40
0.00984722
 41
0.00984722
  0
VERTEX
  8
0
 10
2.15332
 20
11.9296
 30
0.0
 40
0.00984722
 41
0.00984722
  0
VERTEX
  8
0
 10
2.1474
 20
11.9304
 30
0.0
 40
0.00984722
 41
0.00984722
  0
VERTEX
  8
0
 10
2.14144
 20
11.931
 30
0.0
 40
0.00984722
 41
0.00984722
  0
VERTEX
  8
0
 10
2.13547
 20
11.9315
 30
0.0
 40
0.00984722
 41
0.00984722
  0
VERTEX
  8
0
 10
2.12944
 20
11.9318
 30
0.0
 40
0.00984722
 41
0.00984722
  0
VERTEX
  8
0
 10
2.12349
 20
11.9319
 30
0.0
 40
0.00984722
 41
0.00984722
  0
VERTEX
  8
0
 10
2.11746
 20
11.9318
 30
0.0
 40
0.00984722
 41
0.00984722
  0
VERTEX
  8
0
 10
2.11149
 20
11.9315
 30
0.0
 40
0.00984722
 41
0.00984722
  0
VERTEX
  8
0
 10
2.10553
 20
11.931
 30
0.0
 40
0.00984722
 41
0.00984722
  0
VERTEX
  8
0
 10
2.09956
 20
11.9304
 30
0.0
 40
0.00984722
 41
0.00984722
  0
VERTEX
  8
0
 10
2.09358
 20
11.9296
 30
0.0
 40
0.00984722
 41
0.00984722
  0
VERTEX
  8
0
 10
2.08768
 20
11.9286
 30
0.0
 40
0.00984722
 41
0.00984722
  0
VERTEX
  8
0
 10
2.08182
 20
11.9274
 30
0.0
 40
0.00984722
 41
0.00984722
  0
VERTEX
  8
0
 10
2.07596
 20
11.9261
 30
0.0
 40
0.00984722
 41
0.00984722
  0
VERTEX
  8
0
 10
2.07015
 20
11.9245
 30
0.0
 40
0.00984722
 41
0.00984722
  0
VERTEX
  8
0
 10
2.0644
 20
11.9228
 30
0.0
 40
0.00984722
 41
0.00984722
  0
VERTEX
  8
0
 10
2.05871
 20
11.9209
 30
0.0
 40
0.00984722
 41
0.00984722
  0
VERTEX
  8
0
 10
2.05311
 20
11.9188
 30
0.0
 40
0.00984722
 41
0.00984722
  0
VERTEX
  8
0
 10
2.04753
 20
11.9166
 30
0.0
 40
0.00984722
 41
0.00984722
  0
VERTEX
  8
0
 10
2.04204
 20
11.9142
 30
0.0
 40
0.00984722
 41
0.00984722
  0
VERTEX
  8
0
 10
2.03662
 20
11.9117
 30
0.0
 40
0.00984722
 41
0.00984722
  0
VERTEX
  8
0
 10
2.03125
 20
11.909
 30
0.0
 40
0.00984722
 41
0.00984722
  0
VERTEX
  8
0
 10
2.02604
 20
11.906
 30
0.0
 40
0.00984722
 41
0.00984722
  0
VERTEX
  8
0
 10
2.02083
 20
11.903
 30
0.0
 40
0.00984722
 41
0.00984722
  0
VERTEX
  8
0
 10
2.01579
 20
11.8998
 30
0.0
 40
0.00984722
 41
0.00984722
  0
VERTEX
  8
0
 10
2.01079
 20
11.8964
 30
0.0
 40
0.00984722
 41
0.00984722
  0
VERTEX
  8
0
 10
2.00597
 20
11.893
 30
0.0
 40
0.00984722
 41
0.00984722
  0
VERTEX
  8
0
 10
2.00119
 20
11.8893
 30
0.0
 40
0.00984722
 41
0.00984722
  0
VERTEX
  8
0
 10
1.99653
 20
11.8855
 30
0.0
 40
0.00984722
 41
0.00984722
  0
VERTEX
  8
0
 10
1.99203
 20
11.8816
 30
0.0
 40
0.00984722
 41
0.00984722
  0
VERTEX
  8
0
 10
1.98762
 20
11.8775
 30
0.0
 40
0.00984722
 41
0.00984722
  0
VERTEX
  8
0
 10
1.98335
 20
11.8733
 30
0.0
 40
0.00984722
 41
0.00984722
  0
VERTEX
  8
0
 10
1.97922
 20
11.8689
 30
0.0
 40
0.00984722
 41
0.00984722
  0
VERTEX
  8
0
 10
1.97521
 20
11.8645
 30
0.0
 40
0.00984722
 41
0.00984722
  0
VERTEX
  8
0
 10
1.97131
 20
11.8599
 30
0.0
 40
0.00984722
 41
0.00984722
  0
VERTEX
  8
0
 10
1.96756
 20
11.8552
 30
0.0
 40
0.00984722
 41
0.00984722
  0
VERTEX
  8
0
 10
1.96397
 20
11.8504
 30
0.0
 40
0.00984722
 41
0.00984722
  0
VERTEX
  8
0
 10
1.96056
 20
11.8455
 30
0.0
 40
0.00984722
 41
0.00984722
  0
VERTEX
  8
0
 10
1.95725
 20
11.8405
 30
0.0
 40
0.00984722
 41
0.00984722
  0
VERTEX
  8
0
 10
1.95415
 20
11.8354
 30
0.0
 40
0.00984722
 41
0.00984722
  0
VERTEX
  8
0
 10
1.95117
 20
11.8302
 30
0.0
 40
0.00984722
 41
0.00984722
  0
VERTEX
  8
0
 10
1.94835
 20
11.8249
 30
0.0
 40
0.00984722
 41
0.00984722
  0
VERTEX
  8
0
 10
1.94569
 20
11.8195
 30
0.0
 40
0.00984722
 41
0.00984722
  0
VERTEX
  8
0
 10
1.94319
 20
11.814
 30
0.0
 40
0.00984722
 41
0.00984722
  0
VERTEX
  8
0
 10
1.94086
 20
11.8085
 30
0.0
 40
0.00984722
 41
0.00984722
  0
VERTEX
  8
0
 10
1.93869
 20
11.8029
 30
0.0
 40
0.00984722
 41
0.00984722
  0
VERTEX
  8
0
 10
1.93674
 20
11.7972
 30
0.0
 40
0.00984722
 41
0.00984722
  0
VERTEX
  8
0
 10
1.9349
 20
11.7916
 30
0.0
 40
0.00984722
 41
0.00984722
  0
VERTEX
  8
0
 10
1.93326
 20
11.7857
 30
0.0
 40
0.00984722
 41
0.00984722
  0
VERTEX
  8
0
 10
1.93181
 20
11.7799
 30
0.0
 40
0.00984722
 41
0.00984722
  0
VERTEX
  8
0
 10
1.93056
 20
11.7741
 30
0.0
 40
0.00984722
 41
0.00984722
  0
VERTEX
  8
0
 10
1.92942
 20
11.7682
 30
0.0
 40
0.00984722
 41
0.00984722
  0
VERTEX
  8
0
 10
1.9285
 20
11.7623
 30
0.0
 40
0.00984722
 41
0.00984722
  0
VERTEX
  8
0
 10
1.92779
 20
11.7563
 30
0.0
 40
0.00984722
 41
0.00984722
  0
VERTEX
  8
0
 10
1.92719
 20
11.7504
 30
0.0
 40
0.00984722
 41
0.00984722
  0
VERTEX
  8
0
 10
1.92686
 20
11.7444
 30
0.0
 40
0.00984722
 41
0.00984722
  0
VERTEX
  8
0
 10
1.92665
 20
11.7384
 30
0.0
 40
0.00984722
 41
0.00984722
  0
VERTEX
  8
0
 10
1.92665
 20
11.7324
 30
0.0
 40
0.00984722
 41
0.00984722
  0
VERTEX
  8
0
 10
1.92681
 20
11.7264
 30
0.0
 40
0.00984722
 41
0.00984722
  0
VERTEX
  8
0
 10
1.92714
 20
11.7204
 30
0.0
 40
0.00984722
 41
0.00984722
  0
VERTEX
  8
0
 10
1.92768
 20
11.7144
 30
0.0
 40
0.00984722
 41
0.00984722
  0
VERTEX
  8
0
 10
1.92844
 20
11.7085
 30
0.0
 40
0.00984722
 41
0.00984722
  0
VERTEX
  8
0
 10
1.92931
 20
11.7025
 30
0.0
 40
0.00984722
 41
0.00984722
  0
VERTEX
  8
0
 10
1.93039
 20
11.6967
 30
0.0
 40
0.00984722
 41
0.00984722
  0
VERTEX
  8
0
 10
1.93164
 20
11.6908
 30
0.0
 40
0.00984722
 41
0.00984722
  0
VERTEX
  8
0
 10
1.93311
 20
11.6849
 30
0.0
 40
0.00984722
 41
0.00984722
  0
VERTEX
  8
0
 10
1.93468
 20
11.6792
 30
0.0
 40
0.00984722
 41
0.00984722
  0
VERTEX
  8
0
 10
1.93647
 20
11.6734
 30
0.0
 40
0.00984722
 41
0.00984722
  0
VERTEX
  8
0
 10
1.93847
 20
11.6678
 30
0.0
 40
0.00984722
 41
0.00984722
  0
VERTEX
  8
0
 10
1.9406
 20
11.6622
 30
0.0
 40
0.00984722
 41
0.00984722
  0
VERTEX
  8
0
 10
1.94287
 20
11.6566
 30
0.0
 40
0.00984722
 41
0.00984722
  0
VERTEX
  8
0
 10
1.94536
 20
11.6512
 30
0.0
 40
0.00984722
 41
0.00984722
  0
VERTEX
  8
0
 10
1.94797
 20
11.6458
 30
0.0
 40
0.00984722
 41
0.00984722
  0
VERTEX
  8
0
 10
1.95079
 20
11.6405
 30
0.0
 40
0.00984722
 41
0.00984722
  0
VERTEX
  8
0
 10
1.95378
 20
11.6353
 30
0.0
 40
0.00984722
 41
0.00984722
  0
VERTEX
  8
0
 10
1.95688
 20
11.6302
 30
0.0
 40
0.00984722
 41
0.00984722
  0
VERTEX
  8
0
 10
1.96012
 20
11.6252
 30
0.0
 40
0.00984722
 41
0.00984722
  0
VERTEX
  8
0
 10
1.96354
 20
11.6202
 30
0.0
 40
0.00984722
 41
0.00984722
  0
VERTEX
  8
0
 10
1.96712
 20
11.6154
 30
0.0
 40
0.00984722
 41
0.00984722
  0
VERTEX
  8
0
 10
1.97086
 20
11.6107
 30
0.0
 40
0.00984722
 41
0.00984722
  0
VERTEX
  8
0
 10
1.97472
 20
11.6061
 30
0.0
 40
0.00984722
 41
0.00984722
  0
VERTEX
  8
0
 10
1.97868
 20
11.6016
 30
0.0
 40
0.00984722
 41
0.00984722
  0
VERTEX
  8
0
 10
1.98286
 20
11.5973
 30
0.0
 40
0.00984722
 41
0.00984722
  0
VERTEX
  8
0
 10
1.98708
 20
11.593
 30
0.0
 40
0.00984722
 41
0.00984722
  0
VERTEX
  8
0
 10
1.99149
 20
11.589
 30
0.0
 40
0.00984722
 41
0.00984722
  0
VERTEX
  8
0
 10
1.99599
 20
11.585
 30
0.0
 40
0.00984722
 41
0.00984722
  0
VERTEX
  8
0
 10
2.0006
 20
11.5812
 30
0.0
 40
0.00984722
 41
0.00984722
  0
VERTEX
  8
0
 10
2.00537
 20
11.5775
 30
0.0
 40
0.00984722
 41
0.00984722
  0
SEQEND
 8
0
  0
POLYLINE
  8
0
 62
     0
 66
     1
 10
0
 20
0
 30
0.0
 40
0.709
 41
0.709
  0
VERTEX
  8
0
 10
2.00537
 20
11.5775
 30
0.0
 40
0.00984722
 41
0.00984722
  0
VERTEX
  8
0
 10
2.00537
 20
11.4594
 30
0.0
 40
0.00984722
 41
0.00984722
  0
SEQEND
 8
0
  0
POLYLINE
  8
0
 62
     0
 66
     1
 10
0
 20
0
 30
0.0
 40
0.709
 41
0.709
  0
VERTEX
  8
0
 10
2.00537
 20
11.4594
 30
0.0
 40
0.00984722
 41
0.00984722
  0
VERTEX
  8
0
 10
1.88726
 20
11.3413
 30
0.0
 40
0.00984722
 41
0.00984722
  0
SEQEND
 8
0
  0
POLYLINE
  8
0
 62
     0
 66
     1
 10
0
 20
0
 30
0.0
 40
0.709
 41
0.709
  0
VERTEX
  8
0
 10
1.88726
 20
11.3413
 30
0.0
 40
0.00984722
 41
0.00984722
  0
VERTEX
  8
0
 10
1.72976
 20
11.3413
 30
0.0
 40
0.00984722
 41
0.00984722
  0
SEQEND
 8
0
  0
POLYLINE
  8
0
 62
     0
 66
     1
 10
0
 20
0
 30
0.0
 40
0.709
 41
0.709
  0
VERTEX
  8
0
 10
1.72976
 20
11.735
 30
0.0
 40
0.00984722
 41
0.00984722
  0
VERTEX
  8
0
 10
1.72976
 20
11.3413
 30
0.0
 40
0.00984722
 41
0.00984722
  0
SEQEND
 8
0
  0
POLYLINE
  8
0
 62
     0
 66
     1
 10
0
 20
0
 30
0.0
 70
     1
 40
0.709
 41
0.709
  0
VERTEX
  8
0
 10
2.12349
 20
14.5421
 30
0.0
 40
0.00984722
 41
0.00984722
  0
VERTEX
  8
0
 10
2.1281
 20
14.5422
 30
0.0
 40
0.00984722
 41
0.00984722
  0
VERTEX
  8
0
 10
2.13276
 20
14.5425
 30
0.0
 40
0.00984722
 41
0.00984722
  0
VERTEX
  8
0
 10
2.13738
 20
14.5429
 30
0.0
 40
0.00984722
 41
0.00984722
  0
VERTEX
  8
0
 10
2.14193
 20
14.5436
 30
0.0
 40
0.00984722
 41
0.00984722
  0
VERTEX
  8
0
 10
2.14654
 20
14.5444
 30
0.0
 40
0.00984722
 41
0.00984722
  0
VERTEX
  8
0
 10
2.15104
 20
14.5454
 30
0.0
 40
0.00984722
 41
0.00984722
  0
VERTEX
  8
0
 10
2.15554
 20
14.5465
 30
0.0
 40
0.00984722
 41
0.00984722
  0
VERTEX
  8
0
 10
2.15994
 20
14.5479
 30
0.0
 40
0.00984722
 41
0.00984722
  0
VERTEX
  8
0
 10
2.16433
 20
14.5494
 30
0.0
 40
0.00984722
 41
0.00984722
  0
VERTEX
  8
0
 10
2.16868
 20
14.5511
 30
0.0
 40
0.00984722
 41
0.00984722
  0
VERTEX
  8
0
 10
2.1729
 20
14.5529
 30
0.0
 40
0.00984722
 41
0.00984722
  0
VERTEX
  8
0
 10
2.17708
 20
14.555
 30
0.0
 40
0.00984722
 41
0.00984722
  0
VERTEX
  8
0
 10
2.18121
 20
14.5572
 30
0.0
 40
0.00984722
 41
0.00984722
  0
VERTEX
  8
0
 10
2.18517
 20
14.5596
 30
0.0
 40
0.00984722
 41
0.00984722
  0
VERTEX
  8
0
 10
2.18907
 20
14.5619
 30
0.0
 40
0.00984722
 41
0.00984722
  0
VERTEX
  8
0
 10
2.19287
 20
14.5647
 30
0.0
 40
0.00984722
 41
0.00984722
  0
VERTEX
  8
0
 10
2.19661
 20
14.5675
 30
0.0
 40
0.00984722
 41
0.00984722
  0
VERTEX
  8
0
 10
2.20019
 20
14.5704
 30
0.0
 40
0.00984722
 41
0.00984722
  0
VERTEX
  8
0
 10
2.20367
 20
14.5735
 30
0.0
 40
0.00984722
 41
0.00984722
  0
VERTEX
  8
0
 10
2.20697
 20
14.5767
 30
0.0
 40
0.00984722
 41
0.00984722
  0
VERTEX
  8
0
 10
2.21018
 20
14.58
 30
0.0
 40
0.00984722
 41
0.00984722
  0
VERTEX
  8
0
 10
2.21326
 20
14.5835
 30
0.0
 40
0.00984722
 41
0.00984722
  0
VERTEX
  8
0
 10
2.21625
 20
14.5871
 30
0.0
 40
0.00984722
 41
0.00984722
  0
VERTEX
  8
0
 10
2.21903
 20
14.5908
 30
0.0
 40
0.00984722
 41
0.00984722
  0
VERTEX
  8
0
 10
2.22168
 20
14.5946
 30
0.0
 40
0.00984722
 41
0.00984722
  0
VERTEX
  8
0
 10
2.22418
 20
14.5985
 30
0.0
 40
0.00984722
 41
0.00984722
  0
VERTEX
  8
0
 10
2.22651
 20
14.6025
 30
0.0
 40
0.00984722
 41
0.00984722
  0
VERTEX
  8
0
 10
2.22874
 20
14.6067
 30
0.0
 40
0.00984722
 41
0.00984722
  0
VERTEX
  8
0
 10
2.23074
 20
14.6108
 30
0.0
 40
0.00984722
 41
0.00984722
  0
VERTEX
  8
0
 10
2.23258
 20
14.615
 30
0.0
 40
0.00984722
 41
0.00984722
  0
VERTEX
  8
0
 10
2.23426
 20
14.6193
 30
0.0
 40
0.00984722
 41
0.00984722
  0
VERTEX
  8
0
 10
2.23579
 20
14.6238
 30
0.0
 40
0.00984722
 41
0.00984722
  0
VERTEX
  8
0
 10
2.23714
 20
14.6282
 30
0.0
 40
0.00984722
 41
0.00984722
  0
VERTEX
  8
0
 10
2.23833
 20
14.6326
 30
0.0
 40
0.00984722
 41
0.00984722
  0
VERTEX
  8
0
 10
2.23931
 20
14.6372
 30
0.0
 40
0.00984722
 41
0.00984722
  0
VERTEX
  8
0
 10
2.24013
 20
14.6417
 30
0.0
 40
0.00984722
 41
0.00984722
  0
VERTEX
  8
0
 10
2.24078
 20
14.6464
 30
0.0
 40
0.00984722
 41
0.00984722
  0
VERTEX
  8
0
 10
2.24121
 20
14.651
 30
0.0
 40
0.00984722
 41
0.00984722
  0
VERTEX
  8
0
 10
2.24149
 20
14.6556
 30
0.0
 40
0.00984722
 41
0.00984722
  0
VERTEX
  8
0
 10
2.2416
 20
14.6603
 30
0.0
 40
0.00984722
 41
0.00984722
  0
VERTEX
  8
0
 10
2.24149
 20
14.6649
 30
0.0
 40
0.00984722
 41
0.00984722
  0
VERTEX
  8
0
 10
2.24121
 20
14.6694
 30
0.0
 40
0.00984722
 41
0.00984722
  0
VERTEX
  8
0
 10
2.24078
 20
14.6742
 30
0.0
 40
0.00984722
 41
0.00984722
  0
VERTEX
  8
0
 10
2.24013
 20
14.6788
 30
0.0
 40
0.00984722
 41
0.00984722
  0
VERTEX
  8
0
 10
2.23931
 20
14.6833
 30
0.0
 40
0.00984722
 41
0.00984722
  0
VERTEX
  8
0
 10
2.23833
 20
14.6878
 30
0.0
 40
0.00984722
 41
0.00984722
  0
VERTEX
  8
0
 10
2.23714
 20
14.6922
 30
0.0
 40
0.00984722
 41
0.00984722
  0
VERTEX
  8
0
 10
2.23579
 20
14.6967
 30
0.0
 40
0.00984722
 41
0.00984722
  0
VERTEX
  8
0
 10
2.23426
 20
14.7011
 30
0.0
 40
0.00984722
 41
0.00984722
  0
VERTEX
  8
0
 10
2.23258
 20
14.7054
 30
0.0
 40
0.00984722
 41
0.00984722
  0
VERTEX
  8
0
 10
2.23074
 20
14.7096
 30
0.0
 40
0.00984722
 41
0.00984722
  0
VERTEX
  8
0
 10
2.22874
 20
14.7138
 30
0.0
 40
0.00984722
 41
0.00984722
  0
VERTEX
  8
0
 10
2.22651
 20
14.7179
 30
0.0
 40
0.00984722
 41
0.00984722
  0
VERTEX
  8
0
 10
2.22418
 20
14.7219
 30
0.0
 40
0.00984722
 41
0.00984722
  0
VERTEX
  8
0
 10
2.22168
 20
14.7258
 30
0.0
 40
0.00984722
 41
0.00984722
  0
VERTEX
  8
0
 10
2.21903
 20
14.7297
 30
0.0
 40
0.00984722
 41
0.00984722
  0
VERTEX
  8
0
 10
2.21625
 20
14.7333
 30
0.0
 40
0.00984722
 41
0.00984722
  0
VERTEX
  8
0
 10
2.21326
 20
14.7369
 30
0.0
 40
0.00984722
 41
0.00984722
  0
VERTEX
  8
0
 10
2.21018
 20
14.7404
 30
0.0
 40
0.00984722
 41
0.00984722
  0
VERTEX
  8
0
 10
2.20697
 20
14.7438
 30
0.0
 40
0.00984722
 41
0.00984722
  0
VERTEX
  8
0
 10
2.20367
 20
14.7469
 30
0.0
 40
0.00984722
 41
0.00984722
  0
VERTEX
  8
0
 10
2.20019
 20
14.75
 30
0.0
 40
0.00984722
 41
0.00984722
  0
VERTEX
  8
0
 10
2.19661
 20
14.7529
 30
0.0
 40
0.00984722
 41
0.00984722
  0
VERTEX
  8
0
 10
2.19287
 20
14.7557
 30
0.0
 40
0.00984722
 41
0.00984722
  0
VERTEX
  8
0
 10
2.18907
 20
14.7585
 30
0.0
 40
0.00984722
 41
0.00984722
  0
VERTEX
  8
0
 10
2.18517
 20
14.761
 30
0.0
 40
0.00984722
 41
0.00984722
  0
VERTEX
  8
0
 10
2.18121
 20
14.7632
 30
0.0
 40
0.00984722
 41
0.00984722
  0
VERTEX
  8
0
 10
2.17708
 20
14.7654
 30
0.0
 40
0.00984722
 41
0.00984722
  0
VERTEX
  8
0
 10
2.1729
 20
14.7675
 30
0.0
 40
0.00984722
 41
0.00984722
  0
VERTEX
  8
0
 10
2.16868
 20
14.7693
 30
0.0
 40
0.00984722
 41
0.00984722
  0
VERTEX
  8
0
 10
2.16433
 20
14.7711
 30
0.0
 40
0.00984722
 41
0.00984722
  0
VERTEX
  8
0
 10
2.15994
 20
14.7726
 30
0.0
 40
0.00984722
 41
0.00984722
  0
VERTEX
  8
0
 10
2.15554
 20
14.7739
 30
0.0
 40
0.00984722
 41
0.00984722
  0
VERTEX
  8
0
 10
2.15104
 20
14.775
 30
0.0
 40
0.00984722
 41
0.00984722
  0
VERTEX
  8
0
 10
2.14654
 20
14.7761
 30
0.0
 40
0.00984722
 41
0.00984722
  0
VERTEX
  8
0
 10
2.14193
 20
14.7768
 30
0.0
 40
0.00984722
 41
0.00984722
  0
VERTEX
  8
0
 10
2.13738
 20
14.7775
 30
0.0
 40
0.00984722
 41
0.00984722
  0
VERTEX
  8
0
 10
2.13276
 20
14.7779
 30
0.0
 40
0.00984722
 41
0.00984722
  0
VERTEX
  8
0
 10
2.1281
 20
14.7782
 30
0.0
 40
0.00984722
 41
0.00984722
  0
VERTEX
  8
0
 10
2.12349
 20
14.7783
 30
0.0
 40
0.00984722
 41
0.00984722
  0
VERTEX
  8
0
 10
2.11882
 20
14.7782
 30
0.0
 40
0.00984722
 41
0.00984722
  0
VERTEX
  8
0
 10
2.11421
 20
14.7779
 30
0.0
 40
0.00984722
 41
0.00984722
  0
VERTEX
  8
0
 10
2.1096
 20
14.7775
 30
0.0
 40
0.00984722
 41
0.00984722
  0
VERTEX
  8
0
 10
2.10499
 20
14.7768
 30
0.0
 40
0.00984722
 41
0.00984722
  0
VERTEX
  8
0
 10
2.10042
 20
14.7761
 30
0.0
 40
0.00984722
 41
0.00984722
  0
VERTEX
  8
0
 10
2.09592
 20
14.775
 30
0.0
 40
0.00984722
 41
0.00984722
  0
VERTEX
  8
0
 10
2.09142
 20
14.7739
 30
0.0
 40
0.00984722
 41
0.00984722
  0
VERTEX
  8
0
 10
2.08697
 20
14.7726
 30
0.0
 40
0.00984722
 41
0.00984722
  0
VERTEX
  8
0
 10
2.08257
 20
14.7711
 30
0.0
 40
0.00984722
 41
0.00984722
  0
VERTEX
  8
0
 10
2.07829
 20
14.7693
 30
0.0
 40
0.00984722
 41
0.00984722
  0
VERTEX
  8
0
 10
2.074
 20
14.7675
 30
0.0
 40
0.00984722
 41
0.00984722
  0
VERTEX
  8
0
 10
2.06988
 20
14.7654
 30
0.0
 40
0.00984722
 41
0.00984722
  0
VERTEX
  8
0
 10
2.06575
 20
14.7632
 30
0.0
 40
0.00984722
 41
0.00984722
  0
VERTEX
  8
0
 10
2.06174
 20
14.761
 30
0.0
 40
0.00984722
 41
0.00984722
  0
VERTEX
  8
0
 10
2.05783
 20
14.7585
 30
0.0
 40
0.00984722
 41
0.00984722
  0
VERTEX
  8
0
 10
2.05404
 20
14.7557
 30
0.0
 40
0.00984722
 41
0.00984722
  0
VERTEX
  8
0
 10
2.05035
 20
14.7529
 30
0.0
 40
0.00984722
 41
0.00984722
  0
VERTEX
  8
0
 10
2.04676
 20
14.75
 30
0.0
 40
0.00984722
 41
0.00984722
  0
VERTEX
  8
0
 10
2.04329
 20
14.7469
 30
0.0
 40
0.00984722
 41
0.00984722
  0
VERTEX
  8
0
 10
2.03993
 20
14.7438
 30
0.0
 40
0.00984722
 41
0.00984722
  0
VERTEX
  8
0
 10
2.03674
 20
14.7404
 30
0.0
 40
0.00984722
 41
0.00984722
  0
VERTEX
  8
0
 10
2.03364
 20
14.7369
 30
0.0
 40
0.00984722
 41
0.00984722
  0
VERTEX
  8
0
 10
2.03071
 20
14.7333
 30
0.0
 40
0.00984722
 41
0.00984722
  0
VERTEX
  8
0
 10
2.02794
 20
14.7297
 30
0.0
 40
0.00984722
 41
0.00984722
  0
VERTEX
  8
0
 10
2.02528
 20
14.7258
 30
0.0
 40
0.00984722
 41
0.00984722
  0
VERTEX
  8
0
 10
2.02279
 20
14.7219
 30
0.0
 40
0.00984722
 41
0.00984722
  0
VERTEX
  8
0
 10
2.0204
 20
14.7179
 30
0.0
 40
0.00984722
 41
0.00984722
  0
VERTEX
  8
0
 10
2.01824
 20
14.7138
 30
0.0
 40
0.00984722
 41
0.00984722
  0
VERTEX
  8
0
 10
2.01622
 20
14.7096
 30
0.0
 40
0.00984722
 41
0.00984722
  0
VERTEX
  8
0
 10
2.01438
 20
14.7054
 30
0.0
 40
0.00984722
 41
0.00984722
  0
VERTEX
  8
0
 10
2.01264
 20
14.7011
 30
0.0
 40
0.00984722
 41
0.00984722
  0
VERTEX
  8
0
 10
2.01112
 20
14.6967
 30
0.0
 40
0.00984722
 41
0.00984722
  0
VERTEX
  8
0
 10
2.00982
 20
14.6922
 30
0.0
 40
0.00984722
 41
0.00984722
  0
VERTEX
  8
0
 10
2.00863
 20
14.6878
 30
0.0
 40
0.00984722
 41
0.00984722
  0
VERTEX
  8
0
 10
2.00765
 20
14.6833
 30
0.0
 40
0.00984722
 41
0.00984722
  0
VERTEX
  8
0
 10
2.00683
 20
14.6788
 30
0.0
 40
0.00984722
 41
0.00984722
  0
VERTEX
  8
0
 10
2.00618
 20
14.6742
 30
0.0
 40
0.00984722
 41
0.00984722
  0
VERTEX
  8
0
 10
2.00575
 20
14.6694
 30
0.0
 40
0.00984722
 41
0.00984722
  0
VERTEX
  8
0
 10
2.00543
 20
14.6649
 30
0.0
 40
0.00984722
 41
0.00984722
  0
VERTEX
  8
0
 10
2.00537
 20
14.6603
 30
0.0
 40
0.00984722
 41
0.00984722
  0
VERTEX
  8
0
 10
2.00543
 20
14.6556
 30
0.0
 40
0.00984722
 41
0.00984722
  0
VERTEX
  8
0
 10
2.00575
 20
14.651
 30
0.0
 40
0.00984722
 41
0.00984722
  0
VERTEX
  8
0
 10
2.00618
 20
14.6464
 30
0.0
 40
0.00984722
 41
0.00984722
  0
VERTEX
  8
0
 10
2.00683
 20
14.6417
 30
0.0
 40
0.00984722
 41
0.00984722
  0
VERTEX
  8
0
 10
2.00765
 20
14.6372
 30
0.0
 40
0.00984722
 41
0.00984722
  0
VERTEX
  8
0
 10
2.00863
 20
14.6326
 30
0.0
 40
0.00984722
 41
0.00984722
  0
VERTEX
  8
0
 10
2.00982
 20
14.6282
 30
0.0
 40
0.00984722
 41
0.00984722
  0
VERTEX
  8
0
 10
2.01112
 20
14.6238
 30
0.0
 40
0.00984722
 41
0.00984722
  0
VERTEX
  8
0
 10
2.01264
 20
14.6193
 30
0.0
 40
0.00984722
 41
0.00984722
  0
VERTEX
  8
0
 10
2.01438
 20
14.615
 30
0.0
 40
0.00984722
 41
0.00984722
  0
VERTEX
  8
0
 10
2.01622
 20
14.6108
 30
0.0
 40
0.00984722
 41
0.00984722
  0
VERTEX
  8
0
 10
2.01824
 20
14.6067
 30
0.0
 40
0.00984722
 41
0.00984722
  0
VERTEX
  8
0
 10
2.0204
 20
14.6025
 30
0.0
 40
0.00984722
 41
0.00984722
  0
VERTEX
  8
0
 10
2.02279
 20
14.5985
 30
0.0
 40
0.00984722
 41
0.00984722
  0
VERTEX
  8
0
 10
2.02528
 20
14.5946
 30
0.0
 40
0.00984722
 41
0.00984722
  0
VERTEX
  8
0
 10
2.02794
 20
14.5908
 30
0.0
 40
0.00984722
 41
0.00984722
  0
VERTEX
  8
0
 10
2.03071
 20
14.5871
 30
0.0
 40
0.00984722
 41
0.00984722
  0
VERTEX
  8
0
 10
2.03364
 20
14.5835
 30
0.0
 40
0.00984722
 41
0.00984722
  0
VERTEX
  8
0
 10
2.03674
 20
14.58
 30
0.0
 40
0.00984722
 41
0.00984722
  0
VERTEX
  8
0
 10
2.03993
 20
14.5767
 30
0.0
 40
0.00984722
 41
0.00984722
  0
VERTEX
  8
0
 10
2.04329
 20
14.5735
 30
0.0
 40
0.00984722
 41
0.00984722
  0
VERTEX
  8
0
 10
2.04676
 20
14.5704
 30
0.0
 40
0.00984722
 41
0.00984722
  0
VERTEX
  8
0
 10
2.05035
 20
14.5675
 30
0.0
 40
0.00984722
 41
0.00984722
  0
VERTEX
  8
0
 10
2.05404
 20
14.5647
 30
0.0
 40
0.00984722
 41
0.00984722
  0
VERTEX
  8
0
 10
2.05783
 20
14.5619
 30
0.0
 40
0.00984722
 41
0.00984722
  0
VERTEX
  8
0
 10
2.06174
 20
14.5596
 30
0.0
 40
0.00984722
 41
0.00984722
  0
VERTEX
  8
0
 10
2.06575
 20
14.5572
 30
0.0
 40
0.00984722
 41
0.00984722
  0
VERTEX
  8
0
 10
2.06988
 20
14.555
 30
0.0
 40
0.00984722
 41
0.00984722
  0
VERTEX
  8
0
 10
2.074
 20
14.5529
 30
0.0
 40
0.00984722
 41
0.00984722
  0
VERTEX
  8
0
 10
2.07829
 20
14.5511
 30
0.0
 40
0.00984722
 41
0.00984722
  0
VERTEX
  8
0
 10
2.08257
 20
14.5494
 30
0.0
 40
0.00984722
 41
0.00984722
  0
VERTEX
  8
0
 10
2.08697
 20
14.5479
 30
0.0
 40
0.00984722
 41
0.00984722
  0
VERTEX
  8
0
 10
2.09142
 20
14.5465
 30
0.0
 40
0.00984722
 41
0.00984722
  0
VERTEX
  8
0
 10
2.09592
 20
14.5454
 30
0.0
 40
0.00984722
 41
0.00984722
  0
VERTEX
  8
0
 10
2.10042
 20
14.5444
 30
0.0
 40
0.00984722
 41
0.00984722
  0
VERTEX
  8
0
 10
2.10499
 20
14.5436
 30
0.0
 40
0.00984722
 41
0.00984722
  0
VERTEX
  8
0
 10
2.1096
 20
14.5429
 30
0.0
 40
0.00984722
 41
0.00984722
  0
VERTEX
  8
0
 10
2.11421
 20
14.5425
 30
0.0
 40
0.00984722
 41
0.00984722
  0
VERTEX
  8
0
 10
2.11882
 20
14.5422
 30
0.0
 40
0.00984722
 41
0.00984722
  0
VERTEX
  8
0
 10
2.12349
 20
14.5421
 30
0.0
 40
0.00984722
 41
0.00984722
  0
SEQEND
 8
0
  0
POLYLINE
  8
0
 62
     0
 66
     1
 10
0
 20
0
 30
0.0
 40
0.709
 41
0.709
  0
VERTEX
  8
0
 10
4.19694
 20
14.9556
 30
0.0
 40
0.00984722
 41
0.00984722
  0
VERTEX
  8
0
 10
3.85769
 20
14.9556
 30
0.0
 40
0.00984722
 41
0.00984722
  0
SEQEND
 8
0
  0
POLYLINE
  8
0
 62
     0
 66
     1
 10
0
 20
0
 30
0.0
 40
0.709
 41
0.709
  0
VERTEX
  8
0
 10
4.75532
 20
11.735
 30
0.0
 40
0.00984722
 41
0.00984722
  0
VERTEX
  8
0
 10
4.75532
 20
11.3413
 30
0.0
 40
0.00984722
 41
0.00984722
  0
SEQEND
 8
0
  0
POLYLINE
  8
0
 62
     0
 66
     1
 10
0
 20
0
 30
0.0
 40
0.709
 41
0.709
  0
VERTEX
  8
0
 10
3.97581
 20
11.3413
 30
0.0
 40
0.00984722
 41
0.00984722
  0
VERTEX
  8
0
 10
4.75532
 20
11.3413
 30
0.0
 40
0.00984722
 41
0.00984722
  0
SEQEND
 8
0
  0
POLYLINE
  8
0
 62
     0
 66
     1
 10
0
 20
0
 30
0.0
 40
0.709
 41
0.709
  0
VERTEX
  8
0
 10
3.96294
 20
11.735
 30
0.0
 40
0.00984722
 41
0.00984722
  0
VERTEX
  8
0
 10
3.97581
 20
11.3413
 30
0.0
 40
0.00984722
 41
0.00984722
  0
SEQEND
 8
0
  0
POLYLINE
  8
0
 62
     0
 66
     1
 10
0
 20
0
 30
0.0
 40
0.709
 41
0.709
  0
VERTEX
  8
0
 10
3.96294
 20
11.735
 30
0.0
 40
0.00984722
 41
0.00984722
  0
VERTEX
  8
0
 10
4.49268
 20
11.735
 30
0.0
 40
0.00984722
 41
0.00984722
  0
SEQEND
 8
0
  0
POLYLINE
  8
0
 62
     0
 66
     1
 10
0
 20
0
 30
0.0
 40
0.709
 41
0.709
  0
VERTEX
  8
0
 10
4.75532
 20
11.735
 30
0.0
 40
0.00984722
 41
0.00984722
  0
VERTEX
  8
0
 10
4.49268
 20
11.735
 30
0.0
 40
0.00984722
 41
0.00984722
  0
SEQEND
 8
0
  0
POLYLINE
  8
0
 62
     0
 66
     1
 10
0
 20
0
 30
0.0
 40
0.709
 41
0.709
  0
VERTEX
  8
0
 10
3.86703
 20
14.6701
 30
0.0
 40
0.00984722
 41
0.00984722
  0
VERTEX
  8
0
 10
4.20622
 20
14.6701
 30
0.0
 40
0.00984722
 41
0.00984722
  0
SEQEND
 8
0
  0
POLYLINE
  8
0
 62
     0
 66
     1
 10
0
 20
0
 30
0.0
 40
0.709
 41
0.709
  0
VERTEX
  8
0
 10
4.29596
 20
11.9255
 30
0.0
 40
0.00984722
 41
0.00984722
  0
VERTEX
  8
0
 10
4.20622
 20
14.6701
 30
0.0
 40
0.00984722
 41
0.00984722
  0
SEQEND
 8
0
  0
POLYLINE
  8
0
 62
     0
 66
     1
 10
0
 20
0
 30
0.0
 40
0.709
 41
0.709
  0
VERTEX
  8
0
 10
4.29596
 20
11.9255
 30
0.0
 40
0.00984722
 41
0.00984722
  0
VERTEX
  8
0
 10
4.29622
 20
11.9194
 30
0.0
 40
0.00984722
 41
0.00984722
  0
VERTEX
  8
0
 10
4.29671
 20
11.9134
 30
0.0
 40
0.00984722
 41
0.00984722
  0
VERTEX
  8
0
 10
4.29736
 20
11.9073
 30
0.0
 40
0.00984722
 41
0.00984722
  0
VERTEX
  8
0
 10
4.29824
 20
11.9013
 30
0.0
 40
0.00984722
 41
0.00984722
  0
VERTEX
  8
0
 10
4.29926
 20
11.8954
 30
0.0
 40
0.00984722
 41
0.00984722
  0
VERTEX
  8
0
 10
4.30046
 20
11.8894
 30
0.0
 40
0.00984722
 41
0.00984722
  0
VERTEX
  8
0
 10
4.30186
 20
11.8835
 30
0.0
 40
0.00984722
 41
0.00984722
  0
VERTEX
  8
0
 10
4.30344
 20
11.8777
 30
0.0
 40
0.00984722
 41
0.00984722
  0
VERTEX
  8
0
 10
4.30518
 20
11.8719
 30
0.0
 40
0.00984722
 41
0.00984722
  0
VERTEX
  8
0
 10
4.30713
 20
11.8662
 30
0.0
 40
0.00984722
 41
0.00984722
  0
VERTEX
  8
0
 10
4.30925
 20
11.8605
 30
0.0
 40
0.00984722
 41
0.00984722
  0
VERTEX
  8
0
 10
4.31153
 20
11.8549
 30
0.0
 40
0.00984722
 41
0.00984722
  0
VERTEX
  8
0
 10
4.31396
 20
11.8493
 30
0.0
 40
0.00984722
 41
0.00984722
  0
VERTEX
  8
0
 10
4.31657
 20
11.8439
 30
0.0
 40
0.00984722
 41
0.00984722
  0
VERTEX
  8
0
 10
4.31939
 20
11.8385
 30
0.0
 40
0.00984722
 41
0.00984722
  0
VERTEX
  8
0
 10
4.32232
 20
11.8332
 30
0.0
 40
0.00984722
 41
0.00984722
  0
VERTEX
  8
0
 10
4.32547
 20
11.828
 30
0.0
 40
0.00984722
 41
0.00984722
  0
VERTEX
  8
0
 10
4.32872
 20
11.8229
 30
0.0
 40
0.00984722
 41
0.00984722
  0
VERTEX
  8
0
 10
4.33214
 20
11.8179
 30
0.0
 40
0.00984722
 41
0.00984722
  0
VERTEX
  8
0
 10
4.33572
 20
11.813
 30
0.0
 40
0.00984722
 41
0.00984722
  0
VERTEX
  8
0
 10
4.33946
 20
11.8083
 30
0.0
 40
0.00984722
 41
0.00984722
  0
VERTEX
  8
0
 10
4.34332
 20
11.8037
 30
0.0
 40
0.00984722
 41
0.00984722
  0
VERTEX
  8
0
 10
4.34733
 20
11.7991
 30
0.0
 40
0.00984722
 41
0.00984722
  0
VERTEX
  8
0
 10
4.35151
 20
11.7947
 30
0.0
 40
0.00984722
 41
0.00984722
  0
VERTEX
  8
0
 10
4.35579
 20
11.7904
 30
0.0
 40
0.00984722
 41
0.00984722
  0
VERTEX
  8
0
 10
4.36019
 20
11.7863
 30
0.0
 40
0.00984722
 41
0.00984722
  0
VERTEX
  8
0
 10
4.36475
 20
11.7823
 30
0.0
 40
0.00984722
 41
0.00984722
  0
VERTEX
  8
0
 10
4.36942
 20
11.7784
 30
0.0
 40
0.00984722
 41
0.00984722
  0
VERTEX
  8
0
 10
4.37418
 20
11.7747
 30
0.0
 40
0.00984722
 41
0.00984722
  0
VERTEX
  8
0
 10
4.37907
 20
11.7711
 30
0.0
 40
0.00984722
 41
0.00984722
  0
VERTEX
  8
0
 10
4.38406
 20
11.7677
 30
0.0
 40
0.00984722
 41
0.00984722
  0
VERTEX
  8
0
 10
4.38917
 20
11.7644
 30
0.0
 40
0.00984722
 41
0.00984722
  0
VERTEX
  8
0
 10
4.39437
 20
11.7613
 30
0.0
 40
0.00984722
 41
0.00984722
  0
VERTEX
  8
0
 10
4.39963
 20
11.7584
 30
0.0
 40
0.00984722
 41
0.00984722
  0
VERTEX
  8
0
 10
4.40506
 20
11.7556
 30
0.0
 40
0.00984722
 41
0.00984722
  0
VERTEX
  8
0
 10
4.41049
 20
11.753
 30
0.0
 40
0.00984722
 41
0.00984722
  0
VERTEX
  8
0
 10
4.41601
 20
11.7505
 30
0.0
 40
0.00984722
 41
0.00984722
  0
VERTEX
  8
0
 10
4.42165
 20
11.7483
 30
0.0
 40
0.00984722
 41
0.00984722
  0
VERTEX
  8
0
 10
4.42736
 20
11.7462
 30
0.0
 40
0.00984722
 41
0.00984722
  0
VERTEX
  8
0
 10
4.43311
 20
11.7443
 30
0.0
 40
0.00984722
 41
0.00984722
  0
VERTEX
  8
0
 10
4.43886
 20
11.7425
 30
0.0
 40
0.00984722
 41
0.00984722
  0
VERTEX
  8
0
 10
4.44472
 20
11.7409
 30
0.0
 40
0.00984722
 41
0.00984722
  0
VERTEX
  8
0
 10
4.45063
 20
11.7396
 30
0.0
 40
0.00984722
 41
0.00984722
  0
VERTEX
  8
0
 10
4.45654
 20
11.7383
 30
0.0
 40
0.00984722
 41
0.00984722
  0
VERTEX
  8
0
 10
4.46251
 20
11.7374
 30
0.0
 40
0.00984722
 41
0.00984722
  0
VERTEX
  8
0
 10
4.46853
 20
11.7365
 30
0.0
 40
0.00984722
 41
0.00984722
  0
VERTEX
  8
0
 10
4.47456
 20
11.7358
 30
0.0
 40
0.00984722
 41
0.00984722
  0
VERTEX
  8
0
 10
4.48058
 20
11.7354
 30
0.0
 40
0.00984722
 41
0.00984722
  0
VERTEX
  8
0
 10
4.4866
 20
11.7351
 30
0.0
 40
0.00984722
 41
0.00984722
  0
VERTEX
  8
0
 10
4.49268
 20
11.735
 30
0.0
 40
0.00984722
 41
0.00984722
  0
SEQEND
 8
0
  0
POLYLINE
  8
0
 62
     0
 66
     1
 10
0
 20
0
 30
0.0
 40
0.709
 41
0.709
  0
VERTEX
  8
0
 10
3.96294
 20
11.735
 30
0.0
 40
0.00984722
 41
0.00984722
  0
VERTEX
  8
0
 10
3.86703
 20
14.6701
 30
0.0
 40
0.00984722
 41
0.00984722
  0
SEQEND
 8
0
  0
POLYLINE
  8
0
 62
     0
 66
     1
 10
0
 20
0
 30
0.0
 40
0.709
 41
0.709
  0
VERTEX
  8
0
 10
4.20622
 20
14.6701
 30
0.0
 40
0.00984722
 41
0.00984722
  0
VERTEX
  8
0
 10
4.206
 20
14.6779
 30
0.0
 40
0.00984722
 41
0.00984722
  0
VERTEX
  8
0
 10
4.20574
 20
14.6856
 30
0.0
 40
0.00984722
 41
0.00984722
  0
VERTEX
  8
0
 10
4.20546
 20
14.6933
 30
0.0
 40
0.00984722
 41
0.00984722
  0
VERTEX
  8
0
 10
4.20524
 20
14.701
 30
0.0
 40
0.00984722
 41
0.00984722
  0
VERTEX
  8
0
 10
4.20497
 20
14.7088
 30
0.0
 40
0.00984722
 41
0.00984722
  0
VERTEX
  8
0
 10
4.20475
 20
14.7162
 30
0.0
 40
0.00984722
 41
0.00984722
  0
VERTEX
  8
0
 10
4.20449
 20
14.724
 30
0.0
 40
0.00984722
 41
0.00984722
  0
VERTEX
  8
0
 10
4.20421
 20
14.7315
 30
0.0
 40
0.00984722
 41
0.00984722
  0
VERTEX
  8
0
 10
4.204
 20
14.739
 30
0.0
 40
0.00984722
 41
0.00984722
  0
VERTEX
  8
0
 10
4.20372
 20
14.7464
 30
0.0
 40
0.00984722
 41
0.00984722
  0
VERTEX
  8
0
 10
4.2035
 20
14.7539
 30
0.0
 40
0.00984722
 41
0.00984722
  0
VERTEX
  8
0
 10
4.20329
 20
14.7611
 30
0.0
 40
0.00984722
 41
0.00984722
  0
VERTEX
  8
0
 10
4.20301
 20
14.7683
 30
0.0
 40
0.00984722
 41
0.00984722
  0
VERTEX
  8
0
 10
4.20281
 20
14.7756
 30
0.0
 40
0.00984722
 41
0.00984722
  0
VERTEX
  8
0
 10
4.20258
 20
14.7828
 30
0.0
 40
0.00984722
 41
0.00984722
  0
VERTEX
  8
0
 10
4.20231
 20
14.7897
 30
0.0
 40
0.00984722
 41
0.00984722
  0
VERTEX
  8
0
 10
4.2021
 20
14.7967
 30
0.0
 40
0.00984722
 41
0.00984722
  0
VERTEX
  8
0
 10
4.20188
 20
14.8035
 30
0.0
 40
0.00984722
 41
0.00984722
  0
VERTEX
  8
0
 10
4.20167
 20
14.8103
 30
0.0
 40
0.00984722
 41
0.00984722
  0
VERTEX
  8
0
 10
4.20144
 20
14.8168
 30
0.0
 40
0.00984722
 41
0.00984722
  0
VERTEX
  8
0
 10
4.20122
 20
14.8233
 30
0.0
 40
0.00984722
 41
0.00984722
  0
VERTEX
  8
0
 10
4.20101
 20
14.8297
 30
0.0
 40
0.00984722
 41
0.00984722
  0
VERTEX
  8
0
 10
4.20079
 20
14.8361
 30
0.0
 40
0.00984722
 41
0.00984722
  0
VERTEX
  8
0
 10
4.20063
 20
14.8422
 30
0.0
 40
0.00984722
 41
0.00984722
  0
VERTEX
  8
0
 10
4.20042
 20
14.8482
 30
0.0
 40
0.00984722
 41
0.00984722
  0
VERTEX
  8
0
 10
4.20019
 20
14.8542
 30
0.0
 40
0.00984722
 41
0.00984722
  0
VERTEX
  8
0
 10
4.20003
 20
14.86
 30
0.0
 40
0.00984722
 41
0.00984722
  0
VERTEX
  8
0
 10
4.19987
 20
14.8656
 30
0.0
 40
0.00984722
 41
0.00984722
  0
VERTEX
  8
0
 10
4.19965
 20
14.8711
 30
0.0
 40
0.00984722
 41
0.00984722
  0
VERTEX
  8
0
 10
4.19949
 20
14.8765
 30
0.0
 40
0.00984722
 41
0.00984722
  0
VERTEX
  8
0
 10
4.19933
 20
14.8817
 30
0.0
 40
0.00984722
 41
0.00984722
  0
VERTEX
  8
0
 10
4.19917
 20
14.8868
 30
0.0
 40
0.00984722
 41
0.00984722
  0
VERTEX
  8
0
 10
4.199
 20
14.8917
 30
0.0
 40
0.00984722
 41
0.00984722
  0
VERTEX
  8
0
 10
4.19883
 20
14.8964
 30
0.0
 40
0.00984722
 41
0.00984722
  0
VERTEX
  8
0
 10
4.19868
 20
14.901
 30
0.0
 40
0.00984722
 41
0.00984722
  0
VERTEX
  8
0
 10
4.19857
 20
14.9054
 30
0.0
 40
0.00984722
 41
0.00984722
  0
VERTEX
  8
0
 10
4.1984
 20
14.9096
 30
0.0
 40
0.00984722
 41
0.00984722
  0
VERTEX
  8
0
 10
4.19829
 20
14.9138
 30
0.0
 40
0.00984722
 41
0.00984722
  0
VERTEX
  8
0
 10
4.19814
 20
14.9176
 30
0.0
 40
0.00984722
 41
0.00984722
  0
VERTEX
  8
0
 10
4.19803
 20
14.9212
 30
0.0
 40
0.00984722
 41
0.00984722
  0
VERTEX
  8
0
 10
4.19792
 20
14.9249
 30
0.0
 40
0.00984722
 41
0.00984722
  0
VERTEX
  8
0
 10
4.19781
 20
14.9282
 30
0.0
 40
0.00984722
 41
0.00984722
  0
VERTEX
  8
0
 10
4.19769
 20
14.9313
 30
0.0
 40
0.00984722
 41
0.00984722
  0
VERTEX
  8
0
 10
4.1976
 20
14.9343
 30
0.0
 40
0.00984722
 41
0.00984722
  0
VERTEX
  8
0
 10
4.19754
 20
14.9371
 30
0.0
 40
0.00984722
 41
0.00984722
  0
VERTEX
  8
0
 10
4.19743
 20
14.9397
 30
0.0
 40
0.00984722
 41
0.00984722
  0
VERTEX
  8
0
 10
4.19732
 20
14.9421
 30
0.0
 40
0.00984722
 41
0.00984722
  0
VERTEX
  8
0
 10
4.19726
 20
14.9443
 30
0.0
 40
0.00984722
 41
0.00984722
  0
VERTEX
  8
0
 10
4.19721
 20
14.9464
 30
0.0
 40
0.00984722
 41
0.00984722
  0
VERTEX
  8
0
 10
4.19715
 20
14.9482
 30
0.0
 40
0.00984722
 41
0.00984722
  0
VERTEX
  8
0
 10
4.1971
 20
14.9497
 30
0.0
 40
0.00984722
 41
0.00984722
  0
VERTEX
  8
0
 10
4.19706
 20
14.9511
 30
0.0
 40
0.00984722
 41
0.00984722
  0
VERTEX
  8
0
 10
4.197
 20
14.9524
 30
0.0
 40
0.00984722
 41
0.00984722
  0
VERTEX
  8
0
 10
4.197
 20
14.9535
 30
0.0
 40
0.00984722
 41
0.00984722
  0
VERTEX
  8
0
 10
4.19694
 20
14.9542
 30
0.0
 40
0.00984722
 41
0.00984722
  0
VERTEX
  8
0
 10
4.19694
 20
14.9556
 30
0.0
 40
0.00984722
 41
0.00984722
  0
SEQEND
 8
0
  0
POLYLINE
  8
0
 62
     0
 66
     1
 10
0
 20
0
 30
0.0
 40
0.709
 41
0.709
  0
VERTEX
  8
0
 10
3.86703
 20
14.6701
 30
0.0
 40
0.00984722
 41
0.00984722
  0
VERTEX
  8
0
 10
3.86675
 20
14.6779
 30
0.0
 40
0.00984722
 41
0.00984722
  0
VERTEX
  8
0
 10
3.86649
 20
14.6856
 30
0.0
 40
0.00984722
 41
0.00984722
  0
VERTEX
  8
0
 10
3.86626
 20
14.6933
 30
0.0
 40
0.00984722
 41
0.00984722
  0
VERTEX
  8
0
 10
3.866
 20
14.701
 30
0.0
 40
0.00984722
 41
0.00984722
  0
VERTEX
  8
0
 10
3.86572
 20
14.7088
 30
0.0
 40
0.00984722
 41
0.00984722
  0
VERTEX
  8
0
 10
3.8655
 20
14.7162
 30
0.0
 40
0.00984722
 41
0.00984722
  0
VERTEX
  8
0
 10
3.86524
 20
14.724
 30
0.0
 40
0.00984722
 41
0.00984722
  0
VERTEX
  8
0
 10
3.86501
 20
14.7315
 30
0.0
 40
0.00984722
 41
0.00984722
  0
VERTEX
  8
0
 10
3.86475
 20
14.739
 30
0.0
 40
0.00984722
 41
0.00984722
  0
VERTEX
  8
0
 10
3.86453
 20
14.7464
 30
0.0
 40
0.00984722
 41
0.00984722
  0
VERTEX
  8
0
 10
3.86426
 20
14.7539
 30
0.0
 40
0.00984722
 41
0.00984722
  0
VERTEX
  8
0
 10
3.86404
 20
14.7611
 30
0.0
 40
0.00984722
 41
0.00984722
  0
VERTEX
  8
0
 10
3.86376
 20
14.7683
 30
0.0
 40
0.00984722
 41
0.00984722
  0
VERTEX
  8
0
 10
3.86356
 20
14.7756
 30
0.0
 40
0.00984722
 41
0.00984722
  0
VERTEX
  8
0
 10
3.86333
 20
14.7828
 30
0.0
 40
0.00984722
 41
0.00984722
  0
VERTEX
  8
0
 10
3.86312
 20
14.7897
 30
0.0
 40
0.00984722
 41
0.00984722
  0
VERTEX
  8
0
 10
3.86285
 20
14.7967
 30
0.0
 40
0.00984722
 41
0.00984722
  0
VERTEX
  8
0
 10
3.86263
 20
14.8035
 30
0.0
 40
0.00984722
 41
0.00984722
  0
VERTEX
  8
0
 10
3.86242
 20
14.8103
 30
0.0
 40
0.00984722
 41
0.00984722
  0
VERTEX
  8
0
 10
3.86219
 20
14.8168
 30
0.0
 40
0.00984722
 41
0.00984722
  0
VERTEX
  8
0
 10
3.86199
 20
14.8233
 30
0.0
 40
0.00984722
 41
0.00984722
  0
VERTEX
  8
0
 10
3.86176
 20
14.8297
 30
0.0
 40
0.00984722
 41
0.00984722
  0
VERTEX
  8
0
 10
3.8616
 20
14.8361
 30
0.0
 40
0.00984722
 41
0.00984722
  0
VERTEX
  8
0
 10
3.86139
 20
14.8422
 30
0.0
 40
0.00984722
 41
0.00984722
  0
VERTEX
  8
0
 10
3.86117
 20
14.8482
 30
0.0
 40
0.00984722
 41
0.00984722
  0
VERTEX
  8
0
 10
3.861
 20
14.8542
 30
0.0
 40
0.00984722
 41
0.00984722
  0
VERTEX
  8
0
 10
3.86079
 20
14.86
 30
0.0
 40
0.00984722
 41
0.00984722
  0
VERTEX
  8
0
 10
3.86062
 20
14.8656
 30
0.0
 40
0.00984722
 41
0.00984722
  0
VERTEX
  8
0
 10
3.86046
 20
14.8711
 30
0.0
 40
0.00984722
 41
0.00984722
  0
VERTEX
  8
0
 10
3.86025
 20
14.8765
 30
0.0
 40
0.00984722
 41
0.00984722
  0
VERTEX
  8
0
 10
3.86008
 20
14.8817
 30
0.0
 40
0.00984722
 41
0.00984722
  0
VERTEX
  8
0
 10
3.85992
 20
14.8868
 30
0.0
 40
0.00984722
 41
0.00984722
  0
VERTEX
  8
0
 10
3.85975
 20
14.8917
 30
0.0
 40
0.00984722
 41
0.00984722
  0
VERTEX
  8
0
 10
3.8596
 20
14.8964
 30
0.0
 40
0.00984722
 41
0.00984722
  0
VERTEX
  8
0
 10
3.85949
 20
14.901
 30
0.0
 40
0.00984722
 41
0.00984722
  0
VERTEX
  8
0
 10
3.85932
 20
14.9054
 30
0.0
 40
0.00984722
 41
0.00984722
  0
VERTEX
  8
0
 10
3.85915
 20
14.9096
 30
0.0
 40
0.00984722
 41
0.00984722
  0
VERTEX
  8
0
 10
3.85906
 20
14.9138
 30
0.0
 40
0.00984722
 41
0.00984722
  0
VERTEX
  8
0
 10
3.85889
 20
14.9176
 30
0.0
 40
0.00984722
 41
0.00984722
  0
VERTEX
  8
0
 10
3.85878
 20
14.9212
 30
0.0
 40
0.00984722
 41
0.00984722
  0
VERTEX
  8
0
 10
3.85867
 20
14.9249
 30
0.0
 40
0.00984722
 41
0.00984722
  0
VERTEX
  8
0
 10
3.85856
 20
14.9282
 30
0.0
 40
0.00984722
 41
0.00984722
  0
VERTEX
  8
0
 10
3.85846
 20
14.9313
 30
0.0
 40
0.00984722
 41
0.00984722
  0
VERTEX
  8
0
 10
3.8584
 20
14.9343
 30
0.0
 40
0.00984722
 41
0.00984722
  0
VERTEX
  8
0
 10
3.85829
 20
14.9371
 30
0.0
 40
0.00984722
 41
0.00984722
  0
VERTEX
  8
0
 10
3.85818
 20
14.9397
 30
0.0
 40
0.00984722
 41
0.00984722
  0
VERTEX
  8
0
 10
3.85813
 20
14.9421
 30
0.0
 40
0.00984722
 41
0.00984722
  0
VERTEX
  8
0
 10
3.85807
 20
14.9443
 30
0.0
 40
0.00984722
 41
0.00984722
  0
VERTEX
  8
0
 10
3.85796
 20
14.9464
 30
0.0
 40
0.00984722
 41
0.00984722
  0
VERTEX
  8
0
 10
3.85792
 20
14.9482
 30
0.0
 40
0.00984722
 41
0.00984722
  0
VERTEX
  8
0
 10
3.85786
 20
14.9497
 30
0.0
 40
0.00984722
 41
0.00984722
  0
VERTEX
  8
0
 10
3.85781
 20
14.9511
 30
0.0
 40
0.00984722
 41
0.00984722
  0
VERTEX
  8
0
 10
3.85781
 20
14.9524
 30
0.0
 40
0.00984722
 41
0.00984722
  0
VERTEX
  8
0
 10
3.85775
 20
14.9535
 30
0.0
 40
0.00984722
 41
0.00984722
  0
VERTEX
  8
0
 10
3.85769
 20
14.9542
 30
0.0
 40
0.00984722
 41
0.00984722
  0
VERTEX
  8
0
 10
3.85769
 20
14.9556
 30
0.0
 40
0.00984722
 41
0.00984722
  0
SEQEND
 8
0
  0
ENDSEC
  0
EOF
