  0
SECTION
  2
HEADER
  9
$ACADVER
  1
AC1009
  9
$EXTMIN
 10
0.0
 20
0.0
 30
0.0
  9
$EXTMAX
 10
1000.0
 20
1000.0
 30
0.0
  9
$FILLMODE
 70
 0
  9
$SPLFRAME
 70
 1
  0
ENDSEC
  0
SECTION
  2
TABLES
  0
TABLE
  2
LAYER
 70
1
  0
LAYER
  2
0
 70
     0
 62
     7
  6
CONTINUOUS
  0
ENDTAB
  0
ENDSEC
  0
SECTION
  2
ENTITIES
  0
POLYLINE
  8
0
 62
     0
 66
     1
 10
0
 20
0
 30
0.0
 70
     1
 40
0.51
 41
0.51
  0
VERTEX
  8
0
 10
1.26855
 20
2.66851
 30
0.0
 40
0.00708333
 41
0.00708333
  0
VERTEX
  8
0
 10
1.26855
 20
2.66851
 30
0.0
 40
0.00708333
 41
0.00708333
  0
SEQEND
 8
0
  0
POLYLINE
  8
0
 62
     0
 66
     1
 10
0
 20
0
 30
0.0
 70
     1
 40
0.51
 41
0.51
  0
VERTEX
  8
0
 10
5.27588
 20
2.45025
 30
0.0
 40
0.00708333
 41
0.00708333
  0
VERTEX
  8
0
 10
5.27588
 20
2.45025
 30
0.0
 40
0.00708333
 41
0.00708333
  0
SEQEND
 8
0
  0
POLYLINE
  8
0
 62
     0
 66
     1
 10
0
 20
0
 30
0.0
 70
     1
 40
0.51
 41
0.51
  0
VERTEX
  8
0
 10
16.064
 20
15.1967
 30
0.0
 40
0.00708333
 41
0.00708333
  0
VERTEX
  8
0
 10
16.064
 20
15.1967
 30
0.0
 40
0.00708333
 41
0.00708333
  0
SEQEND
 8
0
  0
POLYLINE
  8
0
 62
     0
 66
     1
 10
0
 20
0
 30
0.0
 70
     1
 40
0.51
 41
0.51
  0
VERTEX
  8
0
 10
13.8043
 20
12.8451
 30
0.0
 40
0.00708333
 41
0.00708333
  0
VERTEX
  8
0
 10
13.8043
 20
12.8451
 30
0.0
 40
0.00708333
 41
0.00708333
  0
SEQEND
 8
0
  0
POLYLINE
  8
0
 62
     0
 66
     1
 10
0
 20
0
 30
0.0
 70
     1
 40
0.51
 41
0.51
  0
VERTEX
  8
0
 10
13.9096
 20
12.7039
 30
0.0
 40
0.00708333
 41
0.00708333
  0
VERTEX
  8
0
 10
13.9096
 20
12.7039
 30
0.0
 40
0.00708333
 41
0.00708333
  0
SEQEND
 8
0
  0
POLYLINE
  8
0
 62
     0
 66
     1
 10
0
 20
0
 30
0.0
 70
     1
 40
0.51
 41
0.51
  0
VERTEX
  8
0
 10
13.1734
 20
14.1964
 30
0.0
 40
0.00708333
 41
0.00708333
  0
VERTEX
  8
0
 10
13.1734
 20
14.1964
 30
0.0
 40
0.00708333
 41
0.00708333
  0
SEQEND
 8
0
  0
POLYLINE
  8
0
 62
     0
 66
     1
 10
0
 20
0
 30
0.0
 70
     1
 40
0.51
 41
0.51
  0
VERTEX
  8
0
 10
13.1354
 20
14.3492
 30
0.0
 40
0.00708333
 41
0.00708333
  0
VERTEX
  8
0
 10
13.1354
 20
14.3492
 30
0.0
 40
0.00708333
 41
0.00708333
  0
SEQEND
 8
0
  0
POLYLINE
  8
0
 62
     0
 66
     1
 10
0
 20
0
 30
0.0
 40
0.709
 41
0.709
  0
VERTEX
  8
0
 10
14.4476
 20
13.6124
 30
0.0
 40
0.00984722
 41
0.00984722
  0
VERTEX
  8
0
 10
14.5985
 20
13.2537
 30
0.0
 40
0.00984722
 41
0.00984722
  0
SEQEND
 8
0
  0
POLYLINE
  8
0
 62
     0
 66
     1
 10
0
 20
0
 30
0.0
 40
0.709
 41
0.709
  0
VERTEX
  8
0
 10
14.4476
 20
13.6124
 30
0.0
 40
0.00984722
 41
0.00984722
  0
VERTEX
  8
0
 10
14.2969
 20
13.2537
 30
0.0
 40
0.00984722
 41
0.00984722
  0
SEQEND
 8
0
  0
POLYLINE
  8
0
 62
     0
 66
     1
 10
0
 20
0
 30
0.0
 40
0.709
 41
0.709
  0
VERTEX
  8
0
 10
14.2969
 20
13.2537
 30
0.0
 40
0.00984722
 41
0.00984722
  0
VERTEX
  8
0
 10
14.5985
 20
13.2537
 30
0.0
 40
0.00984722
 41
0.00984722
  0
SEQEND
 8
0
  0
POLYLINE
  8
0
 62
     0
 66
     1
 10
0
 20
0
 30
0.0
 40
0.709
 41
0.709
  0
VERTEX
  8
0
 10
14.4331
 20
13.6824
 30
0.0
 40
0.00984722
 41
0.00984722
  0
VERTEX
  8
0
 10
14.2824
 20
14.0411
 30
0.0
 40
0.00984722
 41
0.00984722
  0
SEQEND
 8
0
  0
POLYLINE
  8
0
 62
     0
 66
     1
 10
0
 20
0
 30
0.0
 40
0.709
 41
0.709
  0
VERTEX
  8
0
 10
14.4331
 20
13.6824
 30
0.0
 40
0.00984722
 41
0.00984722
  0
VERTEX
  8
0
 10
14.5839
 20
14.0411
 30
0.0
 40
0.00984722
 41
0.00984722
  0
SEQEND
 8
0
  0
POLYLINE
  8
0
 62
     0
 66
     1
 10
0
 20
0
 30
0.0
 40
0.709
 41
0.709
  0
VERTEX
  8
0
 10
14.2824
 20
14.0411
 30
0.0
 40
0.00984722
 41
0.00984722
  0
VERTEX
  8
0
 10
14.5839
 20
14.0411
 30
0.0
 40
0.00984722
 41
0.00984722
  0
SEQEND
 8
0
  0
POLYLINE
  8
0
 62
     0
 66
     1
 10
0
 20
0
 30
0.0
 40
0.709
 41
0.709
  0
VERTEX
  8
0
 10
14.5039
 20
13.6473
 30
0.0
 40
0.00984722
 41
0.00984722
  0
VERTEX
  8
0
 10
14.6693
 20
14.0411
 30
0.0
 40
0.00984722
 41
0.00984722
  0
SEQEND
 8
0
  0
POLYLINE
  8
0
 62
     0
 66
     1
 10
0
 20
0
 30
0.0
 40
0.709
 41
0.709
  0
VERTEX
  8
0
 10
14.5039
 20
13.6473
 30
0.0
 40
0.00984722
 41
0.00984722
  0
VERTEX
  8
0
 10
14.6693
 20
13.2537
 30
0.0
 40
0.00984722
 41
0.00984722
  0
SEQEND
 8
0
  0
POLYLINE
  8
0
 62
     0
 66
     1
 10
0
 20
0
 30
0.0
 40
0.709
 41
0.709
  0
VERTEX
  8
0
 10
14.6693
 20
13.2537
 30
0.0
 40
0.00984722
 41
0.00984722
  0
VERTEX
  8
0
 10
14.7481
 20
13.2537
 30
0.0
 40
0.00984722
 41
0.00984722
  0
SEQEND
 8
0
  0
POLYLINE
  8
0
 62
     0
 66
     1
 10
0
 20
0
 30
0.0
 40
0.709
 41
0.709
  0
VERTEX
  8
0
 10
14.7481
 20
14.0411
 30
0.0
 40
0.00984722
 41
0.00984722
  0
VERTEX
  8
0
 10
14.7481
 20
13.2537
 30
0.0
 40
0.00984722
 41
0.00984722
  0
SEQEND
 8
0
  0
POLYLINE
  8
0
 62
     0
 66
     1
 10
0
 20
0
 30
0.0
 40
0.709
 41
0.709
  0
VERTEX
  8
0
 10
14.6693
 20
14.0411
 30
0.0
 40
0.00984722
 41
0.00984722
  0
VERTEX
  8
0
 10
14.7481
 20
14.0411
 30
0.0
 40
0.00984722
 41
0.00984722
  0
SEQEND
 8
0
  0
POLYLINE
  8
0
 62
     0
 66
     1
 10
0
 20
0
 30
0.0
 40
0.709
 41
0.709
  0
VERTEX
  8
0
 10
14.8268
 20
14.0411
 30
0.0
 40
0.00984722
 41
0.00984722
  0
VERTEX
  8
0
 10
14.8268
 20
13.2537
 30
0.0
 40
0.00984722
 41
0.00984722
  0
SEQEND
 8
0
  0
POLYLINE
  8
0
 62
     0
 66
     1
 10
0
 20
0
 30
0.0
 40
0.709
 41
0.709
  0
VERTEX
  8
0
 10
14.8268
 20
13.2537
 30
0.0
 40
0.00984722
 41
0.00984722
  0
VERTEX
  8
0
 10
14.9056
 20
13.2537
 30
0.0
 40
0.00984722
 41
0.00984722
  0
SEQEND
 8
0
  0
POLYLINE
  8
0
 62
     0
 66
     1
 10
0
 20
0
 30
0.0
 40
0.709
 41
0.709
  0
VERTEX
  8
0
 10
14.9056
 20
14.0411
 30
0.0
 40
0.00984722
 41
0.00984722
  0
VERTEX
  8
0
 10
14.9056
 20
13.2537
 30
0.0
 40
0.00984722
 41
0.00984722
  0
SEQEND
 8
0
  0
POLYLINE
  8
0
 62
     0
 66
     1
 10
0
 20
0
 30
0.0
 40
0.709
 41
0.709
  0
VERTEX
  8
0
 10
14.8268
 20
14.0411
 30
0.0
 40
0.00984722
 41
0.00984722
  0
VERTEX
  8
0
 10
14.9056
 20
14.0411
 30
0.0
 40
0.00984722
 41
0.00984722
  0
SEQEND
 8
0
  0
POLYLINE
  8
0
 62
     0
 66
     1
 10
0
 20
0
 30
0.0
 40
0.709
 41
0.709
  0
VERTEX
  8
0
 10
14.1182
 20
14.1199
 30
0.0
 40
0.00984722
 41
0.00984722
  0
VERTEX
  8
0
 10
15.0631
 20
14.1199
 30
0.0
 40
0.00984722
 41
0.00984722
  0
SEQEND
 8
0
  0
POLYLINE
  8
0
 62
     0
 66
     1
 10
0
 20
0
 30
0.0
 40
0.709
 41
0.709
  0
VERTEX
  8
0
 10
15.0631
 20
14.1199
 30
0.0
 40
0.00984722
 41
0.00984722
  0
VERTEX
  8
0
 10
15.0631
 20
14.0411
 30
0.0
 40
0.00984722
 41
0.00984722
  0
SEQEND
 8
0
  0
POLYLINE
  8
0
 62
     0
 66
     1
 10
0
 20
0
 30
0.0
 40
0.709
 41
0.709
  0
VERTEX
  8
0
 10
14.9843
 20
14.0411
 30
0.0
 40
0.00984722
 41
0.00984722
  0
VERTEX
  8
0
 10
15.0631
 20
14.0411
 30
0.0
 40
0.00984722
 41
0.00984722
  0
SEQEND
 8
0
  0
POLYLINE
  8
0
 62
     0
 66
     1
 10
0
 20
0
 30
0.0
 40
0.709
 41
0.709
  0
VERTEX
  8
0
 10
14.9843
 20
14.0411
 30
0.0
 40
0.00984722
 41
0.00984722
  0
VERTEX
  8
0
 10
14.9843
 20
13.2537
 30
0.0
 40
0.00984722
 41
0.00984722
  0
SEQEND
 8
0
  0
POLYLINE
  8
0
 62
     0
 66
     1
 10
0
 20
0
 30
0.0
 40
0.709
 41
0.709
  0
VERTEX
  8
0
 10
14.9843
 20
13.2537
 30
0.0
 40
0.00984722
 41
0.00984722
  0
VERTEX
  8
0
 10
15.0631
 20
13.2537
 30
0.0
 40
0.00984722
 41
0.00984722
  0
SEQEND
 8
0
  0
POLYLINE
  8
0
 62
     0
 66
     1
 10
0
 20
0
 30
0.0
 40
0.709
 41
0.709
  0
VERTEX
  8
0
 10
15.0631
 20
13.1749
 30
0.0
 40
0.00984722
 41
0.00984722
  0
VERTEX
  8
0
 10
15.0631
 20
13.2537
 30
0.0
 40
0.00984722
 41
0.00984722
  0
SEQEND
 8
0
  0
POLYLINE
  8
0
 62
     0
 66
     1
 10
0
 20
0
 30
0.0
 40
0.709
 41
0.709
  0
VERTEX
  8
0
 10
14.1182
 20
13.1749
 30
0.0
 40
0.00984722
 41
0.00984722
  0
VERTEX
  8
0
 10
15.0631
 20
13.1749
 30
0.0
 40
0.00984722
 41
0.00984722
  0
SEQEND
 8
0
  0
POLYLINE
  8
0
 62
     0
 66
     1
 10
0
 20
0
 30
0.0
 40
0.709
 41
0.709
  0
VERTEX
  8
0
 10
14.1182
 20
13.1749
 30
0.0
 40
0.00984722
 41
0.00984722
  0
VERTEX
  8
0
 10
14.1182
 20
13.2537
 30
0.0
 40
0.00984722
 41
0.00984722
  0
SEQEND
 8
0
  0
POLYLINE
  8
0
 62
     0
 66
     1
 10
0
 20
0
 30
0.0
 40
0.709
 41
0.709
  0
VERTEX
  8
0
 10
14.1182
 20
13.2537
 30
0.0
 40
0.00984722
 41
0.00984722
  0
VERTEX
  8
0
 10
14.1969
 20
13.2537
 30
0.0
 40
0.00984722
 41
0.00984722
  0
SEQEND
 8
0
  0
POLYLINE
  8
0
 62
     0
 66
     1
 10
0
 20
0
 30
0.0
 40
0.709
 41
0.709
  0
VERTEX
  8
0
 10
14.1969
 20
13.2537
 30
0.0
 40
0.00984722
 41
0.00984722
  0
VERTEX
  8
0
 10
14.3624
 20
13.6473
 30
0.0
 40
0.00984722
 41
0.00984722
  0
SEQEND
 8
0
  0
POLYLINE
  8
0
 62
     0
 66
     1
 10
0
 20
0
 30
0.0
 40
0.709
 41
0.709
  0
VERTEX
  8
0
 10
14.1969
 20
14.0411
 30
0.0
 40
0.00984722
 41
0.00984722
  0
VERTEX
  8
0
 10
14.3624
 20
13.6473
 30
0.0
 40
0.00984722
 41
0.00984722
  0
SEQEND
 8
0
  0
POLYLINE
  8
0
 62
     0
 66
     1
 10
0
 20
0
 30
0.0
 40
0.709
 41
0.709
  0
VERTEX
  8
0
 10
14.1182
 20
14.0411
 30
0.0
 40
0.00984722
 41
0.00984722
  0
VERTEX
  8
0
 10
14.1969
 20
14.0411
 30
0.0
 40
0.00984722
 41
0.00984722
  0
SEQEND
 8
0
  0
POLYLINE
  8
0
 62
     0
 66
     1
 10
0
 20
0
 30
0.0
 40
0.709
 41
0.709
  0
VERTEX
  8
0
 10
14.1182
 20
14.1199
 30
0.0
 40
0.00984722
 41
0.00984722
  0
VERTEX
  8
0
 10
14.1182
 20
14.0411
 30
0.0
 40
0.00984722
 41
0.00984722
  0
SEQEND
 8
0
  0
POLYLINE
  8
0
 62
     0
 66
     1
 10
0
 20
0
 30
0.0
 40
0.709
 41
0.709
  0
VERTEX
  8
0
 10
10.675
 20
6.17139
 30
0.0
 40
0.00984722
 41
0.00984722
  0
VERTEX
  8
0
 10
10.5483
 20
6.39074
 30
0.0
 40
0.00984722
 41
0.00984722
  0
SEQEND
 8
0
  0
POLYLINE
  8
0
 62
     0
 66
     1
 10
0
 20
0
 30
0.0
 40
0.709
 41
0.709
  0
VERTEX
  8
0
 10
10.5483
 20
6.39074
 30
0.0
 40
0.00984722
 41
0.00984722
  0
VERTEX
  8
0
 10
9.86643
 20
5.99707
 30
0.0
 40
0.00984722
 41
0.00984722
  0
SEQEND
 8
0
  0
POLYLINE
  8
0
 62
     0
 66
     1
 10
0
 20
0
 30
0.0
 40
0.709
 41
0.709
  0
VERTEX
  8
0
 10
9.90582
 20
5.92888
 30
0.0
 40
0.00984722
 41
0.00984722
  0
VERTEX
  8
0
 10
9.86643
 20
5.99707
 30
0.0
 40
0.00984722
 41
0.00984722
  0
SEQEND
 8
0
  0
POLYLINE
  8
0
 62
     0
 66
     1
 10
0
 20
0
 30
0.0
 40
0.709
 41
0.709
  0
VERTEX
  8
0
 10
9.90582
 20
5.92888
 30
0.0
 40
0.00984722
 41
0.00984722
  0
VERTEX
  8
0
 10
10.675
 20
6.17139
 30
0.0
 40
0.00984722
 41
0.00984722
  0
SEQEND
 8
0
  0
POLYLINE
  8
0
 62
     0
 66
     1
 10
0
 20
0
 30
0.0
 40
0.709
 41
0.709
  0
VERTEX
  8
0
 10
10.8793
 20
5.81754
 30
0.0
 40
0.00984722
 41
0.00984722
  0
VERTEX
  8
0
 10
10.7462
 20
6.04801
 30
0.0
 40
0.00984722
 41
0.00984722
  0
SEQEND
 8
0
  0
POLYLINE
  8
0
 62
     0
 66
     1
 10
0
 20
0
 30
0.0
 40
0.709
 41
0.709
  0
VERTEX
  8
0
 10
10.1516
 20
5.5031
 30
0.0
 40
0.00984722
 41
0.00984722
  0
VERTEX
  8
0
 10
10.7462
 20
6.04801
 30
0.0
 40
0.00984722
 41
0.00984722
  0
SEQEND
 8
0
  0
POLYLINE
  8
0
 62
     0
 66
     1
 10
0
 20
0
 30
0.0
 40
0.709
 41
0.709
  0
VERTEX
  8
0
 10
10.191
 20
5.43494
 30
0.0
 40
0.00984722
 41
0.00984722
  0
VERTEX
  8
0
 10
10.1516
 20
5.5031
 30
0.0
 40
0.00984722
 41
0.00984722
  0
SEQEND
 8
0
  0
POLYLINE
  8
0
 62
     0
 66
     1
 10
0
 20
0
 30
0.0
 40
0.709
 41
0.709
  0
VERTEX
  8
0
 10
10.191
 20
5.43494
 30
0.0
 40
0.00984722
 41
0.00984722
  0
VERTEX
  8
0
 10
10.1221
 20
5.39665
 30
0.0
 40
0.00984722
 41
0.00984722
  0
SEQEND
 8
0
  0
POLYLINE
  8
0
 62
     0
 66
     1
 10
0
 20
0
 30
0.0
 40
0.709
 41
0.709
  0
VERTEX
  8
0
 10
10.1221
 20
5.39665
 30
0.0
 40
0.00984722
 41
0.00984722
  0
VERTEX
  8
0
 10
9.57112
 20
6.35101
 30
0.0
 40
0.00984722
 41
0.00984722
  0
SEQEND
 8
0
  0
POLYLINE
  8
0
 62
     0
 66
     1
 10
0
 20
0
 30
0.0
 40
0.709
 41
0.709
  0
VERTEX
  8
0
 10
9.65565
 20
6.398
 30
0.0
 40
0.00984722
 41
0.00984722
  0
VERTEX
  8
0
 10
9.57112
 20
6.35101
 30
0.0
 40
0.00984722
 41
0.00984722
  0
SEQEND
 8
0
  0
POLYLINE
  8
0
 62
     0
 66
     1
 10
0
 20
0
 30
0.0
 40
0.709
 41
0.709
  0
VERTEX
  8
0
 10
9.6939
 20
6.32921
 30
0.0
 40
0.00984722
 41
0.00984722
  0
VERTEX
  8
0
 10
9.65565
 20
6.398
 30
0.0
 40
0.00984722
 41
0.00984722
  0
SEQEND
 8
0
  0
POLYLINE
  8
0
 62
     0
 66
     1
 10
0
 20
0
 30
0.0
 40
0.709
 41
0.709
  0
VERTEX
  8
0
 10
10.3677
 20
6.70367
 30
0.0
 40
0.00984722
 41
0.00984722
  0
VERTEX
  8
0
 10
9.6939
 20
6.32921
 30
0.0
 40
0.00984722
 41
0.00984722
  0
SEQEND
 8
0
  0
POLYLINE
  8
0
 62
     0
 66
     1
 10
0
 20
0
 30
0.0
 40
0.709
 41
0.709
  0
VERTEX
  8
0
 10
10.3677
 20
6.70367
 30
0.0
 40
0.00984722
 41
0.00984722
  0
VERTEX
  8
0
 10
10.3283
 20
6.77192
 30
0.0
 40
0.00984722
 41
0.00984722
  0
SEQEND
 8
0
  0
POLYLINE
  8
0
 62
     0
 66
     1
 10
0
 20
0
 30
0.0
 40
0.709
 41
0.709
  0
VERTEX
  8
0
 10
10.3971
 20
6.81017
 30
0.0
 40
0.00984722
 41
0.00984722
  0
VERTEX
  8
0
 10
10.3283
 20
6.77192
 30
0.0
 40
0.00984722
 41
0.00984722
  0
SEQEND
 8
0
  0
POLYLINE
  8
0
 62
     0
 66
     1
 10
0
 20
0
 30
0.0
 40
0.709
 41
0.709
  0
VERTEX
  8
0
 10
10.9481
 20
5.85579
 30
0.0
 40
0.00984722
 41
0.00984722
  0
VERTEX
  8
0
 10
10.3971
 20
6.81017
 30
0.0
 40
0.00984722
 41
0.00984722
  0
SEQEND
 8
0
  0
POLYLINE
  8
0
 62
     0
 66
     1
 10
0
 20
0
 30
0.0
 40
0.709
 41
0.709
  0
VERTEX
  8
0
 10
10.9481
 20
5.85579
 30
0.0
 40
0.00984722
 41
0.00984722
  0
VERTEX
  8
0
 10
10.8793
 20
5.81754
 30
0.0
 40
0.00984722
 41
0.00984722
  0
SEQEND
 8
0
  0
POLYLINE
  8
0
 62
     0
 66
     1
 10
0
 20
0
 30
0.0
 40
0.709
 41
0.709
  0
VERTEX
  8
0
 10
10.4071
 20
6.63547
 30
0.0
 40
0.00984722
 41
0.00984722
  0
VERTEX
  8
0
 10
9.73215
 20
6.26036
 30
0.0
 40
0.00984722
 41
0.00984722
  0
SEQEND
 8
0
  0
POLYLINE
  8
0
 62
     0
 66
     1
 10
0
 20
0
 30
0.0
 40
0.709
 41
0.709
  0
VERTEX
  8
0
 10
9.77046
 20
6.19151
 30
0.0
 40
0.00984722
 41
0.00984722
  0
VERTEX
  8
0
 10
9.73215
 20
6.26036
 30
0.0
 40
0.00984722
 41
0.00984722
  0
SEQEND
 8
0
  0
POLYLINE
  8
0
 62
     0
 66
     1
 10
0
 20
0
 30
0.0
 40
0.709
 41
0.709
  0
VERTEX
  8
0
 10
10.4465
 20
6.56728
 30
0.0
 40
0.00984722
 41
0.00984722
  0
VERTEX
  8
0
 10
9.77046
 20
6.19151
 30
0.0
 40
0.00984722
 41
0.00984722
  0
SEQEND
 8
0
  0
POLYLINE
  8
0
 62
     0
 66
     1
 10
0
 20
0
 30
0.0
 40
0.709
 41
0.709
  0
VERTEX
  8
0
 10
10.4465
 20
6.56728
 30
0.0
 40
0.00984722
 41
0.00984722
  0
VERTEX
  8
0
 10
10.4071
 20
6.63547
 30
0.0
 40
0.00984722
 41
0.00984722
  0
SEQEND
 8
0
  0
POLYLINE
  8
0
 62
     0
 66
     1
 10
0
 20
0
 30
0.0
 40
0.709
 41
0.709
  0
VERTEX
  8
0
 10
9.94612
 20
5.859
 30
0.0
 40
0.00984722
 41
0.00984722
  0
VERTEX
  8
0
 10
10.6739
 20
6.08849
 30
0.0
 40
0.00984722
 41
0.00984722
  0
SEQEND
 8
0
  0
POLYLINE
  8
0
 62
     0
 66
     1
 10
0
 20
0
 30
0.0
 40
0.709
 41
0.709
  0
VERTEX
  8
0
 10
10.1113
 20
5.57297
 30
0.0
 40
0.00984722
 41
0.00984722
  0
VERTEX
  8
0
 10
9.94612
 20
5.859
 30
0.0
 40
0.00984722
 41
0.00984722
  0
SEQEND
 8
0
  0
POLYLINE
  8
0
 62
     0
 66
     1
 10
0
 20
0
 30
0.0
 40
0.709
 41
0.709
  0
VERTEX
  8
0
 10
10.1113
 20
5.57297
 30
0.0
 40
0.00984722
 41
0.00984722
  0
VERTEX
  8
0
 10
10.6739
 20
6.08849
 30
0.0
 40
0.00984722
 41
0.00984722
  0
SEQEND
 8
0
  0
POLYLINE
  8
0
 62
     0
 66
     1
 10
0
 20
0
 30
0.0
 40
0.709
 41
0.709
  0
VERTEX
  8
0
 10
10.4858
 20
6.49908
 30
0.0
 40
0.00984722
 41
0.00984722
  0
VERTEX
  8
0
 10
9.79747
 20
6.11649
 30
0.0
 40
0.00984722
 41
0.00984722
  0
SEQEND
 8
0
  0
POLYLINE
  8
0
 62
     0
 66
     1
 10
0
 20
0
 30
0.0
 40
0.709
 41
0.709
  0
VERTEX
  8
0
 10
9.83686
 20
6.04829
 30
0.0
 40
0.00984722
 41
0.00984722
  0
VERTEX
  8
0
 10
9.79747
 20
6.11649
 30
0.0
 40
0.00984722
 41
0.00984722
  0
SEQEND
 8
0
  0
POLYLINE
  8
0
 62
     0
 66
     1
 10
0
 20
0
 30
0.0
 40
0.709
 41
0.709
  0
VERTEX
  8
0
 10
10.5252
 20
6.43088
 30
0.0
 40
0.00984722
 41
0.00984722
  0
VERTEX
  8
0
 10
9.83686
 20
6.04829
 30
0.0
 40
0.00984722
 41
0.00984722
  0
SEQEND
 8
0
  0
POLYLINE
  8
0
 62
     0
 66
     1
 10
0
 20
0
 30
0.0
 40
0.709
 41
0.709
  0
VERTEX
  8
0
 10
10.5252
 20
6.43088
 30
0.0
 40
0.00984722
 41
0.00984722
  0
VERTEX
  8
0
 10
10.4858
 20
6.49908
 30
0.0
 40
0.00984722
 41
0.00984722
  0
SEQEND
 8
0
  0
POLYLINE
  8
0
 62
     0
 66
     1
 10
0
 20
0
 30
0.0
 40
0.709
 41
0.709
  0
VERTEX
  8
0
 10
17.3393
 20
13.2961
 30
0.0
 40
0.00984722
 41
0.00984722
  0
VERTEX
  8
0
 10
17.4075
 20
13.2568
 30
0.0
 40
0.00984722
 41
0.00984722
  0
SEQEND
 8
0
  0
POLYLINE
  8
0
 62
     0
 66
     1
 10
0
 20
0
 30
0.0
 40
0.709
 41
0.709
  0
VERTEX
  8
0
 10
17.3393
 20
13.2961
 30
0.0
 40
0.00984722
 41
0.00984722
  0
VERTEX
  8
0
 10
16.9456
 20
12.6142
 30
0.0
 40
0.00984722
 41
0.00984722
  0
SEQEND
 8
0
  0
POLYLINE
  8
0
 62
     0
 66
     1
 10
0
 20
0
 30
0.0
 40
0.709
 41
0.709
  0
VERTEX
  8
0
 10
16.9456
 20
12.6142
 30
0.0
 40
0.00984722
 41
0.00984722
  0
VERTEX
  8
0
 10
17.0137
 20
12.5749
 30
0.0
 40
0.00984722
 41
0.00984722
  0
SEQEND
 8
0
  0
POLYLINE
  8
0
 62
     0
 66
     1
 10
0
 20
0
 30
0.0
 40
0.709
 41
0.709
  0
VERTEX
  8
0
 10
16.9744
 20
12.5067
 30
0.0
 40
0.00984722
 41
0.00984722
  0
VERTEX
  8
0
 10
17.0137
 20
12.5749
 30
0.0
 40
0.00984722
 41
0.00984722
  0
SEQEND
 8
0
  0
POLYLINE
  8
0
 62
     0
 66
     1
 10
0
 20
0
 30
0.0
 40
0.709
 41
0.709
  0
VERTEX
  8
0
 10
16.7699
 20
12.6248
 30
0.0
 40
0.00984722
 41
0.00984722
  0
VERTEX
  8
0
 10
16.9744
 20
12.5067
 30
0.0
 40
0.00984722
 41
0.00984722
  0
SEQEND
 8
0
  0
POLYLINE
  8
0
 62
     0
 66
     1
 10
0
 20
0
 30
0.0
 40
0.709
 41
0.709
  0
VERTEX
  8
0
 10
16.7699
 20
12.6248
 30
0.0
 40
0.00984722
 41
0.00984722
  0
VERTEX
  8
0
 10
16.8092
 20
12.693
 30
0.0
 40
0.00984722
 41
0.00984722
  0
SEQEND
 8
0
  0
POLYLINE
  8
0
 62
     0
 66
     1
 10
0
 20
0
 30
0.0
 40
0.709
 41
0.709
  0
VERTEX
  8
0
 10
16.8092
 20
12.693
 30
0.0
 40
0.00984722
 41
0.00984722
  0
VERTEX
  8
0
 10
16.8774
 20
12.6536
 30
0.0
 40
0.00984722
 41
0.00984722
  0
SEQEND
 8
0
  0
POLYLINE
  8
0
 62
     0
 66
     1
 10
0
 20
0
 30
0.0
 40
0.709
 41
0.709
  0
VERTEX
  8
0
 10
17.2711
 20
13.3355
 30
0.0
 40
0.00984722
 41
0.00984722
  0
VERTEX
  8
0
 10
16.8774
 20
12.6536
 30
0.0
 40
0.00984722
 41
0.00984722
  0
SEQEND
 8
0
  0
POLYLINE
  8
0
 62
     0
 66
     1
 10
0
 20
0
 30
0.0
 40
0.709
 41
0.709
  0
VERTEX
  8
0
 10
17.2029
 20
13.3749
 30
0.0
 40
0.00984722
 41
0.00984722
  0
VERTEX
  8
0
 10
17.2711
 20
13.3355
 30
0.0
 40
0.00984722
 41
0.00984722
  0
SEQEND
 8
0
  0
POLYLINE
  8
0
 62
     0
 66
     1
 10
0
 20
0
 30
0.0
 40
0.709
 41
0.709
  0
VERTEX
  8
0
 10
17.2422
 20
13.4431
 30
0.0
 40
0.00984722
 41
0.00984722
  0
VERTEX
  8
0
 10
17.2029
 20
13.3749
 30
0.0
 40
0.00984722
 41
0.00984722
  0
SEQEND
 8
0
  0
POLYLINE
  8
0
 62
     0
 66
     1
 10
0
 20
0
 30
0.0
 40
0.709
 41
0.709
  0
VERTEX
  8
0
 10
17.2422
 20
13.4431
 30
0.0
 40
0.00984722
 41
0.00984722
  0
VERTEX
  8
0
 10
17.4468
 20
13.3249
 30
0.0
 40
0.00984722
 41
0.00984722
  0
SEQEND
 8
0
  0
POLYLINE
  8
0
 62
     0
 66
     1
 10
0
 20
0
 30
0.0
 40
0.709
 41
0.709
  0
VERTEX
  8
0
 10
17.4468
 20
13.3249
 30
0.0
 40
0.00984722
 41
0.00984722
  0
VERTEX
  8
0
 10
17.4075
 20
13.2568
 30
0.0
 40
0.00984722
 41
0.00984722
  0
SEQEND
 8
0
  0
POLYLINE
  8
0
 62
     0
 66
     1
 10
0
 20
0
 30
0.0
 40
0.709
 41
0.709
  0
VERTEX
  8
0
 10
19.2669
 20
11.3685
 30
0.0
 40
0.00984722
 41
0.00984722
  0
VERTEX
  8
0
 10
19.3063
 20
11.3003
 30
0.0
 40
0.00984722
 41
0.00984722
  0
SEQEND
 8
0
  0
POLYLINE
  8
0
 62
     0
 66
     1
 10
0
 20
0
 30
0.0
 40
0.709
 41
0.709
  0
VERTEX
  8
0
 10
19.2669
 20
11.3685
 30
0.0
 40
0.00984722
 41
0.00984722
  0
VERTEX
  8
0
 10
18.585
 20
10.9748
 30
0.0
 40
0.00984722
 41
0.00984722
  0
SEQEND
 8
0
  0
POLYLINE
  8
0
 62
     0
 66
     1
 10
0
 20
0
 30
0.0
 40
0.709
 41
0.709
  0
VERTEX
  8
0
 10
18.585
 20
10.9748
 30
0.0
 40
0.00984722
 41
0.00984722
  0
VERTEX
  8
0
 10
18.6244
 20
10.9066
 30
0.0
 40
0.00984722
 41
0.00984722
  0
SEQEND
 8
0
  0
POLYLINE
  8
0
 62
     0
 66
     1
 10
0
 20
0
 30
0.0
 40
0.709
 41
0.709
  0
VERTEX
  8
0
 10
19.3063
 20
11.3003
 30
0.0
 40
0.00984722
 41
0.00984722
  0
VERTEX
  8
0
 10
18.6244
 20
10.9066
 30
0.0
 40
0.00984722
 41
0.00984722
  0
SEQEND
 8
0
  0
POLYLINE
  8
0
 62
     0
 66
     1
 10
0
 20
0
 30
0.0
 40
0.709
 41
0.709
  0
VERTEX
  8
0
 10
19.2564
 20
11.5442
 30
0.0
 40
0.00984722
 41
0.00984722
  0
VERTEX
  8
0
 10
19.4532
 20
11.2033
 30
0.0
 40
0.00984722
 41
0.00984722
  0
SEQEND
 8
0
  0
POLYLINE
  8
0
 62
     0
 66
     1
 10
0
 20
0
 30
0.0
 40
0.709
 41
0.709
  0
VERTEX
  8
0
 10
19.4532
 20
11.2033
 30
0.0
 40
0.00984722
 41
0.00984722
  0
VERTEX
  8
0
 10
19.385
 20
11.1639
 30
0.0
 40
0.00984722
 41
0.00984722
  0
SEQEND
 8
0
  0
POLYLINE
  8
0
 62
     0
 66
     1
 10
0
 20
0
 30
0.0
 40
0.709
 41
0.709
  0
VERTEX
  8
0
 10
19.3457
 20
11.2321
 30
0.0
 40
0.00984722
 41
0.00984722
  0
VERTEX
  8
0
 10
19.385
 20
11.1639
 30
0.0
 40
0.00984722
 41
0.00984722
  0
SEQEND
 8
0
  0
POLYLINE
  8
0
 62
     0
 66
     1
 10
0
 20
0
 30
0.0
 40
0.709
 41
0.709
  0
VERTEX
  8
0
 10
19.3457
 20
11.2321
 30
0.0
 40
0.00984722
 41
0.00984722
  0
VERTEX
  8
0
 10
18.6638
 20
10.8384
 30
0.0
 40
0.00984722
 41
0.00984722
  0
SEQEND
 8
0
  0
POLYLINE
  8
0
 62
     0
 66
     1
 10
0
 20
0
 30
0.0
 40
0.709
 41
0.709
  0
VERTEX
  8
0
 10
18.6638
 20
10.8384
 30
0.0
 40
0.00984722
 41
0.00984722
  0
VERTEX
  8
0
 10
18.7032
 20
10.7702
 30
0.0
 40
0.00984722
 41
0.00984722
  0
SEQEND
 8
0
  0
POLYLINE
  8
0
 62
     0
 66
     1
 10
0
 20
0
 30
0.0
 40
0.709
 41
0.709
  0
VERTEX
  8
0
 10
18.6349
 20
10.7308
 30
0.0
 40
0.00984722
 41
0.00984722
  0
VERTEX
  8
0
 10
18.7032
 20
10.7702
 30
0.0
 40
0.00984722
 41
0.00984722
  0
SEQEND
 8
0
  0
POLYLINE
  8
0
 62
     0
 66
     1
 10
0
 20
0
 30
0.0
 40
0.709
 41
0.709
  0
VERTEX
  8
0
 10
18.4381
 20
11.0718
 30
0.0
 40
0.00984722
 41
0.00984722
  0
VERTEX
  8
0
 10
18.6349
 20
10.7308
 30
0.0
 40
0.00984722
 41
0.00984722
  0
SEQEND
 8
0
  0
POLYLINE
  8
0
 62
     0
 66
     1
 10
0
 20
0
 30
0.0
 40
0.709
 41
0.709
  0
VERTEX
  8
0
 10
18.4381
 20
11.0718
 30
0.0
 40
0.00984722
 41
0.00984722
  0
VERTEX
  8
0
 10
18.5062
 20
11.1112
 30
0.0
 40
0.00984722
 41
0.00984722
  0
SEQEND
 8
0
  0
POLYLINE
  8
0
 62
     0
 66
     1
 10
0
 20
0
 30
0.0
 40
0.709
 41
0.709
  0
VERTEX
  8
0
 10
18.5062
 20
11.1112
 30
0.0
 40
0.00984722
 41
0.00984722
  0
VERTEX
  8
0
 10
18.5457
 20
11.043
 30
0.0
 40
0.00984722
 41
0.00984722
  0
SEQEND
 8
0
  0
POLYLINE
  8
0
 62
     0
 66
     1
 10
0
 20
0
 30
0.0
 40
0.709
 41
0.709
  0
VERTEX
  8
0
 10
19.2275
 20
11.4367
 30
0.0
 40
0.00984722
 41
0.00984722
  0
VERTEX
  8
0
 10
18.5457
 20
11.043
 30
0.0
 40
0.00984722
 41
0.00984722
  0
SEQEND
 8
0
  0
POLYLINE
  8
0
 62
     0
 66
     1
 10
0
 20
0
 30
0.0
 40
0.709
 41
0.709
  0
VERTEX
  8
0
 10
19.1882
 20
11.5048
 30
0.0
 40
0.00984722
 41
0.00984722
  0
VERTEX
  8
0
 10
19.2275
 20
11.4367
 30
0.0
 40
0.00984722
 41
0.00984722
  0
SEQEND
 8
0
  0
POLYLINE
  8
0
 62
     0
 66
     1
 10
0
 20
0
 30
0.0
 40
0.709
 41
0.709
  0
VERTEX
  8
0
 10
19.2564
 20
11.5442
 30
0.0
 40
0.00984722
 41
0.00984722
  0
VERTEX
  8
0
 10
19.1882
 20
11.5048
 30
0.0
 40
0.00984722
 41
0.00984722
  0
SEQEND
 8
0
  0
POLYLINE
  8
0
 62
     0
 66
     1
 10
0
 20
0
 30
0.0
 40
0.709
 41
0.709
  0
VERTEX
  8
0
 10
19.2244
 20
8.77522
 30
0.0
 40
0.00984722
 41
0.00984722
  0
VERTEX
  8
0
 10
19.2244
 20
8.6965
 30
0.0
 40
0.00984722
 41
0.00984722
  0
SEQEND
 8
0
  0
POLYLINE
  8
0
 62
     0
 66
     1
 10
0
 20
0
 30
0.0
 40
0.709
 41
0.709
  0
VERTEX
  8
0
 10
19.2244
 20
8.6965
 30
0.0
 40
0.00984722
 41
0.00984722
  0
VERTEX
  8
0
 10
20.0118
 20
8.6965
 30
0.0
 40
0.00984722
 41
0.00984722
  0
SEQEND
 8
0
  0
POLYLINE
  8
0
 62
     0
 66
     1
 10
0
 20
0
 30
0.0
 40
0.709
 41
0.709
  0
VERTEX
  8
0
 10
20.0118
 20
8.77522
 30
0.0
 40
0.00984722
 41
0.00984722
  0
VERTEX
  8
0
 10
20.0118
 20
8.6965
 30
0.0
 40
0.00984722
 41
0.00984722
  0
SEQEND
 8
0
  0
POLYLINE
  8
0
 62
     0
 66
     1
 10
0
 20
0
 30
0.0
 40
0.709
 41
0.709
  0
VERTEX
  8
0
 10
19.2244
 20
8.77522
 30
0.0
 40
0.00984722
 41
0.00984722
  0
VERTEX
  8
0
 10
20.0118
 20
8.77522
 30
0.0
 40
0.00984722
 41
0.00984722
  0
SEQEND
 8
0
  0
POLYLINE
  8
0
 62
     0
 66
     1
 10
0
 20
0
 30
0.0
 40
0.709
 41
0.709
  0
VERTEX
  8
0
 10
19.2244
 20
8.61778
 30
0.0
 40
0.00984722
 41
0.00984722
  0
VERTEX
  8
0
 10
19.2244
 20
8.53901
 30
0.0
 40
0.00984722
 41
0.00984722
  0
SEQEND
 8
0
  0
POLYLINE
  8
0
 62
     0
 66
     1
 10
0
 20
0
 30
0.0
 40
0.709
 41
0.709
  0
VERTEX
  8
0
 10
19.2244
 20
8.53901
 30
0.0
 40
0.00984722
 41
0.00984722
  0
VERTEX
  8
0
 10
20.0118
 20
8.53901
 30
0.0
 40
0.00984722
 41
0.00984722
  0
SEQEND
 8
0
  0
POLYLINE
  8
0
 62
     0
 66
     1
 10
0
 20
0
 30
0.0
 40
0.709
 41
0.709
  0
VERTEX
  8
0
 10
20.0118
 20
8.61778
 30
0.0
 40
0.00984722
 41
0.00984722
  0
VERTEX
  8
0
 10
20.0118
 20
8.53901
 30
0.0
 40
0.00984722
 41
0.00984722
  0
SEQEND
 8
0
  0
POLYLINE
  8
0
 62
     0
 66
     1
 10
0
 20
0
 30
0.0
 40
0.709
 41
0.709
  0
VERTEX
  8
0
 10
19.2244
 20
8.61778
 30
0.0
 40
0.00984722
 41
0.00984722
  0
VERTEX
  8
0
 10
20.0118
 20
8.61778
 30
0.0
 40
0.00984722
 41
0.00984722
  0
SEQEND
 8
0
  0
POLYLINE
  8
0
 62
     0
 66
     1
 10
0
 20
0
 30
0.0
 40
0.709
 41
0.709
  0
VERTEX
  8
0
 10
20.0906
 20
8.93272
 30
0.0
 40
0.00984722
 41
0.00984722
  0
VERTEX
  8
0
 10
20.0906
 20
8.38157
 30
0.0
 40
0.00984722
 41
0.00984722
  0
SEQEND
 8
0
  0
POLYLINE
  8
0
 62
     0
 66
     1
 10
0
 20
0
 30
0.0
 40
0.709
 41
0.709
  0
VERTEX
  8
0
 10
20.0118
 20
8.38157
 30
0.0
 40
0.00984722
 41
0.00984722
  0
VERTEX
  8
0
 10
20.0906
 20
8.38157
 30
0.0
 40
0.00984722
 41
0.00984722
  0
SEQEND
 8
0
  0
POLYLINE
  8
0
 62
     0
 66
     1
 10
0
 20
0
 30
0.0
 40
0.709
 41
0.709
  0
VERTEX
  8
0
 10
20.0118
 20
8.46029
 30
0.0
 40
0.00984722
 41
0.00984722
  0
VERTEX
  8
0
 10
20.0118
 20
8.38157
 30
0.0
 40
0.00984722
 41
0.00984722
  0
SEQEND
 8
0
  0
POLYLINE
  8
0
 62
     0
 66
     1
 10
0
 20
0
 30
0.0
 40
0.709
 41
0.709
  0
VERTEX
  8
0
 10
19.2244
 20
8.46029
 30
0.0
 40
0.00984722
 41
0.00984722
  0
VERTEX
  8
0
 10
20.0118
 20
8.46029
 30
0.0
 40
0.00984722
 41
0.00984722
  0
SEQEND
 8
0
  0
POLYLINE
  8
0
 62
     0
 66
     1
 10
0
 20
0
 30
0.0
 40
0.709
 41
0.709
  0
VERTEX
  8
0
 10
19.2244
 20
8.46029
 30
0.0
 40
0.00984722
 41
0.00984722
  0
VERTEX
  8
0
 10
19.2244
 20
8.38157
 30
0.0
 40
0.00984722
 41
0.00984722
  0
SEQEND
 8
0
  0
POLYLINE
  8
0
 62
     0
 66
     1
 10
0
 20
0
 30
0.0
 40
0.709
 41
0.709
  0
VERTEX
  8
0
 10
19.2244
 20
8.38157
 30
0.0
 40
0.00984722
 41
0.00984722
  0
VERTEX
  8
0
 10
19.1456
 20
8.38157
 30
0.0
 40
0.00984722
 41
0.00984722
  0
SEQEND
 8
0
  0
POLYLINE
  8
0
 62
     0
 66
     1
 10
0
 20
0
 30
0.0
 40
0.709
 41
0.709
  0
VERTEX
  8
0
 10
19.1456
 20
8.90283
 30
0.0
 40
0.00984722
 41
0.00984722
  0
VERTEX
  8
0
 10
19.1456
 20
8.38157
 30
0.0
 40
0.00984722
 41
0.00984722
  0
SEQEND
 8
0
  0
POLYLINE
  8
0
 62
     0
 66
     1
 10
0
 20
0
 30
0.0
 40
0.709
 41
0.709
  0
VERTEX
  8
0
 10
19.2244
 20
8.90283
 30
0.0
 40
0.00984722
 41
0.00984722
  0
VERTEX
  8
0
 10
19.1456
 20
8.90283
 30
0.0
 40
0.00984722
 41
0.00984722
  0
SEQEND
 8
0
  0
POLYLINE
  8
0
 62
     0
 66
     1
 10
0
 20
0
 30
0.0
 40
0.709
 41
0.709
  0
VERTEX
  8
0
 10
19.2244
 20
8.90283
 30
0.0
 40
0.00984722
 41
0.00984722
  0
VERTEX
  8
0
 10
19.2244
 20
8.854
 30
0.0
 40
0.00984722
 41
0.00984722
  0
SEQEND
 8
0
  0
POLYLINE
  8
0
 62
     0
 66
     1
 10
0
 20
0
 30
0.0
 40
0.709
 41
0.709
  0
VERTEX
  8
0
 10
19.2244
 20
8.854
 30
0.0
 40
0.00984722
 41
0.00984722
  0
VERTEX
  8
0
 10
20.0118
 20
8.854
 30
0.0
 40
0.00984722
 41
0.00984722
  0
SEQEND
 8
0
  0
POLYLINE
  8
0
 62
     0
 66
     1
 10
0
 20
0
 30
0.0
 40
0.709
 41
0.709
  0
VERTEX
  8
0
 10
20.0118
 20
8.93272
 30
0.0
 40
0.00984722
 41
0.00984722
  0
VERTEX
  8
0
 10
20.0118
 20
8.854
 30
0.0
 40
0.00984722
 41
0.00984722
  0
SEQEND
 8
0
  0
POLYLINE
  8
0
 62
     0
 66
     1
 10
0
 20
0
 30
0.0
 40
0.709
 41
0.709
  0
VERTEX
  8
0
 10
20.0118
 20
8.93272
 30
0.0
 40
0.00984722
 41
0.00984722
  0
VERTEX
  8
0
 10
20.0906
 20
8.93272
 30
0.0
 40
0.00984722
 41
0.00984722
  0
SEQEND
 8
0
  0
POLYLINE
  8
0
 62
     0
 66
     1
 10
0
 20
0
 30
0.0
 40
0.709
 41
0.709
  0
VERTEX
  8
0
 10
18.7142
 20
6.50444
 30
0.0
 40
0.00984722
 41
0.00984722
  0
VERTEX
  8
0
 10
19.3961
 20
6.11074
 30
0.0
 40
0.00984722
 41
0.00984722
  0
SEQEND
 8
0
  0
POLYLINE
  8
0
 62
     0
 66
     1
 10
0
 20
0
 30
0.0
 40
0.709
 41
0.709
  0
VERTEX
  8
0
 10
18.7142
 20
6.50444
 30
0.0
 40
0.00984722
 41
0.00984722
  0
VERTEX
  8
0
 10
18.6749
 20
6.43625
 30
0.0
 40
0.00984722
 41
0.00984722
  0
SEQEND
 8
0
  0
POLYLINE
  8
0
 62
     0
 66
     1
 10
0
 20
0
 30
0.0
 40
0.709
 41
0.709
  0
VERTEX
  8
0
 10
18.6749
 20
6.43625
 30
0.0
 40
0.00984722
 41
0.00984722
  0
VERTEX
  8
0
 10
19.3567
 20
6.04254
 30
0.0
 40
0.00984722
 41
0.00984722
  0
SEQEND
 8
0
  0
POLYLINE
  8
0
 62
     0
 66
     1
 10
0
 20
0
 30
0.0
 40
0.709
 41
0.709
  0
VERTEX
  8
0
 10
19.3961
 20
6.11074
 30
0.0
 40
0.00984722
 41
0.00984722
  0
VERTEX
  8
0
 10
19.3567
 20
6.04254
 30
0.0
 40
0.00984722
 41
0.00984722
  0
SEQEND
 8
0
  0
POLYLINE
  8
0
 62
     0
 66
     1
 10
0
 20
0
 30
0.0
 40
0.709
 41
0.709
  0
VERTEX
  8
0
 10
18.6354
 20
6.36806
 30
0.0
 40
0.00984722
 41
0.00984722
  0
VERTEX
  8
0
 10
19.3174
 20
5.97433
 30
0.0
 40
0.00984722
 41
0.00984722
  0
SEQEND
 8
0
  0
POLYLINE
  8
0
 62
     0
 66
     1
 10
0
 20
0
 30
0.0
 40
0.709
 41
0.709
  0
VERTEX
  8
0
 10
18.6354
 20
6.36806
 30
0.0
 40
0.00984722
 41
0.00984722
  0
VERTEX
  8
0
 10
18.5961
 20
6.29986
 30
0.0
 40
0.00984722
 41
0.00984722
  0
SEQEND
 8
0
  0
POLYLINE
  8
0
 62
     0
 66
     1
 10
0
 20
0
 30
0.0
 40
0.709
 41
0.709
  0
VERTEX
  8
0
 10
18.5961
 20
6.29986
 30
0.0
 40
0.00984722
 41
0.00984722
  0
VERTEX
  8
0
 10
19.2781
 20
5.90614
 30
0.0
 40
0.00984722
 41
0.00984722
  0
SEQEND
 8
0
  0
POLYLINE
  8
0
 62
     0
 66
     1
 10
0
 20
0
 30
0.0
 40
0.709
 41
0.709
  0
VERTEX
  8
0
 10
19.3174
 20
5.97433
 30
0.0
 40
0.00984722
 41
0.00984722
  0
VERTEX
  8
0
 10
19.2781
 20
5.90614
 30
0.0
 40
0.00984722
 41
0.00984722
  0
SEQEND
 8
0
  0
POLYLINE
  8
0
 62
     0
 66
     1
 10
0
 20
0
 30
0.0
 40
0.709
 41
0.709
  0
VERTEX
  8
0
 10
18.5567
 20
6.23167
 30
0.0
 40
0.00984722
 41
0.00984722
  0
VERTEX
  8
0
 10
19.2386
 20
5.83794
 30
0.0
 40
0.00984722
 41
0.00984722
  0
SEQEND
 8
0
  0
POLYLINE
  8
0
 62
     0
 66
     1
 10
0
 20
0
 30
0.0
 40
0.709
 41
0.709
  0
VERTEX
  8
0
 10
18.5567
 20
6.23167
 30
0.0
 40
0.00984722
 41
0.00984722
  0
VERTEX
  8
0
 10
18.5174
 20
6.16347
 30
0.0
 40
0.00984722
 41
0.00984722
  0
SEQEND
 8
0
  0
POLYLINE
  8
0
 62
     0
 66
     1
 10
0
 20
0
 30
0.0
 40
0.709
 41
0.709
  0
VERTEX
  8
0
 10
18.5174
 20
6.16347
 30
0.0
 40
0.00984722
 41
0.00984722
  0
VERTEX
  8
0
 10
19.1993
 20
5.76975
 30
0.0
 40
0.00984722
 41
0.00984722
  0
SEQEND
 8
0
  0
POLYLINE
  8
0
 62
     0
 66
     1
 10
0
 20
0
 30
0.0
 40
0.709
 41
0.709
  0
VERTEX
  8
0
 10
19.2386
 20
5.83794
 30
0.0
 40
0.00984722
 41
0.00984722
  0
VERTEX
  8
0
 10
19.1993
 20
5.76975
 30
0.0
 40
0.00984722
 41
0.00984722
  0
SEQEND
 8
0
  0
POLYLINE
  8
0
 62
     0
 66
     1
 10
0
 20
0
 30
0.0
 40
0.709
 41
0.709
  0
VERTEX
  8
0
 10
19.5431
 20
6.20774
 30
0.0
 40
0.00984722
 41
0.00984722
  0
VERTEX
  8
0
 10
19.1887
 20
5.59403
 30
0.0
 40
0.00984722
 41
0.00984722
  0
SEQEND
 8
0
  0
POLYLINE
  8
0
 62
     0
 66
     1
 10
0
 20
0
 30
0.0
 40
0.709
 41
0.709
  0
VERTEX
  8
0
 10
19.1206
 20
5.6334
 30
0.0
 40
0.00984722
 41
0.00984722
  0
VERTEX
  8
0
 10
19.1887
 20
5.59403
 30
0.0
 40
0.00984722
 41
0.00984722
  0
SEQEND
 8
0
  0
POLYLINE
  8
0
 62
     0
 66
     1
 10
0
 20
0
 30
0.0
 40
0.709
 41
0.709
  0
VERTEX
  8
0
 10
19.1599
 20
5.70156
 30
0.0
 40
0.00984722
 41
0.00984722
  0
VERTEX
  8
0
 10
19.1206
 20
5.6334
 30
0.0
 40
0.00984722
 41
0.00984722
  0
SEQEND
 8
0
  0
POLYLINE
  8
0
 62
     0
 66
     1
 10
0
 20
0
 30
0.0
 40
0.709
 41
0.709
  0
VERTEX
  8
0
 10
18.4779
 20
6.09526
 30
0.0
 40
0.00984722
 41
0.00984722
  0
VERTEX
  8
0
 10
19.1599
 20
5.70156
 30
0.0
 40
0.00984722
 41
0.00984722
  0
SEQEND
 8
0
  0
POLYLINE
  8
0
 62
     0
 66
     1
 10
0
 20
0
 30
0.0
 40
0.709
 41
0.709
  0
VERTEX
  8
0
 10
18.4779
 20
6.09526
 30
0.0
 40
0.00984722
 41
0.00984722
  0
VERTEX
  8
0
 10
18.4386
 20
6.02707
 30
0.0
 40
0.00984722
 41
0.00984722
  0
SEQEND
 8
0
  0
POLYLINE
  8
0
 62
     0
 66
     1
 10
0
 20
0
 30
0.0
 40
0.709
 41
0.709
  0
VERTEX
  8
0
 10
18.4386
 20
6.02707
 30
0.0
 40
0.00984722
 41
0.00984722
  0
VERTEX
  8
0
 10
18.3704
 20
6.06646
 30
0.0
 40
0.00984722
 41
0.00984722
  0
SEQEND
 8
0
  0
POLYLINE
  8
0
 62
     0
 66
     1
 10
0
 20
0
 30
0.0
 40
0.709
 41
0.709
  0
VERTEX
  8
0
 10
18.7247
 20
6.68018
 30
0.0
 40
0.00984722
 41
0.00984722
  0
VERTEX
  8
0
 10
18.3704
 20
6.06646
 30
0.0
 40
0.00984722
 41
0.00984722
  0
SEQEND
 8
0
  0
POLYLINE
  8
0
 62
     0
 66
     1
 10
0
 20
0
 30
0.0
 40
0.709
 41
0.709
  0
VERTEX
  8
0
 10
18.7247
 20
6.68018
 30
0.0
 40
0.00984722
 41
0.00984722
  0
VERTEX
  8
0
 10
18.7929
 20
6.64079
 30
0.0
 40
0.00984722
 41
0.00984722
  0
SEQEND
 8
0
  0
POLYLINE
  8
0
 62
     0
 66
     1
 10
0
 20
0
 30
0.0
 40
0.709
 41
0.709
  0
VERTEX
  8
0
 10
18.7929
 20
6.64079
 30
0.0
 40
0.00984722
 41
0.00984722
  0
VERTEX
  8
0
 10
18.7535
 20
6.5726
 30
0.0
 40
0.00984722
 41
0.00984722
  0
SEQEND
 8
0
  0
POLYLINE
  8
0
 62
     0
 66
     1
 10
0
 20
0
 30
0.0
 40
0.709
 41
0.709
  0
VERTEX
  8
0
 10
18.7535
 20
6.5726
 30
0.0
 40
0.00984722
 41
0.00984722
  0
VERTEX
  8
0
 10
19.4356
 20
6.17893
 30
0.0
 40
0.00984722
 41
0.00984722
  0
SEQEND
 8
0
  0
POLYLINE
  8
0
 62
     0
 66
     1
 10
0
 20
0
 30
0.0
 40
0.709
 41
0.709
  0
VERTEX
  8
0
 10
19.4749
 20
6.24713
 30
0.0
 40
0.00984722
 41
0.00984722
  0
VERTEX
  8
0
 10
19.4356
 20
6.17893
 30
0.0
 40
0.00984722
 41
0.00984722
  0
SEQEND
 8
0
  0
POLYLINE
  8
0
 62
     0
 66
     1
 10
0
 20
0
 30
0.0
 40
0.709
 41
0.709
  0
VERTEX
  8
0
 10
19.5431
 20
6.20774
 30
0.0
 40
0.00984722
 41
0.00984722
  0
VERTEX
  8
0
 10
19.4749
 20
6.24713
 30
0.0
 40
0.00984722
 41
0.00984722
  0
SEQEND
 8
0
  0
POLYLINE
  8
0
 62
     0
 66
     1
 10
0
 20
0
 30
0.0
 40
0.709
 41
0.709
  0
VERTEX
  8
0
 10
9.54378
 20
8.6984
 30
0.0
 40
0.00984722
 41
0.00984722
  0
VERTEX
  8
0
 10
9.18511
 20
8.54758
 30
0.0
 40
0.00984722
 41
0.00984722
  0
SEQEND
 8
0
  0
POLYLINE
  8
0
 62
     0
 66
     1
 10
0
 20
0
 30
0.0
 40
0.709
 41
0.709
  0
VERTEX
  8
0
 10
9.54378
 20
8.6984
 30
0.0
 40
0.00984722
 41
0.00984722
  0
VERTEX
  8
0
 10
9.18511
 20
8.84918
 30
0.0
 40
0.00984722
 41
0.00984722
  0
SEQEND
 8
0
  0
POLYLINE
  8
0
 62
     0
 66
     1
 10
0
 20
0
 30
0.0
 40
0.709
 41
0.709
  0
VERTEX
  8
0
 10
9.18511
 20
8.84918
 30
0.0
 40
0.00984722
 41
0.00984722
  0
VERTEX
  8
0
 10
9.18511
 20
8.54758
 30
0.0
 40
0.00984722
 41
0.00984722
  0
SEQEND
 8
0
  0
POLYLINE
  8
0
 62
     0
 66
     1
 10
0
 20
0
 30
0.0
 40
0.709
 41
0.709
  0
VERTEX
  8
0
 10
9.18511
 20
8.3834
 30
0.0
 40
0.00984722
 41
0.00984722
  0
VERTEX
  8
0
 10
9.9725
 20
8.3834
 30
0.0
 40
0.00984722
 41
0.00984722
  0
SEQEND
 8
0
  0
POLYLINE
  8
0
 62
     0
 66
     1
 10
0
 20
0
 30
0.0
 40
0.709
 41
0.709
  0
VERTEX
  8
0
 10
9.9725
 20
8.46218
 30
0.0
 40
0.00984722
 41
0.00984722
  0
VERTEX
  8
0
 10
9.9725
 20
8.3834
 30
0.0
 40
0.00984722
 41
0.00984722
  0
SEQEND
 8
0
  0
POLYLINE
  8
0
 62
     0
 66
     1
 10
0
 20
0
 30
0.0
 40
0.709
 41
0.709
  0
VERTEX
  8
0
 10
9.57878
 20
8.62771
 30
0.0
 40
0.00984722
 41
0.00984722
  0
VERTEX
  8
0
 10
9.9725
 20
8.46218
 30
0.0
 40
0.00984722
 41
0.00984722
  0
SEQEND
 8
0
  0
POLYLINE
  8
0
 62
     0
 66
     1
 10
0
 20
0
 30
0.0
 40
0.709
 41
0.709
  0
VERTEX
  8
0
 10
9.57878
 20
8.62771
 30
0.0
 40
0.00984722
 41
0.00984722
  0
VERTEX
  8
0
 10
9.18511
 20
8.46218
 30
0.0
 40
0.00984722
 41
0.00984722
  0
SEQEND
 8
0
  0
POLYLINE
  8
0
 62
     0
 66
     1
 10
0
 20
0
 30
0.0
 40
0.709
 41
0.709
  0
VERTEX
  8
0
 10
9.18511
 20
8.46218
 30
0.0
 40
0.00984722
 41
0.00984722
  0
VERTEX
  8
0
 10
9.18511
 20
8.3834
 30
0.0
 40
0.00984722
 41
0.00984722
  0
SEQEND
 8
0
  0
POLYLINE
  8
0
 62
     0
 66
     1
 10
0
 20
0
 30
0.0
 40
0.709
 41
0.709
  0
VERTEX
  8
0
 10
9.10633
 20
9.01335
 30
0.0
 40
0.00984722
 41
0.00984722
  0
VERTEX
  8
0
 10
9.18511
 20
9.01335
 30
0.0
 40
0.00984722
 41
0.00984722
  0
SEQEND
 8
0
  0
POLYLINE
  8
0
 62
     0
 66
     1
 10
0
 20
0
 30
0.0
 40
0.709
 41
0.709
  0
VERTEX
  8
0
 10
9.18511
 20
9.01335
 30
0.0
 40
0.00984722
 41
0.00984722
  0
VERTEX
  8
0
 10
9.18511
 20
8.93463
 30
0.0
 40
0.00984722
 41
0.00984722
  0
SEQEND
 8
0
  0
POLYLINE
  8
0
 62
     0
 66
     1
 10
0
 20
0
 30
0.0
 40
0.709
 41
0.709
  0
VERTEX
  8
0
 10
9.18511
 20
8.93463
 30
0.0
 40
0.00984722
 41
0.00984722
  0
VERTEX
  8
0
 10
9.57878
 20
8.7691
 30
0.0
 40
0.00984722
 41
0.00984722
  0
SEQEND
 8
0
  0
POLYLINE
  8
0
 62
     0
 66
     1
 10
0
 20
0
 30
0.0
 40
0.709
 41
0.709
  0
VERTEX
  8
0
 10
9.9725
 20
8.93463
 30
0.0
 40
0.00984722
 41
0.00984722
  0
VERTEX
  8
0
 10
9.57878
 20
8.7691
 30
0.0
 40
0.00984722
 41
0.00984722
  0
SEQEND
 8
0
  0
POLYLINE
  8
0
 62
     0
 66
     1
 10
0
 20
0
 30
0.0
 40
0.709
 41
0.709
  0
VERTEX
  8
0
 10
9.9725
 20
9.01335
 30
0.0
 40
0.00984722
 41
0.00984722
  0
VERTEX
  8
0
 10
9.9725
 20
8.93463
 30
0.0
 40
0.00984722
 41
0.00984722
  0
SEQEND
 8
0
  0
POLYLINE
  8
0
 62
     0
 66
     1
 10
0
 20
0
 30
0.0
 40
0.709
 41
0.709
  0
VERTEX
  8
0
 10
10.0512
 20
9.01335
 30
0.0
 40
0.00984722
 41
0.00984722
  0
VERTEX
  8
0
 10
9.9725
 20
9.01335
 30
0.0
 40
0.00984722
 41
0.00984722
  0
SEQEND
 8
0
  0
POLYLINE
  8
0
 62
     0
 66
     1
 10
0
 20
0
 30
0.0
 40
0.709
 41
0.709
  0
VERTEX
  8
0
 10
10.0512
 20
9.01335
 30
0.0
 40
0.00984722
 41
0.00984722
  0
VERTEX
  8
0
 10
10.0512
 20
8.22597
 30
0.0
 40
0.00984722
 41
0.00984722
  0
SEQEND
 8
0
  0
POLYLINE
  8
0
 62
     0
 66
     1
 10
0
 20
0
 30
0.0
 40
0.709
 41
0.709
  0
VERTEX
  8
0
 10
9.9725
 20
8.22597
 30
0.0
 40
0.00984722
 41
0.00984722
  0
VERTEX
  8
0
 10
10.0512
 20
8.22597
 30
0.0
 40
0.00984722
 41
0.00984722
  0
SEQEND
 8
0
  0
POLYLINE
  8
0
 62
     0
 66
     1
 10
0
 20
0
 30
0.0
 40
0.709
 41
0.709
  0
VERTEX
  8
0
 10
9.9725
 20
8.30469
 30
0.0
 40
0.00984722
 41
0.00984722
  0
VERTEX
  8
0
 10
9.9725
 20
8.22597
 30
0.0
 40
0.00984722
 41
0.00984722
  0
SEQEND
 8
0
  0
POLYLINE
  8
0
 62
     0
 66
     1
 10
0
 20
0
 30
0.0
 40
0.709
 41
0.709
  0
VERTEX
  8
0
 10
9.18511
 20
8.30469
 30
0.0
 40
0.00984722
 41
0.00984722
  0
VERTEX
  8
0
 10
9.9725
 20
8.30469
 30
0.0
 40
0.00984722
 41
0.00984722
  0
SEQEND
 8
0
  0
POLYLINE
  8
0
 62
     0
 66
     1
 10
0
 20
0
 30
0.0
 40
0.709
 41
0.709
  0
VERTEX
  8
0
 10
9.18511
 20
8.30469
 30
0.0
 40
0.00984722
 41
0.00984722
  0
VERTEX
  8
0
 10
9.18511
 20
8.22597
 30
0.0
 40
0.00984722
 41
0.00984722
  0
SEQEND
 8
0
  0
POLYLINE
  8
0
 62
     0
 66
     1
 10
0
 20
0
 30
0.0
 40
0.709
 41
0.709
  0
VERTEX
  8
0
 10
9.10633
 20
8.22597
 30
0.0
 40
0.00984722
 41
0.00984722
  0
VERTEX
  8
0
 10
9.18511
 20
8.22597
 30
0.0
 40
0.00984722
 41
0.00984722
  0
SEQEND
 8
0
  0
POLYLINE
  8
0
 62
     0
 66
     1
 10
0
 20
0
 30
0.0
 40
0.709
 41
0.709
  0
VERTEX
  8
0
 10
9.10633
 20
9.01335
 30
0.0
 40
0.00984722
 41
0.00984722
  0
VERTEX
  8
0
 10
9.10633
 20
8.22597
 30
0.0
 40
0.00984722
 41
0.00984722
  0
SEQEND
 8
0
  0
POLYLINE
  8
0
 62
     0
 66
     1
 10
0
 20
0
 30
0.0
 40
0.709
 41
0.709
  0
VERTEX
  8
0
 10
9.61382
 20
8.69174
 30
0.0
 40
0.00984722
 41
0.00984722
  0
VERTEX
  8
0
 10
9.9725
 20
8.8425
 30
0.0
 40
0.00984722
 41
0.00984722
  0
SEQEND
 8
0
  0
POLYLINE
  8
0
 62
     0
 66
     1
 10
0
 20
0
 30
0.0
 40
0.709
 41
0.709
  0
VERTEX
  8
0
 10
9.61382
 20
8.69174
 30
0.0
 40
0.00984722
 41
0.00984722
  0
VERTEX
  8
0
 10
9.9725
 20
8.5409
 30
0.0
 40
0.00984722
 41
0.00984722
  0
SEQEND
 8
0
  0
POLYLINE
  8
0
 62
     0
 66
     1
 10
0
 20
0
 30
0.0
 40
0.709
 41
0.709
  0
VERTEX
  8
0
 10
9.9725
 20
8.8425
 30
0.0
 40
0.00984722
 41
0.00984722
  0
VERTEX
  8
0
 10
9.9725
 20
8.5409
 30
0.0
 40
0.00984722
 41
0.00984722
  0
SEQEND
 8
0
  0
POLYLINE
  8
0
 62
     0
 66
     1
 10
0
 20
0
 30
0.0
 40
0.709
 41
0.709
  0
VERTEX
  8
0
 10
17.1704
 20
3.86176
 30
0.0
 40
0.00984722
 41
0.00984722
  0
VERTEX
  8
0
 10
16.9543
 20
4.54725
 30
0.0
 40
0.00984722
 41
0.00984722
  0
SEQEND
 8
0
  0
POLYLINE
  8
0
 62
     0
 66
     1
 10
0
 20
0
 30
0.0
 40
0.709
 41
0.709
  0
VERTEX
  8
0
 10
17.4399
 20
4.01736
 30
0.0
 40
0.00984722
 41
0.00984722
  0
VERTEX
  8
0
 10
17.1704
 20
3.86176
 30
0.0
 40
0.00984722
 41
0.00984722
  0
SEQEND
 8
0
  0
POLYLINE
  8
0
 62
     0
 66
     1
 10
0
 20
0
 30
0.0
 40
0.709
 41
0.709
  0
VERTEX
  8
0
 10
17.4399
 20
4.01736
 30
0.0
 40
0.00984722
 41
0.00984722
  0
VERTEX
  8
0
 10
16.9543
 20
4.54725
 30
0.0
 40
0.00984722
 41
0.00984722
  0
SEQEND
 8
0
  0
POLYLINE
  8
0
 62
     0
 66
     1
 10
0
 20
0
 30
0.0
 40
0.709
 41
0.709
  0
VERTEX
  8
0
 10
17.1006
 20
3.82146
 30
0.0
 40
0.00984722
 41
0.00984722
  0
VERTEX
  8
0
 10
17.0324
 20
3.78207
 30
0.0
 40
0.00984722
 41
0.00984722
  0
SEQEND
 8
0
  0
POLYLINE
  8
0
 62
     0
 66
     1
 10
0
 20
0
 30
0.0
 40
0.709
 41
0.709
  0
VERTEX
  8
0
 10
17.1006
 20
3.82146
 30
0.0
 40
0.00984722
 41
0.00984722
  0
VERTEX
  8
0
 10
16.8581
 20
4.59065
 30
0.0
 40
0.00984722
 41
0.00984722
  0
SEQEND
 8
0
  0
POLYLINE
  8
0
 62
     0
 66
     1
 10
0
 20
0
 30
0.0
 40
0.709
 41
0.709
  0
VERTEX
  8
0
 10
16.8581
 20
4.59065
 30
0.0
 40
0.00984722
 41
0.00984722
  0
VERTEX
  8
0
 10
16.6387
 20
4.46397
 30
0.0
 40
0.00984722
 41
0.00984722
  0
SEQEND
 8
0
  0
POLYLINE
  8
0
 62
     0
 66
     1
 10
0
 20
0
 30
0.0
 40
0.709
 41
0.709
  0
VERTEX
  8
0
 10
16.5993
 20
4.53217
 30
0.0
 40
0.00984722
 41
0.00984722
  0
VERTEX
  8
0
 10
16.6387
 20
4.46397
 30
0.0
 40
0.00984722
 41
0.00984722
  0
SEQEND
 8
0
  0
POLYLINE
  8
0
 62
     0
 66
     1
 10
0
 20
0
 30
0.0
 40
0.709
 41
0.709
  0
VERTEX
  8
0
 10
17.1449
 20
4.84711
 30
0.0
 40
0.00984722
 41
0.00984722
  0
VERTEX
  8
0
 10
16.5993
 20
4.53217
 30
0.0
 40
0.00984722
 41
0.00984722
  0
SEQEND
 8
0
  0
POLYLINE
  8
0
 62
     0
 66
     1
 10
0
 20
0
 30
0.0
 40
0.709
 41
0.709
  0
VERTEX
  8
0
 10
17.1449
 20
4.84711
 30
0.0
 40
0.00984722
 41
0.00984722
  0
VERTEX
  8
0
 10
17.1843
 20
4.77897
 30
0.0
 40
0.00984722
 41
0.00984722
  0
SEQEND
 8
0
  0
POLYLINE
  8
0
 62
     0
 66
     1
 10
0
 20
0
 30
0.0
 40
0.709
 41
0.709
  0
VERTEX
  8
0
 10
17.1843
 20
4.77897
 30
0.0
 40
0.00984722
 41
0.00984722
  0
VERTEX
  8
0
 10
16.9649
 20
4.65229
 30
0.0
 40
0.00984722
 41
0.00984722
  0
SEQEND
 8
0
  0
POLYLINE
  8
0
 62
     0
 66
     1
 10
0
 20
0
 30
0.0
 40
0.709
 41
0.709
  0
VERTEX
  8
0
 10
17.5097
 20
4.05767
 30
0.0
 40
0.00984722
 41
0.00984722
  0
VERTEX
  8
0
 10
16.9649
 20
4.65229
 30
0.0
 40
0.00984722
 41
0.00984722
  0
SEQEND
 8
0
  0
POLYLINE
  8
0
 62
     0
 66
     1
 10
0
 20
0
 30
0.0
 40
0.709
 41
0.709
  0
VERTEX
  8
0
 10
17.5779
 20
4.09706
 30
0.0
 40
0.00984722
 41
0.00984722
  0
VERTEX
  8
0
 10
17.5097
 20
4.05767
 30
0.0
 40
0.00984722
 41
0.00984722
  0
SEQEND
 8
0
  0
POLYLINE
  8
0
 62
     0
 66
     1
 10
0
 20
0
 30
0.0
 40
0.709
 41
0.709
  0
VERTEX
  8
0
 10
17.5779
 20
4.09706
 30
0.0
 40
0.00984722
 41
0.00984722
  0
VERTEX
  8
0
 10
17.6174
 20
4.02886
 30
0.0
 40
0.00984722
 41
0.00984722
  0
SEQEND
 8
0
  0
POLYLINE
  8
0
 62
     0
 66
     1
 10
0
 20
0
 30
0.0
 40
0.709
 41
0.709
  0
VERTEX
  8
0
 10
17.6174
 20
4.02886
 30
0.0
 40
0.00984722
 41
0.00984722
  0
VERTEX
  8
0
 10
17.0718
 20
3.71386
 30
0.0
 40
0.00984722
 41
0.00984722
  0
SEQEND
 8
0
  0
POLYLINE
  8
0
 62
     0
 66
     1
 10
0
 20
0
 30
0.0
 40
0.709
 41
0.709
  0
VERTEX
  8
0
 10
17.0324
 20
3.78207
 30
0.0
 40
0.00984722
 41
0.00984722
  0
VERTEX
  8
0
 10
17.0718
 20
3.71386
 30
0.0
 40
0.00984722
 41
0.00984722
  0
SEQEND
 8
0
  0
POLYLINE
  8
0
 62
     0
 66
     1
 10
0
 20
0
 30
0.0
 40
0.709
 41
0.709
  0
VERTEX
  8
0
 10
14.2047
 20
3.21431
 30
0.0
 40
0.00984722
 41
0.00984722
  0
VERTEX
  8
0
 10
14.2047
 20
3.13558
 30
0.0
 40
0.00984722
 41
0.00984722
  0
SEQEND
 8
0
  0
POLYLINE
  8
0
 62
     0
 66
     1
 10
0
 20
0
 30
0.0
 40
0.709
 41
0.709
  0
VERTEX
  8
0
 10
14.2835
 20
3.21431
 30
0.0
 40
0.00984722
 41
0.00984722
  0
VERTEX
  8
0
 10
14.2047
 20
3.21431
 30
0.0
 40
0.00984722
 41
0.00984722
  0
SEQEND
 8
0
  0
POLYLINE
  8
0
 62
     0
 66
     1
 10
0
 20
0
 30
0.0
 40
0.709
 41
0.709
  0
VERTEX
  8
0
 10
14.2835
 20
4.00168
 30
0.0
 40
0.00984722
 41
0.00984722
  0
VERTEX
  8
0
 10
14.2835
 20
3.21431
 30
0.0
 40
0.00984722
 41
0.00984722
  0
SEQEND
 8
0
  0
POLYLINE
  8
0
 62
     0
 66
     1
 10
0
 20
0
 30
0.0
 40
0.709
 41
0.709
  0
VERTEX
  8
0
 10
14.2835
 20
4.00168
 30
0.0
 40
0.00984722
 41
0.00984722
  0
VERTEX
  8
0
 10
14.2047
 20
4.00168
 30
0.0
 40
0.00984722
 41
0.00984722
  0
SEQEND
 8
0
  0
POLYLINE
  8
0
 62
     0
 66
     1
 10
0
 20
0
 30
0.0
 40
0.709
 41
0.709
  0
VERTEX
  8
0
 10
14.2047
 20
4.08046
 30
0.0
 40
0.00984722
 41
0.00984722
  0
VERTEX
  8
0
 10
14.2047
 20
4.00168
 30
0.0
 40
0.00984722
 41
0.00984722
  0
SEQEND
 8
0
  0
POLYLINE
  8
0
 62
     0
 66
     1
 10
0
 20
0
 30
0.0
 40
0.709
 41
0.709
  0
VERTEX
  8
0
 10
14.9922
 20
4.08046
 30
0.0
 40
0.00984722
 41
0.00984722
  0
VERTEX
  8
0
 10
14.2047
 20
4.08046
 30
0.0
 40
0.00984722
 41
0.00984722
  0
SEQEND
 8
0
  0
POLYLINE
  8
0
 62
     0
 66
     1
 10
0
 20
0
 30
0.0
 40
0.709
 41
0.709
  0
VERTEX
  8
0
 10
14.9922
 20
4.08046
 30
0.0
 40
0.00984722
 41
0.00984722
  0
VERTEX
  8
0
 10
14.9922
 20
4.00168
 30
0.0
 40
0.00984722
 41
0.00984722
  0
SEQEND
 8
0
  0
POLYLINE
  8
0
 62
     0
 66
     1
 10
0
 20
0
 30
0.0
 40
0.709
 41
0.709
  0
VERTEX
  8
0
 10
14.9922
 20
4.00168
 30
0.0
 40
0.00984722
 41
0.00984722
  0
VERTEX
  8
0
 10
14.7389
 20
4.00168
 30
0.0
 40
0.00984722
 41
0.00984722
  0
SEQEND
 8
0
  0
POLYLINE
  8
0
 62
     0
 66
     1
 10
0
 20
0
 30
0.0
 40
0.709
 41
0.709
  0
VERTEX
  8
0
 10
14.9135
 20
3.21431
 30
0.0
 40
0.00984722
 41
0.00984722
  0
VERTEX
  8
0
 10
14.7389
 20
4.00168
 30
0.0
 40
0.00984722
 41
0.00984722
  0
SEQEND
 8
0
  0
POLYLINE
  8
0
 62
     0
 66
     1
 10
0
 20
0
 30
0.0
 40
0.709
 41
0.709
  0
VERTEX
  8
0
 10
14.9922
 20
3.21431
 30
0.0
 40
0.00984722
 41
0.00984722
  0
VERTEX
  8
0
 10
14.9135
 20
3.21431
 30
0.0
 40
0.00984722
 41
0.00984722
  0
SEQEND
 8
0
  0
POLYLINE
  8
0
 62
     0
 66
     1
 10
0
 20
0
 30
0.0
 40
0.709
 41
0.709
  0
VERTEX
  8
0
 10
14.9922
 20
3.21431
 30
0.0
 40
0.00984722
 41
0.00984722
  0
VERTEX
  8
0
 10
14.9922
 20
3.13558
 30
0.0
 40
0.00984722
 41
0.00984722
  0
SEQEND
 8
0
  0
POLYLINE
  8
0
 62
     0
 66
     1
 10
0
 20
0
 30
0.0
 40
0.709
 41
0.709
  0
VERTEX
  8
0
 10
14.5217
 20
3.21431
 30
0.0
 40
0.00984722
 41
0.00984722
  0
VERTEX
  8
0
 10
14.6772
 20
3.91601
 30
0.0
 40
0.00984722
 41
0.00984722
  0
SEQEND
 8
0
  0
POLYLINE
  8
0
 62
     0
 66
     1
 10
0
 20
0
 30
0.0
 40
0.709
 41
0.709
  0
VERTEX
  8
0
 10
14.8328
 20
3.21431
 30
0.0
 40
0.00984722
 41
0.00984722
  0
VERTEX
  8
0
 10
14.6772
 20
3.91601
 30
0.0
 40
0.00984722
 41
0.00984722
  0
SEQEND
 8
0
  0
POLYLINE
  8
0
 62
     0
 66
     1
 10
0
 20
0
 30
0.0
 40
0.709
 41
0.709
  0
VERTEX
  8
0
 10
14.8328
 20
3.21431
 30
0.0
 40
0.00984722
 41
0.00984722
  0
VERTEX
  8
0
 10
14.5217
 20
3.21431
 30
0.0
 40
0.00984722
 41
0.00984722
  0
SEQEND
 8
0
  0
POLYLINE
  8
0
 62
     0
 66
     1
 10
0
 20
0
 30
0.0
 40
0.709
 41
0.709
  0
VERTEX
  8
0
 10
14.441
 20
3.21431
 30
0.0
 40
0.00984722
 41
0.00984722
  0
VERTEX
  8
0
 10
14.3622
 20
3.21431
 30
0.0
 40
0.00984722
 41
0.00984722
  0
SEQEND
 8
0
  0
POLYLINE
  8
0
 62
     0
 66
     1
 10
0
 20
0
 30
0.0
 40
0.709
 41
0.709
  0
VERTEX
  8
0
 10
14.3622
 20
4.00168
 30
0.0
 40
0.00984722
 41
0.00984722
  0
VERTEX
  8
0
 10
14.3622
 20
3.21431
 30
0.0
 40
0.00984722
 41
0.00984722
  0
SEQEND
 8
0
  0
POLYLINE
  8
0
 62
     0
 66
     1
 10
0
 20
0
 30
0.0
 40
0.709
 41
0.709
  0
VERTEX
  8
0
 10
14.6156
 20
4.00168
 30
0.0
 40
0.00984722
 41
0.00984722
  0
VERTEX
  8
0
 10
14.3622
 20
4.00168
 30
0.0
 40
0.00984722
 41
0.00984722
  0
SEQEND
 8
0
  0
POLYLINE
  8
0
 62
     0
 66
     1
 10
0
 20
0
 30
0.0
 40
0.709
 41
0.709
  0
VERTEX
  8
0
 10
14.441
 20
3.21431
 30
0.0
 40
0.00984722
 41
0.00984722
  0
VERTEX
  8
0
 10
14.6156
 20
4.00168
 30
0.0
 40
0.00984722
 41
0.00984722
  0
SEQEND
 8
0
  0
POLYLINE
  8
0
 62
     0
 66
     1
 10
0
 20
0
 30
0.0
 40
0.709
 41
0.709
  0
VERTEX
  8
0
 10
14.9922
 20
3.13558
 30
0.0
 40
0.00984722
 41
0.00984722
  0
VERTEX
  8
0
 10
14.2047
 20
3.13558
 30
0.0
 40
0.00984722
 41
0.00984722
  0
SEQEND
 8
0
  0
POLYLINE
  8
0
 62
     0
 66
     1
 10
0
 20
0
 30
0.0
 40
0.709
 41
0.709
  0
VERTEX
  8
0
 10
11.8162
 20
3.98318
 30
0.0
 40
0.00984722
 41
0.00984722
  0
VERTEX
  8
0
 10
11.748
 20
4.02257
 30
0.0
 40
0.00984722
 41
0.00984722
  0
SEQEND
 8
0
  0
POLYLINE
  8
0
 62
     0
 66
     1
 10
0
 20
0
 30
0.0
 40
0.709
 41
0.709
  0
VERTEX
  8
0
 10
11.8162
 20
3.98318
 30
0.0
 40
0.00984722
 41
0.00984722
  0
VERTEX
  8
0
 10
12.3611
 20
4.57781
 30
0.0
 40
0.00984722
 41
0.00984722
  0
SEQEND
 8
0
  0
POLYLINE
  8
0
 62
     0
 66
     1
 10
0
 20
0
 30
0.0
 40
0.709
 41
0.709
  0
VERTEX
  8
0
 10
12.3611
 20
4.57781
 30
0.0
 40
0.00984722
 41
0.00984722
  0
VERTEX
  8
0
 10
12.1417
 20
4.70449
 30
0.0
 40
0.00984722
 41
0.00984722
  0
SEQEND
 8
0
  0
POLYLINE
  8
0
 62
     0
 66
     1
 10
0
 20
0
 30
0.0
 40
0.709
 41
0.709
  0
VERTEX
  8
0
 10
12.1417
 20
4.70449
 30
0.0
 40
0.00984722
 41
0.00984722
  0
VERTEX
  8
0
 10
11.748
 20
4.02257
 30
0.0
 40
0.00984722
 41
0.00984722
  0
SEQEND
 8
0
  0
POLYLINE
  8
0
 62
     0
 66
     1
 10
0
 20
0
 30
0.0
 40
0.709
 41
0.709
  0
VERTEX
  8
0
 10
12.1555
 20
3.78728
 30
0.0
 40
0.00984722
 41
0.00984722
  0
VERTEX
  8
0
 10
12.3716
 20
4.47282
 30
0.0
 40
0.00984722
 41
0.00984722
  0
SEQEND
 8
0
  0
POLYLINE
  8
0
 62
     0
 66
     1
 10
0
 20
0
 30
0.0
 40
0.709
 41
0.709
  0
VERTEX
  8
0
 10
11.8861
 20
3.94287
 30
0.0
 40
0.00984722
 41
0.00984722
  0
VERTEX
  8
0
 10
12.3716
 20
4.47282
 30
0.0
 40
0.00984722
 41
0.00984722
  0
SEQEND
 8
0
  0
POLYLINE
  8
0
 62
     0
 66
     1
 10
0
 20
0
 30
0.0
 40
0.709
 41
0.709
  0
VERTEX
  8
0
 10
12.1555
 20
3.78728
 30
0.0
 40
0.00984722
 41
0.00984722
  0
VERTEX
  8
0
 10
11.8861
 20
3.94287
 30
0.0
 40
0.00984722
 41
0.00984722
  0
SEQEND
 8
0
  0
POLYLINE
  8
0
 62
     0
 66
     1
 10
0
 20
0
 30
0.0
 40
0.709
 41
0.709
  0
VERTEX
  8
0
 10
12.0735
 20
4.74387
 30
0.0
 40
0.00984722
 41
0.00984722
  0
VERTEX
  8
0
 10
12.0053
 20
4.78321
 30
0.0
 40
0.00984722
 41
0.00984722
  0
SEQEND
 8
0
  0
POLYLINE
  8
0
 62
     0
 66
     1
 10
0
 20
0
 30
0.0
 40
0.709
 41
0.709
  0
VERTEX
  8
0
 10
12.0053
 20
4.78321
 30
0.0
 40
0.00984722
 41
0.00984722
  0
VERTEX
  8
0
 10
11.6116
 20
4.10129
 30
0.0
 40
0.00984722
 41
0.00984722
  0
SEQEND
 8
0
  0
POLYLINE
  8
0
 62
     0
 66
     1
 10
0
 20
0
 30
0.0
 40
0.709
 41
0.709
  0
VERTEX
  8
0
 10
11.6798
 20
4.06196
 30
0.0
 40
0.00984722
 41
0.00984722
  0
VERTEX
  8
0
 10
11.6116
 20
4.10129
 30
0.0
 40
0.00984722
 41
0.00984722
  0
SEQEND
 8
0
  0
POLYLINE
  8
0
 62
     0
 66
     1
 10
0
 20
0
 30
0.0
 40
0.709
 41
0.709
  0
VERTEX
  8
0
 10
12.0735
 20
4.74387
 30
0.0
 40
0.00984722
 41
0.00984722
  0
VERTEX
  8
0
 10
11.6798
 20
4.06196
 30
0.0
 40
0.00984722
 41
0.00984722
  0
SEQEND
 8
0
  0
POLYLINE
  8
0
 62
     0
 66
     1
 10
0
 20
0
 30
0.0
 40
0.709
 41
0.709
  0
VERTEX
  8
0
 10
12.7176
 20
4.4624
 30
0.0
 40
0.00984722
 41
0.00984722
  0
VERTEX
  8
0
 10
12.6783
 20
4.39421
 30
0.0
 40
0.00984722
 41
0.00984722
  0
SEQEND
 8
0
  0
POLYLINE
  8
0
 62
     0
 66
     1
 10
0
 20
0
 30
0.0
 40
0.709
 41
0.709
  0
VERTEX
  8
0
 10
12.6783
 20
4.39421
 30
0.0
 40
0.00984722
 41
0.00984722
  0
VERTEX
  8
0
 10
12.4589
 20
4.52089
 30
0.0
 40
0.00984722
 41
0.00984722
  0
SEQEND
 8
0
  0
POLYLINE
  8
0
 62
     0
 66
     1
 10
0
 20
0
 30
0.0
 40
0.709
 41
0.709
  0
VERTEX
  8
0
 10
12.2164
 20
3.75168
 30
0.0
 40
0.00984722
 41
0.00984722
  0
VERTEX
  8
0
 10
12.4589
 20
4.52089
 30
0.0
 40
0.00984722
 41
0.00984722
  0
SEQEND
 8
0
  0
POLYLINE
  8
0
 62
     0
 66
     1
 10
0
 20
0
 30
0.0
 40
0.709
 41
0.709
  0
VERTEX
  8
0
 10
12.2846
 20
3.71229
 30
0.0
 40
0.00984722
 41
0.00984722
  0
VERTEX
  8
0
 10
12.2164
 20
3.75168
 30
0.0
 40
0.00984722
 41
0.00984722
  0
SEQEND
 8
0
  0
POLYLINE
  8
0
 62
     0
 66
     1
 10
0
 20
0
 30
0.0
 40
0.709
 41
0.709
  0
VERTEX
  8
0
 10
12.2452
 20
3.64415
 30
0.0
 40
0.00984722
 41
0.00984722
  0
VERTEX
  8
0
 10
11.4269
 20
4.11654
 30
0.0
 40
0.00984722
 41
0.00984722
  0
SEQEND
 8
0
  0
POLYLINE
  8
0
 62
     0
 66
     1
 10
0
 20
0
 30
0.0
 40
0.709
 41
0.709
  0
VERTEX
  8
0
 10
11.4663
 20
4.18474
 30
0.0
 40
0.00984722
 41
0.00984722
  0
VERTEX
  8
0
 10
11.4269
 20
4.11654
 30
0.0
 40
0.00984722
 41
0.00984722
  0
SEQEND
 8
0
  0
POLYLINE
  8
0
 62
     0
 66
     1
 10
0
 20
0
 30
0.0
 40
0.709
 41
0.709
  0
VERTEX
  8
0
 10
11.5344
 20
4.1454
 30
0.0
 40
0.00984722
 41
0.00984722
  0
VERTEX
  8
0
 10
11.4663
 20
4.18474
 30
0.0
 40
0.00984722
 41
0.00984722
  0
SEQEND
 8
0
  0
POLYLINE
  8
0
 62
     0
 66
     1
 10
0
 20
0
 30
0.0
 40
0.709
 41
0.709
  0
VERTEX
  8
0
 10
11.9282
 20
4.82731
 30
0.0
 40
0.00984722
 41
0.00984722
  0
VERTEX
  8
0
 10
11.5344
 20
4.1454
 30
0.0
 40
0.00984722
 41
0.00984722
  0
SEQEND
 8
0
  0
POLYLINE
  8
0
 62
     0
 66
     1
 10
0
 20
0
 30
0.0
 40
0.709
 41
0.709
  0
VERTEX
  8
0
 10
11.9282
 20
4.82731
 30
0.0
 40
0.00984722
 41
0.00984722
  0
VERTEX
  8
0
 10
11.86
 20
4.86669
 30
0.0
 40
0.00984722
 41
0.00984722
  0
SEQEND
 8
0
  0
POLYLINE
  8
0
 62
     0
 66
     1
 10
0
 20
0
 30
0.0
 40
0.709
 41
0.709
  0
VERTEX
  8
0
 10
11.8994
 20
4.93485
 30
0.0
 40
0.00984722
 41
0.00984722
  0
VERTEX
  8
0
 10
11.86
 20
4.86669
 30
0.0
 40
0.00984722
 41
0.00984722
  0
SEQEND
 8
0
  0
POLYLINE
  8
0
 62
     0
 66
     1
 10
0
 20
0
 30
0.0
 40
0.709
 41
0.709
  0
VERTEX
  8
0
 10
12.7176
 20
4.4624
 30
0.0
 40
0.00984722
 41
0.00984722
  0
VERTEX
  8
0
 10
11.8994
 20
4.93485
 30
0.0
 40
0.00984722
 41
0.00984722
  0
SEQEND
 8
0
  0
POLYLINE
  8
0
 62
     0
 66
     1
 10
0
 20
0
 30
0.0
 40
0.709
 41
0.709
  0
VERTEX
  8
0
 10
12.2846
 20
3.71229
 30
0.0
 40
0.00984722
 41
0.00984722
  0
VERTEX
  8
0
 10
12.2452
 20
3.64415
 30
0.0
 40
0.00984722
 41
0.00984722
  0
SEQEND
 8
0
  0
POLYLINE
  8
0
 62
     0
 66
     1
 10
0
 20
0
 30
0.0
 40
0.709
 41
0.709
  0
VERTEX
  8
0
 10
12.0301
 20
12.4864
 30
0.0
 40
0.00984722
 41
0.00984722
  0
VERTEX
  8
0
 10
12.2913
 20
12.6373
 30
0.0
 40
0.00984722
 41
0.00984722
  0
SEQEND
 8
0
  0
POLYLINE
  8
0
 62
     0
 66
     1
 10
0
 20
0
 30
0.0
 40
0.709
 41
0.709
  0
VERTEX
  8
0
 10
11.9813
 20
12.8725
 30
0.0
 40
0.00984722
 41
0.00984722
  0
VERTEX
  8
0
 10
12.0301
 20
12.4864
 30
0.0
 40
0.00984722
 41
0.00984722
  0
SEQEND
 8
0
  0
POLYLINE
  8
0
 62
     0
 66
     1
 10
0
 20
0
 30
0.0
 40
0.709
 41
0.709
  0
VERTEX
  8
0
 10
12.1022
 20
13.4373
 30
0.0
 40
0.00984722
 41
0.00984722
  0
VERTEX
  8
0
 10
12.1704
 20
13.4766
 30
0.0
 40
0.00984722
 41
0.00984722
  0
SEQEND
 8
0
  0
POLYLINE
  8
0
 62
     0
 66
     1
 10
0
 20
0
 30
0.0
 40
0.709
 41
0.709
  0
VERTEX
  8
0
 10
12.1022
 20
13.4373
 30
0.0
 40
0.00984722
 41
0.00984722
  0
VERTEX
  8
0
 10
12.4958
 20
12.7554
 30
0.0
 40
0.00984722
 41
0.00984722
  0
SEQEND
 8
0
  0
POLYLINE
  8
0
 62
     0
 66
     1
 10
0
 20
0
 30
0.0
 40
0.709
 41
0.709
  0
VERTEX
  8
0
 10
12.4958
 20
12.7554
 30
0.0
 40
0.00984722
 41
0.00984722
  0
VERTEX
  8
0
 10
12.564
 20
12.7947
 30
0.0
 40
0.00984722
 41
0.00984722
  0
SEQEND
 8
0
  0
POLYLINE
  8
0
 62
     0
 66
     1
 10
0
 20
0
 30
0.0
 40
0.709
 41
0.709
  0
VERTEX
  8
0
 10
12.564
 20
12.7947
 30
0.0
 40
0.00984722
 41
0.00984722
  0
VERTEX
  8
0
 10
12.6034
 20
12.7265
 30
0.0
 40
0.00984722
 41
0.00984722
  0
SEQEND
 8
0
  0
POLYLINE
  8
0
 62
     0
 66
     1
 10
0
 20
0
 30
0.0
 40
0.709
 41
0.709
  0
VERTEX
  8
0
 10
11.9215
 20
12.3328
 30
0.0
 40
0.00984722
 41
0.00984722
  0
VERTEX
  8
0
 10
11.8821
 20
12.401
 30
0.0
 40
0.00984722
 41
0.00984722
  0
SEQEND
 8
0
  0
POLYLINE
  8
0
 62
     0
 66
     1
 10
0
 20
0
 30
0.0
 40
0.709
 41
0.709
  0
VERTEX
  8
0
 10
12.3594
 20
12.6766
 30
0.0
 40
0.00984722
 41
0.00984722
  0
VERTEX
  8
0
 10
12.4276
 20
12.716
 30
0.0
 40
0.00984722
 41
0.00984722
  0
SEQEND
 8
0
  0
POLYLINE
  8
0
 62
     0
 66
     1
 10
0
 20
0
 30
0.0
 40
0.709
 41
0.709
  0
VERTEX
  8
0
 10
12.034
 20
13.3979
 30
0.0
 40
0.00984722
 41
0.00984722
  0
VERTEX
  8
0
 10
12.4276
 20
12.716
 30
0.0
 40
0.00984722
 41
0.00984722
  0
SEQEND
 8
0
  0
POLYLINE
  8
0
 62
     0
 66
     1
 10
0
 20
0
 30
0.0
 40
0.709
 41
0.709
  0
VERTEX
  8
0
 10
11.6306
 20
13.165
 30
0.0
 40
0.00984722
 41
0.00984722
  0
VERTEX
  8
0
 10
11.8918
 20
13.3158
 30
0.0
 40
0.00984722
 41
0.00984722
  0
SEQEND
 8
0
  0
POLYLINE
  8
0
 62
     0
 66
     1
 10
0
 20
0
 30
0.0
 40
0.709
 41
0.709
  0
VERTEX
  8
0
 10
11.9405
 20
12.9298
 30
0.0
 40
0.00984722
 41
0.00984722
  0
VERTEX
  8
0
 10
11.6306
 20
13.165
 30
0.0
 40
0.00984722
 41
0.00984722
  0
SEQEND
 8
0
  0
POLYLINE
  8
0
 62
     0
 66
     1
 10
0
 20
0
 30
0.0
 40
0.709
 41
0.709
  0
VERTEX
  8
0
 10
11.9405
 20
12.9298
 30
0.0
 40
0.00984722
 41
0.00984722
  0
VERTEX
  8
0
 10
11.8918
 20
13.3158
 30
0.0
 40
0.00984722
 41
0.00984722
  0
SEQEND
 8
0
  0
POLYLINE
  8
0
 62
     0
 66
     1
 10
0
 20
0
 30
0.0
 40
0.709
 41
0.709
  0
VERTEX
  8
0
 10
12.0193
 20
12.9348
 30
0.0
 40
0.00984722
 41
0.00984722
  0
VERTEX
  8
0
 10
12.3594
 20
12.6766
 30
0.0
 40
0.00984722
 41
0.00984722
  0
SEQEND
 8
0
  0
POLYLINE
  8
0
 62
     0
 66
     1
 10
0
 20
0
 30
0.0
 40
0.709
 41
0.709
  0
VERTEX
  8
0
 10
12.0193
 20
12.9348
 30
0.0
 40
0.00984722
 41
0.00984722
  0
VERTEX
  8
0
 10
11.9658
 20
13.3585
 30
0.0
 40
0.00984722
 41
0.00984722
  0
SEQEND
 8
0
  0
POLYLINE
  8
0
 62
     0
 66
     1
 10
0
 20
0
 30
0.0
 40
0.709
 41
0.709
  0
VERTEX
  8
0
 10
11.9658
 20
13.3585
 30
0.0
 40
0.00984722
 41
0.00984722
  0
VERTEX
  8
0
 10
12.034
 20
13.3979
 30
0.0
 40
0.00984722
 41
0.00984722
  0
SEQEND
 8
0
  0
POLYLINE
  8
0
 62
     0
 66
     1
 10
0
 20
0
 30
0.0
 40
0.709
 41
0.709
  0
VERTEX
  8
0
 10
11.8821
 20
12.401
 30
0.0
 40
0.00984722
 41
0.00984722
  0
VERTEX
  8
0
 10
11.9503
 20
12.4404
 30
0.0
 40
0.00984722
 41
0.00984722
  0
SEQEND
 8
0
  0
POLYLINE
  8
0
 62
     0
 66
     1
 10
0
 20
0
 30
0.0
 40
0.709
 41
0.709
  0
VERTEX
  8
0
 10
11.9503
 20
12.4404
 30
0.0
 40
0.00984722
 41
0.00984722
  0
VERTEX
  8
0
 10
11.8968
 20
12.8641
 30
0.0
 40
0.00984722
 41
0.00984722
  0
SEQEND
 8
0
  0
POLYLINE
  8
0
 62
     0
 66
     1
 10
0
 20
0
 30
0.0
 40
0.709
 41
0.709
  0
VERTEX
  8
0
 10
11.5566
 20
13.1223
 30
0.0
 40
0.00984722
 41
0.00984722
  0
VERTEX
  8
0
 10
11.8968
 20
12.8641
 30
0.0
 40
0.00984722
 41
0.00984722
  0
SEQEND
 8
0
  0
POLYLINE
  8
0
 62
     0
 66
     1
 10
0
 20
0
 30
0.0
 40
0.709
 41
0.709
  0
VERTEX
  8
0
 10
11.4884
 20
13.083
 30
0.0
 40
0.00984722
 41
0.00984722
  0
VERTEX
  8
0
 10
11.5566
 20
13.1223
 30
0.0
 40
0.00984722
 41
0.00984722
  0
SEQEND
 8
0
  0
POLYLINE
  8
0
 62
     0
 66
     1
 10
0
 20
0
 30
0.0
 40
0.709
 41
0.709
  0
VERTEX
  8
0
 10
11.4491
 20
13.1512
 30
0.0
 40
0.00984722
 41
0.00984722
  0
VERTEX
  8
0
 10
11.4884
 20
13.083
 30
0.0
 40
0.00984722
 41
0.00984722
  0
SEQEND
 8
0
  0
POLYLINE
  8
0
 62
     0
 66
     1
 10
0
 20
0
 30
0.0
 40
0.709
 41
0.709
  0
VERTEX
  8
0
 10
11.4491
 20
13.1512
 30
0.0
 40
0.00984722
 41
0.00984722
  0
VERTEX
  8
0
 10
12.131
 20
13.5448
 30
0.0
 40
0.00984722
 41
0.00984722
  0
SEQEND
 8
0
  0
POLYLINE
  8
0
 62
     0
 66
     1
 10
0
 20
0
 30
0.0
 40
0.709
 41
0.709
  0
VERTEX
  8
0
 10
12.131
 20
13.5448
 30
0.0
 40
0.00984722
 41
0.00984722
  0
VERTEX
  8
0
 10
12.1704
 20
13.4766
 30
0.0
 40
0.00984722
 41
0.00984722
  0
SEQEND
 8
0
  0
POLYLINE
  8
0
 62
     0
 66
     1
 10
0
 20
0
 30
0.0
 40
0.709
 41
0.709
  0
VERTEX
  8
0
 10
11.9813
 20
12.8725
 30
0.0
 40
0.00984722
 41
0.00984722
  0
VERTEX
  8
0
 10
12.2913
 20
12.6373
 30
0.0
 40
0.00984722
 41
0.00984722
  0
SEQEND
 8
0
  0
POLYLINE
  8
0
 62
     0
 66
     1
 10
0
 20
0
 30
0.0
 40
0.709
 41
0.709
  0
VERTEX
  8
0
 10
11.9215
 20
12.3328
 30
0.0
 40
0.00984722
 41
0.00984722
  0
VERTEX
  8
0
 10
12.6034
 20
12.7265
 30
0.0
 40
0.00984722
 41
0.00984722
  0
SEQEND
 8
0
  0
POLYLINE
  8
0
 62
     0
 66
     1
 10
0
 20
0
 30
0.0
 40
0.709
 41
0.709
  0
VERTEX
  8
0
 10
10.2225
 20
11.1546
 30
0.0
 40
0.00984722
 41
0.00984722
  0
VERTEX
  8
0
 10
9.83529
 20
11.2056
 30
0.0
 40
0.00984722
 41
0.00984722
  0
SEQEND
 8
0
  0
POLYLINE
  8
0
 62
     0
 66
     1
 10
0
 20
0
 30
0.0
 40
0.709
 41
0.709
  0
VERTEX
  8
0
 10
9.75163
 20
11.064
 30
0.0
 40
0.00984722
 41
0.00984722
  0
VERTEX
  8
0
 10
9.79139
 20
11.1319
 30
0.0
 40
0.00984722
 41
0.00984722
  0
SEQEND
 8
0
  0
POLYLINE
  8
0
 62
     0
 66
     1
 10
0
 20
0
 30
0.0
 40
0.709
 41
0.709
  0
VERTEX
  8
0
 10
9.68365
 20
11.1037
 30
0.0
 40
0.00984722
 41
0.00984722
  0
VERTEX
  8
0
 10
9.75163
 20
11.064
 30
0.0
 40
0.00984722
 41
0.00984722
  0
SEQEND
 8
0
  0
POLYLINE
  8
0
 62
     0
 66
     1
 10
0
 20
0
 30
0.0
 40
0.709
 41
0.709
  0
VERTEX
  8
0
 10
9.68365
 20
11.1037
 30
0.0
 40
0.00984722
 41
0.00984722
  0
VERTEX
  8
0
 10
10.0015
 20
11.6475
 30
0.0
 40
0.00984722
 41
0.00984722
  0
SEQEND
 8
0
  0
POLYLINE
  8
0
 62
     0
 66
     1
 10
0
 20
0
 30
0.0
 40
0.709
 41
0.709
  0
VERTEX
  8
0
 10
10.0015
 20
11.6475
 30
0.0
 40
0.00984722
 41
0.00984722
  0
VERTEX
  8
0
 10
10.0663
 20
11.6068
 30
0.0
 40
0.00984722
 41
0.00984722
  0
SEQEND
 8
0
  0
POLYLINE
  8
0
 62
     0
 66
     1
 10
0
 20
0
 30
0.0
 40
0.709
 41
0.709
  0
VERTEX
  8
0
 10
10.0272
 20
11.5384
 30
0.0
 40
0.00984722
 41
0.00984722
  0
VERTEX
  8
0
 10
10.0663
 20
11.6068
 30
0.0
 40
0.00984722
 41
0.00984722
  0
SEQEND
 8
0
  0
POLYLINE
  8
0
 62
     0
 66
     1
 10
0
 20
0
 30
0.0
 40
0.709
 41
0.709
  0
VERTEX
  8
0
 10
10.2878
 20
11.1989
 30
0.0
 40
0.00984722
 41
0.00984722
  0
VERTEX
  8
0
 10
10.0272
 20
11.5384
 30
0.0
 40
0.00984722
 41
0.00984722
  0
SEQEND
 8
0
  0
POLYLINE
  8
0
 62
     0
 66
     1
 10
0
 20
0
 30
0.0
 40
0.709
 41
0.709
  0
VERTEX
  8
0
 10
10.2878
 20
11.1989
 30
0.0
 40
0.00984722
 41
0.00984722
  0
VERTEX
  8
0
 10
10.7106
 20
11.1432
 30
0.0
 40
0.00984722
 41
0.00984722
  0
SEQEND
 8
0
  0
POLYLINE
  8
0
 62
     0
 66
     1
 10
0
 20
0
 30
0.0
 40
0.709
 41
0.709
  0
VERTEX
  8
0
 10
10.7106
 20
11.1432
 30
0.0
 40
0.00984722
 41
0.00984722
  0
VERTEX
  8
0
 10
10.7499
 20
11.2114
 30
0.0
 40
0.00984722
 41
0.00984722
  0
SEQEND
 8
0
  0
POLYLINE
  8
0
 62
     0
 66
     1
 10
0
 20
0
 30
0.0
 40
0.709
 41
0.709
  0
VERTEX
  8
0
 10
10.7499
 20
11.2114
 30
0.0
 40
0.00984722
 41
0.00984722
  0
VERTEX
  8
0
 10
10.8186
 20
11.1753
 30
0.0
 40
0.00984722
 41
0.00984722
  0
SEQEND
 8
0
  0
POLYLINE
  8
0
 62
     0
 66
     1
 10
0
 20
0
 30
0.0
 40
0.709
 41
0.709
  0
VERTEX
  8
0
 10
10.5036
 20
10.6298
 30
0.0
 40
0.00984722
 41
0.00984722
  0
VERTEX
  8
0
 10
10.8186
 20
11.1753
 30
0.0
 40
0.00984722
 41
0.00984722
  0
SEQEND
 8
0
  0
POLYLINE
  8
0
 62
     0
 66
     1
 10
0
 20
0
 30
0.0
 40
0.709
 41
0.709
  0
VERTEX
  8
0
 10
10.5036
 20
10.6298
 30
0.0
 40
0.00984722
 41
0.00984722
  0
VERTEX
  8
0
 10
10.4354
 20
10.6692
 30
0.0
 40
0.00984722
 41
0.00984722
  0
SEQEND
 8
0
  0
POLYLINE
  8
0
 62
     0
 66
     1
 10
0
 20
0
 30
0.0
 40
0.709
 41
0.709
  0
VERTEX
  8
0
 10
9.79139
 20
11.1319
 30
0.0
 40
0.00984722
 41
0.00984722
  0
VERTEX
  8
0
 10
10.2148
 20
11.0762
 30
0.0
 40
0.00984722
 41
0.00984722
  0
SEQEND
 8
0
  0
POLYLINE
  8
0
 62
     0
 66
     1
 10
0
 20
0
 30
0.0
 40
0.709
 41
0.709
  0
VERTEX
  8
0
 10
9.83529
 20
11.2056
 30
0.0
 40
0.00984722
 41
0.00984722
  0
VERTEX
  8
0
 10
9.98563
 20
11.4633
 30
0.0
 40
0.00984722
 41
0.00984722
  0
SEQEND
 8
0
  0
POLYLINE
  8
0
 62
     0
 66
     1
 10
0
 20
0
 30
0.0
 40
0.709
 41
0.709
  0
VERTEX
  8
0
 10
10.2225
 20
11.1546
 30
0.0
 40
0.00984722
 41
0.00984722
  0
VERTEX
  8
0
 10
9.98563
 20
11.4633
 30
0.0
 40
0.00984722
 41
0.00984722
  0
SEQEND
 8
0
  0
POLYLINE
  8
0
 62
     0
 66
     1
 10
0
 20
0
 30
0.0
 40
0.709
 41
0.709
  0
VERTEX
  8
0
 10
10.2801
 20
11.1204
 30
0.0
 40
0.00984722
 41
0.00984722
  0
VERTEX
  8
0
 10
10.6673
 20
11.0695
 30
0.0
 40
0.00984722
 41
0.00984722
  0
SEQEND
 8
0
  0
POLYLINE
  8
0
 62
     0
 66
     1
 10
0
 20
0
 30
0.0
 40
0.709
 41
0.709
  0
VERTEX
  8
0
 10
10.517
 20
10.8118
 30
0.0
 40
0.00984722
 41
0.00984722
  0
VERTEX
  8
0
 10
10.6673
 20
11.0695
 30
0.0
 40
0.00984722
 41
0.00984722
  0
SEQEND
 8
0
  0
POLYLINE
  8
0
 62
     0
 66
     1
 10
0
 20
0
 30
0.0
 40
0.709
 41
0.709
  0
VERTEX
  8
0
 10
10.2801
 20
11.1204
 30
0.0
 40
0.00984722
 41
0.00984722
  0
VERTEX
  8
0
 10
10.517
 20
10.8118
 30
0.0
 40
0.00984722
 41
0.00984722
  0
SEQEND
 8
0
  0
POLYLINE
  8
0
 62
     0
 66
     1
 10
0
 20
0
 30
0.0
 40
0.709
 41
0.709
  0
VERTEX
  8
0
 10
10.4354
 20
10.6692
 30
0.0
 40
0.00984722
 41
0.00984722
  0
VERTEX
  8
0
 10
10.4748
 20
10.7374
 30
0.0
 40
0.00984722
 41
0.00984722
  0
SEQEND
 8
0
  0
POLYLINE
  8
0
 62
     0
 66
     1
 10
0
 20
0
 30
0.0
 40
0.709
 41
0.709
  0
VERTEX
  8
0
 10
10.4748
 20
10.7374
 30
0.0
 40
0.00984722
 41
0.00984722
  0
VERTEX
  8
0
 10
10.2148
 20
11.0762
 30
0.0
 40
0.00984722
 41
0.00984722
  0
SEQEND
 8
0
  0
POLYLINE
  8
0
 62
     0
 66
     1
 10
0
 20
0
 30
0.0
 70
     1
 40
0.709
 41
0.709
  0
VERTEX
  8
0
 10
18.7324
 20
8.62771
 30
0.0
 40
0.00984722
 41
0.00984722
  0
VERTEX
  8
0
 10
18.731
 20
8.73589
 30
0.0
 40
0.00984722
 41
0.00984722
  0
VERTEX
  8
0
 10
18.7267
 20
8.84403
 30
0.0
 40
0.00984722
 41
0.00984722
  0
VERTEX
  8
0
 10
18.7196
 20
8.95204
 30
0.0
 40
0.00984722
 41
0.00984722
  0
VERTEX
  8
0
 10
18.7097
 20
9.05979
 30
0.0
 40
0.00984722
 41
0.00984722
  0
VERTEX
  8
0
 10
18.6969
 20
9.16726
 30
0.0
 40
0.00984722
 41
0.00984722
  0
VERTEX
  8
0
 10
18.6814
 20
9.27436
 30
0.0
 40
0.00984722
 41
0.00984722
  0
VERTEX
  8
0
 10
18.6632
 20
9.38103
 30
0.0
 40
0.00984722
 41
0.00984722
  0
VERTEX
  8
0
 10
18.6421
 20
9.48714
 30
0.0
 40
0.00984722
 41
0.00984722
  0
VERTEX
  8
0
 10
18.6181
 20
9.59272
 30
0.0
 40
0.00984722
 41
0.00984722
  0
VERTEX
  8
0
 10
18.5915
 20
9.6976
 30
0.0
 40
0.00984722
 41
0.00984722
  0
VERTEX
  8
0
 10
18.5621
 20
9.80176
 30
0.0
 40
0.00984722
 41
0.00984722
  0
VERTEX
  8
0
 10
18.53
 20
9.90511
 30
0.0
 40
0.00984722
 41
0.00984722
  0
VERTEX
  8
0
 10
18.4953
 20
10.0076
 30
0.0
 40
0.00984722
 41
0.00984722
  0
VERTEX
  8
0
 10
18.4578
 20
10.1092
 30
0.0
 40
0.00984722
 41
0.00984722
  0
VERTEX
  8
0
 10
18.4176
 20
10.2096
 30
0.0
 40
0.00984722
 41
0.00984722
  0
VERTEX
  8
0
 10
18.375
 20
10.3091
 30
0.0
 40
0.00984722
 41
0.00984722
  0
VERTEX
  8
0
 10
18.3296
 20
10.4073
 30
0.0
 40
0.00984722
 41
0.00984722
  0
VERTEX
  8
0
 10
18.2818
 20
10.5044
 30
0.0
 40
0.00984722
 41
0.00984722
  0
VERTEX
  8
0
 10
18.2314
 20
10.6002
 30
0.0
 40
0.00984722
 41
0.00984722
  0
VERTEX
  8
0
 10
18.1785
 20
10.6946
 30
0.0
 40
0.00984722
 41
0.00984722
  0
VERTEX
  8
0
 10
18.1232
 20
10.7876
 30
0.0
 40
0.00984722
 41
0.00984722
  0
VERTEX
  8
0
 10
18.0654
 20
10.8791
 30
0.0
 40
0.00984722
 41
0.00984722
  0
VERTEX
  8
0
 10
18.0053
 20
10.9691
 30
0.0
 40
0.00984722
 41
0.00984722
  0
VERTEX
  8
0
 10
17.9429
 20
11.0575
 30
0.0
 40
0.00984722
 41
0.00984722
  0
VERTEX
  8
0
 10
17.8781
 20
11.1442
 30
0.0
 40
0.00984722
 41
0.00984722
  0
VERTEX
  8
0
 10
17.8111
 20
11.2292
 30
0.0
 40
0.00984722
 41
0.00984722
  0
VERTEX
  8
0
 10
17.7418
 20
11.3124
 30
0.0
 40
0.00984722
 41
0.00984722
  0
VERTEX
  8
0
 10
17.6706
 20
11.3938
 30
0.0
 40
0.00984722
 41
0.00984722
  0
VERTEX
  8
0
 10
17.5971
 20
11.4732
 30
0.0
 40
0.00984722
 41
0.00984722
  0
VERTEX
  8
0
 10
17.5215
 20
11.5508
 30
0.0
 40
0.00984722
 41
0.00984722
  0
VERTEX
  8
0
 10
17.444
 20
11.6263
 30
0.0
 40
0.00984722
 41
0.00984722
  0
VERTEX
  8
0
 10
17.3646
 20
11.6998
 30
0.0
 40
0.00984722
 41
0.00984722
  0
VERTEX
  8
0
 10
17.2832
 20
11.7711
 30
0.0
 40
0.00984722
 41
0.00984722
  0
VERTEX
  8
0
 10
17.2
 20
11.8403
 30
0.0
 40
0.00984722
 41
0.00984722
  0
VERTEX
  8
0
 10
17.115
 20
11.9073
 30
0.0
 40
0.00984722
 41
0.00984722
  0
VERTEX
  8
0
 10
17.0283
 20
11.9721
 30
0.0
 40
0.00984722
 41
0.00984722
  0
VERTEX
  8
0
 10
16.94
 20
12.0345
 30
0.0
 40
0.00984722
 41
0.00984722
  0
VERTEX
  8
0
 10
16.85
 20
12.0946
 30
0.0
 40
0.00984722
 41
0.00984722
  0
VERTEX
  8
0
 10
16.7585
 20
12.1524
 30
0.0
 40
0.00984722
 41
0.00984722
  0
VERTEX
  8
0
 10
16.6654
 20
12.2077
 30
0.0
 40
0.00984722
 41
0.00984722
  0
VERTEX
  8
0
 10
16.571
 20
12.2606
 30
0.0
 40
0.00984722
 41
0.00984722
  0
VERTEX
  8
0
 10
16.4751
 20
12.311
 30
0.0
 40
0.00984722
 41
0.00984722
  0
VERTEX
  8
0
 10
16.3782
 20
12.3588
 30
0.0
 40
0.00984722
 41
0.00984722
  0
VERTEX
  8
0
 10
16.2799
 20
12.4041
 30
0.0
 40
0.00984722
 41
0.00984722
  0
VERTEX
  8
0
 10
16.1804
 20
12.4469
 30
0.0
 40
0.00984722
 41
0.00984722
  0
VERTEX
  8
0
 10
16.0799
 20
12.487
 30
0.0
 40
0.00984722
 41
0.00984722
  0
VERTEX
  8
0
 10
15.9785
 20
12.5244
 30
0.0
 40
0.00984722
 41
0.00984722
  0
VERTEX
  8
0
 10
15.876
 20
12.5592
 30
0.0
 40
0.00984722
 41
0.00984722
  0
VERTEX
  8
0
 10
15.7726
 20
12.5913
 30
0.0
 40
0.00984722
 41
0.00984722
  0
VERTEX
  8
0
 10
15.6685
 20
12.6207
 30
0.0
 40
0.00984722
 41
0.00984722
  0
VERTEX
  8
0
 10
15.5635
 20
12.6473
 30
0.0
 40
0.00984722
 41
0.00984722
  0
VERTEX
  8
0
 10
15.4579
 20
12.6712
 30
0.0
 40
0.00984722
 41
0.00984722
  0
VERTEX
  8
0
 10
15.3518
 20
12.6923
 30
0.0
 40
0.00984722
 41
0.00984722
  0
VERTEX
  8
0
 10
15.2451
 20
12.7107
 30
0.0
 40
0.00984722
 41
0.00984722
  0
VERTEX
  8
0
 10
15.1381
 20
12.7262
 30
0.0
 40
0.00984722
 41
0.00984722
  0
VERTEX
  8
0
 10
15.0306
 20
12.7389
 30
0.0
 40
0.00984722
 41
0.00984722
  0
VERTEX
  8
0
 10
14.9228
 20
12.7488
 30
0.0
 40
0.00984722
 41
0.00984722
  0
VERTEX
  8
0
 10
14.8149
 20
12.7559
 30
0.0
 40
0.00984722
 41
0.00984722
  0
VERTEX
  8
0
 10
14.7067
 20
12.7601
 30
0.0
 40
0.00984722
 41
0.00984722
  0
VERTEX
  8
0
 10
14.5985
 20
12.7616
 30
0.0
 40
0.00984722
 41
0.00984722
  0
VERTEX
  8
0
 10
14.4903
 20
12.7601
 30
0.0
 40
0.00984722
 41
0.00984722
  0
VERTEX
  8
0
 10
14.3822
 20
12.7559
 30
0.0
 40
0.00984722
 41
0.00984722
  0
VERTEX
  8
0
 10
14.2742
 20
12.7488
 30
0.0
 40
0.00984722
 41
0.00984722
  0
VERTEX
  8
0
 10
14.1664
 20
12.7389
 30
0.0
 40
0.00984722
 41
0.00984722
  0
VERTEX
  8
0
 10
14.0589
 20
12.7262
 30
0.0
 40
0.00984722
 41
0.00984722
  0
VERTEX
  8
0
 10
13.9518
 20
12.7107
 30
0.0
 40
0.00984722
 41
0.00984722
  0
VERTEX
  8
0
 10
13.8452
 20
12.6923
 30
0.0
 40
0.00984722
 41
0.00984722
  0
VERTEX
  8
0
 10
13.739
 20
12.6712
 30
0.0
 40
0.00984722
 41
0.00984722
  0
VERTEX
  8
0
 10
13.6335
 20
12.6473
 30
0.0
 40
0.00984722
 41
0.00984722
  0
VERTEX
  8
0
 10
13.5286
 20
12.6207
 30
0.0
 40
0.00984722
 41
0.00984722
  0
VERTEX
  8
0
 10
13.4244
 20
12.5913
 30
0.0
 40
0.00984722
 41
0.00984722
  0
VERTEX
  8
0
 10
13.3211
 20
12.5592
 30
0.0
 40
0.00984722
 41
0.00984722
  0
VERTEX
  8
0
 10
13.2186
 20
12.5244
 30
0.0
 40
0.00984722
 41
0.00984722
  0
VERTEX
  8
0
 10
13.117
 20
12.487
 30
0.0
 40
0.00984722
 41
0.00984722
  0
VERTEX
  8
0
 10
13.0165
 20
12.4469
 30
0.0
 40
0.00984722
 41
0.00984722
  0
VERTEX
  8
0
 10
12.9171
 20
12.4041
 30
0.0
 40
0.00984722
 41
0.00984722
  0
VERTEX
  8
0
 10
12.8188
 20
12.3588
 30
0.0
 40
0.00984722
 41
0.00984722
  0
VERTEX
  8
0
 10
12.7217
 20
12.311
 30
0.0
 40
0.00984722
 41
0.00984722
  0
VERTEX
  8
0
 10
12.626
 20
12.2606
 30
0.0
 40
0.00984722
 41
0.00984722
  0
VERTEX
  8
0
 10
12.5316
 20
12.2077
 30
0.0
 40
0.00984722
 41
0.00984722
  0
VERTEX
  8
0
 10
12.4385
 20
12.1524
 30
0.0
 40
0.00984722
 41
0.00984722
  0
VERTEX
  8
0
 10
12.347
 20
12.0946
 30
0.0
 40
0.00984722
 41
0.00984722
  0
VERTEX
  8
0
 10
12.2571
 20
12.0345
 30
0.0
 40
0.00984722
 41
0.00984722
  0
VERTEX
  8
0
 10
12.1687
 20
11.9721
 30
0.0
 40
0.00984722
 41
0.00984722
  0
VERTEX
  8
0
 10
12.0819
 20
11.9073
 30
0.0
 40
0.00984722
 41
0.00984722
  0
VERTEX
  8
0
 10
11.997
 20
11.8403
 30
0.0
 40
0.00984722
 41
0.00984722
  0
VERTEX
  8
0
 10
11.9137
 20
11.7711
 30
0.0
 40
0.00984722
 41
0.00984722
  0
VERTEX
  8
0
 10
11.8324
 20
11.6998
 30
0.0
 40
0.00984722
 41
0.00984722
  0
VERTEX
  8
0
 10
11.7529
 20
11.6263
 30
0.0
 40
0.00984722
 41
0.00984722
  0
VERTEX
  8
0
 10
11.6754
 20
11.5508
 30
0.0
 40
0.00984722
 41
0.00984722
  0
VERTEX
  8
0
 10
11.5999
 20
11.4732
 30
0.0
 40
0.00984722
 41
0.00984722
  0
VERTEX
  8
0
 10
11.5264
 20
11.3938
 30
0.0
 40
0.00984722
 41
0.00984722
  0
VERTEX
  8
0
 10
11.4551
 20
11.3124
 30
0.0
 40
0.00984722
 41
0.00984722
  0
VERTEX
  8
0
 10
11.3858
 20
11.2292
 30
0.0
 40
0.00984722
 41
0.00984722
  0
VERTEX
  8
0
 10
11.3188
 20
11.1442
 30
0.0
 40
0.00984722
 41
0.00984722
  0
VERTEX
  8
0
 10
11.2541
 20
11.0575
 30
0.0
 40
0.00984722
 41
0.00984722
  0
VERTEX
  8
0
 10
11.1917
 20
10.9691
 30
0.0
 40
0.00984722
 41
0.00984722
  0
VERTEX
  8
0
 10
11.1316
 20
10.8791
 30
0.0
 40
0.00984722
 41
0.00984722
  0
VERTEX
  8
0
 10
11.0738
 20
10.7876
 30
0.0
 40
0.00984722
 41
0.00984722
  0
VERTEX
  8
0
 10
11.0184
 20
10.6946
 30
0.0
 40
0.00984722
 41
0.00984722
  0
VERTEX
  8
0
 10
10.9656
 20
10.6002
 30
0.0
 40
0.00984722
 41
0.00984722
  0
VERTEX
  8
0
 10
10.9152
 20
10.5044
 30
0.0
 40
0.00984722
 41
0.00984722
  0
VERTEX
  8
0
 10
10.8673
 20
10.4073
 30
0.0
 40
0.00984722
 41
0.00984722
  0
VERTEX
  8
0
 10
10.822
 20
10.3091
 30
0.0
 40
0.00984722
 41
0.00984722
  0
VERTEX
  8
0
 10
10.7793
 20
10.2096
 30
0.0
 40
0.00984722
 41
0.00984722
  0
VERTEX
  8
0
 10
10.7392
 20
10.1092
 30
0.0
 40
0.00984722
 41
0.00984722
  0
VERTEX
  8
0
 10
10.7017
 20
10.0076
 30
0.0
 40
0.00984722
 41
0.00984722
  0
VERTEX
  8
0
 10
10.6669
 20
9.90511
 30
0.0
 40
0.00984722
 41
0.00984722
  0
VERTEX
  8
0
 10
10.6349
 20
9.80176
 30
0.0
 40
0.00984722
 41
0.00984722
  0
VERTEX
  8
0
 10
10.6055
 20
9.6976
 30
0.0
 40
0.00984722
 41
0.00984722
  0
VERTEX
  8
0
 10
10.5788
 20
9.59272
 30
0.0
 40
0.00984722
 41
0.00984722
  0
VERTEX
  8
0
 10
10.555
 20
9.48714
 30
0.0
 40
0.00984722
 41
0.00984722
  0
VERTEX
  8
0
 10
10.5339
 20
9.38103
 30
0.0
 40
0.00984722
 41
0.00984722
  0
VERTEX
  8
0
 10
10.5155
 20
9.27436
 30
0.0
 40
0.00984722
 41
0.00984722
  0
VERTEX
  8
0
 10
10.5
 20
9.16726
 30
0.0
 40
0.00984722
 41
0.00984722
  0
VERTEX
  8
0
 10
10.4872
 20
9.05979
 30
0.0
 40
0.00984722
 41
0.00984722
  0
VERTEX
  8
0
 10
10.4774
 20
8.95204
 30
0.0
 40
0.00984722
 41
0.00984722
  0
VERTEX
  8
0
 10
10.4703
 20
8.84403
 30
0.0
 40
0.00984722
 41
0.00984722
  0
VERTEX
  8
0
 10
10.466
 20
8.73589
 30
0.0
 40
0.00984722
 41
0.00984722
  0
VERTEX
  8
0
 10
10.4646
 20
8.62771
 30
0.0
 40
0.00984722
 41
0.00984722
  0
VERTEX
  8
0
 10
10.466
 20
8.51947
 30
0.0
 40
0.00984722
 41
0.00984722
  0
VERTEX
  8
0
 10
10.4703
 20
8.41135
 30
0.0
 40
0.00984722
 41
0.00984722
  0
VERTEX
  8
0
 10
10.4774
 20
8.30333
 30
0.0
 40
0.00984722
 41
0.00984722
  0
VERTEX
  8
0
 10
10.4872
 20
8.19558
 30
0.0
 40
0.00984722
 41
0.00984722
  0
VERTEX
  8
0
 10
10.5
 20
8.08811
 30
0.0
 40
0.00984722
 41
0.00984722
  0
VERTEX
  8
0
 10
10.5155
 20
7.98101
 30
0.0
 40
0.00984722
 41
0.00984722
  0
VERTEX
  8
0
 10
10.5339
 20
7.87435
 30
0.0
 40
0.00984722
 41
0.00984722
  0
VERTEX
  8
0
 10
10.555
 20
7.76824
 30
0.0
 40
0.00984722
 41
0.00984722
  0
VERTEX
  8
0
 10
10.5788
 20
7.66265
 30
0.0
 40
0.00984722
 41
0.00984722
  0
VERTEX
  8
0
 10
10.6055
 20
7.55778
 30
0.0
 40
0.00984722
 41
0.00984722
  0
VERTEX
  8
0
 10
10.6349
 20
7.45361
 30
0.0
 40
0.00984722
 41
0.00984722
  0
VERTEX
  8
0
 10
10.6669
 20
7.35026
 30
0.0
 40
0.00984722
 41
0.00984722
  0
VERTEX
  8
0
 10
10.7017
 20
7.24778
 30
0.0
 40
0.00984722
 41
0.00984722
  0
VERTEX
  8
0
 10
10.7392
 20
7.14626
 30
0.0
 40
0.00984722
 41
0.00984722
  0
VERTEX
  8
0
 10
10.7793
 20
7.04574
 30
0.0
 40
0.00984722
 41
0.00984722
  0
VERTEX
  8
0
 10
10.822
 20
6.94629
 30
0.0
 40
0.00984722
 41
0.00984722
  0
VERTEX
  8
0
 10
10.8673
 20
6.84804
 30
0.0
 40
0.00984722
 41
0.00984722
  0
VERTEX
  8
0
 10
10.9152
 20
6.75097
 30
0.0
 40
0.00984722
 41
0.00984722
  0
VERTEX
  8
0
 10
10.9656
 20
6.65517
 30
0.0
 40
0.00984722
 41
0.00984722
  0
VERTEX
  8
0
 10
11.0184
 20
6.56076
 30
0.0
 40
0.00984722
 41
0.00984722
  0
VERTEX
  8
0
 10
11.0738
 20
6.46778
 30
0.0
 40
0.00984722
 41
0.00984722
  0
VERTEX
  8
0
 10
11.1316
 20
6.37625
 30
0.0
 40
0.00984722
 41
0.00984722
  0
VERTEX
  8
0
 10
11.1917
 20
6.28624
 30
0.0
 40
0.00984722
 41
0.00984722
  0
VERTEX
  8
0
 10
11.2541
 20
6.19786
 30
0.0
 40
0.00984722
 41
0.00984722
  0
VERTEX
  8
0
 10
11.3188
 20
6.11117
 30
0.0
 40
0.00984722
 41
0.00984722
  0
VERTEX
  8
0
 10
11.3858
 20
6.02615
 30
0.0
 40
0.00984722
 41
0.00984722
  0
VERTEX
  8
0
 10
11.4551
 20
5.94299
 30
0.0
 40
0.00984722
 41
0.00984722
  0
VERTEX
  8
0
 10
11.5264
 20
5.8616
 30
0.0
 40
0.00984722
 41
0.00984722
  0
VERTEX
  8
0
 10
11.5999
 20
5.78212
 30
0.0
 40
0.00984722
 41
0.00984722
  0
VERTEX
  8
0
 10
11.6754
 20
5.70458
 30
0.0
 40
0.00984722
 41
0.00984722
  0
VERTEX
  8
0
 10
11.7529
 20
5.62907
 30
0.0
 40
0.00984722
 41
0.00984722
  0
VERTEX
  8
0
 10
11.8324
 20
5.55561
 30
0.0
 40
0.00984722
 41
0.00984722
  0
VERTEX
  8
0
 10
11.9137
 20
5.48426
 30
0.0
 40
0.00984722
 41
0.00984722
  0
VERTEX
  8
0
 10
11.997
 20
5.4151
 30
0.0
 40
0.00984722
 41
0.00984722
  0
VERTEX
  8
0
 10
12.0819
 20
5.3481
 30
0.0
 40
0.00984722
 41
0.00984722
  0
VERTEX
  8
0
 10
12.1687
 20
5.28331
 30
0.0
 40
0.00984722
 41
0.00984722
  0
VERTEX
  8
0
 10
12.2571
 20
5.22086
 30
0.0
 40
0.00984722
 41
0.00984722
  0
VERTEX
  8
0
 10
12.347
 20
5.16075
 30
0.0
 40
0.00984722
 41
0.00984722
  0
VERTEX
  8
0
 10
12.4385
 20
5.10297
 30
0.0
 40
0.00984722
 41
0.00984722
  0
VERTEX
  8
0
 10
12.5316
 20
5.04764
 30
0.0
 40
0.00984722
 41
0.00984722
  0
VERTEX
  8
0
 10
12.626
 20
4.99479
 30
0.0
 40
0.00984722
 41
0.00984722
  0
VERTEX
  8
0
 10
12.7217
 20
4.94439
 30
0.0
 40
0.00984722
 41
0.00984722
  0
VERTEX
  8
0
 10
12.8188
 20
4.89654
 30
0.0
 40
0.00984722
 41
0.00984722
  0
VERTEX
  8
0
 10
12.9171
 20
4.85124
 30
0.0
 40
0.00984722
 41
0.00984722
  0
VERTEX
  8
0
 10
13.0165
 20
4.80849
 30
0.0
 40
0.00984722
 41
0.00984722
  0
VERTEX
  8
0
 10
13.117
 20
4.76839
 30
0.0
 40
0.00984722
 41
0.00984722
  0
VERTEX
  8
0
 10
13.2186
 20
4.73096
 30
0.0
 40
0.00984722
 41
0.00984722
  0
VERTEX
  8
0
 10
13.3211
 20
4.69618
 30
0.0
 40
0.00984722
 41
0.00984722
  0
VERTEX
  8
0
 10
13.4244
 20
4.66407
 30
0.0
 40
0.00984722
 41
0.00984722
  0
VERTEX
  8
0
 10
13.5286
 20
4.63471
 30
0.0
 40
0.00984722
 41
0.00984722
  0
VERTEX
  8
0
 10
13.6335
 20
4.60807
 30
0.0
 40
0.00984722
 41
0.00984722
  0
VERTEX
  8
0
 10
13.739
 20
4.58415
 30
0.0
 40
0.00984722
 41
0.00984722
  0
VERTEX
  8
0
 10
13.8452
 20
4.56304
 30
0.0
 40
0.00984722
 41
0.00984722
  0
VERTEX
  8
0
 10
13.9518
 20
4.54471
 30
0.0
 40
0.00984722
 41
0.00984722
  0
VERTEX
  8
0
 10
14.0589
 20
4.52919
 30
0.0
 40
0.00984722
 41
0.00984722
  0
VERTEX
  8
0
 10
14.1664
 20
4.5165
 30
0.0
 40
0.00984722
 41
0.00984722
  0
VERTEX
  8
0
 10
14.2742
 20
4.50657
 30
0.0
 40
0.00984722
 41
0.00984722
  0
VERTEX
  8
0
 10
14.3822
 20
4.49951
 30
0.0
 40
0.00984722
 41
0.00984722
  0
VERTEX
  8
0
 10
14.4903
 20
4.49522
 30
0.0
 40
0.00984722
 41
0.00984722
  0
VERTEX
  8
0
 10
14.5985
 20
4.49382
 30
0.0
 40
0.00984722
 41
0.00984722
  0
VERTEX
  8
0
 10
14.7067
 20
4.49522
 30
0.0
 40
0.00984722
 41
0.00984722
  0
VERTEX
  8
0
 10
14.8149
 20
4.49951
 30
0.0
 40
0.00984722
 41
0.00984722
  0
VERTEX
  8
0
 10
14.9228
 20
4.50657
 30
0.0
 40
0.00984722
 41
0.00984722
  0
VERTEX
  8
0
 10
15.0306
 20
4.5165
 30
0.0
 40
0.00984722
 41
0.00984722
  0
VERTEX
  8
0
 10
15.1381
 20
4.52919
 30
0.0
 40
0.00984722
 41
0.00984722
  0
VERTEX
  8
0
 10
15.2451
 20
4.54471
 30
0.0
 40
0.00984722
 41
0.00984722
  0
VERTEX
  8
0
 10
15.3518
 20
4.56304
 30
0.0
 40
0.00984722
 41
0.00984722
  0
VERTEX
  8
0
 10
15.4579
 20
4.58415
 30
0.0
 40
0.00984722
 41
0.00984722
  0
VERTEX
  8
0
 10
15.5635
 20
4.60807
 30
0.0
 40
0.00984722
 41
0.00984722
  0
VERTEX
  8
0
 10
15.6685
 20
4.63471
 30
0.0
 40
0.00984722
 41
0.00984722
  0
VERTEX
  8
0
 10
15.7726
 20
4.66407
 30
0.0
 40
0.00984722
 41
0.00984722
  0
VERTEX
  8
0
 10
15.876
 20
4.69618
 30
0.0
 40
0.00984722
 41
0.00984722
  0
VERTEX
  8
0
 10
15.9785
 20
4.73096
 30
0.0
 40
0.00984722
 41
0.00984722
  0
VERTEX
  8
0
 10
16.0799
 20
4.76839
 30
0.0
 40
0.00984722
 41
0.00984722
  0
VERTEX
  8
0
 10
16.1804
 20
4.80849
 30
0.0
 40
0.00984722
 41
0.00984722
  0
VERTEX
  8
0
 10
16.2799
 20
4.85124
 30
0.0
 40
0.00984722
 41
0.00984722
  0
VERTEX
  8
0
 10
16.3782
 20
4.89654
 30
0.0
 40
0.00984722
 41
0.00984722
  0
VERTEX
  8
0
 10
16.4751
 20
4.94439
 30
0.0
 40
0.00984722
 41
0.00984722
  0
VERTEX
  8
0
 10
16.571
 20
4.99479
 30
0.0
 40
0.00984722
 41
0.00984722
  0
VERTEX
  8
0
 10
16.6654
 20
5.04764
 30
0.0
 40
0.00984722
 41
0.00984722
  0
VERTEX
  8
0
 10
16.7585
 20
5.10297
 30
0.0
 40
0.00984722
 41
0.00984722
  0
VERTEX
  8
0
 10
16.85
 20
5.16075
 30
0.0
 40
0.00984722
 41
0.00984722
  0
VERTEX
  8
0
 10
16.94
 20
5.22086
 30
0.0
 40
0.00984722
 41
0.00984722
  0
VERTEX
  8
0
 10
17.0283
 20
5.28331
 30
0.0
 40
0.00984722
 41
0.00984722
  0
VERTEX
  8
0
 10
17.115
 20
5.3481
 30
0.0
 40
0.00984722
 41
0.00984722
  0
VERTEX
  8
0
 10
17.2
 20
5.4151
 30
0.0
 40
0.00984722
 41
0.00984722
  0
VERTEX
  8
0
 10
17.2832
 20
5.48426
 30
0.0
 40
0.00984722
 41
0.00984722
  0
VERTEX
  8
0
 10
17.3646
 20
5.55561
 30
0.0
 40
0.00984722
 41
0.00984722
  0
VERTEX
  8
0
 10
17.444
 20
5.62907
 30
0.0
 40
0.00984722
 41
0.00984722
  0
VERTEX
  8
0
 10
17.5215
 20
5.70458
 30
0.0
 40
0.00984722
 41
0.00984722
  0
VERTEX
  8
0
 10
17.5971
 20
5.78212
 30
0.0
 40
0.00984722
 41
0.00984722
  0
VERTEX
  8
0
 10
17.6706
 20
5.8616
 30
0.0
 40
0.00984722
 41
0.00984722
  0
VERTEX
  8
0
 10
17.7418
 20
5.94299
 30
0.0
 40
0.00984722
 41
0.00984722
  0
VERTEX
  8
0
 10
17.8111
 20
6.02615
 30
0.0
 40
0.00984722
 41
0.00984722
  0
VERTEX
  8
0
 10
17.8781
 20
6.11117
 30
0.0
 40
0.00984722
 41
0.00984722
  0
VERTEX
  8
0
 10
17.9429
 20
6.19786
 30
0.0
 40
0.00984722
 41
0.00984722
  0
VERTEX
  8
0
 10
18.0053
 20
6.28624
 30
0.0
 40
0.00984722
 41
0.00984722
  0
VERTEX
  8
0
 10
18.0654
 20
6.37625
 30
0.0
 40
0.00984722
 41
0.00984722
  0
VERTEX
  8
0
 10
18.1232
 20
6.46778
 30
0.0
 40
0.00984722
 41
0.00984722
  0
VERTEX
  8
0
 10
18.1785
 20
6.56076
 30
0.0
 40
0.00984722
 41
0.00984722
  0
VERTEX
  8
0
 10
18.2314
 20
6.65517
 30
0.0
 40
0.00984722
 41
0.00984722
  0
VERTEX
  8
0
 10
18.2818
 20
6.75097
 30
0.0
 40
0.00984722
 41
0.00984722
  0
VERTEX
  8
0
 10
18.3296
 20
6.84804
 30
0.0
 40
0.00984722
 41
0.00984722
  0
VERTEX
  8
0
 10
18.375
 20
6.94629
 30
0.0
 40
0.00984722
 41
0.00984722
  0
VERTEX
  8
0
 10
18.4176
 20
7.04574
 30
0.0
 40
0.00984722
 41
0.00984722
  0
VERTEX
  8
0
 10
18.4578
 20
7.14626
 30
0.0
 40
0.00984722
 41
0.00984722
  0
VERTEX
  8
0
 10
18.4953
 20
7.24778
 30
0.0
 40
0.00984722
 41
0.00984722
  0
VERTEX
  8
0
 10
18.53
 20
7.35026
 30
0.0
 40
0.00984722
 41
0.00984722
  0
VERTEX
  8
0
 10
18.5621
 20
7.45361
 30
0.0
 40
0.00984722
 41
0.00984722
  0
VERTEX
  8
0
 10
18.5915
 20
7.55778
 30
0.0
 40
0.00984722
 41
0.00984722
  0
VERTEX
  8
0
 10
18.6181
 20
7.66265
 30
0.0
 40
0.00984722
 41
0.00984722
  0
VERTEX
  8
0
 10
18.6421
 20
7.76824
 30
0.0
 40
0.00984722
 41
0.00984722
  0
VERTEX
  8
0
 10
18.6632
 20
7.87435
 30
0.0
 40
0.00984722
 41
0.00984722
  0
VERTEX
  8
0
 10
18.6814
 20
7.98101
 30
0.0
 40
0.00984722
 41
0.00984722
  0
VERTEX
  8
0
 10
18.6969
 20
8.08811
 30
0.0
 40
0.00984722
 41
0.00984722
  0
VERTEX
  8
0
 10
18.7097
 20
8.19558
 30
0.0
 40
0.00984722
 41
0.00984722
  0
VERTEX
  8
0
 10
18.7196
 20
8.30333
 30
0.0
 40
0.00984722
 41
0.00984722
  0
VERTEX
  8
0
 10
18.7267
 20
8.41135
 30
0.0
 40
0.00984722
 41
0.00984722
  0
VERTEX
  8
0
 10
18.731
 20
8.51947
 30
0.0
 40
0.00984722
 41
0.00984722
  0
VERTEX
  8
0
 10
18.7324
 20
8.62771
 30
0.0
 40
0.00984722
 41
0.00984722
  0
SEQEND
 8
0
  0
POLYLINE
  8
0
 62
     0
 66
     1
 10
0
 20
0
 30
0.0
 70
     1
 40
0.709
 41
0.709
  0
VERTEX
  8
0
 10
18.8899
 20
8.62771
 30
0.0
 40
0.00984722
 41
0.00984722
  0
VERTEX
  8
0
 10
18.8883
 20
8.74001
 30
0.0
 40
0.00984722
 41
0.00984722
  0
VERTEX
  8
0
 10
18.8839
 20
8.85226
 30
0.0
 40
0.00984722
 41
0.00984722
  0
VERTEX
  8
0
 10
18.8765
 20
8.96436
 30
0.0
 40
0.00984722
 41
0.00984722
  0
VERTEX
  8
0
 10
18.8664
 20
9.07628
 30
0.0
 40
0.00984722
 41
0.00984722
  0
VERTEX
  8
0
 10
18.8531
 20
9.18782
 30
0.0
 40
0.00984722
 41
0.00984722
  0
VERTEX
  8
0
 10
18.8369
 20
9.29899
 30
0.0
 40
0.00984722
 41
0.00984722
  0
VERTEX
  8
0
 10
18.8179
 20
9.40972
 30
0.0
 40
0.00984722
 41
0.00984722
  0
VERTEX
  8
0
 10
18.7961
 20
9.51992
 30
0.0
 40
0.00984722
 41
0.00984722
  0
VERTEX
  8
0
 10
18.7713
 20
9.6295
 30
0.0
 40
0.00984722
 41
0.00984722
  0
VERTEX
  8
0
 10
18.7436
 20
9.73839
 30
0.0
 40
0.00984722
 41
0.00984722
  0
VERTEX
  8
0
 10
18.7131
 20
9.84651
 30
0.0
 40
0.00984722
 41
0.00984722
  0
VERTEX
  8
0
 10
18.6799
 20
9.95378
 30
0.0
 40
0.00984722
 41
0.00984722
  0
VERTEX
  8
0
 10
18.6436
 20
10.0602
 30
0.0
 40
0.00984722
 41
0.00984722
  0
VERTEX
  8
0
 10
18.6047
 20
10.1656
 30
0.0
 40
0.00984722
 41
0.00984722
  0
VERTEX
  8
0
 10
18.5632
 20
10.2699
 30
0.0
 40
0.00984722
 41
0.00984722
  0
VERTEX
  8
0
 10
18.5189
 20
10.3732
 30
0.0
 40
0.00984722
 41
0.00984722
  0
VERTEX
  8
0
 10
18.4718
 20
10.4752
 30
0.0
 40
0.00984722
 41
0.00984722
  0
VERTEX
  8
0
 10
18.4221
 20
10.5759
 30
0.0
 40
0.00984722
 41
0.00984722
  0
VERTEX
  8
0
 10
18.3699
 20
10.6753
 30
0.0
 40
0.00984722
 41
0.00984722
  0
VERTEX
  8
0
 10
18.3149
 20
10.7733
 30
0.0
 40
0.00984722
 41
0.00984722
  0
VERTEX
  8
0
 10
18.2575
 20
10.8699
 30
0.0
 40
0.00984722
 41
0.00984722
  0
VERTEX
  8
0
 10
18.1975
 20
10.9649
 30
0.0
 40
0.00984722
 41
0.00984722
  0
VERTEX
  8
0
 10
18.1351
 20
11.0583
 30
0.0
 40
0.00984722
 41
0.00984722
  0
VERTEX
  8
0
 10
18.0703
 20
11.1501
 30
0.0
 40
0.00984722
 41
0.00984722
  0
VERTEX
  8
0
 10
18.0031
 20
11.2401
 30
0.0
 40
0.00984722
 41
0.00984722
  0
VERTEX
  8
0
 10
17.9335
 20
11.3283
 30
0.0
 40
0.00984722
 41
0.00984722
  0
VERTEX
  8
0
 10
17.8617
 20
11.4147
 30
0.0
 40
0.00984722
 41
0.00984722
  0
VERTEX
  8
0
 10
17.7875
 20
11.4992
 30
0.0
 40
0.00984722
 41
0.00984722
  0
VERTEX
  8
0
 10
17.7112
 20
11.5817
 30
0.0
 40
0.00984722
 41
0.00984722
  0
VERTEX
  8
0
 10
17.6329
 20
11.6621
 30
0.0
 40
0.00984722
 41
0.00984722
  0
VERTEX
  8
0
 10
17.5525
 20
11.7405
 30
0.0
 40
0.00984722
 41
0.00984722
  0
VERTEX
  8
0
 10
17.47
 20
11.8168
 30
0.0
 40
0.00984722
 41
0.00984722
  0
VERTEX
  8
0
 10
17.3854
 20
11.8908
 30
0.0
 40
0.00984722
 41
0.00984722
  0
VERTEX
  8
0
 10
17.2992
 20
11.9627
 30
0.0
 40
0.00984722
 41
0.00984722
  0
VERTEX
  8
0
 10
17.2108
 20
12.0322
 30
0.0
 40
0.00984722
 41
0.00984722
  0
VERTEX
  8
0
 10
17.1208
 20
12.0994
 30
0.0
 40
0.00984722
 41
0.00984722
  0
VERTEX
  8
0
 10
17.0292
 20
12.1643
 30
0.0
 40
0.00984722
 41
0.00984722
  0
VERTEX
  8
0
 10
16.9357
 20
12.2267
 30
0.0
 40
0.00984722
 41
0.00984722
  0
VERTEX
  8
0
 10
16.8407
 20
12.2867
 30
0.0
 40
0.00984722
 41
0.00984722
  0
VERTEX
  8
0
 10
16.7442
 20
12.3441
 30
0.0
 40
0.00984722
 41
0.00984722
  0
VERTEX
  8
0
 10
16.6461
 20
12.399
 30
0.0
 40
0.00984722
 41
0.00984722
  0
VERTEX
  8
0
 10
16.5467
 20
12.4513
 30
0.0
 40
0.00984722
 41
0.00984722
  0
VERTEX
  8
0
 10
16.446
 20
12.501
 30
0.0
 40
0.00984722
 41
0.00984722
  0
VERTEX
  8
0
 10
16.3439
 20
12.548
 30
0.0
 40
0.00984722
 41
0.00984722
  0
VERTEX
  8
0
 10
16.2407
 20
12.5924
 30
0.0
 40
0.00984722
 41
0.00984722
  0
VERTEX
  8
0
 10
16.1364
 20
12.634
 30
0.0
 40
0.00984722
 41
0.00984722
  0
VERTEX
  8
0
 10
16.031
 20
12.6729
 30
0.0
 40
0.00984722
 41
0.00984722
  0
VERTEX
  8
0
 10
15.9246
 20
12.709
 30
0.0
 40
0.00984722
 41
0.00984722
  0
VERTEX
  8
0
 10
15.8172
 20
12.7423
 30
0.0
 40
0.00984722
 41
0.00984722
  0
VERTEX
  8
0
 10
15.7092
 20
12.7728
 30
0.0
 40
0.00984722
 41
0.00984722
  0
VERTEX
  8
0
 10
15.6003
 20
12.8005
 30
0.0
 40
0.00984722
 41
0.00984722
  0
VERTEX
  8
0
 10
15.4907
 20
12.8253
 30
0.0
 40
0.00984722
 41
0.00984722
  0
VERTEX
  8
0
 10
15.3806
 20
12.8472
 30
0.0
 40
0.00984722
 41
0.00984722
  0
VERTEX
  8
0
 10
15.2699
 20
12.8662
 30
0.0
 40
0.00984722
 41
0.00984722
  0
VERTEX
  8
0
 10
15.1586
 20
12.8823
 30
0.0
 40
0.00984722
 41
0.00984722
  0
VERTEX
  8
0
 10
15.0471
 20
12.8955
 30
0.0
 40
0.00984722
 41
0.00984722
  0
VERTEX
  8
0
 10
14.9351
 20
12.9058
 30
0.0
 40
0.00984722
 41
0.00984722
  0
VERTEX
  8
0
 10
14.8231
 20
12.9131
 30
0.0
 40
0.00984722
 41
0.00984722
  0
VERTEX
  8
0
 10
14.7108
 20
12.9175
 30
0.0
 40
0.00984722
 41
0.00984722
  0
VERTEX
  8
0
 10
14.5985
 20
12.919
 30
0.0
 40
0.00984722
 41
0.00984722
  0
VERTEX
  8
0
 10
14.4861
 20
12.9175
 30
0.0
 40
0.00984722
 41
0.00984722
  0
VERTEX
  8
0
 10
14.3739
 20
12.9131
 30
0.0
 40
0.00984722
 41
0.00984722
  0
VERTEX
  8
0
 10
14.2618
 20
12.9058
 30
0.0
 40
0.00984722
 41
0.00984722
  0
VERTEX
  8
0
 10
14.1499
 20
12.8955
 30
0.0
 40
0.00984722
 41
0.00984722
  0
VERTEX
  8
0
 10
14.0383
 20
12.8823
 30
0.0
 40
0.00984722
 41
0.00984722
  0
VERTEX
  8
0
 10
13.9271
 20
12.8662
 30
0.0
 40
0.00984722
 41
0.00984722
  0
VERTEX
  8
0
 10
13.8165
 20
12.8472
 30
0.0
 40
0.00984722
 41
0.00984722
  0
VERTEX
  8
0
 10
13.7063
 20
12.8253
 30
0.0
 40
0.00984722
 41
0.00984722
  0
VERTEX
  8
0
 10
13.5967
 20
12.8005
 30
0.0
 40
0.00984722
 41
0.00984722
  0
VERTEX
  8
0
 10
13.4878
 20
12.7728
 30
0.0
 40
0.00984722
 41
0.00984722
  0
VERTEX
  8
0
 10
13.3797
 20
12.7423
 30
0.0
 40
0.00984722
 41
0.00984722
  0
VERTEX
  8
0
 10
13.2724
 20
12.709
 30
0.0
 40
0.00984722
 41
0.00984722
  0
VERTEX
  8
0
 10
13.166
 20
12.6729
 30
0.0
 40
0.00984722
 41
0.00984722
  0
VERTEX
  8
0
 10
13.0606
 20
12.634
 30
0.0
 40
0.00984722
 41
0.00984722
  0
VERTEX
  8
0
 10
12.9563
 20
12.5924
 30
0.0
 40
0.00984722
 41
0.00984722
  0
VERTEX
  8
0
 10
12.853
 20
12.548
 30
0.0
 40
0.00984722
 41
0.00984722
  0
VERTEX
  8
0
 10
12.751
 20
12.501
 30
0.0
 40
0.00984722
 41
0.00984722
  0
VERTEX
  8
0
 10
12.6503
 20
12.4513
 30
0.0
 40
0.00984722
 41
0.00984722
  0
VERTEX
  8
0
 10
12.5508
 20
12.399
 30
0.0
 40
0.00984722
 41
0.00984722
  0
VERTEX
  8
0
 10
12.4528
 20
12.3441
 30
0.0
 40
0.00984722
 41
0.00984722
  0
VERTEX
  8
0
 10
12.3563
 20
12.2867
 30
0.0
 40
0.00984722
 41
0.00984722
  0
VERTEX
  8
0
 10
12.2612
 20
12.2267
 30
0.0
 40
0.00984722
 41
0.00984722
  0
VERTEX
  8
0
 10
12.1679
 20
12.1643
 30
0.0
 40
0.00984722
 41
0.00984722
  0
VERTEX
  8
0
 10
12.0761
 20
12.0994
 30
0.0
 40
0.00984722
 41
0.00984722
  0
VERTEX
  8
0
 10
11.9861
 20
12.0322
 30
0.0
 40
0.00984722
 41
0.00984722
  0
VERTEX
  8
0
 10
11.8978
 20
11.9627
 30
0.0
 40
0.00984722
 41
0.00984722
  0
VERTEX
  8
0
 10
11.8115
 20
11.8908
 30
0.0
 40
0.00984722
 41
0.00984722
  0
VERTEX
  8
0
 10
11.727
 20
11.8168
 30
0.0
 40
0.00984722
 41
0.00984722
  0
VERTEX
  8
0
 10
11.6445
 20
11.7405
 30
0.0
 40
0.00984722
 41
0.00984722
  0
VERTEX
  8
0
 10
11.5641
 20
11.6621
 30
0.0
 40
0.00984722
 41
0.00984722
  0
VERTEX
  8
0
 10
11.4856
 20
11.5817
 30
0.0
 40
0.00984722
 41
0.00984722
  0
VERTEX
  8
0
 10
11.4094
 20
11.4992
 30
0.0
 40
0.00984722
 41
0.00984722
  0
VERTEX
  8
0
 10
11.3353
 20
11.4147
 30
0.0
 40
0.00984722
 41
0.00984722
  0
VERTEX
  8
0
 10
11.2635
 20
11.3283
 30
0.0
 40
0.00984722
 41
0.00984722
  0
VERTEX
  8
0
 10
11.1939
 20
11.2401
 30
0.0
 40
0.00984722
 41
0.00984722
  0
VERTEX
  8
0
 10
11.1267
 20
11.1501
 30
0.0
 40
0.00984722
 41
0.00984722
  0
VERTEX
  8
0
 10
11.0618
 20
11.0583
 30
0.0
 40
0.00984722
 41
0.00984722
  0
VERTEX
  8
0
 10
10.9995
 20
10.9649
 30
0.0
 40
0.00984722
 41
0.00984722
  0
VERTEX
  8
0
 10
10.9395
 20
10.8699
 30
0.0
 40
0.00984722
 41
0.00984722
  0
VERTEX
  8
0
 10
10.8821
 20
10.7733
 30
0.0
 40
0.00984722
 41
0.00984722
  0
VERTEX
  8
0
 10
10.8272
 20
10.6753
 30
0.0
 40
0.00984722
 41
0.00984722
  0
VERTEX
  8
0
 10
10.7748
 20
10.5759
 30
0.0
 40
0.00984722
 41
0.00984722
  0
VERTEX
  8
0
 10
10.7252
 20
10.4752
 30
0.0
 40
0.00984722
 41
0.00984722
  0
VERTEX
  8
0
 10
10.6782
 20
10.3732
 30
0.0
 40
0.00984722
 41
0.00984722
  0
VERTEX
  8
0
 10
10.6338
 20
10.2699
 30
0.0
 40
0.00984722
 41
0.00984722
  0
VERTEX
  8
0
 10
10.5922
 20
10.1656
 30
0.0
 40
0.00984722
 41
0.00984722
  0
VERTEX
  8
0
 10
10.5533
 20
10.0602
 30
0.0
 40
0.00984722
 41
0.00984722
  0
VERTEX
  8
0
 10
10.5172
 20
9.95378
 30
0.0
 40
0.00984722
 41
0.00984722
  0
VERTEX
  8
0
 10
10.4838
 20
9.84651
 30
0.0
 40
0.00984722
 41
0.00984722
  0
VERTEX
  8
0
 10
10.4534
 20
9.73839
 30
0.0
 40
0.00984722
 41
0.00984722
  0
VERTEX
  8
0
 10
10.4257
 20
9.6295
 30
0.0
 40
0.00984722
 41
0.00984722
  0
VERTEX
  8
0
 10
10.4009
 20
9.51992
 30
0.0
 40
0.00984722
 41
0.00984722
  0
VERTEX
  8
0
 10
10.379
 20
9.40972
 30
0.0
 40
0.00984722
 41
0.00984722
  0
VERTEX
  8
0
 10
10.36
 20
9.29899
 30
0.0
 40
0.00984722
 41
0.00984722
  0
VERTEX
  8
0
 10
10.3439
 20
9.18782
 30
0.0
 40
0.00984722
 41
0.00984722
  0
VERTEX
  8
0
 10
10.3307
 20
9.07628
 30
0.0
 40
0.00984722
 41
0.00984722
  0
VERTEX
  8
0
 10
10.3204
 20
8.96436
 30
0.0
 40
0.00984722
 41
0.00984722
  0
VERTEX
  8
0
 10
10.313
 20
8.85226
 30
0.0
 40
0.00984722
 41
0.00984722
  0
VERTEX
  8
0
 10
10.3086
 20
8.74001
 30
0.0
 40
0.00984722
 41
0.00984722
  0
VERTEX
  8
0
 10
10.3071
 20
8.62771
 30
0.0
 40
0.00984722
 41
0.00984722
  0
VERTEX
  8
0
 10
10.3086
 20
8.51535
 30
0.0
 40
0.00984722
 41
0.00984722
  0
VERTEX
  8
0
 10
10.313
 20
8.4031
 30
0.0
 40
0.00984722
 41
0.00984722
  0
VERTEX
  8
0
 10
10.3204
 20
8.29101
 30
0.0
 40
0.00984722
 41
0.00984722
  0
VERTEX
  8
0
 10
10.3307
 20
8.17914
 30
0.0
 40
0.00984722
 41
0.00984722
  0
VERTEX
  8
0
 10
10.3439
 20
8.06754
 30
0.0
 40
0.00984722
 41
0.00984722
  0
VERTEX
  8
0
 10
10.36
 20
7.95638
 30
0.0
 40
0.00984722
 41
0.00984722
  0
VERTEX
  8
0
 10
10.379
 20
7.84565
 30
0.0
 40
0.00984722
 41
0.00984722
  0
VERTEX
  8
0
 10
10.4009
 20
7.73546
 30
0.0
 40
0.00984722
 41
0.00984722
  0
VERTEX
  8
0
 10
10.4257
 20
7.62592
 30
0.0
 40
0.00984722
 41
0.00984722
  0
VERTEX
  8
0
 10
10.4534
 20
7.51699
 30
0.0
 40
0.00984722
 41
0.00984722
  0
VERTEX
  8
0
 10
10.4838
 20
7.4089
 30
0.0
 40
0.00984722
 41
0.00984722
  0
VERTEX
  8
0
 10
10.5172
 20
7.3016
 30
0.0
 40
0.00984722
 41
0.00984722
  0
VERTEX
  8
0
 10
10.5533
 20
7.19521
 30
0.0
 40
0.00984722
 41
0.00984722
  0
VERTEX
  8
0
 10
10.5922
 20
7.08979
 30
0.0
 40
0.00984722
 41
0.00984722
  0
VERTEX
  8
0
 10
10.6338
 20
6.98546
 30
0.0
 40
0.00984722
 41
0.00984722
  0
VERTEX
  8
0
 10
10.6782
 20
6.88226
 30
0.0
 40
0.00984722
 41
0.00984722
  0
VERTEX
  8
0
 10
10.7252
 20
6.78022
 30
0.0
 40
0.00984722
 41
0.00984722
  0
VERTEX
  8
0
 10
10.7748
 20
6.67947
 30
0.0
 40
0.00984722
 41
0.00984722
  0
VERTEX
  8
0
 10
10.8272
 20
6.58003
 30
0.0
 40
0.00984722
 41
0.00984722
  0
VERTEX
  8
0
 10
10.8821
 20
6.48204
 30
0.0
 40
0.00984722
 41
0.00984722
  0
VERTEX
  8
0
 10
10.9395
 20
6.38547
 30
0.0
 40
0.00984722
 41
0.00984722
  0
VERTEX
  8
0
 10
10.9995
 20
6.29047
 30
0.0
 40
0.00984722
 41
0.00984722
  0
VERTEX
  8
0
 10
11.0618
 20
6.19706
 30
0.0
 40
0.00984722
 41
0.00984722
  0
VERTEX
  8
0
 10
11.1267
 20
6.10531
 30
0.0
 40
0.00984722
 41
0.00984722
  0
VERTEX
  8
0
 10
11.1939
 20
6.01531
 30
0.0
 40
0.00984722
 41
0.00984722
  0
VERTEX
  8
0
 10
11.2635
 20
5.92708
 30
0.0
 40
0.00984722
 41
0.00984722
  0
VERTEX
  8
0
 10
11.3353
 20
5.84071
 30
0.0
 40
0.00984722
 41
0.00984722
  0
VERTEX
  8
0
 10
11.4094
 20
5.75624
 30
0.0
 40
0.00984722
 41
0.00984722
  0
VERTEX
  8
0
 10
11.4856
 20
5.67372
 30
0.0
 40
0.00984722
 41
0.00984722
  0
VERTEX
  8
0
 10
11.5641
 20
5.59326
 30
0.0
 40
0.00984722
 41
0.00984722
  0
VERTEX
  8
0
 10
11.6445
 20
5.51486
 30
0.0
 40
0.00984722
 41
0.00984722
  0
VERTEX
  8
0
 10
11.727
 20
5.43858
 30
0.0
 40
0.00984722
 41
0.00984722
  0
VERTEX
  8
0
 10
11.8115
 20
5.36453
 30
0.0
 40
0.00984722
 41
0.00984722
  0
VERTEX
  8
0
 10
11.8978
 20
5.29269
 30
0.0
 40
0.00984722
 41
0.00984722
  0
VERTEX
  8
0
 10
11.9861
 20
5.22314
 30
0.0
 40
0.00984722
 41
0.00984722
  0
VERTEX
  8
0
 10
12.0761
 20
5.15593
 30
0.0
 40
0.00984722
 41
0.00984722
  0
VERTEX
  8
0
 10
12.1679
 20
5.0911
 30
0.0
 40
0.00984722
 41
0.00984722
  0
VERTEX
  8
0
 10
12.2612
 20
5.02869
 30
0.0
 40
0.00984722
 41
0.00984722
  0
VERTEX
  8
0
 10
12.3563
 20
4.96869
 30
0.0
 40
0.00984722
 41
0.00984722
  0
VERTEX
  8
0
 10
12.4528
 20
4.91129
 30
0.0
 40
0.00984722
 41
0.00984722
  0
VERTEX
  8
0
 10
12.5508
 20
4.85639
 30
0.0
 40
0.00984722
 41
0.00984722
  0
VERTEX
  8
0
 10
12.6503
 20
4.8041
 30
0.0
 40
0.00984722
 41
0.00984722
  0
VERTEX
  8
0
 10
12.751
 20
4.75439
 30
0.0
 40
0.00984722
 41
0.00984722
  0
VERTEX
  8
0
 10
12.853
 20
4.70736
 30
0.0
 40
0.00984722
 41
0.00984722
  0
VERTEX
  8
0
 10
12.9563
 20
4.66303
 30
0.0
 40
0.00984722
 41
0.00984722
  0
VERTEX
  8
0
 10
13.0606
 20
4.62136
 30
0.0
 40
0.00984722
 41
0.00984722
  0
VERTEX
  8
0
 10
13.166
 20
4.58251
 30
0.0
 40
0.00984722
 41
0.00984722
  0
VERTEX
  8
0
 10
13.2724
 20
4.54639
 30
0.0
 40
0.00984722
 41
0.00984722
  0
VERTEX
  8
0
 10
13.3797
 20
4.51307
 30
0.0
 40
0.00984722
 41
0.00984722
  0
VERTEX
  8
0
 10
13.4878
 20
4.48258
 30
0.0
 40
0.00984722
 41
0.00984722
  0
VERTEX
  8
0
 10
13.5967
 20
4.45492
 30
0.0
 40
0.00984722
 41
0.00984722
  0
VERTEX
  8
0
 10
13.7063
 20
4.43012
 30
0.0
 40
0.00984722
 41
0.00984722
  0
VERTEX
  8
0
 10
13.8165
 20
4.40821
 30
0.0
 40
0.00984722
 41
0.00984722
  0
VERTEX
  8
0
 10
13.9271
 20
4.38921
 30
0.0
 40
0.00984722
 41
0.00984722
  0
VERTEX
  8
0
 10
14.0383
 20
4.37304
 30
0.0
 40
0.00984722
 41
0.00984722
  0
VERTEX
  8
0
 10
14.1499
 20
4.35986
 30
0.0
 40
0.00984722
 41
0.00984722
  0
VERTEX
  8
0
 10
14.2618
 20
4.34956
 30
0.0
 40
0.00984722
 41
0.00984722
  0
VERTEX
  8
0
 10
14.3739
 20
4.34224
 30
0.0
 40
0.00984722
 41
0.00984722
  0
VERTEX
  8
0
 10
14.4861
 20
4.33783
 30
0.0
 40
0.00984722
 41
0.00984722
  0
VERTEX
  8
0
 10
14.5985
 20
4.33637
 30
0.0
 40
0.00984722
 41
0.00984722
  0
VERTEX
  8
0
 10
14.7108
 20
4.33783
 30
0.0
 40
0.00984722
 41
0.00984722
  0
VERTEX
  8
0
 10
14.8231
 20
4.34224
 30
0.0
 40
0.00984722
 41
0.00984722
  0
VERTEX
  8
0
 10
14.9351
 20
4.34956
 30
0.0
 40
0.00984722
 41
0.00984722
  0
VERTEX
  8
0
 10
15.0471
 20
4.35986
 30
0.0
 40
0.00984722
 41
0.00984722
  0
VERTEX
  8
0
 10
15.1586
 20
4.37304
 30
0.0
 40
0.00984722
 41
0.00984722
  0
VERTEX
  8
0
 10
15.2699
 20
4.38921
 30
0.0
 40
0.00984722
 41
0.00984722
  0
VERTEX
  8
0
 10
15.3806
 20
4.40821
 30
0.0
 40
0.00984722
 41
0.00984722
  0
VERTEX
  8
0
 10
15.4907
 20
4.43012
 30
0.0
 40
0.00984722
 41
0.00984722
  0
VERTEX
  8
0
 10
15.6003
 20
4.45492
 30
0.0
 40
0.00984722
 41
0.00984722
  0
VERTEX
  8
0
 10
15.7092
 20
4.48258
 30
0.0
 40
0.00984722
 41
0.00984722
  0
VERTEX
  8
0
 10
15.8172
 20
4.51307
 30
0.0
 40
0.00984722
 41
0.00984722
  0
VERTEX
  8
0
 10
15.9246
 20
4.54639
 30
0.0
 40
0.00984722
 41
0.00984722
  0
VERTEX
  8
0
 10
16.031
 20
4.58251
 30
0.0
 40
0.00984722
 41
0.00984722
  0
VERTEX
  8
0
 10
16.1364
 20
4.62136
 30
0.0
 40
0.00984722
 41
0.00984722
  0
VERTEX
  8
0
 10
16.2407
 20
4.66303
 30
0.0
 40
0.00984722
 41
0.00984722
  0
VERTEX
  8
0
 10
16.3439
 20
4.70736
 30
0.0
 40
0.00984722
 41
0.00984722
  0
VERTEX
  8
0
 10
16.446
 20
4.75439
 30
0.0
 40
0.00984722
 41
0.00984722
  0
VERTEX
  8
0
 10
16.5467
 20
4.8041
 30
0.0
 40
0.00984722
 41
0.00984722
  0
VERTEX
  8
0
 10
16.6461
 20
4.85639
 30
0.0
 40
0.00984722
 41
0.00984722
  0
VERTEX
  8
0
 10
16.7442
 20
4.91129
 30
0.0
 40
0.00984722
 41
0.00984722
  0
VERTEX
  8
0
 10
16.8407
 20
4.96869
 30
0.0
 40
0.00984722
 41
0.00984722
  0
VERTEX
  8
0
 10
16.9357
 20
5.02869
 30
0.0
 40
0.00984722
 41
0.00984722
  0
VERTEX
  8
0
 10
17.0292
 20
5.0911
 30
0.0
 40
0.00984722
 41
0.00984722
  0
VERTEX
  8
0
 10
17.1208
 20
5.15593
 30
0.0
 40
0.00984722
 41
0.00984722
  0
VERTEX
  8
0
 10
17.2108
 20
5.22314
 30
0.0
 40
0.00984722
 41
0.00984722
  0
VERTEX
  8
0
 10
17.2992
 20
5.29269
 30
0.0
 40
0.00984722
 41
0.00984722
  0
VERTEX
  8
0
 10
17.3854
 20
5.36453
 30
0.0
 40
0.00984722
 41
0.00984722
  0
VERTEX
  8
0
 10
17.47
 20
5.43858
 30
0.0
 40
0.00984722
 41
0.00984722
  0
VERTEX
  8
0
 10
17.5525
 20
5.51486
 30
0.0
 40
0.00984722
 41
0.00984722
  0
VERTEX
  8
0
 10
17.6329
 20
5.59326
 30
0.0
 40
0.00984722
 41
0.00984722
  0
VERTEX
  8
0
 10
17.7112
 20
5.67372
 30
0.0
 40
0.00984722
 41
0.00984722
  0
VERTEX
  8
0
 10
17.7875
 20
5.75624
 30
0.0
 40
0.00984722
 41
0.00984722
  0
VERTEX
  8
0
 10
17.8617
 20
5.84071
 30
0.0
 40
0.00984722
 41
0.00984722
  0
VERTEX
  8
0
 10
17.9335
 20
5.92708
 30
0.0
 40
0.00984722
 41
0.00984722
  0
VERTEX
  8
0
 10
18.0031
 20
6.01531
 30
0.0
 40
0.00984722
 41
0.00984722
  0
VERTEX
  8
0
 10
18.0703
 20
6.10531
 30
0.0
 40
0.00984722
 41
0.00984722
  0
VERTEX
  8
0
 10
18.1351
 20
6.19706
 30
0.0
 40
0.00984722
 41
0.00984722
  0
VERTEX
  8
0
 10
18.1975
 20
6.29047
 30
0.0
 40
0.00984722
 41
0.00984722
  0
VERTEX
  8
0
 10
18.2575
 20
6.38547
 30
0.0
 40
0.00984722
 41
0.00984722
  0
VERTEX
  8
0
 10
18.3149
 20
6.48204
 30
0.0
 40
0.00984722
 41
0.00984722
  0
VERTEX
  8
0
 10
18.3699
 20
6.58003
 30
0.0
 40
0.00984722
 41
0.00984722
  0
VERTEX
  8
0
 10
18.4221
 20
6.67947
 30
0.0
 40
0.00984722
 41
0.00984722
  0
VERTEX
  8
0
 10
18.4718
 20
6.78022
 30
0.0
 40
0.00984722
 41
0.00984722
  0
VERTEX
  8
0
 10
18.5189
 20
6.88226
 30
0.0
 40
0.00984722
 41
0.00984722
  0
VERTEX
  8
0
 10
18.5632
 20
6.98546
 30
0.0
 40
0.00984722
 41
0.00984722
  0
VERTEX
  8
0
 10
18.6047
 20
7.08979
 30
0.0
 40
0.00984722
 41
0.00984722
  0
VERTEX
  8
0
 10
18.6436
 20
7.19521
 30
0.0
 40
0.00984722
 41
0.00984722
  0
VERTEX
  8
0
 10
18.6799
 20
7.3016
 30
0.0
 40
0.00984722
 41
0.00984722
  0
VERTEX
  8
0
 10
18.7131
 20
7.4089
 30
0.0
 40
0.00984722
 41
0.00984722
  0
VERTEX
  8
0
 10
18.7436
 20
7.51699
 30
0.0
 40
0.00984722
 41
0.00984722
  0
VERTEX
  8
0
 10
18.7713
 20
7.62592
 30
0.0
 40
0.00984722
 41
0.00984722
  0
VERTEX
  8
0
 10
18.7961
 20
7.73546
 30
0.0
 40
0.00984722
 41
0.00984722
  0
VERTEX
  8
0
 10
18.8179
 20
7.84565
 30
0.0
 40
0.00984722
 41
0.00984722
  0
VERTEX
  8
0
 10
18.8369
 20
7.95638
 30
0.0
 40
0.00984722
 41
0.00984722
  0
VERTEX
  8
0
 10
18.8531
 20
8.06754
 30
0.0
 40
0.00984722
 41
0.00984722
  0
VERTEX
  8
0
 10
18.8664
 20
8.17914
 30
0.0
 40
0.00984722
 41
0.00984722
  0
VERTEX
  8
0
 10
18.8765
 20
8.29101
 30
0.0
 40
0.00984722
 41
0.00984722
  0
VERTEX
  8
0
 10
18.8839
 20
8.4031
 30
0.0
 40
0.00984722
 41
0.00984722
  0
VERTEX
  8
0
 10
18.8883
 20
8.51535
 30
0.0
 40
0.00984722
 41
0.00984722
  0
VERTEX
  8
0
 10
18.8899
 20
8.62771
 30
0.0
 40
0.00984722
 41
0.00984722
  0
SEQEND
 8
0
  0
POLYLINE
  8
0
 62
     0
 66
     1
 10
0
 20
0
 30
0.0
 70
     1
 40
0.709
 41
0.709
  0
VERTEX
  8
0
 10
20.504
 20
8.62771
 30
0.0
 40
0.00984722
 41
0.00984722
  0
VERTEX
  8
0
 10
20.5019
 20
8.78228
 30
0.0
 40
0.00984722
 41
0.00984722
  0
VERTEX
  8
0
 10
20.4958
 20
8.93674
 30
0.0
 40
0.00984722
 41
0.00984722
  0
VERTEX
  8
0
 10
20.4858
 20
9.09104
 30
0.0
 40
0.00984722
 41
0.00984722
  0
VERTEX
  8
0
 10
20.4717
 20
9.24496
 30
0.0
 40
0.00984722
 41
0.00984722
  0
VERTEX
  8
0
 10
20.4535
 20
9.39849
 30
0.0
 40
0.00984722
 41
0.00984722
  0
VERTEX
  8
0
 10
20.4313
 20
9.55149
 30
0.0
 40
0.00984722
 41
0.00984722
  0
VERTEX
  8
0
 10
20.4051
 20
9.70389
 30
0.0
 40
0.00984722
 41
0.00984722
  0
VERTEX
  8
0
 10
20.375
 20
9.85553
 30
0.0
 40
0.00984722
 41
0.00984722
  0
VERTEX
  8
0
 10
20.3408
 20
10.0063
 30
0.0
 40
0.00984722
 41
0.00984722
  0
VERTEX
  8
0
 10
20.3028
 20
10.1561
 30
0.0
 40
0.00984722
 41
0.00984722
  0
VERTEX
  8
0
 10
20.2608
 20
10.305
 30
0.0
 40
0.00984722
 41
0.00984722
  0
VERTEX
  8
0
 10
20.215
 20
10.4526
 30
0.0
 40
0.00984722
 41
0.00984722
  0
VERTEX
  8
0
 10
20.1653
 20
10.599
 30
0.0
 40
0.00984722
 41
0.00984722
  0
VERTEX
  8
0
 10
20.1118
 20
10.744
 30
0.0
 40
0.00984722
 41
0.00984722
  0
VERTEX
  8
0
 10
20.0544
 20
10.8876
 30
0.0
 40
0.00984722
 41
0.00984722
  0
VERTEX
  8
0
 10
19.9935
 20
11.0297
 30
0.0
 40
0.00984722
 41
0.00984722
  0
VERTEX
  8
0
 10
19.9288
 20
11.1701
 30
0.0
 40
0.00984722
 41
0.00984722
  0
VERTEX
  8
0
 10
19.8604
 20
11.3087
 30
0.0
 40
0.00984722
 41
0.00984722
  0
VERTEX
  8
0
 10
19.7883
 20
11.4455
 30
0.0
 40
0.00984722
 41
0.00984722
  0
VERTEX
  8
0
 10
19.7128
 20
11.5805
 30
0.0
 40
0.00984722
 41
0.00984722
  0
VERTEX
  8
0
 10
19.6338
 20
11.7133
 30
0.0
 40
0.00984722
 41
0.00984722
  0
VERTEX
  8
0
 10
19.5512
 20
11.8441
 30
0.0
 40
0.00984722
 41
0.00984722
  0
VERTEX
  8
0
 10
19.4654
 20
11.9726
 30
0.0
 40
0.00984722
 41
0.00984722
  0
VERTEX
  8
0
 10
19.3761
 20
12.0988
 30
0.0
 40
0.00984722
 41
0.00984722
  0
VERTEX
  8
0
 10
19.2836
 20
12.2227
 30
0.0
 40
0.00984722
 41
0.00984722
  0
VERTEX
  8
0
 10
19.1879
 20
12.3441
 30
0.0
 40
0.00984722
 41
0.00984722
  0
VERTEX
  8
0
 10
19.089
 20
12.463
 30
0.0
 40
0.00984722
 41
0.00984722
  0
VERTEX
  8
0
 10
18.9871
 20
12.5793
 30
0.0
 40
0.00984722
 41
0.00984722
  0
VERTEX
  8
0
 10
18.8822
 20
12.6928
 30
0.0
 40
0.00984722
 41
0.00984722
  0
VERTEX
  8
0
 10
18.7743
 20
12.8035
 30
0.0
 40
0.00984722
 41
0.00984722
  0
VERTEX
  8
0
 10
18.6636
 20
12.9114
 30
0.0
 40
0.00984722
 41
0.00984722
  0
VERTEX
  8
0
 10
18.55
 20
13.0163
 30
0.0
 40
0.00984722
 41
0.00984722
  0
VERTEX
  8
0
 10
18.4337
 20
13.1183
 30
0.0
 40
0.00984722
 41
0.00984722
  0
VERTEX
  8
0
 10
18.315
 20
13.2171
 30
0.0
 40
0.00984722
 41
0.00984722
  0
VERTEX
  8
0
 10
18.1935
 20
13.3128
 30
0.0
 40
0.00984722
 41
0.00984722
  0
VERTEX
  8
0
 10
18.0697
 20
13.4053
 30
0.0
 40
0.00984722
 41
0.00984722
  0
VERTEX
  8
0
 10
17.9435
 20
13.4946
 30
0.0
 40
0.00984722
 41
0.00984722
  0
VERTEX
  8
0
 10
17.8149
 20
13.5805
 30
0.0
 40
0.00984722
 41
0.00984722
  0
VERTEX
  8
0
 10
17.684
 20
13.663
 30
0.0
 40
0.00984722
 41
0.00984722
  0
VERTEX
  8
0
 10
17.5512
 20
13.742
 30
0.0
 40
0.00984722
 41
0.00984722
  0
VERTEX
  8
0
 10
17.4164
 20
13.8175
 30
0.0
 40
0.00984722
 41
0.00984722
  0
VERTEX
  8
0
 10
17.2796
 20
13.8896
 30
0.0
 40
0.00984722
 41
0.00984722
  0
VERTEX
  8
0
 10
17.1408
 20
13.9579
 30
0.0
 40
0.00984722
 41
0.00984722
  0
VERTEX
  8
0
 10
17.0006
 20
14.0226
 30
0.0
 40
0.00984722
 41
0.00984722
  0
VERTEX
  8
0
 10
16.8585
 20
14.0836
 30
0.0
 40
0.00984722
 41
0.00984722
  0
VERTEX
  8
0
 10
16.7149
 20
14.141
 30
0.0
 40
0.00984722
 41
0.00984722
  0
VERTEX
  8
0
 10
16.5697
 20
14.1944
 30
0.0
 40
0.00984722
 41
0.00984722
  0
VERTEX
  8
0
 10
16.4233
 20
14.2442
 30
0.0
 40
0.00984722
 41
0.00984722
  0
VERTEX
  8
0
 10
16.2757
 20
14.29
 30
0.0
 40
0.00984722
 41
0.00984722
  0
VERTEX
  8
0
 10
16.1269
 20
14.3319
 30
0.0
 40
0.00984722
 41
0.00984722
  0
VERTEX
  8
0
 10
15.9771
 20
14.37
 30
0.0
 40
0.00984722
 41
0.00984722
  0
VERTEX
  8
0
 10
15.8262
 20
14.4042
 30
0.0
 40
0.00984722
 41
0.00984722
  0
VERTEX
  8
0
 10
15.6747
 20
14.4343
 30
0.0
 40
0.00984722
 41
0.00984722
  0
VERTEX
  8
0
 10
15.5224
 20
14.4606
 30
0.0
 40
0.00984722
 41
0.00984722
  0
VERTEX
  8
0
 10
15.3693
 20
14.4826
 30
0.0
 40
0.00984722
 41
0.00984722
  0
VERTEX
  8
0
 10
15.2158
 20
14.5008
 30
0.0
 40
0.00984722
 41
0.00984722
  0
VERTEX
  8
0
 10
15.0618
 20
14.515
 30
0.0
 40
0.00984722
 41
0.00984722
  0
VERTEX
  8
0
 10
14.9075
 20
14.5251
 30
0.0
 40
0.00984722
 41
0.00984722
  0
VERTEX
  8
0
 10
14.7531
 20
14.5313
 30
0.0
 40
0.00984722
 41
0.00984722
  0
VERTEX
  8
0
 10
14.5985
 20
14.5332
 30
0.0
 40
0.00984722
 41
0.00984722
  0
VERTEX
  8
0
 10
14.4439
 20
14.5313
 30
0.0
 40
0.00984722
 41
0.00984722
  0
VERTEX
  8
0
 10
14.2894
 20
14.5251
 30
0.0
 40
0.00984722
 41
0.00984722
  0
VERTEX
  8
0
 10
14.1351
 20
14.515
 30
0.0
 40
0.00984722
 41
0.00984722
  0
VERTEX
  8
0
 10
13.9811
 20
14.5008
 30
0.0
 40
0.00984722
 41
0.00984722
  0
VERTEX
  8
0
 10
13.8276
 20
14.4826
 30
0.0
 40
0.00984722
 41
0.00984722
  0
VERTEX
  8
0
 10
13.6746
 20
14.4606
 30
0.0
 40
0.00984722
 41
0.00984722
  0
VERTEX
  8
0
 10
13.5223
 20
14.4343
 30
0.0
 40
0.00984722
 41
0.00984722
  0
VERTEX
  8
0
 10
13.3707
 20
14.4042
 30
0.0
 40
0.00984722
 41
0.00984722
  0
VERTEX
  8
0
 10
13.2199
 20
14.37
 30
0.0
 40
0.00984722
 41
0.00984722
  0
VERTEX
  8
0
 10
13.07
 20
14.3319
 30
0.0
 40
0.00984722
 41
0.00984722
  0
VERTEX
  8
0
 10
12.9212
 20
14.29
 30
0.0
 40
0.00984722
 41
0.00984722
  0
VERTEX
  8
0
 10
12.7736
 20
14.2442
 30
0.0
 40
0.00984722
 41
0.00984722
  0
VERTEX
  8
0
 10
12.6272
 20
14.1944
 30
0.0
 40
0.00984722
 41
0.00984722
  0
VERTEX
  8
0
 10
12.4822
 20
14.141
 30
0.0
 40
0.00984722
 41
0.00984722
  0
VERTEX
  8
0
 10
12.3385
 20
14.0836
 30
0.0
 40
0.00984722
 41
0.00984722
  0
VERTEX
  8
0
 10
12.1965
 20
14.0226
 30
0.0
 40
0.00984722
 41
0.00984722
  0
VERTEX
  8
0
 10
12.0561
 20
13.9579
 30
0.0
 40
0.00984722
 41
0.00984722
  0
VERTEX
  8
0
 10
11.9174
 20
13.8896
 30
0.0
 40
0.00984722
 41
0.00984722
  0
VERTEX
  8
0
 10
11.7806
 20
13.8175
 30
0.0
 40
0.00984722
 41
0.00984722
  0
VERTEX
  8
0
 10
11.6457
 20
13.742
 30
0.0
 40
0.00984722
 41
0.00984722
  0
VERTEX
  8
0
 10
11.5129
 20
13.663
 30
0.0
 40
0.00984722
 41
0.00984722
  0
VERTEX
  8
0
 10
11.3821
 20
13.5805
 30
0.0
 40
0.00984722
 41
0.00984722
  0
VERTEX
  8
0
 10
11.2536
 20
13.4946
 30
0.0
 40
0.00984722
 41
0.00984722
  0
VERTEX
  8
0
 10
11.1273
 20
13.4053
 30
0.0
 40
0.00984722
 41
0.00984722
  0
VERTEX
  8
0
 10
11.0034
 20
13.3128
 30
0.0
 40
0.00984722
 41
0.00984722
  0
VERTEX
  8
0
 10
10.882
 20
13.2171
 30
0.0
 40
0.00984722
 41
0.00984722
  0
VERTEX
  8
0
 10
10.7632
 20
13.1183
 30
0.0
 40
0.00984722
 41
0.00984722
  0
VERTEX
  8
0
 10
10.6469
 20
13.0163
 30
0.0
 40
0.00984722
 41
0.00984722
  0
VERTEX
  8
0
 10
10.5334
 20
12.9114
 30
0.0
 40
0.00984722
 41
0.00984722
  0
VERTEX
  8
0
 10
10.4226
 20
12.8035
 30
0.0
 40
0.00984722
 41
0.00984722
  0
VERTEX
  8
0
 10
10.3148
 20
12.6928
 30
0.0
 40
0.00984722
 41
0.00984722
  0
VERTEX
  8
0
 10
10.2098
 20
12.5793
 30
0.0
 40
0.00984722
 41
0.00984722
  0
VERTEX
  8
0
 10
10.1079
 20
12.463
 30
0.0
 40
0.00984722
 41
0.00984722
  0
VERTEX
  8
0
 10
10.0091
 20
12.3441
 30
0.0
 40
0.00984722
 41
0.00984722
  0
VERTEX
  8
0
 10
9.91331
 20
12.2227
 30
0.0
 40
0.00984722
 41
0.00984722
  0
VERTEX
  8
0
 10
9.82081
 20
12.0988
 30
0.0
 40
0.00984722
 41
0.00984722
  0
VERTEX
  8
0
 10
9.73161
 20
11.9726
 30
0.0
 40
0.00984722
 41
0.00984722
  0
VERTEX
  8
0
 10
9.64572
 20
11.8441
 30
0.0
 40
0.00984722
 41
0.00984722
  0
VERTEX
  8
0
 10
9.56321
 20
11.7133
 30
0.0
 40
0.00984722
 41
0.00984722
  0
VERTEX
  8
0
 10
9.48415
 20
11.5805
 30
0.0
 40
0.00984722
 41
0.00984722
  0
VERTEX
  8
0
 10
9.40864
 20
11.4455
 30
0.0
 40
0.00984722
 41
0.00984722
  0
VERTEX
  8
0
 10
9.33664
 20
11.3087
 30
0.0
 40
0.00984722
 41
0.00984722
  0
VERTEX
  8
0
 10
9.26824
 20
11.1701
 30
0.0
 40
0.00984722
 41
0.00984722
  0
VERTEX
  8
0
 10
9.2035
 20
11.0297
 30
0.0
 40
0.00984722
 41
0.00984722
  0
VERTEX
  8
0
 10
9.14253
 20
10.8876
 30
0.0
 40
0.00984722
 41
0.00984722
  0
VERTEX
  8
0
 10
9.08524
 20
10.744
 30
0.0
 40
0.00984722
 41
0.00984722
  0
VERTEX
  8
0
 10
9.03168
 20
10.599
 30
0.0
 40
0.00984722
 41
0.00984722
  0
VERTEX
  8
0
 10
8.98199
 20
10.4526
 30
0.0
 40
0.00984722
 41
0.00984722
  0
VERTEX
  8
0
 10
8.93614
 20
10.305
 30
0.0
 40
0.00984722
 41
0.00984722
  0
VERTEX
  8
0
 10
8.89421
 20
10.1561
 30
0.0
 40
0.00984722
 41
0.00984722
  0
VERTEX
  8
0
 10
8.85612
 20
10.0063
 30
0.0
 40
0.00984722
 41
0.00984722
  0
VERTEX
  8
0
 10
8.82206
 20
9.85553
 30
0.0
 40
0.00984722
 41
0.00984722
  0
VERTEX
  8
0
 10
8.79189
 20
9.70389
 30
0.0
 40
0.00984722
 41
0.00984722
  0
VERTEX
  8
0
 10
8.76568
 20
9.55149
 30
0.0
 40
0.00984722
 41
0.00984722
  0
VERTEX
  8
0
 10
8.74349
 20
9.39849
 30
0.0
 40
0.00984722
 41
0.00984722
  0
VERTEX
  8
0
 10
8.72532
 20
9.24496
 30
0.0
 40
0.00984722
 41
0.00984722
  0
VERTEX
  8
0
 10
8.71115
 20
9.09104
 30
0.0
 40
0.00984722
 41
0.00984722
  0
VERTEX
  8
0
 10
8.70107
 20
8.93674
 30
0.0
 40
0.00984722
 41
0.00984722
  0
VERTEX
  8
0
 10
8.69499
 20
8.78228
 30
0.0
 40
0.00984722
 41
0.00984722
  0
VERTEX
  8
0
 10
8.69299
 20
8.62771
 30
0.0
 40
0.00984722
 41
0.00984722
  0
VERTEX
  8
0
 10
8.69499
 20
8.4731
 30
0.0
 40
0.00984722
 41
0.00984722
  0
VERTEX
  8
0
 10
8.70107
 20
8.31862
 30
0.0
 40
0.00984722
 41
0.00984722
  0
VERTEX
  8
0
 10
8.71115
 20
8.16433
 30
0.0
 40
0.00984722
 41
0.00984722
  0
VERTEX
  8
0
 10
8.72532
 20
8.01042
 30
0.0
 40
0.00984722
 41
0.00984722
  0
VERTEX
  8
0
 10
8.74349
 20
7.85688
 30
0.0
 40
0.00984722
 41
0.00984722
  0
VERTEX
  8
0
 10
8.76568
 20
7.70389
 30
0.0
 40
0.00984722
 41
0.00984722
  0
VERTEX
  8
0
 10
8.79189
 20
7.55149
 30
0.0
 40
0.00984722
 41
0.00984722
  0
VERTEX
  8
0
 10
8.82206
 20
7.39985
 30
0.0
 40
0.00984722
 41
0.00984722
  0
VERTEX
  8
0
 10
8.85612
 20
7.24908
 30
0.0
 40
0.00984722
 41
0.00984722
  0
VERTEX
  8
0
 10
8.89421
 20
7.09924
 30
0.0
 40
0.00984722
 41
0.00984722
  0
VERTEX
  8
0
 10
8.93614
 20
6.95042
 30
0.0
 40
0.00984722
 41
0.00984722
  0
VERTEX
  8
0
 10
8.98199
 20
6.80279
 30
0.0
 40
0.00984722
 41
0.00984722
  0
VERTEX
  8
0
 10
9.03168
 20
6.65636
 30
0.0
 40
0.00984722
 41
0.00984722
  0
VERTEX
  8
0
 10
9.08524
 20
6.51133
 30
0.0
 40
0.00984722
 41
0.00984722
  0
VERTEX
  8
0
 10
9.14253
 20
6.36774
 30
0.0
 40
0.00984722
 41
0.00984722
  0
VERTEX
  8
0
 10
9.2035
 20
6.22569
 30
0.0
 40
0.00984722
 41
0.00984722
  0
VERTEX
  8
0
 10
9.26824
 20
6.08529
 30
0.0
 40
0.00984722
 41
0.00984722
  0
VERTEX
  8
0
 10
9.33664
 20
5.94667
 30
0.0
 40
0.00984722
 41
0.00984722
  0
VERTEX
  8
0
 10
9.40864
 20
5.80985
 30
0.0
 40
0.00984722
 41
0.00984722
  0
VERTEX
  8
0
 10
9.48415
 20
5.67492
 30
0.0
 40
0.00984722
 41
0.00984722
  0
VERTEX
  8
0
 10
9.56321
 20
5.54204
 30
0.0
 40
0.00984722
 41
0.00984722
  0
VERTEX
  8
0
 10
9.64572
 20
5.41129
 30
0.0
 40
0.00984722
 41
0.00984722
  0
VERTEX
  8
0
 10
9.73161
 20
5.28276
 30
0.0
 40
0.00984722
 41
0.00984722
  0
VERTEX
  8
0
 10
9.82081
 20
5.15653
 30
0.0
 40
0.00984722
 41
0.00984722
  0
VERTEX
  8
0
 10
9.91331
 20
5.03261
 30
0.0
 40
0.00984722
 41
0.00984722
  0
VERTEX
  8
0
 10
10.0091
 20
4.91124
 30
0.0
 40
0.00984722
 41
0.00984722
  0
VERTEX
  8
0
 10
10.1079
 20
4.79237
 30
0.0
 40
0.00984722
 41
0.00984722
  0
VERTEX
  8
0
 10
10.2098
 20
4.67611
 30
0.0
 40
0.00984722
 41
0.00984722
  0
VERTEX
  8
0
 10
10.3148
 20
4.56261
 30
0.0
 40
0.00984722
 41
0.00984722
  0
VERTEX
  8
0
 10
10.4226
 20
4.45188
 30
0.0
 40
0.00984722
 41
0.00984722
  0
VERTEX
  8
0
 10
10.5334
 20
4.34397
 30
0.0
 40
0.00984722
 41
0.00984722
  0
VERTEX
  8
0
 10
10.6469
 20
4.23904
 30
0.0
 40
0.00984722
 41
0.00984722
  0
VERTEX
  8
0
 10
10.7632
 20
4.1371
 30
0.0
 40
0.00984722
 41
0.00984722
  0
VERTEX
  8
0
 10
10.882
 20
4.03825
 30
0.0
 40
0.00984722
 41
0.00984722
  0
VERTEX
  8
0
 10
11.0034
 20
3.94254
 30
0.0
 40
0.00984722
 41
0.00984722
  0
VERTEX
  8
0
 10
11.1273
 20
3.85004
 30
0.0
 40
0.00984722
 41
0.00984722
  0
VERTEX
  8
0
 10
11.2536
 20
3.76079
 30
0.0
 40
0.00984722
 41
0.00984722
  0
VERTEX
  8
0
 10
11.3821
 20
3.67492
 30
0.0
 40
0.00984722
 41
0.00984722
  0
VERTEX
  8
0
 10
11.5129
 20
3.59239
 30
0.0
 40
0.00984722
 41
0.00984722
  0
VERTEX
  8
0
 10
11.6457
 20
3.51335
 30
0.0
 40
0.00984722
 41
0.00984722
  0
VERTEX
  8
0
 10
11.7806
 20
3.43782
 30
0.0
 40
0.00984722
 41
0.00984722
  0
VERTEX
  8
0
 10
11.9174
 20
3.36583
 30
0.0
 40
0.00984722
 41
0.00984722
  0
VERTEX
  8
0
 10
12.0561
 20
3.29747
 30
0.0
 40
0.00984722
 41
0.00984722
  0
VERTEX
  8
0
 10
12.1965
 20
3.23275
 30
0.0
 40
0.00984722
 41
0.00984722
  0
VERTEX
  8
0
 10
12.3385
 20
3.17171
 30
0.0
 40
0.00984722
 41
0.00984722
  0
VERTEX
  8
0
 10
12.4822
 20
3.11442
 30
0.0
 40
0.00984722
 41
0.00984722
  0
VERTEX
  8
0
 10
12.6272
 20
3.06093
 30
0.0
 40
0.00984722
 41
0.00984722
  0
VERTEX
  8
0
 10
12.7736
 20
3.01124
 30
0.0
 40
0.00984722
 41
0.00984722
  0
VERTEX
  8
0
 10
12.9212
 20
2.96539
 30
0.0
 40
0.00984722
 41
0.00984722
  0
VERTEX
  8
0
 10
13.07
 20
2.92339
 30
0.0
 40
0.00984722
 41
0.00984722
  0
VERTEX
  8
0
 10
13.2199
 20
2.88536
 30
0.0
 40
0.00984722
 41
0.00984722
  0
VERTEX
  8
0
 10
13.3707
 20
2.85124
 30
0.0
 40
0.00984722
 41
0.00984722
  0
VERTEX
  8
0
 10
13.5223
 20
2.82107
 30
0.0
 40
0.00984722
 41
0.00984722
  0
VERTEX
  8
0
 10
13.6746
 20
2.79486
 30
0.0
 40
0.00984722
 41
0.00984722
  0
VERTEX
  8
0
 10
13.8276
 20
2.77268
 30
0.0
 40
0.00984722
 41
0.00984722
  0
VERTEX
  8
0
 10
13.9811
 20
2.7545
 30
0.0
 40
0.00984722
 41
0.00984722
  0
VERTEX
  8
0
 10
14.1351
 20
2.7404
 30
0.0
 40
0.00984722
 41
0.00984722
  0
VERTEX
  8
0
 10
14.2894
 20
2.73025
 30
0.0
 40
0.00984722
 41
0.00984722
  0
VERTEX
  8
0
 10
14.4439
 20
2.72418
 30
0.0
 40
0.00984722
 41
0.00984722
  0
VERTEX
  8
0
 10
14.5985
 20
2.72217
 30
0.0
 40
0.00984722
 41
0.00984722
  0
VERTEX
  8
0
 10
14.7531
 20
2.72418
 30
0.0
 40
0.00984722
 41
0.00984722
  0
VERTEX
  8
0
 10
14.9075
 20
2.73025
 30
0.0
 40
0.00984722
 41
0.00984722
  0
VERTEX
  8
0
 10
15.0618
 20
2.7404
 30
0.0
 40
0.00984722
 41
0.00984722
  0
VERTEX
  8
0
 10
15.2158
 20
2.7545
 30
0.0
 40
0.00984722
 41
0.00984722
  0
VERTEX
  8
0
 10
15.3693
 20
2.77268
 30
0.0
 40
0.00984722
 41
0.00984722
  0
VERTEX
  8
0
 10
15.5224
 20
2.79486
 30
0.0
 40
0.00984722
 41
0.00984722
  0
VERTEX
  8
0
 10
15.6747
 20
2.82107
 30
0.0
 40
0.00984722
 41
0.00984722
  0
VERTEX
  8
0
 10
15.8262
 20
2.85124
 30
0.0
 40
0.00984722
 41
0.00984722
  0
VERTEX
  8
0
 10
15.9771
 20
2.88536
 30
0.0
 40
0.00984722
 41
0.00984722
  0
VERTEX
  8
0
 10
16.1269
 20
2.92339
 30
0.0
 40
0.00984722
 41
0.00984722
  0
VERTEX
  8
0
 10
16.2757
 20
2.96539
 30
0.0
 40
0.00984722
 41
0.00984722
  0
VERTEX
  8
0
 10
16.4233
 20
3.01124
 30
0.0
 40
0.00984722
 41
0.00984722
  0
VERTEX
  8
0
 10
16.5697
 20
3.06093
 30
0.0
 40
0.00984722
 41
0.00984722
  0
VERTEX
  8
0
 10
16.7149
 20
3.11442
 30
0.0
 40
0.00984722
 41
0.00984722
  0
VERTEX
  8
0
 10
16.8585
 20
3.17171
 30
0.0
 40
0.00984722
 41
0.00984722
  0
VERTEX
  8
0
 10
17.0006
 20
3.23275
 30
0.0
 40
0.00984722
 41
0.00984722
  0
VERTEX
  8
0
 10
17.1408
 20
3.29747
 30
0.0
 40
0.00984722
 41
0.00984722
  0
VERTEX
  8
0
 10
17.2796
 20
3.36583
 30
0.0
 40
0.00984722
 41
0.00984722
  0
VERTEX
  8
0
 10
17.4164
 20
3.43782
 30
0.0
 40
0.00984722
 41
0.00984722
  0
VERTEX
  8
0
 10
17.5512
 20
3.51335
 30
0.0
 40
0.00984722
 41
0.00984722
  0
VERTEX
  8
0
 10
17.684
 20
3.59239
 30
0.0
 40
0.00984722
 41
0.00984722
  0
VERTEX
  8
0
 10
17.8149
 20
3.67492
 30
0.0
 40
0.00984722
 41
0.00984722
  0
VERTEX
  8
0
 10
17.9435
 20
3.76079
 30
0.0
 40
0.00984722
 41
0.00984722
  0
VERTEX
  8
0
 10
18.0697
 20
3.85004
 30
0.0
 40
0.00984722
 41
0.00984722
  0
VERTEX
  8
0
 10
18.1935
 20
3.94254
 30
0.0
 40
0.00984722
 41
0.00984722
  0
VERTEX
  8
0
 10
18.315
 20
4.03825
 30
0.0
 40
0.00984722
 41
0.00984722
  0
VERTEX
  8
0
 10
18.4337
 20
4.1371
 30
0.0
 40
0.00984722
 41
0.00984722
  0
VERTEX
  8
0
 10
18.55
 20
4.23904
 30
0.0
 40
0.00984722
 41
0.00984722
  0
VERTEX
  8
0
 10
18.6636
 20
4.34397
 30
0.0
 40
0.00984722
 41
0.00984722
  0
VERTEX
  8
0
 10
18.7743
 20
4.45188
 30
0.0
 40
0.00984722
 41
0.00984722
  0
VERTEX
  8
0
 10
18.8822
 20
4.56261
 30
0.0
 40
0.00984722
 41
0.00984722
  0
VERTEX
  8
0
 10
18.9871
 20
4.67611
 30
0.0
 40
0.00984722
 41
0.00984722
  0
VERTEX
  8
0
 10
19.089
 20
4.79237
 30
0.0
 40
0.00984722
 41
0.00984722
  0
VERTEX
  8
0
 10
19.1879
 20
4.91124
 30
0.0
 40
0.00984722
 41
0.00984722
  0
VERTEX
  8
0
 10
19.2836
 20
5.03261
 30
0.0
 40
0.00984722
 41
0.00984722
  0
VERTEX
  8
0
 10
19.3761
 20
5.15653
 30
0.0
 40
0.00984722
 41
0.00984722
  0
VERTEX
  8
0
 10
19.4654
 20
5.28276
 30
0.0
 40
0.00984722
 41
0.00984722
  0
VERTEX
  8
0
 10
19.5512
 20
5.41129
 30
0.0
 40
0.00984722
 41
0.00984722
  0
VERTEX
  8
0
 10
19.6338
 20
5.54204
 30
0.0
 40
0.00984722
 41
0.00984722
  0
VERTEX
  8
0
 10
19.7128
 20
5.67492
 30
0.0
 40
0.00984722
 41
0.00984722
  0
VERTEX
  8
0
 10
19.7883
 20
5.80985
 30
0.0
 40
0.00984722
 41
0.00984722
  0
VERTEX
  8
0
 10
19.8604
 20
5.94667
 30
0.0
 40
0.00984722
 41
0.00984722
  0
VERTEX
  8
0
 10
19.9288
 20
6.08529
 30
0.0
 40
0.00984722
 41
0.00984722
  0
VERTEX
  8
0
 10
19.9935
 20
6.22569
 30
0.0
 40
0.00984722
 41
0.00984722
  0
VERTEX
  8
0
 10
20.0544
 20
6.36774
 30
0.0
 40
0.00984722
 41
0.00984722
  0
VERTEX
  8
0
 10
20.1118
 20
6.51133
 30
0.0
 40
0.00984722
 41
0.00984722
  0
VERTEX
  8
0
 10
20.1653
 20
6.65636
 30
0.0
 40
0.00984722
 41
0.00984722
  0
VERTEX
  8
0
 10
20.215
 20
6.80279
 30
0.0
 40
0.00984722
 41
0.00984722
  0
VERTEX
  8
0
 10
20.2608
 20
6.95042
 30
0.0
 40
0.00984722
 41
0.00984722
  0
VERTEX
  8
0
 10
20.3028
 20
7.09924
 30
0.0
 40
0.00984722
 41
0.00984722
  0
VERTEX
  8
0
 10
20.3408
 20
7.24908
 30
0.0
 40
0.00984722
 41
0.00984722
  0
VERTEX
  8
0
 10
20.375
 20
7.39985
 30
0.0
 40
0.00984722
 41
0.00984722
  0
VERTEX
  8
0
 10
20.4051
 20
7.55149
 30
0.0
 40
0.00984722
 41
0.00984722
  0
VERTEX
  8
0
 10
20.4313
 20
7.70389
 30
0.0
 40
0.00984722
 41
0.00984722
  0
VERTEX
  8
0
 10
20.4535
 20
7.85688
 30
0.0
 40
0.00984722
 41
0.00984722
  0
VERTEX
  8
0
 10
20.4717
 20
8.01042
 30
0.0
 40
0.00984722
 41
0.00984722
  0
VERTEX
  8
0
 10
20.4858
 20
8.16433
 30
0.0
 40
0.00984722
 41
0.00984722
  0
VERTEX
  8
0
 10
20.4958
 20
8.31862
 30
0.0
 40
0.00984722
 41
0.00984722
  0
VERTEX
  8
0
 10
20.5019
 20
8.4731
 30
0.0
 40
0.00984722
 41
0.00984722
  0
VERTEX
  8
0
 10
20.504
 20
8.62771
 30
0.0
 40
0.00984722
 41
0.00984722
  0
SEQEND
 8
0
  0
POLYLINE
  8
0
 62
     0
 66
     1
 10
0
 20
0
 30
0.0
 70
     1
 40
0.709
 41
0.709
  0
VERTEX
  8
0
 10
20.3465
 20
8.62771
 30
0.0
 40
0.00984722
 41
0.00984722
  0
VERTEX
  8
0
 10
20.3446
 20
8.77815
 30
0.0
 40
0.00984722
 41
0.00984722
  0
VERTEX
  8
0
 10
20.3386
 20
8.9285
 30
0.0
 40
0.00984722
 41
0.00984722
  0
VERTEX
  8
0
 10
20.3288
 20
9.07867
 30
0.0
 40
0.00984722
 41
0.00984722
  0
VERTEX
  8
0
 10
20.315
 20
9.22851
 30
0.0
 40
0.00984722
 41
0.00984722
  0
VERTEX
  8
0
 10
20.2974
 20
9.37793
 30
0.0
 40
0.00984722
 41
0.00984722
  0
VERTEX
  8
0
 10
20.2758
 20
9.52686
 30
0.0
 40
0.00984722
 41
0.00984722
  0
VERTEX
  8
0
 10
20.2503
 20
9.67518
 30
0.0
 40
0.00984722
 41
0.00984722
  0
VERTEX
  8
0
 10
20.221
 20
9.82275
 30
0.0
 40
0.00984722
 41
0.00984722
  0
VERTEX
  8
0
 10
20.1878
 20
9.96951
 30
0.0
 40
0.00984722
 41
0.00984722
  0
VERTEX
  8
0
 10
20.1507
 20
10.1154
 30
0.0
 40
0.00984722
 41
0.00984722
  0
VERTEX
  8
0
 10
20.1099
 20
10.2602
 30
0.0
 40
0.00984722
 41
0.00984722
  0
VERTEX
  8
0
 10
20.0653
 20
10.4039
 30
0.0
 40
0.00984722
 41
0.00984722
  0
VERTEX
  8
0
 10
20.0168
 20
10.5464
 30
0.0
 40
0.00984722
 41
0.00984722
  0
VERTEX
  8
0
 10
19.9647
 20
10.6876
 30
0.0
 40
0.00984722
 41
0.00984722
  0
VERTEX
  8
0
 10
19.909
 20
10.8274
 30
0.0
 40
0.00984722
 41
0.00984722
  0
VERTEX
  8
0
 10
19.8496
 20
10.9656
 30
0.0
 40
0.00984722
 41
0.00984722
  0
VERTEX
  8
0
 10
19.7865
 20
11.1023
 30
0.0
 40
0.00984722
 41
0.00984722
  0
VERTEX
  8
0
 10
19.72
 20
11.2372
 30
0.0
 40
0.00984722
 41
0.00984722
  0
VERTEX
  8
0
 10
19.65
 20
11.3704
 30
0.0
 40
0.00984722
 41
0.00984722
  0
VERTEX
  8
0
 10
19.5764
 20
11.5017
 30
0.0
 40
0.00984722
 41
0.00984722
  0
VERTEX
  8
0
 10
19.4994
 20
11.631
 30
0.0
 40
0.00984722
 41
0.00984722
  0
VERTEX
  8
0
 10
19.4192
 20
11.7583
 30
0.0
 40
0.00984722
 41
0.00984722
  0
VERTEX
  8
0
 10
19.3356
 20
11.8834
 30
0.0
 40
0.00984722
 41
0.00984722
  0
VERTEX
  8
0
 10
19.2488
 20
12.0063
 30
0.0
 40
0.00984722
 41
0.00984722
  0
VERTEX
  8
0
 10
19.1588
 20
12.1268
 30
0.0
 40
0.00984722
 41
0.00984722
  0
VERTEX
  8
0
 10
19.0656
 20
12.245
 30
0.0
 40
0.00984722
 41
0.00984722
  0
VERTEX
  8
0
 10
18.9693
 20
12.3607
 30
0.0
 40
0.00984722
 41
0.00984722
  0
VERTEX
  8
0
 10
18.8701
 20
12.4738
 30
0.0
 40
0.00984722
 41
0.00984722
  0
VERTEX
  8
0
 10
18.7679
 20
12.5844
 30
0.0
 40
0.00984722
 41
0.00984722
  0
VERTEX
  8
0
 10
18.6629
 20
12.6922
 30
0.0
 40
0.00984722
 41
0.00984722
  0
VERTEX
  8
0
 10
18.5551
 20
12.7972
 30
0.0
 40
0.00984722
 41
0.00984722
  0
VERTEX
  8
0
 10
18.4447
 20
12.8993
 30
0.0
 40
0.00984722
 41
0.00984722
  0
VERTEX
  8
0
 10
18.3315
 20
12.9985
 30
0.0
 40
0.00984722
 41
0.00984722
  0
VERTEX
  8
0
 10
18.2158
 20
13.0947
 30
0.0
 40
0.00984722
 41
0.00984722
  0
VERTEX
  8
0
 10
18.0976
 20
13.1879
 30
0.0
 40
0.00984722
 41
0.00984722
  0
VERTEX
  8
0
 10
17.9771
 20
13.2779
 30
0.0
 40
0.00984722
 41
0.00984722
  0
VERTEX
  8
0
 10
17.8542
 20
13.3648
 30
0.0
 40
0.00984722
 41
0.00984722
  0
VERTEX
  8
0
 10
17.729
 20
13.4484
 30
0.0
 40
0.00984722
 41
0.00984722
  0
VERTEX
  8
0
 10
17.6018
 20
13.5287
 30
0.0
 40
0.00984722
 41
0.00984722
  0
VERTEX
  8
0
 10
17.4725
 20
13.6056
 30
0.0
 40
0.00984722
 41
0.00984722
  0
VERTEX
  8
0
 10
17.3412
 20
13.6791
 30
0.0
 40
0.00984722
 41
0.00984722
  0
VERTEX
  8
0
 10
17.2081
 20
13.7492
 30
0.0
 40
0.00984722
 41
0.00984722
  0
VERTEX
  8
0
 10
17.0731
 20
13.8158
 30
0.0
 40
0.00984722
 41
0.00984722
  0
VERTEX
  8
0
 10
16.9364
 20
13.8788
 30
0.0
 40
0.00984722
 41
0.00984722
  0
VERTEX
  8
0
 10
16.7982
 20
13.9382
 30
0.0
 40
0.00984722
 41
0.00984722
  0
VERTEX
  8
0
 10
16.6583
 20
13.9939
 30
0.0
 40
0.00984722
 41
0.00984722
  0
VERTEX
  8
0
 10
16.5172
 20
14.046
 30
0.0
 40
0.00984722
 41
0.00984722
  0
VERTEX
  8
0
 10
16.3747
 20
14.0944
 30
0.0
 40
0.00984722
 41
0.00984722
  0
VERTEX
  8
0
 10
16.231
 20
14.139
 30
0.0
 40
0.00984722
 41
0.00984722
  0
VERTEX
  8
0
 10
16.0861
 20
14.1799
 30
0.0
 40
0.00984722
 41
0.00984722
  0
VERTEX
  8
0
 10
15.9403
 20
14.2169
 30
0.0
 40
0.00984722
 41
0.00984722
  0
VERTEX
  8
0
 10
15.7936
 20
14.2501
 30
0.0
 40
0.00984722
 41
0.00984722
  0
VERTEX
  8
0
 10
15.646
 20
14.2794
 30
0.0
 40
0.00984722
 41
0.00984722
  0
VERTEX
  8
0
 10
15.4976
 20
14.305
 30
0.0
 40
0.00984722
 41
0.00984722
  0
VERTEX
  8
0
 10
15.3487
 20
14.3265
 30
0.0
 40
0.00984722
 41
0.00984722
  0
VERTEX
  8
0
 10
15.1993
 20
14.3443
 30
0.0
 40
0.00984722
 41
0.00984722
  0
VERTEX
  8
0
 10
15.0494
 20
14.3581
 30
0.0
 40
0.00984722
 41
0.00984722
  0
VERTEX
  8
0
 10
14.8993
 20
14.3678
 30
0.0
 40
0.00984722
 41
0.00984722
  0
VERTEX
  8
0
 10
14.7489
 20
14.3738
 30
0.0
 40
0.00984722
 41
0.00984722
  0
VERTEX
  8
0
 10
14.5985
 20
14.3757
 30
0.0
 40
0.00984722
 41
0.00984722
  0
VERTEX
  8
0
 10
14.4481
 20
14.3738
 30
0.0
 40
0.00984722
 41
0.00984722
  0
VERTEX
  8
0
 10
14.2976
 20
14.3678
 30
0.0
 40
0.00984722
 41
0.00984722
  0
VERTEX
  8
0
 10
14.1475
 20
14.3581
 30
0.0
 40
0.00984722
 41
0.00984722
  0
VERTEX
  8
0
 10
13.9976
 20
14.3443
 30
0.0
 40
0.00984722
 41
0.00984722
  0
VERTEX
  8
0
 10
13.8482
 20
14.3265
 30
0.0
 40
0.00984722
 41
0.00984722
  0
VERTEX
  8
0
 10
13.6993
 20
14.305
 30
0.0
 40
0.00984722
 41
0.00984722
  0
VERTEX
  8
0
 10
13.551
 20
14.2794
 30
0.0
 40
0.00984722
 41
0.00984722
  0
VERTEX
  8
0
 10
13.4034
 20
14.2501
 30
0.0
 40
0.00984722
 41
0.00984722
  0
VERTEX
  8
0
 10
13.2566
 20
14.2169
 30
0.0
 40
0.00984722
 41
0.00984722
  0
VERTEX
  8
0
 10
13.1108
 20
14.1799
 30
0.0
 40
0.00984722
 41
0.00984722
  0
VERTEX
  8
0
 10
12.9659
 20
14.139
 30
0.0
 40
0.00984722
 41
0.00984722
  0
VERTEX
  8
0
 10
12.8223
 20
14.0944
 30
0.0
 40
0.00984722
 41
0.00984722
  0
VERTEX
  8
0
 10
12.6797
 20
14.046
 30
0.0
 40
0.00984722
 41
0.00984722
  0
VERTEX
  8
0
 10
12.5386
 20
13.9939
 30
0.0
 40
0.00984722
 41
0.00984722
  0
VERTEX
  8
0
 10
12.3988
 20
13.9382
 30
0.0
 40
0.00984722
 41
0.00984722
  0
VERTEX
  8
0
 10
12.2606
 20
13.8788
 30
0.0
 40
0.00984722
 41
0.00984722
  0
VERTEX
  8
0
 10
12.1239
 20
13.8158
 30
0.0
 40
0.00984722
 41
0.00984722
  0
VERTEX
  8
0
 10
11.9889
 20
13.7492
 30
0.0
 40
0.00984722
 41
0.00984722
  0
VERTEX
  8
0
 10
11.8557
 20
13.6791
 30
0.0
 40
0.00984722
 41
0.00984722
  0
VERTEX
  8
0
 10
11.7244
 20
13.6056
 30
0.0
 40
0.00984722
 41
0.00984722
  0
VERTEX
  8
0
 10
11.5952
 20
13.5287
 30
0.0
 40
0.00984722
 41
0.00984722
  0
VERTEX
  8
0
 10
11.4679
 20
13.4484
 30
0.0
 40
0.00984722
 41
0.00984722
  0
VERTEX
  8
0
 10
11.3428
 20
13.3648
 30
0.0
 40
0.00984722
 41
0.00984722
  0
VERTEX
  8
0
 10
11.2199
 20
13.2779
 30
0.0
 40
0.00984722
 41
0.00984722
  0
VERTEX
  8
0
 10
11.0993
 20
13.1879
 30
0.0
 40
0.00984722
 41
0.00984722
  0
VERTEX
  8
0
 10
10.9811
 20
13.0947
 30
0.0
 40
0.00984722
 41
0.00984722
  0
VERTEX
  8
0
 10
10.8655
 20
12.9985
 30
0.0
 40
0.00984722
 41
0.00984722
  0
VERTEX
  8
0
 10
10.7523
 20
12.8993
 30
0.0
 40
0.00984722
 41
0.00984722
  0
VERTEX
  8
0
 10
10.6418
 20
12.7972
 30
0.0
 40
0.00984722
 41
0.00984722
  0
VERTEX
  8
0
 10
10.534
 20
12.6922
 30
0.0
 40
0.00984722
 41
0.00984722
  0
VERTEX
  8
0
 10
10.429
 20
12.5844
 30
0.0
 40
0.00984722
 41
0.00984722
  0
VERTEX
  8
0
 10
10.3269
 20
12.4738
 30
0.0
 40
0.00984722
 41
0.00984722
  0
VERTEX
  8
0
 10
10.2277
 20
12.3607
 30
0.0
 40
0.00984722
 41
0.00984722
  0
VERTEX
  8
0
 10
10.1314
 20
12.245
 30
0.0
 40
0.00984722
 41
0.00984722
  0
VERTEX
  8
0
 10
10.0383
 20
12.1268
 30
0.0
 40
0.00984722
 41
0.00984722
  0
VERTEX
  8
0
 10
9.94824
 20
12.0063
 30
0.0
 40
0.00984722
 41
0.00984722
  0
VERTEX
  8
0
 10
9.86139
 20
11.8834
 30
0.0
 40
0.00984722
 41
0.00984722
  0
VERTEX
  8
0
 10
9.77778
 20
11.7583
 30
0.0
 40
0.00984722
 41
0.00984722
  0
VERTEX
  8
0
 10
9.69749
 20
11.631
 30
0.0
 40
0.00984722
 41
0.00984722
  0
VERTEX
  8
0
 10
9.62056
 20
11.5017
 30
0.0
 40
0.00984722
 41
0.00984722
  0
VERTEX
  8
0
 10
9.54704
 20
11.3704
 30
0.0
 40
0.00984722
 41
0.00984722
  0
VERTEX
  8
0
 10
9.47694
 20
11.2372
 30
0.0
 40
0.00984722
 41
0.00984722
  0
VERTEX
  8
0
 10
9.41038
 20
11.1023
 30
0.0
 40
0.00984722
 41
0.00984722
  0
VERTEX
  8
0
 10
9.34739
 20
10.9656
 30
0.0
 40
0.00984722
 41
0.00984722
  0
VERTEX
  8
0
 10
9.28797
 20
10.8274
 30
0.0
 40
0.00984722
 41
0.00984722
  0
VERTEX
  8
0
 10
9.23226
 20
10.6876
 30
0.0
 40
0.00984722
 41
0.00984722
  0
VERTEX
  8
0
 10
9.18018
 20
10.5464
 30
0.0
 40
0.00984722
 41
0.00984722
  0
VERTEX
  8
0
 10
9.13178
 20
10.4039
 30
0.0
 40
0.00984722
 41
0.00984722
  0
VERTEX
  8
0
 10
9.08713
 20
10.2602
 30
0.0
 40
0.00984722
 41
0.00984722
  0
VERTEX
  8
0
 10
9.04633
 20
10.1154
 30
0.0
 40
0.00984722
 41
0.00984722
  0
VERTEX
  8
0
 10
9.00928
 20
9.96951
 30
0.0
 40
0.00984722
 41
0.00984722
  0
VERTEX
  8
0
 10
8.97607
 20
9.82275
 30
0.0
 40
0.00984722
 41
0.00984722
  0
VERTEX
  8
0
 10
8.94672
 20
9.67518
 30
0.0
 40
0.00984722
 41
0.00984722
  0
VERTEX
  8
0
 10
8.92122
 20
9.52686
 30
0.0
 40
0.00984722
 41
0.00984722
  0
VERTEX
  8
0
 10
8.89963
 20
9.37793
 30
0.0
 40
0.00984722
 41
0.00984722
  0
VERTEX
  8
0
 10
8.88194
 20
9.22851
 30
0.0
 40
0.00984722
 41
0.00984722
  0
VERTEX
  8
0
 10
8.86817
 20
9.07867
 30
0.0
 40
0.00984722
 41
0.00984722
  0
VERTEX
  8
0
 10
8.85835
 20
8.9285
 30
0.0
 40
0.00984722
 41
0.00984722
  0
VERTEX
  8
0
 10
8.85243
 20
8.77815
 30
0.0
 40
0.00984722
 41
0.00984722
  0
VERTEX
  8
0
 10
8.85047
 20
8.62771
 30
0.0
 40
0.00984722
 41
0.00984722
  0
VERTEX
  8
0
 10
8.85243
 20
8.47721
 30
0.0
 40
0.00984722
 41
0.00984722
  0
VERTEX
  8
0
 10
8.85835
 20
8.32687
 30
0.0
 40
0.00984722
 41
0.00984722
  0
VERTEX
  8
0
 10
8.86817
 20
8.17671
 30
0.0
 40
0.00984722
 41
0.00984722
  0
VERTEX
  8
0
 10
8.88194
 20
8.02686
 30
0.0
 40
0.00984722
 41
0.00984722
  0
VERTEX
  8
0
 10
8.89963
 20
7.87744
 30
0.0
 40
0.00984722
 41
0.00984722
  0
VERTEX
  8
0
 10
8.92122
 20
7.72851
 30
0.0
 40
0.00984722
 41
0.00984722
  0
VERTEX
  8
0
 10
8.94672
 20
7.58018
 30
0.0
 40
0.00984722
 41
0.00984722
  0
VERTEX
  8
0
 10
8.97607
 20
7.43261
 30
0.0
 40
0.00984722
 41
0.00984722
  0
VERTEX
  8
0
 10
9.00928
 20
7.28586
 30
0.0
 40
0.00984722
 41
0.00984722
  0
VERTEX
  8
0
 10
9.04633
 20
7.13997
 30
0.0
 40
0.00984722
 41
0.00984722
  0
VERTEX
  8
0
 10
9.08713
 20
6.99517
 30
0.0
 40
0.00984722
 41
0.00984722
  0
VERTEX
  8
0
 10
9.13178
 20
6.85146
 30
0.0
 40
0.00984722
 41
0.00984722
  0
VERTEX
  8
0
 10
9.18018
 20
6.70893
 30
0.0
 40
0.00984722
 41
0.00984722
  0
VERTEX
  8
0
 10
9.23226
 20
6.56776
 30
0.0
 40
0.00984722
 41
0.00984722
  0
VERTEX
  8
0
 10
9.28797
 20
6.428
 30
0.0
 40
0.00984722
 41
0.00984722
  0
VERTEX
  8
0
 10
9.34739
 20
6.28976
 30
0.0
 40
0.00984722
 41
0.00984722
  0
VERTEX
  8
0
 10
9.41038
 20
6.1531
 30
0.0
 40
0.00984722
 41
0.00984722
  0
VERTEX
  8
0
 10
9.47694
 20
6.01812
 30
0.0
 40
0.00984722
 41
0.00984722
  0
VERTEX
  8
0
 10
9.54704
 20
5.88499
 30
0.0
 40
0.00984722
 41
0.00984722
  0
VERTEX
  8
0
 10
9.62056
 20
5.75369
 30
0.0
 40
0.00984722
 41
0.00984722
  0
VERTEX
  8
0
 10
9.69749
 20
5.62435
 30
0.0
 40
0.00984722
 41
0.00984722
  0
VERTEX
  8
0
 10
9.77778
 20
5.49707
 30
0.0
 40
0.00984722
 41
0.00984722
  0
VERTEX
  8
0
 10
9.86139
 20
5.37196
 30
0.0
 40
0.00984722
 41
0.00984722
  0
VERTEX
  8
0
 10
9.94824
 20
5.24908
 30
0.0
 40
0.00984722
 41
0.00984722
  0
VERTEX
  8
0
 10
10.0383
 20
5.12853
 30
0.0
 40
0.00984722
 41
0.00984722
  0
VERTEX
  8
0
 10
10.1314
 20
5.01036
 30
0.0
 40
0.00984722
 41
0.00984722
  0
VERTEX
  8
0
 10
10.2277
 20
4.89464
 30
0.0
 40
0.00984722
 41
0.00984722
  0
VERTEX
  8
0
 10
10.3269
 20
4.78153
 30
0.0
 40
0.00984722
 41
0.00984722
  0
VERTEX
  8
0
 10
10.429
 20
4.67101
 30
0.0
 40
0.00984722
 41
0.00984722
  0
VERTEX
  8
0
 10
10.534
 20
4.56321
 30
0.0
 40
0.00984722
 41
0.00984722
  0
VERTEX
  8
0
 10
10.6418
 20
4.45822
 30
0.0
 40
0.00984722
 41
0.00984722
  0
VERTEX
  8
0
 10
10.7523
 20
4.35607
 30
0.0
 40
0.00984722
 41
0.00984722
  0
VERTEX
  8
0
 10
10.8655
 20
4.25683
 30
0.0
 40
0.00984722
 41
0.00984722
  0
VERTEX
  8
0
 10
10.9811
 20
4.16064
 30
0.0
 40
0.00984722
 41
0.00984722
  0
VERTEX
  8
0
 10
11.0993
 20
4.06749
 30
0.0
 40
0.00984722
 41
0.00984722
  0
VERTEX
  8
0
 10
11.2199
 20
3.97743
 30
0.0
 40
0.00984722
 41
0.00984722
  0
VERTEX
  8
0
 10
11.3428
 20
3.89057
 30
0.0
 40
0.00984722
 41
0.00984722
  0
VERTEX
  8
0
 10
11.4679
 20
3.80697
 30
0.0
 40
0.00984722
 41
0.00984722
  0
VERTEX
  8
0
 10
11.5952
 20
3.72667
 30
0.0
 40
0.00984722
 41
0.00984722
  0
VERTEX
  8
0
 10
11.7244
 20
3.64974
 30
0.0
 40
0.00984722
 41
0.00984722
  0
VERTEX
  8
0
 10
11.8557
 20
3.57622
 30
0.0
 40
0.00984722
 41
0.00984722
  0
VERTEX
  8
0
 10
11.9889
 20
3.50618
 30
0.0
 40
0.00984722
 41
0.00984722
  0
VERTEX
  8
0
 10
12.1239
 20
3.43961
 30
0.0
 40
0.00984722
 41
0.00984722
  0
VERTEX
  8
0
 10
12.2606
 20
3.37663
 30
0.0
 40
0.00984722
 41
0.00984722
  0
VERTEX
  8
0
 10
12.3988
 20
3.31722
 30
0.0
 40
0.00984722
 41
0.00984722
  0
VERTEX
  8
0
 10
12.5386
 20
3.26144
 30
0.0
 40
0.00984722
 41
0.00984722
  0
VERTEX
  8
0
 10
12.6797
 20
3.20936
 30
0.0
 40
0.00984722
 41
0.00984722
  0
VERTEX
  8
0
 10
12.8223
 20
3.16097
 30
0.0
 40
0.00984722
 41
0.00984722
  0
VERTEX
  8
0
 10
12.9659
 20
3.11637
 30
0.0
 40
0.00984722
 41
0.00984722
  0
VERTEX
  8
0
 10
13.1108
 20
3.07553
 30
0.0
 40
0.00984722
 41
0.00984722
  0
VERTEX
  8
0
 10
13.2566
 20
3.03847
 30
0.0
 40
0.00984722
 41
0.00984722
  0
VERTEX
  8
0
 10
13.4034
 20
3.00526
 30
0.0
 40
0.00984722
 41
0.00984722
  0
VERTEX
  8
0
 10
13.551
 20
2.97592
 30
0.0
 40
0.00984722
 41
0.00984722
  0
VERTEX
  8
0
 10
13.6993
 20
2.95042
 30
0.0
 40
0.00984722
 41
0.00984722
  0
VERTEX
  8
0
 10
13.8482
 20
2.92882
 30
0.0
 40
0.00984722
 41
0.00984722
  0
VERTEX
  8
0
 10
13.9976
 20
2.91114
 30
0.0
 40
0.00984722
 41
0.00984722
  0
VERTEX
  8
0
 10
14.1475
 20
2.89735
 30
0.0
 40
0.00984722
 41
0.00984722
  0
VERTEX
  8
0
 10
14.2976
 20
2.88753
 30
0.0
 40
0.00984722
 41
0.00984722
  0
VERTEX
  8
0
 10
14.4481
 20
2.88163
 30
0.0
 40
0.00984722
 41
0.00984722
  0
VERTEX
  8
0
 10
14.5985
 20
2.87967
 30
0.0
 40
0.00984722
 41
0.00984722
  0
VERTEX
  8
0
 10
14.7489
 20
2.88163
 30
0.0
 40
0.00984722
 41
0.00984722
  0
VERTEX
  8
0
 10
14.8993
 20
2.88753
 30
0.0
 40
0.00984722
 41
0.00984722
  0
VERTEX
  8
0
 10
15.0494
 20
2.89735
 30
0.0
 40
0.00984722
 41
0.00984722
  0
VERTEX
  8
0
 10
15.1993
 20
2.91114
 30
0.0
 40
0.00984722
 41
0.00984722
  0
VERTEX
  8
0
 10
15.3487
 20
2.92882
 30
0.0
 40
0.00984722
 41
0.00984722
  0
VERTEX
  8
0
 10
15.4976
 20
2.95042
 30
0.0
 40
0.00984722
 41
0.00984722
  0
VERTEX
  8
0
 10
15.646
 20
2.97592
 30
0.0
 40
0.00984722
 41
0.00984722
  0
VERTEX
  8
0
 10
15.7936
 20
3.00526
 30
0.0
 40
0.00984722
 41
0.00984722
  0
VERTEX
  8
0
 10
15.9403
 20
3.03847
 30
0.0
 40
0.00984722
 41
0.00984722
  0
VERTEX
  8
0
 10
16.0861
 20
3.07553
 30
0.0
 40
0.00984722
 41
0.00984722
  0
VERTEX
  8
0
 10
16.231
 20
3.11637
 30
0.0
 40
0.00984722
 41
0.00984722
  0
VERTEX
  8
0
 10
16.3747
 20
3.16097
 30
0.0
 40
0.00984722
 41
0.00984722
  0
VERTEX
  8
0
 10
16.5172
 20
3.20936
 30
0.0
 40
0.00984722
 41
0.00984722
  0
VERTEX
  8
0
 10
16.6583
 20
3.26144
 30
0.0
 40
0.00984722
 41
0.00984722
  0
VERTEX
  8
0
 10
16.7982
 20
3.31722
 30
0.0
 40
0.00984722
 41
0.00984722
  0
VERTEX
  8
0
 10
16.9364
 20
3.37663
 30
0.0
 40
0.00984722
 41
0.00984722
  0
VERTEX
  8
0
 10
17.0731
 20
3.43961
 30
0.0
 40
0.00984722
 41
0.00984722
  0
VERTEX
  8
0
 10
17.2081
 20
3.50618
 30
0.0
 40
0.00984722
 41
0.00984722
  0
VERTEX
  8
0
 10
17.3412
 20
3.57622
 30
0.0
 40
0.00984722
 41
0.00984722
  0
VERTEX
  8
0
 10
17.4725
 20
3.64974
 30
0.0
 40
0.00984722
 41
0.00984722
  0
VERTEX
  8
0
 10
17.6018
 20
3.72667
 30
0.0
 40
0.00984722
 41
0.00984722
  0
VERTEX
  8
0
 10
17.729
 20
3.80697
 30
0.0
 40
0.00984722
 41
0.00984722
  0
VERTEX
  8
0
 10
17.8542
 20
3.89057
 30
0.0
 40
0.00984722
 41
0.00984722
  0
VERTEX
  8
0
 10
17.9771
 20
3.97743
 30
0.0
 40
0.00984722
 41
0.00984722
  0
VERTEX
  8
0
 10
18.0976
 20
4.06749
 30
0.0
 40
0.00984722
 41
0.00984722
  0
VERTEX
  8
0
 10
18.2158
 20
4.16064
 30
0.0
 40
0.00984722
 41
0.00984722
  0
VERTEX
  8
0
 10
18.3315
 20
4.25683
 30
0.0
 40
0.00984722
 41
0.00984722
  0
VERTEX
  8
0
 10
18.4447
 20
4.35607
 30
0.0
 40
0.00984722
 41
0.00984722
  0
VERTEX
  8
0
 10
18.5551
 20
4.45822
 30
0.0
 40
0.00984722
 41
0.00984722
  0
VERTEX
  8
0
 10
18.6629
 20
4.56321
 30
0.0
 40
0.00984722
 41
0.00984722
  0
VERTEX
  8
0
 10
18.7679
 20
4.67101
 30
0.0
 40
0.00984722
 41
0.00984722
  0
VERTEX
  8
0
 10
18.8701
 20
4.78153
 30
0.0
 40
0.00984722
 41
0.00984722
  0
VERTEX
  8
0
 10
18.9693
 20
4.89464
 30
0.0
 40
0.00984722
 41
0.00984722
  0
VERTEX
  8
0
 10
19.0656
 20
5.01036
 30
0.0
 40
0.00984722
 41
0.00984722
  0
VERTEX
  8
0
 10
19.1588
 20
5.12853
 30
0.0
 40
0.00984722
 41
0.00984722
  0
VERTEX
  8
0
 10
19.2488
 20
5.24908
 30
0.0
 40
0.00984722
 41
0.00984722
  0
VERTEX
  8
0
 10
19.3356
 20
5.37196
 30
0.0
 40
0.00984722
 41
0.00984722
  0
VERTEX
  8
0
 10
19.4192
 20
5.49707
 30
0.0
 40
0.00984722
 41
0.00984722
  0
VERTEX
  8
0
 10
19.4994
 20
5.62435
 30
0.0
 40
0.00984722
 41
0.00984722
  0
VERTEX
  8
0
 10
19.5764
 20
5.75369
 30
0.0
 40
0.00984722
 41
0.00984722
  0
VERTEX
  8
0
 10
19.65
 20
5.88499
 30
0.0
 40
0.00984722
 41
0.00984722
  0
VERTEX
  8
0
 10
19.72
 20
6.01812
 30
0.0
 40
0.00984722
 41
0.00984722
  0
VERTEX
  8
0
 10
19.7865
 20
6.1531
 30
0.0
 40
0.00984722
 41
0.00984722
  0
VERTEX
  8
0
 10
19.8496
 20
6.28976
 30
0.0
 40
0.00984722
 41
0.00984722
  0
VERTEX
  8
0
 10
19.909
 20
6.428
 30
0.0
 40
0.00984722
 41
0.00984722
  0
VERTEX
  8
0
 10
19.9647
 20
6.56776
 30
0.0
 40
0.00984722
 41
0.00984722
  0
VERTEX
  8
0
 10
20.0168
 20
6.70893
 30
0.0
 40
0.00984722
 41
0.00984722
  0
VERTEX
  8
0
 10
20.0653
 20
6.85146
 30
0.0
 40
0.00984722
 41
0.00984722
  0
VERTEX
  8
0
 10
20.1099
 20
6.99517
 30
0.0
 40
0.00984722
 41
0.00984722
  0
VERTEX
  8
0
 10
20.1507
 20
7.13997
 30
0.0
 40
0.00984722
 41
0.00984722
  0
VERTEX
  8
0
 10
20.1878
 20
7.28586
 30
0.0
 40
0.00984722
 41
0.00984722
  0
VERTEX
  8
0
 10
20.221
 20
7.43261
 30
0.0
 40
0.00984722
 41
0.00984722
  0
VERTEX
  8
0
 10
20.2503
 20
7.58018
 30
0.0
 40
0.00984722
 41
0.00984722
  0
VERTEX
  8
0
 10
20.2758
 20
7.72851
 30
0.0
 40
0.00984722
 41
0.00984722
  0
VERTEX
  8
0
 10
20.2974
 20
7.87744
 30
0.0
 40
0.00984722
 41
0.00984722
  0
VERTEX
  8
0
 10
20.315
 20
8.02686
 30
0.0
 40
0.00984722
 41
0.00984722
  0
VERTEX
  8
0
 10
20.3288
 20
8.17671
 30
0.0
 40
0.00984722
 41
0.00984722
  0
VERTEX
  8
0
 10
20.3386
 20
8.32687
 30
0.0
 40
0.00984722
 41
0.00984722
  0
VERTEX
  8
0
 10
20.3446
 20
8.47721
 30
0.0
 40
0.00984722
 41
0.00984722
  0
VERTEX
  8
0
 10
20.3465
 20
8.62771
 30
0.0
 40
0.00984722
 41
0.00984722
  0
SEQEND
 8
0
  0
ENDSEC
  0
EOF
