<?xml version="1.0" encoding="UTF-8" standalone="no"?>
<!-- Created with Inkscape (http://www.inkscape.org/) -->

<svg
   xmlns:dc="http://purl.org/dc/elements/1.1/"
   xmlns:cc="http://creativecommons.org/ns#"
   xmlns:rdf="http://www.w3.org/1999/02/22-rdf-syntax-ns#"
   xmlns:svg="http://www.w3.org/2000/svg"
   xmlns="http://www.w3.org/2000/svg"
   xmlns:sodipodi="http://sodipodi.sourceforge.net/DTD/sodipodi-0.dtd"
   xmlns:inkscape="http://www.inkscape.org/namespaces/inkscape"
   version="1.1"
   id="svg6377"
   xml:space="preserve"
   width="2245.04"
   height="1587.4"
   viewBox="0 0 2245.04 1587.4"
   sodipodi:docname="Clock1-pg8.svg"
   inkscape:version="0.92.3 (2405546, 2018-03-11)"><metadata
     id="metadata6383"><rdf:RDF><cc:Work
         rdf:about=""><dc:format>image/svg+xml</dc:format><dc:type
           rdf:resource="http://purl.org/dc/dcmitype/StillImage" /><dc:title></dc:title></cc:Work></rdf:RDF></metadata><defs
     id="defs6381" /><sodipodi:namedview
     pagecolor="#ffffff"
     bordercolor="#666666"
     borderopacity="1"
     objecttolerance="10"
     gridtolerance="10"
     guidetolerance="10"
     inkscape:pageopacity="0"
     inkscape:pageshadow="2"
     inkscape:window-width="1920"
     inkscape:window-height="986"
     id="namedview6379"
     showgrid="false"
     inkscape:zoom="0.42050447"
     inkscape:cx="558.52687"
     inkscape:cy="758.61422"
     inkscape:window-x="-11"
     inkscape:window-y="-11"
     inkscape:window-maximized="1"
     inkscape:current-layer="g6385" /><g
     id="g6385"
     inkscape:groupmode="layer"
     inkscape:label="Clock 1 Drawings-Iss4"
     transform="matrix(1.3333333,0,0,-1.3333333,0,1587.4)"><text
       transform="matrix(1,0,0,-1,4278.2021,1292.0278)"
       style="font-variant:normal;font-weight:normal;font-stretch:normal;font-size:15.57439995px;font-family:Arial;-inkscape-font-specification:Arial;writing-mode:lr-tb;fill:#000000;fill-opacity:1;fill-rule:nonzero;stroke:none"
       id="text6781"><tspan
         x="0"
         y="0"
         id="tspan6777">N</tspan><tspan
         x="0"
         y="4172.522"
         id="tspan6779">N</tspan></text>
<g
       id="g6923"
       transform="translate(4312.2178,1285.9059)"><path
         d="M 0,0 -17.007,-4.252 V 4.252 L 0,0 m 0,-4172.519 -17.007,-4.252 v 8.504 L 0,-4172.519"
         style="fill:none;stroke:#000000;stroke-width:0.50999999;stroke-linecap:butt;stroke-linejoin:miter;stroke-miterlimit:10;stroke-dasharray:none;stroke-opacity:1"
         id="path6925"
         inkscape:connector-curvature="0" /></g><g
       id="g7179"
       transform="translate(4278.2021,1285.9059)"><path
         d="M 0,0 H 34.016 M 0,-4172.519 h 34.016"
         style="fill:none;stroke:#000000;stroke-width:0.50999999;stroke-linecap:round;stroke-linejoin:round;stroke-miterlimit:10;stroke-dasharray:none;stroke-opacity:1"
         id="path7181"
         inkscape:connector-curvature="0" /></g><g
       id="g7479"
       transform="translate(4312.2178,1285.9059)"><path
         d="M 0,0 -17.007,-4.252 V 4.252 M 0,-4172.519 l -17.007,-4.252 v 8.504"
         style="fill:#000000;fill-opacity:1;fill-rule:nonzero;stroke:none"
         id="path7481"
         inkscape:connector-curvature="0" /></g><g
       id="g7679"
       transform="translate(219.7865,1099.5757)"><path
         d="M 0,0 1.38,0.364 2.782,0.651 4.201,0.859 5.629,0.988 7.06,1.037 8.486,1.006 9.909,0.893 l 1.418,-0.194 1.407,-0.272 1.39,-0.351 1.366,-0.426 1.336,-0.501 1.305,-0.577 1.275,-0.652 1.239,-0.723 1.196,-0.79 1.149,-0.854 1.095,-0.915 1.042,-0.977 0.989,-1.038 0.931,-1.092 0.869,-1.143 0.803,-1.187 0.732,-1.227 0.662,-1.269 0.591,-1.308 0.518,-1.341 0.443,-1.368 0.365,-1.388 0.285,-1.402 0.21,-1.45 0.126,-1.461 0.042,-1.464 m -138.082,-80.912 0.607,2.01 0.634,2.002 0.661,1.994 0.688,1.984 0.714,1.975 0.741,1.965 0.768,1.954 0.794,1.945 0.82,1.933 0.846,1.922 0.872,1.911 0.897,1.899 0.923,1.886 0.949,1.874 0.973,1.861 0.999,1.847 1.023,1.834 1.048,1.82 1.073,1.806 1.096,1.791 1.121,1.776 1.145,1.761 1.168,1.745 1.191,1.729 1.215,1.713 1.238,1.697 1.261,1.679 1.283,1.663 1.305,1.645 1.328,1.627 1.349,1.61 1.371,1.591 1.392,1.572 1.414,1.553 1.434,1.535 1.454,1.514 1.475,1.495 1.495,1.475 1.515,1.455 1.534,1.434 1.554,1.413 1.572,1.392 1.591,1.371 1.609,1.35 1.628,1.327 1.645,1.306 1.662,1.283 1.68,1.26 1.696,1.238 1.714,1.215 1.729,1.192 1.745,1.168 1.761,1.145 1.776,1.12 1.791,1.097 1.806,1.072 1.819,1.049 1.834,1.023 1.848,0.998 1.861,0.974 1.874,0.948 1.886,0.923 1.899,0.898 1.91,0.872 1.922,0.846 1.934,0.82 1.944,0.794 1.955,0.767 1.965,0.741 1.975,0.715 1.984,0.688 1.993,0.661 2.003,0.634 L 0,0 m -80.912,-138.083 -1.433,0.042 -1.433,0.122 -1.426,0.203 -1.412,0.281 -1.393,0.36 -1.365,0.436 -1.339,0.514 -1.311,0.59 -1.279,0.664 -1.239,0.734 -1.195,0.801 -1.144,0.865 -1.092,0.928 -1.041,0.991 -0.985,1.05 -0.926,1.103 -0.861,1.151 -0.792,1.195 -0.721,1.236 -0.652,1.279 -0.581,1.315 -0.507,1.346 -0.43,1.369 -0.35,1.388 -0.271,1.403 -0.191,1.421 -0.112,1.431 -0.032,1.435 0.048,1.433 0.128,1.423 0.208,1.41 0.287,1.397 0.365,1.378 m 102.994,-32.715 -5.662,0.003 -22.647,0.01 -50.208,0.008 m 91.315,3.402 -1.354,-0.729 -1.396,-0.646 -1.431,-0.56 -1.513,-0.487 -1.542,-0.393 -1.561,-0.296 -0.992,-0.137 -0.997,-0.097 -1.005,-0.059 -1.007,-0.019 m 12.798,-26.03 -0.406,0.963 -0.378,0.974 -0.35,0.985 -0.322,0.994 -0.293,1.003 -0.265,1.011 -0.236,1.018 -0.207,1.024 -0.178,1.03 -0.148,1.034 -0.119,1.039 -0.089,1.041 -0.06,1.043 -0.029,1.045 v 1.045 l 0.029,1.044 0.06,1.044 0.089,1.041 0.119,1.038 0.148,1.035 0.178,1.029 0.207,1.025 0.236,1.018 0.265,1.011 0.293,1.003 0.322,0.994 0.35,0.984 0.378,0.975 0.406,0.963 m -12.798,-26.03 1.414,-0.038 1.411,-0.117 1.402,-0.194 1.429,-0.28 1.412,-0.362 1.388,-0.441 1.114,-0.418 1.094,-0.471 1.08,-0.526 1.054,-0.576 m -91.315,3.401 5.661,0.001 22.647,0.003 25.104,0.006 25.105,0.012 m -102.994,-32.715 -0.364,1.38 -0.287,1.402 -0.208,1.419 -0.129,1.428 -0.049,1.431 0.031,1.426 0.113,1.423 0.193,1.418 0.273,1.407 0.35,1.39 0.427,1.366 0.501,1.336 0.577,1.305 0.652,1.275 0.722,1.239 0.791,1.196 0.854,1.149 0.915,1.095 0.977,1.042 1.037,0.989 1.093,0.931 1.143,0.869 1.187,0.803 1.227,0.732 1.269,0.662 1.308,0.591 1.341,0.518 1.368,0.443 1.388,0.365 1.402,0.285 1.45,0.21 1.461,0.126 1.464,0.042 M 0,-298.815 l -2.01,0.607 -2.003,0.634 -1.993,0.661 -1.984,0.688 -1.975,0.714 -1.965,0.741 -1.955,0.768 -1.944,0.794 -1.934,0.82 -1.922,0.846 -1.91,0.872 -1.899,0.897 -1.886,0.923 -1.874,0.949 -1.861,0.973 -1.848,0.999 -1.834,1.023 -1.819,1.048 -1.806,1.073 -1.791,1.096 -1.776,1.121 -1.761,1.145 -1.745,1.168 -1.729,1.191 -1.714,1.215 -1.696,1.238 -1.68,1.261 -1.662,1.283 -1.645,1.305 -1.628,1.328 -1.609,1.349 -1.591,1.371 -1.572,1.392 -1.554,1.414 -1.534,1.434 -1.515,1.454 -1.495,1.475 -1.475,1.495 -1.454,1.515 -1.434,1.534 -1.414,1.554 -1.392,1.572 -1.371,1.591 -1.349,1.609 -1.328,1.628 -1.305,1.645 -1.283,1.662 -1.261,1.68 -1.238,1.696 -1.215,1.714 -1.191,1.729 -1.168,1.745 -1.145,1.761 -1.121,1.776 -1.096,1.791 -1.073,1.806 -1.048,1.82 -1.023,1.833 -0.999,1.848 -0.973,1.861 -0.949,1.874 -0.923,1.886 -0.897,1.899 -0.872,1.91 -0.846,1.922 -0.82,1.934 -0.794,1.944 -0.768,1.955 -0.741,1.965 -0.714,1.975 -0.688,1.984 -0.661,1.993 -0.634,2.003 -0.607,2.01 m 138.082,-80.912 -0.041,-1.433 -0.122,-1.433 -0.203,-1.426 -0.282,-1.412 -0.359,-1.393 -0.436,-1.365 -0.514,-1.339 -0.59,-1.311 -0.664,-1.279 -0.734,-1.239 -0.801,-1.195 -0.865,-1.144 -0.928,-1.092 -0.991,-1.041 -1.05,-0.985 -1.103,-0.926 -1.152,-0.861 -1.194,-0.792 -1.236,-0.721 -1.279,-0.652 -1.315,-0.581 -1.346,-0.507 -1.37,-0.43 -1.387,-0.35 -1.403,-0.271 -1.421,-0.191 -1.431,-0.112 -1.436,-0.032 -1.433,0.048 -1.423,0.128 -1.409,0.208 -1.397,0.287 -1.378,0.365 m 32.715,102.994 -0.004,-5.662 -0.009,-22.647 -0.009,-50.208 m -3.401,91.315 0.728,-1.354 0.646,-1.396 0.56,-1.431 0.488,-1.513 0.393,-1.542 0.296,-1.561 0.136,-0.992 0.098,-0.997 0.059,-1.005 0.019,-1.007 m 26.03,12.798 -0.963,-0.406 -0.975,-0.378 -0.984,-0.35 -0.994,-0.322 -1.003,-0.294 -1.011,-0.264 -1.018,-0.236 -1.025,-0.207 -1.029,-0.178 -1.035,-0.148 -1.038,-0.119 -1.041,-0.089 -1.044,-0.06 -1.044,-0.029 h -1.045 l -1.045,0.029 -1.043,0.06 -1.041,0.089 -1.039,0.119 -1.034,0.148 -1.03,0.178 -1.024,0.207 -1.018,0.236 -1.011,0.264 -1.003,0.294 -0.994,0.322 -0.985,0.35 -0.974,0.378 -0.963,0.406 m 26.03,-12.798 0.038,1.414 0.116,1.411 0.194,1.402 0.281,1.429 0.361,1.412 0.441,1.388 0.419,1.114 0.47,1.094 0.526,1.08 0.577,1.054 m -3.402,-91.315 v 5.661 l -0.003,22.647 -0.006,25.104 -0.012,25.105 m 32.715,-102.994 -1.38,-0.365 -1.403,-0.286 -1.418,-0.208 -1.428,-0.129 -1.431,-0.049 -1.427,0.031 -1.422,0.113 -1.418,0.193 -1.408,0.273 -1.39,0.35 -1.366,0.427 -1.335,0.501 -1.306,0.577 -1.275,0.652 -1.238,0.722 -1.196,0.791 -1.149,0.854 -1.095,0.915 -1.043,0.977 -0.989,1.037 -0.931,1.093 -0.869,1.143 -0.802,1.187 -0.732,1.227 -0.662,1.268 -0.591,1.309 -0.518,1.341 -0.443,1.368 -0.365,1.388 -0.286,1.402 -0.209,1.45 -0.126,1.46 -0.043,1.465 m 138.083,80.912 -0.607,-2.01 -0.634,-2.003 -0.661,-1.993 -0.688,-1.984 -0.715,-1.975 -0.741,-1.965 -0.767,-1.955 -0.794,-1.944 -0.82,-1.934 -0.846,-1.922 -0.872,-1.91 -0.898,-1.899 -0.923,-1.886 -0.948,-1.874 -0.973,-1.861 -0.999,-1.848 -1.023,-1.833 -1.048,-1.82 -1.073,-1.806 -1.097,-1.791 -1.12,-1.776 -1.145,-1.761 -1.168,-1.745 -1.192,-1.729 -1.215,-1.714 -1.238,-1.696 -1.26,-1.68 -1.283,-1.662 -1.306,-1.645 -1.327,-1.628 -1.35,-1.609 -1.37,-1.591 -1.393,-1.572 -1.413,-1.554 -1.434,-1.534 -1.455,-1.515 -1.475,-1.495 -1.495,-1.475 -1.514,-1.454 -1.535,-1.434 -1.553,-1.414 -1.572,-1.392 -1.591,-1.371 -1.61,-1.349 -1.627,-1.328 -1.645,-1.305 -1.663,-1.283 -1.679,-1.261 -1.697,-1.238 -1.713,-1.215 -1.729,-1.191 -1.745,-1.168 -1.761,-1.145 -1.776,-1.121 -1.791,-1.096 -1.806,-1.073 -1.82,-1.048 -1.834,-1.023 -1.847,-0.999 -1.861,-0.973 -1.874,-0.949 -1.886,-0.923 -1.899,-0.897 -1.911,-0.872 -1.922,-0.846 -1.933,-0.82 -1.945,-0.794 -1.954,-0.768 -1.965,-0.741 -1.975,-0.714 -1.984,-0.688 -1.994,-0.661 -2.002,-0.634 -2.01,-0.607 m 80.912,138.082 1.433,-0.041 1.432,-0.123 1.426,-0.202 1.413,-0.282 1.392,-0.359 1.366,-0.436 1.338,-0.514 1.312,-0.591 1.278,-0.663 1.24,-0.734 1.195,-0.801 1.144,-0.865 1.091,-0.928 1.041,-0.991 0.986,-1.05 0.925,-1.103 0.861,-1.152 0.792,-1.194 0.722,-1.236 0.652,-1.279 0.581,-1.315 0.506,-1.346 0.43,-1.37 0.351,-1.387 0.27,-1.404 0.192,-1.42 0.112,-1.431 0.032,-1.436 -0.048,-1.433 -0.129,-1.423 -0.208,-1.409 -0.287,-1.397 -0.364,-1.378 m -102.994,32.715 5.662,-0.004 22.647,-0.009 50.208,-0.009 m -91.315,-3.401 1.353,0.728 1.396,0.646 1.431,0.56 1.513,0.488 1.542,0.393 1.562,0.296 0.992,0.136 0.996,0.098 1.006,0.059 1.007,0.019 m -12.798,26.03 0.405,-0.963 0.378,-0.975 0.35,-0.984 0.322,-0.994 0.294,-1.003 0.265,-1.011 0.236,-1.018 0.207,-1.025 0.178,-1.029 0.148,-1.035 0.119,-1.038 0.089,-1.041 0.059,-1.044 0.03,-1.044 v -1.045 l -0.03,-1.045 -0.059,-1.043 -0.089,-1.041 -0.119,-1.039 -0.148,-1.034 -0.178,-1.03 -0.207,-1.024 -0.236,-1.018 -0.265,-1.011 -0.294,-1.003 -0.322,-0.994 -0.35,-0.985 -0.378,-0.974 -0.405,-0.963 m 12.798,26.03 -1.414,0.038 -1.412,0.116 -1.401,0.194 -1.429,0.281 -1.412,0.361 -1.388,0.441 -1.115,0.419 -1.093,0.47 -1.08,0.526 -1.054,0.577 m 91.315,-3.402 h -5.662 l -22.646,-0.003 -25.104,-0.006 -25.105,-0.012 m 102.994,32.715 0.364,-1.38 0.287,-1.403 0.208,-1.418 0.129,-1.428 0.049,-1.431 -0.031,-1.427 -0.113,-1.422 -0.194,-1.418 -0.272,-1.408 -0.351,-1.39 -0.426,-1.366 -0.501,-1.335 -0.577,-1.306 -0.652,-1.275 -0.723,-1.238 -0.79,-1.196 -0.854,-1.149 -0.915,-1.095 -0.977,-1.043 -1.038,-0.989 -1.092,-0.931 -1.143,-0.869 -1.187,-0.802 -1.227,-0.732 -1.269,-0.662 -1.308,-0.591 -1.341,-0.518 -1.368,-0.443 -1.388,-0.365 -1.402,-0.286 -1.45,-0.209 -1.461,-0.126 -1.464,-0.043 M 88.037,0 l 2.01,-0.607 2.002,-0.634 1.994,-0.661 1.984,-0.688 1.975,-0.715 1.965,-0.741 1.954,-0.767 1.945,-0.794 1.933,-0.82 1.922,-0.846 1.911,-0.872 1.899,-0.898 1.886,-0.923 1.874,-0.948 1.861,-0.974 1.847,-0.998 1.834,-1.023 1.82,-1.049 1.806,-1.072 1.791,-1.097 1.776,-1.12 1.761,-1.145 1.745,-1.168 1.729,-1.192 1.713,-1.215 1.697,-1.238 1.679,-1.26 1.663,-1.283 1.645,-1.306 1.627,-1.327 1.61,-1.35 1.591,-1.371 1.572,-1.392 1.553,-1.413 1.535,-1.434 1.514,-1.455 1.495,-1.475 1.475,-1.495 1.455,-1.514 1.434,-1.535 1.413,-1.553 1.393,-1.572 1.37,-1.591 1.35,-1.61 1.327,-1.627 1.306,-1.645 1.283,-1.663 1.26,-1.679 1.238,-1.697 1.215,-1.713 1.192,-1.729 1.168,-1.745 1.145,-1.761 1.12,-1.776 1.097,-1.791 1.073,-1.806 1.048,-1.82 1.023,-1.834 0.999,-1.847 0.973,-1.861 0.948,-1.874 0.923,-1.886 0.898,-1.899 0.872,-1.911 0.846,-1.922 0.82,-1.933 0.794,-1.945 0.767,-1.954 0.741,-1.965 0.715,-1.975 0.688,-1.984 0.661,-1.994 0.634,-2.002 0.607,-2.01 m -138.083,80.912 0.042,1.433 0.122,1.432 0.203,1.426 0.281,1.413 0.36,1.392 0.436,1.366 0.514,1.338 0.59,1.312 0.664,1.278 0.734,1.24 0.801,1.195 0.865,1.144 0.928,1.091 0.991,1.041 1.05,0.986 1.103,0.925 1.151,0.861 1.195,0.792 1.236,0.722 1.279,0.652 1.315,0.581 1.346,0.506 1.369,0.43 1.388,0.351 1.403,0.27 1.421,0.192 1.431,0.112 1.435,0.032 1.433,-0.048 1.423,-0.129 1.41,-0.208 L 86.659,0.364 88.037,0 m -32.715,-102.994 0.003,5.662 0.01,22.647 0.008,50.208 m 3.402,-91.315 -0.729,1.353 -0.646,1.396 -0.56,1.431 -0.487,1.513 -0.393,1.542 -0.296,1.562 -0.137,0.992 -0.097,0.996 -0.059,1.006 -0.019,1.007 m -26.03,-12.798 0.963,0.405 0.974,0.378 0.985,0.35 0.994,0.323 1.003,0.293 1.011,0.265 1.018,0.236 1.024,0.207 1.03,0.178 1.034,0.148 1.039,0.119 1.041,0.089 1.043,0.059 1.045,0.03 h 1.045 l 1.044,-0.03 1.044,-0.059 1.041,-0.089 1.038,-0.119 1.035,-0.148 1.029,-0.178 1.025,-0.207 1.018,-0.236 1.011,-0.265 1.003,-0.293 0.994,-0.323 0.984,-0.35 0.975,-0.378 0.963,-0.405 m -26.03,12.798 -0.038,-1.414 -0.117,-1.412 -0.194,-1.401 -0.28,-1.429 -0.362,-1.412 -0.441,-1.388 -0.418,-1.115 -0.471,-1.093 -0.526,-1.08 -0.576,-1.054 m 3.401,91.315 0.001,-5.662 0.003,-22.646 0.006,-25.104 0.012,-25.105 m -144.833,-46.414 0.054,4.087 0.16,4.085 0.268,4.079 0.374,4.07 0.48,4.059 0.587,4.045 0.692,4.029 0.797,4.009 0.902,3.987 1.007,3.961 1.109,3.934 1.212,3.904 1.314,3.871 1.415,3.834 1.514,3.797 1.614,3.756 1.711,3.712 1.808,3.666 1.903,3.617 1.998,3.566 2.089,3.513 2.182,3.457 2.271,3.399 2.359,3.338 2.445,3.275 2.531,3.21 2.614,3.143 2.695,3.073 2.774,3.001 2.852,2.928 2.928,2.852 3.002,2.775 3.073,2.695 3.143,2.614 3.21,2.53 3.275,2.446 3.338,2.359 3.399,2.271 3.456,2.181 3.513,2.09 3.567,1.997 3.617,1.903 3.666,1.808 3.712,1.712 3.756,1.613 3.796,1.515 3.835,1.415 3.871,1.313 3.903,1.213 3.934,1.109 3.962,1.006 3.987,0.902 4.009,0.798 4.028,0.692 4.045,0.587 4.06,0.48 4.07,0.374 4.079,0.267 4.084,0.161 4.087,0.053 4.087,-0.053 4.085,-0.161 4.079,-0.267 4.07,-0.374 4.059,-0.48 4.045,-0.587 4.029,-0.692 4.009,-0.798 3.987,-0.902 3.961,-1.006 3.934,-1.109 3.904,-1.213 3.871,-1.313 3.834,-1.415 3.797,-1.515 3.756,-1.613 3.712,-1.712 3.666,-1.808 3.617,-1.903 3.566,-1.997 3.513,-2.09 3.457,-2.181 3.399,-2.271 3.338,-2.359 3.275,-2.446 3.21,-2.53 3.143,-2.614 3.073,-2.695 3.001,-2.775 2.928,-2.852 2.852,-2.928 2.775,-3.001 2.695,-3.073 2.614,-3.143 2.53,-3.21 2.446,-3.275 2.359,-3.338 2.271,-3.399 2.181,-3.457 2.09,-3.513 1.997,-3.566 1.904,-3.617 1.807,-3.666 1.712,-3.712 1.613,-3.756 1.515,-3.797 1.415,-3.834 1.314,-3.871 1.212,-3.904 1.109,-3.934 1.006,-3.961 0.902,-3.987 0.798,-4.009 0.692,-4.029 0.587,-4.045 0.48,-4.059 0.374,-4.07 0.267,-4.079 0.161,-4.085 0.053,-4.087 -0.053,-4.087 -0.161,-4.084 -0.267,-4.079 -0.374,-4.07 -0.48,-4.06 -0.587,-4.045 -0.692,-4.028 -0.798,-4.009 -0.902,-3.987 -1.006,-3.962 -1.109,-3.934 -1.212,-3.903 -1.314,-3.871 -1.415,-3.835 -1.515,-3.796 -1.613,-3.756 -1.712,-3.712 -1.807,-3.666 -1.904,-3.617 -1.997,-3.567 -2.09,-3.513 -2.181,-3.456 -2.271,-3.399 -2.359,-3.338 -2.446,-3.275 -2.53,-3.21 -2.614,-3.143 -2.695,-3.073 -2.775,-3.002 -2.852,-2.928 -2.928,-2.852 -3.001,-2.774 -3.073,-2.695 -3.143,-2.614 -3.21,-2.531 -3.275,-2.445 -3.338,-2.359 -3.399,-2.271 -3.457,-2.182 -3.513,-2.089 -3.566,-1.998 -3.617,-1.903 -3.666,-1.808 -3.712,-1.711 -3.756,-1.614 -3.797,-1.514 -3.834,-1.415 -3.871,-1.314 -3.904,-1.212 -3.934,-1.11 -3.961,-1.006 -3.987,-0.902 -4.009,-0.797 -4.029,-0.692 -4.045,-0.587 -4.059,-0.48 -4.07,-0.374 -4.079,-0.268 -4.085,-0.16 -4.087,-0.054 -4.087,0.054 -4.084,0.16 -4.079,0.268 -4.07,0.374 -4.06,0.48 -4.045,0.587 -4.028,0.692 -4.009,0.797 -3.987,0.902 -3.962,1.006 -3.934,1.11 -3.903,1.212 -3.871,1.314 -3.835,1.415 -3.796,1.514 -3.756,1.614 -3.712,1.711 -3.666,1.808 -3.617,1.903 -3.567,1.998 -3.513,2.089 -3.456,2.182 -3.399,2.271 -3.338,2.359 -3.275,2.445 -3.21,2.531 -3.143,2.614 -3.073,2.695 -3.002,2.774 -2.928,2.852 -2.852,2.928 -2.774,3.002 -2.695,3.073 -2.614,3.143 -2.531,3.21 -2.445,3.275 -2.359,3.338 -2.271,3.399 -2.182,3.456 -2.089,3.513 -1.998,3.567 -1.903,3.617 -1.808,3.666 -1.711,3.712 -1.614,3.756 -1.514,3.796 -1.415,3.835 -1.314,3.871 -1.212,3.903 -1.109,3.934 -1.007,3.962 -0.902,3.987 -0.797,4.009 -0.692,4.028 -0.587,4.045 -0.48,4.06 -0.374,4.07 -0.268,4.079 -0.16,4.084 -0.054,4.087 m 305.544,-44.018 -0.274,0.081 -0.269,0.079 -0.262,0.077 -0.253,0.075 -0.241,0.071 -0.225,0.066 -0.209,0.061 -0.189,0.056 -0.168,0.05 -0.146,0.043 -0.121,0.035 -0.095,0.028 -0.069,0.021 -0.042,0.012 -0.014,0.004 m 0,0 0.381,1.477 0.281,1.504 0.18,1.521 0.079,1.528 -0.025,1.524 -0.129,1.519 -0.232,1.512 -0.333,1.495 -0.431,1.467 -0.527,1.43 -0.624,1.391 -0.719,1.351 -0.809,1.301 -0.892,1.242 -0.97,1.175 -1.05,1.108 -1.125,1.037 -1.194,0.961 -1.254,0.878 -1.305,0.788 -1.358,0.699 -1.407,0.606 -1.446,0.513 -1.475,0.413 -1.494,0.313 -1.284,0.185 -1.294,0.111 -1.296,0.037 m -0.148,2.848 10e-4,-0.297 0.002,-0.294 0.004,-0.288 0.005,-0.278 0.007,-0.266 0.009,-0.25 0.009,-0.232 0.011,-0.211 0.012,-0.187 0.013,-0.163 0.014,-0.135 0.015,-0.107 0.015,-0.078 0.015,-0.046 0.016,-0.016 M 0,-298.815 l 0.081,0.273 0.079,0.27 0.077,0.262 0.075,0.253 0.071,0.24 0.066,0.226 0.061,0.208 0.056,0.19 0.05,0.168 0.043,0.145 0.035,0.121 0.029,0.096 0.02,0.069 0.012,0.041 0.004,0.014 m 0,0 1.477,-0.38 1.504,-0.281 1.521,-0.181 1.528,-0.078 1.524,0.025 1.519,0.129 1.512,0.232 1.495,0.333 1.467,0.431 1.43,0.527 1.392,0.624 1.35,0.719 1.301,0.808 1.242,0.892 1.175,0.971 1.107,1.049 1.038,1.126 0.961,1.194 0.878,1.253 0.788,1.306 0.699,1.358 0.606,1.407 0.513,1.446 0.413,1.475 0.313,1.494 0.185,1.284 0.111,1.293 0.037,1.297 m 2.848,0.148 -0.297,-10e-4 -0.294,-0.002 -0.288,-0.004 -0.278,-0.006 -0.266,-0.007 -0.25,-0.008 -0.232,-0.01 -0.211,-0.011 -0.187,-0.012 -0.163,-0.013 -0.135,-0.014 -0.107,-0.014 -0.078,-0.015 -0.046,-0.015 -0.016,-0.016 m -135.234,169.097 0.273,-0.081 0.27,-0.079 0.262,-0.078 0.253,-0.074 0.24,-0.071 0.226,-0.066 0.208,-0.062 0.19,-0.056 0.168,-0.049 0.145,-0.043 0.121,-0.036 0.096,-0.028 0.069,-0.02 0.041,-0.012 0.014,-0.005 m 0,0 -0.38,-1.476 -0.281,-1.504 -0.181,-1.521 -0.078,-1.528 0.025,-1.525 0.129,-1.519 0.232,-1.512 0.333,-1.494 0.431,-1.468 0.527,-1.43 0.624,-1.391 0.719,-1.35 0.808,-1.301 0.892,-1.242 0.971,-1.176 1.049,-1.107 1.126,-1.037 1.194,-0.961 1.253,-0.878 1.306,-0.789 1.358,-0.698 1.407,-0.607 1.445,-0.512 1.476,-0.414 1.494,-0.312 1.284,-0.185 1.293,-0.111 1.297,-0.037 m 0.148,-2.849 -10e-4,0.298 -0.002,0.294 -0.004,0.288 -0.006,0.278 -0.007,0.265 -0.008,0.251 -0.01,0.231 -0.011,0.211 -0.012,0.188 -0.013,0.162 -0.014,0.136 -0.014,0.107 -0.015,0.077 -0.015,0.047 -0.016,0.016 M 88.037,0 87.956,-0.274 87.877,-0.543 87.799,-0.805 87.725,-1.058 87.654,-1.299 87.588,-1.524 87.526,-1.733 87.47,-1.922 87.421,-2.09 87.378,-2.236 87.342,-2.357 87.314,-2.452 87.294,-2.521 87.282,-2.563 87.277,-2.577 m 0,0 -1.476,0.381 -1.504,0.281 -1.521,0.18 -1.528,0.079 -1.525,-0.025 -1.519,-0.129 -1.512,-0.232 -1.494,-0.333 -1.468,-0.431 -1.43,-0.527 -1.391,-0.624 -1.35,-0.719 -1.301,-0.808 -1.242,-0.893 -1.176,-0.97 -1.107,-1.05 -1.037,-1.125 -0.961,-1.194 -0.878,-1.254 -0.789,-1.305 -0.698,-1.358 -0.607,-1.407 -0.512,-1.446 -0.414,-1.475 -0.312,-1.495 -0.185,-1.283 -0.111,-1.294 -0.037,-1.296 m -2.849,-0.148 h 0.298 l 0.294,0.003 0.288,0.004 0.278,0.005 0.265,0.007 0.251,0.009 0.231,0.009 0.211,0.011 0.188,0.012 0.163,0.013 0.135,0.014 0.107,0.015 0.077,0.015 0.047,0.015 0.016,0.016 m -139.104,-136.404 -10e-4,-0.297 -0.002,-0.294 -0.004,-0.288 -0.006,-0.278 -0.007,-0.266 -0.008,-0.25 -0.01,-0.232 -0.011,-0.211 -0.012,-0.187 -0.013,-0.163 -0.014,-0.135 -0.014,-0.107 -0.015,-0.078 -0.015,-0.046 -0.016,-0.016 m 0,0 -1.528,-0.052 -1.525,-0.157 -1.514,-0.258 -1.491,-0.358 -1.459,-0.457 -1.424,-0.556 -1.388,-0.653 -1.343,-0.746 -1.289,-0.833 -1.225,-0.915 -1.159,-0.997 -1.093,-1.076 -1.02,-1.149 -0.939,-1.213 -0.853,-1.269 -0.762,-1.324 -0.674,-1.377 -0.581,-1.42 -0.484,-1.455 -0.383,-1.479 -0.281,-1.5 -0.179,-1.521 -0.078,-1.531 0.025,-1.532 0.128,-1.521 0.185,-1.259 0.256,-1.247 0.325,-1.231 m -2.576,-0.759 0.273,0.081 0.27,0.079 0.262,0.077 0.253,0.075 0.24,0.071 0.226,0.066 0.208,0.061 0.19,0.056 0.168,0.05 0.145,0.043 0.121,0.035 0.096,0.028 0.069,0.021 0.041,0.012 0.014,0.004 m 135.506,168.19 h -0.297 l -0.294,0.003 -0.288,0.004 -0.278,0.005 -0.266,0.007 -0.25,0.009 -0.232,0.009 -0.211,0.011 -0.187,0.012 -0.163,0.013 -0.135,0.014 -0.107,0.015 -0.078,0.015 -0.046,0.015 -0.016,0.016 m 0,0 -0.052,1.527 -0.157,1.526 -0.258,1.514 -0.358,1.491 -0.457,1.459 -0.556,1.424 -0.653,1.388 -0.746,1.343 -0.833,1.288 -0.915,1.226 -0.997,1.159 -1.076,1.093 -1.149,1.019 -1.213,0.94 -1.269,0.852 -1.324,0.763 -1.377,0.673 -1.42,0.581 -1.455,0.484 -1.479,0.384 -1.5,0.28 L 9.08,-1.735 7.549,-1.658 6.017,-1.682 4.496,-1.81 3.237,-1.996 1.99,-2.252 0.759,-2.577 M 0,0 0.081,-0.274 0.16,-0.543 0.237,-0.805 0.312,-1.058 0.383,-1.299 0.449,-1.524 0.51,-1.733 0.566,-1.922 0.616,-2.09 0.659,-2.236 0.694,-2.357 0.723,-2.452 0.743,-2.521 0.755,-2.563 0.759,-2.577 m 54.584,-271.761 0.298,-10e-4 0.294,-0.002 0.288,-0.004 0.278,-0.006 0.265,-0.007 0.251,-0.008 0.231,-0.01 0.211,-0.011 0.188,-0.012 0.163,-0.013 0.135,-0.014 0.107,-0.014 0.077,-0.015 0.047,-0.015 0.016,-0.016 m 0,0 0.052,-1.528 0.156,-1.525 0.258,-1.514 0.359,-1.491 0.457,-1.459 0.556,-1.424 0.653,-1.388 0.746,-1.343 0.833,-1.289 0.915,-1.225 0.996,-1.159 1.077,-1.093 1.148,-1.02 1.213,-0.939 1.27,-0.853 1.323,-0.762 1.377,-0.674 1.421,-0.581 1.455,-0.484 1.479,-0.383 1.5,-0.281 1.521,-0.179 1.531,-0.078 1.531,0.025 1.521,0.128 1.259,0.185 1.248,0.256 1.23,0.325 m 0.76,-2.576 -0.081,0.273 -0.079,0.27 -0.078,0.262 -0.074,0.253 -0.071,0.24 -0.066,0.226 -0.062,0.208 -0.056,0.19 -0.049,0.168 -0.043,0.145 -0.036,0.121 -0.028,0.096 -0.02,0.069 -0.012,0.041 -0.005,0.014 m 81.672,158.156 10e-4,0.298 0.002,0.294 0.004,0.288 0.005,0.278 0.007,0.265 0.009,0.251 0.009,0.231 0.011,0.211 0.012,0.188 0.013,0.162 0.014,0.136 0.015,0.107 0.015,0.077 0.015,0.047 0.016,0.016 m 0,0 1.527,0.052 1.526,0.156 1.514,0.258 1.491,0.359 1.459,0.457 1.424,0.556 1.388,0.653 1.343,0.746 1.288,0.833 1.226,0.915 1.159,0.996 1.093,1.077 1.019,1.148 0.94,1.213 0.852,1.27 0.763,1.324 0.673,1.376 0.581,1.421 0.484,1.455 0.384,1.479 0.28,1.5 0.18,1.521 0.077,1.531 -0.024,1.531 -0.128,1.521 -0.186,1.259 -0.256,1.248 -0.325,1.23 m 2.577,0.76 -0.274,-0.081 -0.269,-0.079 -0.262,-0.078 -0.253,-0.074 -0.241,-0.071 -0.225,-0.066 -0.209,-0.062 -0.189,-0.056 -0.168,-0.049 -0.146,-0.043 -0.121,-0.036 -0.095,-0.028 -0.069,-0.02 -0.042,-0.012 -0.014,-0.005 m -316.227,-43.259 0.058,4.435 0.174,4.431 0.29,4.425 0.406,4.416 0.521,4.404 0.637,4.389 0.751,4.37 0.865,4.35 0.979,4.325 1.091,4.298 1.204,4.268 1.315,4.236 1.426,4.199 1.534,4.16 1.644,4.119 1.75,4.075 1.857,4.027 1.961,3.978 2.065,3.924 2.167,3.869 2.267,3.811 2.367,3.751 2.464,3.687 2.559,3.622 2.653,3.553 2.746,3.483 2.836,3.409 2.924,3.334 3.01,3.257 3.094,3.176 3.177,3.095 3.256,3.01 3.334,2.924 3.41,2.836 3.483,2.745 3.553,2.654 3.621,2.559 3.688,2.464 3.75,2.366 3.811,2.268 3.869,2.166 3.925,2.065 3.977,1.962 4.028,1.856 4.074,1.751 4.119,1.643 4.161,1.535 4.199,1.426 4.235,1.315 4.268,1.203 4.299,1.092 4.325,0.979 4.349,0.865 4.371,0.751 4.389,0.636 4.404,0.521 4.416,0.406 4.425,0.29 4.431,0.174 4.434,0.058 4.435,-0.058 4.431,-0.174 4.425,-0.29 4.416,-0.406 4.404,-0.521 4.389,-0.636 4.37,-0.751 4.35,-0.865 4.325,-0.979 4.298,-1.092 4.268,-1.203 4.236,-1.315 4.199,-1.426 4.16,-1.535 4.119,-1.643 4.075,-1.751 4.027,-1.856 3.977,-1.962 3.925,-2.065 3.869,-2.166 3.811,-2.268 3.751,-2.366 3.687,-2.464 3.622,-2.559 3.553,-2.654 3.483,-2.745 3.409,-2.836 3.334,-2.924 3.257,-3.01 3.176,-3.095 3.095,-3.176 3.01,-3.257 2.924,-3.334 2.836,-3.409 2.745,-3.483 2.654,-3.553 2.559,-3.622 2.464,-3.687 2.366,-3.751 2.268,-3.811 2.166,-3.869 2.065,-3.924 1.962,-3.978 1.856,-4.027 1.751,-4.075 1.643,-4.119 1.535,-4.16 1.426,-4.199 1.315,-4.236 1.203,-4.268 1.092,-4.298 0.979,-4.325 0.865,-4.35 0.751,-4.37 0.636,-4.389 0.521,-4.404 0.406,-4.416 0.29,-4.425 0.174,-4.431 0.058,-4.435 -0.058,-4.434 -0.174,-4.431 -0.29,-4.425 -0.406,-4.416 -0.521,-4.404 -0.636,-4.389 -0.751,-4.371 -0.865,-4.349 -0.979,-4.325 -1.092,-4.299 -1.203,-4.268 -1.315,-4.235 -1.426,-4.199 -1.535,-4.161 -1.643,-4.119 -1.751,-4.074 -1.856,-4.028 -1.962,-3.977 -2.065,-3.925 -2.166,-3.869 -2.268,-3.811 -2.366,-3.75 -2.464,-3.688 -2.559,-3.621 -2.654,-3.553 -2.745,-3.483 -2.836,-3.41 -2.924,-3.334 -3.01,-3.256 -3.095,-3.177 -3.176,-3.094 -3.257,-3.01 -3.334,-2.924 -3.409,-2.836 -3.483,-2.746 -3.553,-2.653 -3.622,-2.559 -3.687,-2.464 -3.751,-2.367 -3.811,-2.267 -3.869,-2.167 -3.925,-2.065 -3.977,-1.961 -4.027,-1.857 -4.075,-1.75 -4.119,-1.644 -4.16,-1.534 -4.199,-1.426 -4.236,-1.315 -4.268,-1.204 -4.298,-1.091 -4.325,-0.979 -4.35,-0.865 -4.37,-0.751 -4.389,-0.637 -4.404,-0.521 -4.416,-0.406 -4.425,-0.29 -4.431,-0.174 -4.435,-0.058 -4.434,0.058 -4.431,0.174 -4.425,0.29 -4.416,0.406 -4.404,0.521 -4.389,0.637 -4.371,0.751 -4.349,0.865 -4.325,0.979 -4.299,1.091 -4.268,1.204 -4.235,1.315 -4.199,1.426 -4.161,1.534 -4.119,1.644 -4.074,1.75 -4.028,1.857 -3.977,1.961 -3.925,2.065 -3.869,2.167 -3.811,2.267 -3.75,2.367 -3.688,2.464 -3.621,2.559 -3.553,2.653 -3.483,2.746 -3.41,2.836 -3.334,2.924 -3.256,3.01 -3.177,3.094 -3.094,3.177 -3.01,3.256 -2.924,3.334 -2.836,3.41 -2.746,3.483 -2.653,3.553 -2.559,3.621 -2.464,3.688 -2.367,3.75 -2.267,3.811 -2.167,3.869 -2.065,3.925 -1.961,3.977 -1.857,4.028 -1.75,4.074 -1.644,4.119 -1.534,4.161 -1.426,4.199 -1.315,4.235 -1.204,4.268 -1.091,4.299 -0.979,4.325 -0.865,4.349 -0.751,4.371 -0.637,4.389 -0.521,4.404 -0.406,4.416 -0.29,4.425 -0.174,4.431 -0.058,4.434 m -3.131,0 0.059,4.517 0.178,4.513 0.295,4.507 0.413,4.497 0.531,4.486 0.648,4.469 0.765,4.452 0.881,4.43 0.997,4.405 1.112,4.378 1.226,4.347 1.339,4.313 1.452,4.277 1.564,4.237 1.673,4.195 1.783,4.15 1.891,4.102 1.998,4.051 2.103,3.997 2.207,3.941 2.309,3.881 2.41,3.82 2.509,3.756 2.607,3.688 2.702,3.619 2.797,3.547 2.888,3.473 2.978,3.395 3.066,3.317 3.151,3.235 3.236,3.152 3.316,3.066 3.396,2.978 3.473,2.888 3.547,2.796 3.618,2.703 3.689,2.606 3.755,2.51 3.82,2.41 3.882,2.309 3.941,2.207 3.997,2.103 4.051,1.998 4.101,1.891 4.15,1.782 4.195,1.674 4.238,1.563 4.277,1.452 4.313,1.34 4.347,1.226 4.378,1.111 4.405,0.997 4.43,0.881 4.451,0.765 4.47,0.648 4.485,0.531 4.498,0.413 4.507,0.296 4.513,0.177 4.516,0.059 4.517,-0.059 4.513,-0.177 4.507,-0.296 4.497,-0.413 4.486,-0.531 4.469,-0.648 4.452,-0.765 4.43,-0.881 4.405,-0.997 4.378,-1.111 4.347,-1.226 4.313,-1.34 4.277,-1.452 4.237,-1.563 4.196,-1.674 4.149,-1.782 4.102,-1.891 4.051,-1.998 3.997,-2.103 3.941,-2.207 3.881,-2.309 3.82,-2.41 3.756,-2.51 3.688,-2.606 3.619,-2.703 3.547,-2.796 3.473,-2.888 3.395,-2.978 3.317,-3.066 3.235,-3.152 3.152,-3.235 3.066,-3.317 2.978,-3.395 2.888,-3.473 2.796,-3.547 2.703,-3.619 2.606,-3.688 2.51,-3.756 2.41,-3.82 2.309,-3.881 2.207,-3.941 2.103,-3.997 1.998,-4.051 1.891,-4.102 1.782,-4.15 1.674,-4.195 1.563,-4.237 1.452,-4.277 1.34,-4.313 1.226,-4.347 1.111,-4.378 0.997,-4.405 0.881,-4.43 0.765,-4.452 0.648,-4.469 0.531,-4.486 0.413,-4.497 0.296,-4.507 0.177,-4.513 0.059,-4.517 -0.059,-4.516 -0.177,-4.513 -0.296,-4.507 -0.413,-4.498 -0.531,-4.485 -0.648,-4.47 -0.765,-4.451 -0.881,-4.43 -0.997,-4.405 -1.111,-4.378 -1.226,-4.347 -1.34,-4.313 -1.452,-4.277 -1.563,-4.238 -1.674,-4.195 -1.782,-4.15 -1.891,-4.101 -1.998,-4.051 -2.103,-3.998 -2.207,-3.94 -2.309,-3.882 -2.41,-3.82 -2.51,-3.755 -2.606,-3.689 -2.703,-3.618 -2.796,-3.547 -2.888,-3.473 -2.978,-3.396 -3.066,-3.316 -3.152,-3.236 -3.235,-3.151 -3.317,-3.066 -3.395,-2.978 -3.473,-2.888 -3.547,-2.797 -3.619,-2.702 -3.688,-2.607 -3.756,-2.509 -3.82,-2.41 -3.881,-2.309 -3.941,-2.207 -3.997,-2.103 -4.051,-1.998 -4.102,-1.891 -4.149,-1.783 -4.196,-1.674 -4.237,-1.563 -4.277,-1.452 -4.313,-1.339 -4.347,-1.226 -4.378,-1.112 -4.405,-0.997 -4.43,-0.881 -4.452,-0.765 -4.469,-0.648 -4.486,-0.531 -4.497,-0.413 -4.507,-0.295 -4.513,-0.178 -4.517,-0.059 -4.516,0.059 -4.513,0.178 -4.507,0.295 -4.498,0.413 -4.485,0.531 -4.47,0.648 -4.451,0.765 -4.43,0.881 -4.405,0.997 -4.378,1.112 -4.347,1.226 -4.313,1.339 -4.277,1.452 -4.238,1.563 -4.195,1.674 -4.15,1.783 -4.101,1.891 -4.051,1.998 -3.997,2.103 -3.941,2.207 -3.882,2.309 -3.82,2.41 -3.755,2.509 -3.689,2.607 -3.618,2.702 -3.547,2.797 -3.473,2.888 -3.396,2.978 -3.316,3.066 -3.236,3.151 -3.151,3.236 -3.066,3.316 -2.978,3.396 -2.888,3.473 -2.797,3.547 -2.702,3.618 -2.607,3.689 -2.509,3.755 -2.41,3.82 -2.309,3.882 -2.207,3.94 -2.103,3.998 -1.998,4.051 -1.891,4.101 -1.783,4.15 -1.673,4.195 -1.564,4.238 -1.452,4.277 -1.339,4.313 -1.226,4.347 -1.112,4.378 -0.997,4.405 -0.881,4.43 -0.765,4.451 -0.648,4.47 -0.531,4.485 -0.413,4.498 -0.295,4.507 -0.178,4.513 -0.059,4.516 m 138.714,0 0.014,0.979 0.043,0.978 0.071,0.977 0.099,0.974 0.127,0.97 0.155,0.967 0.183,0.962 0.211,0.956 0.239,0.949 0.266,0.943 0.293,0.934 0.32,0.925 0.346,0.915 0.373,0.906 0.4,0.894 0.424,0.882 0.45,0.869 0.476,0.856 0.499,0.842 0.524,0.827 0.548,0.812 0.571,0.795 0.593,0.778 0.616,0.761 0.638,0.743 0.659,0.724 0.679,0.705 0.7,0.685 0.719,0.664 0.739,0.643 0.756,0.621 0.774,0.6 0.792,0.576 0.807,0.554 0.823,0.53 0.839,0.505 0.852,0.482 0.866,0.456 0.879,0.431 0.891,0.406 0.903,0.379 0.913,0.354 0.923,0.326 0.932,0.3 0.94,0.273 0.948,0.245 0.954,0.218 0.961,0.19 0.965,0.163 0.97,0.134 0.973,0.106 0.976,0.078 0.978,0.049 0.979,0.021 0.979,-0.007 0.978,-0.035 0.977,-0.064 0.975,-0.092 0.971,-0.12 0.968,-0.148 0.963,-0.176 0.957,-0.204 0.952,-0.232 0.944,-0.259 0.936,-0.286 0.927,-0.314 0.919,-0.34 0.907,-0.366 0.897,-0.393 0.885,-0.418 0.873,-0.444 0.859,-0.469 0.846,-0.493 0.831,-0.518 0.815,-0.542 0.8,-0.565 0.783,-0.588 0.765,-0.611 0.747,-0.632 0.729,-0.654 0.71,-0.674 0.69,-0.695 0.669,-0.714 0.648,-0.734 0.627,-0.752 0.605,-0.77 0.582,-0.787 0.56,-0.803 0.535,-0.82 0.512,-0.834 0.488,-0.849 0.462,-0.863 0.438,-0.876 0.412,-0.888 0.386,-0.9 0.36,-0.91 0.333,-0.921 0.307,-0.929 0.279,-0.939 0.252,-0.946 0.225,-0.952 0.197,-0.959 0.17,-0.965 0.141,-0.968 0.113,-0.973 0.085,-0.975 0.056,-0.978 0.029,-0.978 v -0.979 l -0.029,-0.979 -0.056,-0.977 -0.085,-0.976 -0.113,-0.972 -0.141,-0.969 -0.17,-0.964 -0.197,-0.959 -0.225,-0.953 -0.252,-0.946 -0.279,-0.938 -0.307,-0.93 -0.333,-0.92 -0.36,-0.911 -0.386,-0.9 -0.412,-0.888 -0.438,-0.875 -0.462,-0.863 -0.488,-0.849 -0.512,-0.835 -0.535,-0.819 -0.56,-0.804 -0.582,-0.787 -0.605,-0.77 -0.627,-0.752 -0.648,-0.733 -0.669,-0.715 -0.69,-0.694 -0.71,-0.675 -0.729,-0.654 -0.747,-0.632 -0.765,-0.61 -0.783,-0.588 -0.8,-0.565 -0.815,-0.542 -0.831,-0.518 -0.846,-0.493 -0.859,-0.469 -0.873,-0.444 -0.885,-0.419 -0.897,-0.392 -0.907,-0.367 -0.919,-0.34 -0.927,-0.313 -0.936,-0.286 -0.944,-0.259 -0.952,-0.232 -0.957,-0.204 -0.963,-0.176 -0.968,-0.148 -0.971,-0.121 -0.975,-0.092 -0.977,-0.063 -0.978,-0.036 -0.979,-0.007 -0.979,0.021 -0.978,0.05 -0.976,0.078 -0.973,0.106 -0.97,0.134 -0.965,0.162 -0.961,0.191 -0.954,0.217 -0.948,0.246 -0.94,0.273 -0.932,0.299 -0.923,0.327 -0.913,0.353 -0.903,0.38 -0.891,0.405 -0.879,0.432 -0.866,0.456 -0.852,0.481 -0.839,0.506 -0.823,0.53 -0.807,0.553 -0.792,0.577 -0.774,0.599 -0.756,0.622 -0.739,0.643 -0.719,0.664 -0.7,0.685 -0.679,0.704 -0.659,0.724 -0.638,0.743 -0.616,0.761 -0.593,0.779 -0.571,0.795 -0.548,0.811 -0.524,0.828 -0.499,0.841 -0.476,0.856 -0.45,0.87 -0.424,0.882 -0.4,0.894 -0.373,0.905 -0.346,0.916 -0.32,0.925 -0.293,0.934 -0.266,0.942 -0.239,0.95 -0.211,0.956 -0.183,0.961 -0.155,0.967 -0.127,0.971 -0.099,0.974 -0.071,0.976 -0.043,0.978 -0.014,0.979 m 66.31,0 -0.014,-0.958 -0.043,-0.958 -0.07,-0.956 -0.099,-0.953 -0.127,-0.95 -0.155,-0.946 -0.182,-0.941 -0.211,-0.936 -0.238,-0.928 -0.265,-0.921 -0.292,-0.913 -0.319,-0.904 -0.345,-0.894 -0.372,-0.884 -0.398,-0.872 -0.423,-0.86 -0.448,-0.847 -0.473,-0.834 -0.498,-0.819 -0.521,-0.805 -0.545,-0.788 -0.568,-0.772 -0.591,-0.756 -0.612,-0.737 -0.634,-0.719 -0.655,-0.7 -0.676,-0.68 -0.695,-0.66 -0.714,-0.639 -0.733,-0.618 -0.75,-0.597 -0.768,-0.573 -0.785,-0.551 -0.8,-0.527 -0.816,-0.504 -0.83,-0.479 -0.844,-0.455 -0.857,-0.429 -0.869,-0.404 -0.881,-0.379 -0.892,-0.352 -0.901,-0.325 -0.911,-0.299 -0.919,-0.272 -0.927,-0.245 -0.934,-0.217 -0.939,-0.19 -0.945,-0.162 -0.949,-0.133 -0.953,-0.106 -0.955,-0.078 -0.958,-0.049 -0.958,-0.022 -0.959,0.008 -0.958,0.035 -0.956,0.064 -0.954,0.091 -0.951,0.12 -0.947,0.148 -0.943,0.176 -0.936,0.203 -0.931,0.231 -0.923,0.258 -0.915,0.286 -0.906,0.312 -0.897,0.339 -0.886,0.365 -0.875,0.391 -0.863,0.417 -0.851,0.442 -0.837,0.467 -0.823,0.492 -0.808,0.515 -0.793,0.539 -0.776,0.563 -0.759,0.585 -0.742,0.607 -0.724,0.629 -0.705,0.649 -0.685,0.671 -0.665,0.69 -0.645,0.709 -0.623,0.728 -0.602,0.747 -0.579,0.763 -0.556,0.781 -0.534,0.796 -0.509,0.812 -0.486,0.827 -0.46,0.84 -0.436,0.854 -0.411,0.866 -0.384,0.878 -0.359,0.889 -0.332,0.9 -0.306,0.908 -0.279,0.917 -0.251,0.925 -0.224,0.932 -0.197,0.938 -0.169,0.944 -0.14,0.948 -0.113,0.952 -0.085,0.955 -0.057,0.957 -0.028,0.958 v 0.959 l 0.028,0.958 0.057,0.957 0.085,0.954 0.113,0.952 0.14,0.949 0.169,0.943 0.197,0.938 0.224,0.932 0.251,0.925 0.279,0.917 0.306,0.909 0.332,0.899 0.359,0.889 0.384,0.878 0.411,0.866 0.436,0.854 0.46,0.841 0.486,0.826 0.509,0.812 0.534,0.797 0.556,0.78 0.579,0.764 0.602,0.746 0.623,0.728 0.645,0.71 0.665,0.69 0.685,0.67 0.705,0.65 0.724,0.629 0.742,0.607 0.759,0.585 0.776,0.562 0.793,0.539 0.808,0.516 0.823,0.491 0.837,0.467 0.851,0.442 0.863,0.417 0.875,0.391 0.886,0.366 0.897,0.338 0.906,0.313 0.915,0.285 0.923,0.258 0.931,0.231 0.936,0.204 0.943,0.176 0.947,0.148 0.951,0.119 0.954,0.092 0.956,0.064 0.958,0.035 0.959,0.007 0.958,-0.021 0.958,-0.05 0.955,-0.077 0.953,-0.106 0.949,-0.134 0.945,-0.162 0.939,-0.189 0.934,-0.218 0.927,-0.244 0.919,-0.272 0.911,-0.299 0.901,-0.326 0.892,-0.352 0.881,-0.378 0.869,-0.404 0.857,-0.43 0.844,-0.454 0.83,-0.48 0.816,-0.503 0.8,-0.527 0.785,-0.551 0.768,-0.574 0.75,-0.596 0.733,-0.618 0.714,-0.639 0.695,-0.66 0.676,-0.681 0.655,-0.7 0.634,-0.718 0.612,-0.738 0.591,-0.755 0.568,-0.772 0.545,-0.789 0.521,-0.804 0.498,-0.819 0.473,-0.834 0.448,-0.847 0.423,-0.86 0.398,-0.873 0.372,-0.883 0.345,-0.894 0.319,-0.904 0.292,-0.913 0.265,-0.921 0.238,-0.929 0.211,-0.935 0.182,-0.941 0.155,-0.946 0.127,-0.95 0.099,-0.954 0.07,-0.956 0.043,-0.957 0.014,-0.959 m -18.323,0 -0.015,0.632 -0.042,0.63 -0.07,0.627 -0.098,0.624 -0.126,0.619 -0.153,0.613 -0.18,0.605 -0.208,0.597 -0.233,0.586 -0.26,0.576 -0.284,0.564 -0.31,0.55 -0.334,0.536 -0.357,0.521 -0.381,0.504 -0.402,0.487 -0.424,0.468 -0.444,0.449 -0.463,0.429 -0.482,0.408 -0.5,0.386 -0.517,0.363 -0.532,0.34 -0.547,0.315 -0.561,0.292 -0.573,0.265 -0.584,0.24 -0.594,0.214 -0.603,0.187 -0.611,0.16 -0.617,0.133 -0.623,0.105 -0.627,0.077 -0.63,0.05 -0.631,0.021 -0.631,-0.007 -0.631,-0.036 -0.628,-0.063 -0.625,-0.091 -0.62,-0.119 -0.615,-0.146 -0.607,-0.174 -0.599,-0.2 -0.589,-0.227 -0.579,-0.253 -0.566,-0.279 -0.554,-0.303 -0.54,-0.328 -0.525,-0.352 -0.508,-0.374 -0.491,-0.397 -0.473,-0.419 -0.454,-0.439 -0.434,-0.459 -0.413,-0.477 -0.392,-0.496 -0.369,-0.512 -0.345,-0.529 -0.322,-0.543 -0.298,-0.557 -0.272,-0.57 -0.246,-0.582 -0.221,-0.591 -0.194,-0.602 -0.166,-0.609 -0.14,-0.616 -0.112,-0.621 -0.084,-0.626 -0.056,-0.629 -0.028,-0.631 v -0.632 l 0.028,-0.63 0.056,-0.629 0.084,-0.626 0.112,-0.622 0.14,-0.616 0.166,-0.609 0.194,-0.601 0.221,-0.592 0.246,-0.581 0.272,-0.57 0.298,-0.557 0.322,-0.544 0.345,-0.528 0.369,-0.513 0.392,-0.495 0.413,-0.478 0.434,-0.459 0.454,-0.439 0.473,-0.418 0.491,-0.397 0.508,-0.375 0.525,-0.351 0.54,-0.328 0.554,-0.304 0.566,-0.278 0.579,-0.253 0.589,-0.227 0.599,-0.201 0.607,-0.173 0.615,-0.147 0.62,-0.118 0.625,-0.092 0.628,-0.063 0.631,-0.035 0.631,-0.007 0.631,0.021 0.63,0.049 0.627,0.077 0.623,0.105 0.617,0.133 0.611,0.16 0.603,0.187 0.594,0.214 0.584,0.24 0.573,0.266 0.561,0.291 0.547,0.316 0.532,0.34 0.517,0.363 0.5,0.386 0.482,0.407 0.463,0.429 0.444,0.449 0.424,0.469 0.402,0.486 0.381,0.505 0.357,0.52 0.334,0.536 0.31,0.551 0.284,0.563 0.26,0.576 0.233,0.587 0.208,0.597 0.18,0.605 0.153,0.612 0.126,0.619 0.098,0.624 0.07,0.628 0.042,0.63 0.015,0.631 m -175.066,0 0.055,4.212 0.166,4.209 0.275,4.203 0.386,4.194 0.495,4.183 0.604,4.168 0.713,4.152 0.822,4.131 0.93,4.108 1.036,4.082 1.144,4.054 1.249,4.023 1.354,3.988 1.458,3.952 1.56,3.912 1.663,3.87 1.763,3.825 1.863,3.778 1.962,3.727 2.058,3.675 2.153,3.62 2.248,3.562 2.34,3.503 2.431,3.439 2.52,3.375 2.608,3.308 2.693,3.238 2.777,3.167 2.859,3.093 2.939,3.017 3.017,2.939 3.093,2.859 3.167,2.778 3.239,2.693 3.307,2.608 3.375,2.52 3.44,2.431 3.502,2.34 3.562,2.247 3.62,2.154 3.675,2.058 3.728,1.961 3.777,1.863 3.826,1.764 3.87,1.662 3.912,1.561 3.951,1.458 3.989,1.354 4.022,1.249 4.054,1.143 4.083,1.037 4.108,0.93 4.131,0.821 4.151,0.714 4.169,0.604 4.183,0.495 4.194,0.385 4.203,0.276 4.209,0.165 4.211,0.055 4.212,-0.055 4.209,-0.165 4.203,-0.276 4.194,-0.385 4.183,-0.495 4.168,-0.604 4.152,-0.714 4.131,-0.821 4.108,-0.93 4.082,-1.037 4.054,-1.143 4.023,-1.249 3.988,-1.354 3.952,-1.458 3.912,-1.561 3.87,-1.662 3.825,-1.764 3.778,-1.863 3.727,-1.961 3.675,-2.058 3.62,-2.154 3.562,-2.247 3.503,-2.34 3.439,-2.431 3.375,-2.52 3.308,-2.608 3.238,-2.693 3.167,-2.778 3.093,-2.859 3.017,-2.939 2.939,-3.017 2.859,-3.093 2.778,-3.167 2.693,-3.238 2.608,-3.308 2.52,-3.375 2.431,-3.439 2.34,-3.503 2.247,-3.562 2.154,-3.62 2.058,-3.675 1.961,-3.727 1.863,-3.778 1.764,-3.825 1.662,-3.87 1.561,-3.912 1.458,-3.952 1.354,-3.988 1.249,-4.023 1.143,-4.054 1.037,-4.082 0.93,-4.108 0.821,-4.131 0.714,-4.152 0.604,-4.168 0.495,-4.183 0.385,-4.194 0.276,-4.203 0.165,-4.209 0.055,-4.212 -0.055,-4.211 -0.165,-4.209 -0.276,-4.203 -0.385,-4.195 -0.495,-4.182 -0.604,-4.169 -0.714,-4.151 -0.821,-4.131 -0.93,-4.108 -1.037,-4.083 -1.143,-4.054 -1.249,-4.022 -1.354,-3.989 -1.458,-3.951 -1.561,-3.912 -1.662,-3.87 -1.764,-3.826 -1.863,-3.777 -1.961,-3.728 -2.058,-3.675 -2.154,-3.62 -2.247,-3.562 -2.34,-3.502 -2.431,-3.44 -2.52,-3.375 -2.608,-3.307 -2.693,-3.239 -2.778,-3.166 -2.859,-3.094 -2.939,-3.017 -3.017,-2.939 -3.093,-2.859 -3.167,-2.777 -3.238,-2.693 -3.308,-2.608 -3.375,-2.52 -3.439,-2.431 -3.503,-2.34 -3.562,-2.248 -3.62,-2.153 -3.675,-2.058 -3.727,-1.962 -3.778,-1.863 -3.825,-1.763 -3.87,-1.663 -3.912,-1.56 -3.952,-1.458 -3.988,-1.354 -4.023,-1.249 -4.054,-1.144 -4.082,-1.036 -4.108,-0.93 -4.131,-0.822 -4.152,-0.713 -4.168,-0.604 -4.183,-0.495 -4.194,-0.386 -4.203,-0.275 -4.209,-0.166 -4.212,-0.055 -4.211,0.055 -4.209,0.166 -4.203,0.275 -4.194,0.386 -4.183,0.495 -4.169,0.604 -4.151,0.713 -4.131,0.822 -4.108,0.93 -4.083,1.036 -4.054,1.144 -4.022,1.249 -3.989,1.354 -3.951,1.458 -3.912,1.56 -3.87,1.663 -3.826,1.763 -3.777,1.863 -3.728,1.962 -3.675,2.058 -3.62,2.153 -3.562,2.248 -3.502,2.34 -3.44,2.431 -3.375,2.52 -3.307,2.608 -3.239,2.693 -3.167,2.777 -3.093,2.859 -3.017,2.939 -2.939,3.017 -2.859,3.094 -2.777,3.166 -2.693,3.239 -2.608,3.307 -2.52,3.375 -2.431,3.44 -2.34,3.502 -2.248,3.562 -2.153,3.62 -2.058,3.675 -1.962,3.728 -1.863,3.777 -1.763,3.826 -1.663,3.87 -1.56,3.912 -1.458,3.951 -1.354,3.989 -1.249,4.022 -1.144,4.054 -1.036,4.083 -0.93,4.108 -0.822,4.131 -0.713,4.151 -0.604,4.169 -0.495,4.182 -0.386,4.195 -0.275,4.203 -0.166,4.209 -0.055,4.211 m 67.573,179.931 0.026,-0.008 m 0,0 7.997,11.682 m 2.543,-1.051 -2.543,1.051 m 2.543,-1.051 -0.313,-0.886 -0.264,-0.901 -0.253,-1.117 -0.177,-1.134 -0.101,-1.145 -0.025,-1.147 0.053,-1.142 0.131,-1.14 0.209,-1.131 0.284,-1.116 0.358,-1.094 0.429,-1.063 0.503,-1.034 0.574,-1.001 0.641,-0.962 0.703,-0.916 0.761,-0.863 0.819,-0.809 0.876,-0.754 0.925,-0.694 0.97,-0.631 1.007,-0.561 1.04,-0.489 1.075,-0.419 1.102,-0.347 1.122,-0.271 1.135,-0.194 1.139,-0.115 1.148,-0.039 1.15,0.039 1.144,0.116 1.13,0.192 1.108,0.267 1.091,0.342 1.068,0.415 1.036,0.484 0.997,0.551 0.956,0.616 0.915,0.681 0.869,0.74 0.816,0.796 0.759,0.845 0.701,0.897 0.641,0.944 0.577,0.986 0.51,1.021 0.438,1.048 0.368,1.081 0.295,1.107 0.221,1.126 0.146,1.135 0.068,1.139 -0.01,1.147 -0.087,1.148 -0.165,1.14 -0.24,1.126 -0.315,1.103 -0.391,1.082 -0.465,1.056 -0.535,1.025 -0.603,0.985 -0.666,0.939 -0.516,0.643 m 0,0 0.025,-0.013 m 0,0 10.25,9.764 M 2.691,54.187 0.422,55.744 M 2.691,54.187 2.098,53.203 1.572,52.178 1.115,51.119 0.73,50.034 0.421,48.929 0.188,47.805 l -0.156,-1.14 -0.08,-1.149 -0.003,-1.15 0.075,-1.144 0.153,-1.139 0.232,-1.129 0.306,-1.113 0.381,-1.089 0.451,-1.057 0.524,-1.025 0.595,-0.991 0.661,-0.95 0.723,-0.902 0.78,-0.848 0.834,-0.792 0.89,-0.735 0.939,-0.676 0.982,-0.61 1.017,-0.54 1.047,-0.467 1.081,-0.397 1.106,-0.323 1.124,-0.249 1.135,-0.172 1.137,-0.093 1.146,-0.016 1.145,0.06 1.137,0.136 1.122,0.212 1.101,0.287 1.082,0.361 1.057,0.433 1.025,0.501 0.986,0.566 0.945,0.633 0.903,0.696 0.856,0.756 0.802,0.81 0.744,0.858 0.686,0.911 0.626,0.958 0.561,0.998 0.492,1.032 0.421,1.059 0.349,1.091 0.276,1.116 0.2,1.133 0.125,1.142 0.046,1.144 -0.032,1.149 -0.11,1.149 -0.187,1.139 -0.264,1.124 -0.337,1.099 -0.489,1.252 -0.585,1.21 m 0,0 0.021,-0.018 m 0,0 12.056,7.419 m 1.896,-1.995 -1.896,1.995 M 45.924,58.33 45.139,57.491 44.411,56.598 43.744,55.657 43.142,54.675 42.61,53.659 42.149,52.609 41.759,51.526 41.442,50.419 41.2,49.294 41.035,48.16 40.949,47.014 40.94,45.861 l 0.069,-1.153 0.145,-1.144 0.222,-1.127 0.3,-1.112 0.376,-1.093 0.449,-1.066 0.519,-1.033 0.586,-0.992 0.652,-0.948 0.718,-0.904 0.778,-0.856 0.833,-0.801 0.883,-0.74 0.927,-0.674 0.974,-0.613 1.015,-0.547 1.048,-0.477 1.074,-0.404 1.093,-0.327 1.117,-0.254 1.133,-0.179 1.141,-0.103 1.141,-0.027 1.136,0.052 1.134,0.128 1.124,0.203 1.107,0.277 1.082,0.35 1.056,0.422 1.028,0.494 0.994,0.561 0.953,0.625 0.906,0.685 0.861,0.748 0.811,0.807 0.757,0.86 0.696,0.907 0.631,0.948 0.569,0.995 0.501,1.034 0.432,1.066 0.359,1.092 0.284,1.109 0.207,1.131 0.131,1.146 0.054,1.154 -0.024,1.154 -0.102,1.145 -0.217,1.326 -0.321,1.305 m 0,0 0.016,-0.022 m 0,0 13.336,4.751 m 1.44,-2.345 -1.44,2.345 m 1.44,-2.345 -0.942,-0.658 -0.898,-0.722 -0.849,-0.782 -0.792,-0.835 -0.732,-0.884 -0.669,-0.931 -0.607,-0.978 -0.54,-1.017 -0.471,-1.05 -0.397,-1.075 -0.323,-1.103 -0.248,-1.126 -0.173,-1.142 -0.095,-1.149 -0.017,-1.149 0.062,-1.15 0.14,-1.147 0.217,-1.136 0.293,-1.118 0.368,-1.093 0.44,-1.062 0.514,-1.034 0.583,-0.999 0.649,-0.957 0.709,-0.907 0.767,-0.853 0.826,-0.801 0.878,-0.746 0.926,-0.685 0.967,-0.618 1.002,-0.548 1.039,-0.48 1.071,-0.411 1.094,-0.338 1.111,-0.263 1.122,-0.186 1.136,-0.11 1.142,-0.035 1.14,0.041 1.131,0.117 1.12,0.193 1.109,0.269 1.089,0.342 1.062,0.414 1.029,0.481 0.998,0.553 0.961,0.621 0.918,0.683 0.87,0.743 0.815,0.796 0.763,0.855 0.705,0.907 0.644,0.953 0.578,0.993 0.508,1.026 0.438,1.063 0.367,1.094 0.292,1.118 0.217,1.133 0.139,1.142 0.063,1.342 -0.043,1.343 m 0,0 0.012,-0.024 m 0,0 14.031,1.874 m 0.921,-2.594 -0.921,2.594 m 0.921,-2.594 -1.058,-0.447 -1.028,-0.52 -0.992,-0.588 -0.95,-0.652 -0.899,-0.712 -0.848,-0.772 -0.797,-0.83 -0.74,-0.883 -0.678,-0.928 -0.612,-0.97 -0.546,-1.011 -0.477,-1.05 -0.406,-1.081 -0.332,-1.104 -0.256,-1.121 -0.179,-1.137 -0.101,-1.151 -0.023,-1.157 0.054,-1.155 0.132,-1.145 0.21,-1.131 0.288,-1.118 0.362,-1.098 0.435,-1.071 0.506,-1.035 0.572,-0.993 0.641,-0.956 0.705,-0.912 0.763,-0.862 0.817,-0.806 0.866,-0.744 0.917,-0.686 0.962,-0.625 1,-0.558 1.032,-0.488 1.059,-0.415 1.088,-0.345 1.11,-0.271 1.123,-0.197 1.13,-0.121 1.137,-0.044 1.14,0.033 1.137,0.108 1.125,0.183 1.106,0.258 1.091,0.333 1.069,0.407 1.04,0.478 1.005,0.545 0.963,0.609 0.924,0.678 0.879,0.741 0.828,0.798 0.772,0.851 0.71,0.898 0.65,0.949 0.586,0.994 0.518,1.032 0.448,1.064 0.373,1.088 0.341,1.3 0.237,1.323 m 0,0 0.006,-0.027 m 0,0 14.115,-1.084 m 0.361,-2.728 -0.361,2.728 m 0.361,-2.728 -1.127,-0.218 -1.114,-0.294 -1.092,-0.369 -1.063,-0.44 -1.028,-0.509 -0.99,-0.579 -0.952,-0.646 -0.908,-0.71 -0.856,-0.767 -0.801,-0.821 -0.743,-0.876 -0.686,-0.927 -0.622,-0.973 -0.554,-1.011 -0.484,-1.043 -0.411,-1.075 -0.338,-1.105 -0.264,-1.126 -0.188,-1.141 -0.109,-1.148 -0.029,-1.149 0.049,-1.154 0.126,-1.15 0.203,-1.137 0.279,-1.118 0.353,-1.091 0.428,-1.068 0.5,-1.039 0.567,-1.002 0.632,-0.958 0.691,-0.908 0.755,-0.862 0.81,-0.811 0.863,-0.754 0.907,-0.692 0.95,-0.626 0.993,-0.563 1.028,-0.497 1.058,-0.426 1.081,-0.354 1.102,-0.279 1.122,-0.205 1.134,-0.131 1.139,-0.054 1.135,0.021 1.137,0.099 1.13,0.176 1.118,0.251 1.096,0.324 1.068,0.396 1.045,0.47 1.014,0.542 0.976,0.609 0.932,0.671 0.881,0.731 0.833,0.793 0.78,0.85 0.722,0.902 0.659,0.947 0.591,0.987 0.604,1.201 0.508,1.246 m 0,0 0.001,-0.027 m 0,0 13.581,-3.996 m -0.214,-2.743 0.214,2.743 m -0.214,-2.743 -0.939,0.024 -0.939,-0.028 -1.14,-0.105 -1.133,-0.181 -1.12,-0.258 -1.099,-0.331 -1.07,-0.403 -1.043,-0.477 -1.012,-0.548 -0.974,-0.615 -0.929,-0.678 -0.878,-0.737 -0.828,-0.798 -0.775,-0.856 -0.717,-0.906 -0.653,-0.952 -0.586,-0.99 -0.516,-1.029 -0.447,-1.066 -0.374,-1.095 -0.3,-1.117 -0.223,-1.131 -0.144,-1.14 -0.066,-1.152 0.011,-1.156 0.089,-1.151 0.166,-1.139 0.242,-1.119 0.319,-1.104 0.392,-1.081 0.463,-1.053 0.532,-1.015 0.597,-0.971 0.662,-0.932 0.725,-0.887 0.78,-0.836 0.832,-0.778 0.881,-0.719 0.931,-0.66 0.973,-0.597 1.008,-0.531 1.039,-0.46 1.069,-0.389 1.097,-0.318 1.116,-0.244 1.127,-0.17 1.133,-0.093 1.142,-0.016 1.144,0.061 1.139,0.138 1.125,0.213 1.104,0.286 1.088,0.364 1.064,0.438 1.034,0.509 0.996,0.576 0.952,0.64 0.908,0.707 0.862,0.769 0.808,0.826 0.751,0.877 0.687,0.924 0.453,0.689 m 0,0 -0.005,-0.027 m 0,0 12.453,-6.732 m -0.779,-2.639 0.779,2.639 m -0.779,-2.639 -0.914,0.219 -0.924,0.168 -1.137,0.134 -1.146,0.058 -1.149,-0.019 -1.144,-0.095 -1.13,-0.172 -1.12,-0.25 -1.103,-0.326 -1.081,-0.399 -1.05,-0.47 -1.012,-0.538 -0.976,-0.608 -0.936,-0.676 -0.889,-0.738 -0.837,-0.795 -0.779,-0.847 -0.719,-0.899 -0.658,-0.95 -0.594,-0.993 -0.526,-1.03 -0.453,-1.06 -0.378,-1.085 -0.304,-1.113 -0.229,-1.133 -0.153,-1.144 -0.075,-1.149 0.005,-1.145 0.082,-1.146 0.159,-1.14 0.234,-1.125 0.309,-1.104 0.382,-1.074 0.455,-1.049 0.523,-1.018 0.59,-0.98 0.652,-0.935 0.713,-0.886 0.773,-0.839 0.827,-0.786 0.876,-0.729 0.92,-0.666 0.965,-0.603 1.007,-0.539 1.041,-0.471 1.068,-0.4 1.088,-0.327 1.114,-0.253 1.132,-0.178 1.142,-0.102 1.145,-0.026 1.139,0.051 1.14,0.13 1.133,0.207 1.116,0.283 1.095,0.356 1.063,0.428 1.036,0.502 1.002,0.573 0.963,0.64 0.917,0.703 0.864,0.76 0.586,0.58 m 0,0 -0.011,-0.026 m 0,0 10.782,-9.173 m -1.311,-2.42 1.311,2.42 m -1.311,-2.42 -1.104,0.515 -1.139,0.435 -1.165,0.351 -1.118,0.253 -1.135,0.178 -1.146,0.102 -1.149,0.024 -1.143,-0.052 -1.141,-0.132 -1.132,-0.209 -1.118,-0.285 -1.094,-0.358 -1.064,-0.431 -1.035,-0.503 -1.002,-0.575 -0.962,-0.642 -0.916,-0.704 -0.863,-0.763 -0.808,-0.819 -0.753,-0.876 -0.694,-0.926 -0.63,-0.97 -0.561,-1.007 -0.488,-1.039 -0.417,-1.074 -0.346,-1.102 -0.271,-1.121 -0.194,-1.133 -0.114,-1.137 -0.038,-1.147 0.039,-1.149 0.115,-1.141 0.191,-1.128 0.267,-1.107 0.341,-1.09 0.414,-1.066 0.483,-1.035 0.549,-0.997 0.616,-0.956 0.68,-0.916 0.74,-0.869 0.794,-0.816 0.845,-0.759 0.897,-0.703 0.945,-0.642 0.986,-0.578 1.021,-0.511 1.05,-0.439 1.082,-0.369 1.109,-0.296 1.127,-0.222 1.137,-0.145 1.141,-0.069 1.148,0.01 1.149,0.088 1.142,0.165 1.127,0.241 1.104,0.316 1.127,0.409 1.098,0.489 1.061,0.565 1.017,0.636 m 0,0 -0.016,-0.023 m 0,0 8.639,-11.215 m -1.785,-2.093 1.785,2.093 m -1.785,-2.093 -0.917,0.692 -0.964,0.631 -1.006,0.565 -1.039,0.496 -1.067,0.423 -1.093,0.349 -1.117,0.274 -1.134,0.2 -1.144,0.123 -1.145,0.045 -1.149,-0.033 -1.148,-0.112 -1.139,-0.189 -1.122,-0.264 -1.099,-0.339 -1.074,-0.414 -1.047,-0.488 -1.014,-0.558 -0.973,-0.624 -0.925,-0.687 -0.874,-0.748 -0.825,-0.808 -0.77,-0.863 -0.709,-0.912 -0.644,-0.956 -0.574,-0.992 -0.507,-1.033 -0.438,-1.066 -0.365,-1.093 -0.289,-1.11 -0.211,-1.122 -0.136,-1.137 -0.06,-1.145 0.017,-1.146 0.093,-1.137 0.17,-1.125 0.246,-1.115 0.32,-1.096 0.391,-1.072 0.46,-1.039 0.531,-1.006 0.598,-0.971 0.662,-0.93 0.722,-0.883 0.775,-0.829 0.835,-0.778 0.887,-0.722 0.934,-0.663 0.975,-0.597 1.009,-0.529 1.048,-0.462 1.081,-0.39 1.106,-0.318 1.123,-0.243 1.133,-0.166 1.146,-0.089 1.154,-0.01 1.153,0.067 1.145,0.145 1.129,0.221 1.295,0.354 1.265,0.456 m 0,0 -0.02,-0.019 m 0,0 6.118,-12.766 m -2.182,-1.677 2.182,1.677 m -2.182,-1.677 -0.752,0.868 -0.813,0.818 -0.865,0.762 -0.914,0.701 -0.955,0.636 -0.997,0.568 -1.035,0.501 -1.068,0.431 -1.094,0.358 -1.11,0.282 -1.131,0.206 -1.146,0.13 -1.153,0.052 -1.153,-0.025 -1.145,-0.103 -1.137,-0.182 -1.126,-0.259 -1.107,-0.335 -1.082,-0.409 -1.048,-0.479 -1.01,-0.55 -0.975,-0.619 -0.933,-0.684 -0.883,-0.745 -0.829,-0.801 -0.767,-0.851 -0.711,-0.905 -0.65,-0.952 -0.584,-0.992 -0.514,-1.027 -0.44,-1.053 -0.369,-1.084 -0.297,-1.108 -0.222,-1.123 -0.145,-1.133 -0.067,-1.135 0.009,-1.141 0.084,-1.14 0.16,-1.129 0.234,-1.112 0.31,-1.095 0.384,-1.074 0.454,-1.047 0.522,-1.014 0.586,-0.972 0.654,-0.935 0.718,-0.891 0.776,-0.842 0.829,-0.787 0.877,-0.727 0.93,-0.669 0.976,-0.607 1.015,-0.541 1.048,-0.471 1.074,-0.398 1.103,-0.325 1.126,-0.25 1.142,-0.174 1.15,-0.097 1.15,-0.018 1.341,0.077 1.332,0.183 m 0,0 -0.024,-0.014 m 0,0 3.331,-13.759 m -2.483,-1.187 2.483,1.187 m -2.483,-1.187 -0.411,0.76 -0.603,0.972 -0.669,0.932 -0.731,0.886 -0.787,0.834 -0.839,0.776 -0.892,0.719 -0.943,0.659 -0.985,0.596 -1.021,0.528 -1.051,0.455 -1.084,0.384 -1.111,0.311 -1.13,0.236 -1.143,0.159 -1.147,0.081 -1.152,0.002 -1.153,-0.077 -1.147,-0.154 -1.133,-0.231 -1.111,-0.306 -1.085,-0.381 -1.06,-0.456 -1.029,-0.527 -0.991,-0.594 -0.945,-0.658 -0.893,-0.718 -0.846,-0.779 -0.793,-0.835 -0.734,-0.886 -0.671,-0.93 -0.602,-0.969 -0.538,-1.011 -0.469,-1.045 -0.399,-1.073 -0.324,-1.094 -0.248,-1.109 -0.174,-1.128 -0.099,-1.138 -0.023,-1.14 0.053,-1.135 0.131,-1.13 0.207,-1.122 0.28,-1.107 0.354,-1.084 0.423,-1.054 0.496,-1.028 0.567,-0.995 0.632,-0.955 0.693,-0.911 0.749,-0.858 0.812,-0.81 0.867,-0.756 0.917,-0.696 0.96,-0.633 0.997,-0.565 1.037,-0.496 1.073,-0.427 1.1,-0.354 1.12,-0.279 1.133,-0.202 0.918,-0.106 0.923,-0.056 m 0,0 -0.026,-0.009 m 0,0 0.397,-14.151 m -2.675,-0.644 2.675,0.644 m -2.675,-0.644 -0.334,1.099 -0.41,1.077 -0.481,1.048 -0.549,1.012 -0.614,0.968 -0.679,0.925 -0.742,0.879 -0.801,0.828 -0.853,0.772 -0.899,0.71 -0.95,0.648 -0.994,0.584 -1.032,0.517 -1.064,0.446 -1.087,0.372 -1.113,0.296 -1.134,0.221 -1.148,0.145 -1.154,0.067 -1.152,-0.012 -1.147,-0.091 -1.142,-0.169 -1.13,-0.246 -1.111,-0.321 -1.082,-0.394 -1.048,-0.466 -1.017,-0.537 -0.981,-0.605 -0.937,-0.669 -0.887,-0.729 -0.831,-0.783 -0.778,-0.84 -0.722,-0.891 -0.659,-0.937 -0.594,-0.975 -0.523,-1.01 -0.456,-1.046 -0.387,-1.075 -0.313,-1.097 -0.238,-1.111 -0.163,-1.126 -0.086,-1.137 -0.012,-1.142 0.065,-1.138 0.14,-1.127 0.218,-1.119 0.293,-1.106 0.366,-1.085 0.437,-1.057 0.506,-1.021 0.577,-0.989 0.644,-0.952 0.708,-0.907 0.766,-0.857 0.818,-0.8 0.876,-0.745 0.927,-0.687 0.973,-0.623 1.01,-0.557 1.043,-0.484 1.258,-0.475 1.291,-0.375 m 0,0 -0.027,-0.004 m 0,0 -2.554,-13.924 m -2.75,-0.074 2.75,0.074 m -2.75,-0.074 -0.099,1.143 -0.176,1.136 -0.252,1.124 -0.325,1.102 -0.399,1.074 -0.471,1.046 -0.543,1.014 -0.61,0.977 -0.673,0.933 -0.732,0.882 -0.794,0.831 -0.85,0.779 -0.902,0.721 -0.947,0.658 -0.987,0.59 -1.026,0.522 -1.063,0.452 -1.093,0.381 -1.115,0.306 -1.129,0.229 -1.14,0.15 -1.153,0.072 -1.156,-0.004 -1.153,-0.083 -1.141,-0.16 -1.122,-0.237 -1.107,-0.314 -1.085,-0.387 -1.056,-0.459 -1.02,-0.528 -0.975,-0.593 -0.936,-0.659 -0.892,-0.721 -0.841,-0.779 -0.783,-0.83 -0.723,-0.878 -0.664,-0.928 -0.601,-0.971 -0.536,-1.008 -0.464,-1.037 -0.394,-1.067 -0.322,-1.094 -0.248,-1.115 -0.175,-1.126 -0.097,-1.132 -0.021,-1.14 0.056,-1.143 0.132,-1.137 0.208,-1.125 0.281,-1.103 0.358,-1.089 0.433,-1.065 0.502,-1.034 0.571,-0.998 0.634,-0.953 0.701,-0.911 0.764,-0.865 0.821,-0.813 0.872,-0.755 0.919,-0.691 1.135,-0.729 1.189,-0.637 m 0,0 -0.027,0.002 m 0,0 -5.393,-13.089 m -2.706,0.499 2.706,-0.499 m -2.706,0.499 0.122,0.932 0.07,0.936 0.015,1.145 -0.062,1.146 -0.139,1.141 -0.214,1.127 -0.289,1.107 -0.366,1.087 -0.439,1.063 -0.51,1.033 -0.577,0.995 -0.641,0.951 -0.707,0.907 -0.77,0.86 -0.827,0.807 -0.878,0.75 -0.924,0.686 -0.969,0.62 -1.014,0.556 -1.049,0.487 -1.08,0.415 -1.101,0.34 -1.119,0.262 -1.139,0.186 -1.15,0.11 -1.154,0.032 -1.15,-0.046 -1.138,-0.124 -1.132,-0.201 -1.117,-0.277 -1.094,-0.351 -1.066,-0.423 -1.028,-0.492 -0.996,-0.561 -0.958,-0.628 -0.913,-0.689 -0.861,-0.746 -0.807,-0.801 -0.753,-0.856 -0.696,-0.906 -0.633,-0.947 -0.567,-0.985 -0.499,-1.023 -0.43,-1.057 -0.36,-1.084 -0.286,-1.104 -0.211,-1.117 -0.135,-1.134 -0.059,-1.144 0.018,-1.147 0.094,-1.141 0.17,-1.128 0.248,-1.12 0.324,-1.105 0.398,-1.081 0.469,-1.051 0.537,-1.013 0.607,-0.977 0.675,-0.937 0.737,-0.891 0.795,-0.838 0.846,-0.781 0.638,-0.521 m 0,0 -0.026,0.007 m 0,0 -7.997,-11.681 m -2.543,1.051 2.543,-1.051 m -2.543,1.051 0.313,0.886 0.264,0.901 0.252,1.116 0.178,1.135 0.101,1.144 0.024,1.148 -0.052,1.142 -0.131,1.139 -0.209,1.132 -0.284,1.116 -0.358,1.093 -0.429,1.063 -0.503,1.035 -0.574,1.001 -0.641,0.962 -0.703,0.915 -0.761,0.863 -0.82,0.809 -0.875,0.754 -0.926,0.695 -0.969,0.63 -1.007,0.562 -1.04,0.489 -1.075,0.419 -1.102,0.346 -1.123,0.272 -1.134,0.194 -1.139,0.115 -1.149,0.038 -1.15,-0.039 -1.144,-0.115 -1.129,-0.192 -1.108,-0.267 -1.092,-0.343 -1.067,-0.414 -1.036,-0.484 -0.998,-0.551 -0.955,-0.616 -0.916,-0.681 -0.868,-0.741 -0.817,-0.795 -0.758,-0.845 -0.701,-0.897 -0.641,-0.945 -0.577,-0.986 -0.51,-1.02 -0.439,-1.048 -0.368,-1.082 -0.295,-1.107 -0.221,-1.125 -0.145,-1.136 -0.069,-1.139 0.01,-1.147 0.088,-1.147 0.164,-1.141 0.241,-1.125 0.314,-1.103 0.391,-1.082 0.465,-1.057 0.536,-1.024 0.603,-0.986 0.666,-0.939 0.515,-0.643 m 0,0 -0.024,0.013 m 0,0 -10.251,-9.763 m -2.269,1.557 2.269,-1.557 m -2.269,1.557 0.593,0.984 0.527,1.025 0.457,1.059 0.385,1.085 0.309,1.105 0.232,1.123 0.157,1.14 0.079,1.149 0.003,1.15 -0.074,1.144 -0.154,1.139 -0.231,1.13 -0.307,1.113 -0.38,1.089 -0.452,1.057 -0.524,1.025 -0.595,0.99 -0.66,0.95 -0.723,0.903 -0.78,0.848 -0.835,0.791 -0.89,0.736 -0.939,0.675 -0.981,0.61 -1.018,0.541 -1.047,0.467 -1.08,0.396 -1.106,0.324 -1.124,0.249 -1.135,0.171 -1.138,0.093 -1.145,0.017 -1.145,-0.061 -1.138,-0.136 -1.121,-0.212 -1.101,-0.286 -1.083,-0.361 -1.057,-0.433 -1.025,-0.501 -0.985,-0.567 -0.945,-0.632 -0.903,-0.697 -0.856,-0.756 -0.803,-0.809 -0.743,-0.859 -0.687,-0.911 -0.625,-0.957 -0.561,-0.999 -0.493,-1.031 -0.42,-1.059 -0.35,-1.091 -0.275,-1.116 -0.201,-1.133 -0.124,-1.142 -0.047,-1.144 0.032,-1.15 0.111,-1.148 0.187,-1.14 0.263,-1.123 0.338,-1.1 0.488,-1.251 0.586,-1.21 m 0,0 -0.021,0.018 m 0,0 -12.057,-7.419 m -1.895,1.994 1.895,-1.994 m -1.895,1.994 0.784,0.839 0.728,0.894 0.668,0.94 0.602,0.982 0.532,1.017 0.46,1.05 0.39,1.083 0.317,1.107 0.242,1.124 0.165,1.134 0.087,1.147 0.009,1.153 -0.069,1.152 -0.145,1.144 -0.223,1.128 -0.299,1.112 -0.376,1.092 -0.449,1.067 -0.519,1.033 -0.586,0.992 -0.653,0.947 -0.717,0.905 -0.778,0.856 -0.833,0.801 -0.883,0.74 -0.927,0.674 -0.974,0.613 -1.015,0.546 -1.048,0.477 -1.075,0.404 -1.093,0.328 -1.117,0.254 -1.132,0.179 -1.141,0.103 -1.141,0.026 -1.137,-0.051 -1.134,-0.129 -1.124,-0.203 -1.106,-0.277 -1.082,-0.349 -1.056,-0.423 -1.028,-0.493 -0.994,-0.562 -0.954,-0.625 -0.906,-0.684 -0.861,-0.749 -0.811,-0.807 -0.756,-0.859 -0.696,-0.907 -0.632,-0.948 -0.568,-0.995 -0.502,-1.034 -0.431,-1.067 -0.359,-1.091 -0.284,-1.109 -0.208,-1.131 -0.13,-1.146 -0.054,-1.154 0.024,-1.154 0.101,-1.146 0.218,-1.326 0.321,-1.305 m 0,0 -0.017,0.022 m 0,0 -13.335,-4.75 m -1.44,2.345 1.44,-2.345 m -1.44,2.345 0.942,0.658 0.898,0.722 0.848,0.781 0.793,0.835 0.732,0.884 0.669,0.932 0.607,0.978 0.54,1.017 0.47,1.049 0.397,1.075 0.323,1.103 0.249,1.127 0.172,1.141 0.096,1.149 0.017,1.15 -0.062,1.149 -0.14,1.147 -0.218,1.137 -0.293,1.118 -0.367,1.092 -0.441,1.063 -0.514,1.034 -0.583,0.999 -0.648,0.956 -0.71,0.908 -0.766,0.852 -0.826,0.802 -0.879,0.746 -0.926,0.684 -0.967,0.619 -1.001,0.547 -1.04,0.481 -1.07,0.41 -1.095,0.339 -1.111,0.263 -1.122,0.185 -1.136,0.111 -1.141,0.035 -1.14,-0.041 -1.131,-0.117 -1.121,-0.193 -1.108,-0.27 -1.089,-0.342 -1.063,-0.413 -1.028,-0.482 -0.998,-0.552 -0.961,-0.621 -0.919,-0.684 -0.869,-0.742 -0.815,-0.796 -0.763,-0.855 -0.706,-0.907 -0.644,-0.954 -0.578,-0.992 -0.508,-1.026 -0.438,-1.064 -0.366,-1.094 -0.293,-1.117 -0.216,-1.133 -0.139,-1.142 -0.063,-1.342 0.043,-1.344 m 0,0 -0.012,0.025 m 0,0 -14.032,-1.874 m -0.92,2.593 0.92,-2.593 m -0.92,2.593 1.058,0.448 1.028,0.519 0.992,0.588 0.949,0.652 0.9,0.712 0.848,0.772 0.797,0.831 0.74,0.882 0.678,0.929 0.612,0.969 0.545,1.012 0.477,1.05 0.406,1.081 0.333,1.104 0.256,1.12 0.178,1.138 0.101,1.151 0.024,1.157 -0.054,1.154 -0.132,1.145 -0.21,1.131 -0.288,1.119 -0.363,1.098 -0.435,1.07 -0.505,1.035 -0.573,0.994 -0.641,0.955 -0.704,0.913 -0.764,0.862 -0.817,0.806 -0.865,0.744 -0.917,0.686 -0.962,0.624 -1,0.559 -1.032,0.488 -1.059,0.415 -1.088,0.344 -1.11,0.272 -1.124,0.197 -1.13,0.121 -1.136,0.043 -1.14,-0.032 -1.137,-0.109 -1.125,-0.183 -1.106,-0.257 -1.091,-0.333 -1.069,-0.408 -1.041,-0.477 -1.005,-0.546 -0.962,-0.609 -0.924,-0.677 -0.879,-0.741 -0.828,-0.799 -0.772,-0.851 -0.71,-0.898 -0.65,-0.948 -0.586,-0.994 -0.518,-1.032 -0.448,-1.064 -0.373,-1.088 -0.341,-1.3 -0.237,-1.323 m 0,0 -0.007,0.026 m 0,0 -14.115,1.085 m -0.361,2.728 0.361,-2.728 m -0.361,2.728 1.128,0.217 1.113,0.295 1.092,0.368 1.064,0.441 1.028,0.509 0.99,0.578 0.952,0.647 0.907,0.709 0.857,0.768 0.8,0.82 0.744,0.876 0.685,0.928 0.622,0.973 0.555,1.011 0.484,1.042 0.411,1.076 0.338,1.104 0.264,1.127 0.187,1.141 0.109,1.147 0.03,1.15 -0.049,1.154 -0.126,1.149 -0.203,1.138 -0.279,1.118 -0.354,1.09 -0.428,1.069 -0.499,1.038 -0.567,1.002 -0.632,0.959 -0.692,0.907 -0.754,0.862 -0.811,0.811 -0.862,0.755 -0.908,0.692 -0.949,0.626 -0.993,0.563 -1.029,0.496 -1.058,0.427 -1.08,0.353 -1.103,0.279 -1.122,0.206 -1.134,0.13 -1.138,0.055 -1.136,-0.021 -1.136,-0.1 -1.131,-0.175 -1.117,-0.251 -1.096,-0.325 -1.069,-0.395 -1.044,-0.471 -1.014,-0.541 -0.976,-0.609 -0.932,-0.672 -0.882,-0.73 -0.833,-0.793 -0.779,-0.851 -0.722,-0.901 -0.659,-0.948 -0.591,-0.986 -0.605,-1.202 -0.507,-1.246 m 0,0 -0.001,0.028 m 0,0 -13.581,3.995 m 0.214,2.744 -0.214,-2.744 m 0.214,2.744 0.939,-0.024 0.938,0.028 1.14,0.104 1.134,0.182 1.12,0.257 1.099,0.332 1.069,0.403 1.044,0.476 1.011,0.549 0.974,0.615 0.929,0.678 0.879,0.737 0.828,0.798 0.775,0.855 0.716,0.907 0.654,0.951 0.585,0.991 0.517,1.029 0.446,1.066 0.375,1.095 0.3,1.116 0.223,1.132 0.143,1.14 0.067,1.152 -0.011,1.155 -0.089,1.151 -0.166,1.139 -0.242,1.119 -0.319,1.104 -0.392,1.082 -0.464,1.052 -0.531,1.015 -0.597,0.971 -0.663,0.932 -0.724,0.887 -0.781,0.836 -0.832,0.779 -0.881,0.719 -0.93,0.659 -0.973,0.598 -1.009,0.531 -1.038,0.46 -1.07,0.389 -1.096,0.318 -1.116,0.244 -1.128,0.17 -1.132,0.093 -1.143,0.016 -1.144,-0.062 -1.138,-0.137 -1.125,-0.213 -1.104,-0.287 -1.088,-0.364 -1.065,-0.438 -1.033,-0.509 -0.997,-0.576 -0.951,-0.64 -0.909,-0.706 -0.861,-0.769 -0.809,-0.826 -0.751,-0.878 -0.687,-0.923 -0.452,-0.689 m 0,0 0.005,0.027 m 0,0 -12.454,6.732 m 0.78,2.639 -0.78,-2.639 m 0.78,2.639 0.914,-0.219 0.924,-0.168 1.136,-0.135 1.147,-0.057 1.149,0.019 1.143,0.095 1.131,0.172 1.119,0.249 1.104,0.326 1.08,0.399 1.05,0.47 1.012,0.539 0.977,0.608 0.935,0.676 0.89,0.737 0.837,0.795 0.779,0.848 0.718,0.899 0.659,0.949 0.594,0.994 0.526,1.03 0.453,1.06 0.377,1.085 0.305,1.113 0.229,1.132 0.153,1.145 0.074,1.149 -0.004,1.144 -0.083,1.147 -0.158,1.139 -0.235,1.126 -0.309,1.103 -0.381,1.074 -0.455,1.05 -0.524,1.018 -0.59,0.98 -0.652,0.934 -0.712,0.886 -0.773,0.839 -0.827,0.787 -0.877,0.729 -0.92,0.666 -0.965,0.603 -1.006,0.539 -1.041,0.471 -1.068,0.4 -1.088,0.327 -1.114,0.253 -1.132,0.178 -1.142,0.102 -1.145,0.026 -1.14,-0.052 -1.14,-0.129 -1.132,-0.207 -1.117,-0.283 -1.094,-0.357 -1.064,-0.428 -1.035,-0.502 -1.003,-0.573 -0.963,-0.64 -0.916,-0.702 -0.865,-0.761 -0.585,-0.579 m 0,0 0.01,0.025 m 0,0 -10.781,9.174 m 1.311,2.419 -1.311,-2.419 m 1.311,2.419 1.104,-0.514 1.139,-0.435 1.165,-0.352 1.117,-0.253 1.136,-0.177 1.146,-0.102 1.148,-0.025 1.144,0.053 1.14,0.131 1.133,0.21 1.117,0.284 1.095,0.359 1.064,0.43 1.035,0.504 1.001,0.575 0.962,0.642 0.916,0.704 0.863,0.762 0.808,0.82 0.754,0.876 0.694,0.926 0.63,0.969 0.56,1.008 0.488,1.039 0.418,1.074 0.346,1.101 0.271,1.121 0.193,1.134 0.115,1.137 0.038,1.147 -0.039,1.148 -0.115,1.142 -0.192,1.128 -0.266,1.107 -0.342,1.09 -0.414,1.066 -0.482,1.035 -0.55,0.997 -0.615,0.956 -0.68,0.915 -0.74,0.869 -0.795,0.817 -0.844,0.759 -0.897,0.702 -0.945,0.642 -0.987,0.578 -1.021,0.511 -1.049,0.44 -1.083,0.369 -1.108,0.296 -1.127,0.221 -1.138,0.146 -1.14,0.068 -1.149,-0.01 -1.149,-0.088 -1.142,-0.165 -1.126,-0.24 -1.105,-0.316 -1.126,-0.409 -1.098,-0.489 -1.062,-0.565 -1.016,-0.636 m 0,0 0.015,0.022 m 0,0 -8.638,11.215 m 1.785,2.094 -1.785,-2.094 m 1.785,2.094 0.917,-0.693 0.964,-0.63 1.005,-0.566 1.04,-0.496 1.066,-0.423 1.093,-0.348 1.118,-0.275 1.134,-0.199 1.143,-0.123 1.146,-0.046 1.149,0.034 1.147,0.112 1.139,0.188 1.123,0.265 1.098,0.338 1.074,0.415 1.048,0.488 1.013,0.558 0.973,0.624 0.926,0.687 0.874,0.747 0.825,0.809 0.769,0.863 0.71,0.912 0.644,0.955 0.573,0.993 0.508,1.033 0.437,1.066 0.365,1.092 0.29,1.111 0.211,1.121 0.136,1.138 0.059,1.145 -0.016,1.145 -0.093,1.138 -0.17,1.125 -0.246,1.114 -0.32,1.097 -0.391,1.071 -0.461,1.039 -0.53,1.007 -0.599,0.971 -0.662,0.93 -0.721,0.882 -0.776,0.83 -0.834,0.778 -0.887,0.722 -0.934,0.662 -0.975,0.598 -1.009,0.529 -1.049,0.461 -1.081,0.391 -1.105,0.318 -1.123,0.243 -1.133,0.166 -1.146,0.088 -1.154,0.01 -1.153,-0.067 -1.145,-0.144 -1.129,-0.221 -1.296,-0.355 -1.264,-0.456 m 0,0 0.02,0.019 m 0,0 -6.118,12.766 m 2.181,1.677 -2.181,-1.677 m 2.181,1.677 0.753,-0.868 0.812,-0.817 0.866,-0.762 0.913,-0.702 0.956,-0.635 0.996,-0.568 1.036,-0.501 1.068,-0.431 1.093,-0.358 1.111,-0.283 1.131,-0.206 1.146,-0.129 1.153,-0.052 1.153,0.025 1.145,0.103 1.137,0.182 1.125,0.259 1.108,0.335 1.081,0.409 1.048,0.479 1.011,0.549 0.975,0.62 0.932,0.684 0.884,0.745 0.828,0.8 0.768,0.852 0.711,0.905 0.649,0.952 0.584,0.992 0.514,1.026 0.44,1.053 0.37,1.085 0.296,1.107 0.222,1.124 0.145,1.132 0.068,1.136 -0.009,1.141 -0.085,1.139 -0.159,1.13 -0.235,1.112 -0.309,1.094 -0.384,1.074 -0.454,1.048 -0.522,1.013 -0.587,0.973 -0.654,0.934 -0.718,0.891 -0.776,0.842 -0.829,0.787 -0.877,0.728 -0.929,0.669 -0.976,0.607 -1.016,0.541 -1.048,0.471 -1.073,0.398 -1.103,0.324 -1.127,0.25 -1.142,0.174 -1.149,0.097 -1.15,0.019 -1.342,-0.078 -1.331,-0.183 m 0,0 0.023,0.015 m 0,0 -3.33,13.759 m 2.483,1.186 -2.483,-1.186 m 2.483,1.186 0.41,-0.759 0.604,-0.972 0.669,-0.932 0.731,-0.886 0.787,-0.834 0.839,-0.776 0.892,-0.72 0.942,-0.659 0.985,-0.595 1.022,-0.528 1.05,-0.456 1.084,-0.384 1.111,-0.31 1.131,-0.236 1.143,-0.159 1.147,-0.081 1.151,-0.002 1.153,0.077 1.147,0.154 1.133,0.23 1.111,0.307 1.085,0.381 1.061,0.456 1.029,0.526 0.991,0.594 0.945,0.658 0.893,0.718 0.846,0.779 0.792,0.836 0.735,0.886 0.671,0.93 0.602,0.969 0.537,1.01 0.47,1.046 0.398,1.073 0.325,1.093 0.248,1.11 0.174,1.128 0.098,1.137 0.023,1.14 -0.053,1.135 -0.13,1.13 -0.207,1.123 -0.281,1.106 -0.353,1.084 -0.423,1.055 -0.497,1.027 -0.566,0.995 -0.632,0.956 -0.693,0.91 -0.75,0.859 -0.811,0.81 -0.867,0.755 -0.917,0.697 -0.96,0.633 -0.997,0.564 -1.038,0.497 -1.072,0.426 -1.1,0.355 -1.12,0.279 -1.133,0.202 -0.918,0.105 -0.923,0.056 m 0,0 0.025,0.01 m 0,0 -0.396,14.15 m 2.675,0.645 -2.675,-0.645 m 2.675,0.645 0.334,-1.099 0.409,-1.077 0.481,-1.048 0.549,-1.012 0.615,-0.969 0.679,-0.924 0.742,-0.879 0.8,-0.829 0.853,-0.771 0.9,-0.71 0.949,-0.648 0.994,-0.585 1.033,-0.517 1.063,-0.446 1.088,-0.371 1.112,-0.297 1.134,-0.221 1.148,-0.144 1.155,-0.067 1.152,0.011 1.147,0.091 1.142,0.169 1.13,0.246 1.11,0.321 1.083,0.395 1.047,0.465 1.018,0.538 0.981,0.605 0.937,0.669 0.887,0.728 0.83,0.783 0.779,0.841 0.721,0.891 0.66,0.936 0.593,0.975 0.524,1.01 0.456,1.046 0.386,1.075 0.314,1.097 0.238,1.112 0.162,1.125 0.087,1.138 0.011,1.141 -0.064,1.138 -0.14,1.127 -0.218,1.12 -0.293,1.106 -0.367,1.085 -0.437,1.056 -0.505,1.021 -0.577,0.99 -0.645,0.951 -0.707,0.908 -0.766,0.856 -0.819,0.8 -0.875,0.746 -0.928,0.686 -0.972,0.624 -1.011,0.556 -1.043,0.485 -1.257,0.475 -1.292,0.374 m 0,0 0.027,0.004 m 0,0 2.554,13.924 m 2.751,0.074 -2.751,-0.074 m 2.751,0.074 0.098,-1.142 0.176,-1.137 0.252,-1.123 0.326,-1.103 0.398,-1.074 0.472,-1.045 0.543,-1.015 0.61,-0.977 0.673,-0.932 0.732,-0.882 0.793,-0.832 0.851,-0.779 0.902,-0.72 0.947,-0.658 0.986,-0.59 1.026,-0.522 1.064,-0.453 1.092,-0.38 1.115,-0.306 1.13,-0.229 1.14,-0.15 1.153,-0.073 1.156,0.005 1.153,0.082 1.141,0.161 1.121,0.237 1.107,0.313 1.086,0.388 1.056,0.459 1.019,0.527 0.976,0.593 0.936,0.66 0.892,0.721 0.84,0.778 0.784,0.83 0.722,0.879 0.664,0.928 0.602,0.971 0.535,1.007 0.465,1.037 0.393,1.068 0.322,1.094 0.249,1.114 0.174,1.127 0.098,1.131 0.021,1.141 -0.057,1.142 -0.132,1.138 -0.207,1.124 -0.281,1.104 -0.359,1.088 -0.432,1.065 -0.503,1.035 -0.57,0.997 -0.634,0.954 -0.701,0.911 -0.764,0.865 -0.821,0.812 -0.873,0.755 -0.919,0.692 -1.135,0.729 -1.189,0.637 m 0,0 0.028,-0.002 m 0,0 5.393,13.089 m 2.706,-0.5 -2.706,0.5 m 2.706,-0.5 -0.122,-0.931 -0.071,-0.937 -0.015,-1.144 0.063,-1.147 0.139,-1.14 0.214,-1.128 0.289,-1.106 0.365,-1.087 0.44,-1.064 0.51,-1.032 0.577,-0.996 0.641,-0.95 0.707,-0.907 0.77,-0.86 0.826,-0.808 0.878,-0.749 0.924,-0.686 0.97,-0.621 1.013,-0.556 1.05,-0.487 1.079,-0.415 1.102,-0.339 1.119,-0.262 1.138,-0.187 1.151,-0.109 1.154,-0.033 1.15,0.046 1.138,0.124 1.131,0.202 1.117,0.277 1.095,0.351 1.065,0.422 1.028,0.492 0.997,0.562 0.957,0.627 0.913,0.689 0.862,0.747 0.806,0.801 0.754,0.856 0.696,0.905 0.633,0.948 0.566,0.985 0.499,1.022 0.431,1.058 0.359,1.084 0.287,1.104 0.211,1.116 0.135,1.135 0.059,1.144 -0.018,1.147 -0.094,1.141 -0.17,1.128 -0.248,1.12 -0.325,1.104 -0.397,1.081 -0.469,1.051 -0.537,1.014 -0.608,0.977 -0.675,0.937 -0.737,0.891 -0.794,0.838 -0.847,0.78 -0.637,0.522 m 240.15,-136.672 -0.605,2.003 -0.632,1.995 -0.659,1.985 -0.687,1.976 -0.714,1.967 -0.74,1.957 -0.767,1.946 -0.793,1.936 -0.82,1.925 -0.846,1.914 -0.873,1.901 -0.898,1.89 -0.924,1.877 -0.949,1.864 -0.975,1.852 -1,1.837 -1.025,1.824 -1.05,1.81 -1.074,1.795 -1.099,1.78 -1.124,1.765 -1.147,1.75 -1.171,1.734 -1.194,1.717 -1.218,1.701 -1.242,1.685 -1.264,1.667 -1.286,1.649 -1.309,1.632 -1.332,1.614 -1.353,1.596 -1.375,1.577 -1.396,1.558 -1.418,1.539 -1.438,1.519 -1.459,1.5 -1.479,1.479 -1.5,1.459 -1.519,1.438 -1.539,1.418 -1.558,1.396 -1.577,1.375 -1.596,1.353 -1.614,1.332 -1.632,1.309 -1.649,1.286 -1.667,1.264 -1.685,1.242 -1.701,1.218 -1.717,1.194 -1.734,1.171 -1.75,1.147 -1.765,1.124 -1.78,1.099 -1.795,1.074 -1.81,1.05 -1.824,1.025 -1.837,1 -1.852,0.975 -1.864,0.949 -1.877,0.924 -1.89,0.898 -1.901,0.873 -1.914,0.846 -1.925,0.82 -1.936,0.793 -1.946,0.767 -1.957,0.74 -1.967,0.714 -1.976,0.686 -1.985,0.66 -1.995,0.632 -2.003,0.605 m -190.09,-190.09 0.605,-2.003 0.633,-1.994 0.659,-1.986 0.687,-1.976 0.713,-1.967 0.74,-1.956 0.767,-1.947 0.794,-1.936 0.82,-1.925 0.846,-1.913 0.872,-1.902 0.898,-1.889 0.924,-1.877 0.95,-1.865 0.975,-1.851 1,-1.838 1.025,-1.823 1.05,-1.81 1.074,-1.795 1.099,-1.781 1.123,-1.765 1.147,-1.749 1.171,-1.734 1.195,-1.718 1.218,-1.701 1.241,-1.684 1.264,-1.667 1.287,-1.65 1.309,-1.632 1.331,-1.614 1.354,-1.595 1.374,-1.577 1.397,-1.558 1.417,-1.539 1.439,-1.519 1.459,-1.5 1.479,-1.479 1.5,-1.459 1.519,-1.439 1.539,-1.417 1.558,-1.397 1.577,-1.374 1.595,-1.354 1.614,-1.331 1.632,-1.309 1.65,-1.287 1.667,-1.264 1.684,-1.241 1.701,-1.218 1.718,-1.195 1.734,-1.171 1.749,-1.147 1.765,-1.123 1.781,-1.099 1.795,-1.074 1.81,-1.05 1.823,-1.026 1.838,-0.999 1.851,-0.975 1.865,-0.95 1.877,-0.924 1.889,-0.898 1.902,-0.872 1.913,-0.846 1.925,-0.82 1.936,-0.794 1.947,-0.767 1.956,-0.74 1.967,-0.713 1.976,-0.687 1.986,-0.659 1.994,-0.633 2.003,-0.605 m 86.518,0 2.003,0.605 1.995,0.633 1.985,0.659 1.976,0.687 1.967,0.713 1.957,0.74 1.946,0.767 1.936,0.794 1.925,0.82 1.914,0.846 1.901,0.872 1.89,0.898 1.877,0.924 1.864,0.95 1.852,0.975 1.837,0.999 1.824,1.026 1.81,1.05 1.795,1.074 1.78,1.099 1.765,1.123 1.75,1.147 1.734,1.171 1.717,1.195 1.701,1.218 1.685,1.241 1.667,1.264 1.649,1.287 1.632,1.309 1.614,1.331 1.596,1.354 1.577,1.374 1.558,1.397 1.539,1.417 1.519,1.439 1.5,1.459 1.479,1.479 1.459,1.5 1.438,1.519 1.418,1.539 1.396,1.558 1.375,1.577 1.353,1.595 1.332,1.614 1.309,1.632 1.286,1.65 1.264,1.667 1.242,1.684 1.218,1.701 1.194,1.718 1.171,1.734 1.147,1.749 1.124,1.765 1.099,1.781 1.074,1.795 1.05,1.81 1.025,1.823 1,1.838 0.975,1.851 0.949,1.865 0.924,1.877 0.898,1.889 0.873,1.902 0.846,1.913 0.82,1.925 0.793,1.936 0.767,1.947 0.74,1.956 0.714,1.967 0.687,1.976 0.659,1.986 0.632,1.994 0.605,2.003 M 0.759,-2.577 -1.244,-3.182 -3.238,-3.814 -5.224,-4.474 -7.2,-5.16 l -1.967,-0.714 -1.956,-0.74 -1.947,-0.767 -1.936,-0.793 -1.925,-0.82 -1.913,-0.846 -1.902,-0.873 -1.889,-0.898 -1.877,-0.924 -1.865,-0.949 -1.851,-0.975 -1.838,-1 -1.823,-1.025 -1.81,-1.05 -1.795,-1.074 -1.781,-1.099 -1.765,-1.124 -1.749,-1.147 -1.734,-1.171 -1.718,-1.194 -1.701,-1.218 -1.684,-1.242 -1.667,-1.264 -1.65,-1.286 -1.632,-1.309 -1.614,-1.332 -1.595,-1.353 -1.577,-1.375 -1.558,-1.396 -1.539,-1.418 -1.519,-1.438 -1.5,-1.459 -1.479,-1.479 -1.459,-1.5 -1.439,-1.519 -1.417,-1.539 -1.397,-1.558 -1.374,-1.577 -1.354,-1.596 -1.331,-1.614 -1.309,-1.632 -1.287,-1.649 -1.264,-1.667 -1.241,-1.685 -1.218,-1.701 -1.195,-1.717 -1.171,-1.734 -1.147,-1.75 -1.123,-1.765 -1.099,-1.78 -1.074,-1.795 -1.05,-1.81 -1.025,-1.824 -1,-1.837 -0.975,-1.852 -0.95,-1.864 -0.924,-1.877 -0.898,-1.89 -0.872,-1.901 -0.846,-1.914 -0.82,-1.925 -0.794,-1.936 -0.767,-1.946 -0.74,-1.957 -0.713,-1.967 -0.687,-1.976 -0.659,-1.985 -0.633,-1.995 -0.605,-2.003 m 193.389,-29.085 h 39.261 39.26 m -78.521,0 -0.015,-0.016 -0.015,-0.047 -0.015,-0.078 -0.014,-0.108 -0.013,-0.137 -0.013,-0.164 -0.012,-0.19 -0.011,-0.212 -0.009,-0.234 -0.008,-0.252 -0.007,-0.268 -0.005,-0.28 -0.004,-0.29 -0.002,-0.295 -0.001,-0.299 M 29.845,-274.486 v 39.26 39.26 m 2.87,0.145 -0.299,-0.001 -0.296,-0.002 -0.289,-0.004 -0.281,-0.005 -0.267,-0.007 -0.252,-0.008 -0.234,-0.01 -0.213,-0.01 -0.189,-0.012 -0.164,-0.013 -0.137,-0.013 -0.108,-0.015 -0.078,-0.014 -0.047,-0.015 -0.016,-0.016 m 28.347,171.637 v -39.26 -39.261 m -2.87,-0.144 0.299,0.001 0.295,0.002 0.29,0.004 0.28,0.005 0.268,0.007 0.252,0.008 0.234,0.009 0.212,0.011 0.19,0.012 0.164,0.013 0.137,0.013 0.108,0.014 0.078,0.015 0.047,0.015 0.016,0.015 m 110.905,-60.731 h -39.26 -39.261 m -0.144,2.87 0.001,-0.299 0.002,-0.296 0.004,-0.29 0.005,-0.28 0.007,-0.267 0.008,-0.252 0.009,-0.234 0.011,-0.213 0.012,-0.189 0.013,-0.164 0.013,-0.137 0.014,-0.108 0.015,-0.078 0.015,-0.047 0.015,-0.016 m -171.636,28.347 h 39.26 39.26 m 0.145,-2.87 -10e-4,0.299 -0.002,0.295 -0.004,0.29 -0.005,0.28 -0.007,0.268 -0.008,0.252 -0.01,0.234 -0.011,0.212 -0.011,0.19 -0.013,0.164 -0.013,0.137 -0.015,0.108 -0.014,0.078 -0.015,0.047 -0.016,0.016 m 32.385,32.384 v 39.261 39.26 m 0,-78.521 0.016,-0.015 0.047,-0.015 0.078,-0.015 0.108,-0.014 0.137,-0.013 0.164,-0.013 0.189,-0.012 0.213,-0.011 0.234,-0.009 0.252,-0.008 0.267,-0.007 0.281,-0.005 0.289,-0.004 0.296,-0.002 0.299,-0.001 M -2.54,-163.581 H -41.8 -81.06 m 78.52,0 0.016,0.016 0.015,0.047 0.014,0.078 0.015,0.108 0.013,0.137 0.013,0.164 0.011,0.189 0.011,0.213 0.01,0.234 0.008,0.252 0.007,0.267 0.005,0.28 0.004,0.29 0.002,0.296 10e-4,0.299 m 60.587,-35.255 v -39.26 -39.26 m 0,78.52 -0.016,0.016 -0.047,0.015 -0.078,0.014 -0.108,0.015 -0.137,0.013 -0.164,0.013 -0.19,0.012 -0.212,0.01 -0.234,0.01 -0.252,0.008 -0.268,0.007 -0.28,0.005 -0.29,0.004 -0.295,0.002 -0.299,0.001 m -25.477,-0.145 -0.035,1.256 -0.104,1.253 -0.174,1.244 -0.25,1.268 -0.322,1.254 -0.393,1.232 -0.376,0.995 -0.422,0.977 -0.471,0.964 -0.517,0.941 m 0,0 0.008,0.015 0.033,0.029 0.057,0.043 0.081,0.057 0.104,0.07 0.127,0.082 0.147,0.093 0.166,0.104 0.184,0.114 0.199,0.121 0.214,0.129 0.224,0.135 0.234,0.138 0.241,0.142 0.245,0.144 0.247,0.143 m 61.284,19.442 -1.255,-0.035 -1.253,-0.104 -1.245,-0.174 -1.268,-0.25 -1.253,-0.322 -1.232,-0.393 -0.995,-0.376 -0.977,-0.422 -0.964,-0.471 -0.942,-0.517 m 0,0 -0.014,0.008 -0.03,0.033 -0.043,0.057 -0.056,0.081 -0.07,0.104 -0.082,0.127 -0.094,0.147 -0.104,0.166 -0.113,0.184 -0.122,0.199 -0.128,0.213 -0.135,0.225 -0.139,0.234 -0.142,0.241 -0.143,0.245 -0.143,0.247 m -80.174,28.9 1.256,0.034 1.253,0.105 1.244,0.173 1.269,0.25 1.253,0.323 1.232,0.393 0.995,0.375 0.977,0.422 0.964,0.472 0.941,0.517 m 0,0 0.015,-0.008 0.029,-0.033 0.043,-0.057 0.057,-0.082 0.07,-0.104 0.082,-0.126 0.093,-0.147 0.104,-0.166 0.114,-0.184 0.121,-0.2 0.129,-0.213 0.135,-0.225 0.138,-0.233 0.142,-0.241 0.144,-0.245 0.143,-0.247 m 47.789,31.831 0.034,-1.256 0.105,-1.252 0.173,-1.245 0.25,-1.268 0.323,-1.253 0.393,-1.232 0.375,-0.995 0.422,-0.977 0.472,-0.965 0.517,-0.941 m 0,0 -0.008,-0.014 -0.033,-0.03 -0.057,-0.043 -0.082,-0.057 -0.104,-0.069 -0.126,-0.082 -0.147,-0.094 -0.166,-0.104 -0.184,-0.113 -0.2,-0.122 -0.213,-0.128 -0.225,-0.135 -0.233,-0.139 -0.241,-0.142 -0.245,-0.143 -0.247,-0.143 m 7.124,-6.009 -1.109,0.883 -1.104,0.888 -2.187,1.805 -1.379,1.193 -0.679,0.613 -0.666,0.627 m 12.88,-11.765 -0.644,0.791 -0.667,0.771 -0.689,0.752 -0.711,0.731 -0.731,0.711 -0.752,0.689 -0.772,0.667 -0.79,0.644 m 11.765,-12.88 -0.967,1.039 -0.937,1.065 -0.92,1.085 -0.906,1.097 -1.144,1.414 -1.135,1.424 m 0,-43.702 0.883,1.11 0.888,1.104 1.805,2.187 1.193,1.379 0.613,0.678 0.627,0.667 m -11.765,-12.881 0.79,0.645 0.772,0.667 0.752,0.689 0.731,0.71 0.711,0.732 0.689,0.752 0.667,0.771 0.644,0.79 m -12.88,-11.764 1.039,0.966 1.065,0.938 1.085,0.92 1.097,0.905 1.414,1.144 1.424,1.135 m -43.702,0 1.11,-0.882 1.104,-0.888 2.187,-1.805 1.379,-1.194 0.678,-0.613 0.667,-0.626 m -12.881,11.764 0.645,-0.79 0.667,-0.771 0.689,-0.752 0.71,-0.732 0.732,-0.71 0.752,-0.689 0.771,-0.667 0.79,-0.645 m -11.764,12.881 0.966,-1.04 0.938,-1.065 0.92,-1.084 0.905,-1.097 1.144,-1.414 1.135,-1.425 m 0,43.702 -0.882,-1.109 -0.888,-1.104 -1.805,-2.187 -1.194,-1.379 -0.613,-0.679 -0.626,-0.666 m 11.764,12.88 -0.79,-0.644 -0.771,-0.667 -0.752,-0.689 -0.732,-0.711 -0.71,-0.731 -0.689,-0.752 -0.667,-0.771 -0.645,-0.791 m 12.881,11.765 -1.04,-0.967 -1.065,-0.937 -1.084,-0.92 -1.097,-0.906 -1.414,-1.144 -1.425,-1.135 m 39.089,-62.781 -0.601,-1.104 -0.539,-1.137 -0.474,-1.164 -0.421,-1.223 -0.35,-1.246 -0.278,-1.262 -0.175,-1.049 -0.125,-1.056 -0.076,-1.07 -0.025,-1.073 m 3.064,11.384 -0.008,0.015 -0.033,0.029 -0.057,0.043 -0.082,0.057 -0.104,0.07 -0.126,0.082 -0.147,0.093 -0.166,0.104 -0.184,0.114 -0.2,0.121 -0.213,0.129 -0.225,0.135 -0.233,0.138 -0.241,0.142 -0.245,0.144 -0.247,0.143 m 20.447,50.853 1.105,-0.601 1.137,-0.539 1.163,-0.474 1.223,-0.421 1.246,-0.35 1.263,-0.278 1.049,-0.175 1.056,-0.125 1.07,-0.076 1.072,-0.025 m -11.384,3.064 -0.014,-0.008 -0.03,-0.033 -0.043,-0.057 -0.056,-0.082 -0.07,-0.104 -0.082,-0.126 -0.094,-0.147 -0.104,-0.166 -0.113,-0.184 -0.122,-0.2 -0.128,-0.213 -0.135,-0.225 -0.139,-0.233 -0.142,-0.241 -0.143,-0.245 -0.143,-0.247 m -68.79,-31.964 -1.104,0.6 -1.137,0.539 -1.164,0.475 -1.223,0.42 -1.246,0.35 -1.262,0.279 -1.049,0.174 -1.056,0.126 -1.07,0.076 -1.073,0.025 m 11.384,-3.064 0.015,0.008 0.029,0.033 0.043,0.057 0.057,0.081 0.07,0.104 0.082,0.127 0.093,0.147 0.104,0.166 0.114,0.184 0.121,0.199 0.129,0.213 0.135,0.225 0.138,0.234 0.142,0.241 0.144,0.245 0.143,0.247 m 16.378,49.9 0.6,1.105 0.539,1.137 0.475,1.163 0.42,1.223 0.35,1.246 0.279,1.263 0.174,1.049 0.126,1.056 0.076,1.07 0.025,1.072 m -3.064,-11.384 0.008,-0.014 0.033,-0.03 0.057,-0.043 0.081,-0.057 0.104,-0.069 0.127,-0.082 0.147,-0.094 0.166,-0.104 0.184,-0.113 0.199,-0.122 0.214,-0.128 0.224,-0.135 0.234,-0.139 0.241,-0.142 0.245,-0.143 0.247,-0.143 m -8.05,-4.839 0.729,0.602 0.703,0.632 0.674,0.659 0.976,1.058 0.906,1.118 0.412,0.56 0.395,0.574 0.381,0.591 0.363,0.603 m -5.539,-6.397 0.01,-0.013 0.031,-0.039 0.05,-0.063 0.07,-0.088 0.088,-0.112 0.106,-0.134 0.122,-0.154 0.137,-0.173 0.15,-0.189 0.161,-0.205 m 44.628,-56.383 -0.73,-0.603 -0.703,-0.632 -0.674,-0.658 -0.975,-1.058 -0.906,-1.119 -0.412,-0.56 -0.395,-0.573 -0.381,-0.591 -0.363,-0.604 m 5.539,6.398 -0.01,0.013 -0.031,0.038 -0.05,0.064 -0.07,0.088 -0.088,0.111 -0.106,0.134 -0.122,0.154 -0.137,0.173 -0.15,0.19 -0.162,0.204 m -50.627,4.831 -0.603,0.729 -0.632,0.703 -0.658,0.674 -1.059,0.976 -1.118,0.906 -0.56,0.412 -0.573,0.395 -0.591,0.381 -0.604,0.363 m 6.398,-5.539 0.013,0.01 0.038,0.031 0.064,0.05 0.088,0.07 0.112,0.088 0.133,0.106 0.154,0.122 0.173,0.137 0.19,0.15 0.204,0.161 m 56.384,44.628 0.602,-0.73 0.632,-0.703 0.659,-0.674 1.058,-0.975 1.118,-0.906 0.56,-0.412 0.573,-0.395 0.592,-0.381 0.603,-0.363 m -6.397,5.539 -0.013,-0.01 -0.039,-0.031 -0.063,-0.05 -0.088,-0.07 -0.112,-0.088 -0.134,-0.106 -0.154,-0.122 -0.173,-0.137 -0.189,-0.15 -0.205,-0.162 m -62.781,-4.613 0.84,0.512 0.817,0.548 0.789,0.581 0.78,0.628 0.752,0.662 0.722,0.695 0.872,0.928 0.826,0.985 m 0,0 0.013,-0.01 0.038,-0.031 0.064,-0.05 0.088,-0.07 0.112,-0.088 0.133,-0.106 0.154,-0.122 0.173,-0.137 0.19,-0.15 0.204,-0.162 m 44.845,13.323 0.512,-0.839 0.548,-0.817 0.581,-0.79 0.628,-0.78 0.662,-0.751 0.695,-0.723 0.929,-0.872 0.984,-0.825 m 0,0 -0.01,-0.013 -0.031,-0.039 -0.05,-0.063 -0.07,-0.088 -0.088,-0.112 -0.106,-0.134 -0.122,-0.154 -0.137,-0.173 -0.15,-0.189 -0.162,-0.205 m -39.088,-62.781 -0.513,0.84 -0.548,0.817 -0.58,0.789 -0.628,0.78 -0.662,0.752 -0.696,0.722 -0.928,0.872 -0.984,0.826 m 0,0 0.01,0.013 0.031,0.038 0.05,0.064 0.07,0.088 0.088,0.111 0.106,0.134 0.122,0.154 0.137,0.173 0.15,0.19 0.161,0.204 m 57.025,10.37 -0.839,-0.513 -0.817,-0.548 -0.79,-0.58 -0.78,-0.628 -0.751,-0.662 -0.723,-0.696 -0.872,-0.928 -0.825,-0.984 m 0,0 -0.013,0.01 -0.039,0.031 -0.063,0.05 -0.088,0.07 -0.112,0.088 -0.134,0.106 -0.154,0.122 -0.173,0.137 -0.189,0.15 -0.205,0.161 m -56.383,44.628 0.672,0.824 0.695,0.804 0.718,0.783 0.741,0.763 0.762,0.74 0.784,0.719 0.804,0.695 0.824,0.672 m 45.553,0 0.824,-0.672 0.804,-0.695 0.783,-0.719 0.763,-0.74 0.74,-0.763 0.719,-0.783 0.695,-0.804 0.672,-0.824 m 0,-45.553 -0.672,-0.824 -0.695,-0.804 -0.719,-0.784 -0.74,-0.762 -0.763,-0.741 -0.783,-0.718 -0.804,-0.695 -0.824,-0.672 m -45.553,0 -0.824,0.672 -0.804,0.695 -0.784,0.718 -0.762,0.741 -0.741,0.762 -0.718,0.784 -0.695,0.804 -0.672,0.824"
         style="fill:none;stroke:#000000;stroke-width:0.70899999;stroke-linecap:round;stroke-linejoin:round;stroke-miterlimit:10;stroke-dasharray:none;stroke-opacity:1"
         id="path7681"
         inkscape:connector-curvature="0" /></g><g
       id="g7691"
       transform="translate(600.66293,1117.789)"><path
         d="M 0,0 1.377,5.139 M 18.468,-1.941 0,0 m 15.809,-6.548 2.659,4.607 m 14.677,-11.262 -17.336,6.655 m 13.575,-10.417 3.761,3.762 M 44.407,-27.88 29.384,-16.965 M 39.8,-30.54 l 4.607,2.66 M 51.487,-44.972 39.8,-30.54 m 6.548,-15.809 5.139,1.377 m 2.415,-18.341 -7.554,16.964 m 2.234,-16.964 h 5.32 m -2.415,-18.342 -2.905,18.342 m -2.234,-16.965 5.139,-1.377 m -7.08,-17.091 1.941,18.468 m -6.548,-15.808 4.607,-2.66 m -11.262,-14.677 6.655,17.337 m -10.416,-13.576 3.761,-3.761 m -14.677,-11.262 10.916,15.023 m -13.575,-10.416 2.659,-4.607 m -17.091,-7.08 14.432,11.687 M 0,-126.626 1.377,-131.765 M -16.965,-134.18 0,-126.626 m -16.965,-2.234 v -5.32 m -18.341,2.415 18.341,2.905 m -16.965,2.234 -1.376,-5.139 m -17.092,7.08 18.468,-1.941 m -15.808,6.548 -2.66,-4.607 m -14.677,11.262 17.337,-6.655 m -13.575,10.416 -3.762,-3.761 m -11.262,14.677 15.024,-10.916 m -10.417,13.576 -4.607,-2.66 m -7.079,17.091 11.686,-14.431 m -6.548,15.808 -5.138,-1.377 m -2.415,18.342 7.553,-16.965 m -2.233,16.965 h -5.32 m 2.415,18.341 2.905,-18.341 m 2.233,16.964 -5.138,1.377 m 7.079,17.092 -1.941,-18.469 m 6.548,15.809 -4.607,2.66 m 11.262,14.677 -6.655,-17.337 m 10.417,13.575 -3.762,3.762 m 14.677,11.262 -10.915,-15.024 m 13.575,10.417 -2.66,4.607 m 17.092,7.08 -14.432,-11.687 M -33.93,0 -35.306,5.139 m 36.683,0 -18.342,-2.906 m 18.425,-65.546 -0.006,0.482 -0.019,0.482 -0.031,0.481 -0.045,0.481 -0.056,0.479 -0.069,0.477 -0.082,0.476 -0.094,0.473 -0.107,0.47 -0.118,0.468 -0.131,0.464 -0.143,0.461 -0.155,0.456 -0.167,0.453 -0.179,0.448 -0.191,0.443 -0.201,0.438 -0.214,0.433 -0.224,0.427 -0.236,0.42 -0.247,0.415 -0.257,0.408 -0.268,0.401 -0.278,0.394 -0.289,0.386 -0.299,0.379 -0.308,0.371 -0.318,0.363 -0.328,0.354 -0.336,0.345 -0.346,0.337 -0.354,0.327 -0.363,0.318 -0.37,0.309 -0.379,0.299 -0.387,0.288 -0.394,0.279 -0.401,0.267 -0.408,0.258 -0.414,0.246 -0.421,0.236 -0.427,0.225 -0.433,0.213 -0.438,0.202 -0.443,0.19 -0.448,0.179 -0.452,0.167 -0.457,0.155 -0.461,0.143 -0.464,0.131 -0.468,0.119 -0.47,0.106 -0.473,0.094 -0.475,0.082 -0.478,0.069 -0.479,0.057 -0.48,0.044 -0.481,0.032 -0.482,0.019 -0.483,0.006 -0.482,-0.006 -0.482,-0.019 -0.481,-0.032 -0.481,-0.044 -0.479,-0.057 -0.477,-0.069 -0.475,-0.082 -0.474,-0.094 -0.47,-0.106 -0.468,-0.119 -0.464,-0.131 -0.46,-0.143 -0.457,-0.155 -0.453,-0.167 -0.448,-0.179 -0.443,-0.19 -0.438,-0.202 -0.433,-0.213 -0.426,-0.225 -0.421,-0.236 -0.415,-0.246 -0.408,-0.258 -0.401,-0.267 -0.394,-0.279 -0.386,-0.288 -0.379,-0.299 -0.371,-0.309 -0.363,-0.318 -0.354,-0.327 -0.345,-0.337 -0.337,-0.345 -0.327,-0.354 -0.318,-0.363 -0.309,-0.371 -0.299,-0.379 -0.288,-0.386 -0.278,-0.394 -0.268,-0.401 -0.258,-0.408 -0.247,-0.415 -0.235,-0.42 -0.225,-0.427 -0.213,-0.433 -0.202,-0.438 -0.19,-0.443 -0.179,-0.448 -0.167,-0.453 -0.155,-0.456 -0.143,-0.461 -0.131,-0.464 -0.119,-0.468 -0.106,-0.47 -0.094,-0.473 -0.082,-0.476 -0.069,-0.477 -0.057,-0.479 -0.044,-0.481 -0.032,-0.481 -0.019,-0.482 -0.006,-0.482 0.006,-0.483 0.019,-0.482 0.032,-0.481 0.044,-0.48 0.057,-0.479 0.069,-0.477 0.082,-0.476 0.094,-0.473 0.106,-0.471 0.119,-0.467 0.131,-0.464 0.143,-0.461 0.155,-0.457 0.167,-0.452 0.179,-0.448 0.19,-0.443 0.202,-0.438 0.213,-0.433 0.225,-0.427 0.235,-0.421 0.247,-0.414 0.258,-0.408 0.268,-0.401 0.278,-0.394 0.288,-0.387 0.299,-0.379 0.309,-0.37 0.318,-0.363 0.327,-0.354 0.337,-0.346 0.345,-0.336 0.354,-0.328 0.363,-0.318 0.371,-0.308 0.379,-0.299 0.386,-0.288 0.394,-0.279 0.401,-0.268 0.408,-0.257 0.415,-0.247 0.421,-0.236 0.426,-0.224 0.433,-0.214 0.438,-0.201 0.443,-0.191 0.448,-0.179 0.453,-0.167 0.457,-0.155 0.46,-0.143 0.464,-0.131 0.468,-0.118 0.47,-0.107 0.474,-0.094 0.475,-0.082 0.477,-0.069 0.479,-0.056 0.481,-0.045 0.481,-0.031 0.482,-0.019 0.482,-0.006 0.483,0.006 0.482,0.019 0.481,0.031 0.48,0.045 0.479,0.056 0.478,0.069 0.475,0.082 0.473,0.094 0.47,0.107 0.468,0.118 0.464,0.131 0.461,0.143 0.457,0.155 0.452,0.167 0.448,0.179 0.443,0.191 0.438,0.201 0.433,0.214 0.427,0.224 0.421,0.236 0.414,0.247 0.408,0.257 0.401,0.268 0.394,0.279 0.387,0.288 0.379,0.299 0.37,0.308 0.363,0.318 0.354,0.328 0.346,0.336 0.336,0.346 0.328,0.354 0.318,0.363 0.308,0.37 0.299,0.379 0.289,0.387 0.278,0.394 0.268,0.401 0.257,0.408 0.247,0.414 0.236,0.421 0.224,0.427 0.214,0.433 0.201,0.438 0.191,0.443 0.179,0.448 0.167,0.452 0.155,0.457 0.143,0.461 0.131,0.464 0.118,0.467 0.107,0.471 0.094,0.473 0.082,0.476 0.069,0.477 0.056,0.479 0.045,0.48 0.031,0.481 0.019,0.482 0.006,0.483 M -16.965,7.553 -33.93,0 m 16.965,2.233 v 5.32"
         style="fill:none;stroke:#000000;stroke-width:0.70899999;stroke-linecap:round;stroke-linejoin:round;stroke-miterlimit:10;stroke-dasharray:none;stroke-opacity:1"
         id="path7693"
         inkscape:connector-curvature="0" /></g><g
       id="g7707"
       transform="translate(943.5135,1054.9102)"><path
         d="M 0,0 -0.006,0.329 -0.025,0.658 -0.056,0.986 -0.1,1.312 -0.156,1.636 -0.225,1.958 -0.305,2.277 -0.398,2.593 -0.503,2.905 -0.619,3.213 -0.747,3.517 -0.887,3.815 -1.038,4.107 -1.2,4.394 -1.372,4.674 -1.556,4.948 -1.749,5.214 -1.953,5.473 -2.166,5.724 -2.389,5.966 -2.62,6.2 -2.861,6.425 -3.109,6.641 -3.366,6.846 -3.631,7.043 -3.902,7.228 -4.181,7.404 -4.466,7.568 -4.757,7.722 -5.054,7.864 -5.356,7.995 -5.663,8.115 -5.974,8.223 -6.289,8.318 -6.607,8.402 -6.929,8.474 -7.253,8.533 -7.578,8.58 -7.906,8.614 -8.234,8.636 -8.563,8.645 -8.893,8.642 -9.221,8.626 -9.549,8.598 -9.876,8.558 -10.201,8.505 -10.524,8.439 -10.844,8.362 -11.16,8.272 -11.474,8.17 -11.782,8.057 -12.087,7.931 -12.386,7.795 -12.68,7.647 l -0.289,-0.16 -0.281,-0.17 -0.276,-0.18 -0.268,-0.191 -0.261,-0.201 -0.252,-0.211 -0.245,-0.22 -0.236,-0.23 -0.227,-0.238 -0.218,-0.247 -0.209,-0.255 -0.198,-0.262 -0.188,-0.27 -0.179,-0.277 -0.167,-0.284 -0.156,-0.289 -0.145,-0.296 -0.134,-0.301 -0.123,-0.305 -0.11,-0.31 -0.099,-0.314 -0.087,-0.318 -0.074,-0.32 -0.063,-0.324 -0.05,-0.325 -0.037,-0.327 -0.025,-0.328 -0.013,-0.329 v -0.33 l 0.013,-0.329 0.025,-0.328 0.037,-0.327 0.05,-0.325 0.063,-0.324 0.074,-0.32 0.087,-0.318 0.099,-0.314 0.11,-0.31 0.123,-0.305 0.134,-0.301 0.145,-0.296 0.156,-0.289 0.167,-0.284 0.179,-0.277 0.188,-0.27 0.198,-0.262 0.209,-0.255 0.218,-0.247 0.227,-0.238 0.236,-0.23 0.245,-0.22 0.252,-0.211 0.261,-0.201 0.268,-0.191 0.276,-0.18 0.281,-0.17 0.289,-0.16 0.294,-0.148 0.299,-0.136 0.305,-0.126 0.308,-0.113 0.314,-0.102 0.316,-0.09 0.32,-0.077 0.323,-0.066 0.325,-0.053 0.327,-0.04 0.328,-0.028 0.328,-0.016 0.33,-0.003 0.329,0.009 0.328,0.022 0.328,0.034 0.325,0.047 0.324,0.059 0.322,0.072 0.318,0.084 0.315,0.095 0.311,0.108 0.307,0.12 0.302,0.131 0.297,0.142 0.291,0.154 0.285,0.164 0.279,0.176 0.271,0.185 0.265,0.197 0.257,0.205 0.248,0.216 0.241,0.225 0.231,0.234 0.223,0.242 0.213,0.251 0.204,0.259 0.193,0.266 0.184,0.274 0.172,0.28 0.162,0.287 0.151,0.292 0.14,0.298 0.128,0.304 0.116,0.308 0.105,0.312 0.093,0.316 0.08,0.319 0.069,0.322 0.056,0.324 0.044,0.326 0.031,0.328 0.019,0.329 L 0,0 M -122.192,70.381 -13.035,13.477 m -9.172,-17.596 0.128,-0.401 0.141,-0.398 0.152,-0.394 0.164,-0.388 0.175,-0.384 0.187,-0.378 0.198,-0.373 0.209,-0.366 0.219,-0.36 0.231,-0.354 0.241,-0.346 0.251,-0.339 0.26,-0.332 0.271,-0.323 0.28,-0.315 0.29,-0.307 0.298,-0.298 0.307,-0.289 0.316,-0.28 0.324,-0.271 0.332,-0.26 0.339,-0.251 0.347,-0.24 0.353,-0.23 0.361,-0.219 0.366,-0.209 0.373,-0.197 0.378,-0.187 0.384,-0.175 0.389,-0.163 0.394,-0.152 0.398,-0.14 0.402,-0.128 0.405,-0.116 0.409,-0.104 0.412,-0.092 0.414,-0.08 0.416,-0.067 0.419,-0.054 0.419,-0.043 0.421,-0.029 0.422,-0.017 0.421,-0.005 0.422,0.008 0.421,0.02 0.421,0.033 0.419,0.046 0.418,0.058 0.416,0.07 0.414,0.083 0.411,0.095 0.408,0.107 0.404,0.119 0.401,0.131 0.397,0.144 0.392,0.154 0.388,0.167 0.382,0.178 0.378,0.189 0.371,0.2 0.365,0.212 0.358,0.222 0.352,0.233 0.345,0.243 0.337,0.253 0.33,0.263 0.322,0.273 0.313,0.282 0.305,0.291 0.296,0.301 0.287,0.309 0.278,0.318 0.268,0.325 0.259,0.334 0.248,0.341 0.238,0.348 0.227,0.355 0.217,0.362 0.206,0.368 0.195,0.374 0.184,0.38 0.173,0.385 0.161,0.39 0.149,0.394 0.137,0.399 0.125,0.403 0.114,0.406 0.101,0.41 0.089,0.412 0.077,0.415 0.064,0.417 0.052,0.418 0.04,0.42 0.026,0.421 0.015,0.422 L 5.527,0.15 5.516,0.571 5.493,0.992 5.457,1.413 5.409,1.832 5.348,2.249 5.275,2.665 5.189,3.078 5.092,3.488 4.982,3.895 4.86,4.299 4.726,4.699 4.58,5.095 4.423,5.486 4.254,5.873 4.073,6.254 3.881,6.63 3.679,7 3.465,7.363 3.24,7.72 3.005,8.071 2.76,8.414 2.504,8.75 2.239,9.078 1.964,9.397 1.68,9.709 l -0.294,0.303 -0.302,0.294 -0.311,0.285 -0.32,0.276 -0.327,0.266 -0.335,0.256 -0.343,0.246 -0.35,0.235 -0.356,0.226 -0.363,0.214 -0.37,0.204 -0.375,0.192 -0.381,0.182 -0.386,0.169 -0.391,0.159 -0.396,0.146 -0.4,0.135 -0.403,0.123 -0.407,0.11 -0.41,0.099 -0.413,0.086 -0.416,0.074 -0.417,0.062 -0.419,0.049 -0.42,0.036 -0.421,0.025 -0.422,0.011 -0.422,-0.001 -0.421,-0.013 -0.421,-0.027 -0.42,-0.038 -0.419,-0.051 -0.417,-0.064 -0.415,-0.076 -0.413,-0.088 -0.409,-0.1 -0.407,-0.113 -0.403,-0.124 m -65.544,11.791 56.372,-29.387 m -60.406,26.089 -0.046,0.183 -0.034,0.186 -0.022,0.187 -0.009,0.189 0.004,0.189 0.016,0.188 0.029,0.187 0.041,0.184 0.053,0.181 0.065,0.177 0.077,0.173 0.089,0.167 0.099,0.16 0.109,0.154 0.12,0.146 0.129,0.138 0.138,0.129 0.146,0.12 0.153,0.109 0.161,0.099 0.167,0.088 0.173,0.077 0.177,0.065 0.181,0.053 0.184,0.041 0.187,0.029 0.188,0.016 0.189,0.004 0.189,-0.009 0.187,-0.022 0.186,-0.034 0.183,-0.046 0.18,-0.058 0.175,-0.07 0.17,-0.082 m -125.828,-90.284 1.344,-0.92 1.362,-0.893 1.38,-0.864 1.397,-0.836 1.415,-0.807 1.431,-0.778 1.446,-0.749 1.461,-0.718 1.476,-0.689 1.49,-0.658 1.502,-0.627 1.516,-0.596 1.527,-0.565 1.539,-0.534 1.549,-0.502 1.559,-0.47 1.568,-0.438 1.577,-0.406 1.586,-0.373 1.592,-0.341 1.599,-0.308 1.605,-0.275 1.611,-0.242 1.614,-0.209 1.619,-0.176 1.623,-0.142 1.624,-0.11 1.627,-0.076 1.628,-0.042 1.628,-0.009 1.629,0.024 1.627,0.058 1.626,0.091 1.624,0.124 1.621,0.158 1.617,0.191 1.613,0.224 1.608,0.257 1.602,0.29 1.596,0.323 1.59,0.356 1.581,0.388 1.574,0.42 1.564,0.453 1.554,0.484 1.545,0.517 1.533,0.548 1.522,0.579 1.51,0.611 1.497,0.641 1.483,0.672 1.469,0.702 1.455,0.732 1.439,0.762 1.424,0.791 1.407,0.82 1.389,0.849 1.372,0.878 1.354,0.905 1.335,0.933 1.315,0.96 1.296,0.986 1.274,1.014 1.254,1.039 1.233,1.064 1.21,1.09 1.187,1.114 1.165,1.139 1.141,1.162 1.116,1.185 1.093,1.208 1.067,1.23 1.042,1.251 1.015,1.273 0.99,1.293 0.963,1.314 0.935,1.333 0.909,1.351 0.88,1.371 0.852,1.387 0.823,1.405 0.794,1.422 0.765,1.438 0.735,1.453 0.705,1.468 0.675,1.482 0.645,1.495 0.613,1.509 0.583,1.52 0.551,1.533 0.52,1.543 0.488,1.554 0.456,1.563 0.424,1.572 0.391,1.581 0.359,1.588 0.326,1.596 0.294,1.602 0.26,1.607 0.228,1.613 0.194,1.616 0.161,1.621 0.128,1.623 0.094,1.626 0.062,1.627 0.027,1.629 -0.005,1.628 -0.039,1.628 -0.073,1.627 -0.106,1.625 -0.139,1.623 -0.172,1.619 -0.206,1.615 -0.238,1.611 -0.272,1.606 -0.305,1.599 -0.337,1.594 -0.37,1.586 -0.402,1.577 -0.435,1.57 m -119.319,-83.452 -2.475,-3.534 m 6.334,4.29 -0.162,0.097 -0.168,0.086 -0.174,0.075 -0.178,0.063 -0.182,0.051 -0.185,0.038 -0.187,0.027 -0.188,0.013 -0.189,0.002 -0.189,-0.012 -0.187,-0.024 -0.185,-0.036 -0.183,-0.048 -0.179,-0.061 -0.174,-0.072 -0.17,-0.084 -0.163,-0.095 -0.156,-0.106 -0.15,-0.116 -0.141,-0.125 -0.132,-0.135 -0.124,-0.143 -0.113,-0.151 m 3.859,0.756 1.606,-1.007 1.632,-0.965 1.657,-0.921 1.681,-0.878 1.703,-0.833 1.724,-0.789 1.744,-0.742 1.763,-0.697 1.781,-0.651 1.797,-0.603 1.813,-0.556 1.826,-0.508 1.839,-0.461 1.851,-0.411 1.861,-0.364 1.869,-0.314 1.877,-0.265 1.884,-0.216 1.888,-0.166 1.893,-0.117 1.894,-0.067 1.896,-0.017 1.896,0.032 1.894,0.083 1.891,0.131 1.887,0.182 1.882,0.23 1.875,0.28 1.867,0.33 1.858,0.378 1.847,0.426 1.836,0.475 1.822,0.523 1.808,0.57 1.792,0.618 1.776,0.665 1.757,0.711 1.739,0.756 1.717,0.802 1.697,0.847 1.673,0.891 1.649,0.935 1.625,0.977 1.598,1.02 1.571,1.062 1.543,1.102 1.513,1.142 1.482,1.182 1.451,1.22 1.419,1.258 1.385,1.294 1.35,1.33 1.316,1.366 1.279,1.399 1.242,1.433 1.204,1.464 1.165,1.496 1.125,1.525 1.085,1.555 1.044,1.582 1.002,1.61 0.96,1.635 0.916,1.66 0.872,1.683 0.828,1.705 0.783,1.727 0.738,1.747 0.691,1.765 0.645,1.783 0.598,1.799 0.55,1.814 0.503,1.828 0.454,1.841 0.406,1.852 0.358,1.861 0.308,1.871 0.259,1.878 0.21,1.884 0.161,1.889 0.11,1.893 0.061,1.895 0.012,1.896 -0.038,1.895 -0.088,1.894 -0.138,1.891 -0.187,1.886 -0.237,1.881 -0.286,1.874 -0.335,1.866 -0.384,1.857 -0.432,1.846 -0.481,1.834 -0.528,1.821 -0.576,1.806 -0.624,1.79 -0.67,1.774 -0.716,1.755 -0.762,1.736 -0.808,1.715 -0.852,1.694 -0.896,1.67 -0.94,1.647 -0.982,1.621 -1.025,1.595 -1.066,1.568 -1.107,1.539 -1.148,1.509 -1.186,1.479 -1.224,1.448 -1.263,1.414 -1.298,1.381 -1.335,1.347 -1.369,1.311 -1.404,1.275 -1.436,1.237 -1.468,1.199 -1.499,1.161 -1.53,1.12 -1.557,1.081 -1.586,1.039 -1.613,0.996 -1.638,0.955 -1.663,0.911 -1.686,0.867 -1.708,0.823 -1.729,0.777 -1.749,0.732 m -27.026,-2.364 27.026,2.364 m -27.026,-2.364 v 6.26 m 0,0 29.86,2.612 m 6.83,-3.158 -0.837,0.43 -0.842,0.42 -0.847,0.41 -0.851,0.4 -0.857,0.39 -0.861,0.379 -0.865,0.37 -0.87,0.359"
         style="fill:none;stroke:#000000;stroke-width:0.70899999;stroke-linecap:round;stroke-linejoin:round;stroke-miterlimit:10;stroke-dasharray:none;stroke-opacity:1"
         id="path7709"
         inkscape:connector-curvature="0" /></g><g
       id="g7715"
       transform="translate(229.97578,609.69429)"><path
         d="m 0,0 -9.472,24.895 m 0,0 0.096,0.021 0.095,0.021 0.096,0.021 m 0,0 9.731,-25.577 m 0,0 L 0.282,-0.302 0,0 m 40.842,2.411 9.41,21.334 m 0,0 0.102,-0.022 0.102,-0.023 0.102,-0.022 m 0,0 L 41.29,2.665 m 0,0 L 41.064,2.542 40.842,2.411 M 117.036,13.78 146.863,0.625 m 0,0 -10.296,-23.342 m 0,0 -29.826,13.155 M 117.036,13.78 106.741,-9.562 m -176.324,-0.827 -32.782,-12.472 m -9.072,23.844 9.072,-23.844 m 23.71,36.317 -32.782,-12.473 m 32.782,12.473 9.072,-23.845 m 74.672,38.458 0.3,0.073 0.298,0.085 0.293,0.098 0.288,0.112 0.284,0.123 0.278,0.136 0.271,0.148 0.265,0.159 0.258,0.171 0.25,0.182 0.242,0.193 0.233,0.203 0.224,0.213 0.215,0.222 0.205,0.232 0.194,0.241 0.184,0.249 0.172,0.256 0.162,0.264 0.15,0.27 0.137,0.277 0.126,0.283 0.113,0.288 0.1,0.292 0.088,0.297 0.074,0.3 0.062,0.303 0.048,0.305 0.035,0.308 0.021,0.308 0.008,0.309 -0.006,0.31 -0.019,0.308 -0.032,0.308 -0.046,0.306 -0.06,0.303 -0.072,0.301 -0.086,0.297 -0.098,0.293 -0.111,0.289 -0.124,0.283 -0.135,0.278 -0.148,0.272 -0.16,0.265 -0.171,0.257 -0.182,0.25 -0.192,0.242 -0.203,0.233 -0.213,0.225 -0.223,0.214 -0.232,0.205 -0.24,0.194 -0.249,0.184 -0.257,0.173 -0.263,0.161 -0.271,0.15 -0.277,0.138 -0.282,0.125 -0.288,0.113 -0.293,0.101 -0.296,0.087 -0.3,0.075 L 4.834,41.97 4.529,42.018 4.222,42.053 3.913,42.074 3.604,42.082 3.295,42.077 2.986,42.058 2.679,42.025 2.373,41.979 2.069,41.92 m 0,5.669 0.521,0.344 0.513,0.356 0.505,0.366 0.497,0.378 0.489,0.388 0.48,0.399 0.471,0.409 0.462,0.42 0.453,0.429 0.444,0.439 0.434,0.449 0.423,0.458 0.414,0.468 0.404,0.476 0.392,0.485 0.383,0.493 0.371,0.502 0.36,0.509 0.35,0.518 0.337,0.524 0.327,0.533 0.314,0.539 0.303,0.546 0.29,0.552 0.279,0.558 0.266,0.565 0.254,0.57 0.242,0.576 0.228,0.58 0.216,0.586 0.203,0.59 0.191,0.594 0.177,0.599 0.164,0.602 0.151,0.606 0.138,0.608 0.124,0.612 0.111,0.614 0.097,0.617 0.084,0.618 0.071,0.62 0.057,0.622 0.043,0.623 0.03,0.623 0.016,0.624 0.003,0.624 -0.012,0.624 m 0,0 h 5.433 m 0,0 -0.011,-0.621 0.002,-0.621 0.016,-0.621 0.03,-0.621 0.043,-0.62 0.057,-0.618 0.071,-0.618 0.083,-0.615 0.098,-0.614 0.111,-0.611 0.124,-0.609 0.137,-0.606 0.151,-0.602 0.164,-0.6 0.177,-0.595 0.189,-0.592 0.203,-0.587 0.216,-0.583 0.228,-0.577 0.241,-0.573 0.254,-0.567 0.265,-0.562 0.278,-0.556 0.29,-0.549 0.302,-0.543 0.314,-0.536 0.326,-0.529 0.337,-0.522 0.348,-0.514 0.36,-0.507 0.37,-0.499 0.382,-0.49 0.392,-0.482 0.402,-0.473 0.413,-0.465 0.423,-0.455 0.433,-0.446 0.442,-0.436 0.452,-0.426 0.461,-0.417 0.47,-0.406 0.479,-0.396 0.487,-0.385 0.496,-0.375 0.503,-0.363 0.512,-0.353 0.519,-0.341 0.527,-0.33 m 0,0 v -5.669 m -3.723,-13.659 -0.298,0.072 -0.295,0.085 -0.291,0.097 -0.286,0.109 -0.281,0.123 -0.276,0.134 -0.27,0.146 -0.263,0.157 -0.256,0.168 -0.248,0.18 -0.241,0.19 -0.232,0.201 -0.223,0.21 -0.214,0.219 -0.204,0.229 -0.195,0.237 -0.183,0.246 -0.173,0.253 -0.162,0.261 -0.15,0.267 -0.139,0.273 -0.127,0.279 -0.114,0.285 -0.102,0.289 -0.09,0.293 -0.077,0.297 -0.063,0.3 -0.051,0.302 -0.038,0.305 -0.024,0.305 -0.012,0.307 0.002,0.306 0.016,0.306 0.028,0.306 0.042,0.303 0.055,0.302 0.067,0.299 0.081,0.296 0.093,0.292 0.106,0.288 0.118,0.283 0.131,0.277 0.142,0.272 0.154,0.265 0.165,0.258 0.176,0.251 0.187,0.243 0.197,0.235 0.208,0.226 0.216,0.217 0.226,0.207 0.235,0.197 0.243,0.187 0.251,0.177 0.258,0.165 0.265,0.154 0.272,0.142 0.277,0.131 0.283,0.118 0.288,0.106 0.292,0.093 0.296,0.081 0.299,0.068 0.301,0.055 0.304,0.042 0.305,0.028 0.306,0.015 0.307,0.003 0.306,-0.012 0.306,-0.024 0.304,-0.038 0.303,-0.05 0.3,-0.064 0.296,-0.077 0.294,-0.089 M 2.211,-5.403 h 35.353 m -35.353,0 -0.116,0.304 M 26.256,8.645 26.25,8.98 26.23,9.316 26.197,9.65 26.15,9.983 l -0.059,0.331 -0.073,0.328 -0.085,0.325 -0.098,0.321 -0.111,0.318 -0.123,0.312 -0.136,0.308 -0.147,0.302 -0.159,0.296 -0.171,0.289 -0.182,0.282 -0.194,0.275 -0.204,0.267 -0.214,0.259 -0.224,0.25 -0.234,0.241 -0.244,0.232 -0.252,0.222 -0.261,0.212 -0.269,0.201 -0.277,0.19 -0.284,0.18 -0.291,0.168 -0.298,0.156 -0.303,0.145 -0.309,0.132 -0.314,0.12 -0.318,0.108 -0.322,0.095 -0.326,0.082 -0.329,0.069 -0.331,0.056 -0.333,0.043 -0.335,0.03 -0.336,0.017 -0.336,0.003 -0.336,-0.01 -0.335,-0.023 -0.334,-0.037 -0.332,-0.049 -0.33,-0.063 -0.328,-0.076 -0.324,-0.088 -0.32,-0.101 -0.316,-0.114 -0.312,-0.127 -0.306,-0.138 -0.3,-0.151 L 13.5,16.009 13.213,15.835 12.932,15.65 12.659,15.455 12.394,15.248 12.137,15.031 11.889,14.804 11.651,14.568 11.421,14.322 11.202,14.068 10.993,13.805 10.794,13.534 10.607,13.255 10.43,12.969 10.265,12.676 10.111,12.377 9.97,12.073 9.841,11.763 9.724,11.448 9.619,11.128 9.527,10.805 9.448,10.478 9.382,10.149 9.33,9.817 9.29,9.483 9.263,9.148 9.25,8.813 V 8.477 L 9.263,8.141 9.29,7.806 9.33,7.472 9.382,7.14 9.448,6.811 9.527,6.484 9.619,6.161 9.724,5.842 9.841,5.527 9.97,5.216 10.111,4.912 10.265,4.613 10.43,4.32 10.607,4.034 10.794,3.755 10.993,3.484 11.202,3.221 11.421,2.967 11.651,2.721 11.889,2.485 12.137,2.258 12.394,2.041 12.659,1.835 12.932,1.639 13.213,1.454 13.5,1.28 l 0.295,-0.162 0.3,-0.151 0.306,-0.138 0.312,-0.127 0.316,-0.113 0.32,-0.102 0.324,-0.088 0.328,-0.076 0.33,-0.063 0.332,-0.049 0.334,-0.037 0.335,-0.023 0.336,-0.01 0.336,0.003 0.336,0.017 0.335,0.03 0.333,0.043 0.331,0.056 0.329,0.069 0.326,0.082 0.322,0.095 0.318,0.108 0.314,0.12 0.309,0.132 0.303,0.145 0.298,0.156 0.291,0.168 0.284,0.18 0.277,0.19 0.269,0.201 0.261,0.212 0.252,0.222 0.244,0.232 0.234,0.241 0.224,0.25 0.214,0.259 0.204,0.267 0.194,0.275 0.182,0.282 0.171,0.29 0.159,0.295 0.147,0.302 0.136,0.308 0.123,0.312 0.111,0.318 0.098,0.321 0.085,0.325 0.073,0.328 0.059,0.331 0.047,0.333 0.033,0.334 0.02,0.336 0.006,0.336 m 4.16,19.424 19.836,-4.324 M 5.089,28.069 -9.185,24.958 M 2.069,47.589 V 41.92 M 40.842,2.411 40.58,2.242 40.325,2.062 40.078,1.871 39.84,1.669 39.611,1.458 39.391,1.237 39.18,1.007 38.98,0.768 38.79,0.521 38.611,0.265 38.442,0.002 l -0.156,-0.269 -0.145,-0.277 -0.133,-0.282 -0.121,-0.288 -0.108,-0.292 -0.095,-0.297 -0.083,-0.301 -0.07,-0.304 -0.057,-0.307 -0.043,-0.309 -0.03,-0.31 -0.017,-0.312 -0.003,-0.311 0.01,-0.312 0.023,-0.311 0.037,-0.31 0.05,-0.308 0.063,-0.305 M 2.095,-5.099 2.088,-4.777 2.066,-4.456 2.031,-4.136 1.981,-3.818 1.917,-3.503 1.839,-3.19 1.747,-2.882 1.642,-2.577 1.524,-2.278 1.392,-1.984 1.247,-1.697 1.09,-1.416 0.921,-1.142 0.739,-0.877 0.546,-0.619 M 2.211,-5.403 H 2.095 m 0,0 v 0.304 m -72.84,-2.236 64.54,9.413 m -71.17,8.014 67.903,14.803 M -6.205,2.078 -5.899,2.116 -5.591,2.141 -5.283,2.153 -4.974,2.152 -4.666,2.137 -4.359,2.11 -4.053,2.069 -3.749,2.016 -3.448,1.95 -3.149,1.87 -2.855,1.779 -2.564,1.674 -2.279,1.558 -1.998,1.43 -1.723,1.289 -1.455,1.137 -1.193,0.974 -0.938,0.8 -0.691,0.615 -0.452,0.42 -0.222,0.215 0,0 M 108.427,-5.739 45.696,3.41 m 4.862,20.268 64.63,-14.089 M 45.696,3.41 45.374,3.45 45.05,3.475 44.726,3.486 44.402,3.482 44.078,3.464 43.755,3.432 43.434,3.385 43.116,3.323 42.8,3.248 42.488,3.158 42.181,3.055 41.878,2.938 41.581,2.808 41.29,2.665"
         style="fill:none;stroke:#000000;stroke-width:0.70899999;stroke-linecap:round;stroke-linejoin:round;stroke-miterlimit:10;stroke-dasharray:none;stroke-opacity:1"
         id="path7717"
         inkscape:connector-curvature="0" /></g></g></svg>