<?xml version="1.0" encoding="UTF-8" standalone="no"?>
<!-- Created with Inkscape (http://www.inkscape.org/) -->

<svg
   xmlns:dc="http://purl.org/dc/elements/1.1/"
   xmlns:cc="http://creativecommons.org/ns#"
   xmlns:rdf="http://www.w3.org/1999/02/22-rdf-syntax-ns#"
   xmlns:svg="http://www.w3.org/2000/svg"
   xmlns="http://www.w3.org/2000/svg"
   xmlns:sodipodi="http://sodipodi.sourceforge.net/DTD/sodipodi-0.dtd"
   xmlns:inkscape="http://www.inkscape.org/namespaces/inkscape"
   version="1.1"
   id="svg1740"
   xml:space="preserve"
   width="2245.04"
   height="1587.4"
   viewBox="0 0 2245.04 1587.4"
   sodipodi:docname="Clock1-pg6.svg"
   inkscape:version="0.92.3 (2405546, 2018-03-11)"><metadata
     id="metadata1746"><rdf:RDF><cc:Work
         rdf:about=""><dc:format>image/svg+xml</dc:format><dc:type
           rdf:resource="http://purl.org/dc/dcmitype/StillImage" /><dc:title></dc:title></cc:Work></rdf:RDF></metadata><defs
     id="defs1744" /><sodipodi:namedview
     pagecolor="#ffffff"
     bordercolor="#666666"
     borderopacity="1"
     objecttolerance="10"
     gridtolerance="10"
     guidetolerance="10"
     inkscape:pageopacity="0"
     inkscape:pageshadow="2"
     inkscape:window-width="1920"
     inkscape:window-height="986"
     id="namedview1742"
     showgrid="false"
     inkscape:zoom="0.48066019"
     inkscape:cx="1936.2186"
     inkscape:cy="763.04328"
     inkscape:window-x="-11"
     inkscape:window-y="-11"
     inkscape:window-maximized="1"
     inkscape:current-layer="g1748" /><g
     id="g1748"
     inkscape:groupmode="layer"
     inkscape:label="Clock 1 Drawings-Iss4"
     transform="matrix(1.3333333,0,0,-1.3333333,0,1587.4)"><g
       id="g2154"
       transform="translate(91.3372,191.6822)"><path
         d="m 0,0 v 0 m 288.526,-15.714 v 0 m 776.75,917.739 v 0"
         style="fill:none;stroke:#000000;stroke-width:0.50999999;stroke-linecap:round;stroke-linejoin:round;stroke-miterlimit:10;stroke-dasharray:none;stroke-opacity:1"
         id="path2156"
         inkscape:connector-curvature="0" /></g><g
       id="g2186"
       transform="translate(993.9095,924.3958)"><path
         d="m 0,0 v 0 m 7.577,-10.164 v 0"
         style="fill:none;stroke:#000000;stroke-width:0.50999999;stroke-linecap:round;stroke-linejoin:round;stroke-miterlimit:10;stroke-dasharray:none;stroke-opacity:1"
         id="path2188"
         inkscape:connector-curvature="0" /></g><g
       id="g2194"
       transform="translate(948.4849,1021.6907)"><path
         d="m 0,0 v 0 m -2.736,11.004 v 0"
         style="fill:none;stroke:#000000;stroke-width:0.50999999;stroke-linecap:round;stroke-linejoin:round;stroke-miterlimit:10;stroke-dasharray:none;stroke-opacity:1"
         id="path2196"
         inkscape:connector-curvature="0" /></g><g
       id="g2442"
       transform="translate(1040.2328,979.6405)"><path
         d="M 0,0 10.858,-25.826 M 0,0 -10.858,-25.826 m 0,0 H 10.858 M -1.048,5.041 -11.906,30.867 M -1.048,5.041 9.81,30.867 m -21.716,0 H 9.81 M 4.043,2.52 15.96,30.867 M 4.043,2.52 15.96,-25.826 m 0,0 h 5.67 m 0,56.693 v -56.693 m -5.67,56.693 h 5.67 m 5.669,0 v -56.693 m 0,0 h 5.669 m 0,56.693 v -56.693 m -5.669,56.693 h 5.669 m -56.693,5.669 h 68.032 m 0,0 v -5.669 m -5.67,0 h 5.67 m -5.67,0 v -56.693 m 0,0 h 5.67 m 0,-5.669 v 5.669 m -68.032,-5.669 h 68.032 m -68.032,0 v 5.669 m 0,0 h 5.669 m 0,0 L -6.138,2.52 M -18.056,30.867 -6.138,2.52 m -17.587,28.347 h 5.669 m -5.669,5.669 v -5.669 m -247.908,-566.617 -9.119,15.794 m 0,0 -49.097,-28.347 m 2.834,-4.909 -2.834,4.909 m 2.834,-4.909 55.382,17.462 m 14.71,-25.479 -9.58,16.594 m -42.813,-39.232 42.813,39.232 m -39.979,-44.141 -2.834,4.909 m 2.834,-4.909 -4.956,-2.755 m 0,0 -39.672,68.715 m 6.085,3.382 -6.085,-3.382 m 8.839,-1.573 -2.754,4.955 m 51.265,22.009 -48.511,-26.964 m 48.511,26.964 -2.835,4.911 m 4.956,2.754 -4.956,-2.754 m 44.628,-65.961 -39.672,68.715 m 39.672,-68.715 -4.956,-2.754 m -34.002,58.894 -48.592,-27.009 m 2.755,-4.956 -2.755,4.956 m 51.427,22.098 -48.672,-27.054 m 48.672,27.054 -2.835,4.911 m -33.186,-55.906 52.398,16.521 m -40.507,-37.118 -11.891,20.597 m 11.891,-20.597 40.507,37.118 m -13.542,29.564 -49.559,-27.547 m 2.835,-4.91 -2.835,4.91 m 52.394,22.637 -49.559,-27.547 m 49.559,27.547 -2.835,4.91 m 493.45,489.387 4.909,-2.835 m -4.909,2.835 -28.347,-49.098 m 0,0 4.91,-2.834 m -2.835,-4.91 2.835,4.91 m -17.564,3.594 14.729,-8.504 m -14.729,8.504 2.835,4.91 m 0,0 4.909,-2.835 m 28.347,49.098 -28.347,-49.098 m 23.437,51.932 4.91,-2.834 m -2.075,7.744 -2.835,-4.91 m 2.835,4.91 14.729,-8.504 m 0,0 -2.835,-4.91 m 133.882,-135.956 2.835,-4.91 m -2.835,4.91 -49.098,-28.347 m 0,0 2.835,-4.91 m 49.098,28.347 -49.098,-28.347 m 45.503,45.911 14.174,-24.549 m 0,0 -4.91,-2.834 m -2.835,4.909 2.835,-4.909 m -2.835,4.909 -49.097,-28.346 m 0,0 2.834,-4.91 m -4.909,-2.835 4.909,2.835 m -19.083,21.714 14.174,-24.549 m -14.174,24.549 4.91,2.835 m 0,0 2.835,-4.91 m 49.097,28.346 -49.097,-28.346 m 46.263,33.256 2.834,-4.91 m 2.075,7.745 -4.909,-2.835 m 2.606,-196.532 v -5.669 m 0,0 h 56.692 m 0,5.669 v -5.669 m -56.692,5.669 h 56.692 m -56.692,-11.338 v -5.669 m 0,0 h 56.692 m 0,5.669 v -5.669 m -56.692,5.669 h 56.692 m 5.67,22.677 v -39.685 m -5.67,0 h 5.67 m -5.67,5.669 v -5.669 m -56.692,5.669 h 56.692 m -56.692,0 v -5.669 m 0,0 h -5.67 m 0,37.532 v -37.532 m 5.67,37.532 h -5.67 m 5.67,0 v -3.516 m 0,0 h 56.692 m 0,5.669 v -5.669 m 0,5.669 h 5.67 m -99.096,-174.838 49.097,-28.346 m -49.097,28.346 -2.835,-4.909 m 0,0 49.098,-28.347 m 2.834,4.91 -2.834,-4.91 m -51.933,23.437 49.098,-28.347 m -49.098,28.347 -2.834,-4.91 m 0,0 49.097,-28.346 m 2.835,4.909 -2.835,-4.909 m -51.932,23.436 49.098,-28.346 m -49.098,28.346 -2.834,-4.909 m 0,0 49.097,-28.347 m 2.835,4.91 -2.835,-4.91 m 24.752,31.534 -25.511,-44.188 m -4.91,2.835 4.91,-2.835 m -2.076,7.744 -2.834,-4.909 m -46.263,33.256 49.097,-28.347 m -49.097,28.347 -2.835,-4.91 m 0,0 -4.91,2.835 m 25.512,44.187 -25.512,-44.187 m 25.512,44.187 4.91,-2.834 m 0,0 -2.835,-4.91 m 0,0 49.098,-28.346 m 2.835,4.909 -2.835,-4.909 m 7.744,2.075 -4.909,2.834 m -715.036,176.492 -25.826,-10.858 m 25.826,10.858 -25.826,10.858 m 0,0 v -21.716 m 0,-11.819 h 56.693 m 0,5.669 v -5.669 m -28.346,17.587 28.346,-11.918 m -28.346,11.918 -28.347,-11.918 m 0,0 v -5.669 m -5.669,45.354 h 5.669 m 0,0 v -5.669 m 0,0 28.347,-11.917 m 28.346,11.917 -28.346,-11.917 m 28.346,17.586 v -5.669 m 5.669,5.669 h -5.669 m 5.669,0 v -56.692 m -5.669,0 h 5.669 m -5.669,5.669 v -5.669 m -56.693,5.669 h 56.693 m -56.693,0 v -5.669 m -5.669,0 h 5.669 m -5.669,56.692 v -56.692 m 36.536,33.535 25.826,10.858 m -25.826,-10.858 25.826,-10.858 m 0,21.716 v -21.716 m 518.253,-336.898 -15.562,49.356 m 34.962,-38.155 -19.4,-11.201 m 19.4,11.201 -34.962,38.155 m 10.532,-52.259 -4.909,-2.835 m 4.909,2.835 -17.461,55.381 m 0,0 -15.795,-9.118 m -2.834,4.909 2.834,-4.909 m 36.444,27.586 -39.278,-22.677 m 39.278,22.677 2.834,-4.909 m 0,0 -15.794,-9.119 m 39.231,-42.813 -39.231,42.813 m 44.141,-39.979 -4.91,-2.834 m 4.91,2.834 2.834,-4.91 m 0,0 -39.278,-22.677 m -2.834,4.91 2.834,-4.91 m -206.424,-35.97 v -5.669 m 5.67,5.669 h -5.67 m 5.67,56.693 v -56.693 m 0,56.693 h -5.67 m 0,5.669 v -5.669 m 56.693,5.669 h -56.693 m 56.693,0 v -5.669 m 0,0 H 20.967 m 12.568,-56.693 -12.568,56.693 m 18.237,-56.693 h -5.669 m 5.669,0 v -5.669 m -33.878,5.669 11.201,50.524 m 11.201,-50.524 -11.201,50.524 m 11.201,-50.524 H 5.326 m -5.807,0 H -6.15 m 0,56.693 v -56.693 m 18.238,56.693 H -6.15 m 5.669,-56.693 12.569,56.693 m 27.116,-62.362 h -56.693 m -171.977,61.03 -4.91,2.834 m 4.91,-2.834 39.231,42.813 m 0,0 -15.795,9.119 m 0,0 -28.346,-49.098 m 29.339,-16.939 15.562,49.356 m -34.962,-38.155 34.962,38.155 m -15.562,-49.356 -19.4,11.201 m 13.498,57.671 -4.91,2.834 m 0,0 -28.347,-49.097 m 4.91,-2.835 -4.91,2.835 m 33.257,46.263 -28.347,-49.098 m 74.723,28.835 -2.835,-4.91 m 0,0 -15.794,9.119 m -17.462,-55.382 17.462,55.382 m -12.552,-58.217 -4.91,2.835 m 2.075,-7.744 -58.917,34.015 m 2.835,4.91 -2.835,-4.91 m 7.744,2.075 -4.909,2.835 m 33.256,46.263 -28.347,-49.098 m 28.347,49.098 -4.91,2.835 m 2.835,4.909 -2.835,-4.909 m 61.752,-29.106 -58.917,34.015 m 27.736,-88.023 -2.835,-4.909 m -15.489,636.646 18.807,10.858 m -22.317,16.937 3.51,-27.795 m 5.19,68.46 4.909,2.834 m -4.909,-2.834 28.346,-49.098 m 0,0 4.91,2.835 m 0,0 2.834,-4.91 m -49.097,-28.347 -2.835,4.91 m 34.368,19.843 4.91,2.834 m -28.346,49.098 28.346,-49.098 m -57.389,32.33 18.807,10.858 m 3.51,-27.795 -22.317,16.937 m 22.317,-16.937 -3.51,27.795 m 9.178,-27.432 24.494,-18.59 m -24.494,18.59 -3.852,30.507 m 0,0 4.91,2.835 m -10.932,-71.775 4.91,2.835 m 0,0 -3.852,30.507 m -24.494,18.59 24.494,-18.59 m -29.404,15.756 4.91,2.834 m -7.745,2.076 2.835,-4.91 m -2.835,4.91 49.098,28.346 m 0,0 2.834,-4.91 m -13.609,-43.499 22.317,-16.937 m -26.624,-21.918 49.097,28.347 m -171.423,-113.18 -27.881,3.671 m -6.022,-10.197 2.86,4.895 m -7.755,-2.034 4.895,-2.861 m -4.895,2.861 22.885,39.157 m 0,0 4.662,-2.93 m -2.809,-4.925 2.809,4.925 m 15.952,-29.374 -18.761,24.449 m 18.761,-24.449 30.439,-4.008 m 0,0 2.835,4.91 m 0,0 4.941,-2.596 m -22.678,-39.278 22.678,39.278 m -22.678,-39.278 -4.909,2.834 m -46.372,33.319 30.487,-4.014 m -27.325,9.316 10.826,18.556 m 17.055,-22.227 -17.055,22.227 m 21.199,-24.684 27.881,-3.671 m -10.826,-18.555 10.826,18.555 m -27.881,3.671 17.055,-22.226 m -5.87,-10.267 2.834,4.91 m 0,0 -18.719,24.395 m 613.263,-176.292 -0.102,7.791 -0.306,7.786 -0.51,7.775 -0.713,7.76 -0.916,7.737 -1.118,7.712 -1.319,7.679 -1.52,7.642 -1.72,7.6 -1.918,7.552 -2.115,7.5 -2.311,7.441 -2.504,7.378 -2.697,7.311 -2.888,7.237 -3.075,7.159 -3.263,7.076 -3.446,6.989 -3.628,6.895 -3.807,6.799 -3.984,6.696 -4.158,6.59 -4.329,6.479 -4.497,6.363 -4.662,6.243 -4.824,6.12 -4.983,5.99 -5.137,5.859 -5.289,5.721 -5.437,5.582 -5.582,5.437 -5.722,5.289 -5.858,5.137 -5.991,4.983 -6.119,4.824 -6.243,4.662 -6.363,4.497 -6.479,4.329 -6.59,4.158 -6.696,3.984 -6.799,3.807 -6.895,3.628 -6.989,3.446 -7.076,3.263 -7.159,3.075 -7.237,2.888 -7.311,2.697 -7.378,2.504 -7.441,2.311 -7.5,2.115 -7.552,1.918 -7.6,1.72 -7.642,1.52 -7.679,1.319 -7.712,1.118 -7.738,0.916 -7.759,0.713 -7.775,0.51 -7.786,0.306 -7.791,0.102 -7.791,-0.102 -7.786,-0.306 -7.776,-0.51 -7.759,-0.713 -7.738,-0.916 -7.711,-1.118 -7.679,-1.319 -7.642,-1.52 -7.6,-1.72 -7.552,-1.918 -7.5,-2.115 -7.441,-2.311 -7.379,-2.504 -7.31,-2.697 -7.237,-2.888 -7.159,-3.075 -7.077,-3.263 -6.988,-3.446 -6.896,-3.628 -6.798,-3.807 -6.696,-3.984 -6.59,-4.158 -6.479,-4.329 -6.363,-4.497 -6.244,-4.662 -6.119,-4.824 -5.99,-4.983 -5.859,-5.137 -5.721,-5.289 -5.582,-5.437 -5.437,-5.582 -5.289,-5.721 -5.138,-5.859 -4.982,-5.99 -4.824,-6.12 -4.662,-6.243 -4.497,-6.363 -4.329,-6.479 -4.158,-6.59 -3.984,-6.696 -3.807,-6.799 -3.628,-6.895 -3.447,-6.989 -3.262,-7.076 -3.076,-7.159 -2.887,-7.237 -2.697,-7.311 -2.504,-7.378 -2.311,-7.441 -2.115,-7.5 -1.918,-7.552 -1.72,-7.6 -1.52,-7.642 -1.319,-7.679 -1.119,-7.712 -0.915,-7.737 -0.713,-7.76 -0.51,-7.775 -0.306,-7.786 -0.102,-7.791 0.102,-7.791 0.306,-7.786 0.51,-7.775 0.713,-7.76 0.915,-7.738 1.119,-7.711 1.319,-7.679 1.52,-7.642 1.72,-7.6 1.918,-7.552 2.115,-7.5 2.311,-7.441 2.504,-7.379 2.697,-7.31 2.887,-7.237 3.076,-7.159 3.262,-7.076 3.447,-6.989 3.628,-6.896 3.807,-6.798 3.984,-6.696 4.158,-6.59 4.329,-6.479 4.497,-6.363 4.662,-6.243 4.824,-6.12 4.982,-5.99 5.138,-5.859 5.289,-5.721 5.437,-5.582 5.582,-5.437 5.721,-5.289 5.859,-5.138 5.99,-4.982 6.119,-4.824 6.244,-4.662 6.363,-4.497 6.479,-4.329 6.59,-4.158 6.696,-3.984 6.798,-3.807 6.896,-3.628 6.988,-3.447 7.077,-3.262 7.159,-3.076 7.237,-2.887 7.31,-2.697 7.379,-2.504 7.441,-2.311 7.5,-2.115 7.552,-1.918 7.6,-1.72 7.642,-1.52 7.679,-1.319 7.711,-1.119 7.738,-0.915 7.759,-0.713 7.776,-0.51 7.786,-0.306 7.791,-0.102 7.791,0.102 7.786,0.306 7.775,0.51 7.759,0.713 7.738,0.915 7.712,1.119 7.679,1.319 7.642,1.52 7.6,1.72 7.552,1.918 7.5,2.115 7.441,2.311 7.378,2.504 7.311,2.697 7.237,2.887 7.159,3.076 7.076,3.262 6.989,3.447 6.895,3.628 6.799,3.807 6.696,3.984 6.59,4.158 6.479,4.329 6.363,4.497 6.243,4.662 6.119,4.824 5.991,4.982 5.858,5.138 5.722,5.289 5.582,5.437 5.437,5.582 5.289,5.721 5.137,5.859 4.983,5.99 4.824,6.12 4.662,6.243 4.497,6.363 4.329,6.479 4.158,6.59 3.984,6.696 3.807,6.798 3.628,6.896 3.446,6.989 3.263,7.076 3.075,7.159 2.888,7.237 2.697,7.31 2.504,7.379 2.311,7.441 2.115,7.5 1.918,7.552 1.72,7.6 1.52,7.642 1.319,7.679 1.118,7.711 0.916,7.738 0.713,7.76 0.51,7.775 0.306,7.786 0.102,7.791 m 11.338,0 -0.106,8.088 -0.317,8.082 -0.529,8.072 -0.74,8.055 -0.951,8.032 -1.161,8.005 -1.369,7.972 -1.579,7.934 -1.785,7.889 -1.991,7.84 -2.195,7.785 -2.399,7.725 -2.6,7.659 -2.8,7.589 -2.997,7.513 -3.193,7.432 -3.387,7.346 -3.577,7.254 -3.766,7.159 -3.953,7.057 -4.135,6.952 -4.317,6.841 -4.494,6.725 -4.668,6.606 -4.84,6.481 -5.007,6.352 -5.173,6.219 -5.333,6.082 -5.491,5.939 -5.644,5.794 -5.794,5.645 -5.94,5.49 -6.081,5.333 -6.219,5.173 -6.352,5.007 -6.481,4.84 -6.606,4.668 -6.726,4.494 -6.84,4.317 -6.952,4.135 -7.057,3.953 -7.159,3.766 -7.254,3.578 -7.346,3.386 -7.432,3.193 -7.513,2.997 -7.589,2.8 -7.659,2.6 -7.725,2.399 -7.785,2.195 -7.84,1.991 -7.889,1.785 -7.934,1.578 -7.972,1.37 -8.005,1.161 -8.032,0.951 -8.055,0.74 -8.072,0.529 -8.082,0.317 -8.088,0.106 -8.088,-0.106 -8.083,-0.317 -8.071,-0.529 -8.055,-0.74 -8.033,-0.951 -8.005,-1.161 -7.972,-1.37 -7.933,-1.578 -7.889,-1.785 -7.84,-1.991 -7.785,-2.195 -7.725,-2.399 -7.66,-2.6 -7.588,-2.8 -7.513,-2.997 -7.432,-3.193 -7.346,-3.386 -7.254,-3.578 -7.159,-3.766 -7.057,-3.953 -6.952,-4.135 -6.841,-4.317 -6.725,-4.494 -6.606,-4.668 -6.481,-4.84 -6.352,-5.007 -6.219,-5.173 -6.082,-5.333 -5.939,-5.49 -5.794,-5.645 -5.645,-5.794 -5.49,-5.939 -5.334,-6.082 -5.172,-6.219 -5.008,-6.352 -4.839,-6.481 -4.669,-6.606 -4.493,-6.725 -4.317,-6.841 -4.135,-6.952 -3.953,-7.057 -3.766,-7.159 -3.578,-7.254 -3.386,-7.346 -3.193,-7.432 -2.997,-7.513 -2.8,-7.589 -2.6,-7.659 -2.399,-7.725 -2.195,-7.785 -1.991,-7.84 -1.786,-7.889 -1.578,-7.934 -1.369,-7.972 -1.161,-8.005 -0.951,-8.032 -0.74,-8.055 -0.529,-8.072 -0.318,-8.082 -0.106,-8.088 0.106,-8.088 0.318,-8.083 0.529,-8.071 0.74,-8.055 0.951,-8.033 1.161,-8.005 1.369,-7.972 1.578,-7.933 1.786,-7.889 1.991,-7.84 2.195,-7.785 2.399,-7.725 2.6,-7.66 2.8,-7.588 2.997,-7.513 3.193,-7.432 3.386,-7.346 3.578,-7.254 3.766,-7.159 3.953,-7.057 4.135,-6.952 4.317,-6.841 4.493,-6.725 4.669,-6.606 4.839,-6.481 5.008,-6.352 5.172,-6.219 5.334,-6.082 5.49,-5.939 5.645,-5.794 5.794,-5.645 5.939,-5.49 6.082,-5.334 6.219,-5.172 6.352,-5.008 6.481,-4.839 6.606,-4.669 6.725,-4.493 6.841,-4.317 6.952,-4.135 7.057,-3.953 7.159,-3.766 7.254,-3.578 7.346,-3.386 7.432,-3.193 7.513,-2.997 7.588,-2.8 7.66,-2.6 7.725,-2.399 7.785,-2.195 7.84,-1.991 7.889,-1.786 7.933,-1.578 7.972,-1.369 8.005,-1.161 8.033,-0.951 8.055,-0.74 8.071,-0.529 8.083,-0.318 8.088,-0.105 8.088,0.105 8.082,0.318 8.072,0.529 8.055,0.74 8.032,0.951 8.005,1.161 7.972,1.369 7.934,1.578 7.889,1.786 7.84,1.991 7.785,2.195 7.725,2.399 7.659,2.6 7.589,2.8 7.513,2.997 7.432,3.193 7.346,3.386 7.254,3.578 7.159,3.766 7.057,3.953 6.952,4.135 6.84,4.317 6.726,4.493 6.606,4.669 6.481,4.839 6.352,5.008 6.219,5.172 6.081,5.334 5.94,5.49 5.794,5.645 5.644,5.794 5.491,5.939 5.333,6.082 5.173,6.219 5.007,6.352 4.84,6.481 4.668,6.606 4.494,6.725 4.317,6.841 4.135,6.952 3.953,7.057 3.766,7.159 3.577,7.254 3.387,7.346 3.193,7.432 2.997,7.513 2.8,7.588 2.6,7.66 2.399,7.725 2.195,7.785 1.991,7.84 1.785,7.889 1.579,7.933 1.369,7.972 1.161,8.005 0.951,8.033 0.74,8.055 0.529,8.071 0.317,8.083 0.106,8.088 m 116.221,0 -0.146,11.13 -0.437,11.123 -0.728,11.108 -1.019,11.084 -1.308,11.054 -1.597,11.016 -1.885,10.971 -2.172,10.917 -2.456,10.857 -2.74,10.789 -3.022,10.713 -3.301,10.631 -3.578,10.541 -3.853,10.443 -4.124,10.339 -4.394,10.227 -4.661,10.109 -4.923,9.983 -5.183,9.851 -5.439,9.712 -5.691,9.567 -5.94,9.414 -6.184,9.255 -6.425,9.09 -6.66,8.919 -6.891,8.742 -7.118,8.558 -7.339,8.369 -7.556,8.174 -7.768,7.974 -7.973,7.767 -8.174,7.556 -8.369,7.339 -8.558,7.118 -8.742,6.891 -8.919,6.66 -9.09,6.425 -9.255,6.184 -9.414,5.94 -9.567,5.691 -9.712,5.439 -9.851,5.183 -9.983,4.923 -10.109,4.661 -10.227,4.394 -10.339,4.124 -10.443,3.853 -10.541,3.578 -10.631,3.301 -10.713,3.022 -10.789,2.74 -10.857,2.456 -10.917,2.172 -10.971,1.885 -11.016,1.597 -11.054,1.309 -11.084,1.018 -11.108,0.728 -11.123,0.437 -11.13,0.146 -11.13,-0.146 -11.123,-0.437 -11.108,-0.728 -11.084,-1.018 -11.054,-1.309 -11.017,-1.597 -10.97,-1.885 -10.917,-2.172 -10.857,-2.456 -10.789,-2.74 -10.713,-3.022 -10.631,-3.301 -10.541,-3.578 -10.443,-3.853 -10.339,-4.124 -10.227,-4.394 -10.109,-4.661 -9.983,-4.923 -9.852,-5.183 -9.712,-5.439 -9.566,-5.691 -9.414,-5.94 -9.255,-6.184 -9.091,-6.425 -8.919,-6.66 -8.741,-6.891 -8.558,-7.118 -8.369,-7.339 -8.174,-7.556 -7.974,-7.767 -7.767,-7.974 -7.556,-8.174 -7.339,-8.369 -7.118,-8.558 -6.892,-8.742 -6.66,-8.919 -6.424,-9.09 -6.184,-9.255 -5.94,-9.414 -5.691,-9.567 -5.439,-9.712 -5.183,-9.851 -4.924,-9.983 -4.66,-10.109 -4.394,-10.227 -4.125,-10.339 -3.852,-10.443 -3.578,-10.541 -3.301,-10.631 -3.022,-10.713 -2.74,-10.789 -2.456,-10.857 -2.172,-10.917 -1.885,-10.971 -1.597,-11.016 -1.309,-11.054 -1.018,-11.084 -0.728,-11.108 -0.437,-11.123 -0.146,-11.13 0.146,-11.13 0.437,-11.123 0.728,-11.108 1.018,-11.084 1.309,-11.054 1.597,-11.016 1.885,-10.971 2.172,-10.917 2.456,-10.857 2.74,-10.789 3.022,-10.713 3.301,-10.631 3.578,-10.541 3.852,-10.443 4.125,-10.339 4.394,-10.227 4.66,-10.109 4.924,-9.983 5.183,-9.851 5.439,-9.712 5.691,-9.567 5.94,-9.414 6.184,-9.255 6.424,-9.09 6.66,-8.92 6.892,-8.741 7.118,-8.558 7.339,-8.369 7.556,-8.174 7.767,-7.974 7.974,-7.767 8.174,-7.556 8.369,-7.339 8.558,-7.118 8.741,-6.891 8.919,-6.661 9.091,-6.424 9.255,-6.184 9.414,-5.94 9.566,-5.691 9.712,-5.439 9.852,-5.183 9.983,-4.923 10.109,-4.661 10.227,-4.394 10.339,-4.125 10.443,-3.852 10.541,-3.578 10.631,-3.301 10.713,-3.022 10.789,-2.74 10.857,-2.456 10.917,-2.172 10.97,-1.885 11.017,-1.597 11.054,-1.309 11.084,-1.018 11.108,-0.728 11.123,-0.437 11.13,-0.146 11.13,0.146 11.123,0.437 11.108,0.728 11.084,1.018 11.054,1.309 11.016,1.597 10.971,1.885 10.917,2.172 10.857,2.456 10.789,2.74 10.713,3.022 10.631,3.301 10.541,3.578 10.443,3.852 10.339,4.125 10.227,4.394 10.109,4.661 9.983,4.923 9.851,5.183 9.712,5.439 9.567,5.691 9.414,5.94 9.255,6.184 9.09,6.424 8.919,6.661 8.742,6.891 8.558,7.118 8.369,7.339 8.174,7.556 7.973,7.767 7.768,7.974 7.556,8.174 7.339,8.369 7.118,8.558 6.891,8.741 6.66,8.92 6.425,9.09 6.184,9.255 5.94,9.414 5.691,9.567 5.439,9.712 5.183,9.851 4.923,9.983 4.661,10.109 4.394,10.227 4.124,10.339 3.853,10.443 3.578,10.541 3.301,10.631 3.022,10.713 2.74,10.789 2.456,10.857 2.172,10.917 1.885,10.971 1.597,11.016 1.308,11.054 1.019,11.084 0.728,11.108 0.437,11.123 0.146,11.13 m -11.339,0 -0.142,10.834 -0.425,10.826 -0.709,10.811 -0.991,10.789 -1.273,10.759 -1.555,10.723 -1.835,10.678 -2.114,10.626 -2.391,10.567 -2.667,10.501 -2.941,10.428 -3.212,10.347 -3.483,10.26 -3.75,10.165 -4.015,10.063 -4.277,9.954 -4.536,9.839 -4.792,9.718 -5.044,9.588 -5.294,9.453 -5.54,9.311 -5.781,9.163 -6.02,9.009 -6.253,8.848 -6.482,8.681 -6.708,8.508 -6.928,8.33 -7.143,8.146 -7.355,7.956 -7.56,7.761 -7.761,7.56 -7.956,7.355 -8.146,7.143 -8.33,6.928 -8.508,6.708 -8.681,6.482 -8.848,6.253 -9.009,6.02 -9.163,5.781 -9.311,5.54 -9.453,5.294 -9.588,5.044 -9.718,4.792 -9.839,4.536 -9.954,4.277 -10.064,4.015 -10.164,3.75 -10.26,3.483 -10.347,3.212 -10.428,2.941 -10.501,2.667 -10.567,2.391 -10.626,2.114 -10.678,1.835 -10.723,1.555 -10.759,1.273 -10.789,0.991 -10.811,0.709 -10.827,0.425 -10.833,0.142 -10.834,-0.142 -10.826,-0.425 -10.811,-0.709 -10.789,-0.991 -10.759,-1.273 -10.723,-1.555 -10.678,-1.835 -10.626,-2.114 -10.567,-2.391 -10.501,-2.667 -10.428,-2.941 -10.347,-3.212 -10.26,-3.483 -10.165,-3.75 -10.063,-4.015 -9.954,-4.277 -9.84,-4.536 -9.717,-4.792 -9.588,-5.044 -9.453,-5.294 -9.311,-5.54 -9.163,-5.781 -9.009,-6.02 -8.848,-6.253 -8.681,-6.482 -8.509,-6.708 -8.33,-6.928 -8.145,-7.143 -7.956,-7.355 -7.761,-7.56 -7.56,-7.761 -7.355,-7.956 -7.143,-8.146 -6.928,-8.33 -6.708,-8.508 -6.483,-8.681 -6.253,-8.848 -6.019,-9.009 -5.781,-9.163 -5.54,-9.311 -5.294,-9.453 -5.045,-9.588 -4.792,-9.718 -4.535,-9.839 -4.277,-9.954 -4.015,-10.063 -3.75,-10.165 -3.483,-10.26 -3.213,-10.347 -2.94,-10.428 -2.667,-10.501 -2.392,-10.567 -2.113,-10.626 -1.835,-10.678 -1.555,-10.723 -1.273,-10.759 -0.992,-10.789 -0.708,-10.811 -0.426,-10.826 -0.141,-10.834 0.141,-10.834 0.426,-10.826 0.708,-10.811 0.992,-10.789 1.273,-10.759 1.555,-10.723 1.835,-10.678 2.113,-10.626 2.392,-10.567 2.667,-10.501 2.94,-10.428 3.213,-10.347 3.483,-10.26 3.75,-10.165 4.015,-10.063 4.277,-9.954 4.535,-9.84 4.792,-9.717 5.045,-9.588 5.294,-9.453 5.54,-9.311 5.781,-9.163 6.019,-9.009 6.253,-8.848 6.483,-8.681 6.708,-8.508 6.928,-8.33 7.143,-8.146 7.355,-7.956 7.56,-7.761 7.761,-7.56 7.956,-7.355 8.145,-7.143 8.33,-6.928 8.509,-6.708 8.681,-6.482 8.848,-6.254 9.009,-6.019 9.163,-5.781 9.311,-5.54 9.453,-5.294 9.588,-5.044 9.717,-4.792 9.84,-4.536 9.954,-4.277 10.063,-4.015 10.165,-3.75 10.26,-3.483 10.347,-3.213 10.428,-2.94 10.501,-2.667 10.567,-2.392 10.626,-2.113 10.678,-1.835 10.723,-1.555 10.759,-1.273 10.789,-0.992 10.811,-0.708 10.826,-0.425 10.834,-0.142 10.833,0.142 10.827,0.425 10.811,0.708 10.789,0.992 10.759,1.273 10.723,1.555 10.678,1.835 10.626,2.113 10.567,2.392 10.501,2.667 10.428,2.94 10.347,3.213 10.26,3.483 10.164,3.75 10.064,4.015 9.954,4.277 9.839,4.536 9.718,4.792 9.588,5.044 9.453,5.294 9.311,5.54 9.163,5.781 9.009,6.019 8.848,6.254 8.681,6.482 8.508,6.708 8.33,6.928 8.146,7.143 7.956,7.355 7.761,7.56 7.56,7.761 7.355,7.956 7.143,8.146 6.928,8.33 6.708,8.508 6.482,8.681 6.253,8.848 6.02,9.009 5.781,9.163 5.54,9.311 5.294,9.453 5.044,9.588 4.792,9.717 4.536,9.84 4.277,9.954 4.015,10.063 3.75,10.165 3.483,10.26 3.212,10.347 2.941,10.428 2.667,10.501 2.391,10.567 2.114,10.626 1.835,10.678 1.555,10.723 1.273,10.759 0.991,10.789 0.709,10.811 0.425,10.826 0.142,10.834"
         style="fill:none;stroke:#000000;stroke-width:0.70899999;stroke-linecap:round;stroke-linejoin:round;stroke-miterlimit:10;stroke-dasharray:none;stroke-opacity:1"
         id="path2444"
         inkscape:connector-curvature="0" /></g></g></svg>