<?xml version="1.0" encoding="UTF-8" standalone="no"?>
<!-- Created with Inkscape (http://www.inkscape.org/) -->

<svg
   xmlns:dc="http://purl.org/dc/elements/1.1/"
   xmlns:cc="http://creativecommons.org/ns#"
   xmlns:rdf="http://www.w3.org/1999/02/22-rdf-syntax-ns#"
   xmlns:svg="http://www.w3.org/2000/svg"
   xmlns="http://www.w3.org/2000/svg"
   xmlns:sodipodi="http://sodipodi.sourceforge.net/DTD/sodipodi-0.dtd"
   xmlns:inkscape="http://www.inkscape.org/namespaces/inkscape"
   version="1.1"
   id="svg10"
   xml:space="preserve"
   width="2245.04"
   height="1587.4"
   viewBox="0 0 2245.04 1587.4"
   sodipodi:docname="Clock1-pg9.svg"
   inkscape:version="0.92.3 (2405546, 2018-03-11)"><metadata
     id="metadata16"><rdf:RDF><cc:Work
         rdf:about=""><dc:format>image/svg+xml</dc:format><dc:type
           rdf:resource="http://purl.org/dc/dcmitype/StillImage" /><dc:title></dc:title></cc:Work></rdf:RDF></metadata><defs
     id="defs14" /><sodipodi:namedview
     pagecolor="#ffffff"
     bordercolor="#666666"
     borderopacity="1"
     objecttolerance="10"
     gridtolerance="10"
     guidetolerance="10"
     inkscape:pageopacity="0"
     inkscape:pageshadow="2"
     inkscape:window-width="1920"
     inkscape:window-height="986"
     id="namedview12"
     showgrid="false"
     inkscape:zoom="1.3595123"
     inkscape:cx="463.45726"
     inkscape:cy="1300.7147"
     inkscape:window-x="-11"
     inkscape:window-y="-11"
     inkscape:window-maximized="1"
     inkscape:current-layer="g18" /><g
     id="g18"
     inkscape:groupmode="layer"
     inkscape:label="Clock 1 Drawings-Iss4"
     transform="matrix(1.3333333,0,0,-1.3333333,0,1587.4)"><g
       id="g762"
       transform="translate(124.5435,844.4711)"><path
         d="m 0,0 7.099,211.328 m 42.495,0 -0.026,0.558 -0.04,0.557 -0.056,0.556 -0.07,0.554 -0.084,0.552 -0.099,0.55 -0.114,0.547 -0.127,0.544 -0.142,0.54 -0.156,0.537 -0.171,0.532 -0.184,0.527 -0.198,0.523 -0.211,0.517 -0.225,0.511 -0.238,0.505 -0.252,0.499 -0.265,0.492 -0.277,0.485 -0.29,0.477 -0.303,0.47 -0.314,0.462 -0.327,0.453 -0.339,0.444 -0.35,0.435 -0.361,0.426 -0.373,0.416 -0.383,0.407 -0.394,0.396 -0.404,0.386 -0.414,0.375 -0.424,0.364 -0.433,0.352 -0.443,0.341 -0.451,0.33 -0.46,0.317 -0.467,0.306 -0.476,0.292 -0.483,0.281 -0.491,0.267 -0.497,0.255 -0.504,0.241 -0.51,0.228 -0.516,0.214 -0.521,0.201 -0.526,0.187 -0.531,0.174 -0.536,0.159 -0.539,0.145 -0.543,0.131 -0.547,0.117 -0.549,0.102 -0.552,0.087 -0.553,0.074 -0.556,0.058 -0.557,0.044 -0.558,0.03 -0.558,0.014 h -0.559 l -0.558,-0.014 -0.558,-0.03 -0.557,-0.044 -0.556,-0.058 -0.553,-0.074 -0.552,-0.087 -0.549,-0.102 -0.547,-0.117 -0.543,-0.131 -0.539,-0.145 -0.536,-0.159 -0.531,-0.174 -0.526,-0.187 -0.521,-0.201 -0.516,-0.214 -0.51,-0.228 -0.504,-0.241 -0.497,-0.255 -0.491,-0.267 -0.483,-0.281 -0.476,-0.292 -0.468,-0.306 -0.459,-0.317 -0.451,-0.33 -0.443,-0.341 -0.433,-0.352 -0.424,-0.364 -0.414,-0.375 -0.404,-0.386 -0.394,-0.396 -0.383,-0.407 -0.373,-0.416 -0.361,-0.426 -0.35,-0.435 -0.339,-0.444 -0.327,-0.453 -0.314,-0.462 -0.303,-0.47 -0.29,-0.477 -0.277,-0.485 -0.265,-0.492 -0.252,-0.499 -0.238,-0.505 -0.225,-0.511 -0.212,-0.517 -0.197,-0.523 -0.184,-0.527 -0.171,-0.532 -0.156,-0.537 -0.142,-0.54 -0.127,-0.544 -0.114,-0.547 -0.099,-0.55 -0.084,-0.552 -0.07,-0.554 -0.056,-0.556 -0.04,-0.557 -0.026,-0.558 M 56.693,0 49.594,211.328 M 56.693,0 v -28.346 m 0,0 H 45.354 m -8.504,8.503 8.504,-8.503 m -8.504,17.007 v -8.504 m 0,8.504 0.342,0.265 0.333,0.274 0.325,0.285 0.316,0.294 0.306,0.304 0.298,0.313 0.287,0.322 0.278,0.331 0.268,0.338 0.257,0.347 0.246,0.355 0.236,0.362 0.224,0.369 0.213,0.375 0.202,0.382 0.19,0.388 0.177,0.393 0.166,0.399 0.154,0.403 0.141,0.408 0.129,0.413 0.116,0.415 0.103,0.42 0.091,0.422 0.078,0.424 0.064,0.427 0.052,0.429 0.039,0.43 0.025,0.431 0.012,0.432 V 0.242 L 42.504,0.674 42.477,1.105 42.436,1.535 42.383,1.963 42.317,2.39 42.237,2.814 42.145,3.236 42.04,3.655 41.923,4.07 41.792,4.482 41.65,4.889 41.495,5.292 41.327,5.69 41.148,6.083 40.957,6.47 40.754,6.851 40.539,7.226 40.313,7.594 40.077,7.955 39.829,8.309 39.57,8.655 l -0.268,0.338 -0.279,0.329 -0.289,0.321 -0.299,0.312 -0.308,0.303 -0.317,0.293 -0.325,0.283 -0.335,0.273 -0.342,0.263 -0.35,0.253 -0.358,0.242 -0.365,0.23 -0.372,0.22 -0.378,0.208 -0.385,0.196 -0.39,0.185 -0.396,0.172 -0.401,0.161 -0.405,0.148 -0.41,0.136 -0.414,0.123 -0.417,0.11 -0.421,0.098 -0.423,0.085 -0.426,0.072 -0.428,0.059 -0.429,0.046 -0.431,0.033 -0.431,0.02 -0.432,0.006 -0.431,-0.006 -0.432,-0.02 -0.43,-0.033 -0.429,-0.046 -0.428,-0.059 -0.426,-0.072 -0.423,-0.085 -0.421,-0.098 -0.417,-0.11 -0.414,-0.123 -0.41,-0.136 -0.405,-0.148 -0.401,-0.161 -0.396,-0.172 -0.39,-0.185 -0.385,-0.196 -0.378,-0.208 -0.372,-0.22 -0.365,-0.23 L 20.235,11.623 19.885,11.37 19.543,11.107 19.208,10.834 18.883,10.551 18.566,10.258 18.258,9.955 17.959,9.643 17.67,9.322 17.391,8.993 17.122,8.655 16.864,8.309 16.616,7.955 16.379,7.594 16.154,7.226 15.939,6.851 15.736,6.47 15.545,6.083 15.366,5.69 15.198,5.292 15.043,4.889 14.901,4.482 14.77,4.07 14.653,3.655 14.548,3.236 14.455,2.814 14.376,2.39 14.31,1.963 14.257,1.535 14.216,1.105 14.189,0.674 14.175,0.242 v -0.431 l 0.012,-0.432 0.025,-0.431 0.039,-0.43 0.052,-0.429 0.064,-0.427 0.078,-0.424 0.091,-0.422 0.103,-0.42 0.116,-0.415 0.129,-0.413 0.141,-0.408 0.154,-0.403 0.165,-0.399 0.178,-0.393 0.19,-0.388 0.202,-0.382 0.213,-0.375 0.224,-0.369 0.236,-0.362 0.246,-0.355 0.257,-0.347 0.268,-0.338 0.277,-0.331 0.288,-0.322 0.298,-0.313 0.306,-0.304 0.316,-0.294 0.325,-0.285 0.333,-0.274 0.342,-0.265 m 0,0 v -8.504 m 0,0 -8.504,-8.503 m 0,0 H 0 M 0,0 v -28.346 m 28.346,230.456 0.334,0.007 0.334,0.019 0.332,0.033 0.331,0.046 0.329,0.059 0.326,0.071 0.323,0.085 0.319,0.096 0.316,0.11 0.311,0.122 0.306,0.133 0.3,0.146 0.295,0.158 0.288,0.168 0.281,0.18 0.274,0.191 0.266,0.202 0.258,0.212 0.25,0.222 0.241,0.231 0.231,0.241 0.222,0.249 0.212,0.258 0.201,0.267 0.191,0.274 0.18,0.281 0.169,0.288 0.158,0.294 0.145,0.301 0.134,0.306 0.122,0.311 0.109,0.315 0.097,0.32 0.084,0.323 0.072,0.326 0.059,0.329 0.045,0.331 0.033,0.332 0.02,0.333 0.006,0.334 -0.006,0.334 -0.02,0.333 -0.033,0.333 -0.045,0.331 -0.059,0.328 -0.072,0.326 -0.084,0.324 -0.097,0.319 -0.109,0.316 -0.122,0.311 -0.134,0.305 -0.145,0.301 -0.158,0.294 -0.169,0.288 -0.18,0.282 -0.191,0.274 -0.201,0.266 -0.212,0.258 -0.222,0.25 -0.231,0.24 -0.241,0.232 -0.25,0.222 -0.258,0.211 -0.266,0.202 -0.274,0.191 -0.281,0.18 -0.288,0.169 -0.295,0.157 -0.3,0.146 -0.306,0.134 -0.311,0.122 -0.316,0.109 -0.319,0.097 -0.323,0.084 -0.326,0.072 -0.329,0.058 -0.331,0.046 -0.332,0.033 -0.334,0.02 -0.334,0.006 -0.333,-0.006 -0.334,-0.02 -0.332,-0.033 -0.331,-0.046 -0.329,-0.058 -0.326,-0.072 -0.323,-0.084 -0.319,-0.097 -0.316,-0.109 -0.311,-0.122 -0.306,-0.134 -0.3,-0.146 -0.295,-0.157 -0.288,-0.169 -0.281,-0.18 -0.274,-0.191 -0.266,-0.202 -0.258,-0.211 -0.25,-0.222 -0.241,-0.232 -0.231,-0.24 -0.222,-0.25 -0.212,-0.258 -0.201,-0.266 -0.191,-0.274 -0.18,-0.282 -0.169,-0.288 -0.158,-0.294 -0.145,-0.301 -0.134,-0.305 -0.122,-0.311 -0.109,-0.316 -0.097,-0.319 -0.085,-0.324 -0.071,-0.326 -0.059,-0.328 -0.046,-0.331 -0.032,-0.333 -0.02,-0.333 -0.006,-0.334 0.006,-0.334 0.02,-0.333 0.032,-0.332 0.046,-0.331 0.059,-0.329 0.071,-0.326 0.085,-0.323 0.097,-0.32 0.109,-0.315 0.122,-0.311 0.134,-0.306 0.145,-0.301 0.158,-0.294 0.169,-0.288 0.18,-0.281 0.191,-0.274 0.201,-0.267 0.212,-0.258 0.222,-0.249 0.231,-0.241 0.241,-0.231 0.25,-0.222 0.258,-0.212 0.266,-0.202 0.274,-0.191 0.281,-0.18 0.288,-0.168 0.295,-0.158 0.3,-0.146 0.306,-0.133 0.311,-0.122 0.316,-0.11 0.319,-0.096 0.323,-0.085 0.326,-0.071 0.329,-0.059 0.331,-0.046 0.332,-0.033 0.334,-0.019 0.333,-0.007"
         style="fill:none;stroke:#000000;stroke-width:0.70899999;stroke-linecap:round;stroke-linejoin:round;stroke-miterlimit:10;stroke-dasharray:none;stroke-opacity:1"
         id="path764"
         inkscape:connector-curvature="0" /></g><g
       id="g766"
       transform="translate(302.1778,1076.3451)"><path
         d="m 0,0 h -24.425 m 64.63,-231.874 v -28.346 m -56.126,0 h 56.126 m -57.052,28.346 0.926,-28.346 m -0.926,28.346 h 38.142 m 18.91,0 H 21.295 M -23.753,-20.546 H 0.671 M 7.13,-218.164 0.671,-20.546 m 6.459,-197.618 0.02,-0.435 0.035,-0.435 0.047,-0.433 0.061,-0.432 0.075,-0.429 0.087,-0.428 0.101,-0.424 0.113,-0.421 0.127,-0.417 0.139,-0.413 0.152,-0.409 0.164,-0.404 0.177,-0.398 0.188,-0.393 0.201,-0.387 0.213,-0.381 0.224,-0.374 0.236,-0.367 0.247,-0.359 0.257,-0.352 0.269,-0.343 0.279,-0.335 0.289,-0.327 0.299,-0.317 0.308,-0.308 0.318,-0.298 0.327,-0.289 0.336,-0.278 0.344,-0.268 0.352,-0.257 0.36,-0.246 0.367,-0.235 0.374,-0.224 0.381,-0.212 0.388,-0.2 0.393,-0.188 0.399,-0.176 0.404,-0.163 0.409,-0.151 0.414,-0.139 0.417,-0.125 0.421,-0.113 0.425,-0.1 0.427,-0.086 0.43,-0.074 0.432,-0.06 0.433,-0.047 0.435,-0.033 0.435,-0.02 0.436,-0.007 m -38.142,0 -6.906,211.328 m 24.424,0 -0.018,0.558 -0.018,0.557 -0.018,0.556 -0.018,0.554 -0.018,0.552 -0.018,0.55 -0.018,0.547 -0.018,0.544 -0.018,0.54 -0.017,0.537 -0.018,0.532 -0.017,0.527 -0.017,0.523 -0.017,0.517 -0.016,0.511 -0.017,0.505 -0.016,0.499 -0.016,0.492 -0.016,0.485 -0.016,0.477 -0.015,0.47 -0.015,0.461 -0.015,0.453 -0.015,0.445 -0.014,0.435 -0.014,0.426 -0.013,0.416 -0.014,0.407 -0.012,0.396 -0.013,0.386 -0.012,0.375 -0.012,0.364 -0.012,0.352 -0.011,0.341 -0.011,0.33 -0.01,0.317 -0.01,0.306 -0.01,0.292 L 0.089,-2.73 0.08,-2.463 0.072,-2.208 0.064,-1.967 0.057,-1.739 0.05,-1.525 0.043,-1.324 0.037,-1.137 0.031,-0.963 0.026,-0.804 0.022,-0.659 0.017,-0.528 0.013,-0.411 0.01,-0.309 0.007,-0.222 0.005,-0.148 0.003,-0.09 0.001,-0.046 v 0.03 L 0,-0.002 V 0 m -23.753,-20.546 -0.019,0.558 -0.018,0.557 -0.018,0.556 -0.018,0.554 -0.018,0.552 -0.018,0.55 -0.018,0.547 -0.018,0.544 -0.017,0.54 -0.018,0.537 -0.017,0.532 -0.017,0.527 -0.018,0.523 -0.016,0.517 -0.017,0.511 -0.017,0.505 -0.016,0.499 -0.016,0.492 -0.016,0.485 -0.016,0.477 -0.015,0.47 -0.015,0.461 -0.015,0.453 -0.014,0.445 -0.014,0.435 -0.014,0.426 -0.014,0.416 -0.013,0.407 -0.013,0.396 -0.013,0.386 -0.012,0.375 -0.012,0.364 -0.012,0.352 -0.011,0.341 -0.01,0.33 -0.011,0.317 -0.01,0.306 -0.009,0.292 -0.01,0.281 -0.008,0.267 -0.009,0.255 -0.007,0.241 -0.008,0.228 -0.007,0.214 -0.006,0.201 -0.007,0.187 -0.005,0.174 -0.005,0.159 -0.005,0.145 -0.004,0.131 -0.004,0.117 -0.004,0.102 -0.003,0.087 -0.002,0.074 -0.002,0.058 -10e-4,0.044 -0.001,0.03 -0.001,0.014 V 0"
         style="fill:none;stroke:#000000;stroke-width:0.70899999;stroke-linecap:round;stroke-linejoin:round;stroke-miterlimit:10;stroke-dasharray:none;stroke-opacity:1"
         id="path768"
         inkscape:connector-curvature="0" /></g></g></svg>