  0
SECTION
  2
HEADER
  9
$ACADVER
  1
AC1009
  9
$EXTMIN
 10
0.0
 20
0.0
 30
0.0
  9
$EXTMAX
 10
1000.0
 20
1000.0
 30
0.0
  9
$FILLMODE
 70
 0
  9
$SPLFRAME
 70
 1
  0
ENDSEC
  0
SECTION
  2
TABLES
  0
TABLE
  2
LAYER
 70
1
  0
LAYER
  2
0
 70
     0
 62
     7
  6
CONTINUOUS
  0
ENDTAB
  0
ENDSEC
  0
SECTION
  2
ENTITIES
  0
POLYLINE
  8
0
 62
     0
 66
     1
 10
0
 20
0
 30
0.0
 70
     1
 40
0.51
 41
0.51
  0
VERTEX
  8
0
 10
11.7203
 20
15.5271
 30
0.0
 40
0.00708333
 41
0.00708333
  0
VERTEX
  8
0
 10
11.7203
 20
15.5271
 30
0.0
 40
0.00708333
 41
0.00708333
  0
SEQEND
 8
0
  0
POLYLINE
  8
0
 62
     0
 66
     1
 10
0
 20
0
 30
0.0
 70
     1
 40
0.51
 41
0.51
  0
VERTEX
  8
0
 10
8.8285
 20
8.56125
 30
0.0
 40
0.00708333
 41
0.00708333
  0
VERTEX
  8
0
 10
8.8285
 20
8.56125
 30
0.0
 40
0.00708333
 41
0.00708333
  0
SEQEND
 8
0
  0
POLYLINE
  8
0
 62
     0
 66
     1
 10
0
 20
0
 30
0.0
 70
     1
 40
0.51
 41
0.51
  0
VERTEX
  8
0
 10
11.4142
 20
2.76069
 30
0.0
 40
0.00708333
 41
0.00708333
  0
VERTEX
  8
0
 10
11.4142
 20
2.76069
 30
0.0
 40
0.00708333
 41
0.00708333
  0
SEQEND
 8
0
  0
POLYLINE
  8
0
 62
     0
 66
     1
 10
0
 20
0
 30
0.0
 40
0.709
 41
0.709
  0
VERTEX
  8
0
 10
11.064
 20
10.0042
 30
0.0
 40
0.00984722
 41
0.00984722
  0
VERTEX
  8
0
 10
10.5916
 20
10.0042
 30
0.0
 40
0.00984722
 41
0.00984722
  0
SEQEND
 8
0
  0
POLYLINE
  8
0
 62
     0
 66
     1
 10
0
 20
0
 30
0.0
 40
0.709
 41
0.709
  0
VERTEX
  8
0
 10
12.5601
 20
10.0042
 30
0.0
 40
0.00984722
 41
0.00984722
  0
VERTEX
  8
0
 10
11.5365
 20
10.0042
 30
0.0
 40
0.00984722
 41
0.00984722
  0
SEQEND
 8
0
  0
POLYLINE
  8
0
 62
     0
 66
     1
 10
0
 20
0
 30
0.0
 40
0.709
 41
0.709
  0
VERTEX
  8
0
 10
10.5916
 20
8.82308
 30
0.0
 40
0.00984722
 41
0.00984722
  0
VERTEX
  8
0
 10
12.5601
 20
8.82308
 30
0.0
 40
0.00984722
 41
0.00984722
  0
SEQEND
 8
0
  0
POLYLINE
  8
0
 62
     0
 66
     1
 10
0
 20
0
 30
0.0
 40
0.709
 41
0.709
  0
VERTEX
  8
0
 10
10.5916
 20
9.80735
 30
0.0
 40
0.00984722
 41
0.00984722
  0
VERTEX
  8
0
 10
8.70176
 20
9.80735
 30
0.0
 40
0.00984722
 41
0.00984722
  0
SEQEND
 8
0
  0
POLYLINE
  8
0
 62
     0
 66
     1
 10
0
 20
0
 30
0.0
 40
0.709
 41
0.709
  0
VERTEX
  8
0
 10
8.70176
 20
9.01992
 30
0.0
 40
0.00984722
 41
0.00984722
  0
VERTEX
  8
0
 10
10.5916
 20
9.01992
 30
0.0
 40
0.00984722
 41
0.00984722
  0
SEQEND
 8
0
  0
POLYLINE
  8
0
 62
     0
 66
     1
 10
0
 20
0
 30
0.0
 40
0.709
 41
0.709
  0
VERTEX
  8
0
 10
11.064
 20
9.99951
 30
0.0
 40
0.00984722
 41
0.00984722
  0
VERTEX
  8
0
 10
11.064
 20
10.0042
 30
0.0
 40
0.00984722
 41
0.00984722
  0
SEQEND
 8
0
  0
POLYLINE
  8
0
 62
     0
 66
     1
 10
0
 20
0
 30
0.0
 40
0.709
 41
0.709
  0
VERTEX
  8
0
 10
11.064
 20
9.99951
 30
0.0
 40
0.00984722
 41
0.00984722
  0
VERTEX
  8
0
 10
11.5365
 20
9.99951
 30
0.0
 40
0.00984722
 41
0.00984722
  0
SEQEND
 8
0
  0
POLYLINE
  8
0
 62
     0
 66
     1
 10
0
 20
0
 30
0.0
 40
0.709
 41
0.709
  0
VERTEX
  8
0
 10
11.5365
 20
9.99951
 30
0.0
 40
0.00984722
 41
0.00984722
  0
VERTEX
  8
0
 10
11.5365
 20
10.0042
 30
0.0
 40
0.00984722
 41
0.00984722
  0
SEQEND
 8
0
  0
POLYLINE
  8
0
 62
     0
 66
     1
 10
0
 20
0
 30
0.0
 40
0.709
 41
0.709
  0
VERTEX
  8
0
 10
10.5916
 20
9.41363
 30
0.0
 40
0.00984722
 41
0.00984722
  0
VERTEX
  8
0
 10
10.5916
 20
10.0042
 30
0.0
 40
0.00984722
 41
0.00984722
  0
SEQEND
 8
0
  0
POLYLINE
  8
0
 62
     0
 66
     1
 10
0
 20
0
 30
0.0
 40
0.709
 41
0.709
  0
VERTEX
  8
0
 10
10.5916
 20
8.82308
 30
0.0
 40
0.00984722
 41
0.00984722
  0
VERTEX
  8
0
 10
10.5916
 20
9.41363
 30
0.0
 40
0.00984722
 41
0.00984722
  0
SEQEND
 8
0
  0
POLYLINE
  8
0
 62
     0
 66
     1
 10
0
 20
0
 30
0.0
 40
0.709
 41
0.709
  0
VERTEX
  8
0
 10
12.5601
 20
9.41363
 30
0.0
 40
0.00984722
 41
0.00984722
  0
VERTEX
  8
0
 10
12.5601
 20
10.0042
 30
0.0
 40
0.00984722
 41
0.00984722
  0
SEQEND
 8
0
  0
POLYLINE
  8
0
 62
     0
 66
     1
 10
0
 20
0
 30
0.0
 40
0.709
 41
0.709
  0
VERTEX
  8
0
 10
12.5601
 20
8.82308
 30
0.0
 40
0.00984722
 41
0.00984722
  0
VERTEX
  8
0
 10
12.5601
 20
9.41363
 30
0.0
 40
0.00984722
 41
0.00984722
  0
SEQEND
 8
0
  0
POLYLINE
  8
0
 62
     0
 66
     1
 10
0
 20
0
 30
0.0
 40
0.709
 41
0.709
  0
VERTEX
  8
0
 10
8.70176
 20
9.41363
 30
0.0
 40
0.00984722
 41
0.00984722
  0
VERTEX
  8
0
 10
8.70176
 20
9.80735
 30
0.0
 40
0.00984722
 41
0.00984722
  0
SEQEND
 8
0
  0
POLYLINE
  8
0
 62
     0
 66
     1
 10
0
 20
0
 30
0.0
 40
0.709
 41
0.709
  0
VERTEX
  8
0
 10
8.70176
 20
9.01992
 30
0.0
 40
0.00984722
 41
0.00984722
  0
VERTEX
  8
0
 10
8.70176
 20
9.41363
 30
0.0
 40
0.00984722
 41
0.00984722
  0
SEQEND
 8
0
  0
POLYLINE
  8
0
 62
     0
 66
     1
 10
0
 20
0
 30
0.0
 70
     1
 40
0.709
 41
0.709
  0
VERTEX
  8
0
 10
9.2136
 20
9.53174
 30
0.0
 40
0.00984722
 41
0.00984722
  0
VERTEX
  8
0
 10
9.22136
 20
9.53147
 30
0.0
 40
0.00984722
 41
0.00984722
  0
VERTEX
  8
0
 10
9.22911
 20
9.53071
 30
0.0
 40
0.00984722
 41
0.00984722
  0
VERTEX
  8
0
 10
9.23676
 20
9.52946
 30
0.0
 40
0.00984722
 41
0.00984722
  0
VERTEX
  8
0
 10
9.24431
 20
9.52767
 30
0.0
 40
0.00984722
 41
0.00984722
  0
VERTEX
  8
0
 10
9.25168
 20
9.52544
 30
0.0
 40
0.00984722
 41
0.00984722
  0
VERTEX
  8
0
 10
9.2589
 20
9.52274
 30
0.0
 40
0.00984722
 41
0.00984722
  0
VERTEX
  8
0
 10
9.2659
 20
9.51953
 30
0.0
 40
0.00984722
 41
0.00984722
  0
VERTEX
  8
0
 10
9.27274
 20
9.5159
 30
0.0
 40
0.00984722
 41
0.00984722
  0
VERTEX
  8
0
 10
9.27924
 20
9.51183
 30
0.0
 40
0.00984722
 41
0.00984722
  0
VERTEX
  8
0
 10
9.28549
 20
9.50738
 30
0.0
 40
0.00984722
 41
0.00984722
  0
VERTEX
  8
0
 10
9.29156
 20
9.50239
 30
0.0
 40
0.00984722
 41
0.00984722
  0
VERTEX
  8
0
 10
9.29731
 20
9.49696
 30
0.0
 40
0.00984722
 41
0.00984722
  0
VERTEX
  8
0
 10
9.30268
 20
9.49121
 30
0.0
 40
0.00984722
 41
0.00984722
  0
VERTEX
  8
0
 10
9.30767
 20
9.48508
 30
0.0
 40
0.00984722
 41
0.00984722
  0
VERTEX
  8
0
 10
9.31222
 20
9.47863
 30
0.0
 40
0.00984722
 41
0.00984722
  0
VERTEX
  8
0
 10
9.3164
 20
9.47174
 30
0.0
 40
0.00984722
 41
0.00984722
  0
VERTEX
  8
0
 10
9.32015
 20
9.46457
 30
0.0
 40
0.00984722
 41
0.00984722
  0
VERTEX
  8
0
 10
9.3234
 20
9.45714
 30
0.0
 40
0.00984722
 41
0.00984722
  0
VERTEX
  8
0
 10
9.32611
 20
9.44949
 30
0.0
 40
0.00984722
 41
0.00984722
  0
VERTEX
  8
0
 10
9.32835
 20
9.44168
 30
0.0
 40
0.00984722
 41
0.00984722
  0
VERTEX
  8
0
 10
9.32997
 20
9.43397
 30
0.0
 40
0.00984722
 41
0.00984722
  0
VERTEX
  8
0
 10
9.33106
 20
9.42617
 30
0.0
 40
0.00984722
 41
0.00984722
  0
VERTEX
  8
0
 10
9.3316
 20
9.41824
 30
0.0
 40
0.00984722
 41
0.00984722
  0
VERTEX
  8
0
 10
9.33165
 20
9.41032
 30
0.0
 40
0.00984722
 41
0.00984722
  0
VERTEX
  8
0
 10
9.33117
 20
9.40246
 30
0.0
 40
0.00984722
 41
0.00984722
  0
VERTEX
  8
0
 10
9.33018
 20
9.39492
 30
0.0
 40
0.00984722
 41
0.00984722
  0
VERTEX
  8
0
 10
9.32878
 20
9.38737
 30
0.0
 40
0.00984722
 41
0.00984722
  0
VERTEX
  8
0
 10
9.32682
 20
9.37999
 30
0.0
 40
0.00984722
 41
0.00984722
  0
VERTEX
  8
0
 10
9.32437
 20
9.37272
 30
0.0
 40
0.00984722
 41
0.00984722
  0
VERTEX
  8
0
 10
9.32156
 20
9.36567
 30
0.0
 40
0.00984722
 41
0.00984722
  0
VERTEX
  8
0
 10
9.31819
 20
9.35878
 30
0.0
 40
0.00984722
 41
0.00984722
  0
VERTEX
  8
0
 10
9.3144
 20
9.35211
 30
0.0
 40
0.00984722
 41
0.00984722
  0
VERTEX
  8
0
 10
9.31022
 20
9.34565
 30
0.0
 40
0.00984722
 41
0.00984722
  0
VERTEX
  8
0
 10
9.30561
 20
9.33951
 30
0.0
 40
0.00984722
 41
0.00984722
  0
VERTEX
  8
0
 10
9.30063
 20
9.33371
 30
0.0
 40
0.00984722
 41
0.00984722
  0
VERTEX
  8
0
 10
9.29503
 20
9.32807
 30
0.0
 40
0.00984722
 41
0.00984722
  0
VERTEX
  8
0
 10
9.28907
 20
9.32281
 30
0.0
 40
0.00984722
 41
0.00984722
  0
VERTEX
  8
0
 10
9.28276
 20
9.31793
 30
0.0
 40
0.00984722
 41
0.00984722
  0
VERTEX
  8
0
 10
9.27615
 20
9.31342
 30
0.0
 40
0.00984722
 41
0.00984722
  0
VERTEX
  8
0
 10
9.26926
 20
9.30946
 30
0.0
 40
0.00984722
 41
0.00984722
  0
VERTEX
  8
0
 10
9.26204
 20
9.30593
 30
0.0
 40
0.00984722
 41
0.00984722
  0
VERTEX
  8
0
 10
9.25456
 20
9.30285
 30
0.0
 40
0.00984722
 41
0.00984722
  0
VERTEX
  8
0
 10
9.24685
 20
9.30035
 30
0.0
 40
0.00984722
 41
0.00984722
  0
VERTEX
  8
0
 10
9.23904
 20
9.29829
 30
0.0
 40
0.00984722
 41
0.00984722
  0
VERTEX
  8
0
 10
9.23107
 20
9.29682
 30
0.0
 40
0.00984722
 41
0.00984722
  0
VERTEX
  8
0
 10
9.22331
 20
9.29596
 30
0.0
 40
0.00984722
 41
0.00984722
  0
VERTEX
  8
0
 10
9.2155
 20
9.29551
 30
0.0
 40
0.00984722
 41
0.00984722
  0
VERTEX
  8
0
 10
9.20768
 20
9.29568
 30
0.0
 40
0.00984722
 41
0.00984722
  0
VERTEX
  8
0
 10
9.19987
 20
9.29633
 30
0.0
 40
0.00984722
 41
0.00984722
  0
VERTEX
  8
0
 10
9.19217
 20
9.29747
 30
0.0
 40
0.00984722
 41
0.00984722
  0
VERTEX
  8
0
 10
9.18474
 20
9.2991
 30
0.0
 40
0.00984722
 41
0.00984722
  0
VERTEX
  8
0
 10
9.17746
 20
9.30122
 30
0.0
 40
0.00984722
 41
0.00984722
  0
VERTEX
  8
0
 10
9.17031
 20
9.30376
 30
0.0
 40
0.00984722
 41
0.00984722
  0
VERTEX
  8
0
 10
9.16336
 20
9.30675
 30
0.0
 40
0.00984722
 41
0.00984722
  0
VERTEX
  8
0
 10
9.15662
 20
9.31017
 30
0.0
 40
0.00984722
 41
0.00984722
  0
VERTEX
  8
0
 10
9.15001
 20
9.31413
 30
0.0
 40
0.00984722
 41
0.00984722
  0
VERTEX
  8
0
 10
9.14361
 20
9.31853
 30
0.0
 40
0.00984722
 41
0.00984722
  0
VERTEX
  8
0
 10
9.13753
 20
9.32329
 30
0.0
 40
0.00984722
 41
0.00984722
  0
VERTEX
  8
0
 10
9.13172
 20
9.3285
 30
0.0
 40
0.00984722
 41
0.00984722
  0
VERTEX
  8
0
 10
9.12636
 20
9.33404
 30
0.0
 40
0.00984722
 41
0.00984722
  0
VERTEX
  8
0
 10
9.12121
 20
9.34011
 30
0.0
 40
0.00984722
 41
0.00984722
  0
VERTEX
  8
0
 10
9.11638
 20
9.34657
 30
0.0
 40
0.00984722
 41
0.00984722
  0
VERTEX
  8
0
 10
9.11203
 20
9.35335
 30
0.0
 40
0.00984722
 41
0.00984722
  0
VERTEX
  8
0
 10
9.10818
 20
9.3604
 30
0.0
 40
0.00984722
 41
0.00984722
  0
VERTEX
  8
0
 10
9.10476
 20
9.36774
 30
0.0
 40
0.00984722
 41
0.00984722
  0
VERTEX
  8
0
 10
9.10194
 20
9.37522
 30
0.0
 40
0.00984722
 41
0.00984722
  0
VERTEX
  8
0
 10
9.09961
 20
9.38286
 30
0.0
 40
0.00984722
 41
0.00984722
  0
VERTEX
  8
0
 10
9.09776
 20
9.39074
 30
0.0
 40
0.00984722
 41
0.00984722
  0
VERTEX
  8
0
 10
9.09646
 20
9.39865
 30
0.0
 40
0.00984722
 41
0.00984722
  0
VERTEX
  8
0
 10
9.09571
 20
9.40668
 30
0.0
 40
0.00984722
 41
0.00984722
  0
VERTEX
  8
0
 10
9.09549
 20
9.41439
 30
0.0
 40
0.00984722
 41
0.00984722
  0
VERTEX
  8
0
 10
9.09581
 20
9.42215
 30
0.0
 40
0.00984722
 41
0.00984722
  0
VERTEX
  8
0
 10
9.09662
 20
9.42985
 30
0.0
 40
0.00984722
 41
0.00984722
  0
VERTEX
  8
0
 10
9.09793
 20
9.4375
 30
0.0
 40
0.00984722
 41
0.00984722
  0
VERTEX
  8
0
 10
9.09972
 20
9.44499
 30
0.0
 40
0.00984722
 41
0.00984722
  0
VERTEX
  8
0
 10
9.102
 20
9.45226
 30
0.0
 40
0.00984722
 41
0.00984722
  0
VERTEX
  8
0
 10
9.10471
 20
9.45936
 30
0.0
 40
0.00984722
 41
0.00984722
  0
VERTEX
  8
0
 10
9.10792
 20
9.46631
 30
0.0
 40
0.00984722
 41
0.00984722
  0
VERTEX
  8
0
 10
9.11149
 20
9.47299
 30
0.0
 40
0.00984722
 41
0.00984722
  0
VERTEX
  8
0
 10
9.1155
 20
9.47944
 30
0.0
 40
0.00984722
 41
0.00984722
  0
VERTEX
  8
0
 10
9.12007
 20
9.48574
 30
0.0
 40
0.00984722
 41
0.00984722
  0
VERTEX
  8
0
 10
9.12506
 20
9.49181
 30
0.0
 40
0.00984722
 41
0.00984722
  0
VERTEX
  8
0
 10
9.13043
 20
9.4975
 30
0.0
 40
0.00984722
 41
0.00984722
  0
VERTEX
  8
0
 10
9.13618
 20
9.50282
 30
0.0
 40
0.00984722
 41
0.00984722
  0
VERTEX
  8
0
 10
9.14219
 20
9.50771
 30
0.0
 40
0.00984722
 41
0.00984722
  0
VERTEX
  8
0
 10
9.14882
 20
9.51237
 30
0.0
 40
0.00984722
 41
0.00984722
  0
VERTEX
  8
0
 10
9.15571
 20
9.51654
 30
0.0
 40
0.00984722
 41
0.00984722
  0
VERTEX
  8
0
 10
9.16287
 20
9.52029
 30
0.0
 40
0.00984722
 41
0.00984722
  0
VERTEX
  8
0
 10
9.17031
 20
9.52349
 30
0.0
 40
0.00984722
 41
0.00984722
  0
VERTEX
  8
0
 10
9.1779
 20
9.52621
 30
0.0
 40
0.00984722
 41
0.00984722
  0
VERTEX
  8
0
 10
9.18664
 20
9.5286
 30
0.0
 40
0.00984722
 41
0.00984722
  0
VERTEX
  8
0
 10
9.19553
 20
9.53033
 30
0.0
 40
0.00984722
 41
0.00984722
  0
VERTEX
  8
0
 10
9.20454
 20
9.53142
 30
0.0
 40
0.00984722
 41
0.00984722
  0
VERTEX
  8
0
 10
9.2136
 20
9.53174
 30
0.0
 40
0.00984722
 41
0.00984722
  0
SEQEND
 8
0
  0
POLYLINE
  8
0
 62
     0
 66
     1
 10
0
 20
0
 30
0.0
 40
0.51
 41
0.51
  0
VERTEX
  8
0
 10
11.7374
 20
9.41363
 30
0.0
 40
0.00708333
 41
0.00708333
  0
VERTEX
  8
0
 10
11.7374
 20
9.51204
 30
0.0
 40
0.00708333
 41
0.00708333
  0
SEQEND
 8
0
  0
POLYLINE
  8
0
 62
     0
 66
     1
 10
0
 20
0
 30
0.0
 40
0.51
 41
0.51
  0
VERTEX
  8
0
 10
11.7374
 20
9.31521
 30
0.0
 40
0.00708333
 41
0.00708333
  0
VERTEX
  8
0
 10
11.7374
 20
9.41363
 30
0.0
 40
0.00708333
 41
0.00708333
  0
SEQEND
 8
0
  0
POLYLINE
  8
0
 62
     0
 66
     1
 10
0
 20
0
 30
0.0
 40
0.51
 41
0.51
  0
VERTEX
  8
0
 10
11.6546
 20
9.41363
 30
0.0
 40
0.00708333
 41
0.00708333
  0
VERTEX
  8
0
 10
11.6546
 20
9.64985
 30
0.0
 40
0.00708333
 41
0.00708333
  0
SEQEND
 8
0
  0
POLYLINE
  8
0
 62
     0
 66
     1
 10
0
 20
0
 30
0.0
 40
0.51
 41
0.51
  0
VERTEX
  8
0
 10
11.6546
 20
9.1774
 30
0.0
 40
0.00708333
 41
0.00708333
  0
VERTEX
  8
0
 10
11.6546
 20
9.41363
 30
0.0
 40
0.00708333
 41
0.00708333
  0
SEQEND
 8
0
  0
POLYLINE
  8
0
 62
     0
 66
     1
 10
0
 20
0
 30
0.0
 40
0.51
 41
0.51
  0
VERTEX
  8
0
 10
11.5365
 20
9.99951
 30
0.0
 40
0.00708333
 41
0.00708333
  0
VERTEX
  8
0
 10
11.5365
 20
9.92546
 30
0.0
 40
0.00708333
 41
0.00708333
  0
SEQEND
 8
0
  0
POLYLINE
  8
0
 62
     0
 66
     1
 10
0
 20
0
 30
0.0
 40
0.51
 41
0.51
  0
VERTEX
  8
0
 10
11.064
 20
9.99951
 30
0.0
 40
0.00708333
 41
0.00708333
  0
VERTEX
  8
0
 10
11.064
 20
9.92546
 30
0.0
 40
0.00708333
 41
0.00708333
  0
SEQEND
 8
0
  0
POLYLINE
  8
0
 62
     0
 66
     1
 10
0
 20
0
 30
0.0
 40
0.51
 41
0.51
  0
VERTEX
  8
0
 10
11.5365
 20
9.92546
 30
0.0
 40
0.00708333
 41
0.00708333
  0
VERTEX
  8
0
 10
11.064
 20
9.92546
 30
0.0
 40
0.00708333
 41
0.00708333
  0
SEQEND
 8
0
  0
POLYLINE
  8
0
 62
     0
 66
     1
 10
0
 20
0
 30
0.0
 40
0.51
 41
0.51
  0
VERTEX
  8
0
 10
11.6546
 20
9.1774
 30
0.0
 40
0.00708333
 41
0.00708333
  0
VERTEX
  8
0
 10
11.7374
 20
9.31521
 30
0.0
 40
0.00708333
 41
0.00708333
  0
SEQEND
 8
0
  0
POLYLINE
  8
0
 62
     0
 66
     1
 10
0
 20
0
 30
0.0
 40
0.51
 41
0.51
  0
VERTEX
  8
0
 10
11.7374
 20
9.51204
 30
0.0
 40
0.00708333
 41
0.00708333
  0
VERTEX
  8
0
 10
11.6546
 20
9.64985
 30
0.0
 40
0.00708333
 41
0.00708333
  0
SEQEND
 8
0
  0
POLYLINE
  8
0
 62
     0
 66
     1
 10
0
 20
0
 30
0.0
 40
0.51
 41
0.51
  0
VERTEX
  8
0
 10
8.70182
 20
9.1774
 30
0.0
 40
0.00708333
 41
0.00708333
  0
VERTEX
  8
0
 10
11.6546
 20
9.1774
 30
0.0
 40
0.00708333
 41
0.00708333
  0
SEQEND
 8
0
  0
POLYLINE
  8
0
 62
     0
 66
     1
 10
0
 20
0
 30
0.0
 40
0.51
 41
0.51
  0
VERTEX
  8
0
 10
11.6546
 20
9.64985
 30
0.0
 40
0.00708333
 41
0.00708333
  0
VERTEX
  8
0
 10
8.70182
 20
9.64985
 30
0.0
 40
0.00708333
 41
0.00708333
  0
SEQEND
 8
0
  0
POLYLINE
  8
0
 62
     0
 66
     1
 10
0
 20
0
 30
0.0
 40
0.51
 41
0.51
  0
VERTEX
  8
0
 10
11.7374
 20
9.31521
 30
0.0
 40
0.00708333
 41
0.00708333
  0
VERTEX
  8
0
 10
12.5601
 20
9.31521
 30
0.0
 40
0.00708333
 41
0.00708333
  0
SEQEND
 8
0
  0
POLYLINE
  8
0
 62
     0
 66
     1
 10
0
 20
0
 30
0.0
 40
0.51
 41
0.51
  0
VERTEX
  8
0
 10
12.5601
 20
9.51204
 30
0.0
 40
0.00708333
 41
0.00708333
  0
VERTEX
  8
0
 10
11.7374
 20
9.51204
 30
0.0
 40
0.00708333
 41
0.00708333
  0
SEQEND
 8
0
  0
POLYLINE
  8
0
 62
     0
 66
     1
 10
0
 20
0
 30
0.0
 40
0.709
 41
0.709
  0
VERTEX
  8
0
 10
1.62728
 20
3.95768
 30
0.0
 40
0.00984722
 41
0.00984722
  0
VERTEX
  8
0
 10
1.23356
 20
3.95768
 30
0.0
 40
0.00984722
 41
0.00984722
  0
SEQEND
 8
0
  0
POLYLINE
  8
0
 62
     0
 66
     1
 10
0
 20
0
 30
0.0
 40
0.709
 41
0.709
  0
VERTEX
  8
0
 10
1.23356
 20
3.44586
 30
0.0
 40
0.00984722
 41
0.00984722
  0
VERTEX
  8
0
 10
1.62728
 20
3.44586
 30
0.0
 40
0.00984722
 41
0.00984722
  0
SEQEND
 8
0
  0
POLYLINE
  8
0
 62
     0
 66
     1
 10
0
 20
0
 30
0.0
 40
0.709
 41
0.709
  0
VERTEX
  8
0
 10
1.62728
 20
3.18994
 30
0.0
 40
0.00984722
 41
0.00984722
  0
VERTEX
  8
0
 10
6.35167
 20
3.18994
 30
0.0
 40
0.00984722
 41
0.00984722
  0
SEQEND
 8
0
  0
POLYLINE
  8
0
 62
     0
 66
     1
 10
0
 20
0
 30
0.0
 40
0.709
 41
0.709
  0
VERTEX
  8
0
 10
6.35167
 20
4.21354
 30
0.0
 40
0.00984722
 41
0.00984722
  0
VERTEX
  8
0
 10
1.62728
 20
4.21354
 30
0.0
 40
0.00984722
 41
0.00984722
  0
SEQEND
 8
0
  0
POLYLINE
  8
0
 62
     0
 66
     1
 10
0
 20
0
 30
0.0
 40
0.709
 41
0.709
  0
VERTEX
  8
0
 10
6.35167
 20
3.18994
 30
0.0
 40
0.00984722
 41
0.00984722
  0
VERTEX
  8
0
 10
6.35167
 20
4.21354
 30
0.0
 40
0.00984722
 41
0.00984722
  0
SEQEND
 8
0
  0
POLYLINE
  8
0
 62
     0
 66
     1
 10
0
 20
0
 30
0.0
 70
     1
 40
0.709
 41
0.709
  0
VERTEX
  8
0
 10
5.3674
 20
3.58365
 30
0.0
 40
0.00984722
 41
0.00984722
  0
VERTEX
  8
0
 10
5.36193
 20
3.58376
 30
0.0
 40
0.00984722
 41
0.00984722
  0
VERTEX
  8
0
 10
5.35644
 20
3.58415
 30
0.0
 40
0.00984722
 41
0.00984722
  0
VERTEX
  8
0
 10
5.35097
 20
3.58479
 30
0.0
 40
0.00984722
 41
0.00984722
  0
VERTEX
  8
0
 10
5.34554
 20
3.58567
 30
0.0
 40
0.00984722
 41
0.00984722
  0
VERTEX
  8
0
 10
5.34017
 20
3.58681
 30
0.0
 40
0.00984722
 41
0.00984722
  0
VERTEX
  8
0
 10
5.33485
 20
3.58822
 30
0.0
 40
0.00984722
 41
0.00984722
  0
VERTEX
  8
0
 10
5.32958
 20
3.58985
 30
0.0
 40
0.00984722
 41
0.00984722
  0
VERTEX
  8
0
 10
5.32443
 20
3.59174
 30
0.0
 40
0.00984722
 41
0.00984722
  0
VERTEX
  8
0
 10
5.31939
 20
3.59386
 30
0.0
 40
0.00984722
 41
0.00984722
  0
VERTEX
  8
0
 10
5.3144
 20
3.59619
 30
0.0
 40
0.00984722
 41
0.00984722
  0
VERTEX
  8
0
 10
5.30957
 20
3.59879
 30
0.0
 40
0.00984722
 41
0.00984722
  0
VERTEX
  8
0
 10
5.30485
 20
3.60161
 30
0.0
 40
0.00984722
 41
0.00984722
  0
VERTEX
  8
0
 10
5.30024
 20
3.6046
 30
0.0
 40
0.00984722
 41
0.00984722
  0
VERTEX
  8
0
 10
5.29579
 20
3.60786
 30
0.0
 40
0.00984722
 41
0.00984722
  0
VERTEX
  8
0
 10
5.2915
 20
3.61128
 30
0.0
 40
0.00984722
 41
0.00984722
  0
VERTEX
  8
0
 10
5.28738
 20
3.6149
 30
0.0
 40
0.00984722
 41
0.00984722
  0
VERTEX
  8
0
 10
5.28342
 20
3.61871
 30
0.0
 40
0.00984722
 41
0.00984722
  0
VERTEX
  8
0
 10
5.27962
 20
3.62272
 30
0.0
 40
0.00984722
 41
0.00984722
  0
VERTEX
  8
0
 10
5.27604
 20
3.6269
 30
0.0
 40
0.00984722
 41
0.00984722
  0
VERTEX
  8
0
 10
5.27268
 20
3.63124
 30
0.0
 40
0.00984722
 41
0.00984722
  0
VERTEX
  8
0
 10
5.26947
 20
3.63569
 30
0.0
 40
0.00984722
 41
0.00984722
  0
VERTEX
  8
0
 10
5.26654
 20
3.64035
 30
0.0
 40
0.00984722
 41
0.00984722
  0
VERTEX
  8
0
 10
5.26378
 20
3.64507
 30
0.0
 40
0.00984722
 41
0.00984722
  0
VERTEX
  8
0
 10
5.26124
 20
3.64996
 30
0.0
 40
0.00984722
 41
0.00984722
  0
VERTEX
  8
0
 10
5.25896
 20
3.655
 30
0.0
 40
0.00984722
 41
0.00984722
  0
VERTEX
  8
0
 10
5.25689
 20
3.6601
 30
0.0
 40
0.00984722
 41
0.00984722
  0
VERTEX
  8
0
 10
5.2551
 20
3.66525
 30
0.0
 40
0.00984722
 41
0.00984722
  0
VERTEX
  8
0
 10
5.25353
 20
3.67051
 30
0.0
 40
0.00984722
 41
0.00984722
  0
VERTEX
  8
0
 10
5.25217
 20
3.67583
 30
0.0
 40
0.00984722
 41
0.00984722
  0
VERTEX
  8
0
 10
5.25108
 20
3.68126
 30
0.0
 40
0.00984722
 41
0.00984722
  0
VERTEX
  8
0
 10
5.25028
 20
3.68668
 30
0.0
 40
0.00984722
 41
0.00984722
  0
VERTEX
  8
0
 10
5.24968
 20
3.69217
 30
0.0
 40
0.00984722
 41
0.00984722
  0
VERTEX
  8
0
 10
5.2494
 20
3.69764
 30
0.0
 40
0.00984722
 41
0.00984722
  0
VERTEX
  8
0
 10
5.24929
 20
3.70313
 30
0.0
 40
0.00984722
 41
0.00984722
  0
VERTEX
  8
0
 10
5.24951
 20
3.70861
 30
0.0
 40
0.00984722
 41
0.00984722
  0
VERTEX
  8
0
 10
5.24994
 20
3.71408
 30
0.0
 40
0.00984722
 41
0.00984722
  0
VERTEX
  8
0
 10
5.25065
 20
3.71957
 30
0.0
 40
0.00984722
 41
0.00984722
  0
VERTEX
  8
0
 10
5.25163
 20
3.72499
 30
0.0
 40
0.00984722
 41
0.00984722
  0
VERTEX
  8
0
 10
5.25282
 20
3.73031
 30
0.0
 40
0.00984722
 41
0.00984722
  0
VERTEX
  8
0
 10
5.25429
 20
3.73562
 30
0.0
 40
0.00984722
 41
0.00984722
  0
VERTEX
  8
0
 10
5.25597
 20
3.74083
 30
0.0
 40
0.00984722
 41
0.00984722
  0
VERTEX
  8
0
 10
5.25792
 20
3.74599
 30
0.0
 40
0.00984722
 41
0.00984722
  0
VERTEX
  8
0
 10
5.2601
 20
3.75103
 30
0.0
 40
0.00984722
 41
0.00984722
  0
VERTEX
  8
0
 10
5.26247
 20
3.75603
 30
0.0
 40
0.00984722
 41
0.00984722
  0
VERTEX
  8
0
 10
5.26514
 20
3.76079
 30
0.0
 40
0.00984722
 41
0.00984722
  0
VERTEX
  8
0
 10
5.26801
 20
3.76551
 30
0.0
 40
0.00984722
 41
0.00984722
  0
VERTEX
  8
0
 10
5.27106
 20
3.77007
 30
0.0
 40
0.00984722
 41
0.00984722
  0
VERTEX
  8
0
 10
5.27436
 20
3.77447
 30
0.0
 40
0.00984722
 41
0.00984722
  0
VERTEX
  8
0
 10
5.27783
 20
3.77869
 30
0.0
 40
0.00984722
 41
0.00984722
  0
VERTEX
  8
0
 10
5.28153
 20
3.78282
 30
0.0
 40
0.00984722
 41
0.00984722
  0
VERTEX
  8
0
 10
5.28537
 20
3.78674
 30
0.0
 40
0.00984722
 41
0.00984722
  0
VERTEX
  8
0
 10
5.28939
 20
3.79042
 30
0.0
 40
0.00984722
 41
0.00984722
  0
VERTEX
  8
0
 10
5.29362
 20
3.794
 30
0.0
 40
0.00984722
 41
0.00984722
  0
VERTEX
  8
0
 10
5.29801
 20
3.79731
 30
0.0
 40
0.00984722
 41
0.00984722
  0
VERTEX
  8
0
 10
5.30251
 20
3.80046
 30
0.0
 40
0.00984722
 41
0.00984722
  0
VERTEX
  8
0
 10
5.30718
 20
3.80333
 30
0.0
 40
0.00984722
 41
0.00984722
  0
VERTEX
  8
0
 10
5.31196
 20
3.80604
 30
0.0
 40
0.00984722
 41
0.00984722
  0
VERTEX
  8
0
 10
5.31689
 20
3.80849
 30
0.0
 40
0.00984722
 41
0.00984722
  0
VERTEX
  8
0
 10
5.32189
 20
3.81076
 30
0.0
 40
0.00984722
 41
0.00984722
  0
VERTEX
  8
0
 10
5.32704
 20
3.81278
 30
0.0
 40
0.00984722
 41
0.00984722
  0
VERTEX
  8
0
 10
5.33225
 20
3.81451
 30
0.0
 40
0.00984722
 41
0.00984722
  0
VERTEX
  8
0
 10
5.33751
 20
3.81603
 30
0.0
 40
0.00984722
 41
0.00984722
  0
VERTEX
  8
0
 10
5.34283
 20
3.81728
 30
0.0
 40
0.00984722
 41
0.00984722
  0
VERTEX
  8
0
 10
5.34825
 20
3.81831
 30
0.0
 40
0.00984722
 41
0.00984722
  0
VERTEX
  8
0
 10
5.35368
 20
3.81907
 30
0.0
 40
0.00984722
 41
0.00984722
  0
VERTEX
  8
0
 10
5.35915
 20
3.81961
 30
0.0
 40
0.00984722
 41
0.00984722
  0
VERTEX
  8
0
 10
5.36464
 20
3.81982
 30
0.0
 40
0.00984722
 41
0.00984722
  0
VERTEX
  8
0
 10
5.37017
 20
3.81982
 30
0.0
 40
0.00984722
 41
0.00984722
  0
VERTEX
  8
0
 10
5.37565
 20
3.81961
 30
0.0
 40
0.00984722
 41
0.00984722
  0
VERTEX
  8
0
 10
5.38113
 20
3.81907
 30
0.0
 40
0.00984722
 41
0.00984722
  0
VERTEX
  8
0
 10
5.38656
 20
3.81831
 30
0.0
 40
0.00984722
 41
0.00984722
  0
VERTEX
  8
0
 10
5.39199
 20
3.81728
 30
0.0
 40
0.00984722
 41
0.00984722
  0
VERTEX
  8
0
 10
5.39729
 20
3.81603
 30
0.0
 40
0.00984722
 41
0.00984722
  0
VERTEX
  8
0
 10
5.40261
 20
3.81451
 30
0.0
 40
0.00984722
 41
0.00984722
  0
VERTEX
  8
0
 10
5.40782
 20
3.81278
 30
0.0
 40
0.00984722
 41
0.00984722
  0
VERTEX
  8
0
 10
5.41292
 20
3.81076
 30
0.0
 40
0.00984722
 41
0.00984722
  0
VERTEX
  8
0
 10
5.41797
 20
3.80849
 30
0.0
 40
0.00984722
 41
0.00984722
  0
VERTEX
  8
0
 10
5.42285
 20
3.80604
 30
0.0
 40
0.00984722
 41
0.00984722
  0
VERTEX
  8
0
 10
5.42768
 20
3.80333
 30
0.0
 40
0.00984722
 41
0.00984722
  0
VERTEX
  8
0
 10
5.43229
 20
3.80046
 30
0.0
 40
0.00984722
 41
0.00984722
  0
VERTEX
  8
0
 10
5.43685
 20
3.79731
 30
0.0
 40
0.00984722
 41
0.00984722
  0
VERTEX
  8
0
 10
5.44119
 20
3.794
 30
0.0
 40
0.00984722
 41
0.00984722
  0
VERTEX
  8
0
 10
5.44542
 20
3.79042
 30
0.0
 40
0.00984722
 41
0.00984722
  0
VERTEX
  8
0
 10
5.44949
 20
3.78674
 30
0.0
 40
0.00984722
 41
0.00984722
  0
VERTEX
  8
0
 10
5.45335
 20
3.78282
 30
0.0
 40
0.00984722
 41
0.00984722
  0
VERTEX
  8
0
 10
5.45703
 20
3.77869
 30
0.0
 40
0.00984722
 41
0.00984722
  0
VERTEX
  8
0
 10
5.4605
 20
3.77447
 30
0.0
 40
0.00984722
 41
0.00984722
  0
VERTEX
  8
0
 10
5.46376
 20
3.77007
 30
0.0
 40
0.00984722
 41
0.00984722
  0
VERTEX
  8
0
 10
5.46685
 20
3.76551
 30
0.0
 40
0.00984722
 41
0.00984722
  0
VERTEX
  8
0
 10
5.46972
 20
3.76079
 30
0.0
 40
0.00984722
 41
0.00984722
  0
VERTEX
  8
0
 10
5.47233
 20
3.75603
 30
0.0
 40
0.00984722
 41
0.00984722
  0
VERTEX
  8
0
 10
5.47472
 20
3.75103
 30
0.0
 40
0.00984722
 41
0.00984722
  0
VERTEX
  8
0
 10
5.47694
 20
3.74599
 30
0.0
 40
0.00984722
 41
0.00984722
  0
VERTEX
  8
0
 10
5.47885
 20
3.74083
 30
0.0
 40
0.00984722
 41
0.00984722
  0
VERTEX
  8
0
 10
5.48058
 20
3.73562
 30
0.0
 40
0.00984722
 41
0.00984722
  0
VERTEX
  8
0
 10
5.48204
 20
3.73031
 30
0.0
 40
0.00984722
 41
0.00984722
  0
VERTEX
  8
0
 10
5.48324
 20
3.72499
 30
0.0
 40
0.00984722
 41
0.00984722
  0
VERTEX
  8
0
 10
5.48415
 20
3.71957
 30
0.0
 40
0.00984722
 41
0.00984722
  0
VERTEX
  8
0
 10
5.48486
 20
3.71408
 30
0.0
 40
0.00984722
 41
0.00984722
  0
VERTEX
  8
0
 10
5.48535
 20
3.70861
 30
0.0
 40
0.00984722
 41
0.00984722
  0
VERTEX
  8
0
 10
5.48551
 20
3.70313
 30
0.0
 40
0.00984722
 41
0.00984722
  0
VERTEX
  8
0
 10
5.48546
 20
3.69764
 30
0.0
 40
0.00984722
 41
0.00984722
  0
VERTEX
  8
0
 10
5.48514
 20
3.69217
 30
0.0
 40
0.00984722
 41
0.00984722
  0
VERTEX
  8
0
 10
5.48454
 20
3.68668
 30
0.0
 40
0.00984722
 41
0.00984722
  0
VERTEX
  8
0
 10
5.48372
 20
3.68126
 30
0.0
 40
0.00984722
 41
0.00984722
  0
VERTEX
  8
0
 10
5.48264
 20
3.67583
 30
0.0
 40
0.00984722
 41
0.00984722
  0
VERTEX
  8
0
 10
5.48133
 20
3.67051
 30
0.0
 40
0.00984722
 41
0.00984722
  0
VERTEX
  8
0
 10
5.47976
 20
3.66525
 30
0.0
 40
0.00984722
 41
0.00984722
  0
VERTEX
  8
0
 10
5.47792
 20
3.6601
 30
0.0
 40
0.00984722
 41
0.00984722
  0
VERTEX
  8
0
 10
5.47586
 20
3.655
 30
0.0
 40
0.00984722
 41
0.00984722
  0
VERTEX
  8
0
 10
5.47358
 20
3.64996
 30
0.0
 40
0.00984722
 41
0.00984722
  0
VERTEX
  8
0
 10
5.47103
 20
3.64507
 30
0.0
 40
0.00984722
 41
0.00984722
  0
VERTEX
  8
0
 10
5.46832
 20
3.64035
 30
0.0
 40
0.00984722
 41
0.00984722
  0
VERTEX
  8
0
 10
5.46533
 20
3.63569
 30
0.0
 40
0.00984722
 41
0.00984722
  0
VERTEX
  8
0
 10
5.46213
 20
3.63124
 30
0.0
 40
0.00984722
 41
0.00984722
  0
VERTEX
  8
0
 10
5.45876
 20
3.6269
 30
0.0
 40
0.00984722
 41
0.00984722
  0
VERTEX
  8
0
 10
5.45518
 20
3.62272
 30
0.0
 40
0.00984722
 41
0.00984722
  0
VERTEX
  8
0
 10
5.45139
 20
3.61871
 30
0.0
 40
0.00984722
 41
0.00984722
  0
VERTEX
  8
0
 10
5.44749
 20
3.6149
 30
0.0
 40
0.00984722
 41
0.00984722
  0
VERTEX
  8
0
 10
5.44336
 20
3.61128
 30
0.0
 40
0.00984722
 41
0.00984722
  0
VERTEX
  8
0
 10
5.43907
 20
3.60786
 30
0.0
 40
0.00984722
 41
0.00984722
  0
VERTEX
  8
0
 10
5.43457
 20
3.6046
 30
0.0
 40
0.00984722
 41
0.00984722
  0
VERTEX
  8
0
 10
5.43001
 20
3.60161
 30
0.0
 40
0.00984722
 41
0.00984722
  0
VERTEX
  8
0
 10
5.42529
 20
3.59879
 30
0.0
 40
0.00984722
 41
0.00984722
  0
VERTEX
  8
0
 10
5.42042
 20
3.59619
 30
0.0
 40
0.00984722
 41
0.00984722
  0
VERTEX
  8
0
 10
5.41547
 20
3.59386
 30
0.0
 40
0.00984722
 41
0.00984722
  0
VERTEX
  8
0
 10
5.41037
 20
3.59174
 30
0.0
 40
0.00984722
 41
0.00984722
  0
VERTEX
  8
0
 10
5.40522
 20
3.58985
 30
0.0
 40
0.00984722
 41
0.00984722
  0
VERTEX
  8
0
 10
5.39996
 20
3.58822
 30
0.0
 40
0.00984722
 41
0.00984722
  0
VERTEX
  8
0
 10
5.39464
 20
3.58681
 30
0.0
 40
0.00984722
 41
0.00984722
  0
VERTEX
  8
0
 10
5.38926
 20
3.58567
 30
0.0
 40
0.00984722
 41
0.00984722
  0
VERTEX
  8
0
 10
5.38385
 20
3.58479
 30
0.0
 40
0.00984722
 41
0.00984722
  0
VERTEX
  8
0
 10
5.37842
 20
3.58415
 30
0.0
 40
0.00984722
 41
0.00984722
  0
VERTEX
  8
0
 10
5.37289
 20
3.58376
 30
0.0
 40
0.00984722
 41
0.00984722
  0
VERTEX
  8
0
 10
5.3674
 20
3.58365
 30
0.0
 40
0.00984722
 41
0.00984722
  0
SEQEND
 8
0
  0
POLYLINE
  8
0
 62
     0
 66
     1
 10
0
 20
0
 30
0.0
 40
0.709
 41
0.709
  0
VERTEX
  8
0
 10
1.62728
 20
3.18994
 30
0.0
 40
0.00984722
 41
0.00984722
  0
VERTEX
  8
0
 10
1.62728
 20
4.21354
 30
0.0
 40
0.00984722
 41
0.00984722
  0
SEQEND
 8
0
  0
POLYLINE
  8
0
 62
     0
 66
     1
 10
0
 20
0
 30
0.0
 40
0.709
 41
0.709
  0
VERTEX
  8
0
 10
1.62728
 20
4.29232
 30
0.0
 40
0.00984722
 41
0.00984722
  0
VERTEX
  8
0
 10
6.35167
 20
4.29232
 30
0.0
 40
0.00984722
 41
0.00984722
  0
SEQEND
 8
0
  0
POLYLINE
  8
0
 62
     0
 66
     1
 10
0
 20
0
 30
0.0
 40
0.709
 41
0.709
  0
VERTEX
  8
0
 10
6.35167
 20
4.29232
 30
0.0
 40
0.00984722
 41
0.00984722
  0
VERTEX
  8
0
 10
6.35167
 20
4.21354
 30
0.0
 40
0.00984722
 41
0.00984722
  0
SEQEND
 8
0
  0
POLYLINE
  8
0
 62
     0
 66
     1
 10
0
 20
0
 30
0.0
 40
0.709
 41
0.709
  0
VERTEX
  8
0
 10
1.62728
 20
4.21354
 30
0.0
 40
0.00984722
 41
0.00984722
  0
VERTEX
  8
0
 10
1.62728
 20
4.29232
 30
0.0
 40
0.00984722
 41
0.00984722
  0
SEQEND
 8
0
  0
POLYLINE
  8
0
 62
     0
 66
     1
 10
0
 20
0
 30
0.0
 40
0.709
 41
0.709
  0
VERTEX
  8
0
 10
6.35167
 20
3.11122
 30
0.0
 40
0.00984722
 41
0.00984722
  0
VERTEX
  8
0
 10
1.62728
 20
3.11122
 30
0.0
 40
0.00984722
 41
0.00984722
  0
SEQEND
 8
0
  0
POLYLINE
  8
0
 62
     0
 66
     1
 10
0
 20
0
 30
0.0
 40
0.709
 41
0.709
  0
VERTEX
  8
0
 10
6.35167
 20
3.18994
 30
0.0
 40
0.00984722
 41
0.00984722
  0
VERTEX
  8
0
 10
6.35167
 20
3.11122
 30
0.0
 40
0.00984722
 41
0.00984722
  0
SEQEND
 8
0
  0
POLYLINE
  8
0
 62
     0
 66
     1
 10
0
 20
0
 30
0.0
 40
0.709
 41
0.709
  0
VERTEX
  8
0
 10
1.62728
 20
3.11122
 30
0.0
 40
0.00984722
 41
0.00984722
  0
VERTEX
  8
0
 10
1.62728
 20
3.18994
 30
0.0
 40
0.00984722
 41
0.00984722
  0
SEQEND
 8
0
  0
POLYLINE
  8
0
 62
     0
 66
     1
 10
0
 20
0
 30
0.0
 40
0.709
 41
0.709
  0
VERTEX
  8
0
 10
1.23356
 20
3.70176
 30
0.0
 40
0.00984722
 41
0.00984722
  0
VERTEX
  8
0
 10
1.23356
 20
3.95768
 30
0.0
 40
0.00984722
 41
0.00984722
  0
SEQEND
 8
0
  0
POLYLINE
  8
0
 62
     0
 66
     1
 10
0
 20
0
 30
0.0
 40
0.709
 41
0.709
  0
VERTEX
  8
0
 10
1.23356
 20
3.44586
 30
0.0
 40
0.00984722
 41
0.00984722
  0
VERTEX
  8
0
 10
1.23356
 20
3.70176
 30
0.0
 40
0.00984722
 41
0.00984722
  0
SEQEND
 8
0
  0
POLYLINE
  8
0
 62
     0
 66
     1
 10
0
 20
0
 30
0.0
 40
0.51
 41
0.51
  0
VERTEX
  8
0
 10
5.24929
 20
3.70176
 30
0.0
 40
0.00708333
 41
0.00708333
  0
VERTEX
  8
0
 10
5.24935
 20
3.70247
 30
0.0
 40
0.00708333
 41
0.00708333
  0
SEQEND
 8
0
  0
POLYLINE
  8
0
 62
     0
 66
     1
 10
0
 20
0
 30
0.0
 40
0.51
 41
0.51
  0
VERTEX
  8
0
 10
5.37358
 20
3.58382
 30
0.0
 40
0.00708333
 41
0.00708333
  0
VERTEX
  8
0
 10
5.36464
 20
3.58365
 30
0.0
 40
0.00708333
 41
0.00708333
  0
VERTEX
  8
0
 10
5.35981
 20
3.58399
 30
0.0
 40
0.00708333
 41
0.00708333
  0
SEQEND
 8
0
  0
POLYLINE
  8
0
 62
     0
 66
     1
 10
0
 20
0
 30
0.0
 40
0.51
 41
0.51
  0
VERTEX
  8
0
 10
5.24968
 20
3.69243
 30
0.0
 40
0.00708333
 41
0.00708333
  0
VERTEX
  8
0
 10
5.24968
 20
3.69271
 30
0.0
 40
0.00708333
 41
0.00708333
  0
VERTEX
  8
0
 10
5.24929
 20
3.70176
 30
0.0
 40
0.00708333
 41
0.00708333
  0
SEQEND
 8
0
  0
POLYLINE
  8
0
 62
     0
 66
     1
 10
0
 20
0
 30
0.0
 40
0.51
 41
0.51
  0
VERTEX
  8
0
 10
4.77686
 20
4.09549
 30
0.0
 40
0.00708333
 41
0.00708333
  0
VERTEX
  8
0
 10
4.77686
 20
3.30806
 30
0.0
 40
0.00708333
 41
0.00708333
  0
SEQEND
 8
0
  0
POLYLINE
  8
0
 62
     0
 66
     1
 10
0
 20
0
 30
0.0
 40
0.51
 41
0.51
  0
VERTEX
  8
0
 10
6.35167
 20
4.09549
 30
0.0
 40
0.00708333
 41
0.00708333
  0
VERTEX
  8
0
 10
4.77686
 20
4.09549
 30
0.0
 40
0.00708333
 41
0.00708333
  0
SEQEND
 8
0
  0
POLYLINE
  8
0
 62
     0
 66
     1
 10
0
 20
0
 30
0.0
 40
0.51
 41
0.51
  0
VERTEX
  8
0
 10
4.77686
 20
3.30806
 30
0.0
 40
0.00708333
 41
0.00708333
  0
VERTEX
  8
0
 10
6.35167
 20
3.30806
 30
0.0
 40
0.00708333
 41
0.00708333
  0
SEQEND
 8
0
  0
POLYLINE
  8
0
 62
     0
 66
     1
 10
0
 20
0
 30
0.0
 40
0.709
 41
0.709
  0
VERTEX
  8
0
 10
1.6205
 20
2.28467
 30
0.0
 40
0.00984722
 41
0.00984722
  0
VERTEX
  8
0
 10
6.34489
 20
2.28467
 30
0.0
 40
0.00984722
 41
0.00984722
  0
SEQEND
 8
0
  0
POLYLINE
  8
0
 62
     0
 66
     1
 10
0
 20
0
 30
0.0
 40
0.709
 41
0.709
  0
VERTEX
  8
0
 10
6.34489
 20
2.28467
 30
0.0
 40
0.00984722
 41
0.00984722
  0
VERTEX
  8
0
 10
6.34489
 20
2.20594
 30
0.0
 40
0.00984722
 41
0.00984722
  0
SEQEND
 8
0
  0
POLYLINE
  8
0
 62
     0
 66
     1
 10
0
 20
0
 30
0.0
 40
0.709
 41
0.709
  0
VERTEX
  8
0
 10
6.34489
 20
2.20594
 30
0.0
 40
0.00984722
 41
0.00984722
  0
VERTEX
  8
0
 10
1.6205
 20
2.20594
 30
0.0
 40
0.00984722
 41
0.00984722
  0
SEQEND
 8
0
  0
POLYLINE
  8
0
 62
     0
 66
     1
 10
0
 20
0
 30
0.0
 40
0.709
 41
0.709
  0
VERTEX
  8
0
 10
1.6205
 20
2.20594
 30
0.0
 40
0.00984722
 41
0.00984722
  0
VERTEX
  8
0
 10
1.6205
 20
2.28467
 30
0.0
 40
0.00984722
 41
0.00984722
  0
SEQEND
 8
0
  0
POLYLINE
  8
0
 62
     0
 66
     1
 10
0
 20
0
 30
0.0
 40
0.709
 41
0.709
  0
VERTEX
  8
0
 10
1.6205
 20
1.18229
 30
0.0
 40
0.00984722
 41
0.00984722
  0
VERTEX
  8
0
 10
6.34489
 20
1.18229
 30
0.0
 40
0.00984722
 41
0.00984722
  0
SEQEND
 8
0
  0
POLYLINE
  8
0
 62
     0
 66
     1
 10
0
 20
0
 30
0.0
 40
0.709
 41
0.709
  0
VERTEX
  8
0
 10
6.34489
 20
1.18229
 30
0.0
 40
0.00984722
 41
0.00984722
  0
VERTEX
  8
0
 10
6.34489
 20
2.20594
 30
0.0
 40
0.00984722
 41
0.00984722
  0
SEQEND
 8
0
  0
POLYLINE
  8
0
 62
     0
 66
     1
 10
0
 20
0
 30
0.0
 70
     1
 40
0.709
 41
0.709
  0
VERTEX
  8
0
 10
2.60476
 20
1.81222
 30
0.0
 40
0.00984722
 41
0.00984722
  0
VERTEX
  8
0
 10
2.59944
 20
1.81213
 30
0.0
 40
0.00984722
 41
0.00984722
  0
VERTEX
  8
0
 10
2.59407
 20
1.81174
 30
0.0
 40
0.00984722
 41
0.00984722
  0
VERTEX
  8
0
 10
2.58882
 20
1.81114
 30
0.0
 40
0.00984722
 41
0.00984722
  0
VERTEX
  8
0
 10
2.58356
 20
1.81033
 30
0.0
 40
0.00984722
 41
0.00984722
  0
VERTEX
  8
0
 10
2.57829
 20
1.80925
 30
0.0
 40
0.00984722
 41
0.00984722
  0
VERTEX
  8
0
 10
2.57314
 20
1.80789
 30
0.0
 40
0.00984722
 41
0.00984722
  0
VERTEX
  8
0
 10
2.56803
 20
1.80638
 30
0.0
 40
0.00984722
 41
0.00984722
  0
VERTEX
  8
0
 10
2.56299
 20
1.80458
 30
0.0
 40
0.00984722
 41
0.00984722
  0
VERTEX
  8
0
 10
2.558
 20
1.80257
 30
0.0
 40
0.00984722
 41
0.00984722
  0
VERTEX
  8
0
 10
2.55317
 20
1.80035
 30
0.0
 40
0.00984722
 41
0.00984722
  0
VERTEX
  8
0
 10
2.54844
 20
1.7979
 30
0.0
 40
0.00984722
 41
0.00984722
  0
VERTEX
  8
0
 10
2.54378
 20
1.79531
 30
0.0
 40
0.00984722
 41
0.00984722
  0
VERTEX
  8
0
 10
2.53928
 20
1.79243
 30
0.0
 40
0.00984722
 41
0.00984722
  0
VERTEX
  8
0
 10
2.53494
 20
1.78933
 30
0.0
 40
0.00984722
 41
0.00984722
  0
VERTEX
  8
0
 10
2.53065
 20
1.78614
 30
0.0
 40
0.00984722
 41
0.00984722
  0
VERTEX
  8
0
 10
2.52658
 20
1.78267
 30
0.0
 40
0.00984722
 41
0.00984722
  0
VERTEX
  8
0
 10
2.52268
 20
1.77903
 30
0.0
 40
0.00984722
 41
0.00984722
  0
VERTEX
  8
0
 10
2.51893
 20
1.77522
 30
0.0
 40
0.00984722
 41
0.00984722
  0
VERTEX
  8
0
 10
2.51535
 20
1.77126
 30
0.0
 40
0.00984722
 41
0.00984722
  0
VERTEX
  8
0
 10
2.51193
 20
1.76714
 30
0.0
 40
0.00984722
 41
0.00984722
  0
VERTEX
  8
0
 10
2.50874
 20
1.76292
 30
0.0
 40
0.00984722
 41
0.00984722
  0
VERTEX
  8
0
 10
2.50575
 20
1.75851
 30
0.0
 40
0.00984722
 41
0.00984722
  0
VERTEX
  8
0
 10
2.50293
 20
1.75396
 30
0.0
 40
0.00984722
 41
0.00984722
  0
VERTEX
  8
0
 10
2.50032
 20
1.74929
 30
0.0
 40
0.00984722
 41
0.00984722
  0
VERTEX
  8
0
 10
2.49794
 20
1.74451
 30
0.0
 40
0.00984722
 41
0.00984722
  0
VERTEX
  8
0
 10
2.49576
 20
1.73964
 30
0.0
 40
0.00984722
 41
0.00984722
  0
VERTEX
  8
0
 10
2.49382
 20
1.73465
 30
0.0
 40
0.00984722
 41
0.00984722
  0
VERTEX
  8
0
 10
2.49214
 20
1.7296
 30
0.0
 40
0.00984722
 41
0.00984722
  0
VERTEX
  8
0
 10
2.49061
 20
1.7245
 30
0.0
 40
0.00984722
 41
0.00984722
  0
VERTEX
  8
0
 10
2.48936
 20
1.71929
 30
0.0
 40
0.00984722
 41
0.00984722
  0
VERTEX
  8
0
 10
2.48833
 20
1.71403
 30
0.0
 40
0.00984722
 41
0.00984722
  0
VERTEX
  8
0
 10
2.48757
 20
1.70876
 30
0.0
 40
0.00984722
 41
0.00984722
  0
VERTEX
  8
0
 10
2.48703
 20
1.70344
 30
0.0
 40
0.00984722
 41
0.00984722
  0
VERTEX
  8
0
 10
2.48671
 20
1.69814
 30
0.0
 40
0.00984722
 41
0.00984722
  0
VERTEX
  8
0
 10
2.48665
 20
1.69276
 30
0.0
 40
0.00984722
 41
0.00984722
  0
VERTEX
  8
0
 10
2.48682
 20
1.68744
 30
0.0
 40
0.00984722
 41
0.00984722
  0
VERTEX
  8
0
 10
2.48725
 20
1.68212
 30
0.0
 40
0.00984722
 41
0.00984722
  0
VERTEX
  8
0
 10
2.4879
 20
1.67686
 30
0.0
 40
0.00984722
 41
0.00984722
  0
VERTEX
  8
0
 10
2.48882
 20
1.6716
 30
0.0
 40
0.00984722
 41
0.00984722
  0
VERTEX
  8
0
 10
2.48996
 20
1.66635
 30
0.0
 40
0.00984722
 41
0.00984722
  0
VERTEX
  8
0
 10
2.49132
 20
1.66118
 30
0.0
 40
0.00984722
 41
0.00984722
  0
VERTEX
  8
0
 10
2.49294
 20
1.65608
 30
0.0
 40
0.00984722
 41
0.00984722
  0
VERTEX
  8
0
 10
2.49479
 20
1.6511
 30
0.0
 40
0.00984722
 41
0.00984722
  0
VERTEX
  8
0
 10
2.49685
 20
1.64615
 30
0.0
 40
0.00984722
 41
0.00984722
  0
VERTEX
  8
0
 10
2.49914
 20
1.64133
 30
0.0
 40
0.00984722
 41
0.00984722
  0
VERTEX
  8
0
 10
2.50157
 20
1.63661
 30
0.0
 40
0.00984722
 41
0.00984722
  0
VERTEX
  8
0
 10
2.50429
 20
1.632
 30
0.0
 40
0.00984722
 41
0.00984722
  0
VERTEX
  8
0
 10
2.50722
 20
1.62756
 30
0.0
 40
0.00984722
 41
0.00984722
  0
VERTEX
  8
0
 10
2.51031
 20
1.62321
 30
0.0
 40
0.00984722
 41
0.00984722
  0
VERTEX
  8
0
 10
2.51361
 20
1.61903
 30
0.0
 40
0.00984722
 41
0.00984722
  0
VERTEX
  8
0
 10
2.51708
 20
1.61496
 30
0.0
 40
0.00984722
 41
0.00984722
  0
VERTEX
  8
0
 10
2.52078
 20
1.61106
 30
0.0
 40
0.00984722
 41
0.00984722
  0
VERTEX
  8
0
 10
2.52462
 20
1.60736
 30
0.0
 40
0.00984722
 41
0.00984722
  0
VERTEX
  8
0
 10
2.52865
 20
1.60385
 30
0.0
 40
0.00984722
 41
0.00984722
  0
VERTEX
  8
0
 10
2.53276
 20
1.60047
 30
0.0
 40
0.00984722
 41
0.00984722
  0
VERTEX
  8
0
 10
2.53706
 20
1.59733
 30
0.0
 40
0.00984722
 41
0.00984722
  0
VERTEX
  8
0
 10
2.5415
 20
1.59435
 30
0.0
 40
0.00984722
 41
0.00984722
  0
VERTEX
  8
0
 10
2.54611
 20
1.59164
 30
0.0
 40
0.00984722
 41
0.00984722
  0
VERTEX
  8
0
 10
2.55078
 20
1.58908
 30
0.0
 40
0.00984722
 41
0.00984722
  0
VERTEX
  8
0
 10
2.55561
 20
1.58675
 30
0.0
 40
0.00984722
 41
0.00984722
  0
VERTEX
  8
0
 10
2.56049
 20
1.58464
 30
0.0
 40
0.00984722
 41
0.00984722
  0
VERTEX
  8
0
 10
2.56549
 20
1.58274
 30
0.0
 40
0.00984722
 41
0.00984722
  0
VERTEX
  8
0
 10
2.57053
 20
1.58106
 30
0.0
 40
0.00984722
 41
0.00984722
  0
VERTEX
  8
0
 10
2.57568
 20
1.57964
 30
0.0
 40
0.00984722
 41
0.00984722
  0
VERTEX
  8
0
 10
2.58089
 20
1.57844
 30
0.0
 40
0.00984722
 41
0.00984722
  0
VERTEX
  8
0
 10
2.58615
 20
1.57747
 30
0.0
 40
0.00984722
 41
0.00984722
  0
VERTEX
  8
0
 10
2.59142
 20
1.57676
 30
0.0
 40
0.00984722
 41
0.00984722
  0
VERTEX
  8
0
 10
2.59674
 20
1.57628
 30
0.0
 40
0.00984722
 41
0.00984722
  0
VERTEX
  8
0
 10
2.60211
 20
1.57607
 30
0.0
 40
0.00984722
 41
0.00984722
  0
VERTEX
  8
0
 10
2.60742
 20
1.57607
 30
0.0
 40
0.00984722
 41
0.00984722
  0
VERTEX
  8
0
 10
2.61274
 20
1.57628
 30
0.0
 40
0.00984722
 41
0.00984722
  0
VERTEX
  8
0
 10
2.61806
 20
1.57676
 30
0.0
 40
0.00984722
 41
0.00984722
  0
VERTEX
  8
0
 10
2.62337
 20
1.57747
 30
0.0
 40
0.00984722
 41
0.00984722
  0
VERTEX
  8
0
 10
2.62864
 20
1.57844
 30
0.0
 40
0.00984722
 41
0.00984722
  0
VERTEX
  8
0
 10
2.63385
 20
1.57964
 30
0.0
 40
0.00984722
 41
0.00984722
  0
VERTEX
  8
0
 10
2.63894
 20
1.58106
 30
0.0
 40
0.00984722
 41
0.00984722
  0
VERTEX
  8
0
 10
2.64404
 20
1.58274
 30
0.0
 40
0.00984722
 41
0.00984722
  0
VERTEX
  8
0
 10
2.64903
 20
1.58464
 30
0.0
 40
0.00984722
 41
0.00984722
  0
VERTEX
  8
0
 10
2.65392
 20
1.58675
 30
0.0
 40
0.00984722
 41
0.00984722
  0
VERTEX
  8
0
 10
2.65875
 20
1.58908
 30
0.0
 40
0.00984722
 41
0.00984722
  0
VERTEX
  8
0
 10
2.66342
 20
1.59164
 30
0.0
 40
0.00984722
 41
0.00984722
  0
VERTEX
  8
0
 10
2.66803
 20
1.59435
 30
0.0
 40
0.00984722
 41
0.00984722
  0
VERTEX
  8
0
 10
2.67242
 20
1.59733
 30
0.0
 40
0.00984722
 41
0.00984722
  0
VERTEX
  8
0
 10
2.67676
 20
1.60047
 30
0.0
 40
0.00984722
 41
0.00984722
  0
VERTEX
  8
0
 10
2.68093
 20
1.60385
 30
0.0
 40
0.00984722
 41
0.00984722
  0
VERTEX
  8
0
 10
2.6849
 20
1.60736
 30
0.0
 40
0.00984722
 41
0.00984722
  0
VERTEX
  8
0
 10
2.68875
 20
1.61106
 30
0.0
 40
0.00984722
 41
0.00984722
  0
VERTEX
  8
0
 10
2.69243
 20
1.61496
 30
0.0
 40
0.00984722
 41
0.00984722
  0
VERTEX
  8
0
 10
2.6959
 20
1.61903
 30
0.0
 40
0.00984722
 41
0.00984722
  0
VERTEX
  8
0
 10
2.69922
 20
1.62321
 30
0.0
 40
0.00984722
 41
0.00984722
  0
VERTEX
  8
0
 10
2.70231
 20
1.62756
 30
0.0
 40
0.00984722
 41
0.00984722
  0
VERTEX
  8
0
 10
2.70524
 20
1.632
 30
0.0
 40
0.00984722
 41
0.00984722
  0
VERTEX
  8
0
 10
2.7079
 20
1.63661
 30
0.0
 40
0.00984722
 41
0.00984722
  0
VERTEX
  8
0
 10
2.71044
 20
1.64133
 30
0.0
 40
0.00984722
 41
0.00984722
  0
VERTEX
  8
0
 10
2.71268
 20
1.64615
 30
0.0
 40
0.00984722
 41
0.00984722
  0
VERTEX
  8
0
 10
2.71474
 20
1.6511
 30
0.0
 40
0.00984722
 41
0.00984722
  0
VERTEX
  8
0
 10
2.71658
 20
1.65608
 30
0.0
 40
0.00984722
 41
0.00984722
  0
VERTEX
  8
0
 10
2.71821
 20
1.66118
 30
0.0
 40
0.00984722
 41
0.00984722
  0
VERTEX
  8
0
 10
2.71957
 20
1.66635
 30
0.0
 40
0.00984722
 41
0.00984722
  0
VERTEX
  8
0
 10
2.72071
 20
1.6716
 30
0.0
 40
0.00984722
 41
0.00984722
  0
VERTEX
  8
0
 10
2.72157
 20
1.67686
 30
0.0
 40
0.00984722
 41
0.00984722
  0
VERTEX
  8
0
 10
2.72228
 20
1.68212
 30
0.0
 40
0.00984722
 41
0.00984722
  0
VERTEX
  8
0
 10
2.72271
 20
1.68744
 30
0.0
 40
0.00984722
 41
0.00984722
  0
VERTEX
  8
0
 10
2.72287
 20
1.69276
 30
0.0
 40
0.00984722
 41
0.00984722
  0
VERTEX
  8
0
 10
2.72282
 20
1.69814
 30
0.0
 40
0.00984722
 41
0.00984722
  0
VERTEX
  8
0
 10
2.7225
 20
1.70344
 30
0.0
 40
0.00984722
 41
0.00984722
  0
VERTEX
  8
0
 10
2.72194
 20
1.70876
 30
0.0
 40
0.00984722
 41
0.00984722
  0
VERTEX
  8
0
 10
2.72119
 20
1.71403
 30
0.0
 40
0.00984722
 41
0.00984722
  0
VERTEX
  8
0
 10
2.72017
 20
1.71929
 30
0.0
 40
0.00984722
 41
0.00984722
  0
VERTEX
  8
0
 10
2.71892
 20
1.7245
 30
0.0
 40
0.00984722
 41
0.00984722
  0
VERTEX
  8
0
 10
2.71739
 20
1.7296
 30
0.0
 40
0.00984722
 41
0.00984722
  0
VERTEX
  8
0
 10
2.71571
 20
1.73465
 30
0.0
 40
0.00984722
 41
0.00984722
  0
VERTEX
  8
0
 10
2.71376
 20
1.73964
 30
0.0
 40
0.00984722
 41
0.00984722
  0
VERTEX
  8
0
 10
2.71158
 20
1.74451
 30
0.0
 40
0.00984722
 41
0.00984722
  0
VERTEX
  8
0
 10
2.70921
 20
1.74929
 30
0.0
 40
0.00984722
 41
0.00984722
  0
VERTEX
  8
0
 10
2.7066
 20
1.75396
 30
0.0
 40
0.00984722
 41
0.00984722
  0
VERTEX
  8
0
 10
2.70378
 20
1.75851
 30
0.0
 40
0.00984722
 41
0.00984722
  0
VERTEX
  8
0
 10
2.70079
 20
1.76292
 30
0.0
 40
0.00984722
 41
0.00984722
  0
VERTEX
  8
0
 10
2.6976
 20
1.76714
 30
0.0
 40
0.00984722
 41
0.00984722
  0
VERTEX
  8
0
 10
2.69417
 20
1.77126
 30
0.0
 40
0.00984722
 41
0.00984722
  0
VERTEX
  8
0
 10
2.6906
 20
1.77522
 30
0.0
 40
0.00984722
 41
0.00984722
  0
VERTEX
  8
0
 10
2.68685
 20
1.77903
 30
0.0
 40
0.00984722
 41
0.00984722
  0
VERTEX
  8
0
 10
2.68294
 20
1.78267
 30
0.0
 40
0.00984722
 41
0.00984722
  0
VERTEX
  8
0
 10
2.67882
 20
1.78614
 30
0.0
 40
0.00984722
 41
0.00984722
  0
VERTEX
  8
0
 10
2.67464
 20
1.78933
 30
0.0
 40
0.00984722
 41
0.00984722
  0
VERTEX
  8
0
 10
2.67025
 20
1.79243
 30
0.0
 40
0.00984722
 41
0.00984722
  0
VERTEX
  8
0
 10
2.66575
 20
1.79531
 30
0.0
 40
0.00984722
 41
0.00984722
  0
VERTEX
  8
0
 10
2.66108
 20
1.7979
 30
0.0
 40
0.00984722
 41
0.00984722
  0
VERTEX
  8
0
 10
2.65636
 20
1.80035
 30
0.0
 40
0.00984722
 41
0.00984722
  0
VERTEX
  8
0
 10
2.65147
 20
1.80257
 30
0.0
 40
0.00984722
 41
0.00984722
  0
VERTEX
  8
0
 10
2.64654
 20
1.80458
 30
0.0
 40
0.00984722
 41
0.00984722
  0
VERTEX
  8
0
 10
2.6415
 20
1.80638
 30
0.0
 40
0.00984722
 41
0.00984722
  0
VERTEX
  8
0
 10
2.63639
 20
1.80789
 30
0.0
 40
0.00984722
 41
0.00984722
  0
VERTEX
  8
0
 10
2.63124
 20
1.80925
 30
0.0
 40
0.00984722
 41
0.00984722
  0
VERTEX
  8
0
 10
2.62597
 20
1.81033
 30
0.0
 40
0.00984722
 41
0.00984722
  0
VERTEX
  8
0
 10
2.62071
 20
1.81114
 30
0.0
 40
0.00984722
 41
0.00984722
  0
VERTEX
  8
0
 10
2.61546
 20
1.81174
 30
0.0
 40
0.00984722
 41
0.00984722
  0
VERTEX
  8
0
 10
2.61008
 20
1.81213
 30
0.0
 40
0.00984722
 41
0.00984722
  0
VERTEX
  8
0
 10
2.60476
 20
1.81222
 30
0.0
 40
0.00984722
 41
0.00984722
  0
SEQEND
 8
0
  0
POLYLINE
  8
0
 62
     0
 66
     1
 10
0
 20
0
 30
0.0
 70
     1
 40
0.709
 41
0.709
  0
VERTEX
  8
0
 10
5.36068
 20
1.81222
 30
0.0
 40
0.00984722
 41
0.00984722
  0
VERTEX
  8
0
 10
5.35531
 20
1.81213
 30
0.0
 40
0.00984722
 41
0.00984722
  0
VERTEX
  8
0
 10
5.34999
 20
1.81174
 30
0.0
 40
0.00984722
 41
0.00984722
  0
VERTEX
  8
0
 10
5.34472
 20
1.81114
 30
0.0
 40
0.00984722
 41
0.00984722
  0
VERTEX
  8
0
 10
5.33942
 20
1.81033
 30
0.0
 40
0.00984722
 41
0.00984722
  0
VERTEX
  8
0
 10
5.33421
 20
1.80925
 30
0.0
 40
0.00984722
 41
0.00984722
  0
VERTEX
  8
0
 10
5.32904
 20
1.80789
 30
0.0
 40
0.00984722
 41
0.00984722
  0
VERTEX
  8
0
 10
5.32389
 20
1.80638
 30
0.0
 40
0.00984722
 41
0.00984722
  0
VERTEX
  8
0
 10
5.3189
 20
1.80458
 30
0.0
 40
0.00984722
 41
0.00984722
  0
VERTEX
  8
0
 10
5.31392
 20
1.80257
 30
0.0
 40
0.00984722
 41
0.00984722
  0
VERTEX
  8
0
 10
5.30908
 20
1.80035
 30
0.0
 40
0.00984722
 41
0.00984722
  0
VERTEX
  8
0
 10
5.30431
 20
1.7979
 30
0.0
 40
0.00984722
 41
0.00984722
  0
VERTEX
  8
0
 10
5.29969
 20
1.79531
 30
0.0
 40
0.00984722
 41
0.00984722
  0
VERTEX
  8
0
 10
5.29519
 20
1.79243
 30
0.0
 40
0.00984722
 41
0.00984722
  0
VERTEX
  8
0
 10
5.29081
 20
1.78933
 30
0.0
 40
0.00984722
 41
0.00984722
  0
VERTEX
  8
0
 10
5.28657
 20
1.78614
 30
0.0
 40
0.00984722
 41
0.00984722
  0
VERTEX
  8
0
 10
5.2825
 20
1.78267
 30
0.0
 40
0.00984722
 41
0.00984722
  0
VERTEX
  8
0
 10
5.2786
 20
1.77903
 30
0.0
 40
0.00984722
 41
0.00984722
  0
VERTEX
  8
0
 10
5.27485
 20
1.77522
 30
0.0
 40
0.00984722
 41
0.00984722
  0
VERTEX
  8
0
 10
5.27126
 20
1.77126
 30
0.0
 40
0.00984722
 41
0.00984722
  0
VERTEX
  8
0
 10
5.26785
 20
1.76714
 30
0.0
 40
0.00984722
 41
0.00984722
  0
VERTEX
  8
0
 10
5.26465
 20
1.76292
 30
0.0
 40
0.00984722
 41
0.00984722
  0
VERTEX
  8
0
 10
5.26161
 20
1.75851
 30
0.0
 40
0.00984722
 41
0.00984722
  0
VERTEX
  8
0
 10
5.25885
 20
1.75396
 30
0.0
 40
0.00984722
 41
0.00984722
  0
VERTEX
  8
0
 10
5.25624
 20
1.74929
 30
0.0
 40
0.00984722
 41
0.00984722
  0
VERTEX
  8
0
 10
5.25385
 20
1.74451
 30
0.0
 40
0.00984722
 41
0.00984722
  0
VERTEX
  8
0
 10
5.25168
 20
1.73964
 30
0.0
 40
0.00984722
 41
0.00984722
  0
VERTEX
  8
0
 10
5.24972
 20
1.73465
 30
0.0
 40
0.00984722
 41
0.00984722
  0
VERTEX
  8
0
 10
5.24799
 20
1.7296
 30
0.0
 40
0.00984722
 41
0.00984722
  0
VERTEX
  8
0
 10
5.24653
 20
1.7245
 30
0.0
 40
0.00984722
 41
0.00984722
  0
VERTEX
  8
0
 10
5.24528
 20
1.71929
 30
0.0
 40
0.00984722
 41
0.00984722
  0
VERTEX
  8
0
 10
5.24425
 20
1.71403
 30
0.0
 40
0.00984722
 41
0.00984722
  0
VERTEX
  8
0
 10
5.24349
 20
1.70876
 30
0.0
 40
0.00984722
 41
0.00984722
  0
VERTEX
  8
0
 10
5.24294
 20
1.70344
 30
0.0
 40
0.00984722
 41
0.00984722
  0
VERTEX
  8
0
 10
5.24262
 20
1.69814
 30
0.0
 40
0.00984722
 41
0.00984722
  0
VERTEX
  8
0
 10
5.24257
 20
1.69276
 30
0.0
 40
0.00984722
 41
0.00984722
  0
VERTEX
  8
0
 10
5.24274
 20
1.68744
 30
0.0
 40
0.00984722
 41
0.00984722
  0
VERTEX
  8
0
 10
5.24317
 20
1.68212
 30
0.0
 40
0.00984722
 41
0.00984722
  0
VERTEX
  8
0
 10
5.24382
 20
1.67686
 30
0.0
 40
0.00984722
 41
0.00984722
  0
VERTEX
  8
0
 10
5.24474
 20
1.6716
 30
0.0
 40
0.00984722
 41
0.00984722
  0
VERTEX
  8
0
 10
5.24588
 20
1.66635
 30
0.0
 40
0.00984722
 41
0.00984722
  0
VERTEX
  8
0
 10
5.24724
 20
1.66118
 30
0.0
 40
0.00984722
 41
0.00984722
  0
VERTEX
  8
0
 10
5.24886
 20
1.65608
 30
0.0
 40
0.00984722
 41
0.00984722
  0
VERTEX
  8
0
 10
5.25065
 20
1.6511
 30
0.0
 40
0.00984722
 41
0.00984722
  0
VERTEX
  8
0
 10
5.25271
 20
1.64615
 30
0.0
 40
0.00984722
 41
0.00984722
  0
VERTEX
  8
0
 10
5.25499
 20
1.64133
 30
0.0
 40
0.00984722
 41
0.00984722
  0
VERTEX
  8
0
 10
5.25749
 20
1.63661
 30
0.0
 40
0.00984722
 41
0.00984722
  0
VERTEX
  8
0
 10
5.26019
 20
1.632
 30
0.0
 40
0.00984722
 41
0.00984722
  0
VERTEX
  8
0
 10
5.26313
 20
1.62756
 30
0.0
 40
0.00984722
 41
0.00984722
  0
VERTEX
  8
0
 10
5.26622
 20
1.62321
 30
0.0
 40
0.00984722
 41
0.00984722
  0
VERTEX
  8
0
 10
5.26953
 20
1.61903
 30
0.0
 40
0.00984722
 41
0.00984722
  0
VERTEX
  8
0
 10
5.273
 20
1.61496
 30
0.0
 40
0.00984722
 41
0.00984722
  0
VERTEX
  8
0
 10
5.27669
 20
1.61106
 30
0.0
 40
0.00984722
 41
0.00984722
  0
VERTEX
  8
0
 10
5.28054
 20
1.60736
 30
0.0
 40
0.00984722
 41
0.00984722
  0
VERTEX
  8
0
 10
5.2845
 20
1.60385
 30
0.0
 40
0.00984722
 41
0.00984722
  0
VERTEX
  8
0
 10
5.28868
 20
1.60047
 30
0.0
 40
0.00984722
 41
0.00984722
  0
VERTEX
  8
0
 10
5.29297
 20
1.59733
 30
0.0
 40
0.00984722
 41
0.00984722
  0
VERTEX
  8
0
 10
5.29742
 20
1.59435
 30
0.0
 40
0.00984722
 41
0.00984722
  0
VERTEX
  8
0
 10
5.30197
 20
1.59164
 30
0.0
 40
0.00984722
 41
0.00984722
  0
VERTEX
  8
0
 10
5.30669
 20
1.58908
 30
0.0
 40
0.00984722
 41
0.00984722
  0
VERTEX
  8
0
 10
5.31147
 20
1.58675
 30
0.0
 40
0.00984722
 41
0.00984722
  0
VERTEX
  8
0
 10
5.3164
 20
1.58464
 30
0.0
 40
0.00984722
 41
0.00984722
  0
VERTEX
  8
0
 10
5.3214
 20
1.58274
 30
0.0
 40
0.00984722
 41
0.00984722
  0
VERTEX
  8
0
 10
5.32644
 20
1.58106
 30
0.0
 40
0.00984722
 41
0.00984722
  0
VERTEX
  8
0
 10
5.3316
 20
1.57964
 30
0.0
 40
0.00984722
 41
0.00984722
  0
VERTEX
  8
0
 10
5.33681
 20
1.57844
 30
0.0
 40
0.00984722
 41
0.00984722
  0
VERTEX
  8
0
 10
5.34207
 20
1.57747
 30
0.0
 40
0.00984722
 41
0.00984722
  0
VERTEX
  8
0
 10
5.34733
 20
1.57676
 30
0.0
 40
0.00984722
 41
0.00984722
  0
VERTEX
  8
0
 10
5.35265
 20
1.57628
 30
0.0
 40
0.00984722
 41
0.00984722
  0
VERTEX
  8
0
 10
5.35801
 20
1.57607
 30
0.0
 40
0.00984722
 41
0.00984722
  0
VERTEX
  8
0
 10
5.36333
 20
1.57607
 30
0.0
 40
0.00984722
 41
0.00984722
  0
VERTEX
  8
0
 10
5.36865
 20
1.57628
 30
0.0
 40
0.00984722
 41
0.00984722
  0
VERTEX
  8
0
 10
5.37397
 20
1.57676
 30
0.0
 40
0.00984722
 41
0.00984722
  0
VERTEX
  8
0
 10
5.37929
 20
1.57747
 30
0.0
 40
0.00984722
 41
0.00984722
  0
VERTEX
  8
0
 10
5.38456
 20
1.57844
 30
0.0
 40
0.00984722
 41
0.00984722
  0
VERTEX
  8
0
 10
5.38976
 20
1.57964
 30
0.0
 40
0.00984722
 41
0.00984722
  0
VERTEX
  8
0
 10
5.39486
 20
1.58106
 30
0.0
 40
0.00984722
 41
0.00984722
  0
VERTEX
  8
0
 10
5.39996
 20
1.58274
 30
0.0
 40
0.00984722
 41
0.00984722
  0
VERTEX
  8
0
 10
5.40494
 20
1.58464
 30
0.0
 40
0.00984722
 41
0.00984722
  0
VERTEX
  8
0
 10
5.40983
 20
1.58675
 30
0.0
 40
0.00984722
 41
0.00984722
  0
VERTEX
  8
0
 10
5.41465
 20
1.58908
 30
0.0
 40
0.00984722
 41
0.00984722
  0
VERTEX
  8
0
 10
5.41932
 20
1.59164
 30
0.0
 40
0.00984722
 41
0.00984722
  0
VERTEX
  8
0
 10
5.42393
 20
1.59435
 30
0.0
 40
0.00984722
 41
0.00984722
  0
VERTEX
  8
0
 10
5.42833
 20
1.59733
 30
0.0
 40
0.00984722
 41
0.00984722
  0
VERTEX
  8
0
 10
5.43267
 20
1.60047
 30
0.0
 40
0.00984722
 41
0.00984722
  0
VERTEX
  8
0
 10
5.43679
 20
1.60385
 30
0.0
 40
0.00984722
 41
0.00984722
  0
VERTEX
  8
0
 10
5.44081
 20
1.60736
 30
0.0
 40
0.00984722
 41
0.00984722
  0
VERTEX
  8
0
 10
5.44467
 20
1.61106
 30
0.0
 40
0.00984722
 41
0.00984722
  0
VERTEX
  8
0
 10
5.44829
 20
1.61496
 30
0.0
 40
0.00984722
 41
0.00984722
  0
VERTEX
  8
0
 10
5.45182
 20
1.61903
 30
0.0
 40
0.00984722
 41
0.00984722
  0
VERTEX
  8
0
 10
5.45514
 20
1.62321
 30
0.0
 40
0.00984722
 41
0.00984722
  0
VERTEX
  8
0
 10
5.45822
 20
1.62756
 30
0.0
 40
0.00984722
 41
0.00984722
  0
VERTEX
  8
0
 10
5.4611
 20
1.632
 30
0.0
 40
0.00984722
 41
0.00984722
  0
VERTEX
  8
0
 10
5.46382
 20
1.63661
 30
0.0
 40
0.00984722
 41
0.00984722
  0
VERTEX
  8
0
 10
5.46631
 20
1.64133
 30
0.0
 40
0.00984722
 41
0.00984722
  0
VERTEX
  8
0
 10
5.46858
 20
1.64615
 30
0.0
 40
0.00984722
 41
0.00984722
  0
VERTEX
  8
0
 10
5.47065
 20
1.6511
 30
0.0
 40
0.00984722
 41
0.00984722
  0
VERTEX
  8
0
 10
5.4725
 20
1.65608
 30
0.0
 40
0.00984722
 41
0.00984722
  0
VERTEX
  8
0
 10
5.47407
 20
1.66118
 30
0.0
 40
0.00984722
 41
0.00984722
  0
VERTEX
  8
0
 10
5.47547
 20
1.66635
 30
0.0
 40
0.00984722
 41
0.00984722
  0
VERTEX
  8
0
 10
5.47661
 20
1.6716
 30
0.0
 40
0.00984722
 41
0.00984722
  0
VERTEX
  8
0
 10
5.47749
 20
1.67686
 30
0.0
 40
0.00984722
 41
0.00984722
  0
VERTEX
  8
0
 10
5.47814
 20
1.68212
 30
0.0
 40
0.00984722
 41
0.00984722
  0
VERTEX
  8
0
 10
5.47857
 20
1.68744
 30
0.0
 40
0.00984722
 41
0.00984722
  0
VERTEX
  8
0
 10
5.47879
 20
1.69276
 30
0.0
 40
0.00984722
 41
0.00984722
  0
VERTEX
  8
0
 10
5.47868
 20
1.69814
 30
0.0
 40
0.00984722
 41
0.00984722
  0
VERTEX
  8
0
 10
5.4784
 20
1.70344
 30
0.0
 40
0.00984722
 41
0.00984722
  0
VERTEX
  8
0
 10
5.47786
 20
1.70876
 30
0.0
 40
0.00984722
 41
0.00984722
  0
VERTEX
  8
0
 10
5.47711
 20
1.71403
 30
0.0
 40
0.00984722
 41
0.00984722
  0
VERTEX
  8
0
 10
5.47607
 20
1.71929
 30
0.0
 40
0.00984722
 41
0.00984722
  0
VERTEX
  8
0
 10
5.47483
 20
1.7245
 30
0.0
 40
0.00984722
 41
0.00984722
  0
VERTEX
  8
0
 10
5.47331
 20
1.7296
 30
0.0
 40
0.00984722
 41
0.00984722
  0
VERTEX
  8
0
 10
5.47163
 20
1.73465
 30
0.0
 40
0.00984722
 41
0.00984722
  0
VERTEX
  8
0
 10
5.46967
 20
1.73964
 30
0.0
 40
0.00984722
 41
0.00984722
  0
VERTEX
  8
0
 10
5.4675
 20
1.74451
 30
0.0
 40
0.00984722
 41
0.00984722
  0
VERTEX
  8
0
 10
5.46511
 20
1.74929
 30
0.0
 40
0.00984722
 41
0.00984722
  0
VERTEX
  8
0
 10
5.46251
 20
1.75396
 30
0.0
 40
0.00984722
 41
0.00984722
  0
VERTEX
  8
0
 10
5.45969
 20
1.75851
 30
0.0
 40
0.00984722
 41
0.00984722
  0
VERTEX
  8
0
 10
5.45671
 20
1.76292
 30
0.0
 40
0.00984722
 41
0.00984722
  0
VERTEX
  8
0
 10
5.4535
 20
1.76714
 30
0.0
 40
0.00984722
 41
0.00984722
  0
VERTEX
  8
0
 10
5.45008
 20
1.77126
 30
0.0
 40
0.00984722
 41
0.00984722
  0
VERTEX
  8
0
 10
5.4465
 20
1.77522
 30
0.0
 40
0.00984722
 41
0.00984722
  0
VERTEX
  8
0
 10
5.44276
 20
1.77903
 30
0.0
 40
0.00984722
 41
0.00984722
  0
VERTEX
  8
0
 10
5.43881
 20
1.78267
 30
0.0
 40
0.00984722
 41
0.00984722
  0
VERTEX
  8
0
 10
5.43474
 20
1.78614
 30
0.0
 40
0.00984722
 41
0.00984722
  0
VERTEX
  8
0
 10
5.4305
 20
1.78933
 30
0.0
 40
0.00984722
 41
0.00984722
  0
VERTEX
  8
0
 10
5.42617
 20
1.79243
 30
0.0
 40
0.00984722
 41
0.00984722
  0
VERTEX
  8
0
 10
5.42165
 20
1.79531
 30
0.0
 40
0.00984722
 41
0.00984722
  0
VERTEX
  8
0
 10
5.41699
 20
1.7979
 30
0.0
 40
0.00984722
 41
0.00984722
  0
VERTEX
  8
0
 10
5.41228
 20
1.80035
 30
0.0
 40
0.00984722
 41
0.00984722
  0
VERTEX
  8
0
 10
5.40739
 20
1.80257
 30
0.0
 40
0.00984722
 41
0.00984722
  0
VERTEX
  8
0
 10
5.40246
 20
1.80458
 30
0.0
 40
0.00984722
 41
0.00984722
  0
VERTEX
  8
0
 10
5.3974
 20
1.80638
 30
0.0
 40
0.00984722
 41
0.00984722
  0
VERTEX
  8
0
 10
5.39231
 20
1.80789
 30
0.0
 40
0.00984722
 41
0.00984722
  0
VERTEX
  8
0
 10
5.38715
 20
1.80925
 30
0.0
 40
0.00984722
 41
0.00984722
  0
VERTEX
  8
0
 10
5.38189
 20
1.81033
 30
0.0
 40
0.00984722
 41
0.00984722
  0
VERTEX
  8
0
 10
5.37663
 20
1.81114
 30
0.0
 40
0.00984722
 41
0.00984722
  0
VERTEX
  8
0
 10
5.37131
 20
1.81174
 30
0.0
 40
0.00984722
 41
0.00984722
  0
VERTEX
  8
0
 10
5.366
 20
1.81213
 30
0.0
 40
0.00984722
 41
0.00984722
  0
VERTEX
  8
0
 10
5.36068
 20
1.81222
 30
0.0
 40
0.00984722
 41
0.00984722
  0
SEQEND
 8
0
  0
POLYLINE
  8
0
 62
     0
 66
     1
 10
0
 20
0
 30
0.0
 40
0.709
 41
0.709
  0
VERTEX
  8
0
 10
1.6205
 20
1.18229
 30
0.0
 40
0.00984722
 41
0.00984722
  0
VERTEX
  8
0
 10
1.6205
 20
2.20594
 30
0.0
 40
0.00984722
 41
0.00984722
  0
SEQEND
 8
0
  0
POLYLINE
  8
0
 62
     0
 66
     1
 10
0
 20
0
 30
0.0
 40
0.709
 41
0.709
  0
VERTEX
  8
0
 10
6.34489
 20
1.10357
 30
0.0
 40
0.00984722
 41
0.00984722
  0
VERTEX
  8
0
 10
1.6205
 20
1.10357
 30
0.0
 40
0.00984722
 41
0.00984722
  0
SEQEND
 8
0
  0
POLYLINE
  8
0
 62
     0
 66
     1
 10
0
 20
0
 30
0.0
 40
0.709
 41
0.709
  0
VERTEX
  8
0
 10
6.34489
 20
1.18229
 30
0.0
 40
0.00984722
 41
0.00984722
  0
VERTEX
  8
0
 10
6.34489
 20
1.10357
 30
0.0
 40
0.00984722
 41
0.00984722
  0
SEQEND
 8
0
  0
POLYLINE
  8
0
 62
     0
 66
     1
 10
0
 20
0
 30
0.0
 40
0.709
 41
0.709
  0
VERTEX
  8
0
 10
1.6205
 20
1.10357
 30
0.0
 40
0.00984722
 41
0.00984722
  0
VERTEX
  8
0
 10
1.6205
 20
1.18229
 30
0.0
 40
0.00984722
 41
0.00984722
  0
SEQEND
 8
0
  0
POLYLINE
  8
0
 62
     0
 66
     1
 10
0
 20
0
 30
0.0
 40
0.51
 41
0.51
  0
VERTEX
  8
0
 10
4.77013
 20
2.08783
 30
0.0
 40
0.00708333
 41
0.00708333
  0
VERTEX
  8
0
 10
4.77013
 20
1.3004
 30
0.0
 40
0.00708333
 41
0.00708333
  0
SEQEND
 8
0
  0
POLYLINE
  8
0
 62
     0
 66
     1
 10
0
 20
0
 30
0.0
 40
0.51
 41
0.51
  0
VERTEX
  8
0
 10
5.24257
 20
1.69412
 30
0.0
 40
0.00708333
 41
0.00708333
  0
VERTEX
  8
0
 10
5.24268
 20
1.69694
 30
0.0
 40
0.00708333
 41
0.00708333
  0
SEQEND
 8
0
  0
POLYLINE
  8
0
 62
     0
 66
     1
 10
0
 20
0
 30
0.0
 40
0.51
 41
0.51
  0
VERTEX
  8
0
 10
5.3565
 20
1.81207
 30
0.0
 40
0.00708333
 41
0.00708333
  0
VERTEX
  8
0
 10
5.36208
 20
1.81222
 30
0.0
 40
0.00708333
 41
0.00708333
  0
VERTEX
  8
0
 10
5.36708
 20
1.81196
 30
0.0
 40
0.00708333
 41
0.00708333
  0
SEQEND
 8
0
  0
POLYLINE
  8
0
 62
     0
 66
     1
 10
0
 20
0
 30
0.0
 40
0.51
 41
0.51
  0
VERTEX
  8
0
 10
5.24268
 20
1.69103
 30
0.0
 40
0.00708333
 41
0.00708333
  0
VERTEX
  8
0
 10
5.24257
 20
1.69412
 30
0.0
 40
0.00708333
 41
0.00708333
  0
SEQEND
 8
0
  0
POLYLINE
  8
0
 62
     0
 66
     1
 10
0
 20
0
 30
0.0
 40
0.51
 41
0.51
  0
VERTEX
  8
0
 10
3.19532
 20
1.69412
 30
0.0
 40
0.00708333
 41
0.00708333
  0
VERTEX
  8
0
 10
3.19532
 20
2.08783
 30
0.0
 40
0.00708333
 41
0.00708333
  0
SEQEND
 8
0
  0
POLYLINE
  8
0
 62
     0
 66
     1
 10
0
 20
0
 30
0.0
 40
0.51
 41
0.51
  0
VERTEX
  8
0
 10
3.19532
 20
1.3004
 30
0.0
 40
0.00708333
 41
0.00708333
  0
VERTEX
  8
0
 10
3.19532
 20
1.69412
 30
0.0
 40
0.00708333
 41
0.00708333
  0
SEQEND
 8
0
  0
POLYLINE
  8
0
 62
     0
 66
     1
 10
0
 20
0
 30
0.0
 40
0.51
 41
0.51
  0
VERTEX
  8
0
 10
6.34494
 20
2.08783
 30
0.0
 40
0.00708333
 41
0.00708333
  0
VERTEX
  8
0
 10
4.77013
 20
2.08783
 30
0.0
 40
0.00708333
 41
0.00708333
  0
SEQEND
 8
0
  0
POLYLINE
  8
0
 62
     0
 66
     1
 10
0
 20
0
 30
0.0
 40
0.51
 41
0.51
  0
VERTEX
  8
0
 10
4.77013
 20
1.3004
 30
0.0
 40
0.00708333
 41
0.00708333
  0
VERTEX
  8
0
 10
6.34494
 20
1.3004
 30
0.0
 40
0.00708333
 41
0.00708333
  0
SEQEND
 8
0
  0
POLYLINE
  8
0
 62
     0
 66
     1
 10
0
 20
0
 30
0.0
 40
0.51
 41
0.51
  0
VERTEX
  8
0
 10
1.6205
 20
1.3004
 30
0.0
 40
0.00708333
 41
0.00708333
  0
VERTEX
  8
0
 10
3.19532
 20
1.3004
 30
0.0
 40
0.00708333
 41
0.00708333
  0
SEQEND
 8
0
  0
POLYLINE
  8
0
 62
     0
 66
     1
 10
0
 20
0
 30
0.0
 40
0.51
 41
0.51
  0
VERTEX
  8
0
 10
3.19532
 20
2.08783
 30
0.0
 40
0.00708333
 41
0.00708333
  0
VERTEX
  8
0
 10
1.6205
 20
2.08783
 30
0.0
 40
0.00708333
 41
0.00708333
  0
SEQEND
 8
0
  0
POLYLINE
  8
0
 62
     0
 66
     1
 10
0
 20
0
 30
0.0
 40
0.709
 41
0.709
  0
VERTEX
  8
0
 10
11.9035
 20
6.80024
 30
0.0
 40
0.00984722
 41
0.00984722
  0
VERTEX
  8
0
 10
9.935
 20
6.80024
 30
0.0
 40
0.00984722
 41
0.00984722
  0
SEQEND
 8
0
  0
POLYLINE
  8
0
 62
     0
 66
     1
 10
0
 20
0
 30
0.0
 40
0.709
 41
0.709
  0
VERTEX
  8
0
 10
9.935
 20
5.61914
 30
0.0
 40
0.00984722
 41
0.00984722
  0
VERTEX
  8
0
 10
11.9035
 20
5.61914
 30
0.0
 40
0.00984722
 41
0.00984722
  0
SEQEND
 8
0
  0
POLYLINE
  8
0
 62
     0
 66
     1
 10
0
 20
0
 30
0.0
 40
0.709
 41
0.709
  0
VERTEX
  8
0
 10
9.935
 20
6.6034
 30
0.0
 40
0.00984722
 41
0.00984722
  0
VERTEX
  8
0
 10
9.62001
 20
6.6034
 30
0.0
 40
0.00984722
 41
0.00984722
  0
SEQEND
 8
0
  0
POLYLINE
  8
0
 62
     0
 66
     1
 10
0
 20
0
 30
0.0
 40
0.709
 41
0.709
  0
VERTEX
  8
0
 10
9.62001
 20
5.81597
 30
0.0
 40
0.00984722
 41
0.00984722
  0
VERTEX
  8
0
 10
9.935
 20
5.81597
 30
0.0
 40
0.00984722
 41
0.00984722
  0
SEQEND
 8
0
  0
POLYLINE
  8
0
 62
     0
 66
     1
 10
0
 20
0
 30
0.0
 40
0.709
 41
0.709
  0
VERTEX
  8
0
 10
11.9035
 20
6.20969
 30
0.0
 40
0.00984722
 41
0.00984722
  0
VERTEX
  8
0
 10
11.9035
 20
6.80024
 30
0.0
 40
0.00984722
 41
0.00984722
  0
SEQEND
 8
0
  0
POLYLINE
  8
0
 62
     0
 66
     1
 10
0
 20
0
 30
0.0
 40
0.709
 41
0.709
  0
VERTEX
  8
0
 10
11.9035
 20
5.61914
 30
0.0
 40
0.00984722
 41
0.00984722
  0
VERTEX
  8
0
 10
11.9035
 20
6.20969
 30
0.0
 40
0.00984722
 41
0.00984722
  0
SEQEND
 8
0
  0
POLYLINE
  8
0
 62
     0
 66
     1
 10
0
 20
0
 30
0.0
 40
0.709
 41
0.709
  0
VERTEX
  8
0
 10
9.935
 20
6.20969
 30
0.0
 40
0.00984722
 41
0.00984722
  0
VERTEX
  8
0
 10
9.935
 20
6.80024
 30
0.0
 40
0.00984722
 41
0.00984722
  0
SEQEND
 8
0
  0
POLYLINE
  8
0
 62
     0
 66
     1
 10
0
 20
0
 30
0.0
 40
0.709
 41
0.709
  0
VERTEX
  8
0
 10
9.935
 20
5.61914
 30
0.0
 40
0.00984722
 41
0.00984722
  0
VERTEX
  8
0
 10
9.935
 20
6.20969
 30
0.0
 40
0.00984722
 41
0.00984722
  0
SEQEND
 8
0
  0
POLYLINE
  8
0
 62
     0
 66
     1
 10
0
 20
0
 30
0.0
 40
0.709
 41
0.709
  0
VERTEX
  8
0
 10
9.62001
 20
6.20969
 30
0.0
 40
0.00984722
 41
0.00984722
  0
VERTEX
  8
0
 10
9.62001
 20
6.6034
 30
0.0
 40
0.00984722
 41
0.00984722
  0
SEQEND
 8
0
  0
POLYLINE
  8
0
 62
     0
 66
     1
 10
0
 20
0
 30
0.0
 40
0.709
 41
0.709
  0
VERTEX
  8
0
 10
9.62001
 20
5.81597
 30
0.0
 40
0.00984722
 41
0.00984722
  0
VERTEX
  8
0
 10
9.62001
 20
6.20969
 30
0.0
 40
0.00984722
 41
0.00984722
  0
SEQEND
 8
0
  0
POLYLINE
  8
0
 62
     0
 66
     1
 10
0
 20
0
 30
0.0
 40
0.51
 41
0.51
  0
VERTEX
  8
0
 10
10.9979
 20
6.20969
 30
0.0
 40
0.00708333
 41
0.00708333
  0
VERTEX
  8
0
 10
10.9979
 20
6.4459
 30
0.0
 40
0.00708333
 41
0.00708333
  0
SEQEND
 8
0
  0
POLYLINE
  8
0
 62
     0
 66
     1
 10
0
 20
0
 30
0.0
 40
0.51
 41
0.51
  0
VERTEX
  8
0
 10
10.9979
 20
5.97347
 30
0.0
 40
0.00708333
 41
0.00708333
  0
VERTEX
  8
0
 10
10.9979
 20
6.20969
 30
0.0
 40
0.00708333
 41
0.00708333
  0
SEQEND
 8
0
  0
POLYLINE
  8
0
 62
     0
 66
     1
 10
0
 20
0
 30
0.0
 40
0.51
 41
0.51
  0
VERTEX
  8
0
 10
11.0808
 20
6.20969
 30
0.0
 40
0.00708333
 41
0.00708333
  0
VERTEX
  8
0
 10
11.0808
 20
6.30811
 30
0.0
 40
0.00708333
 41
0.00708333
  0
SEQEND
 8
0
  0
POLYLINE
  8
0
 62
     0
 66
     1
 10
0
 20
0
 30
0.0
 40
0.51
 41
0.51
  0
VERTEX
  8
0
 10
11.0808
 20
6.11128
 30
0.0
 40
0.00708333
 41
0.00708333
  0
VERTEX
  8
0
 10
11.0808
 20
6.20969
 30
0.0
 40
0.00708333
 41
0.00708333
  0
SEQEND
 8
0
  0
POLYLINE
  8
0
 62
     0
 66
     1
 10
0
 20
0
 30
0.0
 40
0.51
 41
0.51
  0
VERTEX
  8
0
 10
9.62001
 20
5.97347
 30
0.0
 40
0.00708333
 41
0.00708333
  0
VERTEX
  8
0
 10
10.998
 20
5.97347
 30
0.0
 40
0.00708333
 41
0.00708333
  0
SEQEND
 8
0
  0
POLYLINE
  8
0
 62
     0
 66
     1
 10
0
 20
0
 30
0.0
 40
0.51
 41
0.51
  0
VERTEX
  8
0
 10
10.9979
 20
6.4459
 30
0.0
 40
0.00708333
 41
0.00708333
  0
VERTEX
  8
0
 10
9.62001
 20
6.4459
 30
0.0
 40
0.00708333
 41
0.00708333
  0
SEQEND
 8
0
  0
POLYLINE
  8
0
 62
     0
 66
     1
 10
0
 20
0
 30
0.0
 40
0.51
 41
0.51
  0
VERTEX
  8
0
 10
10.9979
 20
5.97347
 30
0.0
 40
0.00708333
 41
0.00708333
  0
VERTEX
  8
0
 10
11.0808
 20
6.11128
 30
0.0
 40
0.00708333
 41
0.00708333
  0
SEQEND
 8
0
  0
POLYLINE
  8
0
 62
     0
 66
     1
 10
0
 20
0
 30
0.0
 40
0.51
 41
0.51
  0
VERTEX
  8
0
 10
11.0808
 20
6.30811
 30
0.0
 40
0.00708333
 41
0.00708333
  0
VERTEX
  8
0
 10
10.998
 20
6.4459
 30
0.0
 40
0.00708333
 41
0.00708333
  0
SEQEND
 8
0
  0
POLYLINE
  8
0
 62
     0
 66
     1
 10
0
 20
0
 30
0.0
 40
0.51
 41
0.51
  0
VERTEX
  8
0
 10
11.0808
 20
6.11128
 30
0.0
 40
0.00708333
 41
0.00708333
  0
VERTEX
  8
0
 10
11.9035
 20
6.11128
 30
0.0
 40
0.00708333
 41
0.00708333
  0
SEQEND
 8
0
  0
POLYLINE
  8
0
 62
     0
 66
     1
 10
0
 20
0
 30
0.0
 40
0.51
 41
0.51
  0
VERTEX
  8
0
 10
11.9035
 20
6.30811
 30
0.0
 40
0.00708333
 41
0.00708333
  0
VERTEX
  8
0
 10
11.0807
 20
6.30811
 30
0.0
 40
0.00708333
 41
0.00708333
  0
SEQEND
 8
0
  0
POLYLINE
  8
0
 62
     0
 66
     1
 10
0
 20
0
 30
0.0
 40
0.709
 41
0.709
  0
VERTEX
  8
0
 10
9.42057
 20
4.00732
 30
0.0
 40
0.00984722
 41
0.00984722
  0
VERTEX
  8
0
 10
9.38118
 20
3.96793
 30
0.0
 40
0.00984722
 41
0.00984722
  0
SEQEND
 8
0
  0
POLYLINE
  8
0
 62
     0
 66
     1
 10
0
 20
0
 30
0.0
 40
0.709
 41
0.709
  0
VERTEX
  8
0
 10
9.38118
 20
2.86561
 30
0.0
 40
0.00984722
 41
0.00984722
  0
VERTEX
  8
0
 10
9.42057
 20
2.82622
 30
0.0
 40
0.00984722
 41
0.00984722
  0
SEQEND
 8
0
  0
POLYLINE
  8
0
 62
     0
 66
     1
 10
0
 20
0
 30
0.0
 40
0.709
 41
0.709
  0
VERTEX
  8
0
 10
9.7749
 20
4.00732
 30
0.0
 40
0.00984722
 41
0.00984722
  0
VERTEX
  8
0
 10
9.42057
 20
4.00732
 30
0.0
 40
0.00984722
 41
0.00984722
  0
SEQEND
 8
0
  0
POLYLINE
  8
0
 62
     0
 66
     1
 10
0
 20
0
 30
0.0
 40
0.709
 41
0.709
  0
VERTEX
  8
0
 10
9.42057
 20
2.82622
 30
0.0
 40
0.00984722
 41
0.00984722
  0
VERTEX
  8
0
 10
9.7749
 20
2.82622
 30
0.0
 40
0.00984722
 41
0.00984722
  0
SEQEND
 8
0
  0
POLYLINE
  8
0
 62
     0
 66
     1
 10
0
 20
0
 30
0.0
 40
0.709
 41
0.709
  0
VERTEX
  8
0
 10
11.6253
 20
3.81049
 30
0.0
 40
0.00984722
 41
0.00984722
  0
VERTEX
  8
0
 10
9.7749
 20
3.81049
 30
0.0
 40
0.00984722
 41
0.00984722
  0
SEQEND
 8
0
  0
POLYLINE
  8
0
 62
     0
 66
     1
 10
0
 20
0
 30
0.0
 40
0.709
 41
0.709
  0
VERTEX
  8
0
 10
9.7749
 20
3.02306
 30
0.0
 40
0.00984722
 41
0.00984722
  0
VERTEX
  8
0
 10
11.6253
 20
3.02306
 30
0.0
 40
0.00984722
 41
0.00984722
  0
SEQEND
 8
0
  0
POLYLINE
  8
0
 62
     0
 66
     1
 10
0
 20
0
 30
0.0
 40
0.709
 41
0.709
  0
VERTEX
  8
0
 10
11.6253
 20
3.02306
 30
0.0
 40
0.00984722
 41
0.00984722
  0
VERTEX
  8
0
 10
11.6647
 20
3.06244
 30
0.0
 40
0.00984722
 41
0.00984722
  0
SEQEND
 8
0
  0
POLYLINE
  8
0
 62
     0
 66
     1
 10
0
 20
0
 30
0.0
 40
0.709
 41
0.709
  0
VERTEX
  8
0
 10
11.6647
 20
3.77111
 30
0.0
 40
0.00984722
 41
0.00984722
  0
VERTEX
  8
0
 10
11.6253
 20
3.81049
 30
0.0
 40
0.00984722
 41
0.00984722
  0
SEQEND
 8
0
  0
POLYLINE
  8
0
 62
     0
 66
     1
 10
0
 20
0
 30
0.0
 40
0.709
 41
0.709
  0
VERTEX
  8
0
 10
9.38118
 20
3.41678
 30
0.0
 40
0.00984722
 41
0.00984722
  0
VERTEX
  8
0
 10
9.38118
 20
3.96793
 30
0.0
 40
0.00984722
 41
0.00984722
  0
SEQEND
 8
0
  0
POLYLINE
  8
0
 62
     0
 66
     1
 10
0
 20
0
 30
0.0
 40
0.709
 41
0.709
  0
VERTEX
  8
0
 10
9.38118
 20
2.86561
 30
0.0
 40
0.00984722
 41
0.00984722
  0
VERTEX
  8
0
 10
9.38118
 20
3.41678
 30
0.0
 40
0.00984722
 41
0.00984722
  0
SEQEND
 8
0
  0
POLYLINE
  8
0
 62
     0
 66
     1
 10
0
 20
0
 30
0.0
 40
0.709
 41
0.709
  0
VERTEX
  8
0
 10
9.42057
 20
3.41678
 30
0.0
 40
0.00984722
 41
0.00984722
  0
VERTEX
  8
0
 10
9.42057
 20
2.82622
 30
0.0
 40
0.00984722
 41
0.00984722
  0
SEQEND
 8
0
  0
POLYLINE
  8
0
 62
     0
 66
     1
 10
0
 20
0
 30
0.0
 40
0.709
 41
0.709
  0
VERTEX
  8
0
 10
9.42057
 20
4.00732
 30
0.0
 40
0.00984722
 41
0.00984722
  0
VERTEX
  8
0
 10
9.42057
 20
3.41678
 30
0.0
 40
0.00984722
 41
0.00984722
  0
SEQEND
 8
0
  0
POLYLINE
  8
0
 62
     0
 66
     1
 10
0
 20
0
 30
0.0
 40
0.709
 41
0.709
  0
VERTEX
  8
0
 10
9.7749
 20
3.41678
 30
0.0
 40
0.00984722
 41
0.00984722
  0
VERTEX
  8
0
 10
9.7749
 20
4.00732
 30
0.0
 40
0.00984722
 41
0.00984722
  0
SEQEND
 8
0
  0
POLYLINE
  8
0
 62
     0
 66
     1
 10
0
 20
0
 30
0.0
 40
0.709
 41
0.709
  0
VERTEX
  8
0
 10
9.7749
 20
2.82622
 30
0.0
 40
0.00984722
 41
0.00984722
  0
VERTEX
  8
0
 10
9.7749
 20
3.41678
 30
0.0
 40
0.00984722
 41
0.00984722
  0
SEQEND
 8
0
  0
POLYLINE
  8
0
 62
     0
 66
     1
 10
0
 20
0
 30
0.0
 40
0.709
 41
0.709
  0
VERTEX
  8
0
 10
11.6253
 20
3.41678
 30
0.0
 40
0.00984722
 41
0.00984722
  0
VERTEX
  8
0
 10
11.6253
 20
3.81049
 30
0.0
 40
0.00984722
 41
0.00984722
  0
SEQEND
 8
0
  0
POLYLINE
  8
0
 62
     0
 66
     1
 10
0
 20
0
 30
0.0
 40
0.709
 41
0.709
  0
VERTEX
  8
0
 10
11.6253
 20
3.02306
 30
0.0
 40
0.00984722
 41
0.00984722
  0
VERTEX
  8
0
 10
11.6253
 20
3.41678
 30
0.0
 40
0.00984722
 41
0.00984722
  0
SEQEND
 8
0
  0
POLYLINE
  8
0
 62
     0
 66
     1
 10
0
 20
0
 30
0.0
 70
     1
 40
0.709
 41
0.709
  0
VERTEX
  8
0
 10
11.1528
 20
3.39844
 30
0.0
 40
0.00984722
 41
0.00984722
  0
VERTEX
  8
0
 10
11.1593
 20
3.39828
 30
0.0
 40
0.00984722
 41
0.00984722
  0
VERTEX
  8
0
 10
11.1658
 20
3.39768
 30
0.0
 40
0.00984722
 41
0.00984722
  0
VERTEX
  8
0
 10
11.1722
 20
3.39675
 30
0.0
 40
0.00984722
 41
0.00984722
  0
VERTEX
  8
0
 10
11.1785
 20
3.39546
 30
0.0
 40
0.00984722
 41
0.00984722
  0
VERTEX
  8
0
 10
11.1848
 20
3.39382
 30
0.0
 40
0.00984722
 41
0.00984722
  0
VERTEX
  8
0
 10
11.1909
 20
3.39187
 30
0.0
 40
0.00984722
 41
0.00984722
  0
VERTEX
  8
0
 10
11.1981
 20
3.389
 30
0.0
 40
0.00984722
 41
0.00984722
  0
VERTEX
  8
0
 10
11.2051
 20
3.38569
 30
0.0
 40
0.00984722
 41
0.00984722
  0
VERTEX
  8
0
 10
11.2119
 20
3.38194
 30
0.0
 40
0.00984722
 41
0.00984722
  0
VERTEX
  8
0
 10
11.2185
 20
3.37776
 30
0.0
 40
0.00984722
 41
0.00984722
  0
VERTEX
  8
0
 10
11.2247
 20
3.37321
 30
0.0
 40
0.00984722
 41
0.00984722
  0
VERTEX
  8
0
 10
11.2298
 20
3.36897
 30
0.0
 40
0.00984722
 41
0.00984722
  0
VERTEX
  8
0
 10
11.2347
 20
3.36447
 30
0.0
 40
0.00984722
 41
0.00984722
  0
VERTEX
  8
0
 10
11.2393
 20
3.35969
 30
0.0
 40
0.00984722
 41
0.00984722
  0
VERTEX
  8
0
 10
11.2437
 20
3.35476
 30
0.0
 40
0.00984722
 41
0.00984722
  0
VERTEX
  8
0
 10
11.2477
 20
3.34956
 30
0.0
 40
0.00984722
 41
0.00984722
  0
VERTEX
  8
0
 10
11.2515
 20
3.34418
 30
0.0
 40
0.00984722
 41
0.00984722
  0
VERTEX
  8
0
 10
11.255
 20
3.33849
 30
0.0
 40
0.00984722
 41
0.00984722
  0
VERTEX
  8
0
 10
11.2582
 20
3.33263
 30
0.0
 40
0.00984722
 41
0.00984722
  0
VERTEX
  8
0
 10
11.2611
 20
3.32667
 30
0.0
 40
0.00984722
 41
0.00984722
  0
VERTEX
  8
0
 10
11.2636
 20
3.32053
 30
0.0
 40
0.00984722
 41
0.00984722
  0
VERTEX
  8
0
 10
11.2658
 20
3.31429
 30
0.0
 40
0.00984722
 41
0.00984722
  0
VERTEX
  8
0
 10
11.2676
 20
3.308
 30
0.0
 40
0.00984722
 41
0.00984722
  0
VERTEX
  8
0
 10
11.2689
 20
3.30181
 30
0.0
 40
0.00984722
 41
0.00984722
  0
VERTEX
  8
0
 10
11.27
 20
3.29563
 30
0.0
 40
0.00984722
 41
0.00984722
  0
VERTEX
  8
0
 10
11.2706
 20
3.28939
 30
0.0
 40
0.00984722
 41
0.00984722
  0
VERTEX
  8
0
 10
11.2709
 20
3.28315
 30
0.0
 40
0.00984722
 41
0.00984722
  0
VERTEX
  8
0
 10
11.2709
 20
3.27696
 30
0.0
 40
0.00984722
 41
0.00984722
  0
VERTEX
  8
0
 10
11.2704
 20
3.27089
 30
0.0
 40
0.00984722
 41
0.00984722
  0
VERTEX
  8
0
 10
11.2695
 20
3.26383
 30
0.0
 40
0.00984722
 41
0.00984722
  0
VERTEX
  8
0
 10
11.268
 20
3.25694
 30
0.0
 40
0.00984722
 41
0.00984722
  0
VERTEX
  8
0
 10
11.2661
 20
3.25022
 30
0.0
 40
0.00984722
 41
0.00984722
  0
VERTEX
  8
0
 10
11.2637
 20
3.2436
 30
0.0
 40
0.00984722
 41
0.00984722
  0
VERTEX
  8
0
 10
11.2608
 20
3.23731
 30
0.0
 40
0.00984722
 41
0.00984722
  0
VERTEX
  8
0
 10
11.2574
 20
3.23113
 30
0.0
 40
0.00984722
 41
0.00984722
  0
VERTEX
  8
0
 10
11.2536
 20
3.22521
 30
0.0
 40
0.00984722
 41
0.00984722
  0
VERTEX
  8
0
 10
11.2494
 20
3.21951
 30
0.0
 40
0.00984722
 41
0.00984722
  0
VERTEX
  8
0
 10
11.2448
 20
3.21414
 30
0.0
 40
0.00984722
 41
0.00984722
  0
VERTEX
  8
0
 10
11.2399
 20
3.2091
 30
0.0
 40
0.00984722
 41
0.00984722
  0
VERTEX
  8
0
 10
11.2352
 20
3.20503
 30
0.0
 40
0.00984722
 41
0.00984722
  0
VERTEX
  8
0
 10
11.2304
 20
3.20111
 30
0.0
 40
0.00984722
 41
0.00984722
  0
VERTEX
  8
0
 10
11.2252
 20
3.19754
 30
0.0
 40
0.00984722
 41
0.00984722
  0
VERTEX
  8
0
 10
11.2198
 20
3.19417
 30
0.0
 40
0.00984722
 41
0.00984722
  0
VERTEX
  8
0
 10
11.2143
 20
3.19114
 30
0.0
 40
0.00984722
 41
0.00984722
  0
VERTEX
  8
0
 10
11.2085
 20
3.18832
 30
0.0
 40
0.00984722
 41
0.00984722
  0
VERTEX
  8
0
 10
11.2025
 20
3.18582
 30
0.0
 40
0.00984722
 41
0.00984722
  0
VERTEX
  8
0
 10
11.1963
 20
3.1836
 30
0.0
 40
0.00984722
 41
0.00984722
  0
VERTEX
  8
0
 10
11.19
 20
3.18164
 30
0.0
 40
0.00984722
 41
0.00984722
  0
VERTEX
  8
0
 10
11.1835
 20
3.18001
 30
0.0
 40
0.00984722
 41
0.00984722
  0
VERTEX
  8
0
 10
11.1769
 20
3.17871
 30
0.0
 40
0.00984722
 41
0.00984722
  0
VERTEX
  8
0
 10
11.1703
 20
3.17774
 30
0.0
 40
0.00984722
 41
0.00984722
  0
VERTEX
  8
0
 10
11.1638
 20
3.17708
 30
0.0
 40
0.00984722
 41
0.00984722
  0
VERTEX
  8
0
 10
11.1573
 20
3.17671
 30
0.0
 40
0.00984722
 41
0.00984722
  0
VERTEX
  8
0
 10
11.1508
 20
3.17665
 30
0.0
 40
0.00984722
 41
0.00984722
  0
VERTEX
  8
0
 10
11.1443
 20
3.17692
 30
0.0
 40
0.00984722
 41
0.00984722
  0
VERTEX
  8
0
 10
11.1378
 20
3.17746
 30
0.0
 40
0.00984722
 41
0.00984722
  0
VERTEX
  8
0
 10
11.1314
 20
3.17828
 30
0.0
 40
0.00984722
 41
0.00984722
  0
VERTEX
  8
0
 10
11.124
 20
3.17964
 30
0.0
 40
0.00984722
 41
0.00984722
  0
VERTEX
  8
0
 10
11.1167
 20
3.18138
 30
0.0
 40
0.00984722
 41
0.00984722
  0
VERTEX
  8
0
 10
11.1095
 20
3.18354
 30
0.0
 40
0.00984722
 41
0.00984722
  0
VERTEX
  8
0
 10
11.1026
 20
3.18604
 30
0.0
 40
0.00984722
 41
0.00984722
  0
VERTEX
  8
0
 10
11.0959
 20
3.18892
 30
0.0
 40
0.00984722
 41
0.00984722
  0
VERTEX
  8
0
 10
11.0892
 20
3.19228
 30
0.0
 40
0.00984722
 41
0.00984722
  0
VERTEX
  8
0
 10
11.0828
 20
3.19601
 30
0.0
 40
0.00984722
 41
0.00984722
  0
VERTEX
  8
0
 10
11.0768
 20
3.20008
 30
0.0
 40
0.00984722
 41
0.00984722
  0
VERTEX
  8
0
 10
11.071
 20
3.20454
 30
0.0
 40
0.00984722
 41
0.00984722
  0
VERTEX
  8
0
 10
11.0656
 20
3.20931
 30
0.0
 40
0.00984722
 41
0.00984722
  0
VERTEX
  8
0
 10
11.0612
 20
3.21376
 30
0.0
 40
0.00984722
 41
0.00984722
  0
VERTEX
  8
0
 10
11.0572
 20
3.21838
 30
0.0
 40
0.00984722
 41
0.00984722
  0
VERTEX
  8
0
 10
11.0534
 20
3.22325
 30
0.0
 40
0.00984722
 41
0.00984722
  0
VERTEX
  8
0
 10
11.0499
 20
3.22835
 30
0.0
 40
0.00984722
 41
0.00984722
  0
VERTEX
  8
0
 10
11.0468
 20
3.23367
 30
0.0
 40
0.00984722
 41
0.00984722
  0
VERTEX
  8
0
 10
11.044
 20
3.23915
 30
0.0
 40
0.00984722
 41
0.00984722
  0
VERTEX
  8
0
 10
11.0416
 20
3.24468
 30
0.0
 40
0.00984722
 41
0.00984722
  0
VERTEX
  8
0
 10
11.0396
 20
3.25049
 30
0.0
 40
0.00984722
 41
0.00984722
  0
VERTEX
  8
0
 10
11.0378
 20
3.2564
 30
0.0
 40
0.00984722
 41
0.00984722
  0
VERTEX
  8
0
 10
11.0365
 20
3.26243
 30
0.0
 40
0.00984722
 41
0.00984722
  0
VERTEX
  8
0
 10
11.0355
 20
3.26861
 30
0.0
 40
0.00984722
 41
0.00984722
  0
VERTEX
  8
0
 10
11.0349
 20
3.27479
 30
0.0
 40
0.00984722
 41
0.00984722
  0
VERTEX
  8
0
 10
11.0347
 20
3.28082
 30
0.0
 40
0.00984722
 41
0.00984722
  0
VERTEX
  8
0
 10
11.0349
 20
3.28689
 30
0.0
 40
0.00984722
 41
0.00984722
  0
VERTEX
  8
0
 10
11.0354
 20
3.29297
 30
0.0
 40
0.00984722
 41
0.00984722
  0
VERTEX
  8
0
 10
11.0362
 20
3.2991
 30
0.0
 40
0.00984722
 41
0.00984722
  0
VERTEX
  8
0
 10
11.0374
 20
3.30518
 30
0.0
 40
0.00984722
 41
0.00984722
  0
VERTEX
  8
0
 10
11.039
 20
3.31114
 30
0.0
 40
0.00984722
 41
0.00984722
  0
VERTEX
  8
0
 10
11.0412
 20
3.31819
 30
0.0
 40
0.00984722
 41
0.00984722
  0
VERTEX
  8
0
 10
11.0439
 20
3.32514
 30
0.0
 40
0.00984722
 41
0.00984722
  0
VERTEX
  8
0
 10
11.0472
 20
3.33197
 30
0.0
 40
0.00984722
 41
0.00984722
  0
VERTEX
  8
0
 10
11.0507
 20
3.3386
 30
0.0
 40
0.00984722
 41
0.00984722
  0
VERTEX
  8
0
 10
11.0547
 20
3.345
 30
0.0
 40
0.00984722
 41
0.00984722
  0
VERTEX
  8
0
 10
11.0593
 20
3.35129
 30
0.0
 40
0.00984722
 41
0.00984722
  0
VERTEX
  8
0
 10
11.0643
 20
3.35736
 30
0.0
 40
0.00984722
 41
0.00984722
  0
VERTEX
  8
0
 10
11.0697
 20
3.36313
 30
0.0
 40
0.00984722
 41
0.00984722
  0
VERTEX
  8
0
 10
11.0754
 20
3.36854
 30
0.0
 40
0.00984722
 41
0.00984722
  0
VERTEX
  8
0
 10
11.0815
 20
3.37358
 30
0.0
 40
0.00984722
 41
0.00984722
  0
VERTEX
  8
0
 10
11.0869
 20
3.37756
 30
0.0
 40
0.00984722
 41
0.00984722
  0
VERTEX
  8
0
 10
11.0926
 20
3.38124
 30
0.0
 40
0.00984722
 41
0.00984722
  0
VERTEX
  8
0
 10
11.0985
 20
3.38465
 30
0.0
 40
0.00984722
 41
0.00984722
  0
VERTEX
  8
0
 10
11.1045
 20
3.38769
 30
0.0
 40
0.00984722
 41
0.00984722
  0
VERTEX
  8
0
 10
11.1108
 20
3.39035
 30
0.0
 40
0.00984722
 41
0.00984722
  0
VERTEX
  8
0
 10
11.1172
 20
3.39268
 30
0.0
 40
0.00984722
 41
0.00984722
  0
VERTEX
  8
0
 10
11.1241
 20
3.39475
 30
0.0
 40
0.00984722
 41
0.00984722
  0
VERTEX
  8
0
 10
11.1312
 20
3.39632
 30
0.0
 40
0.00984722
 41
0.00984722
  0
VERTEX
  8
0
 10
11.1383
 20
3.39751
 30
0.0
 40
0.00984722
 41
0.00984722
  0
VERTEX
  8
0
 10
11.1456
 20
3.39822
 30
0.0
 40
0.00984722
 41
0.00984722
  0
VERTEX
  8
0
 10
11.1528
 20
3.39844
 30
0.0
 40
0.00984722
 41
0.00984722
  0
SEQEND
 8
0
  0
POLYLINE
  8
0
 62
     0
 66
     1
 10
0
 20
0
 30
0.0
 40
0.709
 41
0.709
  0
VERTEX
  8
0
 10
11.6647
 20
3.41678
 30
0.0
 40
0.00984722
 41
0.00984722
  0
VERTEX
  8
0
 10
11.6647
 20
3.06244
 30
0.0
 40
0.00984722
 41
0.00984722
  0
SEQEND
 8
0
  0
POLYLINE
  8
0
 62
     0
 66
     1
 10
0
 20
0
 30
0.0
 40
0.709
 41
0.709
  0
VERTEX
  8
0
 10
11.6647
 20
3.77111
 30
0.0
 40
0.00984722
 41
0.00984722
  0
VERTEX
  8
0
 10
11.6647
 20
3.41678
 30
0.0
 40
0.00984722
 41
0.00984722
  0
SEQEND
 8
0
  0
ENDSEC
  0
EOF
