<?xml version="1.0" encoding="UTF-8" standalone="no"?>
<!-- Created with Inkscape (http://www.inkscape.org/) -->

<svg
   xmlns:dc="http://purl.org/dc/elements/1.1/"
   xmlns:cc="http://creativecommons.org/ns#"
   xmlns:rdf="http://www.w3.org/1999/02/22-rdf-syntax-ns#"
   xmlns:svg="http://www.w3.org/2000/svg"
   xmlns="http://www.w3.org/2000/svg"
   xmlns:sodipodi="http://sodipodi.sourceforge.net/DTD/sodipodi-0.dtd"
   xmlns:inkscape="http://www.inkscape.org/namespaces/inkscape"
   version="1.1"
   id="svg3713"
   xml:space="preserve"
   width="2245.04"
   height="1587.4"
   viewBox="0 0 2245.04 1587.4"
   sodipodi:docname="Clock1-pg5B.svg"
   inkscape:version="0.92.3 (2405546, 2018-03-11)"><metadata
     id="metadata3719"><rdf:RDF><cc:Work
         rdf:about=""><dc:format>image/svg+xml</dc:format><dc:type
           rdf:resource="http://purl.org/dc/dcmitype/StillImage" /><dc:title></dc:title></cc:Work></rdf:RDF></metadata><defs
     id="defs3717" /><sodipodi:namedview
     pagecolor="#ffffff"
     bordercolor="#666666"
     borderopacity="1"
     objecttolerance="10"
     gridtolerance="10"
     guidetolerance="10"
     inkscape:pageopacity="0"
     inkscape:pageshadow="2"
     inkscape:window-width="1920"
     inkscape:window-height="986"
     id="namedview3715"
     showgrid="false"
     inkscape:zoom="0.72776573"
     inkscape:cx="731.74225"
     inkscape:cy="632.18845"
     inkscape:window-x="-11"
     inkscape:window-y="-11"
     inkscape:window-maximized="1"
     inkscape:current-layer="g3721" /><g
     id="g3721"
     inkscape:groupmode="layer"
     inkscape:label="Clock 1 Drawings-Iss4"
     transform="matrix(1.3333333,0,0,-1.3333333,0,1587.4)"><g
       id="g4735"
       transform="translate(843.8616,1117.4967)"><path
         d="m 0,0 v 0 m -208.21,-501.537 v 0 m 186.167,-417.64 v 0"
         style="fill:none;stroke:#000000;stroke-width:0.50999999;stroke-linecap:round;stroke-linejoin:round;stroke-miterlimit:10;stroke-dasharray:none;stroke-opacity:1"
         id="path4737"
         inkscape:connector-curvature="0" /></g><g
       id="g5199"
       transform="translate(796.6082,719.8513)"><path
         d="M 0,0 H -34.016 M 107.717,0 H 34.016 m -68.032,-85.039 h 141.733 m -141.733,70.866 h -136.063 m 0,-56.693 H -34.016 M 0,-0.336 v 0.096 0.079 0.064 0.047 0.032 0.016 V 0 m 0,-0.336 h 34.016 m 0,0 v 0.096 0.079 0.064 0.047 0.032 0.016 V 0 m -68.032,-42.52 v 1.113 1.113 1.11 1.109 1.105 1.102 1.097 1.092 1.085 1.079 1.072 1.063 1.054 1.044 1.034 1.023 1.011 0.998 0.985 0.971 0.957 0.941 0.926 0.909 0.892 0.874 0.856 0.837 0.817 0.797 0.777 0.756 0.734 0.711 0.69 0.665 0.643 0.618 0.594 0.57 0.543 0.519 0.492 0.466 0.439 0.413 0.385 0.358 0.33 0.302 0.274 0.246 0.217 0.189 0.159 0.131 0.102 0.073 0.043 V 0 m 0,-85.039 v 0.014 0.044 0.073 0.102 0.13 0.16 0.189 0.217 0.245 0.274 0.303 0.33 0.358 0.385 0.412 0.44 0.466 0.492 0.518 0.544 0.569 0.594 0.619 0.642 0.666 0.689 0.712 0.734 0.756 0.776 0.798 0.817 0.837 0.856 0.874 0.892 0.909 0.926 0.941 0.957 0.971 0.985 0.998 1.011 1.023 1.034 1.044 1.054 1.063 1.071 1.079 1.086 1.092 1.097 1.101 1.106 1.108 1.111 1.112 1.113 m 141.733,0 v 1.113 1.113 1.11 1.109 1.105 1.102 1.097 1.092 1.085 1.079 1.072 1.063 1.054 1.044 1.034 1.023 1.011 0.998 0.985 0.971 0.957 0.941 0.926 0.909 0.892 0.874 0.856 0.837 0.817 0.797 0.777 0.756 0.734 0.711 0.69 0.665 0.643 0.618 0.594 0.57 0.543 0.519 0.492 0.466 0.439 0.413 0.385 0.358 0.33 0.302 0.274 0.246 0.217 0.189 0.159 0.131 0.102 0.073 0.043 V 0 m 0,-85.039 v 0.014 0.044 0.073 0.102 0.13 0.16 0.189 0.217 0.245 0.274 0.303 0.33 0.358 0.385 0.412 0.44 0.466 0.492 0.518 0.544 0.569 0.594 0.619 0.642 0.666 0.689 0.712 0.734 0.756 0.776 0.798 0.817 0.837 0.856 0.874 0.892 0.909 0.926 0.941 0.957 0.971 0.985 0.998 1.011 1.023 1.034 1.044 1.054 1.063 1.071 1.079 1.086 1.092 1.097 1.101 1.106 1.108 1.111 1.112 1.113 m -277.796,0 v 0.742 0.742 0.74 0.739 0.737 0.735 0.731 0.728 0.724 0.719 0.714 0.709 0.703 0.696 0.689 0.682 0.674 0.665 0.657 0.648 0.637 0.628 0.617 0.606 0.595 0.582 0.571 0.558 0.545 0.531 0.518 0.504 0.489 0.475 0.459 0.444 0.428 0.413 0.396 0.379 0.363 0.345 0.328 0.311 0.293 0.275 0.257 0.238 0.221 0.201 0.183 0.163 0.145 0.126 0.106 0.088 0.067 0.049 0.029 0.01 m 0,-56.693 v 0.01 0.029 0.048 0.068 0.087 0.107 0.126 0.144 0.164 0.183 0.201 0.22 0.239 0.257 0.275 0.293 0.31 0.328 0.346 0.363 0.379 0.396 0.412 0.429 0.444 0.459 0.475 0.489 0.504 0.517 0.532 0.545 0.558 0.57 0.583 0.595 0.606 0.617 0.627 0.638 0.648 0.656 0.666 0.674 0.682 0.689 0.696 0.703 0.709 0.714 0.719 0.724 0.728 0.731 0.734 0.737 0.739 0.741 0.741 0.742 m 36.851,8.504 0.557,-0.018 0.557,-0.056 0.552,-0.091 0.544,-0.127 0.532,-0.162 0.518,-0.196 0.505,-0.23 0.49,-0.262 0.47,-0.292 0.448,-0.321 0.438,-0.359 0.414,-0.39 0.388,-0.416 0.359,-0.441 0.328,-0.463 0.302,-0.495 0.269,-0.517 0.234,-0.535 0.197,-0.551 0.158,-0.561 0.116,-0.555 0.079,-0.564 0.041,-0.569 0.004,-0.57 -0.035,-0.567 -0.07,-0.545 -0.105,-0.541 -0.14,-0.533 -0.173,-0.522 -0.205,-0.507 -0.241,-0.497 -0.274,-0.481 -0.303,-0.463 -0.332,-0.442 -0.359,-0.417 -0.401,-0.407 -0.428,-0.381 -0.454,-0.352 -0.477,-0.321 -0.495,-0.287 -0.52,-0.255 -0.539,-0.22 -0.554,-0.183 -0.566,-0.146 -0.572,-0.106 -0.558,-0.064 -0.563,-0.028 -0.564,0.01 -0.562,0.047 -0.554,0.083 -0.534,0.116 -0.525,0.151 -0.515,0.184 -0.501,0.216 -0.484,0.246 -0.478,0.285 -0.46,0.316 -0.438,0.345 -0.415,0.373 -0.387,0.398 -0.374,0.439 -0.345,0.465 -0.313,0.489 -0.279,0.508 -0.244,0.526 -0.205,0.538 -0.169,0.553 -0.132,0.565 -0.093,0.572 -0.054,0.576 -0.015,0.556 0.023,0.557 0.058,0.556 0.094,0.549 0.13,0.54 0.162,0.523 0.197,0.513 0.229,0.499 0.259,0.482 0.289,0.463 0.329,0.456 0.359,0.434 0.387,0.411 0.412,0.383 0.436,0.354 0.473,0.334 0.497,0.302 0.517,0.268 0.535,0.233 0.548,0.195 0.627,0.172 0.641,0.124 0.65,0.076 0.652,0.025"
         style="fill:none;stroke:#000000;stroke-width:0.70899999;stroke-linecap:round;stroke-linejoin:round;stroke-miterlimit:10;stroke-dasharray:none;stroke-opacity:1"
         id="path5201"
         inkscape:connector-curvature="0" /></g><g
       id="g5203"
       transform="translate(845.0892,677.3317)"><path
         d="M 0,0 V 0.32 0.64 0.958 1.274 1.588 1.899 2.205 2.507 2.804 3.095 3.38 3.658 3.929 4.191 4.445 4.69 4.925 5.151 5.365 5.569 5.761 5.942 6.11 v 0.156 0.143 0.13 0.117 0.103 0.09 0.075 0.061 0.047 0.032 0.019 0.004"
         style="fill:none;stroke:#000000;stroke-width:0.50999999;stroke-linecap:round;stroke-linejoin:round;stroke-miterlimit:10;stroke-dasharray:3.6, 1.8;stroke-dashoffset:0.95700002;stroke-opacity:1"
         id="path5205"
         inkscape:connector-curvature="0" /></g><g
       id="g5207"
       transform="translate(845.0892,670.2451)"><path
         d="m 0,0 v 0.004 0.018 0.033 0.047 0.061 0.075 0.089 0.103 0.117 0.13 0.143 0.156 0.169 0.18 0.193 0.203 0.215 0.225 0.235 0.245 0.254 0.263 0.27 0.278 0.285 0.291 0.297 0.302 0.307 0.31 0.314 0.316 0.319 0.319 0.321"
         style="fill:none;stroke:#000000;stroke-width:0.50999999;stroke-linecap:round;stroke-linejoin:round;stroke-miterlimit:10;stroke-dasharray:3.6, 1.8;stroke-dashoffset:0.95700002;stroke-opacity:1"
         id="path5209"
         inkscape:connector-curvature="0" /></g><g
       id="g5211"
       transform="translate(839.1279,677.3317)"><path
         d="m 0,0 v 0.495 0.494 0.493 0.492 0.491 0.488 0.486 0.483 0.48 0.476 0.472 0.467 0.462 0.458 0.451 0.445 0.439 0.432 0.425 0.417 0.409 0.401 0.393 0.383 0.375 0.365 0.354 0.345 0.334 0.324 0.312 0.301 0.29 0.278 0.266 0.253 0.241 0.229 0.215 0.203 0.189 0.176 0.163 0.148 0.135 0.121 0.107 0.094 0.078 0.065 0.05 0.036 0.022 0.007"
         style="fill:none;stroke:#000000;stroke-width:0.50999999;stroke-linecap:round;stroke-linejoin:round;stroke-miterlimit:10;stroke-dasharray:3.6, 1.8;stroke-dashoffset:1.39600003;stroke-opacity:1"
         id="path5213"
         inkscape:connector-curvature="0" /></g><g
       id="g5215"
       transform="translate(839.1279,660.3239)"><path
         d="m 0,0 v 0.007 0.022 0.036 0.05 0.065 0.078 0.093 0.107 0.122 0.134 0.149 0.163 0.176 0.189 0.202 0.216 0.228 0.242 0.253 0.266 0.278 0.289 0.302 0.312 0.324 0.334 0.344 0.355 0.365 0.374 0.384 0.392 0.402 0.409 0.417 0.425 0.432 0.439 0.445 0.451 0.457 0.463 0.467 0.472 0.476 0.48 0.483 0.485 0.489 0.49 0.493 0.493 0.494 0.495"
         style="fill:none;stroke:#000000;stroke-width:0.50999999;stroke-linecap:round;stroke-linejoin:round;stroke-miterlimit:10;stroke-dasharray:3.6, 1.8;stroke-dashoffset:1.39600003;stroke-opacity:1"
         id="path5217"
         inkscape:connector-curvature="0" /></g><g
       id="g5219"
       transform="translate(830.624,719.5156)"><path
         d="M 0,0 V -5.334"
         style="fill:none;stroke:#000000;stroke-width:0.50999999;stroke-linecap:round;stroke-linejoin:round;stroke-miterlimit:10;stroke-dasharray:3.6, 1.8;stroke-dashoffset:2.66700006;stroke-opacity:1"
         id="path5221"
         inkscape:connector-curvature="0" /></g><g
       id="g5223"
       transform="translate(796.6082,719.5156)"><path
         d="M 0,0 V -5.334"
         style="fill:none;stroke:#000000;stroke-width:0.50999999;stroke-linecap:round;stroke-linejoin:round;stroke-miterlimit:10;stroke-dasharray:3.6, 1.8;stroke-dashoffset:2.66700006;stroke-opacity:1"
         id="path5225"
         inkscape:connector-curvature="0" /></g><g
       id="g5227"
       transform="translate(830.624,714.182)"><path
         d="M 0,0 H -34.016"
         style="fill:none;stroke:#000000;stroke-width:0.50999999;stroke-linecap:round;stroke-linejoin:round;stroke-miterlimit:10;stroke-dasharray:3.6, 1.8;stroke-dashoffset:0.99199998;stroke-opacity:1"
         id="path5229"
         inkscape:connector-curvature="0" /></g><g
       id="g5231"
       transform="translate(839.1279,660.3239)"><path
         d="M 0,0 5.961,9.921"
         style="fill:none;stroke:#000000;stroke-width:0.50999999;stroke-linecap:round;stroke-linejoin:round;stroke-miterlimit:10;stroke-dasharray:3.6, 1.8;stroke-dashoffset:1.41299999;stroke-opacity:1"
         id="path5233"
         inkscape:connector-curvature="0" /></g><g
       id="g5235"
       transform="translate(845.0892,684.4183)"><path
         d="M 0,0 -5.961,9.921"
         style="fill:none;stroke:#000000;stroke-width:0.50999999;stroke-linecap:round;stroke-linejoin:round;stroke-miterlimit:10;stroke-dasharray:3.6, 1.8;stroke-dashoffset:1.41299999;stroke-opacity:1"
         id="path5237"
         inkscape:connector-curvature="0" /></g><g
       id="g5239"
       transform="translate(626.5295,660.3239)"><path
         d="M 0,0 H 212.598"
         style="fill:none;stroke:#000000;stroke-width:0.50999999;stroke-linecap:round;stroke-linejoin:round;stroke-miterlimit:10;stroke-dasharray:3.6, 1.8;stroke-dashoffset:0.801;stroke-opacity:1"
         id="path5241"
         inkscape:connector-curvature="0" /></g><g
       id="g5243"
       transform="translate(839.1279,694.3395)"><path
         d="M 0,0 H -212.598"
         style="fill:none;stroke:#000000;stroke-width:0.50999999;stroke-linecap:round;stroke-linejoin:round;stroke-miterlimit:10;stroke-dasharray:3.6, 1.8;stroke-dashoffset:0.801;stroke-opacity:1"
         id="path5245"
         inkscape:connector-curvature="0" /></g><g
       id="g5247"
       transform="translate(845.0892,670.2451)"><path
         d="M 0,0 H 59.236"
         style="fill:none;stroke:#000000;stroke-width:0.50999999;stroke-linecap:round;stroke-linejoin:round;stroke-miterlimit:10;stroke-dasharray:3.6, 1.8;stroke-dashoffset:1.88199997;stroke-opacity:1"
         id="path5249"
         inkscape:connector-curvature="0" /></g><g
       id="g5251"
       transform="translate(904.3248,684.4183)"><path
         d="M 0,0 H -59.236"
         style="fill:none;stroke:#000000;stroke-width:0.50999999;stroke-linecap:round;stroke-linejoin:round;stroke-miterlimit:10;stroke-dasharray:3.6, 1.8;stroke-dashoffset:1.88199997;stroke-opacity:1"
         id="path5253"
         inkscape:connector-curvature="0" /></g><g
       id="g5291"
       transform="translate(117.1624,284.5018)"><path
         d="m 0,0 h -28.346 m 0,-36.85 H 0 m 0,-18.426 h 340.158 m 0,73.701 H 0 m 340.158,-73.701 v 73.701 m -70.867,-45.354 -0.395,0.009 -0.395,0.028 -0.393,0.046 -0.391,0.064 -0.387,0.082 -0.383,0.1 -0.377,0.118 -0.372,0.136 -0.366,0.152 -0.357,0.169 -0.35,0.186 -0.34,0.202 -0.331,0.218 -0.32,0.232 -0.309,0.247 -0.297,0.262 -0.285,0.275 -0.271,0.288 -0.258,0.3 -0.244,0.312 -0.229,0.322 -0.213,0.334 -0.198,0.342 -0.182,0.352 -0.165,0.36 -0.148,0.367 -0.131,0.373 -0.114,0.379 -0.096,0.384 -0.077,0.388 -0.06,0.391 -0.041,0.394 -0.023,0.395 -0.005,0.396 0.014,0.395 0.032,0.395 0.05,0.392 0.069,0.39 0.087,0.386 0.105,0.382 0.122,0.376 0.14,0.37 0.156,0.364 0.174,0.356 0.19,0.347 0.206,0.338 0.221,0.328 0.236,0.317 0.251,0.306 0.265,0.295 0.278,0.281 0.291,0.268 0.303,0.255 0.315,0.24 0.325,0.225 0.336,0.209 0.345,0.194 0.354,0.178 0.361,0.161 0.369,0.144 0.375,0.127 0.38,0.109 0.385,0.091 0.389,0.073 0.392,0.055 0.394,0.037 0.395,0.018 h 0.396 l 0.396,-0.018 0.394,-0.037 0.392,-0.055 0.388,-0.073 0.385,-0.091 0.381,-0.109 0.375,-0.127 0.368,-0.144 0.362,-0.161 0.354,-0.178 0.345,-0.194 0.335,-0.209 0.326,-0.225 0.315,-0.24 0.303,-0.255 0.291,-0.268 0.278,-0.281 0.265,-0.295 0.251,-0.306 0.236,-0.317 0.221,-0.328 0.206,-0.338 0.19,-0.347 0.173,-0.356 0.157,-0.364 0.14,-0.37 0.122,-0.376 0.105,-0.382 0.086,-0.386 0.069,-0.39 0.051,-0.392 0.032,-0.395 0.014,-0.395 -0.005,-0.396 -0.023,-0.395 -0.041,-0.394 -0.06,-0.391 -0.078,-0.388 -0.095,-0.384 -0.114,-0.379 -0.131,-0.373 -0.148,-0.367 -0.165,-0.36 -0.182,-0.352 -0.198,-0.342 -0.214,-0.334 -0.228,-0.322 -0.244,-0.312 -0.258,-0.3 -0.272,-0.288 -0.284,-0.275 -0.297,-0.262 -0.309,-0.247 -0.321,-0.232 -0.33,-0.218 -0.341,-0.202 -0.349,-0.186 -0.358,-0.169 -0.365,-0.152 -0.372,-0.136 -0.378,-0.118 -0.383,-0.1 -0.387,-0.082 -0.39,-0.064 -0.393,-0.046 -0.395,-0.028 -0.396,-0.009 M 0,-55.276 v 73.701 m 0,5.669 h 340.158 m 0,0 V 18.425 M 0,18.425 v 5.669 M 340.158,-60.945 H 0 m 340.158,5.669 v -5.669 M 0,-60.945 v 5.669 m -28.346,36.851 v 0.584 0.584 0.583 0.581 0.579 0.576 0.572 0.568 0.564 0.558 0.553 0.546 0.539 0.532 0.524 0.515 0.506 0.497 0.487 0.476 0.466 0.453 0.442 0.43 0.416 0.404 0.39 0.375 0.362 0.347 0.331 0.316 0.3 0.285 0.268 0.251 0.234 0.218 0.2 0.182 0.165 0.147 0.128 0.111 0.092 0.074 0.056 0.037 0.019 V 0 m 0,-36.85 v 0.002 0.018 0.038 0.055 0.074 0.093 0.11 0.129 0.147 0.165 0.182 0.2 0.217 0.235 0.251 0.268 0.284 0.3 0.317 0.331 0.347 0.361 0.376 0.39 0.403 0.417 0.429 0.442 0.454 0.465 0.477 0.486 0.497 0.507 0.515 0.524 0.532 0.539 0.546 0.553 0.558 0.563 0.569 0.572 0.576 0.578 0.581 0.583 0.584 0.585"
         style="fill:none;stroke:#000000;stroke-width:0.70899999;stroke-linecap:round;stroke-linejoin:round;stroke-miterlimit:10;stroke-dasharray:none;stroke-opacity:1"
         id="path5293"
         inkscape:connector-curvature="0" /></g><g
       id="g5295"
       transform="translate(377.9497,266.0766)"><path
         d="M 0,0 0.002,0.052"
         style="fill:none;stroke:#000000;stroke-width:0.50999999;stroke-linecap:round;stroke-linejoin:round;stroke-miterlimit:10;stroke-dasharray:3.6, 1.8;stroke-dashoffset:0;stroke-opacity:1"
         id="path5297"
         inkscape:connector-curvature="0" /></g><g
       id="g5299"
       transform="translate(386.8997,257.5863)"><path
         d="M 0,0 -0.645,-0.011 -0.994,0.012"
         style="fill:none;stroke:#000000;stroke-width:0.50999999;stroke-linecap:round;stroke-linejoin:round;stroke-miterlimit:10;stroke-dasharray:3.6, 1.8;stroke-dashoffset:0;stroke-opacity:1"
         id="path5301"
         inkscape:connector-curvature="0" /></g><g
       id="g5303"
       transform="translate(377.9773,265.4063)"><path
         d="M 0,0 -0.002,0.018 -0.028,0.67"
         style="fill:none;stroke:#000000;stroke-width:0.50999999;stroke-linecap:round;stroke-linejoin:round;stroke-miterlimit:10;stroke-dasharray:3.6, 1.8;stroke-dashoffset:0;stroke-opacity:1"
         id="path5305"
         inkscape:connector-curvature="0" /></g><g
       id="g5307"
       transform="translate(343.934,294.4231)"><path
         d="m 0,0 v -0.01 -0.029 -0.048 -0.068 -0.088 -0.106 -0.126 -0.144 -0.164 -0.183 -0.201 -0.22 -0.239 -0.257 -0.275 -0.293 -0.31 -0.329 -0.345 -0.363 -0.379 -0.396 -0.412 -0.429 -0.444 -0.459 -0.475 -0.489 -0.504 -0.517 -0.532 -0.545 -0.558 -0.57 -0.583 -0.595 -0.606 -0.617 -0.627 -0.638 -0.648 -0.656 -0.666 -0.674 -0.682 -0.689 -0.696 -0.703 -0.709 -0.714 -0.719 -0.724 -0.728 -0.731 -0.735 -0.736 -0.739 -0.741 -0.741 -0.742 -0.743 -0.741 -0.74 -0.739 -0.737 -0.735 -0.731 -0.728 -0.724 -0.719 -0.714 -0.709 -0.703 -0.696 -0.689 -0.682 -0.674 -0.665 -0.657 -0.648 -0.637 -0.628 -0.617 -0.606 -0.595 -0.582 -0.571 -0.558 -0.545 -0.531 -0.518 -0.504 -0.489 -0.475 -0.459 -0.444 -0.429 -0.412 -0.396 -0.379 -0.363 -0.345 -0.329 -0.31 -0.293 -0.275 -0.257 -0.239 -0.22 -0.201 -0.183 -0.163 -0.145 -0.126 -0.106 -0.088 -0.068 -0.048 -0.029 -0.01"
         style="fill:none;stroke:#000000;stroke-width:0.50999999;stroke-linecap:round;stroke-linejoin:round;stroke-miterlimit:10;stroke-dasharray:3.6, 1.8;stroke-dashoffset:0.454;stroke-opacity:1"
         id="path5309"
         inkscape:connector-curvature="0" /></g><g
       id="g5311"
       transform="translate(457.3199,294.4231)"><path
         d="M 0,0 H -113.386"
         style="fill:none;stroke:#000000;stroke-width:0.50999999;stroke-linecap:round;stroke-linejoin:round;stroke-miterlimit:10;stroke-dasharray:3.6, 1.8;stroke-dashoffset:1.80700004;stroke-opacity:1"
         id="path5313"
         inkscape:connector-curvature="0" /></g><g
       id="g5315"
       transform="translate(343.934,237.7302)"><path
         d="M 0,0 H 113.386"
         style="fill:none;stroke:#000000;stroke-width:0.50999999;stroke-linecap:round;stroke-linejoin:round;stroke-miterlimit:10;stroke-dasharray:3.6, 1.8;stroke-dashoffset:1.80700004;stroke-opacity:1"
         id="path5317"
         inkscape:connector-curvature="0" /></g><g
       id="g5319"
       transform="translate(116.6767,164.0468)"><path
         d="m 0,0 h 340.157 m 0,0 v -5.669 m 0,0 H 0 m 0,0 V 0 m 0,-79.37 h 340.157 m 0,0 v 73.701 m -269.291,-28.347 -0.384,-0.008 -0.384,-0.026 -0.382,-0.044 -0.379,-0.06 -0.377,-0.078 -0.372,-0.095 -0.368,-0.111 -0.362,-0.128 -0.357,-0.144 -0.349,-0.16 -0.342,-0.176 -0.334,-0.19 -0.324,-0.206 -0.315,-0.221 -0.305,-0.234 -0.294,-0.248 -0.282,-0.26 -0.27,-0.274 -0.258,-0.285 -0.245,-0.297 -0.23,-0.307 -0.217,-0.317 -0.202,-0.327 -0.187,-0.336 -0.172,-0.344 -0.156,-0.351 -0.14,-0.358 -0.124,-0.364 -0.107,-0.369 -0.091,-0.374 -0.073,-0.377 -0.056,-0.38 -0.039,-0.383 -0.022,-0.383 -0.004,-0.385 0.013,-0.384 0.03,-0.383 0.048,-0.381 0.065,-0.379 0.082,-0.376 0.098,-0.371 0.116,-0.367 0.132,-0.361 0.148,-0.355 0.164,-0.347 0.179,-0.34 0.195,-0.332 0.209,-0.322 0.224,-0.312 0.238,-0.302 0.251,-0.291 0.264,-0.28 0.276,-0.267 0.289,-0.254 0.299,-0.241 0.31,-0.228 0.32,-0.213 0.329,-0.198 0.338,-0.184 0.346,-0.168 0.353,-0.152 0.359,-0.136 0.365,-0.119 0.371,-0.103 0.374,-0.086 0.378,-0.069 0.381,-0.052 0.383,-0.035 0.384,-0.017 h 0.384 l 0.384,0.017 0.383,0.035 0.381,0.052 0.378,0.069 0.375,0.086 0.37,0.103 0.365,0.119 0.36,0.136 0.353,0.152 0.346,0.168 0.337,0.184 0.33,0.198 0.319,0.213 0.31,0.228 0.3,0.241 0.288,0.254 0.276,0.267 0.264,0.28 0.251,0.291 0.238,0.302 0.224,0.312 0.209,0.322 0.195,0.332 0.18,0.34 0.163,0.347 0.149,0.355 0.131,0.361 0.116,0.367 0.099,0.371 0.082,0.376 0.064,0.379 0.048,0.381 0.031,0.383 0.013,0.384 -0.005,0.385 -0.022,0.383 -0.039,0.383 -0.056,0.38 -0.073,0.377 -0.091,0.374 -0.107,0.369 -0.123,0.364 -0.14,0.358 -0.157,0.351 -0.171,0.344 -0.187,0.336 -0.203,0.327 -0.216,0.317 -0.231,0.307 -0.245,0.297 -0.257,0.285 -0.27,0.274 -0.283,0.26 -0.294,0.248 -0.304,0.234 -0.315,0.221 -0.325,0.206 -0.334,0.19 -0.341,0.176 -0.35,0.16 -0.356,0.144 -0.363,0.128 -0.368,0.111 -0.372,0.095 -0.377,0.078 -0.379,0.06 -0.382,0.044 -0.384,0.026 -0.384,0.008 m 198.425,0 -0.384,-0.008 -0.383,-0.026 -0.382,-0.044 -0.38,-0.06 -0.376,-0.078 -0.373,-0.095 -0.368,-0.111 -0.362,-0.128 -0.357,-0.144 -0.349,-0.16 -0.342,-0.176 -0.334,-0.19 -0.324,-0.206 -0.315,-0.221 -0.305,-0.234 -0.294,-0.248 -0.282,-0.26 -0.27,-0.274 -0.258,-0.285 -0.244,-0.297 -0.231,-0.307 -0.217,-0.317 -0.202,-0.327 -0.187,-0.336 -0.172,-0.344 -0.156,-0.351 -0.14,-0.358 -0.124,-0.364 -0.107,-0.369 -0.09,-0.374 -0.074,-0.377 -0.056,-0.38 -0.039,-0.383 -0.022,-0.383 -0.004,-0.385 0.013,-0.384 0.03,-0.383 0.048,-0.381 0.065,-0.379 0.082,-0.376 0.099,-0.371 0.115,-0.367 0.132,-0.361 0.148,-0.355 0.164,-0.347 0.179,-0.34 0.195,-0.332 0.21,-0.322 0.223,-0.312 0.238,-0.302 0.251,-0.291 0.264,-0.28 0.277,-0.267 0.288,-0.254 0.299,-0.241 0.31,-0.228 0.32,-0.213 0.329,-0.198 0.338,-0.184 0.346,-0.168 0.353,-0.152 0.359,-0.136 0.366,-0.119 0.37,-0.103 0.374,-0.086 0.379,-0.069 0.38,-0.052 0.383,-0.035 0.384,-0.017 h 0.385 l 0.384,0.017 0.382,0.035 0.381,0.052 0.378,0.069 0.375,0.086 0.37,0.103 0.365,0.119 0.36,0.136 0.353,0.152 0.346,0.168 0.338,0.184 0.329,0.198 0.32,0.213 0.31,0.228 0.299,0.241 0.288,0.254 0.276,0.267 0.264,0.28 0.252,0.291 0.237,0.302 0.224,0.312 0.209,0.322 0.195,0.332 0.18,0.34 0.164,0.347 0.148,0.355 0.132,0.361 0.115,0.367 0.099,0.371 0.082,0.376 0.065,0.379 0.047,0.381 0.031,0.383 0.013,0.384 -0.005,0.385 -0.021,0.383 -0.039,0.383 -0.057,0.38 -0.073,0.377 -0.09,0.374 -0.108,0.369 -0.123,0.364 -0.14,0.358 -0.156,0.351 -0.172,0.344 -0.187,0.336 -0.202,0.327 -0.217,0.317 -0.231,0.307 -0.244,0.297 -0.258,0.285 -0.27,0.274 -0.283,0.26 -0.293,0.248 -0.305,0.234 -0.315,0.221 -0.325,0.206 -0.333,0.19 -0.342,0.176 -0.35,0.16 -0.356,0.144 -0.363,0.128 -0.367,0.111 -0.373,0.095 -0.376,0.078 -0.38,0.06 -0.382,0.044 -0.383,0.026 -0.385,0.008 M 0,-79.37 v 73.701 m 340.157,-79.37 H 0 m 340.157,5.669 v -5.669 M 0,-85.039 v 5.669"
         style="fill:none;stroke:#000000;stroke-width:0.70899999;stroke-linecap:round;stroke-linejoin:round;stroke-miterlimit:10;stroke-dasharray:none;stroke-opacity:1"
         id="path5321"
         inkscape:connector-curvature="0" /></g><g
       id="g5323"
       transform="translate(343.4483,149.8736)"><path
         d="m 0,0 v -0.01 -0.029 -0.048 -0.068 -0.088 -0.106 -0.126 -0.144 -0.164 -0.183 -0.201 -0.22 -0.239 -0.257 -0.275 -0.293 -0.31 -0.329 -0.345 -0.363 -0.379 -0.396 -0.412 -0.429 -0.444 -0.459 -0.475 -0.489 -0.504 -0.517 -0.532 -0.545 -0.558 -0.57 -0.583 -0.595 -0.606 -0.617 -0.627 -0.638 -0.648 -0.656 -0.666 -0.674 -0.682 -0.689 -0.696 -0.703 -0.709 -0.714 -0.719 -0.724 -0.728 -0.731 -0.735 -0.736 -0.739 -0.741 -0.741 -0.742 -0.742 -0.742 -0.741 -0.738 -0.737 -0.735 -0.731 -0.728 -0.724 -0.719 -0.714 -0.709 -0.703 -0.696 -0.689 -0.682 -0.674 -0.665 -0.657 -0.648 -0.637 -0.628 -0.617 -0.606 -0.595 -0.582 -0.571 -0.558 -0.545 -0.531 -0.518 -0.504 -0.489 -0.475 -0.459 -0.444 -0.429 -0.412 -0.396 -0.379 -0.363 -0.345 -0.329 -0.31 -0.293 -0.275 -0.257 -0.239 -0.22 -0.201 -0.183 -0.163 -0.145 -0.126 -0.106 -0.088 -0.068 -0.048 -0.029 -0.01"
         style="fill:none;stroke:#000000;stroke-width:0.50999999;stroke-linecap:round;stroke-linejoin:round;stroke-miterlimit:10;stroke-dasharray:3.6, 1.8;stroke-dashoffset:0.454;stroke-opacity:1"
         id="path5325"
         inkscape:connector-curvature="0" /></g><g
       id="g5327"
       transform="translate(377.4641,121.5272)"><path
         d="M 0,0 0.008,0.202"
         style="fill:none;stroke:#000000;stroke-width:0.50999999;stroke-linecap:round;stroke-linejoin:round;stroke-miterlimit:10;stroke-dasharray:3.6, 1.8;stroke-dashoffset:0;stroke-opacity:1"
         id="path5329"
         inkscape:connector-curvature="0" /></g><g
       id="g5331"
       transform="translate(385.6686,130.0176)"><path
         d="M 0,0 0.4,0.012 0.76,-0.007"
         style="fill:none;stroke:#000000;stroke-width:0.50999999;stroke-linecap:round;stroke-linejoin:round;stroke-miterlimit:10;stroke-dasharray:3.6, 1.8;stroke-dashoffset:0;stroke-opacity:1"
         id="path5333"
         inkscape:connector-curvature="0" /></g><g
       id="g5335"
       transform="translate(377.4727,121.3044)"><path
         d="M 0,0 -0.009,0.223"
         style="fill:none;stroke:#000000;stroke-width:0.50999999;stroke-linecap:round;stroke-linejoin:round;stroke-miterlimit:10;stroke-dasharray:3.6, 1.8;stroke-dashoffset:0;stroke-opacity:1"
         id="path5337"
         inkscape:connector-curvature="0" /></g><g
       id="g5339"
       transform="translate(230.0625,121.5272)"><path
         d="m 0,0 v 0.742 0.742 0.74 0.739 0.737 0.734 0.732 0.728 0.723 0.72 0.714 0.709 0.702 0.696 0.69 0.682 0.673 0.666 0.657 0.647 0.638 0.628 0.617 0.606 0.594 0.583 0.571 0.557 0.545 0.532 0.518 0.504 0.489 0.474 0.46 0.444 0.428 0.412 0.396 0.38 0.362 0.346 0.328 0.311 0.293 0.275 0.257 0.238 0.22 0.202 0.182 0.164 0.145 0.125 0.107 0.087 0.068 0.049 0.029 0.009"
         style="fill:none;stroke:#000000;stroke-width:0.50999999;stroke-linecap:round;stroke-linejoin:round;stroke-miterlimit:10;stroke-dasharray:3.6, 1.8;stroke-dashoffset:1.12699997;stroke-opacity:1"
         id="path5341"
         inkscape:connector-curvature="0" /></g><g
       id="g5343"
       transform="translate(230.0625,93.1807)"><path
         d="m 0,0 v 0.01 0.029 0.048 0.068 0.088 0.106 0.126 0.144 0.164 0.183 0.201 0.22 0.239 0.257 0.275 0.293 0.31 0.329 0.345 0.363 0.379 0.396 0.412 0.429 0.444 0.459 0.475 0.489 0.504 0.517 0.532 0.545 0.558 0.57 0.583 0.595 0.606 0.617 0.627 0.638 0.648 0.656 0.666 0.674 0.682 0.689 0.696 0.703 0.709 0.714 0.719 0.724 0.728 0.731 0.734 0.737 0.739 0.741 0.741 0.742"
         style="fill:none;stroke:#000000;stroke-width:0.50999999;stroke-linecap:round;stroke-linejoin:round;stroke-miterlimit:10;stroke-dasharray:3.6, 1.8;stroke-dashoffset:1.12699997;stroke-opacity:1"
         id="path5345"
         inkscape:connector-curvature="0" /></g><g
       id="g5347"
       transform="translate(456.8341,149.8736)"><path
         d="M 0,0 H -113.386"
         style="fill:none;stroke:#000000;stroke-width:0.50999999;stroke-linecap:round;stroke-linejoin:round;stroke-miterlimit:10;stroke-dasharray:3.6, 1.8;stroke-dashoffset:1.80700004;stroke-opacity:1"
         id="path5349"
         inkscape:connector-curvature="0" /></g><g
       id="g5351"
       transform="translate(343.4483,93.1807)"><path
         d="M 0,0 H 113.386"
         style="fill:none;stroke:#000000;stroke-width:0.50999999;stroke-linecap:round;stroke-linejoin:round;stroke-miterlimit:10;stroke-dasharray:3.6, 1.8;stroke-dashoffset:1.80700004;stroke-opacity:1"
         id="path5353"
         inkscape:connector-curvature="0" /></g><g
       id="g5355"
       transform="translate(116.6767,93.1807)"><path
         d="M 0,0 H 113.386"
         style="fill:none;stroke:#000000;stroke-width:0.50999999;stroke-linecap:round;stroke-linejoin:round;stroke-miterlimit:10;stroke-dasharray:3.6, 1.8;stroke-dashoffset:1.80700004;stroke-opacity:1"
         id="path5357"
         inkscape:connector-curvature="0" /></g><g
       id="g5359"
       transform="translate(230.0625,149.8736)"><path
         d="M 0,0 H -113.386"
         style="fill:none;stroke:#000000;stroke-width:0.50999999;stroke-linecap:round;stroke-linejoin:round;stroke-miterlimit:10;stroke-dasharray:3.6, 1.8;stroke-dashoffset:1.80700004;stroke-opacity:1"
         id="path5361"
         inkscape:connector-curvature="0" /></g><g
       id="g5363"
       transform="translate(857.0504,489.1669)"><path
         d="m 0,0 h -141.732 m 0,-85.039 H 0 m -141.732,70.866 h -22.677 m 0,-56.693 h 22.677 M 0,-42.52 v 1.113 1.113 1.11 1.109 1.105 1.102 1.097 1.092 1.085 1.079 1.072 1.063 1.054 1.044 1.034 1.023 1.011 0.998 0.985 0.971 0.957 0.941 0.926 0.909 0.892 0.874 0.856 0.837 0.817 0.797 0.777 0.756 0.734 0.711 0.689 0.667 0.642 0.618 0.594 0.569 0.544 0.519 0.492 0.466 0.439 0.413 0.385 0.358 0.33 0.302 0.274 0.246 0.217 0.189 0.159 0.131 0.102 0.073 0.043 V 0 m 0,-85.039 v 0.014 0.044 0.073 0.102 0.13 0.16 0.189 0.217 0.245 0.274 0.303 0.33 0.358 0.385 0.412 0.44 0.466 0.492 0.518 0.544 0.569 0.594 0.619 0.642 0.666 0.689 0.712 0.734 0.756 0.776 0.798 0.817 0.837 0.856 0.874 0.892 0.909 0.925 0.942 0.956 0.972 0.985 0.998 1.011 1.023 1.034 1.044 1.054 1.063 1.071 1.079 1.086 1.092 1.097 1.101 1.106 1.108 1.111 1.112 1.113 m -141.732,0 v 1.113 1.113 1.11 1.109 1.105 1.102 1.097 1.092 1.085 1.079 1.072 1.063 1.054 1.044 1.034 1.023 1.011 0.998 0.985 0.971 0.957 0.941 0.926 0.909 0.892 0.874 0.856 0.837 0.817 0.797 0.777 0.756 0.734 0.711 0.689 0.667 0.642 0.618 0.594 0.569 0.544 0.519 0.492 0.466 0.439 0.413 0.385 0.358 0.33 0.302 0.274 0.246 0.217 0.189 0.159 0.131 0.102 0.073 0.043 V 0 m 0,-85.039 v 0.014 0.044 0.073 0.102 0.13 0.16 0.189 0.217 0.245 0.274 0.303 0.33 0.358 0.385 0.412 0.44 0.466 0.492 0.518 0.544 0.569 0.594 0.619 0.642 0.666 0.689 0.712 0.734 0.756 0.776 0.798 0.817 0.837 0.856 0.874 0.892 0.909 0.925 0.942 0.956 0.972 0.985 0.998 1.011 1.023 1.034 1.044 1.054 1.063 1.071 1.079 1.086 1.092 1.097 1.101 1.106 1.108 1.111 1.112 1.113 m -22.677,0 v 0.742 0.742 0.74 0.739 0.737 0.735 0.731 0.728 0.724 0.719 0.714 0.709 0.703 0.696 0.689 0.682 0.674 0.665 0.657 0.648 0.637 0.628 0.617 0.606 0.595 0.582 0.571 0.558 0.545 0.531 0.518 0.504 0.489 0.475 0.459 0.444 0.428 0.413 0.396 0.379 0.363 0.345 0.328 0.311 0.293 0.275 0.257 0.238 0.22 0.202 0.183 0.163 0.145 0.126 0.106 0.088 0.067 0.049 0.029 0.01 m 0,-56.693 v 0.01 0.029 0.048 0.068 0.087 0.107 0.126 0.144 0.164 0.183 0.201 0.22 0.239 0.257 0.275 0.293 0.31 0.328 0.346 0.363 0.379 0.396 0.412 0.429 0.444 0.459 0.475 0.489 0.504 0.517 0.532 0.545 0.558 0.57 0.583 0.595 0.606 0.617 0.627 0.638 0.648 0.656 0.666 0.674 0.682 0.689 0.696 0.703 0.709 0.714 0.719 0.724 0.728 0.731 0.734 0.737 0.739 0.741 0.741 0.742"
         style="fill:none;stroke:#000000;stroke-width:0.70899999;stroke-linecap:round;stroke-linejoin:round;stroke-miterlimit:10;stroke-dasharray:none;stroke-opacity:1"
         id="path5365"
         inkscape:connector-curvature="0" /></g><g
       id="g5367"
       transform="translate(791.8535,446.6472)"><path
         d="M 0,0 V 0.445 0.89 1.334 1.778 2.22 2.661 3.099 3.536 3.97 v 0.432 0.429 0.425 0.421 0.418 0.414 0.409 0.404 0.399 0.394 0.389 0.383 0.376 0.37 0.364 0.357 0.349 0.343 0.335 0.326 0.319 0.311 0.302 0.294 0.285 0.275 0.267 0.257 0.247 0.238 0.227 0.218 0.207 0.197 0.186 0.176 0.165 0.154 0.143 0.132 0.121 0.11 0.098 0.087 0.075 0.064 0.053 0.04 0.03 0.017 0.006"
         style="fill:none;stroke:#000000;stroke-width:0.50999999;stroke-linecap:round;stroke-linejoin:round;stroke-miterlimit:10;stroke-dasharray:3.6, 1.8;stroke-dashoffset:1.39600003;stroke-opacity:1"
         id="path5369"
         inkscape:connector-curvature="0" /></g><g
       id="g5371"
       transform="translate(791.8535,429.6393)"><path
         d="M 0,0 V 0.006 0.023 0.052 0.093 0.146 0.209 0.285 0.372 0.47 0.58 0.7 0.832 0.976 1.13 1.295 1.47 1.657 1.854 2.061 2.279 2.506 2.744 2.991 3.248 3.515 3.79 4.075 4.369 4.671 4.982 5.3 v 0.327 0.335 0.342 0.35 0.357 0.364 0.37 0.376 0.383 0.388 0.394 0.4 0.404 0.409 0.414 0.418 0.421 0.425 0.429 0.431 0.435 0.436 0.439 0.441 0.442 0.443 0.445 0.445 0.445"
         style="fill:none;stroke:#000000;stroke-width:0.50999999;stroke-linecap:round;stroke-linejoin:round;stroke-miterlimit:10;stroke-dasharray:3.6, 1.8;stroke-dashoffset:1.39600003;stroke-opacity:1"
         id="path5373"
         inkscape:connector-curvature="0" /></g><g
       id="g5375"
       transform="translate(797.8148,446.6472)"><path
         d="m 0,0 v 0.262 0.261 0.261 0.26 0.258 0.257 0.254 0.252 0.249 0.246 0.242 0.239 0.234 0.23 0.226 0.22 0.214 0.209 0.203 0.197 0.191 0.183 0.176 0.17 0.161 0.154 0.146 0.138 0.13 0.121 0.112 0.104 0.094 0.086 0.076 0.067 0.058 0.048 0.038 0.029 0.02 0.009 0.002"
         style="fill:none;stroke:#000000;stroke-width:0.50999999;stroke-linecap:round;stroke-linejoin:round;stroke-miterlimit:10;stroke-dasharray:3.6, 1.8;stroke-dashoffset:0.95700002;stroke-opacity:1"
         id="path5377"
         inkscape:connector-curvature="0" /></g><g
       id="g5379"
       transform="translate(797.8148,439.5606)"><path
         d="m 0,0 v 0.001 0.01 0.019 0.029 0.039 0.048 0.058 0.067 0.076 0.085 0.095 0.104 0.112 0.121 0.13 0.137 0.146 0.154 0.162 0.169 0.177 0.183 0.19 0.197 0.203 0.209 0.215 0.22 0.225 0.23 0.235 0.238 0.243 0.246 0.249 0.252 0.254 0.256 0.259 0.259 0.261 0.262 0.262"
         style="fill:none;stroke:#000000;stroke-width:0.50999999;stroke-linecap:round;stroke-linejoin:round;stroke-miterlimit:10;stroke-dasharray:3.6, 1.8;stroke-dashoffset:0.95700002;stroke-opacity:1"
         id="path5381"
         inkscape:connector-curvature="0" /></g><g
       id="g5383"
       transform="translate(692.6409,429.6393)"><path
         d="M 0,0 H 99.213"
         style="fill:none;stroke:#000000;stroke-width:0.50999999;stroke-linecap:round;stroke-linejoin:round;stroke-miterlimit:10;stroke-dasharray:3.6, 1.8;stroke-dashoffset:0.79400003;stroke-opacity:1"
         id="path5385"
         inkscape:connector-curvature="0" /></g><g
       id="g5387"
       transform="translate(791.8535,463.6551)"><path
         d="M 0,0 H -99.213"
         style="fill:none;stroke:#000000;stroke-width:0.50999999;stroke-linecap:round;stroke-linejoin:round;stroke-miterlimit:10;stroke-dasharray:3.6, 1.8;stroke-dashoffset:0.79400003;stroke-opacity:1"
         id="path5389"
         inkscape:connector-curvature="0" /></g><g
       id="g5391"
       transform="translate(791.8535,429.6393)"><path
         d="M 0,0 5.961,9.921"
         style="fill:none;stroke:#000000;stroke-width:0.50999999;stroke-linecap:round;stroke-linejoin:round;stroke-miterlimit:10;stroke-dasharray:3.6, 1.8;stroke-dashoffset:1.41299999;stroke-opacity:1"
         id="path5393"
         inkscape:connector-curvature="0" /></g><g
       id="g5395"
       transform="translate(797.8148,453.7338)"><path
         d="M 0,0 -5.961,9.921"
         style="fill:none;stroke:#000000;stroke-width:0.50999999;stroke-linecap:round;stroke-linejoin:round;stroke-miterlimit:10;stroke-dasharray:3.6, 1.8;stroke-dashoffset:1.41299999;stroke-opacity:1"
         id="path5397"
         inkscape:connector-curvature="0" /></g><g
       id="g5399"
       transform="translate(797.8148,439.5606)"><path
         d="M 0,0 H 59.236"
         style="fill:none;stroke:#000000;stroke-width:0.50999999;stroke-linecap:round;stroke-linejoin:round;stroke-miterlimit:10;stroke-dasharray:3.6, 1.8;stroke-dashoffset:1.88199997;stroke-opacity:1"
         id="path5401"
         inkscape:connector-curvature="0" /></g><g
       id="g5403"
       transform="translate(857.0504,453.7338)"><path
         d="M 0,0 H -59.236"
         style="fill:none;stroke:#000000;stroke-width:0.50999999;stroke-linecap:round;stroke-linejoin:round;stroke-miterlimit:10;stroke-dasharray:3.6, 1.8;stroke-dashoffset:1.88199997;stroke-opacity:1"
         id="path5405"
         inkscape:connector-curvature="0" /></g><g
       id="g5415"
       transform="translate(678.2806,288.078)"><path
         d="m 0,0 -2.835,-2.835 m 0,-79.37 L 0,-85.039 M 25.512,0 H 0 M 0,-85.039 H 25.512 M 158.74,-14.173 H 25.512 m 0,-56.693 H 158.74 m 0,0 2.835,2.835 m 0,51.023 -2.835,2.835 M -2.835,-42.52 v 1.039 1.038 1.037 1.035 1.031 1.028 1.024 1.019 1.014 1.007 0.999 0.993 0.983 0.975 0.965 0.955 0.943 0.932 0.919 0.907 0.893 0.878 0.864 0.849 0.832 0.816 0.799 0.781 0.763 0.744 0.725 0.705 0.685 0.664 0.644 0.621 0.6 0.577 0.554 0.532 0.507 0.484 0.459 0.435 0.411 0.385 0.359 0.334 0.308 0.282 0.256 0.229 0.203 0.176 0.149 0.122 0.095 0.068 0.041 0.013 m 0,-79.37 v 0.014 0.041 0.068 0.095 0.122 0.149 0.176 0.203 0.229 0.256 0.282 0.308 0.334 0.359 0.385 0.41 0.435 0.46 0.483 0.508 0.531 0.555 0.577 0.599 0.622 0.643 0.665 0.685 0.705 0.725 0.744 0.763 0.781 0.799 0.816 0.832 0.848 0.864 0.879 0.893 0.906 0.92 0.931 0.944 0.955 0.964 0.975 0.984 0.992 1 1.007 1.013 1.019 1.024 1.028 1.032 1.035 1.036 1.038 1.039 m 2.835,0 v -1.113 -1.112 -1.111 -1.108 -1.106 -1.101 -1.097 -1.092 -1.086 -1.079 -1.071 -1.063 -1.054 -1.044 -1.034 -1.023 -1.011 -0.998 -0.985 -0.972 -0.956 -0.942 -0.925 -0.909 -0.892 -0.874 -0.856 -0.837 -0.817 -0.798 -0.776 -0.756 -0.734 -0.712 -0.689 -0.666 -0.642 -0.619 -0.594 -0.569 -0.544 -0.518 -0.492 -0.466 -0.44 -0.412 -0.385 -0.358 -0.33 -0.303 -0.274 -0.245 -0.217 -0.189 -0.16 -0.13 -0.102 -0.073 -0.044 -0.014 M 0,0 v -0.015 -0.043 -0.073 -0.102 -0.131 -0.159 -0.189 -0.217 -0.246 -0.274 -0.302 -0.33 -0.358 -0.385 -0.413 -0.439 -0.466 -0.492 -0.519 -0.544 -0.569 -0.594 -0.618 -0.643 -0.666 -0.689 -0.711 -0.734 -0.756 -0.777 -0.797 -0.817 -0.837 -0.856 -0.874 -0.892 -0.909 -0.926 -0.941 -0.957 -0.971 -0.985 -0.999 -1.01 -1.023 -1.034 -1.044 -1.054 -1.063 -1.072 -1.079 -1.085 -1.092 -1.097 -1.102 -1.105 -1.109 -1.11 -1.113 -1.113 m 25.512,0 v 1.113 1.113 1.11 1.109 1.105 1.102 1.097 1.092 1.085 1.079 1.072 1.063 1.054 1.044 1.034 1.023 1.01 0.999 0.985 0.971 0.957 0.941 0.926 0.909 0.892 0.874 0.856 0.837 0.817 0.797 0.777 0.756 0.734 0.711 0.689 0.666 0.643 0.618 0.594 0.569 0.544 0.519 0.492 0.466 0.439 0.413 0.385 0.358 0.33 0.302 0.274 0.246 0.217 0.189 0.159 0.131 0.102 0.073 0.043 V 0 m 0,-85.039 v 0.014 0.044 0.073 0.102 0.13 0.16 0.189 0.217 0.245 0.274 0.303 0.33 0.358 0.385 0.412 0.44 0.466 0.492 0.518 0.544 0.569 0.594 0.619 0.642 0.666 0.689 0.712 0.734 0.756 0.776 0.798 0.817 0.837 0.856 0.874 0.892 0.909 0.925 0.942 0.956 0.972 0.985 0.998 1.011 1.023 1.034 1.044 1.054 1.063 1.071 1.079 1.086 1.092 1.097 1.101 1.106 1.108 1.111 1.112 1.113 m 133.228,0 v 0.742 0.742 0.74 0.739 0.737 0.735 0.731 0.728 0.724 0.719 0.714 0.709 0.703 0.696 0.689 0.682 0.674 0.665 0.657 0.648 0.637 0.628 0.617 0.606 0.595 0.582 0.571 0.558 0.545 0.531 0.518 0.504 0.489 0.475 0.459 0.444 0.428 0.413 0.396 0.379 0.363 0.345 0.328 0.311 0.293 0.275 0.257 0.238 0.22 0.202 0.183 0.163 0.145 0.126 0.106 0.087 0.068 0.049 0.029 0.01 m 0,-56.693 v 0.01 0.029 0.048 0.068 0.087 0.107 0.126 0.144 0.164 0.183 0.201 0.22 0.239 0.257 0.275 0.293 0.31 0.328 0.346 0.363 0.379 0.396 0.412 0.429 0.444 0.459 0.475 0.489 0.504 0.517 0.532 0.545 0.558 0.57 0.583 0.595 0.606 0.617 0.627 0.638 0.648 0.656 0.666 0.674 0.682 0.689 0.696 0.703 0.709 0.714 0.719 0.724 0.728 0.731 0.734 0.737 0.739 0.741 0.741 0.742 m -34.016,-1.321 0.465,-0.013 0.464,-0.041 0.463,-0.067 0.457,-0.092 0.451,-0.118 0.443,-0.143 0.518,-0.204 0.505,-0.238 0.489,-0.27 0.471,-0.301 0.448,-0.329 0.367,-0.304 0.35,-0.324 0.332,-0.343 0.314,-0.358 0.293,-0.374 0.271,-0.387 0.254,-0.408 0.231,-0.422 0.207,-0.433 0.182,-0.441 0.157,-0.449 0.129,-0.452 0.099,-0.444 0.073,-0.447 0.048,-0.449 0.021,-0.449 -0.004,-0.445 -0.032,-0.44 -0.07,-0.505 -0.105,-0.497 -0.14,-0.486 -0.173,-0.473 -0.206,-0.456 -0.241,-0.444 -0.273,-0.428 -0.304,-0.408 -0.332,-0.386 -0.358,-0.364 -0.332,-0.295 -0.352,-0.278 -0.37,-0.26 -0.386,-0.241 -0.401,-0.221 -0.415,-0.201 -0.431,-0.181 -0.446,-0.16 -0.457,-0.139 -0.466,-0.117 -0.473,-0.095 -0.478,-0.071 -0.464,-0.047 -0.468,-0.025 -0.47,-0.004 -0.47,0.017 -0.467,0.039 -0.462,0.06 -0.533,0.097 -0.525,0.126 -0.515,0.154 -0.501,0.182 -0.484,0.207 -0.479,0.241 -0.459,0.27 -0.439,0.295 -0.414,0.32 -0.388,0.344 -0.313,0.317 -0.294,0.335 -0.272,0.352 -0.249,0.367 -0.225,0.38 -0.201,0.394 -0.173,0.402 -0.149,0.416 -0.123,0.426 -0.097,0.435 -0.069,0.442 -0.043,0.446 -0.014,0.433 0.011,0.438 0.036,0.439 0.061,0.44 0.086,0.437 0.11,0.432 0.163,0.508 0.197,0.5 0.228,0.491 0.26,0.476 0.289,0.46 0.328,0.456 0.359,0.437 0.387,0.415 0.413,0.39 0.436,0.361 0.392,0.288 0.409,0.266 0.425,0.243 0.437,0.219 0.449,0.193 0.458,0.166 0.5,0.148 0.51,0.116 0.517,0.084 0.521,0.05 0.521,0.017 m 36.851,1.321 v -0.668 -0.667 -0.666 -0.665 -0.664 -0.661 -0.658 -0.655 -0.651 -0.648 -0.642 -0.638 -0.633 -0.626 -0.621 -0.613 -0.607 -0.599 -0.591 -0.583 -0.574 -0.564 -0.556 -0.545 -0.535 -0.525 -0.513 -0.502 -0.491 -0.478 -0.466 -0.454 -0.44 -0.427 -0.414 -0.399 -0.386 -0.371 -0.356 -0.342 -0.326 -0.311 -0.295 -0.28 -0.264 -0.247 -0.231 -0.215 -0.198 -0.181 -0.165 -0.147 -0.13 -0.113 -0.096 -0.079 -0.061 -0.044 -0.026 -0.008 m 0,51.023 v -0.009 -0.026 -0.044 -0.061 -0.078 -0.096 -0.113 -0.13 -0.148 -0.164 -0.181 -0.199 -0.214 -0.231 -0.248 -0.264 -0.279 -0.295 -0.311 -0.327 -0.341 -0.357 -0.371 -0.385 -0.4 -0.413 -0.427 -0.441 -0.453 -0.466 -0.479 -0.49 -0.502 -0.514 -0.524 -0.535 -0.546 -0.555 -0.565 -0.574 -0.583 -0.591 -0.599 -0.606 -0.614 -0.62 -0.627 -0.632 -0.638 -0.643 -0.647 -0.651 -0.656 -0.658 -0.661 -0.663 -0.665 -0.666 -0.668 -0.668"
         style="fill:none;stroke:#000000;stroke-width:0.70899999;stroke-linecap:round;stroke-linejoin:round;stroke-miterlimit:10;stroke-dasharray:none;stroke-opacity:1"
         id="path5417"
         inkscape:connector-curvature="0" /></g></g></svg>