<?xml version="1.0" encoding="UTF-8" standalone="no"?>
<!-- Created with Inkscape (http://www.inkscape.org/) -->

<svg
   xmlns:dc="http://purl.org/dc/elements/1.1/"
   xmlns:cc="http://creativecommons.org/ns#"
   xmlns:rdf="http://www.w3.org/1999/02/22-rdf-syntax-ns#"
   xmlns:svg="http://www.w3.org/2000/svg"
   xmlns="http://www.w3.org/2000/svg"
   xmlns:sodipodi="http://sodipodi.sourceforge.net/DTD/sodipodi-0.dtd"
   xmlns:inkscape="http://www.inkscape.org/namespaces/inkscape"
   version="1.1"
   id="svg10"
   xml:space="preserve"
   width="2245.04"
   height="1587.4"
   viewBox="0 0 2245.04 1587.4"
   sodipodi:docname="Clock1-pg5.svg"
   inkscape:version="0.92.3 (2405546, 2018-03-11)"><metadata
     id="metadata16"><rdf:RDF><cc:Work
         rdf:about=""><dc:format>image/svg+xml</dc:format><dc:type
           rdf:resource="http://purl.org/dc/dcmitype/StillImage" /><dc:title></dc:title></cc:Work></rdf:RDF></metadata><defs
     id="defs14" /><sodipodi:namedview
     pagecolor="#ffffff"
     bordercolor="#666666"
     borderopacity="1"
     objecttolerance="10"
     gridtolerance="10"
     guidetolerance="10"
     inkscape:pageopacity="0"
     inkscape:pageshadow="2"
     inkscape:window-width="1920"
     inkscape:window-height="986"
     id="namedview12"
     showgrid="false"
     inkscape:zoom="0.16993904"
     inkscape:cx="1996.2121"
     inkscape:cy="1573.0357"
     inkscape:window-x="-11"
     inkscape:window-y="-11"
     inkscape:window-maximized="1"
     inkscape:current-layer="g18" /><g
     id="g18"
     inkscape:groupmode="layer"
     inkscape:label="Clock 1 Drawings-Iss4"
     transform="matrix(1.3333333,0,0,-1.3333333,0,1587.4)"><g
       id="g1032"
       transform="translate(843.8616,1117.4967)"><path
         d="m 0,0 v 0 m -208.21,-501.537 v 0 m 186.167,-417.64 v 0"
         style="fill:none;stroke:#000000;stroke-width:0.50999999;stroke-linecap:round;stroke-linejoin:round;stroke-miterlimit:10;stroke-dasharray:none;stroke-opacity:1"
         id="path1034"
         inkscape:connector-curvature="0" /></g><g
       id="g1060"
       transform="translate(100.53122,1052.3107)"><path
         d="M 0,0 H -0.663 M 1.242,0.583 1.663,1.088 M 15.591,0 h 1.417 m -1.417,0 v 1.417 m -77.953,-33.218 v 1.329 m -0.099,-1.424 -1.316,-0.085 m 1.415,-8.482 v -1.348 m -0.08,1.421 -1.336,0.068"
         style="fill:none;stroke:#c0c0c0;stroke-width:0.70899999;stroke-linecap:round;stroke-linejoin:round;stroke-miterlimit:10;stroke-dasharray:none;stroke-opacity:1"
         id="path1062"
         inkscape:connector-curvature="0" /></g><g
       id="g1068"
       transform="translate(119.14367,1153.1762)"><path
         d="M 0,0 V 1.417 M 0,0 H 1.417 M -17,0.573 -16.578,1.13 M -18.145,0 h -0.705"
         style="fill:none;stroke:#c0c0c0;stroke-width:0.70899999;stroke-linecap:round;stroke-linejoin:round;stroke-miterlimit:10;stroke-dasharray:none;stroke-opacity:1"
         id="path1070"
         inkscape:connector-curvature="0" /></g><g
       id="g1472"
       transform="translate(119.14367,1070.9716)"><path
         d="m 0,0 0.023,0.444 0.07,0.44 0.115,0.43 0.16,0.415 0.202,0.397 0.242,0.373 0.28,0.346 0.315,0.315 0.346,0.28 0.373,0.242 0.397,0.202 0.415,0.16 0.43,0.115 0.44,0.07 0.444,0.023 M 0,0 v -1.417 m -1.417,-1.418 0.276,0.028 0.266,0.08 0.245,0.131 0.215,0.176 0.176,0.215 0.131,0.245 0.081,0.266 L 0,-1.417 m -16.728,-1.418 h 15.311 m -15.311,0 -0.162,0.01 -0.161,0.028 -0.156,0.046 -0.15,0.063 -0.141,0.081 -0.132,0.096 -0.119,0.111 -0.106,0.123 m -69.049,34.864 2,-0.054 1.999,-0.099 1.996,-0.144 1.992,-0.19 1.987,-0.234 1.982,-0.28 1.975,-0.323 1.967,-0.369 1.958,-0.413 1.948,-0.457 1.937,-0.5 1.926,-0.545 1.913,-0.588 1.899,-0.631 1.884,-0.673 1.869,-0.716 1.852,-0.758 1.835,-0.8 1.815,-0.841 1.797,-0.882 1.776,-0.922 1.755,-0.962 1.732,-1.001 1.71,-1.04 1.685,-1.079 1.661,-1.116 1.635,-1.154 1.609,-1.19 1.581,-1.226 1.554,-1.262 1.524,-1.297 1.495,-1.33 1.464,-1.364 1.433,-1.397 1.401,-1.429 1.369,-1.46 1.335,-1.49 1.301,-1.521 1.267,-1.549 1.231,-1.578 m -70.444,36.282 0.026,-0.274 0.08,-0.264 0.128,-0.243 0.173,-0.214 0.211,-0.176 0.241,-0.132 0.262,-0.084 0.274,-0.031 m -1.395,12.779 V 34.005 m 0,11.361 0.026,0.273 0.08,0.264 0.128,0.243 0.173,0.214 0.211,0.176 0.241,0.132 0.262,0.084 0.274,0.031 m 0,0 2,0.054 1.999,0.099 1.996,0.144 1.992,0.19 1.987,0.234 1.982,0.28 1.975,0.323 1.967,0.369 1.958,0.413 1.948,0.457 1.937,0.5 1.926,0.545 1.913,0.588 1.899,0.631 1.884,0.673 1.869,0.716 1.852,0.758 1.835,0.8 1.815,0.841 1.797,0.882 1.776,0.922 1.755,0.962 1.732,1.001 1.71,1.04 1.685,1.079 1.661,1.116 1.635,1.154 1.609,1.19 1.581,1.227 1.554,1.261 1.524,1.297 1.495,1.33 1.464,1.364 1.433,1.397 1.401,1.429 1.369,1.46 1.335,1.49 1.301,1.521 1.267,1.549 1.231,1.578 m 1.127,0.558 -0.162,-0.01 -0.161,-0.028 -0.156,-0.046 -0.15,-0.063 -0.141,-0.081 -0.132,-0.096 -0.119,-0.111 -0.106,-0.123 m 1.127,0.558 h 15.311 m 0,0 0.276,-0.028 0.266,-0.08 0.245,-0.131 0.215,-0.176 0.176,-0.215 0.131,-0.245 0.081,-0.266 L 0,80.787 m 0,0 V 79.37 m 0,0 0.023,-0.444 0.07,-0.44 0.115,-0.43 0.16,-0.415 0.202,-0.397 0.242,-0.373 0.28,-0.346 0.315,-0.315 0.346,-0.28 0.373,-0.242 0.397,-0.202 0.415,-0.16 0.43,-0.115 0.44,-0.07 0.444,-0.023 m 561.118,0 H 4.252 M 565.37,72.284 v 2.834 m 0,-2.834 H 4.252 m -7.087,7.086 0.025,-0.585 0.072,-0.581 0.12,-0.574 0.167,-0.561 0.213,-0.546 0.258,-0.526 0.299,-0.503 0.341,-0.477 0.378,-0.447 0.414,-0.414 0.447,-0.378 L 0.376,73.437 0.879,73.138 1.405,72.88 1.951,72.667 2.512,72.5 3.086,72.38 3.667,72.308 4.252,72.284 M -2.835,79.37 H -16.03 m -69.435,-35.389 2.063,0.087 2.06,0.134 2.056,0.18 2.052,0.227 2.046,0.273 2.04,0.319 2.032,0.365 2.023,0.411 2.013,0.457 2.002,0.501 1.991,0.547 1.977,0.592 1.964,0.636 1.949,0.681 1.933,0.724 1.917,0.768 1.898,0.81 1.88,0.854 1.86,0.895 1.839,0.938 1.817,0.978 1.795,1.02 1.772,1.06 1.747,1.099 1.722,1.139 1.696,1.177 1.669,1.215 1.64,1.253 1.613,1.289 1.582,1.325 1.552,1.361 1.522,1.396 1.489,1.429 1.457,1.463 1.423,1.495 1.389,1.527 1.354,1.558 1.319,1.589 1.282,1.617 M -85.465,43.981 V 35.389 M -16.03,0 l -1.282,1.618 -1.319,1.588 -1.354,1.558 -1.389,1.527 -1.423,1.495 -1.457,1.463 -1.489,1.429 -1.522,1.396 -1.552,1.361 -1.582,1.325 -1.613,1.289 -1.64,1.253 -1.669,1.215 -1.696,1.177 -1.722,1.139 -1.747,1.1 -1.772,1.059 -1.795,1.02 -1.817,0.978 -1.839,0.938 -1.86,0.895 -1.88,0.854 -1.898,0.811 -1.917,0.767 -1.933,0.725 -1.949,0.68 -1.964,0.636 -1.977,0.592 -1.991,0.547 -2.002,0.501 -2.013,0.457 -2.023,0.411 -2.032,0.365 -2.04,0.319 -2.046,0.273 -2.052,0.227 -2.056,0.18 -2.06,0.134 -2.063,0.087 M -16.03,0 H -2.835 M 4.252,7.087 3.667,7.062 3.086,6.99 2.512,6.87 1.951,6.703 1.405,6.49 0.879,6.233 0.376,5.933 -0.101,5.592 -0.548,5.214 -0.962,4.8 -1.34,4.353 -1.681,3.876 -1.98,3.373 -2.238,2.847 -2.451,2.301 -2.618,1.74 -2.738,1.166 -2.81,0.585 -2.835,0 M 4.252,7.087 H 565.37 m 0,-2.835 v 2.835 m 0,-2.835 H 4.252 m 31.181,49.606 -0.802,-0.022 -0.799,-0.068 -0.794,-0.114 -0.787,-0.157 -0.776,-0.203 -0.764,-0.245 -0.748,-0.289 -0.731,-0.33 -0.711,-0.372 -0.689,-0.41 -0.665,-0.45 -0.638,-0.486 -0.609,-0.521 -0.58,-0.555 -0.546,-0.587 -0.513,-0.617 -0.477,-0.645 -0.44,-0.671 -0.401,-0.695 -0.361,-0.716 -0.32,-0.735 -0.278,-0.753 -0.235,-0.767 -0.191,-0.779 -0.147,-0.789 -0.102,-0.795 -0.056,-0.8 -0.012,-0.803 0.034,-0.801 0.08,-0.798 0.124,-0.793 0.169,-0.784 0.213,-0.773 0.257,-0.76 0.299,-0.745 0.34,-0.726 0.382,-0.706 0.42,-0.683 0.459,-0.658 0.495,-0.631 0.53,-0.602 0.563,-0.571 0.595,-0.539 0.624,-0.504 0.651,-0.468 0.677,-0.43 0.701,-0.391 0.721,-0.351 0.74,-0.31 0.756,-0.267 0.771,-0.224 0.781,-0.18 0.791,-0.135 0.797,-0.091 0.801,-0.045 h 0.802 l 0.801,0.045 0.797,0.091 0.791,0.135 0.781,0.18 0.771,0.224 0.756,0.267 0.74,0.31 0.721,0.351 0.701,0.391 0.677,0.43 0.651,0.468 0.624,0.504 0.595,0.539 0.563,0.571 0.53,0.602 0.495,0.631 0.459,0.658 0.42,0.683 0.382,0.706 0.34,0.726 0.3,0.745 0.256,0.76 0.213,0.773 0.169,0.784 0.125,0.793 0.079,0.798 0.034,0.801 -0.011,0.803 -0.057,0.8 -0.102,0.795 -0.147,0.789 -0.191,0.779 -0.235,0.767 -0.278,0.753 -0.32,0.735 -0.361,0.716 -0.401,0.695 -0.44,0.671 -0.477,0.645 -0.512,0.617 -0.547,0.587 -0.579,0.555 -0.61,0.521 -0.638,0.486 -0.665,0.45 -0.689,0.41 -0.711,0.372 -0.731,0.33 -0.748,0.289 -0.764,0.245 -0.776,0.203 -0.787,0.157 -0.794,0.114 -0.799,0.068 -0.802,0.022 m 184.252,-9.85 -0.444,-0.023 -0.44,-0.069 -0.431,-0.113 -0.416,-0.157 -0.398,-0.199 -0.376,-0.239 -0.349,-0.276 -0.318,-0.311 -0.286,-0.341 -0.248,-0.37 -0.209,-0.392 -0.168,-0.413 -0.124,-0.427 -0.08,-0.438 -0.034,-0.444 0.011,-0.445 0.057,-0.441 0.102,-0.433 0.147,-0.42 0.188,-0.404 0.229,-0.381 0.268,-0.356 0.302,-0.327 0.334,-0.294 0.363,-0.257 0.387,-0.22 0.408,-0.178 0.424,-0.135 0.436,-0.091 0.442,-0.046 h 0.446 l 0.442,0.046 0.436,0.091 0.424,0.135 0.408,0.178 0.387,0.22 0.363,0.257 0.334,0.294 0.302,0.327 0.268,0.356 0.229,0.381 0.188,0.404 0.147,0.42 0.102,0.433 0.057,0.441 0.011,0.445 -0.034,0.444 -0.08,0.438 -0.124,0.427 -0.168,0.413 -0.209,0.392 -0.248,0.37 -0.285,0.341 -0.319,0.311 -0.349,0.276 -0.376,0.239 -0.398,0.199 -0.416,0.157 -0.431,0.113 -0.439,0.069 -0.445,0.023 m 246.721,0 -0.445,-0.023 -0.44,-0.069 -0.43,-0.113 -0.417,-0.157 -0.398,-0.199 -0.375,-0.239 -0.349,-0.276 -0.319,-0.311 -0.285,-0.341 -0.248,-0.37 -0.21,-0.392 -0.167,-0.413 -0.125,-0.427 -0.079,-0.438 -0.035,-0.444 0.012,-0.445 0.057,-0.441 0.102,-0.433 0.146,-0.42 0.189,-0.404 0.229,-0.381 0.267,-0.356 0.302,-0.327 0.335,-0.294 0.363,-0.257 0.387,-0.22 0.408,-0.178 0.424,-0.135 0.435,-0.091 0.443,-0.046 h 0.445 l 0.443,0.046 0.435,0.091 0.424,0.135 0.408,0.178 0.388,0.22 0.362,0.257 0.335,0.294 0.302,0.327 0.267,0.356 0.229,0.381 0.189,0.404 0.146,0.42 0.102,0.433 0.058,0.441 0.011,0.445 -0.034,0.444 -0.08,0.438 -0.125,0.427 -0.167,0.413 -0.209,0.392 -0.249,0.37 -0.285,0.341 -0.319,0.311 -0.349,0.276 -0.375,0.239 -0.398,0.199 -0.417,0.157 -0.43,0.113 -0.44,0.069 -0.444,0.023 m -361.524,0 -0.445,-0.023 -0.439,-0.069 -0.431,-0.113 -0.416,-0.157 -0.398,-0.199 -0.376,-0.239 -0.349,-0.276 -0.319,-0.311 -0.285,-0.341 -0.248,-0.37 -0.209,-0.392 -0.168,-0.413 -0.124,-0.427 -0.08,-0.438 -0.035,-0.444 0.012,-0.445 0.057,-0.441 0.102,-0.433 0.147,-0.42 0.188,-0.404 0.229,-0.381 0.267,-0.356 0.303,-0.327 0.334,-0.294 0.363,-0.257 0.387,-0.22 0.408,-0.178 0.424,-0.135 0.436,-0.091 0.442,-0.046 h 0.445 l 0.443,0.046 0.436,0.091 0.424,0.135 0.408,0.178 0.387,0.22 0.363,0.257 0.334,0.294 0.302,0.327 0.267,0.356 0.23,0.381 0.188,0.404 0.146,0.42 0.103,0.433 0.057,0.441 0.011,0.445 -0.034,0.444 -0.08,0.438 -0.124,0.427 -0.168,0.413 -0.209,0.392 -0.249,0.37 -0.285,0.341 -0.318,0.311 -0.349,0.276 -0.376,0.239 -0.398,0.199 -0.416,0.157 -0.431,0.113 -0.44,0.069 -0.444,0.023 m 238.677,0 -0.444,-0.023 -0.44,-0.069 -0.431,-0.113 -0.416,-0.157 -0.398,-0.199 -0.376,-0.239 -0.349,-0.276 -0.318,-0.311 -0.286,-0.341 -0.248,-0.37 -0.209,-0.392 -0.168,-0.413 -0.124,-0.427 -0.08,-0.438 -0.034,-0.444 0.011,-0.445 0.057,-0.441 0.102,-0.433 0.147,-0.42 0.188,-0.404 0.23,-0.381 0.267,-0.356 0.302,-0.327 0.334,-0.294 0.363,-0.257 0.387,-0.22 0.408,-0.178 0.424,-0.135 0.436,-0.091 0.442,-0.046 h 0.446 l 0.442,0.046 0.436,0.091 0.424,0.135 0.408,0.178 0.387,0.22 0.363,0.257 0.334,0.294 0.302,0.327 0.268,0.356 0.229,0.381 0.188,0.404 0.147,0.42 0.102,0.433 0.057,0.441 0.011,0.445 -0.034,0.444 -0.08,0.438 -0.124,0.427 -0.168,0.413 -0.209,0.392 -0.248,0.37 -0.285,0.341 -0.319,0.311 -0.349,0.276 -0.376,0.239 -0.398,0.199 -0.416,0.157 -0.431,0.113 -0.439,0.069 -0.445,0.023 M 4.252,9.921 3.584,9.899 2.918,9.831 2.259,9.719 1.609,9.563 0.97,9.363 0.347,9.12 -0.259,8.837 -0.844,8.513 -1.406,8.15 -1.942,7.75 -2.45,7.315 -2.928,6.847 -3.373,6.348 -3.783,5.82 -4.157,5.265 -4.492,4.687 -4.788,4.087 -5.043,3.469 -5.256,2.835 m -9.397,0 h 9.397 m -9.397,0 -1.313,1.607 -1.348,1.578 -1.382,1.547 -1.416,1.517 -1.449,1.486 -1.482,1.453 -1.513,1.42 -1.544,1.387 -1.574,1.352 -1.603,1.317 -1.632,1.282 -1.66,1.245 -1.687,1.209 -1.713,1.171 -1.739,1.133 -1.763,1.095 -1.787,1.055 -1.809,1.016 -1.832,0.976 -1.852,0.935 -1.873,0.894 -1.892,0.853 -1.91,0.811 -1.928,0.769 -1.944,0.726 -1.959,0.683 -1.974,0.639 -1.988,0.597 -2,0.552 -2.012,0.508 -2.023,0.464 -2.033,0.418 -2.041,0.375 -2.049,0.329 -2.055,0.284 -2.062,0.238 -2.066,0.193 -2.07,0.148 m 0,3.176 v -3.176 m 0,3.176 2.07,0.148 2.066,0.193 2.062,0.238 2.055,0.284 2.049,0.329 2.041,0.375 2.033,0.419 2.023,0.463 2.012,0.508 2,0.553 1.988,0.596 1.974,0.639 1.959,0.683 1.944,0.727 1.928,0.768 1.91,0.811 1.892,0.853 1.873,0.894 1.852,0.935 1.832,0.976 1.809,1.016 1.787,1.055 1.763,1.095 1.739,1.133 1.713,1.171 1.687,1.209 1.66,1.245 1.632,1.282 1.603,1.317 1.574,1.352 1.544,1.387 1.513,1.42 1.482,1.453 1.449,1.486 1.416,1.517 1.382,1.547 1.348,1.578 1.313,1.607 m 9.397,0 h -9.397 m 9.397,0 0.213,-0.634 0.255,-0.618 0.296,-0.6 0.335,-0.578 0.374,-0.555 0.41,-0.528 0.445,-0.499 0.478,-0.468 0.508,-0.435 0.536,-0.4 0.562,-0.363 0.585,-0.324 0.606,-0.283 0.623,-0.243 0.639,-0.2 0.65,-0.156 0.659,-0.112 0.666,-0.068 0.668,-0.022 m 561.118,0 H 4.252 M 565.37,9.921 V 69.449 M 4.252,9.921 H 565.37 M 624.898,7.087 H 760.252 M 767.339,0 l -0.025,0.585 -0.072,0.581 -0.12,0.574 -0.167,0.561 -0.213,0.546 -0.258,0.526 -0.299,0.503 -0.341,0.477 -0.378,0.447 -0.414,0.414 -0.447,0.378 -0.477,0.341 -0.503,0.3 -0.526,0.257 -0.546,0.213 -0.561,0.167 -0.574,0.12 -0.581,0.072 -0.585,0.025 M 767.339,0 h 13.195 m 69.435,35.389 -2.063,-0.087 -2.06,-0.134 -2.056,-0.18 -2.052,-0.227 -2.046,-0.273 -2.04,-0.319 -2.032,-0.365 -2.023,-0.411 -2.013,-0.457 -2.002,-0.501 -1.991,-0.547 -1.978,-0.592 -1.963,-0.636 -1.949,-0.68 -1.933,-0.725 -1.917,-0.767 -1.898,-0.811 -1.88,-0.854 -1.86,-0.895 -1.839,-0.938 -1.818,-0.978 -1.795,-1.02 -1.771,-1.059 -1.747,-1.1 -1.722,-1.139 -1.696,-1.177 -1.669,-1.215 -1.64,-1.253 -1.613,-1.289 -1.582,-1.325 -1.552,-1.361 -1.522,-1.396 L 788.758,9.249 787.301,7.786 785.878,6.291 784.489,4.764 783.135,3.206 781.816,1.618 780.534,0 m 69.435,35.389 v 8.592 m -69.435,35.389 1.282,-1.617 1.319,-1.589 1.354,-1.558 1.389,-1.527 1.423,-1.495 1.457,-1.463 1.489,-1.429 1.522,-1.396 1.552,-1.361 1.582,-1.325 1.613,-1.289 1.64,-1.253 1.669,-1.215 1.696,-1.177 1.722,-1.139 1.747,-1.099 1.771,-1.06 1.795,-1.02 1.818,-0.978 1.839,-0.938 1.86,-0.895 1.88,-0.854 1.898,-0.81 1.917,-0.768 1.933,-0.724 1.949,-0.681 1.963,-0.636 1.978,-0.592 1.991,-0.547 2.002,-0.501 2.013,-0.457 2.023,-0.411 2.032,-0.365 2.04,-0.319 2.046,-0.273 2.052,-0.227 2.056,-0.18 2.06,-0.134 2.063,-0.087 M 780.534,79.37 h -13.195 m -7.087,-7.086 0.585,0.024 0.581,0.072 0.574,0.12 0.561,0.167 0.546,0.213 0.526,0.258 0.503,0.299 0.477,0.341 0.447,0.378 0.414,0.414 0.378,0.447 0.341,0.477 0.299,0.503 0.258,0.526 0.213,0.546 0.167,0.561 0.12,0.574 0.072,0.581 0.025,0.585 m -7.087,-7.086 H 624.898 m 0,0 v 2.834 m 139.606,4.252 -0.023,-0.444 -0.07,-0.44 -0.115,-0.43 -0.16,-0.415 -0.202,-0.397 -0.242,-0.373 -0.28,-0.346 -0.315,-0.315 -0.346,-0.28 -0.373,-0.242 -0.397,-0.202 -0.415,-0.16 -0.43,-0.115 -0.44,-0.07 -0.444,-0.023 m 4.252,5.669 V 79.37 m 0,1.417 0.027,0.277 0.081,0.266 0.131,0.245 0.176,0.215 0.215,0.176 0.245,0.131 0.266,0.08 0.276,0.028 m 0,0 h 15.311 m 0,0 0.162,-0.01 0.161,-0.028 0.156,-0.046 0.15,-0.063 0.141,-0.081 0.132,-0.096 0.119,-0.111 0.106,-0.123 m 69.049,-34.864 -2,0.054 -1.999,0.099 -1.996,0.144 -1.992,0.19 -1.987,0.234 -1.982,0.28 -1.975,0.323 -1.967,0.369 -1.958,0.413 -1.948,0.457 -1.937,0.5 -1.926,0.545 -1.913,0.588 -1.899,0.631 -1.885,0.673 -1.868,0.716 -1.852,0.758 -1.835,0.8 -1.815,0.841 -1.797,0.882 -1.776,0.922 -1.755,0.962 -1.732,1.001 -1.71,1.04 -1.685,1.079 -1.661,1.116 -1.636,1.154 -1.608,1.19 -1.582,1.227 -1.553,1.261 -1.524,1.297 -1.495,1.33 -1.464,1.364 -1.433,1.397 -1.401,1.429 -1.369,1.46 -1.335,1.49 -1.301,1.521 -1.267,1.549 -1.231,1.578 m 70.444,-36.281 -0.027,0.273 -0.079,0.264 -0.128,0.243 -0.173,0.214 -0.211,0.176 -0.241,0.132 -0.263,0.084 -0.273,0.031 m 1.395,-1.417 V 34.005 m 0,0 -0.027,-0.274 -0.079,-0.264 -0.128,-0.243 -0.173,-0.214 -0.211,-0.176 -0.241,-0.132 -0.263,-0.084 -0.273,-0.031 m 0,0 -2,-0.054 -1.999,-0.099 -1.996,-0.144 -1.992,-0.19 -1.987,-0.234 -1.982,-0.28 -1.975,-0.323 -1.967,-0.369 -1.958,-0.413 -1.948,-0.457 -1.937,-0.5 -1.926,-0.545 -1.913,-0.588 -1.899,-0.631 -1.885,-0.673 -1.868,-0.716 -1.852,-0.758 -1.835,-0.8 -1.815,-0.841 -1.797,-0.882 -1.776,-0.922 -1.755,-0.962 -1.732,-1.001 -1.71,-1.04 -1.685,-1.079 -1.661,-1.116 -1.636,-1.154 -1.608,-1.19 -1.582,-1.226 -1.553,-1.262 -1.524,-1.297 -1.495,-1.33 -1.464,-1.364 -1.433,-1.397 -1.401,-1.429 -1.369,-1.46 -1.335,-1.49 -1.301,-1.521 -1.267,-1.549 -1.231,-1.578 m -1.127,-0.558 0.162,0.01 0.161,0.028 0.156,0.046 0.15,0.063 0.141,0.081 0.132,0.096 0.119,0.111 0.106,0.123 m -16.438,-0.558 h 15.311 m -16.728,1.418 0.027,-0.277 0.081,-0.266 0.131,-0.245 0.176,-0.215 0.215,-0.176 0.245,-0.131 0.266,-0.08 0.276,-0.028 M 764.504,0 v -1.417 m 0,1.417 -0.023,0.444 -0.07,0.44 -0.115,0.43 -0.16,0.415 -0.202,0.397 -0.242,0.373 -0.28,0.346 -0.315,0.315 -0.346,0.28 -0.373,0.242 -0.397,0.202 -0.415,0.16 -0.43,0.115 -0.44,0.07 -0.444,0.023 m -135.354,0 V 7.087 M 760.252,75.118 H 624.898 M 760.252,4.252 H 624.898 M 760.252,69.449 H 624.898 m 135.354,0 0.668,0.022 0.666,0.068 0.659,0.112 0.65,0.156 0.639,0.2 0.623,0.243 0.606,0.283 0.585,0.324 0.562,0.363 0.536,0.4 0.508,0.435 0.478,0.468 0.445,0.499 0.41,0.528 0.374,0.555 0.335,0.578 0.296,0.6 0.255,0.618 0.213,0.634 m 9.397,0 h -9.397 m 9.397,0 1.313,-1.607 1.348,-1.578 1.382,-1.547 1.416,-1.517 1.449,-1.486 1.481,-1.453 1.514,-1.42 1.543,-1.387 1.575,-1.352 1.603,-1.317 1.632,-1.282 1.66,-1.245 1.687,-1.209 1.713,-1.171 1.739,-1.133 1.763,-1.095 1.787,-1.055 1.809,-1.016 1.832,-0.976 1.852,-0.935 1.873,-0.894 1.892,-0.853 1.91,-0.811 1.927,-0.768 1.945,-0.727 1.959,-0.683 1.974,-0.639 1.988,-0.596 2,-0.553 2.012,-0.508 2.023,-0.463 2.032,-0.419 2.042,-0.375 2.049,-0.329 2.055,-0.284 2.062,-0.238 2.066,-0.193 2.07,-0.148 m 0,-3.176 v 3.176 m 0,-3.176 -2.07,-0.148 -2.066,-0.193 -2.062,-0.238 -2.055,-0.284 -2.049,-0.329 -2.042,-0.375 -2.032,-0.418 -2.023,-0.464 -2.012,-0.508 -2,-0.552 -1.988,-0.597 -1.974,-0.639 -1.959,-0.683 -1.945,-0.726 -1.927,-0.769 -1.91,-0.811 -1.892,-0.853 -1.873,-0.894 -1.852,-0.935 -1.832,-0.976 -1.809,-1.016 -1.787,-1.055 -1.763,-1.095 -1.739,-1.133 -1.713,-1.171 -1.687,-1.209 -1.66,-1.245 -1.632,-1.282 -1.603,-1.317 -1.575,-1.352 -1.543,-1.387 -1.514,-1.42 L 786.065,10.57 784.616,9.084 783.2,7.567 781.818,6.02 780.47,4.442 779.157,2.835 m -9.397,0 h 9.397 m -9.397,0 -0.213,0.634 -0.255,0.618 -0.296,0.6 -0.335,0.578 -0.374,0.555 -0.41,0.528 -0.445,0.499 -0.478,0.468 -0.508,0.435 -0.536,0.4 -0.562,0.363 -0.585,0.324 -0.606,0.283 -0.623,0.243 -0.639,0.2 -0.65,0.156 -0.659,0.112 -0.666,0.068 -0.668,0.022 m -135.354,0 h 135.354 m -135.354,0 V 69.449 M 565.37,9.921 V 7.087 m 0,65.197 v -2.835 m 59.528,2.835 v -2.835 m 0,-59.528 V 7.087 m -29.764,41.811 -0.65,-0.023 -0.647,-0.069 -0.64,-0.114 -0.63,-0.159 -0.618,-0.203 -0.602,-0.247 -0.583,-0.288 -0.561,-0.328 -0.537,-0.367 -0.509,-0.404 -0.48,-0.439 -0.447,-0.472 -0.413,-0.502 -0.377,-0.531 -0.338,-0.555 -0.298,-0.578 -0.257,-0.597 -0.214,-0.614 -0.17,-0.628 -0.126,-0.638 -0.08,-0.645 -0.034,-0.649 0.011,-0.65 0.057,-0.648 0.103,-0.642 0.148,-0.634 0.192,-0.621 0.236,-0.606 0.278,-0.588 0.318,-0.567 0.358,-0.543 0.395,-0.516 0.43,-0.487 0.464,-0.456 0.495,-0.422 0.523,-0.386 0.55,-0.348 0.572,-0.309 0.593,-0.267 0.61,-0.225 0.625,-0.181 0.635,-0.136 0.644,-0.092 0.649,-0.046 h 0.65 l 0.649,0.046 0.643,0.092 0.636,0.136 0.625,0.181 0.61,0.225 0.593,0.267 0.572,0.309 0.549,0.348 0.524,0.386 0.494,0.422 0.464,0.456 0.431,0.487 0.395,0.516 0.358,0.543 0.318,0.567 0.278,0.588 0.235,0.606 0.192,0.621 0.148,0.634 0.103,0.642 0.058,0.648 0.011,0.65 -0.034,0.649 -0.08,0.645 -0.126,0.638 -0.17,0.628 -0.214,0.614 -0.257,0.597 -0.298,0.578 -0.338,0.555 -0.377,0.531 -0.413,0.502 -0.448,0.472 -0.479,0.439 -0.51,0.404 -0.536,0.367 -0.562,0.328 -0.583,0.288 -0.601,0.247 -0.618,0.203 -0.631,0.159 -0.64,0.114 -0.646,0.069 -0.65,0.023 m -29.764,26.22 h 59.528 m 0,-70.866 H 565.37"
         style="fill:none;stroke:#000000;stroke-width:0.70899999;stroke-linecap:round;stroke-linejoin:round;stroke-miterlimit:10;stroke-dasharray:none;stroke-opacity:1"
         id="path1474"
         inkscape:connector-curvature="0" /></g><g
       id="g1480"
       transform="translate(668.21552,1043.8068)"><path
         d="m 0,0 h -549.259 m -5.669,5.669 0.017,-0.445 0.052,-0.442 0.087,-0.436 0.121,-0.429 0.154,-0.417 0.187,-0.405 0.217,-0.388 0.247,-0.37 0.276,-0.35 0.302,-0.326 0.327,-0.303 0.35,-0.275 0.37,-0.248 0.388,-0.217 0.404,-0.186 0.418,-0.155 0.428,-0.12 0.437,-0.087 0.442,-0.053 0.445,-0.017 m -5.669,5.669 h -10.683 m -61.601,-31.692 1.768,0.17 1.765,0.205 1.76,0.24 1.755,0.273 1.749,0.308 1.743,0.341 1.736,0.375 1.729,0.409 1.72,0.443 1.711,0.475 1.702,0.509 1.692,0.542 1.68,0.575 1.67,0.607 1.657,0.639 1.644,0.672 1.631,0.703 1.617,0.735 1.603,0.767 1.587,0.797 1.572,0.828 1.555,0.858 1.538,0.888 1.52,0.918 1.503,0.948 1.484,0.976 1.464,1.005 1.445,1.034 1.424,1.061 1.404,1.089 1.382,1.115 1.36,1.143 1.338,1.168 1.314,1.195 1.292,1.219 1.267,1.245 1.243,1.269 1.218,1.293 1.193,1.316 1.166,1.339 m -61.601,-31.692 v -3.191 m 61.583,-30.314 -1.215,1.335 -1.24,1.31 -1.266,1.285 -1.291,1.26 -1.316,1.234 -1.34,1.208 -1.364,1.182 -1.386,1.154 -1.409,1.127 -1.431,1.099 -1.453,1.07 -1.473,1.041 -1.493,1.012 -1.514,0.983 -1.532,0.952 -1.551,0.922 -1.568,0.891 -1.586,0.86 -1.603,0.829 -1.619,0.797 -1.634,0.764 -1.649,0.732 -1.663,0.7 -1.676,0.667 -1.69,0.633 -1.701,0.6 -1.713,0.566 -1.724,0.533 -1.734,0.498 -1.743,0.464 -1.753,0.429 -1.76,0.395 -1.768,0.36 -1.775,0.325 -1.78,0.29 -1.786,0.255 -1.791,0.219 -1.795,0.184 -1.798,0.149 m 61.583,-30.314 h 10.701 m 5.669,5.67 -0.445,-0.018 -0.442,-0.052 -0.437,-0.087 -0.428,-0.121 -0.418,-0.154 -0.404,-0.186 -0.388,-0.218 -0.37,-0.247 -0.35,-0.276 -0.327,-0.302 -0.302,-0.327 -0.276,-0.349 -0.247,-0.37 -0.217,-0.389 -0.187,-0.404 -0.154,-0.418 -0.121,-0.428 -0.087,-0.437 -0.052,-0.442 -0.017,-0.445 M 0,-53.858 h -549.259 m 554.928,-5.67 -0.017,0.445 -0.053,0.442 -0.086,0.437 -0.121,0.428 -0.154,0.418 -0.187,0.404 -0.217,0.389 -0.247,0.37 -0.276,0.349 -0.302,0.327 -0.327,0.302 -0.35,0.276 -0.37,0.247 -0.388,0.218 -0.405,0.186 -0.417,0.154 -0.429,0.121 -0.436,0.087 -0.442,0.052 L 0,-53.858 m 5.669,-5.67 h 8.723 m 64.223,30.395 -1.777,-0.093 -1.776,-0.129 -1.772,-0.162 -1.769,-0.198 -1.765,-0.231 -1.759,-0.266 -1.755,-0.3 -1.748,-0.335 -1.741,-0.368 -1.734,-0.402 -1.726,-0.436 -1.717,-0.469 -1.707,-0.503 -1.697,-0.535 -1.687,-0.569 -1.675,-0.601 -1.663,-0.634 -1.651,-0.667 -1.637,-0.698 -1.623,-0.73 -1.609,-0.761 -1.593,-0.793 -1.578,-0.823 -1.562,-0.854 -1.544,-0.884 -1.528,-0.914 -1.509,-0.944 -1.49,-0.973 -1.471,-1.002 -1.452,-1.03 -1.431,-1.058 -1.41,-1.086 -1.389,-1.113 -1.366,-1.14 -1.345,-1.166 -1.321,-1.193 -1.298,-1.218 -1.274,-1.243 -1.25,-1.267 -1.225,-1.291 -1.199,-1.316 m 64.223,30.395 v 3.089 m -62.263,31.713 1.178,-1.35 1.205,-1.328 1.23,-1.303 1.256,-1.279 1.28,-1.254 1.305,-1.229 1.329,-1.203 1.352,-1.177 1.375,-1.15 1.397,-1.123 1.419,-1.095 1.44,-1.067 1.461,-1.039 1.481,-1.01 1.5,-0.981 1.519,-0.951 1.538,-0.921 1.555,-0.891 1.573,-0.86 1.589,-0.829 1.605,-0.798 1.62,-0.766 1.635,-0.734 1.65,-0.702 1.662,-0.67 1.676,-0.637 1.687,-0.603 1.7,-0.571 1.71,-0.537 1.72,-0.504 1.729,-0.47 1.739,-0.436 1.747,-0.401 1.754,-0.368 1.762,-0.333 1.767,-0.298 1.773,-0.263 1.778,-0.229 1.782,-0.194 1.785,-0.159 M 16.352,5.669 H 5.669 M 0,0 0.445,0.017 0.887,0.07 l 0.436,0.087 0.429,0.12 0.417,0.155 0.405,0.186 0.388,0.217 0.37,0.248 0.35,0.275 0.327,0.303 0.302,0.326 0.276,0.35 0.247,0.37 L 5.051,3.095 5.238,3.5 5.392,3.917 5.513,4.346 5.599,4.782 5.652,5.224 5.669,5.669 M 2.835,7.087 V 5.669 m 0,1.418 L 2.852,7.308 2.904,7.525 2.989,7.73 3.105,7.92 3.25,8.089 3.419,8.233 3.608,8.349 3.814,8.435 4.03,8.487 4.252,8.504 m 0,0 h 12.756 m 0,0 0.154,-0.008 0.152,-0.025 0.148,-0.042 0.143,-0.057 0.136,-0.073 0.128,-0.087 0.117,-0.1 L 18.092,8 m 62.031,-31.31 -1.736,0.129 -1.734,0.163 -1.73,0.198 -1.727,0.231 -1.721,0.265 -1.715,0.299 -1.71,0.333 -1.702,0.366 -1.695,0.399 -1.687,0.433 -1.678,0.466 -1.669,0.499 -1.658,0.532 -1.648,0.564 -1.636,0.596 -1.624,0.628 -1.612,0.66 -1.598,0.692 -1.585,0.723 -1.569,0.754 -1.555,0.785 -1.539,0.815 -1.523,0.845 -1.505,0.875 -1.489,0.905 -1.47,0.933 -1.451,0.962 -1.433,0.991 -1.412,1.019 -1.393,1.046 -1.371,1.073 -1.35,1.1 -1.328,1.126 -1.306,1.153 -1.283,1.177 -1.26,1.203 L 22.786,2.855 21.574,4.107 20.388,5.382 19.227,6.68 18.092,8 m 63.358,-32.725 -0.02,0.236 -0.059,0.23 -0.096,0.217 -0.131,0.197 -0.162,0.173 -0.189,0.143 -0.21,0.11 -0.225,0.074 -0.235,0.035 m 1.327,-1.415 v -5.776 m 0,0 -0.021,-0.241 -0.062,-0.235 -0.101,-0.221 -0.137,-0.2 -0.169,-0.174 -0.196,-0.143 -0.218,-0.107 -0.233,-0.068 -0.241,-0.027 m 0,0 -1.771,-0.067 -1.77,-0.103 -1.767,-0.138 -1.764,-0.173 -1.76,-0.208 -1.756,-0.244 -1.75,-0.279 -1.744,-0.313 -1.738,-0.349 -1.731,-0.383 -1.722,-0.418 -1.714,-0.452 -1.704,-0.486 -1.694,-0.52 -1.684,-0.555 -1.672,-0.587 -1.66,-0.621 -1.648,-0.654 -1.633,-0.687 -1.62,-0.72 -1.605,-0.751 -1.59,-0.784 -1.574,-0.815 -1.557,-0.847 -1.54,-0.878 -1.522,-0.908 -1.503,-0.939 -1.484,-0.968 -1.465,-0.998 -1.445,-1.027 -1.423,-1.056 -1.403,-1.084 -1.38,-1.112 -1.358,-1.139 -1.334,-1.166 -1.311,-1.193 -1.287,-1.219 -1.263,-1.244 -1.237,-1.269 -1.211,-1.294 -1.186,-1.317 m -1.063,-0.48 0.15,0.008 0.148,0.023 0.145,0.04 0.14,0.054 0.134,0.069 0.125,0.083 0.116,0.096 0.105,0.107 m -11.84,-0.48 h 10.777 m -12.194,1.417 0.017,-0.222 0.052,-0.216 0.085,-0.205 0.116,-0.19 0.145,-0.169 0.169,-0.144 0.189,-0.117 0.206,-0.085 0.216,-0.052 0.222,-0.017 m -1.417,2.834 v -1.417 M 0,-56.693 l 0.317,-0.018 0.314,-0.053 0.305,-0.088 0.294,-0.122 0.278,-0.153 0.259,-0.184 0.237,-0.212 0.212,-0.237 0.184,-0.259 0.154,-0.279 0.122,-0.293 0.088,-0.306 0.053,-0.313 0.018,-0.318 M 0,-56.693 h -549.259 m -2.835,-2.835 0.018,0.318 0.053,0.313 0.088,0.306 0.122,0.293 0.154,0.279 0.184,0.259 0.211,0.237 0.238,0.212 0.259,0.184 0.278,0.153 0.294,0.122 0.305,0.088 0.314,0.053 0.317,0.018 m -2.835,-2.835 v -1.417 m 0,0 -0.017,-0.222 -0.052,-0.216 -0.085,-0.205 -0.116,-0.19 -0.145,-0.169 -0.169,-0.144 -0.19,-0.117 -0.205,-0.085 -0.216,-0.052 -0.222,-0.017 m -12.756,0 h 12.756 m -12.756,0 -0.15,0.008 -0.149,0.024 -0.145,0.039 -0.14,0.055 -0.133,0.069 -0.126,0.083 -0.116,0.095 -0.105,0.108 m -61.38,29.924 1.748,-0.119 1.746,-0.153 1.742,-0.188 1.739,-0.222 1.733,-0.257 1.728,-0.291 1.723,-0.325 1.715,-0.359 1.708,-0.393 1.7,-0.426 1.691,-0.46 1.681,-0.494 1.672,-0.527 1.66,-0.559 1.65,-0.593 1.637,-0.624 1.625,-0.657 1.611,-0.69 1.597,-0.721 1.583,-0.752 1.568,-0.783 1.552,-0.815 1.535,-0.845 1.518,-0.875 1.501,-0.905 1.482,-0.934 1.464,-0.964 1.445,-0.992 1.424,-1.021 1.404,-1.049 1.383,-1.076 1.362,-1.104 1.339,-1.13 1.317,-1.156 1.293,-1.183 1.27,-1.207 1.246,-1.233 1.221,-1.257 1.196,-1.281 1.171,-1.304 m -62.716,31.339 0.02,-0.237 0.06,-0.231 0.097,-0.217 0.132,-0.198 0.163,-0.173 0.19,-0.143 0.212,-0.11 0.226,-0.072 0.236,-0.034 m -1.336,7.243 v -5.828 m 0,5.828 0.02,0.235 0.058,0.228 0.096,0.216 0.129,0.196 0.161,0.173 0.187,0.144 0.208,0.11 0.224,0.075 0.233,0.036 m 0,0 1.763,0.145 1.76,0.181 1.756,0.215 1.751,0.251 1.746,0.285 1.74,0.32 1.733,0.355 1.726,0.389 1.718,0.424 1.708,0.458 1.7,0.492 1.689,0.526 1.678,0.559 1.667,0.593 1.655,0.626 1.642,0.659 1.628,0.692 1.614,0.724 1.6,0.756 1.584,0.788 1.568,0.819 1.551,0.851 1.534,0.881 1.516,0.912 1.497,0.942 1.479,0.972 1.459,1.001 1.438,1.03 1.418,1.058 1.396,1.087 1.374,1.114 1.352,1.141 1.328,1.168 1.306,1.195 1.28,1.22 1.257,1.246 1.231,1.27 1.205,1.295 1.18,1.319 1.153,1.341 m 1.084,0.505 -0.154,-0.008 -0.152,-0.026 -0.149,-0.041 -0.143,-0.057 -0.136,-0.073 -0.127,-0.087 -0.118,-0.1 -0.105,-0.113 m 1.084,0.505 h 12.756 m 1.417,-1.417 -0.017,0.221 -0.052,0.217 -0.085,0.205 -0.116,0.19 -0.145,0.169 -0.169,0.144 -0.19,0.116 -0.205,0.086 -0.216,0.052 -0.222,0.017 m 1.417,-1.417 V 5.669 m 0,0 0.018,-0.317 0.053,-0.313 0.088,-0.306 0.122,-0.294 0.154,-0.278 0.184,-0.259 0.211,-0.237 0.238,-0.212 0.259,-0.184 0.278,-0.154 0.294,-0.121 0.305,-0.088 0.314,-0.054 0.317,-0.017 M 0,2.835 H -549.259 M 2.835,5.669 2.817,5.352 2.764,5.039 2.676,4.733 2.554,4.439 2.4,4.161 2.216,3.902 2.004,3.665 1.767,3.453 1.508,3.269 1.23,3.115 0.936,2.994 0.631,2.906 0.317,2.852 0,2.835 m -317.952,-29.764 -0.017,0.445 -0.052,0.442 -0.086,0.437 -0.119,0.428 -0.152,0.419 -0.185,0.405 -0.215,0.39 -0.244,0.372 -0.273,0.352 -0.299,0.329 -0.324,0.306 -0.346,0.279 -0.368,0.252 -0.385,0.222 -0.402,0.193 -0.415,0.16 -0.426,0.128 -0.435,0.094 -0.441,0.06 -0.445,0.026 -0.445,-0.009 -0.443,-0.043 -0.438,-0.077 -0.432,-0.111 -0.421,-0.144 -0.408,-0.177 -0.394,-0.207 -0.377,-0.237 -0.357,-0.266 -0.335,-0.293 -0.312,-0.318 -0.286,-0.341 -0.259,-0.362 -0.23,-0.381 -0.2,-0.398 -0.168,-0.412 -0.136,-0.424 -0.103,-0.433 -0.069,-0.44 -0.034,-0.444 v -0.445 l 0.034,-0.444 0.069,-0.439 0.103,-0.434 0.136,-0.423 0.168,-0.413 0.2,-0.397 0.23,-0.381 0.259,-0.363 0.286,-0.341 0.312,-0.317 0.335,-0.293 0.357,-0.266 0.377,-0.237 0.394,-0.208 0.408,-0.176 0.421,-0.144 0.432,-0.111 0.438,-0.078 0.443,-0.043 0.445,-0.008 0.445,0.026 0.441,0.06 0.435,0.094 0.426,0.128 0.415,0.16 0.402,0.192 0.385,0.223 0.368,0.251 0.346,0.28 0.324,0.306 0.299,0.329 0.273,0.352 0.244,0.372 0.215,0.39 0.185,0.405 0.152,0.418 0.119,0.429 0.086,0.437 0.052,0.442 0.017,0.445 m -52.654,0 -0.017,0.387 -0.052,0.385 -0.086,0.378 -0.12,0.369 -0.153,0.356 -0.183,0.342 -0.214,0.324 -0.242,0.303 -0.268,0.28 -0.292,0.256 -0.314,0.228 -0.333,0.199 -0.349,0.168 -0.364,0.136 -0.373,0.103 -0.382,0.07 -0.386,0.034 h -0.388 l -0.387,-0.034 -0.381,-0.07 -0.374,-0.103 -0.363,-0.136 -0.35,-0.168 -0.333,-0.199 -0.314,-0.228 -0.292,-0.256 -0.268,-0.28 -0.242,-0.303 -0.213,-0.324 -0.184,-0.342 -0.153,-0.356 -0.119,-0.369 -0.087,-0.378 -0.052,-0.385 -0.017,-0.387 0.017,-0.388 0.052,-0.384 0.087,-0.378 0.119,-0.369 0.153,-0.357 0.184,-0.341 0.213,-0.324 0.242,-0.303 0.268,-0.281 0.292,-0.255 0.314,-0.228 0.333,-0.199 0.35,-0.168 0.363,-0.136 0.374,-0.104 0.381,-0.069 0.387,-0.035 h 0.388 l 0.386,0.035 0.382,0.069 0.373,0.104 0.364,0.136 0.349,0.168 0.333,0.199 0.314,0.228 0.292,0.255 0.268,0.281 0.242,0.303 0.214,0.324 0.183,0.341 0.153,0.357 0.12,0.369 0.086,0.378 0.052,0.384 0.017,0.388 m -114.803,0 -0.017,0.387 -0.052,0.385 -0.086,0.378 -0.12,0.369 -0.153,0.356 -0.184,0.342 -0.213,0.324 -0.242,0.303 -0.268,0.28 -0.292,0.256 -0.314,0.228 -0.333,0.199 -0.35,0.168 -0.363,0.136 -0.374,0.103 -0.381,0.07 -0.387,0.034 h -0.388 l -0.386,-0.034 -0.381,-0.07 -0.374,-0.103 -0.364,-0.136 -0.349,-0.168 -0.333,-0.199 -0.314,-0.228 -0.292,-0.256 -0.268,-0.28 -0.242,-0.303 -0.213,-0.324 -0.184,-0.342 -0.153,-0.356 -0.12,-0.369 -0.086,-0.378 -0.052,-0.385 -0.017,-0.387 0.017,-0.388 0.052,-0.384 0.086,-0.378 0.12,-0.369 0.153,-0.357 0.184,-0.341 0.213,-0.324 0.242,-0.303 0.268,-0.281 0.292,-0.255 0.314,-0.228 0.333,-0.199 0.349,-0.168 0.364,-0.136 0.374,-0.104 0.381,-0.069 0.386,-0.035 h 0.388 l 0.387,0.035 0.381,0.069 0.374,0.104 0.363,0.136 0.35,0.168 0.333,0.199 0.314,0.228 0.292,0.255 0.268,0.281 0.242,0.303 0.213,0.324 0.184,0.341 0.153,0.357 0.12,0.369 0.086,0.378 0.052,0.384 0.017,0.388 m 500.244,0 -0.017,0.695 -0.051,0.694 -0.085,0.69 -0.119,0.686 -0.152,0.679 -0.186,0.67 -0.218,0.661 -0.251,0.649 -0.281,0.636 -0.313,0.621 -0.343,0.605 -0.372,0.588 -0.401,0.569 -0.428,0.548 -0.454,0.527 -0.48,0.504 -0.504,0.48 -0.526,0.454 -0.549,0.428 -0.569,0.4 -0.587,0.373 -0.606,0.343 -0.621,0.312 -0.636,0.282 -0.649,0.251 -0.661,0.218 -0.67,0.185 -0.679,0.153 -0.685,0.119 -0.691,0.085 -0.693,0.051 -0.696,0.017 -0.695,-0.017 -0.694,-0.051 -0.69,-0.085 -0.686,-0.119 -0.679,-0.153 -0.67,-0.185 -0.661,-0.218 -0.649,-0.251 -0.636,-0.282 -0.621,-0.312 -0.605,-0.343 -0.588,-0.373 -0.569,-0.4 -0.548,-0.428 -0.527,-0.454 -0.504,-0.48 -0.48,-0.504 -0.454,-0.527 -0.428,-0.548 -0.4,-0.569 -0.373,-0.588 -0.343,-0.605 -0.312,-0.621 -0.282,-0.636 -0.251,-0.649 -0.218,-0.661 -0.185,-0.67 -0.153,-0.679 -0.119,-0.686 -0.085,-0.69 -0.051,-0.694 -0.017,-0.695 0.017,-0.696 0.051,-0.693 0.085,-0.691 0.119,-0.685 0.153,-0.679 0.185,-0.67 0.218,-0.661 0.251,-0.649 0.282,-0.636 0.312,-0.621 0.343,-0.606 0.373,-0.587 0.4,-0.569 0.428,-0.549 0.454,-0.526 0.48,-0.504 0.504,-0.48 0.527,-0.454 0.548,-0.428 0.569,-0.401 0.588,-0.372 0.605,-0.343 0.621,-0.313 0.636,-0.281 0.649,-0.251 0.661,-0.218 0.67,-0.186 0.679,-0.152 0.686,-0.119 0.69,-0.085 0.694,-0.051 0.695,-0.017 0.696,0.017 0.693,0.051 0.691,0.085 0.685,0.119 0.679,0.152 0.67,0.186 0.661,0.218 0.649,0.251 0.636,0.281 0.621,0.313 0.606,0.343 0.587,0.372 0.569,0.401 0.549,0.428 0.526,0.454 0.504,0.48 0.48,0.504 0.454,0.526 0.428,0.549 0.401,0.569 0.372,0.587 0.343,0.606 0.313,0.621 0.281,0.636 0.251,0.649 0.218,0.661 0.186,0.67 0.152,0.679 0.119,0.685 0.085,0.691 0.051,0.693 0.017,0.696 m -138.713,0 -0.017,0.387 -0.052,0.385 -0.087,0.378 -0.12,0.369 -0.152,0.356 -0.184,0.342 -0.214,0.324 -0.241,0.303 -0.269,0.28 -0.292,0.256 -0.313,0.228 -0.333,0.199 -0.35,0.168 -0.363,0.136 -0.374,0.103 -0.382,0.07 -0.386,0.034 h -0.388 l -0.386,-0.034 -0.382,-0.07 -0.374,-0.103 -0.363,-0.136 -0.349,-0.168 -0.333,-0.199 -0.314,-0.228 -0.292,-0.256 -0.268,-0.28 -0.242,-0.303 -0.214,-0.324 -0.184,-0.342 -0.152,-0.356 -0.12,-0.369 -0.086,-0.378 -0.052,-0.385 -0.018,-0.387 0.018,-0.388 0.052,-0.384 0.086,-0.378 0.12,-0.369 0.152,-0.357 0.184,-0.341 0.214,-0.324 0.242,-0.303 0.268,-0.281 0.292,-0.255 0.314,-0.228 0.333,-0.199 0.349,-0.168 0.363,-0.136 0.374,-0.104 0.382,-0.069 0.386,-0.035 h 0.388 l 0.386,0.035 0.382,0.069 0.374,0.104 0.363,0.136 0.35,0.168 0.333,0.199 0.313,0.228 0.292,0.255 0.269,0.281 0.241,0.303 0.214,0.324 0.184,0.341 0.152,0.357 0.12,0.369 0.087,0.378 0.052,0.384 0.017,0.388 m -57.657,0 -0.017,0.387 -0.052,0.385 -0.086,0.378 -0.12,0.369 -0.153,0.356 -0.184,0.342 -0.213,0.324 -0.242,0.303 -0.268,0.28 -0.292,0.256 -0.314,0.228 -0.333,0.199 -0.35,0.168 -0.363,0.136 -0.374,0.103 -0.381,0.07 -0.387,0.034 h -0.387 l -0.387,-0.034 -0.381,-0.07 -0.374,-0.103 -0.364,-0.136 -0.349,-0.168 -0.333,-0.199 -0.314,-0.228 -0.292,-0.256 -0.268,-0.28 -0.242,-0.303 -0.213,-0.324 -0.184,-0.342 -0.153,-0.356 -0.12,-0.369 -0.086,-0.378 -0.052,-0.385 -0.017,-0.387 0.017,-0.388 0.052,-0.384 0.086,-0.378 0.12,-0.369 0.153,-0.357 0.184,-0.341 0.213,-0.324 0.242,-0.303 0.268,-0.281 0.292,-0.255 0.314,-0.228 0.333,-0.199 0.349,-0.168 0.364,-0.136 0.374,-0.104 0.381,-0.069 0.387,-0.035 h 0.387 l 0.387,0.035 0.381,0.069 0.374,0.104 0.363,0.136 0.35,0.168 0.333,0.199 0.314,0.228 0.292,0.255 0.268,0.281 0.242,0.303 0.213,0.324 0.184,0.341 0.153,0.357 0.12,0.369 0.086,0.378 0.052,0.384 0.017,0.388 m -65.197,0 -0.017,0.387 -0.052,0.385 -0.086,0.378 -0.12,0.369 -0.153,0.356 -0.183,0.342 -0.214,0.324 -0.242,0.303 -0.268,0.28 -0.292,0.256 -0.314,0.228 -0.333,0.199 -0.349,0.168 -0.364,0.136 -0.373,0.103 -0.382,0.07 -0.386,0.034 h -0.388 l -0.387,-0.034 -0.381,-0.07 -0.374,-0.103 -0.363,-0.136 -0.35,-0.168 -0.333,-0.199 -0.314,-0.228 -0.292,-0.256 -0.268,-0.28 -0.242,-0.303 -0.213,-0.324 -0.184,-0.342 -0.153,-0.356 -0.119,-0.369 -0.087,-0.378 -0.052,-0.385 -0.017,-0.387 0.017,-0.388 0.052,-0.384 0.087,-0.378 0.119,-0.369 0.153,-0.357 0.184,-0.341 0.213,-0.324 0.242,-0.303 0.268,-0.281 0.292,-0.255 0.314,-0.228 0.333,-0.199 0.35,-0.168 0.363,-0.136 0.374,-0.104 0.381,-0.069 0.387,-0.035 h 0.388 l 0.386,0.035 0.382,0.069 0.373,0.104 0.364,0.136 0.349,0.168 0.333,0.199 0.314,0.228 0.292,0.255 0.268,0.281 0.242,0.303 0.214,0.324 0.183,0.341 0.153,0.357 0.12,0.369 0.086,0.378 0.052,0.384 0.017,0.388 m 181.347,0 -0.017,0.494 -0.052,0.492 -0.086,0.487 -0.12,0.48 -0.153,0.471 -0.185,0.458 -0.217,0.445 -0.247,0.428 -0.277,0.41 -0.304,0.39 -0.331,0.368 -0.356,0.343 -0.379,0.318 -0.4,0.291 -0.419,0.262 -0.437,0.232 -0.452,0.201 -0.465,0.17 -0.475,0.136 -0.484,0.103 -0.49,0.069 -0.493,0.034 h -0.495 l -0.493,-0.034 -0.49,-0.069 -0.484,-0.103 -0.476,-0.136 -0.464,-0.17 -0.452,-0.201 -0.437,-0.232 -0.42,-0.262 -0.4,-0.291 -0.379,-0.318 -0.355,-0.343 -0.331,-0.368 -0.305,-0.39 -0.277,-0.41 -0.247,-0.428 -0.217,-0.445 -0.185,-0.458 -0.153,-0.471 -0.119,-0.48 -0.086,-0.487 -0.052,-0.492 -0.017,-0.494 0.017,-0.495 0.052,-0.491 0.086,-0.488 0.119,-0.479 0.153,-0.471 0.185,-0.459 0.217,-0.444 0.247,-0.429 0.277,-0.41 0.305,-0.389 0.331,-0.368 0.355,-0.344 0.379,-0.317 0.4,-0.291 0.42,-0.262 0.437,-0.233 0.452,-0.201 0.464,-0.169 0.476,-0.136 0.484,-0.103 0.49,-0.069 0.493,-0.034 h 0.495 l 0.493,0.034 0.49,0.069 0.484,0.103 0.475,0.136 0.465,0.169 0.452,0.201 0.437,0.233 0.419,0.262 0.4,0.291 0.379,0.317 0.356,0.344 0.331,0.368 0.304,0.389 0.277,0.41 0.247,0.429 0.217,0.444 0.185,0.459 0.153,0.471 0.12,0.479 0.086,0.488 0.052,0.491 0.017,0.495 m -357.165,0 -0.018,0.494 -0.051,0.492 -0.086,0.487 -0.12,0.48 -0.153,0.471 -0.185,0.458 -0.217,0.445 -0.247,0.428 -0.277,0.41 -0.304,0.39 -0.331,0.368 -0.356,0.343 -0.379,0.318 -0.4,0.291 -0.42,0.262 -0.436,0.232 -0.452,0.201 -0.465,0.17 -0.476,0.136 -0.483,0.103 -0.49,0.069 -0.494,0.034 h -0.494 l -0.494,-0.034 -0.49,-0.069 -0.483,-0.103 -0.476,-0.136 -0.465,-0.17 -0.452,-0.201 -0.436,-0.232 -0.42,-0.262 -0.4,-0.291 -0.379,-0.318 -0.356,-0.343 -0.331,-0.368 -0.304,-0.39 -0.277,-0.41 -0.247,-0.428 -0.217,-0.445 -0.185,-0.458 -0.153,-0.471 -0.12,-0.48 -0.086,-0.487 -0.051,-0.492 -0.018,-0.494 0.018,-0.495 0.051,-0.491 0.086,-0.488 0.12,-0.479 0.153,-0.471 0.185,-0.459 0.217,-0.444 0.247,-0.429 0.277,-0.41 0.304,-0.389 0.331,-0.368 0.356,-0.344 0.379,-0.317 0.4,-0.291 0.42,-0.262 0.436,-0.233 0.452,-0.201 0.465,-0.169 0.476,-0.136 0.483,-0.103 0.49,-0.069 0.494,-0.034 h 0.494 l 0.494,0.034 0.49,0.069 0.483,0.103 0.476,0.136 0.465,0.169 0.452,0.201 0.436,0.233 0.42,0.262 0.4,0.291 0.379,0.317 0.356,0.344 0.331,0.368 0.304,0.389 0.277,0.41 0.247,0.429 0.217,0.444 0.185,0.459 0.153,0.471 0.12,0.479 0.086,0.488 0.051,0.491 0.018,0.495 m -122.457,0 -0.017,0.695 -0.051,0.694 -0.086,0.69 -0.118,0.686 -0.153,0.679 -0.185,0.67 -0.219,0.661 -0.25,0.649 -0.282,0.636 -0.313,0.621 -0.343,0.605 -0.372,0.588 -0.4,0.569 -0.428,0.548 -0.455,0.527 -0.479,0.504 -0.504,0.48 -0.527,0.454 -0.548,0.428 -0.569,0.4 -0.588,0.373 -0.605,0.343 -0.622,0.312 -0.636,0.282 -0.649,0.251 -0.66,0.218 -0.671,0.185 -0.678,0.153 -0.686,0.119 -0.69,0.085 -0.694,0.051 -0.695,0.017 -0.696,-0.017 -0.694,-0.051 -0.69,-0.085 -0.685,-0.119 -0.679,-0.153 -0.671,-0.185 -0.66,-0.218 -0.649,-0.251 -0.636,-0.282 -0.622,-0.312 -0.605,-0.343 -0.588,-0.373 -0.568,-0.4 -0.549,-0.428 -0.527,-0.454 -0.503,-0.48 -0.48,-0.504 -0.454,-0.527 -0.428,-0.548 -0.401,-0.569 -0.372,-0.588 -0.343,-0.605 -0.313,-0.621 -0.282,-0.636 -0.25,-0.649 -0.218,-0.661 -0.186,-0.67 -0.152,-0.679 -0.119,-0.686 -0.085,-0.69 -0.052,-0.694 -0.017,-0.695 0.017,-0.696 0.052,-0.693 0.085,-0.691 0.119,-0.685 0.152,-0.679 0.186,-0.67 0.218,-0.661 0.25,-0.649 0.282,-0.636 0.313,-0.621 0.343,-0.606 0.372,-0.587 0.401,-0.569 0.428,-0.549 0.454,-0.526 0.48,-0.504 0.503,-0.48 0.527,-0.454 0.549,-0.428 0.568,-0.401 0.588,-0.372 0.605,-0.343 0.622,-0.313 0.636,-0.281 0.649,-0.251 0.66,-0.218 0.671,-0.186 0.679,-0.152 0.685,-0.119 0.69,-0.085 0.694,-0.051 0.696,-0.017 0.695,0.017 0.694,0.051 0.69,0.085 0.686,0.119 0.678,0.152 0.671,0.186 0.66,0.218 0.649,0.251 0.636,0.281 0.622,0.313 0.605,0.343 0.588,0.372 0.569,0.401 0.548,0.428 0.527,0.454 0.504,0.48 0.479,0.504 0.455,0.526 0.428,0.549 0.4,0.569 0.372,0.587 0.343,0.606 0.313,0.621 0.282,0.636 0.25,0.649 0.219,0.661 0.185,0.67 0.153,0.679 0.118,0.685 0.086,0.691 0.051,0.693 0.017,0.696 m -12.27,29.764 h -7.039 m 7.039,0 0.201,-0.514 0.233,-0.499 0.265,-0.483 0.295,-0.464 0.326,-0.445 0.353,-0.423 0.38,-0.399 0.405,-0.373 0.428,-0.347 0.45,-0.318 0.469,-0.288 0.487,-0.257 0.503,-0.225 0.516,-0.192 0.528,-0.159 0.536,-0.124 0.544,-0.088 0.548,-0.054 0.551,-0.018 M 0,-2.835 h -549.259 m 549.259,0 0.551,0.018 0.548,0.054 0.543,0.088 0.537,0.124 0.528,0.159 0.516,0.192 0.503,0.225 0.487,0.257 0.469,0.288 0.45,0.318 0.428,0.347 0.405,0.373 0.38,0.399 0.353,0.423 0.325,0.445 0.296,0.464 0.265,0.483 0.233,0.499 0.201,0.514 m 7.04,0 h -7.04 m 7.04,0 1.213,-1.353 1.239,-1.328 1.264,-1.305 1.289,-1.28 1.314,-1.255 1.338,-1.229 1.361,-1.204 1.383,-1.176 1.407,-1.15 1.428,-1.123 1.449,-1.095 1.471,-1.067 1.491,-1.038 1.51,-1.009 1.53,-0.981 1.548,-0.95 1.566,-0.92 1.584,-0.89 1.6,-0.86 1.617,-0.828 1.632,-0.797 1.648,-0.765 1.662,-0.734 1.676,-0.701 1.689,-0.669 1.701,-0.636 1.714,-0.604 1.725,-0.57 1.735,-0.536 1.746,-0.504 1.755,-0.469 1.763,-0.436 1.772,-0.401 1.779,-0.368 m 0,0 -1.776,-0.301 -1.771,-0.336 -1.763,-0.369 -1.756,-0.402 -1.749,-0.437 -1.739,-0.469 -1.73,-0.503 -1.721,-0.536 -1.709,-0.568 -1.699,-0.601 -1.687,-0.634 -1.674,-0.666 -1.661,-0.697 -1.648,-0.729 -1.633,-0.761 -1.619,-0.791 -1.603,-0.823 -1.587,-0.853 -1.571,-0.883 -1.553,-0.912 -1.536,-0.943 -1.517,-0.972 -1.499,-1 -1.479,-1.029 -1.459,-1.057 -1.439,-1.085 -1.418,-1.112 -1.396,-1.139 -1.374,-1.165 -1.352,-1.191 -1.328,-1.218 -1.305,-1.242 -1.282,-1.267 -1.256,-1.291 -1.232,-1.315 m -5.118,0 h 5.118 m -5.118,0 -0.201,0.513 -0.233,0.499 -0.265,0.483 -0.296,0.465 -0.325,0.445 -0.353,0.422 -0.38,0.399 -0.405,0.374 -0.428,0.346 -0.45,0.318 -0.469,0.288 -0.487,0.258 -0.503,0.225 -0.516,0.192 -0.528,0.158 -0.537,0.124 -0.543,0.089 -0.548,0.053 L 0,-51.024 m 0,0 h -549.259 m 0,0 -0.551,-0.018 -0.548,-0.053 -0.544,-0.089 -0.536,-0.124 -0.528,-0.158 -0.516,-0.192 -0.503,-0.225 -0.487,-0.258 -0.469,-0.288 -0.45,-0.318 -0.428,-0.346 -0.405,-0.374 -0.38,-0.399 -0.353,-0.422 -0.326,-0.445 -0.295,-0.465 -0.265,-0.483 -0.233,-0.499 -0.201,-0.513 m -7.094,0 h 7.094 m -7.094,0 -1.24,1.327 -1.266,1.303 -1.291,1.278 -1.315,1.253 -1.339,1.227 -1.362,1.202 -1.385,1.175 -1.408,1.148 -1.429,1.12 -1.451,1.093 -1.472,1.065 -1.492,1.036 -1.511,1.008 -1.531,0.977 -1.549,0.949 -1.567,0.918 -1.585,0.888 -1.601,0.857 -1.618,0.826 -1.633,0.795 -1.649,0.763 -1.662,0.731 -1.677,0.7 -1.689,0.666 -1.703,0.634 -1.714,0.601 -1.725,0.568 -1.736,0.535 -1.746,0.501 -1.755,0.467 -1.764,0.433 -1.772,0.4 -1.779,0.365 -1.787,0.33 m 0,0 1.802,0.36 1.794,0.394 1.786,0.43 1.777,0.464 1.768,0.498 1.758,0.533 1.747,0.568 1.735,0.601 1.724,0.634 1.711,0.669 1.698,0.701 1.683,0.734 1.669,0.767 1.654,0.8 1.638,0.832 1.621,0.863 1.604,0.895 1.587,0.925 1.568,0.957 1.549,0.987 1.53,1.017 1.509,1.046 1.489,1.076 1.468,1.105 1.446,1.133 1.423,1.161 1.401,1.188 1.377,1.216 1.353,1.242 1.329,1.268 1.303,1.294 1.279,1.319 1.252,1.344 1.226,1.368"
         style="fill:none;stroke:#000000;stroke-width:0.70899999;stroke-linecap:round;stroke-linejoin:round;stroke-miterlimit:10;stroke-dasharray:none;stroke-opacity:1"
         id="path1482"
         inkscape:connector-curvature="0" /></g><g
       id="g1488"
       transform="translate(312.80013,960.37509)"><path
         d="m 0,0 h -192.756 m -5.669,5.669 0.009,-0.318 0.026,-0.316 0.045,-0.315 0.062,-0.312 0.079,-0.308 0.097,-0.303 0.113,-0.297 0.13,-0.291 0.146,-0.282 0.162,-0.274 0.176,-0.264 0.192,-0.254 0.205,-0.243 0.218,-0.231 0.231,-0.219 0.243,-0.205 0.254,-0.191 0.265,-0.177 0.274,-0.162 0.282,-0.146 0.291,-0.129 0.297,-0.114 0.303,-0.096 0.308,-0.08 0.311,-0.062 0.315,-0.044 0.317,-0.027 0.318,-0.009 m -5.669,5.669 h -10.682 m -61.602,-31.692 1.264,0.118 1.261,0.136 1.259,0.154 1.258,0.17 1.254,0.189 1.252,0.206 1.249,0.223 1.246,0.24 1.242,0.258 1.239,0.275 1.235,0.292 1.23,0.309 1.226,0.326 1.222,0.343 1.216,0.361 1.212,0.377 1.206,0.393 1.2,0.411 1.195,0.427 1.189,0.443 1.182,0.461 1.176,0.476 1.169,0.493 1.162,0.509 1.155,0.524 1.148,0.541 1.14,0.557 1.132,0.573 1.124,0.588 1.116,0.604 1.108,0.619 1.098,0.635 1.09,0.649 1.081,0.665 1.071,0.68 1.062,0.694 1.052,0.71 1.042,0.723 1.032,0.738 1.022,0.753 1.011,0.766 1,0.781 0.989,0.794 0.979,0.808 0.967,0.821 0.955,0.835 0.944,0.848 0.932,0.861 0.92,0.874 0.908,0.886 0.895,0.899 0.883,0.911 0.87,0.924 0.857,0.935 0.844,0.947 0.831,0.959 m -61.602,-31.692 v -3.191 m 61.583,-30.314 -0.858,0.949 -0.872,0.936 -0.885,0.925 -0.897,0.911 -0.91,0.899 -0.923,0.887 -0.935,0.873 -0.947,0.86 -0.959,0.847 -0.97,0.833 -0.983,0.82 -0.993,0.805 -1.005,0.792 -1.016,0.778 -1.027,0.763 -1.037,0.749 -1.048,0.734 -1.057,0.72 -1.068,0.704 -1.078,0.69 -1.087,0.675 -1.096,0.659 -1.106,0.644 -1.114,0.628 -1.123,0.613 -1.132,0.597 -1.139,0.581 -1.148,0.565 -1.156,0.549 -1.163,0.532 -1.17,0.516 -1.178,0.5 -1.185,0.484 -1.191,0.466 -1.197,0.45 -1.204,0.434 -1.21,0.416 -1.215,0.399 -1.221,0.383 -1.226,0.365 -1.231,0.348 -1.236,0.331 -1.24,0.313 -1.245,0.296 -1.248,0.279 -1.253,0.261 -1.256,0.243 -1.259,0.226 -1.262,0.208 -1.265,0.191 -1.268,0.173 -1.27,0.155 -1.272,0.137 -1.273,0.12 -1.276,0.102 m 61.583,-30.314 h 10.701 m 5.669,5.67 -0.318,-0.009 -0.317,-0.027 -0.315,-0.044 -0.311,-0.062 -0.308,-0.08 -0.303,-0.096 -0.297,-0.114 -0.291,-0.13 -0.282,-0.146 -0.274,-0.161 -0.265,-0.177 -0.254,-0.191 -0.243,-0.205 -0.231,-0.219 -0.218,-0.231 -0.205,-0.243 -0.192,-0.254 -0.176,-0.264 -0.162,-0.274 -0.146,-0.283 -0.13,-0.29 -0.113,-0.297 -0.097,-0.303 -0.079,-0.308 -0.062,-0.312 -0.045,-0.315 -0.026,-0.317 -0.009,-0.318 M 0,-53.858 h -192.756 m 198.425,-5.67 -0.009,0.318 -0.026,0.317 -0.045,0.315 -0.062,0.312 -0.079,0.308 -0.097,0.303 -0.113,0.297 -0.13,0.29 -0.146,0.283 -0.162,0.274 -0.176,0.264 -0.192,0.254 -0.205,0.243 -0.218,0.231 -0.231,0.219 -0.243,0.205 -0.254,0.191 -0.265,0.177 -0.274,0.161 -0.282,0.146 -0.29,0.13 -0.298,0.114 L 1.569,-54.08 1.262,-54 0.95,-53.938 0.635,-53.894 0.318,-53.867 0,-53.858 m 5.669,-5.67 h 10.896 m 64.222,30.395 -1.256,-0.062 -1.256,-0.08 -1.254,-0.097 -1.253,-0.115 -1.251,-0.131 -1.25,-0.149 -1.247,-0.166 -1.245,-0.184 -1.242,-0.2 -1.239,-0.217 -1.236,-0.235 -1.233,-0.251 -1.229,-0.269 -1.226,-0.285 -1.221,-0.302 -1.217,-0.319 -1.213,-0.335 -1.207,-0.353 -1.203,-0.368 -1.198,-0.386 -1.192,-0.402 -1.187,-0.418 -1.181,-0.434 -1.174,-0.451 -1.169,-0.467 -1.162,-0.483 -1.155,-0.498 -1.148,-0.515 -1.141,-0.53 -1.133,-0.546 -1.126,-0.562 -1.118,-0.577 -1.11,-0.592 -1.102,-0.608 -1.093,-0.623 -1.085,-0.637 -1.075,-0.653 -1.067,-0.667 -1.057,-0.682 -1.048,-0.696 -1.039,-0.711 -1.028,-0.725 -1.018,-0.739 -1.008,-0.753 -0.997,-0.767 -0.987,-0.78 -0.976,-0.794 -0.965,-0.808 -0.954,-0.82 -0.943,-0.834 -0.93,-0.846 -0.92,-0.859 -0.907,-0.872 -0.895,-0.884 -0.883,-0.897 -0.87,-0.908 -0.858,-0.92 -0.845,-0.933 m 64.222,30.395 v 3.089 m -61.285,30.589 0.852,-0.95 0.865,-0.939 0.878,-0.926 0.892,-0.914 0.903,-0.902 0.917,-0.888 0.928,-0.876 0.941,-0.863 0.953,-0.85 0.964,-0.836 0.976,-0.822 0.988,-0.81 0.998,-0.795 1.01,-0.781 1.02,-0.767 1.031,-0.752 1.042,-0.738 1.052,-0.724 1.061,-0.708 1.072,-0.694 1.081,-0.679 1.09,-0.664 1.1,-0.648 1.108,-0.633 1.118,-0.617 1.125,-0.602 1.134,-0.586 1.143,-0.57 1.15,-0.554 1.157,-0.538 1.165,-0.522 1.172,-0.505 1.179,-0.489 1.186,-0.473 1.193,-0.456 1.198,-0.439 1.205,-0.422 1.21,-0.406 1.216,-0.388 1.221,-0.372 1.227,-0.355 1.231,-0.337 1.235,-0.32 1.24,-0.303 1.245,-0.285 1.248,-0.268 1.251,-0.251 1.255,-0.233 1.258,-0.216 1.261,-0.198 1.264,-0.18 1.266,-0.163 1.268,-0.145 1.271,-0.127 1.271,-0.11 M 19.502,4.545 19.325,4.73 19.134,4.902 18.931,5.058 18.716,5.197 18.491,5.32 18.258,5.426 18.017,5.513 17.77,5.581 17.518,5.63 17.264,5.659 17.008,5.669 m 0,0 H 5.669 M 0,0 0.318,0.009 0.635,0.036 0.95,0.08 1.262,0.142 1.569,0.222 1.872,0.318 2.17,0.432 2.46,0.561 2.742,0.707 3.016,0.869 3.281,1.046 3.535,1.237 3.778,1.442 4.009,1.661 4.227,1.892 4.432,2.135 4.624,2.389 4.8,2.653 4.962,2.927 5.108,3.209 5.238,3.5 5.351,3.797 5.448,4.1 5.527,4.408 5.589,4.72 5.634,5.035 5.66,5.351 5.669,5.669 M 2.835,7.087 V 5.669 m 0,1.418 0.009,0.158 0.026,0.157 0.044,0.153 0.061,0.147 0.077,0.139 0.092,0.129 0.106,0.119 0.118,0.106 0.13,0.092 0.139,0.077 0.147,0.06 0.153,0.044 0.156,0.027 0.159,0.009 m 0,0 h 12.756 m 0,0 0.348,-0.01 0.346,-0.029 0.345,-0.049 0.341,-0.069 0.337,-0.087 0.331,-0.106 0.325,-0.125 0.317,-0.143 0.309,-0.161 0.299,-0.178 0.288,-0.194 0.278,-0.21 0.264,-0.226 0.252,-0.24 0.238,-0.255 m 60.67,-29.732 -1.257,0.09 -1.256,0.108 -1.254,0.125 -1.252,0.144 -1.25,0.162 -1.248,0.179 -1.244,0.197 -1.242,0.214 -1.239,0.233 -1.235,0.249 -1.232,0.268 -1.228,0.285 -1.223,0.302 -1.219,0.32 -1.215,0.337 -1.209,0.354 -1.205,0.372 -1.199,0.388 -1.193,0.406 -1.187,0.422 -1.182,0.44 -1.175,0.456 -1.168,0.472 -1.161,0.49 -1.155,0.506 -1.147,0.522 -1.139,0.538 -1.132,0.555 -1.124,0.571 -1.115,0.586 -1.107,0.603 -1.099,0.618 -1.089,0.633 -1.081,0.65 -1.071,0.664 -1.061,0.68 -1.052,0.694 -1.041,0.71 -1.032,0.724 -1.021,0.739 -1.01,0.753 -1,0.768 -0.988,0.782 -0.978,0.795 -0.966,0.81 -0.954,0.823 -0.943,0.837 -0.93,0.85 -0.918,0.863 -0.906,0.876 -0.894,0.889 -0.88,0.902 -0.868,0.914 -0.855,0.926 -0.841,0.938 m 61.996,-31.147 -0.009,0.164 -0.029,0.162 -0.047,0.157 -0.064,0.151 -0.082,0.142 -0.098,0.132 -0.112,0.12 -0.126,0.106 -0.136,0.091 -0.147,0.074 -0.154,0.057 -0.159,0.039 -0.163,0.02 m 1.326,-1.415 v -5.776 m 0,0 -0.01,-0.167 -0.03,-0.166 -0.049,-0.161 -0.068,-0.153 -0.085,-0.145 -0.102,-0.134 -0.118,-0.12 -0.13,-0.106 -0.143,-0.09 -0.151,-0.072 -0.16,-0.053 -0.164,-0.035 -0.168,-0.014 m 0,0 -1.252,-0.044 -1.251,-0.062 -1.251,-0.079 -1.249,-0.096 -1.248,-0.115 -1.246,-0.132 -1.243,-0.15 -1.242,-0.167 -1.239,-0.185 -1.237,-0.202 -1.233,-0.22 -1.231,-0.237 -1.226,-0.255 -1.223,-0.272 -1.219,-0.289 -1.215,-0.306 -1.211,-0.324 -1.205,-0.341 -1.201,-0.357 -1.196,-0.375 -1.19,-0.391 -1.185,-0.409 -1.178,-0.425 -1.173,-0.441 -1.166,-0.458 -1.159,-0.475 -1.153,-0.491 -1.146,-0.507 -1.138,-0.523 -1.131,-0.54 -1.123,-0.555 -1.115,-0.571 -1.107,-0.587 -1.099,-0.603 -1.09,-0.618 -1.081,-0.633 -1.072,-0.649 -1.062,-0.663 -1.054,-0.679 -1.043,-0.693 -1.034,-0.709 -1.023,-0.722 -1.013,-0.737 -1.003,-0.752 -0.992,-0.765 -0.981,-0.78 -0.97,-0.793 -0.958,-0.807 -0.947,-0.82 -0.936,-0.834 -0.923,-0.846 -0.911,-0.86 -0.9,-0.873 -0.886,-0.885 -0.874,-0.897 -0.862,-0.91 -0.848,-0.922 -0.835,-0.934 m -1.063,-0.48 0.15,0.008 0.148,0.024 0.145,0.039 0.14,0.054 0.133,0.069 0.126,0.083 0.116,0.096 0.105,0.107 m -14.013,-0.48 h 12.95 m -14.367,1.417 0.009,-0.159 0.026,-0.156 0.044,-0.153 0.061,-0.147 0.077,-0.139 0.092,-0.13 0.106,-0.118 0.118,-0.106 0.13,-0.092 0.139,-0.077 0.147,-0.061 0.153,-0.044 0.156,-0.026 0.159,-0.009 m -1.417,2.834 v -1.417 M 0,-56.693 l 0.222,-0.009 0.221,-0.026 0.219,-0.043 0.214,-0.061 0.209,-0.077 0.202,-0.093 0.194,-0.109 0.185,-0.123 0.175,-0.138 0.163,-0.151 0.151,-0.164 0.138,-0.174 0.124,-0.185 0.109,-0.195 0.093,-0.202 0.077,-0.209 0.06,-0.214 0.044,-0.218 0.026,-0.221 0.009,-0.223 m -198.426,0 0.009,0.223 0.026,0.221 0.044,0.218 0.06,0.214 0.077,0.209 0.093,0.202 0.109,0.195 0.124,0.185 0.138,0.174 0.151,0.164 0.163,0.151 0.175,0.138 0.185,0.123 0.194,0.109 0.202,0.093 0.209,0.077 0.214,0.061 0.219,0.043 0.221,0.026 0.222,0.009 m -2.835,-2.835 v -1.417 m 0,0 -0.008,-0.159 -0.027,-0.156 -0.044,-0.153 -0.061,-0.147 -0.077,-0.139 -0.092,-0.13 -0.106,-0.118 -0.118,-0.106 -0.13,-0.092 -0.139,-0.077 -0.147,-0.061 -0.152,-0.044 -0.157,-0.026 -0.159,-0.009 m -12.756,0 h 12.756 m -12.756,0 -0.15,0.008 -0.148,0.024 -0.146,0.039 -0.14,0.055 -0.133,0.069 -0.126,0.083 -0.116,0.095 -0.105,0.108 m -61.38,29.924 1.249,-0.081 1.248,-0.099 1.246,-0.117 1.245,-0.134 1.242,-0.152 1.241,-0.169 1.238,-0.187 1.235,-0.204 1.232,-0.222 1.228,-0.239 1.226,-0.256 1.221,-0.274 1.218,-0.291 1.213,-0.308 1.209,-0.325 1.204,-0.343 1.199,-0.359 1.194,-0.376 1.188,-0.393 1.183,-0.41 1.177,-0.426 1.171,-0.444 1.164,-0.459 1.158,-0.476 1.151,-0.492 1.144,-0.509 1.136,-0.524 1.129,-0.541 1.122,-0.556 1.113,-0.573 1.105,-0.588 1.097,-0.603 1.088,-0.619 1.079,-0.634 1.07,-0.65 1.061,-0.664 1.051,-0.68 1.042,-0.694 1.032,-0.709 1.021,-0.723 1.012,-0.738 1,-0.752 0.991,-0.766 0.979,-0.78 0.968,-0.794 0.956,-0.807 0.945,-0.821 0.934,-0.834 0.922,-0.847 0.909,-0.86 0.897,-0.873 0.885,-0.885 0.873,-0.898 0.859,-0.91 0.847,-0.922 0.833,-0.934 m -62.715,31.339 0.009,-0.165 0.029,-0.162 0.047,-0.158 0.066,-0.151 0.082,-0.143 0.098,-0.132 0.114,-0.12 0.126,-0.106 0.138,-0.091 0.147,-0.074 0.155,-0.056 0.16,-0.038 0.164,-0.019 m -1.335,7.243 v -5.828 m 0,5.828 0.009,0.163 0.028,0.161 0.047,0.156 0.064,0.15 0.081,0.142 0.096,0.132 0.112,0.119 0.124,0.106 0.136,0.091 0.145,0.075 0.153,0.058 0.158,0.039 0.162,0.021 m 0,0 1.238,0.099 1.236,0.115 1.234,0.133 1.232,0.15 1.231,0.167 1.227,0.185 1.225,0.202 1.222,0.218 1.219,0.236 1.216,0.254 1.212,0.27 1.207,0.287 1.204,0.304 1.2,0.32 1.194,0.338 1.19,0.354 1.185,0.371 1.179,0.387 1.174,0.404 1.169,0.421 1.162,0.437 1.156,0.452 1.149,0.47 1.143,0.485 1.136,0.501 1.129,0.517 1.121,0.533 1.114,0.548 1.106,0.564 1.098,0.58 1.09,0.594 1.081,0.61 1.073,0.625 1.063,0.64 1.055,0.655 1.046,0.67 1.036,0.684 1.026,0.699 1.016,0.713 1.006,0.727 0.996,0.741 0.986,0.755 0.975,0.769 0.964,0.782 0.953,0.796 0.941,0.809 0.931,0.823 0.918,0.835 0.907,0.848 0.895,0.86 0.883,0.873 0.87,0.886 0.858,0.897 0.845,0.909 0.832,0.922 0.82,0.932 0.806,0.945 m 1.084,0.504 -0.154,-0.008 -0.152,-0.025 -0.149,-0.042 -0.143,-0.057 -0.136,-0.073 -0.127,-0.087 -0.117,-0.1 L -210.848,8 m 1.084,0.504 h 12.756 m 1.417,-1.417 -0.008,0.158 -0.027,0.157 -0.044,0.153 -0.061,0.147 -0.077,0.139 -0.092,0.129 -0.106,0.119 -0.118,0.106 -0.13,0.092 -0.139,0.077 -0.147,0.06 -0.152,0.044 -0.157,0.027 -0.159,0.009 m 1.417,-1.417 V 5.669 m 0,0 0.009,-0.222 0.026,-0.221 0.044,-0.218 0.06,-0.215 0.077,-0.208 0.093,-0.203 0.109,-0.194 0.124,-0.185 0.138,-0.175 0.151,-0.163 0.163,-0.151 0.175,-0.138 0.185,-0.124 0.194,-0.108 0.202,-0.094 0.209,-0.077 0.214,-0.06 0.219,-0.043 0.221,-0.027 0.222,-0.008 M 2.835,5.669 2.826,5.447 2.8,5.226 2.756,5.008 2.696,4.793 2.619,4.585 2.526,4.382 2.417,4.188 2.293,4.003 2.155,3.828 2.004,3.665 1.841,3.514 1.666,3.376 1.481,3.252 1.287,3.144 1.085,3.05 0.876,2.973 0.662,2.913 0.443,2.87 0.222,2.843 0,2.835 M 0,-56.693 H -192.756 M 0,2.835 h -192.756 m 4.252,-29.764 -0.009,0.497 -0.026,0.497 -0.043,0.496 -0.061,0.493 -0.079,0.492 -0.095,0.488 -0.113,0.484 -0.129,0.481 -0.146,0.475 -0.163,0.47 -0.179,0.464 -0.196,0.458 -0.211,0.45 -0.227,0.443 -0.243,0.434 -0.257,0.426 -0.272,0.416 -0.287,0.407 -0.301,0.396 -0.314,0.386 -0.328,0.374 -0.341,0.362 -0.353,0.35 -0.366,0.338 -0.377,0.324 -0.388,0.312 -0.399,0.297 -0.409,0.283 -0.419,0.269 -0.427,0.254 -0.437,0.238 -0.445,0.223 -0.452,0.208 -0.459,0.191 -0.466,0.175 -0.471,0.159 -0.477,0.142 -0.481,0.125 -0.486,0.108 -0.489,0.092 -0.492,0.074 -0.494,0.056 -0.496,0.039 -0.497,0.022 -0.498,0.005 -0.497,-0.014 -0.496,-0.03 -0.496,-0.048 -0.493,-0.065 -0.49,-0.083 -0.488,-0.1 -0.483,-0.116 -0.479,-0.134 -0.475,-0.15 -0.468,-0.167 -0.463,-0.184 -0.455,-0.199 -0.449,-0.215 -0.441,-0.231 -0.432,-0.247 -0.423,-0.261 -0.414,-0.276 -0.404,-0.29 -0.394,-0.304 -0.382,-0.318 -0.372,-0.331 -0.359,-0.344 -0.347,-0.357 -0.335,-0.368 -0.321,-0.38 -0.308,-0.391 -0.293,-0.401 -0.28,-0.412 -0.265,-0.421 -0.25,-0.43 -0.235,-0.438 -0.219,-0.447 -0.203,-0.454 -0.188,-0.461 -0.171,-0.467 -0.154,-0.473 -0.138,-0.478 -0.121,-0.482 -0.104,-0.487 -0.087,-0.49 -0.07,-0.492 -0.052,-0.495 -0.035,-0.496 -0.017,-0.497 v -0.498 l 0.017,-0.497 0.035,-0.496 0.052,-0.495 0.07,-0.493 0.087,-0.489 0.104,-0.487 0.121,-0.482 0.138,-0.478 0.154,-0.473 0.171,-0.467 0.188,-0.461 0.203,-0.454 0.219,-0.447 0.235,-0.438 0.25,-0.431 0.265,-0.421 0.28,-0.411 0.293,-0.402 0.308,-0.39 0.321,-0.38 0.335,-0.369 0.347,-0.356 0.359,-0.344 0.372,-0.331 0.382,-0.318 0.394,-0.304 0.404,-0.291 0.414,-0.276 0.423,-0.261 0.432,-0.246 0.441,-0.231 0.449,-0.215 0.455,-0.2 0.463,-0.183 0.468,-0.167 0.475,-0.15 0.479,-0.134 0.483,-0.117 0.488,-0.099 0.49,-0.083 0.493,-0.065 0.496,-0.048 0.496,-0.031 0.497,-0.013 0.498,0.005 0.497,0.021 0.496,0.04 0.494,0.056 0.492,0.074 0.489,0.091 0.486,0.109 0.481,0.125 0.477,0.142 0.471,0.159 0.466,0.175 0.459,0.191 0.452,0.208 0.445,0.223 0.437,0.238 0.427,0.254 0.419,0.269 0.409,0.283 0.399,0.297 0.388,0.311 0.377,0.325 0.366,0.337 0.353,0.351 0.341,0.362 0.328,0.374 0.314,0.386 0.301,0.396 0.287,0.406 0.272,0.417 0.257,0.425 0.243,0.435 0.227,0.442 0.211,0.451 0.196,0.457 0.179,0.464 0.163,0.47 0.146,0.476 0.129,0.48 0.113,0.485 0.095,0.488 0.079,0.491 0.061,0.494 0.043,0.496 0.026,0.496 0.009,0.498 m 101.339,0 -0.009,0.402 -0.026,0.401 -0.044,0.399 -0.061,0.398 -0.079,0.394 -0.095,0.39 -0.113,0.386 -0.129,0.381 -0.146,0.374 -0.162,0.368 -0.177,0.361 -0.194,0.352 -0.208,0.344 -0.223,0.334 -0.238,0.324 -0.252,0.314 -0.265,0.302 -0.278,0.29 -0.29,0.278 -0.302,0.265 -0.314,0.252 -0.324,0.237 -0.334,0.224 -0.344,0.208 -0.352,0.194 -0.361,0.177 -0.367,0.162 -0.375,0.146 -0.381,0.129 -0.386,0.113 -0.39,0.095 -0.394,0.079 -0.397,0.061 -0.4,0.043 -0.401,0.027 -0.402,0.008 -0.402,-0.008 -0.401,-0.027 -0.399,-0.043 -0.398,-0.061 -0.394,-0.079 -0.39,-0.095 -0.386,-0.113 -0.381,-0.129 -0.374,-0.146 -0.368,-0.162 -0.361,-0.177 -0.352,-0.194 -0.344,-0.208 -0.334,-0.224 -0.324,-0.237 -0.314,-0.252 -0.302,-0.265 -0.29,-0.278 -0.278,-0.29 -0.265,-0.302 -0.252,-0.314 -0.237,-0.324 -0.224,-0.334 -0.208,-0.344 -0.194,-0.352 -0.177,-0.361 -0.162,-0.368 -0.146,-0.374 -0.129,-0.381 -0.113,-0.386 -0.095,-0.39 -0.079,-0.394 -0.061,-0.398 -0.043,-0.399 -0.027,-0.401 -0.009,-0.402 0.009,-0.402 0.027,-0.401 0.043,-0.4 0.061,-0.397 0.079,-0.394 0.095,-0.391 0.113,-0.385 0.129,-0.381 0.146,-0.375 0.162,-0.368 0.177,-0.36 0.194,-0.352 0.208,-0.344 0.224,-0.334 0.237,-0.324 0.252,-0.314 0.265,-0.302 0.278,-0.29 0.29,-0.278 0.302,-0.265 0.314,-0.252 0.324,-0.238 0.334,-0.223 0.344,-0.208 0.352,-0.194 0.361,-0.178 0.368,-0.161 0.374,-0.146 0.381,-0.129 0.386,-0.113 0.39,-0.095 0.394,-0.079 0.398,-0.061 0.399,-0.044 0.401,-0.026 0.402,-0.009 0.402,0.009 0.401,0.026 0.4,0.044 0.397,0.061 0.394,0.079 0.39,0.095 0.386,0.113 0.381,0.129 0.375,0.146 0.367,0.161 0.361,0.178 0.352,0.194 0.344,0.208 0.334,0.223 0.324,0.238 0.314,0.252 0.302,0.265 0.29,0.278 0.278,0.29 0.265,0.302 0.252,0.314 0.238,0.324 0.223,0.334 0.208,0.344 0.194,0.352 0.177,0.36 0.162,0.368 0.146,0.375 0.129,0.381 0.113,0.385 0.095,0.391 0.079,0.394 0.061,0.397 0.044,0.4 0.026,0.401 0.009,0.402 M -200.773,2.835 h -7.04 m 7.04,0 0.137,-0.363 0.154,-0.356 0.17,-0.348 0.186,-0.34 0.201,-0.332 0.215,-0.322 0.231,-0.312 0.244,-0.301 0.258,-0.289 0.27,-0.278 0.284,-0.265 0.294,-0.251 0.306,-0.238 0.317,-0.224 0.326,-0.209 0.336,-0.194 0.344,-0.179 0.352,-0.163 0.359,-0.146 0.365,-0.13 0.371,-0.113 0.375,-0.097 0.38,-0.079 0.383,-0.061 0.385,-0.044 0.387,-0.027 0.387,-0.009 M 0,-2.835 h -192.756 m 192.756,0 0.388,0.009 0.386,0.027 0.386,0.044 0.382,0.061 0.38,0.079 0.375,0.097 0.371,0.113 0.365,0.13 0.359,0.146 0.352,0.163 0.344,0.179 0.336,0.194 0.326,0.209 0.317,0.224 0.306,0.238 0.295,0.251 0.283,0.265 0.27,0.278 0.258,0.289 0.244,0.301 0.231,0.312 0.216,0.322 0.201,0.332 0.185,0.34 0.17,0.348 0.154,0.356 0.138,0.363 m 8.99,0 h -8.99 m 9.36,-0.167 -0.037,0.037 -0.04,0.033 -0.044,0.029 -0.046,0.024 -0.049,0.019 -0.05,0.014 -0.052,0.008 -0.052,0.003 m 0.37,-0.167 0.856,-0.955 0.868,-0.943 0.882,-0.931 0.893,-0.92 0.907,-0.906 0.918,-0.895 0.931,-0.882 0.943,-0.869 0.954,-0.856 0.966,-0.844 0.977,-0.83 0.988,-0.816 1,-0.803 1.01,-0.79 1.021,-0.775 1.032,-0.762 1.041,-0.748 1.052,-0.733 1.062,-0.719 1.071,-0.704 1.081,-0.69 1.09,-0.675 1.099,-0.66 1.108,-0.646 1.117,-0.63 1.125,-0.614 1.133,-0.6 1.142,-0.584 1.149,-0.568 1.157,-0.553 1.164,-0.537 1.172,-0.52 1.178,-0.505 1.186,-0.489 1.192,-0.473 1.198,-0.457 1.204,-0.44 1.21,-0.423 1.216,-0.408 1.221,-0.39 1.226,-0.374 1.232,-0.358 1.236,-0.34 1.241,-0.324 1.244,-0.307 1.249,-0.289 1.253,-0.273 1.257,-0.256 m 0,0 -1.27,-0.212 -1.266,-0.229 -1.263,-0.246 -1.26,-0.264 -1.256,-0.281 -1.252,-0.298 -1.248,-0.315 -1.243,-0.332 -1.239,-0.349 -1.234,-0.366 -1.229,-0.382 -1.223,-0.4 -1.218,-0.416 -1.212,-0.432 -1.206,-0.45 -1.2,-0.465 -1.194,-0.482 -1.186,-0.498 -1.18,-0.515 -1.173,-0.53 -1.165,-0.547 -1.158,-0.562 -1.15,-0.578 -1.141,-0.594 -1.134,-0.609 -1.125,-0.624 -1.117,-0.64 -1.108,-0.655 -1.099,-0.671 -1.089,-0.685 -1.08,-0.7 -1.071,-0.714 -1.06,-0.73 -1.051,-0.743 -1.04,-0.758 -1.03,-0.772 -1.019,-0.786 -1.008,-0.8 -0.997,-0.813 -0.986,-0.827 -0.975,-0.841 -0.963,-0.853 -0.952,-0.867 -0.939,-0.88 -0.927,-0.892 -0.916,-0.905 -0.902,-0.918 -0.89,-0.929 -0.878,-0.942 m -7.29,0 h 7.29 m -7.29,0 -0.138,0.363 -0.154,0.355 -0.17,0.349 -0.185,0.34 -0.201,0.332 -0.216,0.322 -0.231,0.312 -0.244,0.3 -0.258,0.29 -0.27,0.278 -0.283,0.264 -0.295,0.252 -0.306,0.238 -0.317,0.224 -0.326,0.209 -0.336,0.194 -0.344,0.179 -0.352,0.163 -0.359,0.146 -0.365,0.13 -0.371,0.113 -0.375,0.096 -0.38,0.079 -0.382,0.062 -0.386,0.044 -0.386,0.027 L 0,-51.024 m 0,0 h -192.756 m 0,0 -0.387,-0.008 -0.387,-0.027 -0.385,-0.044 -0.383,-0.062 -0.38,-0.079 -0.375,-0.096 -0.371,-0.113 -0.365,-0.13 -0.359,-0.146 -0.352,-0.163 -0.344,-0.179 -0.336,-0.194 -0.326,-0.209 -0.317,-0.224 -0.306,-0.238 -0.294,-0.252 -0.284,-0.264 -0.27,-0.278 -0.258,-0.29 -0.244,-0.3 -0.231,-0.312 -0.215,-0.322 -0.201,-0.332 -0.186,-0.34 -0.17,-0.349 -0.154,-0.355 -0.137,-0.363 m -7.095,0 h 7.095 m -7.095,0 -0.876,0.942 -0.889,0.931 -0.901,0.918 -0.914,0.906 -0.926,0.893 -0.938,0.88 -0.95,0.868 -0.962,0.854 -0.974,0.841 -0.985,0.828 -0.996,0.815 -1.007,0.8 -1.018,0.787 -1.028,0.773 -1.039,0.759 -1.05,0.745 -1.059,0.73 -1.069,0.715 -1.079,0.701 -1.089,0.687 -1.097,0.671 -1.107,0.656 -1.116,0.641 -1.124,0.626 -1.132,0.61 -1.141,0.595 -1.149,0.579 -1.157,0.564 -1.164,0.547 -1.172,0.532 -1.179,0.516 -1.185,0.499 -1.193,0.483 -1.199,0.467 -1.205,0.451 -1.211,0.434 -1.217,0.417 -1.223,0.401 -1.228,0.384 -1.233,0.367 -1.238,0.351 -1.242,0.333 -1.247,0.317 -1.252,0.299 -1.255,0.283 -1.259,0.265 -1.263,0.248 -1.265,0.23 m 0,0 1.276,0.251 1.273,0.269 1.27,0.286 1.265,0.304 1.261,0.321 1.256,0.338 1.252,0.356 1.246,0.373 1.241,0.39 1.236,0.407 1.23,0.425 1.224,0.441 1.218,0.458 1.211,0.475 1.205,0.491 1.198,0.508 1.19,0.525 1.184,0.541 1.175,0.557 1.168,0.573 1.16,0.59 1.152,0.605 1.143,0.622 1.135,0.637 1.125,0.652 1.117,0.668 1.107,0.684 1.098,0.698 1.087,0.714 1.078,0.729 1.068,0.743 1.057,0.758 1.047,0.773 1.036,0.787 1.025,0.801 1.014,0.816 1.003,0.829 0.991,0.843 0.979,0.857 0.968,0.87 0.955,0.883 0.943,0.897 0.93,0.909 0.918,0.922 0.905,0.935 0.893,0.947 0.878,0.959 0.866,0.972 m 231.908,-29.764 -0.009,0.497 -0.026,0.497 -0.044,0.496 -0.061,0.493 -0.078,0.492 -0.096,0.488 -0.112,0.484 -0.13,0.481 -0.146,0.475 -0.163,0.47 -0.179,0.464 -0.195,0.458 -0.212,0.45 -0.227,0.443 -0.242,0.434 -0.258,0.426 -0.272,0.416 -0.287,0.407 -0.3,0.396 -0.315,0.386 -0.328,0.374 -0.341,0.362 -0.353,0.35 -0.365,0.338 -0.377,0.324 -0.389,0.312 -0.398,0.297 -0.409,0.283 -0.419,0.269 -0.428,0.254 -0.437,0.238 -0.444,0.223 -0.452,0.208 -0.46,0.191 -0.465,0.175 -0.472,0.159 -0.476,0.142 -0.482,0.125 -0.485,0.108 -0.49,0.092 -0.491,0.074 -0.495,0.056 -0.496,0.039 -0.497,0.022 -0.497,0.005 L 9.3,-12.77 8.803,-12.8 8.308,-12.848 7.815,-12.913 7.324,-12.996 6.837,-13.096 6.353,-13.212 5.874,-13.346 5.4,-13.496 4.931,-13.663 4.469,-13.847 4.013,-14.046 3.564,-14.261 3.124,-14.492 2.692,-14.739 2.268,-15 1.854,-15.276 1.45,-15.566 1.057,-15.87 l -0.383,-0.318 -0.371,-0.331 -0.36,-0.344 -0.347,-0.357 -0.334,-0.368 -0.321,-0.38 -0.308,-0.391 -0.294,-0.401 -0.279,-0.412 -0.265,-0.421 -0.25,-0.43 -0.235,-0.438 -0.219,-0.447 -0.204,-0.454 -0.187,-0.461 -0.171,-0.467 -0.155,-0.473 -0.138,-0.478 -0.121,-0.482 -0.104,-0.487 -0.087,-0.49 -0.069,-0.492 -0.052,-0.495 -0.035,-0.496 -0.018,-0.497 v -0.498 l 0.018,-0.497 0.035,-0.496 0.052,-0.495 0.069,-0.493 0.087,-0.489 0.104,-0.487 0.121,-0.482 0.138,-0.478 0.155,-0.473 0.171,-0.467 0.187,-0.461 0.204,-0.454 0.219,-0.447 0.235,-0.438 0.25,-0.431 0.265,-0.421 0.279,-0.411 0.294,-0.402 0.308,-0.39 0.321,-0.38 0.334,-0.369 0.347,-0.356 0.36,-0.344 0.371,-0.331 0.383,-0.318 0.393,-0.304 0.404,-0.291 0.414,-0.276 0.424,-0.261 0.432,-0.246 0.44,-0.231 0.449,-0.215 0.456,-0.2 0.462,-0.183 0.469,-0.167 0.474,-0.15 0.479,-0.134 0.484,-0.117 0.487,-0.099 0.491,-0.083 0.493,-0.065 0.495,-0.048 0.497,-0.031 0.497,-0.013 0.497,0.005 0.497,0.021 0.496,0.04 0.495,0.056 0.491,0.074 0.49,0.091 0.485,0.109 0.482,0.125 0.476,0.142 0.472,0.159 0.465,0.175 0.46,0.191 0.452,0.208 0.444,0.223 0.437,0.238 0.428,0.254 0.419,0.269 0.409,0.283 0.398,0.297 0.389,0.311 0.377,0.325 0.365,0.337 0.353,0.351 0.341,0.362 0.328,0.374 0.315,0.386 0.3,0.396 0.287,0.406 0.272,0.417 0.258,0.425 0.242,0.435 0.227,0.442 0.212,0.451 0.195,0.457 0.179,0.464 0.163,0.47 0.146,0.476 0.13,0.48 0.112,0.485 0.096,0.488 0.078,0.491 0.061,0.494 0.044,0.496 0.026,0.496 0.009,0.498"
         style="fill:none;stroke:#000000;stroke-width:0.70899999;stroke-linecap:round;stroke-linejoin:round;stroke-miterlimit:10;stroke-dasharray:none;stroke-opacity:1"
         id="path1490"
         inkscape:connector-curvature="0" /></g><g
       id="g1580"
       transform="translate(101.24698,861.82214)"><path
         d="M 0,0 H 226.772 M 297.638,-70.866 226.772,0 M -70.866,-70.866 h 368.504 m -368.504,0 L 0,0"
         style="fill:none;stroke:#000000;stroke-width:0.70899999;stroke-linecap:round;stroke-linejoin:round;stroke-miterlimit:10;stroke-dasharray:none;stroke-opacity:1"
         id="path1582"
         inkscape:connector-curvature="0" /></g></g></svg>